<?xml version="1.0" encoding="utf-8" standalone="no"?>
<!DOCTYPE svg PUBLIC "-//W3C//DTD SVG 1.1//EN"
  "http://www.w3.org/Graphics/SVG/1.1/DTD/svg11.dtd">
<!-- Created with matplotlib (https://matplotlib.org/) -->
<svg height="589.79625pt" version="1.1" viewBox="0 0 712.98625 589.79625" width="712.98625pt" xmlns="http://www.w3.org/2000/svg" xmlns:xlink="http://www.w3.org/1999/xlink">
 <defs>
  <style type="text/css">
*{stroke-linecap:butt;stroke-linejoin:round;}
  </style>
 </defs>
 <g id="figure_1">
  <g id="patch_1">
   <path d="M 0 589.79625 
L 712.98625 589.79625 
L 712.98625 0 
L 0 0 
z
" style="fill:#ffffff;"/>
  </g>
  <g id="axes_1">
   <g id="patch_2">
    <path d="M 63.50625 565.918125 
L 509.90625 565.918125 
L 509.90625 442.37267 
L 63.50625 442.37267 
z
" style="fill:#ffffff;"/>
   </g>
   <g id="PolyCollection_1">
    <path clip-path="url(#p92580ca529)" d="M 63.50625 522.506453 
L 63.50625 565.918125 
L 72.259191 565.918125 
L 81.012132 565.918125 
L 89.765074 565.918125 
L 98.518015 565.918125 
L 107.270956 565.918125 
L 116.023897 565.918125 
L 124.776838 565.918125 
L 133.529779 565.918125 
L 142.282721 565.918125 
L 151.035662 565.918125 
L 159.788603 565.918125 
L 168.541544 565.918125 
L 177.294485 565.918125 
L 186.047426 565.918125 
L 194.800368 565.918125 
L 203.553309 565.918125 
L 212.30625 565.918125 
L 221.059191 565.918125 
L 229.812132 565.918125 
L 238.565074 565.918125 
L 247.318015 565.918125 
L 256.070956 565.918125 
L 264.823897 565.918125 
L 273.576838 565.918125 
L 282.329779 565.918125 
L 291.082721 565.918125 
L 299.835662 565.918125 
L 308.588603 565.918125 
L 317.341544 565.918125 
L 326.094485 565.918125 
L 334.847426 565.918125 
L 343.600368 565.918125 
L 352.353309 565.918125 
L 361.10625 565.918125 
L 369.859191 565.918125 
L 378.612132 565.918125 
L 387.365074 565.918125 
L 396.118015 565.918125 
L 404.870956 565.918125 
L 413.623897 565.918125 
L 422.376838 565.918125 
L 431.129779 565.918125 
L 439.882721 565.918125 
L 448.635662 565.918125 
L 457.388603 565.918125 
L 466.141544 565.918125 
L 474.894485 565.918125 
L 483.647426 565.918125 
L 492.400368 565.918125 
L 501.153309 565.918125 
L 509.90625 565.918125 
L 509.90625 508.772879 
L 509.90625 508.772879 
L 501.153309 472.541028 
L 492.400368 477.681453 
L 483.647426 468.45553 
L 474.894485 474.074679 
L 466.141544 469.597866 
L 457.388603 473.715562 
L 448.635662 463.503617 
L 439.882721 467.542697 
L 431.129779 479.802178 
L 422.376838 492.77367 
L 413.623897 453.604075 
L 404.870956 487.280619 
L 396.118015 466.524442 
L 387.365074 478.759782 
L 378.612132 487.127324 
L 369.859191 498.863761 
L 361.10625 499.776225 
L 352.353309 498.597209 
L 343.600368 502.657697 
L 334.847426 493.904169 
L 326.094485 501.642721 
L 317.341544 508.110103 
L 308.588603 499.93519 
L 299.835662 480.619159 
L 291.082721 501.89726 
L 282.329779 480.820954 
L 273.576838 468.707473 
L 264.823897 472.74483 
L 256.070956 475.371414 
L 247.318015 495.964552 
L 238.565074 468.838323 
L 229.812132 474.517673 
L 221.059191 474.971506 
L 212.30625 483.673902 
L 203.553309 472.676522 
L 194.800368 463.129489 
L 186.047426 484.357277 
L 177.294485 514.294646 
L 168.541544 476.731871 
L 159.788603 491.659853 
L 151.035662 489.975824 
L 142.282721 497.71377 
L 133.529779 498.324839 
L 124.776838 496.103135 
L 116.023897 474.736987 
L 107.270956 490.367114 
L 98.518015 492.230134 
L 89.765074 491.876251 
L 81.012132 491.272929 
L 72.259191 486.368672 
L 63.50625 522.506453 
z
" style="fill:#592400;fill-opacity:0.6;"/>
   </g>
   <g id="matplotlib.axis_1">
    <g id="xtick_1">
     <g id="line2d_1">
      <defs>
       <path d="M 0 0 
L 0 3.5 
" id="m405db577e9" style="stroke:#000000;stroke-width:0.8;"/>
      </defs>
      <g>
       <use style="stroke:#000000;stroke-width:0.8;" x="63.50625" xlink:href="#m405db577e9" y="565.918125"/>
      </g>
     </g>
     <g id="text_1">
      <!-- Jan -->
      <defs>
       <path d="M 9.8125 72.90625 
L 19.671875 72.90625 
L 19.671875 5.078125 
Q 19.671875 -8.109375 14.671875 -14.0625 
Q 9.671875 -20.015625 -1.421875 -20.015625 
L -5.171875 -20.015625 
L -5.171875 -11.71875 
L -2.09375 -11.71875 
Q 4.4375 -11.71875 7.125 -8.046875 
Q 9.8125 -4.390625 9.8125 5.078125 
z
" id="DejaVuSans-74"/>
       <path d="M 34.28125 27.484375 
Q 23.390625 27.484375 19.1875 25 
Q 14.984375 22.515625 14.984375 16.5 
Q 14.984375 11.71875 18.140625 8.90625 
Q 21.296875 6.109375 26.703125 6.109375 
Q 34.1875 6.109375 38.703125 11.40625 
Q 43.21875 16.703125 43.21875 25.484375 
L 43.21875 27.484375 
z
M 52.203125 31.203125 
L 52.203125 0 
L 43.21875 0 
L 43.21875 8.296875 
Q 40.140625 3.328125 35.546875 0.953125 
Q 30.953125 -1.421875 24.3125 -1.421875 
Q 15.921875 -1.421875 10.953125 3.296875 
Q 6 8.015625 6 15.921875 
Q 6 25.140625 12.171875 29.828125 
Q 18.359375 34.515625 30.609375 34.515625 
L 43.21875 34.515625 
L 43.21875 35.40625 
Q 43.21875 41.609375 39.140625 45 
Q 35.0625 48.390625 27.6875 48.390625 
Q 23 48.390625 18.546875 47.265625 
Q 14.109375 46.140625 10.015625 43.890625 
L 10.015625 52.203125 
Q 14.9375 54.109375 19.578125 55.046875 
Q 24.21875 56 28.609375 56 
Q 40.484375 56 46.34375 49.84375 
Q 52.203125 43.703125 52.203125 31.203125 
z
" id="DejaVuSans-97"/>
       <path d="M 54.890625 33.015625 
L 54.890625 0 
L 45.90625 0 
L 45.90625 32.71875 
Q 45.90625 40.484375 42.875 44.328125 
Q 39.84375 48.1875 33.796875 48.1875 
Q 26.515625 48.1875 22.3125 43.546875 
Q 18.109375 38.921875 18.109375 30.90625 
L 18.109375 0 
L 9.078125 0 
L 9.078125 54.6875 
L 18.109375 54.6875 
L 18.109375 46.1875 
Q 21.34375 51.125 25.703125 53.5625 
Q 30.078125 56 35.796875 56 
Q 45.21875 56 50.046875 50.171875 
Q 54.890625 44.34375 54.890625 33.015625 
z
" id="DejaVuSans-110"/>
      </defs>
      <g transform="translate(55.798437 580.516562)scale(0.1 -0.1)">
       <use xlink:href="#DejaVuSans-74"/>
       <use x="29.492188" xlink:href="#DejaVuSans-97"/>
       <use x="90.771484" xlink:href="#DejaVuSans-110"/>
      </g>
     </g>
    </g>
    <g id="xtick_2">
     <g id="line2d_2">
      <g>
       <use style="stroke:#000000;stroke-width:0.8;" x="107.270956" xlink:href="#m405db577e9" y="565.918125"/>
      </g>
     </g>
     <g id="text_2">
      <!-- Feb -->
      <defs>
       <path d="M 9.8125 72.90625 
L 51.703125 72.90625 
L 51.703125 64.59375 
L 19.671875 64.59375 
L 19.671875 43.109375 
L 48.578125 43.109375 
L 48.578125 34.8125 
L 19.671875 34.8125 
L 19.671875 0 
L 9.8125 0 
z
" id="DejaVuSans-70"/>
       <path d="M 56.203125 29.59375 
L 56.203125 25.203125 
L 14.890625 25.203125 
Q 15.484375 15.921875 20.484375 11.0625 
Q 25.484375 6.203125 34.421875 6.203125 
Q 39.59375 6.203125 44.453125 7.46875 
Q 49.3125 8.734375 54.109375 11.28125 
L 54.109375 2.78125 
Q 49.265625 0.734375 44.1875 -0.34375 
Q 39.109375 -1.421875 33.890625 -1.421875 
Q 20.796875 -1.421875 13.15625 6.1875 
Q 5.515625 13.8125 5.515625 26.8125 
Q 5.515625 40.234375 12.765625 48.109375 
Q 20.015625 56 32.328125 56 
Q 43.359375 56 49.78125 48.890625 
Q 56.203125 41.796875 56.203125 29.59375 
z
M 47.21875 32.234375 
Q 47.125 39.59375 43.09375 43.984375 
Q 39.0625 48.390625 32.421875 48.390625 
Q 24.90625 48.390625 20.390625 44.140625 
Q 15.875 39.890625 15.1875 32.171875 
z
" id="DejaVuSans-101"/>
       <path d="M 48.6875 27.296875 
Q 48.6875 37.203125 44.609375 42.84375 
Q 40.53125 48.484375 33.40625 48.484375 
Q 26.265625 48.484375 22.1875 42.84375 
Q 18.109375 37.203125 18.109375 27.296875 
Q 18.109375 17.390625 22.1875 11.75 
Q 26.265625 6.109375 33.40625 6.109375 
Q 40.53125 6.109375 44.609375 11.75 
Q 48.6875 17.390625 48.6875 27.296875 
z
M 18.109375 46.390625 
Q 20.953125 51.265625 25.265625 53.625 
Q 29.59375 56 35.59375 56 
Q 45.5625 56 51.78125 48.09375 
Q 58.015625 40.1875 58.015625 27.296875 
Q 58.015625 14.40625 51.78125 6.484375 
Q 45.5625 -1.421875 35.59375 -1.421875 
Q 29.59375 -1.421875 25.265625 0.953125 
Q 20.953125 3.328125 18.109375 8.203125 
L 18.109375 0 
L 9.078125 0 
L 9.078125 75.984375 
L 18.109375 75.984375 
z
" id="DejaVuSans-98"/>
      </defs>
      <g transform="translate(98.1483 580.516562)scale(0.1 -0.1)">
       <use xlink:href="#DejaVuSans-70"/>
       <use x="57.441406" xlink:href="#DejaVuSans-101"/>
       <use x="118.964844" xlink:href="#DejaVuSans-98"/>
      </g>
     </g>
    </g>
    <g id="xtick_3">
     <g id="line2d_3">
      <g>
       <use style="stroke:#000000;stroke-width:0.8;" x="142.282721" xlink:href="#m405db577e9" y="565.918125"/>
      </g>
     </g>
     <g id="text_3">
      <!-- Mar -->
      <defs>
       <path d="M 9.8125 72.90625 
L 24.515625 72.90625 
L 43.109375 23.296875 
L 61.8125 72.90625 
L 76.515625 72.90625 
L 76.515625 0 
L 66.890625 0 
L 66.890625 64.015625 
L 48.09375 14.015625 
L 38.1875 14.015625 
L 19.390625 64.015625 
L 19.390625 0 
L 9.8125 0 
z
" id="DejaVuSans-77"/>
       <path d="M 41.109375 46.296875 
Q 39.59375 47.171875 37.8125 47.578125 
Q 36.03125 48 33.890625 48 
Q 26.265625 48 22.1875 43.046875 
Q 18.109375 38.09375 18.109375 28.8125 
L 18.109375 0 
L 9.078125 0 
L 9.078125 54.6875 
L 18.109375 54.6875 
L 18.109375 46.1875 
Q 20.953125 51.171875 25.484375 53.578125 
Q 30.03125 56 36.53125 56 
Q 37.453125 56 38.578125 55.875 
Q 39.703125 55.765625 41.0625 55.515625 
z
" id="DejaVuSans-114"/>
      </defs>
      <g transform="translate(132.849127 580.516562)scale(0.1 -0.1)">
       <use xlink:href="#DejaVuSans-77"/>
       <use x="86.279297" xlink:href="#DejaVuSans-97"/>
       <use x="147.558594" xlink:href="#DejaVuSans-114"/>
      </g>
     </g>
    </g>
    <g id="xtick_4">
     <g id="line2d_4">
      <g>
       <use style="stroke:#000000;stroke-width:0.8;" x="177.294485" xlink:href="#m405db577e9" y="565.918125"/>
      </g>
     </g>
     <g id="text_4">
      <!-- Apr -->
      <defs>
       <path d="M 34.1875 63.1875 
L 20.796875 26.90625 
L 47.609375 26.90625 
z
M 28.609375 72.90625 
L 39.796875 72.90625 
L 67.578125 0 
L 57.328125 0 
L 50.6875 18.703125 
L 17.828125 18.703125 
L 11.1875 0 
L 0.78125 0 
z
" id="DejaVuSans-65"/>
       <path d="M 18.109375 8.203125 
L 18.109375 -20.796875 
L 9.078125 -20.796875 
L 9.078125 54.6875 
L 18.109375 54.6875 
L 18.109375 46.390625 
Q 20.953125 51.265625 25.265625 53.625 
Q 29.59375 56 35.59375 56 
Q 45.5625 56 51.78125 48.09375 
Q 58.015625 40.1875 58.015625 27.296875 
Q 58.015625 14.40625 51.78125 6.484375 
Q 45.5625 -1.421875 35.59375 -1.421875 
Q 29.59375 -1.421875 25.265625 0.953125 
Q 20.953125 3.328125 18.109375 8.203125 
z
M 48.6875 27.296875 
Q 48.6875 37.203125 44.609375 42.84375 
Q 40.53125 48.484375 33.40625 48.484375 
Q 26.265625 48.484375 22.1875 42.84375 
Q 18.109375 37.203125 18.109375 27.296875 
Q 18.109375 17.390625 22.1875 11.75 
Q 26.265625 6.109375 33.40625 6.109375 
Q 40.53125 6.109375 44.609375 11.75 
Q 48.6875 17.390625 48.6875 27.296875 
z
" id="DejaVuSans-112"/>
      </defs>
      <g transform="translate(168.644485 580.516562)scale(0.1 -0.1)">
       <use xlink:href="#DejaVuSans-65"/>
       <use x="68.408203" xlink:href="#DejaVuSans-112"/>
       <use x="131.884766" xlink:href="#DejaVuSans-114"/>
      </g>
     </g>
    </g>
    <g id="xtick_5">
     <g id="line2d_5">
      <g>
       <use style="stroke:#000000;stroke-width:0.8;" x="212.30625" xlink:href="#m405db577e9" y="565.918125"/>
      </g>
     </g>
     <g id="text_5">
      <!-- May -->
      <defs>
       <path d="M 32.171875 -5.078125 
Q 28.375 -14.84375 24.75 -17.8125 
Q 21.140625 -20.796875 15.09375 -20.796875 
L 7.90625 -20.796875 
L 7.90625 -13.28125 
L 13.1875 -13.28125 
Q 16.890625 -13.28125 18.9375 -11.515625 
Q 21 -9.765625 23.484375 -3.21875 
L 25.09375 0.875 
L 2.984375 54.6875 
L 12.5 54.6875 
L 29.59375 11.921875 
L 46.6875 54.6875 
L 56.203125 54.6875 
z
" id="DejaVuSans-121"/>
      </defs>
      <g transform="translate(201.96875 580.516562)scale(0.1 -0.1)">
       <use xlink:href="#DejaVuSans-77"/>
       <use x="86.279297" xlink:href="#DejaVuSans-97"/>
       <use x="147.558594" xlink:href="#DejaVuSans-121"/>
      </g>
     </g>
    </g>
    <g id="xtick_6">
     <g id="line2d_6">
      <g>
       <use style="stroke:#000000;stroke-width:0.8;" x="256.070956" xlink:href="#m405db577e9" y="565.918125"/>
      </g>
     </g>
     <g id="text_6">
      <!-- Jun -->
      <defs>
       <path d="M 8.5 21.578125 
L 8.5 54.6875 
L 17.484375 54.6875 
L 17.484375 21.921875 
Q 17.484375 14.15625 20.5 10.265625 
Q 23.53125 6.390625 29.59375 6.390625 
Q 36.859375 6.390625 41.078125 11.03125 
Q 45.3125 15.671875 45.3125 23.6875 
L 45.3125 54.6875 
L 54.296875 54.6875 
L 54.296875 0 
L 45.3125 0 
L 45.3125 8.40625 
Q 42.046875 3.421875 37.71875 1 
Q 33.40625 -1.421875 27.6875 -1.421875 
Q 18.265625 -1.421875 13.375 4.4375 
Q 8.5 10.296875 8.5 21.578125 
z
M 31.109375 56 
z
" id="DejaVuSans-117"/>
      </defs>
      <g transform="translate(248.258456 580.516562)scale(0.1 -0.1)">
       <use xlink:href="#DejaVuSans-74"/>
       <use x="29.492188" xlink:href="#DejaVuSans-117"/>
       <use x="92.871094" xlink:href="#DejaVuSans-110"/>
      </g>
     </g>
    </g>
    <g id="xtick_7">
     <g id="line2d_7">
      <g>
       <use style="stroke:#000000;stroke-width:0.8;" x="291.082721" xlink:href="#m405db577e9" y="565.918125"/>
      </g>
     </g>
     <g id="text_7">
      <!-- Jul -->
      <defs>
       <path d="M 9.421875 75.984375 
L 18.40625 75.984375 
L 18.40625 0 
L 9.421875 0 
z
" id="DejaVuSans-108"/>
      </defs>
      <g transform="translate(285.049908 580.516562)scale(0.1 -0.1)">
       <use xlink:href="#DejaVuSans-74"/>
       <use x="29.492188" xlink:href="#DejaVuSans-117"/>
       <use x="92.871094" xlink:href="#DejaVuSans-108"/>
      </g>
     </g>
    </g>
    <g id="xtick_8">
     <g id="line2d_8">
      <g>
       <use style="stroke:#000000;stroke-width:0.8;" x="326.094485" xlink:href="#m405db577e9" y="565.918125"/>
      </g>
     </g>
     <g id="text_8">
      <!-- Aug -->
      <defs>
       <path d="M 45.40625 27.984375 
Q 45.40625 37.75 41.375 43.109375 
Q 37.359375 48.484375 30.078125 48.484375 
Q 22.859375 48.484375 18.828125 43.109375 
Q 14.796875 37.75 14.796875 27.984375 
Q 14.796875 18.265625 18.828125 12.890625 
Q 22.859375 7.515625 30.078125 7.515625 
Q 37.359375 7.515625 41.375 12.890625 
Q 45.40625 18.265625 45.40625 27.984375 
z
M 54.390625 6.78125 
Q 54.390625 -7.171875 48.1875 -13.984375 
Q 42 -20.796875 29.203125 -20.796875 
Q 24.46875 -20.796875 20.265625 -20.09375 
Q 16.0625 -19.390625 12.109375 -17.921875 
L 12.109375 -9.1875 
Q 16.0625 -11.328125 19.921875 -12.34375 
Q 23.78125 -13.375 27.78125 -13.375 
Q 36.625 -13.375 41.015625 -8.765625 
Q 45.40625 -4.15625 45.40625 5.171875 
L 45.40625 9.625 
Q 42.625 4.78125 38.28125 2.390625 
Q 33.9375 0 27.875 0 
Q 17.828125 0 11.671875 7.65625 
Q 5.515625 15.328125 5.515625 27.984375 
Q 5.515625 40.671875 11.671875 48.328125 
Q 17.828125 56 27.875 56 
Q 33.9375 56 38.28125 53.609375 
Q 42.625 51.21875 45.40625 46.390625 
L 45.40625 54.6875 
L 54.390625 54.6875 
z
" id="DejaVuSans-103"/>
      </defs>
      <g transform="translate(316.331204 580.516562)scale(0.1 -0.1)">
       <use xlink:href="#DejaVuSans-65"/>
       <use x="68.408203" xlink:href="#DejaVuSans-117"/>
       <use x="131.787109" xlink:href="#DejaVuSans-103"/>
      </g>
     </g>
    </g>
    <g id="xtick_9">
     <g id="line2d_9">
      <g>
       <use style="stroke:#000000;stroke-width:0.8;" x="369.859191" xlink:href="#m405db577e9" y="565.918125"/>
      </g>
     </g>
     <g id="text_9">
      <!-- Sept -->
      <defs>
       <path d="M 53.515625 70.515625 
L 53.515625 60.890625 
Q 47.90625 63.578125 42.921875 64.890625 
Q 37.9375 66.21875 33.296875 66.21875 
Q 25.25 66.21875 20.875 63.09375 
Q 16.5 59.96875 16.5 54.203125 
Q 16.5 49.359375 19.40625 46.890625 
Q 22.3125 44.4375 30.421875 42.921875 
L 36.375 41.703125 
Q 47.40625 39.59375 52.65625 34.296875 
Q 57.90625 29 57.90625 20.125 
Q 57.90625 9.515625 50.796875 4.046875 
Q 43.703125 -1.421875 29.984375 -1.421875 
Q 24.8125 -1.421875 18.96875 -0.25 
Q 13.140625 0.921875 6.890625 3.21875 
L 6.890625 13.375 
Q 12.890625 10.015625 18.65625 8.296875 
Q 24.421875 6.59375 29.984375 6.59375 
Q 38.421875 6.59375 43.015625 9.90625 
Q 47.609375 13.234375 47.609375 19.390625 
Q 47.609375 24.75 44.3125 27.78125 
Q 41.015625 30.8125 33.5 32.328125 
L 27.484375 33.5 
Q 16.453125 35.6875 11.515625 40.375 
Q 6.59375 45.0625 6.59375 53.421875 
Q 6.59375 63.09375 13.40625 68.65625 
Q 20.21875 74.21875 32.171875 74.21875 
Q 37.3125 74.21875 42.625 73.28125 
Q 47.953125 72.359375 53.515625 70.515625 
z
" id="DejaVuSans-83"/>
       <path d="M 18.3125 70.21875 
L 18.3125 54.6875 
L 36.8125 54.6875 
L 36.8125 47.703125 
L 18.3125 47.703125 
L 18.3125 18.015625 
Q 18.3125 11.328125 20.140625 9.421875 
Q 21.96875 7.515625 27.59375 7.515625 
L 36.8125 7.515625 
L 36.8125 0 
L 27.59375 0 
Q 17.1875 0 13.234375 3.875 
Q 9.28125 7.765625 9.28125 18.015625 
L 9.28125 47.703125 
L 2.6875 47.703125 
L 2.6875 54.6875 
L 9.28125 54.6875 
L 9.28125 70.21875 
z
" id="DejaVuSans-116"/>
      </defs>
      <g transform="translate(358.474035 580.516562)scale(0.1 -0.1)">
       <use xlink:href="#DejaVuSans-83"/>
       <use x="63.476562" xlink:href="#DejaVuSans-101"/>
       <use x="125" xlink:href="#DejaVuSans-112"/>
       <use x="188.476562" xlink:href="#DejaVuSans-116"/>
      </g>
     </g>
    </g>
    <g id="xtick_10">
     <g id="line2d_10">
      <g>
       <use style="stroke:#000000;stroke-width:0.8;" x="404.870956" xlink:href="#m405db577e9" y="565.918125"/>
      </g>
     </g>
     <g id="text_10">
      <!-- Oct -->
      <defs>
       <path d="M 39.40625 66.21875 
Q 28.65625 66.21875 22.328125 58.203125 
Q 16.015625 50.203125 16.015625 36.375 
Q 16.015625 22.609375 22.328125 14.59375 
Q 28.65625 6.59375 39.40625 6.59375 
Q 50.140625 6.59375 56.421875 14.59375 
Q 62.703125 22.609375 62.703125 36.375 
Q 62.703125 50.203125 56.421875 58.203125 
Q 50.140625 66.21875 39.40625 66.21875 
z
M 39.40625 74.21875 
Q 54.734375 74.21875 63.90625 63.9375 
Q 73.09375 53.65625 73.09375 36.375 
Q 73.09375 19.140625 63.90625 8.859375 
Q 54.734375 -1.421875 39.40625 -1.421875 
Q 24.03125 -1.421875 14.8125 8.828125 
Q 5.609375 19.09375 5.609375 36.375 
Q 5.609375 53.65625 14.8125 63.9375 
Q 24.03125 74.21875 39.40625 74.21875 
z
" id="DejaVuSans-79"/>
       <path d="M 48.78125 52.59375 
L 48.78125 44.1875 
Q 44.96875 46.296875 41.140625 47.34375 
Q 37.3125 48.390625 33.40625 48.390625 
Q 24.65625 48.390625 19.8125 42.84375 
Q 14.984375 37.3125 14.984375 27.296875 
Q 14.984375 17.28125 19.8125 11.734375 
Q 24.65625 6.203125 33.40625 6.203125 
Q 37.3125 6.203125 41.140625 7.25 
Q 44.96875 8.296875 48.78125 10.40625 
L 48.78125 2.09375 
Q 45.015625 0.34375 40.984375 -0.53125 
Q 36.96875 -1.421875 32.421875 -1.421875 
Q 20.0625 -1.421875 12.78125 6.34375 
Q 5.515625 14.109375 5.515625 27.296875 
Q 5.515625 40.671875 12.859375 48.328125 
Q 20.21875 56 33.015625 56 
Q 37.15625 56 41.109375 55.140625 
Q 45.0625 54.296875 48.78125 52.59375 
z
" id="DejaVuSans-99"/>
      </defs>
      <g transform="translate(396.225643 580.516562)scale(0.1 -0.1)">
       <use xlink:href="#DejaVuSans-79"/>
       <use x="78.710938" xlink:href="#DejaVuSans-99"/>
       <use x="133.691406" xlink:href="#DejaVuSans-116"/>
      </g>
     </g>
    </g>
    <g id="xtick_11">
     <g id="line2d_11">
      <g>
       <use style="stroke:#000000;stroke-width:0.8;" x="439.882721" xlink:href="#m405db577e9" y="565.918125"/>
      </g>
     </g>
     <g id="text_11">
      <!-- Nov -->
      <defs>
       <path d="M 9.8125 72.90625 
L 23.09375 72.90625 
L 55.421875 11.921875 
L 55.421875 72.90625 
L 64.984375 72.90625 
L 64.984375 0 
L 51.703125 0 
L 19.390625 60.984375 
L 19.390625 0 
L 9.8125 0 
z
" id="DejaVuSans-78"/>
       <path d="M 30.609375 48.390625 
Q 23.390625 48.390625 19.1875 42.75 
Q 14.984375 37.109375 14.984375 27.296875 
Q 14.984375 17.484375 19.15625 11.84375 
Q 23.34375 6.203125 30.609375 6.203125 
Q 37.796875 6.203125 41.984375 11.859375 
Q 46.1875 17.53125 46.1875 27.296875 
Q 46.1875 37.015625 41.984375 42.703125 
Q 37.796875 48.390625 30.609375 48.390625 
z
M 30.609375 56 
Q 42.328125 56 49.015625 48.375 
Q 55.71875 40.765625 55.71875 27.296875 
Q 55.71875 13.875 49.015625 6.21875 
Q 42.328125 -1.421875 30.609375 -1.421875 
Q 18.84375 -1.421875 12.171875 6.21875 
Q 5.515625 13.875 5.515625 27.296875 
Q 5.515625 40.765625 12.171875 48.375 
Q 18.84375 56 30.609375 56 
z
" id="DejaVuSans-111"/>
       <path d="M 2.984375 54.6875 
L 12.5 54.6875 
L 29.59375 8.796875 
L 46.6875 54.6875 
L 56.203125 54.6875 
L 35.6875 0 
L 23.484375 0 
z
" id="DejaVuSans-118"/>
      </defs>
      <g transform="translate(430.123346 580.516562)scale(0.1 -0.1)">
       <use xlink:href="#DejaVuSans-78"/>
       <use x="74.804688" xlink:href="#DejaVuSans-111"/>
       <use x="135.986328" xlink:href="#DejaVuSans-118"/>
      </g>
     </g>
    </g>
    <g id="xtick_12">
     <g id="line2d_12">
      <g>
       <use style="stroke:#000000;stroke-width:0.8;" x="474.894485" xlink:href="#m405db577e9" y="565.918125"/>
      </g>
     </g>
     <g id="text_12">
      <!-- Dec -->
      <defs>
       <path d="M 19.671875 64.796875 
L 19.671875 8.109375 
L 31.59375 8.109375 
Q 46.6875 8.109375 53.6875 14.9375 
Q 60.6875 21.78125 60.6875 36.53125 
Q 60.6875 51.171875 53.6875 57.984375 
Q 46.6875 64.796875 31.59375 64.796875 
z
M 9.8125 72.90625 
L 30.078125 72.90625 
Q 51.265625 72.90625 61.171875 64.09375 
Q 71.09375 55.28125 71.09375 36.53125 
Q 71.09375 17.671875 61.125 8.828125 
Q 51.171875 0 30.078125 0 
L 9.8125 0 
z
" id="DejaVuSans-68"/>
      </defs>
      <g transform="translate(465.218704 580.516562)scale(0.1 -0.1)">
       <use xlink:href="#DejaVuSans-68"/>
       <use x="77.001953" xlink:href="#DejaVuSans-101"/>
       <use x="138.525391" xlink:href="#DejaVuSans-99"/>
      </g>
     </g>
    </g>
   </g>
   <g id="matplotlib.axis_2">
    <g id="ytick_1">
     <g id="line2d_13">
      <defs>
       <path d="M 0 0 
L -3.5 0 
" id="mb324315742" style="stroke:#000000;stroke-width:0.8;"/>
      </defs>
      <g>
       <use style="stroke:#000000;stroke-width:0.8;" x="63.50625" xlink:href="#mb324315742" y="565.918125"/>
      </g>
     </g>
     <g id="text_13">
      <!-- 0.000 -->
      <defs>
       <path d="M 31.78125 66.40625 
Q 24.171875 66.40625 20.328125 58.90625 
Q 16.5 51.421875 16.5 36.375 
Q 16.5 21.390625 20.328125 13.890625 
Q 24.171875 6.390625 31.78125 6.390625 
Q 39.453125 6.390625 43.28125 13.890625 
Q 47.125 21.390625 47.125 36.375 
Q 47.125 51.421875 43.28125 58.90625 
Q 39.453125 66.40625 31.78125 66.40625 
z
M 31.78125 74.21875 
Q 44.046875 74.21875 50.515625 64.515625 
Q 56.984375 54.828125 56.984375 36.375 
Q 56.984375 17.96875 50.515625 8.265625 
Q 44.046875 -1.421875 31.78125 -1.421875 
Q 19.53125 -1.421875 13.0625 8.265625 
Q 6.59375 17.96875 6.59375 36.375 
Q 6.59375 54.828125 13.0625 64.515625 
Q 19.53125 74.21875 31.78125 74.21875 
z
" id="DejaVuSans-48"/>
       <path d="M 10.6875 12.40625 
L 21 12.40625 
L 21 0 
L 10.6875 0 
z
" id="DejaVuSans-46"/>
      </defs>
      <g transform="translate(27.878125 569.717344)scale(0.1 -0.1)">
       <use xlink:href="#DejaVuSans-48"/>
       <use x="63.623047" xlink:href="#DejaVuSans-46"/>
       <use x="95.410156" xlink:href="#DejaVuSans-48"/>
       <use x="159.033203" xlink:href="#DejaVuSans-48"/>
       <use x="222.65625" xlink:href="#DejaVuSans-48"/>
      </g>
     </g>
    </g>
    <g id="ytick_2">
     <g id="line2d_14">
      <g>
       <use style="stroke:#000000;stroke-width:0.8;" x="63.50625" xlink:href="#mb324315742" y="525.771319"/>
      </g>
     </g>
     <g id="text_14">
      <!-- 0.005 -->
      <defs>
       <path d="M 10.796875 72.90625 
L 49.515625 72.90625 
L 49.515625 64.59375 
L 19.828125 64.59375 
L 19.828125 46.734375 
Q 21.96875 47.46875 24.109375 47.828125 
Q 26.265625 48.1875 28.421875 48.1875 
Q 40.625 48.1875 47.75 41.5 
Q 54.890625 34.8125 54.890625 23.390625 
Q 54.890625 11.625 47.5625 5.09375 
Q 40.234375 -1.421875 26.90625 -1.421875 
Q 22.3125 -1.421875 17.546875 -0.640625 
Q 12.796875 0.140625 7.71875 1.703125 
L 7.71875 11.625 
Q 12.109375 9.234375 16.796875 8.0625 
Q 21.484375 6.890625 26.703125 6.890625 
Q 35.15625 6.890625 40.078125 11.328125 
Q 45.015625 15.765625 45.015625 23.390625 
Q 45.015625 31 40.078125 35.4375 
Q 35.15625 39.890625 26.703125 39.890625 
Q 22.75 39.890625 18.8125 39.015625 
Q 14.890625 38.140625 10.796875 36.28125 
z
" id="DejaVuSans-53"/>
      </defs>
      <g transform="translate(27.878125 529.570538)scale(0.1 -0.1)">
       <use xlink:href="#DejaVuSans-48"/>
       <use x="63.623047" xlink:href="#DejaVuSans-46"/>
       <use x="95.410156" xlink:href="#DejaVuSans-48"/>
       <use x="159.033203" xlink:href="#DejaVuSans-48"/>
       <use x="222.65625" xlink:href="#DejaVuSans-53"/>
      </g>
     </g>
    </g>
    <g id="ytick_3">
     <g id="line2d_15">
      <g>
       <use style="stroke:#000000;stroke-width:0.8;" x="63.50625" xlink:href="#mb324315742" y="485.624514"/>
      </g>
     </g>
     <g id="text_15">
      <!-- 0.010 -->
      <defs>
       <path d="M 12.40625 8.296875 
L 28.515625 8.296875 
L 28.515625 63.921875 
L 10.984375 60.40625 
L 10.984375 69.390625 
L 28.421875 72.90625 
L 38.28125 72.90625 
L 38.28125 8.296875 
L 54.390625 8.296875 
L 54.390625 0 
L 12.40625 0 
z
" id="DejaVuSans-49"/>
      </defs>
      <g transform="translate(27.878125 489.423732)scale(0.1 -0.1)">
       <use xlink:href="#DejaVuSans-48"/>
       <use x="63.623047" xlink:href="#DejaVuSans-46"/>
       <use x="95.410156" xlink:href="#DejaVuSans-48"/>
       <use x="159.033203" xlink:href="#DejaVuSans-49"/>
       <use x="222.65625" xlink:href="#DejaVuSans-48"/>
      </g>
     </g>
    </g>
    <g id="ytick_4">
     <g id="line2d_16">
      <g>
       <use style="stroke:#000000;stroke-width:0.8;" x="63.50625" xlink:href="#mb324315742" y="445.477708"/>
      </g>
     </g>
     <g id="text_16">
      <!-- 0.015 -->
      <g transform="translate(27.878125 449.276927)scale(0.1 -0.1)">
       <use xlink:href="#DejaVuSans-48"/>
       <use x="63.623047" xlink:href="#DejaVuSans-46"/>
       <use x="95.410156" xlink:href="#DejaVuSans-48"/>
       <use x="159.033203" xlink:href="#DejaVuSans-49"/>
       <use x="222.65625" xlink:href="#DejaVuSans-53"/>
      </g>
     </g>
    </g>
    <g id="text_17">
     <!-- Power (GW) -->
     <defs>
      <path d="M 19.671875 64.796875 
L 19.671875 37.40625 
L 32.078125 37.40625 
Q 38.96875 37.40625 42.71875 40.96875 
Q 46.484375 44.53125 46.484375 51.125 
Q 46.484375 57.671875 42.71875 61.234375 
Q 38.96875 64.796875 32.078125 64.796875 
z
M 9.8125 72.90625 
L 32.078125 72.90625 
Q 44.34375 72.90625 50.609375 67.359375 
Q 56.890625 61.8125 56.890625 51.125 
Q 56.890625 40.328125 50.609375 34.8125 
Q 44.34375 29.296875 32.078125 29.296875 
L 19.671875 29.296875 
L 19.671875 0 
L 9.8125 0 
z
" id="DejaVuSans-80"/>
      <path d="M 4.203125 54.6875 
L 13.1875 54.6875 
L 24.421875 12.015625 
L 35.59375 54.6875 
L 46.1875 54.6875 
L 57.421875 12.015625 
L 68.609375 54.6875 
L 77.59375 54.6875 
L 63.28125 0 
L 52.6875 0 
L 40.921875 44.828125 
L 29.109375 0 
L 18.5 0 
z
" id="DejaVuSans-119"/>
      <path id="DejaVuSans-32"/>
      <path d="M 31 75.875 
Q 24.46875 64.65625 21.28125 53.65625 
Q 18.109375 42.671875 18.109375 31.390625 
Q 18.109375 20.125 21.3125 9.0625 
Q 24.515625 -2 31 -13.1875 
L 23.1875 -13.1875 
Q 15.875 -1.703125 12.234375 9.375 
Q 8.59375 20.453125 8.59375 31.390625 
Q 8.59375 42.28125 12.203125 53.3125 
Q 15.828125 64.359375 23.1875 75.875 
z
" id="DejaVuSans-40"/>
      <path d="M 59.515625 10.40625 
L 59.515625 29.984375 
L 43.40625 29.984375 
L 43.40625 38.09375 
L 69.28125 38.09375 
L 69.28125 6.78125 
Q 63.578125 2.734375 56.6875 0.65625 
Q 49.8125 -1.421875 42 -1.421875 
Q 24.90625 -1.421875 15.25 8.5625 
Q 5.609375 18.5625 5.609375 36.375 
Q 5.609375 54.25 15.25 64.234375 
Q 24.90625 74.21875 42 74.21875 
Q 49.125 74.21875 55.546875 72.453125 
Q 61.96875 70.703125 67.390625 67.28125 
L 67.390625 56.78125 
Q 61.921875 61.421875 55.765625 63.765625 
Q 49.609375 66.109375 42.828125 66.109375 
Q 29.4375 66.109375 22.71875 58.640625 
Q 16.015625 51.171875 16.015625 36.375 
Q 16.015625 21.625 22.71875 14.15625 
Q 29.4375 6.6875 42.828125 6.6875 
Q 48.046875 6.6875 52.140625 7.59375 
Q 56.25 8.5 59.515625 10.40625 
z
" id="DejaVuSans-71"/>
      <path d="M 3.328125 72.90625 
L 13.28125 72.90625 
L 28.609375 11.28125 
L 43.890625 72.90625 
L 54.984375 72.90625 
L 70.3125 11.28125 
L 85.59375 72.90625 
L 95.609375 72.90625 
L 77.296875 0 
L 64.890625 0 
L 49.515625 63.28125 
L 33.984375 0 
L 21.578125 0 
z
" id="DejaVuSans-87"/>
      <path d="M 8.015625 75.875 
L 15.828125 75.875 
Q 23.140625 64.359375 26.78125 53.3125 
Q 30.421875 42.28125 30.421875 31.390625 
Q 30.421875 20.453125 26.78125 9.375 
Q 23.140625 -1.703125 15.828125 -13.1875 
L 8.015625 -13.1875 
Q 14.5 -2 17.703125 9.0625 
Q 20.90625 20.125 20.90625 31.390625 
Q 20.90625 42.671875 17.703125 53.65625 
Q 14.5 64.65625 8.015625 75.875 
z
" id="DejaVuSans-41"/>
     </defs>
     <g transform="translate(14.798437 533.74696)rotate(-90)scale(0.1 -0.1)">
      <use xlink:href="#DejaVuSans-80"/>
      <use x="60.255859" xlink:href="#DejaVuSans-111"/>
      <use x="121.4375" xlink:href="#DejaVuSans-119"/>
      <use x="203.224609" xlink:href="#DejaVuSans-101"/>
      <use x="264.748047" xlink:href="#DejaVuSans-114"/>
      <use x="305.861328" xlink:href="#DejaVuSans-32"/>
      <use x="337.648438" xlink:href="#DejaVuSans-40"/>
      <use x="376.662109" xlink:href="#DejaVuSans-71"/>
      <use x="454.152344" xlink:href="#DejaVuSans-87"/>
      <use x="553.029297" xlink:href="#DejaVuSans-41"/>
     </g>
    </g>
   </g>
   <g id="line2d_17">
    <path clip-path="url(#p92580ca529)" d="M 63.50625 522.506453 
L 72.259191 486.368672 
L 81.012132 491.272929 
L 89.765074 491.876251 
L 98.518015 492.230134 
L 107.270956 490.367114 
L 116.023897 474.736987 
L 124.776838 496.103135 
L 133.529779 498.324839 
L 142.282721 497.71377 
L 151.035662 489.975824 
L 159.788603 491.659853 
L 168.541544 476.731871 
L 177.294485 514.294646 
L 186.047426 484.357277 
L 194.800368 463.129489 
L 203.553309 472.676522 
L 212.30625 483.673902 
L 221.059191 474.971506 
L 229.812132 474.517673 
L 238.565074 468.838323 
L 247.318015 495.964552 
L 256.070956 475.371414 
L 264.823897 472.74483 
L 273.576838 468.707473 
L 282.329779 480.820954 
L 291.082721 501.89726 
L 299.835662 480.619159 
L 308.588603 499.93519 
L 317.341544 508.110103 
L 326.094485 501.642721 
L 334.847426 493.904169 
L 343.600368 502.657697 
L 352.353309 498.597209 
L 361.10625 499.776225 
L 369.859191 498.863761 
L 378.612132 487.127324 
L 387.365074 478.759782 
L 396.118015 466.524442 
L 404.870956 487.280619 
L 413.623897 453.604075 
L 422.376838 492.77367 
L 431.129779 479.802178 
L 439.882721 467.542697 
L 448.635662 463.503617 
L 457.388603 473.715562 
L 466.141544 469.597866 
L 474.894485 474.074679 
L 483.647426 468.45553 
L 492.400368 477.681453 
L 501.153309 472.541028 
L 509.90625 508.772879 
" style="fill:none;stroke:#000000;stroke-linecap:square;stroke-opacity:0.5;stroke-width:1.5;"/>
   </g>
   <g id="patch_3">
    <path d="M 63.50625 565.918125 
L 63.50625 442.37267 
" style="fill:none;stroke:#000000;stroke-linecap:square;stroke-linejoin:miter;stroke-width:0.8;"/>
   </g>
   <g id="patch_4">
    <path d="M 509.90625 565.918125 
L 509.90625 442.37267 
" style="fill:none;stroke:#000000;stroke-linecap:square;stroke-linejoin:miter;stroke-width:0.8;"/>
   </g>
   <g id="patch_5">
    <path d="M 63.50625 565.918125 
L 509.90625 565.918125 
" style="fill:none;stroke:#000000;stroke-linecap:square;stroke-linejoin:miter;stroke-width:0.8;"/>
   </g>
   <g id="patch_6">
    <path d="M 63.50625 442.37267 
L 509.90625 442.37267 
" style="fill:none;stroke:#000000;stroke-linecap:square;stroke-linejoin:miter;stroke-width:0.8;"/>
   </g>
   <g id="legend_1">
    <g id="patch_7">
     <path d="M 594.114375 465.050795 
L 703.78625 465.050795 
Q 705.78625 465.050795 705.78625 463.050795 
L 705.78625 449.37267 
Q 705.78625 447.37267 703.78625 447.37267 
L 594.114375 447.37267 
Q 592.114375 447.37267 592.114375 449.37267 
L 592.114375 463.050795 
Q 592.114375 465.050795 594.114375 465.050795 
z
" style="fill:#ffffff;opacity:0.8;stroke:#cccccc;stroke-linejoin:miter;"/>
    </g>
    <g id="patch_8">
     <path d="M 596.114375 458.971108 
L 616.114375 458.971108 
L 616.114375 451.971108 
L 596.114375 451.971108 
z
" style="fill:#592400;opacity:0.6;"/>
    </g>
    <g id="text_18">
     <!-- Coffee Biomass -->
     <defs>
      <path d="M 64.40625 67.28125 
L 64.40625 56.890625 
Q 59.421875 61.53125 53.78125 63.8125 
Q 48.140625 66.109375 41.796875 66.109375 
Q 29.296875 66.109375 22.65625 58.46875 
Q 16.015625 50.828125 16.015625 36.375 
Q 16.015625 21.96875 22.65625 14.328125 
Q 29.296875 6.6875 41.796875 6.6875 
Q 48.140625 6.6875 53.78125 8.984375 
Q 59.421875 11.28125 64.40625 15.921875 
L 64.40625 5.609375 
Q 59.234375 2.09375 53.4375 0.328125 
Q 47.65625 -1.421875 41.21875 -1.421875 
Q 24.65625 -1.421875 15.125 8.703125 
Q 5.609375 18.84375 5.609375 36.375 
Q 5.609375 53.953125 15.125 64.078125 
Q 24.65625 74.21875 41.21875 74.21875 
Q 47.75 74.21875 53.53125 72.484375 
Q 59.328125 70.75 64.40625 67.28125 
z
" id="DejaVuSans-67"/>
      <path d="M 37.109375 75.984375 
L 37.109375 68.5 
L 28.515625 68.5 
Q 23.6875 68.5 21.796875 66.546875 
Q 19.921875 64.59375 19.921875 59.515625 
L 19.921875 54.6875 
L 34.71875 54.6875 
L 34.71875 47.703125 
L 19.921875 47.703125 
L 19.921875 0 
L 10.890625 0 
L 10.890625 47.703125 
L 2.296875 47.703125 
L 2.296875 54.6875 
L 10.890625 54.6875 
L 10.890625 58.5 
Q 10.890625 67.625 15.140625 71.796875 
Q 19.390625 75.984375 28.609375 75.984375 
z
" id="DejaVuSans-102"/>
      <path d="M 19.671875 34.8125 
L 19.671875 8.109375 
L 35.5 8.109375 
Q 43.453125 8.109375 47.28125 11.40625 
Q 51.125 14.703125 51.125 21.484375 
Q 51.125 28.328125 47.28125 31.5625 
Q 43.453125 34.8125 35.5 34.8125 
z
M 19.671875 64.796875 
L 19.671875 42.828125 
L 34.28125 42.828125 
Q 41.5 42.828125 45.03125 45.53125 
Q 48.578125 48.25 48.578125 53.8125 
Q 48.578125 59.328125 45.03125 62.0625 
Q 41.5 64.796875 34.28125 64.796875 
z
M 9.8125 72.90625 
L 35.015625 72.90625 
Q 46.296875 72.90625 52.390625 68.21875 
Q 58.5 63.53125 58.5 54.890625 
Q 58.5 48.1875 55.375 44.234375 
Q 52.25 40.28125 46.1875 39.3125 
Q 53.46875 37.75 57.5 32.78125 
Q 61.53125 27.828125 61.53125 20.40625 
Q 61.53125 10.640625 54.890625 5.3125 
Q 48.25 0 35.984375 0 
L 9.8125 0 
z
" id="DejaVuSans-66"/>
      <path d="M 9.421875 54.6875 
L 18.40625 54.6875 
L 18.40625 0 
L 9.421875 0 
z
M 9.421875 75.984375 
L 18.40625 75.984375 
L 18.40625 64.59375 
L 9.421875 64.59375 
z
" id="DejaVuSans-105"/>
      <path d="M 52 44.1875 
Q 55.375 50.25 60.0625 53.125 
Q 64.75 56 71.09375 56 
Q 79.640625 56 84.28125 50.015625 
Q 88.921875 44.046875 88.921875 33.015625 
L 88.921875 0 
L 79.890625 0 
L 79.890625 32.71875 
Q 79.890625 40.578125 77.09375 44.375 
Q 74.3125 48.1875 68.609375 48.1875 
Q 61.625 48.1875 57.5625 43.546875 
Q 53.515625 38.921875 53.515625 30.90625 
L 53.515625 0 
L 44.484375 0 
L 44.484375 32.71875 
Q 44.484375 40.625 41.703125 44.40625 
Q 38.921875 48.1875 33.109375 48.1875 
Q 26.21875 48.1875 22.15625 43.53125 
Q 18.109375 38.875 18.109375 30.90625 
L 18.109375 0 
L 9.078125 0 
L 9.078125 54.6875 
L 18.109375 54.6875 
L 18.109375 46.1875 
Q 21.1875 51.21875 25.484375 53.609375 
Q 29.78125 56 35.6875 56 
Q 41.65625 56 45.828125 52.96875 
Q 50 49.953125 52 44.1875 
z
" id="DejaVuSans-109"/>
      <path d="M 44.28125 53.078125 
L 44.28125 44.578125 
Q 40.484375 46.53125 36.375 47.5 
Q 32.28125 48.484375 27.875 48.484375 
Q 21.1875 48.484375 17.84375 46.4375 
Q 14.5 44.390625 14.5 40.28125 
Q 14.5 37.15625 16.890625 35.375 
Q 19.28125 33.59375 26.515625 31.984375 
L 29.59375 31.296875 
Q 39.15625 29.25 43.1875 25.515625 
Q 47.21875 21.78125 47.21875 15.09375 
Q 47.21875 7.46875 41.1875 3.015625 
Q 35.15625 -1.421875 24.609375 -1.421875 
Q 20.21875 -1.421875 15.453125 -0.5625 
Q 10.6875 0.296875 5.421875 2 
L 5.421875 11.28125 
Q 10.40625 8.6875 15.234375 7.390625 
Q 20.0625 6.109375 24.8125 6.109375 
Q 31.15625 6.109375 34.5625 8.28125 
Q 37.984375 10.453125 37.984375 14.40625 
Q 37.984375 18.0625 35.515625 20.015625 
Q 33.0625 21.96875 24.703125 23.78125 
L 21.578125 24.515625 
Q 13.234375 26.265625 9.515625 29.90625 
Q 5.8125 33.546875 5.8125 39.890625 
Q 5.8125 47.609375 11.28125 51.796875 
Q 16.75 56 26.8125 56 
Q 31.78125 56 36.171875 55.265625 
Q 40.578125 54.546875 44.28125 53.078125 
z
" id="DejaVuSans-115"/>
     </defs>
     <g transform="translate(624.114375 458.971108)scale(0.1 -0.1)">
      <use xlink:href="#DejaVuSans-67"/>
      <use x="69.824219" xlink:href="#DejaVuSans-111"/>
      <use x="131.005859" xlink:href="#DejaVuSans-102"/>
      <use x="166.210938" xlink:href="#DejaVuSans-102"/>
      <use x="201.416016" xlink:href="#DejaVuSans-101"/>
      <use x="262.939453" xlink:href="#DejaVuSans-101"/>
      <use x="324.462891" xlink:href="#DejaVuSans-32"/>
      <use x="356.25" xlink:href="#DejaVuSans-66"/>
      <use x="424.853516" xlink:href="#DejaVuSans-105"/>
      <use x="452.636719" xlink:href="#DejaVuSans-111"/>
      <use x="513.818359" xlink:href="#DejaVuSans-109"/>
      <use x="611.230469" xlink:href="#DejaVuSans-97"/>
      <use x="672.509766" xlink:href="#DejaVuSans-115"/>
      <use x="724.609375" xlink:href="#DejaVuSans-115"/>
     </g>
    </g>
   </g>
  </g>
  <g id="axes_2">
   <g id="patch_9">
    <path d="M 63.50625 392.954489 
L 509.90625 392.954489 
L 509.90625 22.318125 
L 63.50625 22.318125 
z
" style="fill:#ffffff;"/>
   </g>
   <g id="PolyCollection_2">
    <path clip-path="url(#p07e7be9b9e)" d="M 63.50625 181.809609 
L 63.50625 392.954489 
L 72.259191 392.954489 
L 81.012132 392.954489 
L 89.765074 392.954489 
L 98.518015 392.954489 
L 107.270956 392.954489 
L 116.023897 392.954489 
L 124.776838 392.954489 
L 133.529779 392.954489 
L 142.282721 392.954489 
L 151.035662 392.954489 
L 159.788603 392.954489 
L 168.541544 392.954489 
L 177.294485 392.954489 
L 186.047426 392.954489 
L 194.800368 392.954489 
L 203.553309 392.954489 
L 212.30625 392.954489 
L 221.059191 392.954489 
L 229.812132 392.954489 
L 238.565074 392.954489 
L 247.318015 392.954489 
L 256.070956 392.954489 
L 264.823897 392.954489 
L 273.576838 392.954489 
L 282.329779 392.954489 
L 291.082721 392.954489 
L 299.835662 392.954489 
L 308.588603 392.954489 
L 317.341544 392.954489 
L 326.094485 392.954489 
L 334.847426 392.954489 
L 343.600368 392.954489 
L 352.353309 392.954489 
L 361.10625 392.954489 
L 369.859191 392.954489 
L 378.612132 392.954489 
L 387.365074 392.954489 
L 396.118015 392.954489 
L 404.870956 392.954489 
L 413.623897 392.954489 
L 422.376838 392.954489 
L 431.129779 392.954489 
L 439.882721 392.954489 
L 448.635662 392.954489 
L 457.388603 392.954489 
L 466.141544 392.954489 
L 474.894485 392.954489 
L 483.647426 392.954489 
L 492.400368 392.954489 
L 501.153309 392.954489 
L 509.90625 392.954489 
L 509.90625 181.843689 
L 509.90625 181.843689 
L 501.153309 181.769484 
L 492.400368 181.769484 
L 483.647426 181.769484 
L 474.894485 181.769484 
L 466.141544 181.769484 
L 457.388603 181.769484 
L 448.635662 181.769484 
L 439.882721 181.769484 
L 431.129779 181.769484 
L 422.376838 181.769484 
L 413.623897 181.769484 
L 404.870956 182.220374 
L 396.118015 181.769484 
L 387.365074 181.769484 
L 378.612132 181.769484 
L 369.859191 181.769484 
L 361.10625 181.769484 
L 352.353309 181.769484 
L 343.600368 181.769484 
L 334.847426 181.769484 
L 326.094485 181.769484 
L 317.341544 181.769484 
L 308.588603 181.769484 
L 299.835662 181.769484 
L 291.082721 181.769484 
L 282.329779 181.769484 
L 273.576838 181.769484 
L 264.823897 181.769484 
L 256.070956 181.769484 
L 247.318015 181.769484 
L 238.565074 181.769484 
L 229.812132 181.769484 
L 221.059191 181.769484 
L 212.30625 181.769484 
L 203.553309 181.787832 
L 194.800368 181.769484 
L 186.047426 181.769484 
L 177.294485 181.817464 
L 168.541544 181.769484 
L 159.788603 181.769484 
L 151.035662 181.769484 
L 142.282721 181.769484 
L 133.529779 181.769484 
L 124.776838 181.769484 
L 116.023897 181.769484 
L 107.270956 181.769484 
L 98.518015 181.769484 
L 89.765074 181.769484 
L 81.012132 183.998671 
L 72.259191 181.769484 
L 63.50625 181.809609 
z
" style="fill:#ffb30f;fill-opacity:0.6;"/>
   </g>
   <g id="PolyCollection_3">
    <path clip-path="url(#p07e7be9b9e)" d="M 63.50625 181.809609 
L 63.50625 91.111662 
L 72.259191 75.717806 
L 81.012132 81.676866 
L 89.765074 79.138334 
L 98.518015 80.907192 
L 107.270956 80.156615 
L 116.023897 90.076888 
L 124.776838 84.265704 
L 133.529779 86.363381 
L 142.282721 90.384531 
L 151.035662 87.475924 
L 159.788603 85.666698 
L 168.541544 85.235508 
L 177.294485 93.821778 
L 186.047426 76.675575 
L 194.800368 75.375469 
L 203.553309 75.953707 
L 212.30625 75.804524 
L 221.059191 69.890835 
L 229.812132 69.077933 
L 238.565074 66.774927 
L 247.318015 70.982655 
L 256.070956 61.862617 
L 264.823897 63.212016 
L 273.576838 69.192481 
L 282.329779 70.754291 
L 291.082721 68.435655 
L 299.835662 72.537303 
L 308.588603 72.018177 
L 317.341544 70.89691 
L 326.094485 73.529668 
L 334.847426 69.97177 
L 343.600368 63.915592 
L 352.353309 64.17575 
L 361.10625 63.971679 
L 369.859191 59.994612 
L 378.612132 61.576703 
L 387.365074 64.889244 
L 396.118015 74.130345 
L 404.870956 74.508031 
L 413.623897 69.626805 
L 422.376838 73.837032 
L 431.129779 67.827173 
L 439.882721 67.627952 
L 448.635662 73.699612 
L 457.388603 74.746699 
L 466.141544 73.395215 
L 474.894485 77.492801 
L 483.647426 69.835241 
L 492.400368 78.996491 
L 501.153309 75.16514 
L 509.90625 101.903241 
L 509.90625 181.843689 
L 509.90625 181.843689 
L 501.153309 181.769484 
L 492.400368 181.769484 
L 483.647426 181.769484 
L 474.894485 181.769484 
L 466.141544 181.769484 
L 457.388603 181.769484 
L 448.635662 181.769484 
L 439.882721 181.769484 
L 431.129779 181.769484 
L 422.376838 181.769484 
L 413.623897 181.769484 
L 404.870956 182.220374 
L 396.118015 181.769484 
L 387.365074 181.769484 
L 378.612132 181.769484 
L 369.859191 181.769484 
L 361.10625 181.769484 
L 352.353309 181.769484 
L 343.600368 181.769484 
L 334.847426 181.769484 
L 326.094485 181.769484 
L 317.341544 181.769484 
L 308.588603 181.769484 
L 299.835662 181.769484 
L 291.082721 181.769484 
L 282.329779 181.769484 
L 273.576838 181.769484 
L 264.823897 181.769484 
L 256.070956 181.769484 
L 247.318015 181.769484 
L 238.565074 181.769484 
L 229.812132 181.769484 
L 221.059191 181.769484 
L 212.30625 181.769484 
L 203.553309 181.787832 
L 194.800368 181.769484 
L 186.047426 181.769484 
L 177.294485 181.817464 
L 168.541544 181.769484 
L 159.788603 181.769484 
L 151.035662 181.769484 
L 142.282721 181.769484 
L 133.529779 181.769484 
L 124.776838 181.769484 
L 116.023897 181.769484 
L 107.270956 181.769484 
L 98.518015 181.769484 
L 89.765074 181.769484 
L 81.012132 183.998671 
L 72.259191 181.769484 
L 63.50625 181.809609 
z
" style="fill:#2980b9;fill-opacity:0.6;"/>
   </g>
   <g id="PolyCollection_4">
    <path clip-path="url(#p07e7be9b9e)" d="M 63.50625 91.111662 
L 63.50625 88.230924 
L 72.259191 73.144228 
L 81.012132 79.466894 
L 89.765074 77.097062 
L 98.518015 79.338685 
L 107.270956 78.743957 
L 116.023897 88.793598 
L 124.776838 83.200191 
L 133.529779 85.458254 
L 142.282721 89.408318 
L 151.035662 86.68043 
L 159.788603 84.621006 
L 168.541544 83.637053 
L 177.294485 92.144617 
L 186.047426 74.45565 
L 194.800368 73.714422 
L 203.553309 74.252474 
L 212.30625 74.083843 
L 221.059191 68.082673 
L 229.812132 67.187941 
L 238.565074 64.913551 
L 247.318015 68.248545 
L 256.070956 59.402605 
L 264.823897 60.55815 
L 273.576838 66.479582 
L 282.329779 68.222484 
L 291.082721 66.299701 
L 299.835662 69.842802 
L 308.588603 69.397506 
L 317.341544 68.373657 
L 326.094485 71.251235 
L 334.847426 67.709293 
L 343.600368 62.08248 
L 352.353309 62.366241 
L 361.10625 62.20852 
L 369.859191 57.974743 
L 378.612132 59.674718 
L 387.365074 63.427685 
L 396.118015 72.540672 
L 404.870956 72.781964 
L 413.623897 67.939255 
L 422.376838 71.72529 
L 431.129779 64.961563 
L 439.882721 64.819807 
L 448.635662 70.422267 
L 457.388603 71.70398 
L 466.141544 70.174659 
L 474.894485 74.573998 
L 483.647426 67.702845 
L 492.400368 76.95804 
L 501.153309 72.709949 
L 509.90625 98.981084 
L 509.90625 101.903241 
L 509.90625 101.903241 
L 501.153309 75.16514 
L 492.400368 78.996491 
L 483.647426 69.835241 
L 474.894485 77.492801 
L 466.141544 73.395215 
L 457.388603 74.746699 
L 448.635662 73.699612 
L 439.882721 67.627952 
L 431.129779 67.827173 
L 422.376838 73.837032 
L 413.623897 69.626805 
L 404.870956 74.508031 
L 396.118015 74.130345 
L 387.365074 64.889244 
L 378.612132 61.576703 
L 369.859191 59.994612 
L 361.10625 63.971679 
L 352.353309 64.17575 
L 343.600368 63.915592 
L 334.847426 69.97177 
L 326.094485 73.529668 
L 317.341544 70.89691 
L 308.588603 72.018177 
L 299.835662 72.537303 
L 291.082721 68.435655 
L 282.329779 70.754291 
L 273.576838 69.192481 
L 264.823897 63.212016 
L 256.070956 61.862617 
L 247.318015 70.982655 
L 238.565074 66.774927 
L 229.812132 69.077933 
L 221.059191 69.890835 
L 212.30625 75.804524 
L 203.553309 75.953707 
L 194.800368 75.375469 
L 186.047426 76.675575 
L 177.294485 93.821778 
L 168.541544 85.235508 
L 159.788603 85.666698 
L 151.035662 87.475924 
L 142.282721 90.384531 
L 133.529779 86.363381 
L 124.776838 84.265704 
L 116.023897 90.076888 
L 107.270956 80.156615 
L 98.518015 80.907192 
L 89.765074 79.138334 
L 81.012132 81.676866 
L 72.259191 75.717806 
L 63.50625 91.111662 
z
" style="fill:#3498db;fill-opacity:0.6;"/>
   </g>
   <g id="PolyCollection_5">
    <path clip-path="url(#p07e7be9b9e)" d="M 63.50625 88.230924 
L 63.50625 86.341415 
L 72.259191 70.975307 
L 81.012132 78.170557 
L 89.765074 73.905123 
L 98.518015 76.303324 
L 107.270956 75.395642 
L 116.023897 87.705259 
L 124.776838 80.381188 
L 133.529779 82.106916 
L 142.282721 85.281093 
L 151.035662 82.690595 
L 159.788603 80.960996 
L 168.541544 81.429151 
L 177.294485 91.080151 
L 186.047426 72.885643 
L 194.800368 71.940697 
L 203.553309 73.454627 
L 212.30625 72.284232 
L 221.059191 67.096923 
L 229.812132 66.108517 
L 238.565074 64.195429 
L 247.318015 66.739476 
L 256.070956 59.155022 
L 264.823897 60.353879 
L 273.576838 65.671814 
L 282.329779 67.195538 
L 291.082721 64.340894 
L 299.835662 68.396939 
L 308.588603 68.418102 
L 317.341544 67.731482 
L 326.094485 70.003246 
L 334.847426 66.6689 
L 343.600368 60.955916 
L 352.353309 60.513699 
L 361.10625 60.905838 
L 369.859191 56.788146 
L 378.612132 57.703672 
L 387.365074 61.398017 
L 396.118015 70.590073 
L 404.870956 69.305929 
L 413.623897 65.37131 
L 422.376838 69.41349 
L 431.129779 63.340034 
L 439.882721 63.087934 
L 448.635662 68.504757 
L 457.388603 69.929298 
L 466.141544 68.105154 
L 474.894485 72.070517 
L 483.647426 66.129412 
L 492.400368 75.960153 
L 501.153309 69.825474 
L 509.90625 95.838419 
L 509.90625 98.981084 
L 509.90625 98.981084 
L 501.153309 72.709949 
L 492.400368 76.95804 
L 483.647426 67.702845 
L 474.894485 74.573998 
L 466.141544 70.174659 
L 457.388603 71.70398 
L 448.635662 70.422267 
L 439.882721 64.819807 
L 431.129779 64.961563 
L 422.376838 71.72529 
L 413.623897 67.939255 
L 404.870956 72.781964 
L 396.118015 72.540672 
L 387.365074 63.427685 
L 378.612132 59.674718 
L 369.859191 57.974743 
L 361.10625 62.20852 
L 352.353309 62.366241 
L 343.600368 62.08248 
L 334.847426 67.709293 
L 326.094485 71.251235 
L 317.341544 68.373657 
L 308.588603 69.397506 
L 299.835662 69.842802 
L 291.082721 66.299701 
L 282.329779 68.222484 
L 273.576838 66.479582 
L 264.823897 60.55815 
L 256.070956 59.402605 
L 247.318015 68.248545 
L 238.565074 64.913551 
L 229.812132 67.187941 
L 221.059191 68.082673 
L 212.30625 74.083843 
L 203.553309 74.252474 
L 194.800368 73.714422 
L 186.047426 74.45565 
L 177.294485 92.144617 
L 168.541544 83.637053 
L 159.788603 84.621006 
L 151.035662 86.68043 
L 142.282721 89.408318 
L 133.529779 85.458254 
L 124.776838 83.200191 
L 116.023897 88.793598 
L 107.270956 78.743957 
L 98.518015 79.338685 
L 89.765074 77.097062 
L 81.012132 79.466894 
L 72.259191 73.144228 
L 63.50625 88.230924 
z
" style="fill:#28b463;fill-opacity:0.6;"/>
   </g>
   <g id="PolyCollection_6">
    <path clip-path="url(#p07e7be9b9e)" d="M 63.50625 86.341415 
L 63.50625 77.813708 
L 72.259191 55.248358 
L 81.012132 60.984606 
L 89.765074 56.376613 
L 98.518015 59.170356 
L 107.270956 56.524907 
L 116.023897 61.109279 
L 124.776838 65.32848 
L 133.529779 68.247272 
L 142.282721 73.216991 
L 151.035662 64.874682 
L 159.788603 65.918361 
L 168.541544 64.162058 
L 177.294485 84.798091 
L 186.047426 61.291862 
L 194.800368 54.970968 
L 203.553309 62.690355 
L 212.30625 62.557315 
L 221.059191 56.073344 
L 229.812132 50.543849 
L 238.565074 46.779531 
L 247.318015 58.446811 
L 256.070956 45.673669 
L 264.823897 46.35962 
L 273.576838 49.390045 
L 282.329779 54.707438 
L 291.082721 53.429403 
L 299.835662 47.271436 
L 308.588603 51.190317 
L 317.341544 54.439977 
L 326.094485 54.63208 
L 334.847426 47.44832 
L 343.600368 43.435106 
L 352.353309 41.704165 
L 361.10625 41.210365 
L 369.859191 38.798477 
L 378.612132 35.659236 
L 387.365074 37.991488 
L 396.118015 49.204029 
L 404.870956 52.291571 
L 413.623897 40.619936 
L 422.376838 54.987995 
L 431.129779 45.246143 
L 439.882721 36.70948 
L 448.635662 39.104349 
L 457.388603 44.755736 
L 466.141544 36.621895 
L 474.894485 44.273611 
L 483.647426 34.568612 
L 492.400368 50.745656 
L 501.153309 44.00463 
L 509.90625 82.97254 
L 509.90625 95.838419 
L 509.90625 95.838419 
L 501.153309 69.825474 
L 492.400368 75.960153 
L 483.647426 66.129412 
L 474.894485 72.070517 
L 466.141544 68.105154 
L 457.388603 69.929298 
L 448.635662 68.504757 
L 439.882721 63.087934 
L 431.129779 63.340034 
L 422.376838 69.41349 
L 413.623897 65.37131 
L 404.870956 69.305929 
L 396.118015 70.590073 
L 387.365074 61.398017 
L 378.612132 57.703672 
L 369.859191 56.788146 
L 361.10625 60.905838 
L 352.353309 60.513699 
L 343.600368 60.955916 
L 334.847426 66.6689 
L 326.094485 70.003246 
L 317.341544 67.731482 
L 308.588603 68.418102 
L 299.835662 68.396939 
L 291.082721 64.340894 
L 282.329779 67.195538 
L 273.576838 65.671814 
L 264.823897 60.353879 
L 256.070956 59.155022 
L 247.318015 66.739476 
L 238.565074 64.195429 
L 229.812132 66.108517 
L 221.059191 67.096923 
L 212.30625 72.284232 
L 203.553309 73.454627 
L 194.800368 71.940697 
L 186.047426 72.885643 
L 177.294485 91.080151 
L 168.541544 81.429151 
L 159.788603 80.960996 
L 151.035662 82.690595 
L 142.282721 85.281093 
L 133.529779 82.106916 
L 124.776838 80.381188 
L 116.023897 87.705259 
L 107.270956 75.395642 
L 98.518015 76.303324 
L 89.765074 73.905123 
L 81.012132 78.170557 
L 72.259191 70.975307 
L 63.50625 86.341415 
z
" style="fill:#494949;fill-opacity:0.6;"/>
   </g>
   <g id="PolyCollection_7">
    <path clip-path="url(#p07e7be9b9e)" d="M 63.50625 77.813708 
L 63.50625 77.813708 
L 72.259191 55.248358 
L 81.012132 60.984606 
L 89.765074 56.376613 
L 98.518015 59.170356 
L 107.270956 56.524907 
L 116.023897 61.109279 
L 124.776838 65.32848 
L 133.529779 68.247272 
L 142.282721 73.216991 
L 151.035662 64.874682 
L 159.788603 65.918361 
L 168.541544 64.162058 
L 177.294485 84.798091 
L 186.047426 61.291862 
L 194.800368 54.970968 
L 203.553309 62.690355 
L 212.30625 62.557315 
L 221.059191 56.073344 
L 229.812132 50.543849 
L 238.565074 46.779531 
L 247.318015 58.446811 
L 256.070956 45.673669 
L 264.823897 46.35962 
L 273.576838 49.390045 
L 282.329779 54.707438 
L 291.082721 53.429403 
L 299.835662 47.271436 
L 308.588603 51.190317 
L 317.341544 54.439977 
L 326.094485 54.63208 
L 334.847426 47.44832 
L 343.600368 43.435106 
L 352.353309 41.704165 
L 361.10625 41.210365 
L 369.859191 38.798477 
L 378.612132 35.659236 
L 387.365074 37.991488 
L 396.118015 49.204029 
L 404.870956 52.291571 
L 413.623897 40.619936 
L 422.376838 54.987995 
L 431.129779 45.246143 
L 439.882721 36.70948 
L 448.635662 39.104349 
L 457.388603 44.755736 
L 466.141544 36.621895 
L 474.894485 44.273611 
L 483.647426 34.568612 
L 492.400368 50.745656 
L 501.153309 44.00463 
L 509.90625 82.97254 
L 509.90625 82.97254 
L 509.90625 82.97254 
L 501.153309 44.00463 
L 492.400368 50.745656 
L 483.647426 34.568612 
L 474.894485 44.273611 
L 466.141544 36.621895 
L 457.388603 44.755736 
L 448.635662 39.104349 
L 439.882721 36.70948 
L 431.129779 45.246143 
L 422.376838 54.987995 
L 413.623897 40.619936 
L 404.870956 52.291571 
L 396.118015 49.204029 
L 387.365074 37.991488 
L 378.612132 35.659236 
L 369.859191 38.798477 
L 361.10625 41.210365 
L 352.353309 41.704165 
L 343.600368 43.435106 
L 334.847426 47.44832 
L 326.094485 54.63208 
L 317.341544 54.439977 
L 308.588603 51.190317 
L 299.835662 47.271436 
L 291.082721 53.429403 
L 282.329779 54.707438 
L 273.576838 49.390045 
L 264.823897 46.35962 
L 256.070956 45.673669 
L 247.318015 58.446811 
L 238.565074 46.779531 
L 229.812132 50.543849 
L 221.059191 56.073344 
L 212.30625 62.557315 
L 203.553309 62.690355 
L 194.800368 54.970968 
L 186.047426 61.291862 
L 177.294485 84.798091 
L 168.541544 64.162058 
L 159.788603 65.918361 
L 151.035662 64.874682 
L 142.282721 73.216991 
L 133.529779 68.247272 
L 124.776838 65.32848 
L 116.023897 61.109279 
L 107.270956 56.524907 
L 98.518015 59.170356 
L 89.765074 56.376613 
L 81.012132 60.984606 
L 72.259191 55.248358 
L 63.50625 77.813708 
z
" style="fill:#7c7c7c;fill-opacity:0.6;"/>
   </g>
   <g id="PolyCollection_8">
    <path clip-path="url(#p07e7be9b9e)" d="M 63.50625 77.813708 
L 63.50625 73.128992 
L 72.259191 47.493517 
L 81.012132 53.664933 
L 89.765074 48.928892 
L 98.518015 51.150834 
L 107.270956 48.57438 
L 116.023897 51.903666 
L 124.776838 57.227487 
L 133.529779 60.620091 
L 142.282721 65.763146 
L 151.035662 57.351817 
L 159.788603 58.544871 
L 168.541544 56.565738 
L 177.294485 80.468503 
L 186.047426 54.787454 
L 194.800368 46.903638 
L 203.553309 55.195683 
L 212.30625 56.14945 
L 221.059191 48.901327 
L 229.812132 43.483123 
L 238.565074 39.374453 
L 247.318015 52.774412 
L 256.070956 38.547807 
L 264.823897 39.029833 
L 273.576838 41.792619 
L 282.329779 47.50574 
L 291.082721 46.399956 
L 299.835662 37.826323 
L 308.588603 44.327249 
L 317.341544 47.171438 
L 326.094485 46.922024 
L 334.847426 38.89656 
L 343.600368 36.34288 
L 352.353309 34.255242 
L 361.10625 34.091243 
L 369.859191 31.040394 
L 378.612132 25.639157 
L 387.365074 28.265881 
L 396.118015 39.308804 
L 404.870956 44.683101 
L 413.623897 30.395026 
L 422.376838 48.328799 
L 431.129779 37.843979 
L 439.882721 27.087355 
L 448.635662 29.895982 
L 457.388603 36.89807 
L 466.141544 28.004151 
L 474.894485 36.743231 
L 483.647426 26.678739 
L 492.400368 42.949826 
L 501.153309 35.973652 
L 509.90625 77.427694 
L 509.90625 82.97254 
L 509.90625 82.97254 
L 501.153309 44.00463 
L 492.400368 50.745656 
L 483.647426 34.568612 
L 474.894485 44.273611 
L 466.141544 36.621895 
L 457.388603 44.755736 
L 448.635662 39.104349 
L 439.882721 36.70948 
L 431.129779 45.246143 
L 422.376838 54.987995 
L 413.623897 40.619936 
L 404.870956 52.291571 
L 396.118015 49.204029 
L 387.365074 37.991488 
L 378.612132 35.659236 
L 369.859191 38.798477 
L 361.10625 41.210365 
L 352.353309 41.704165 
L 343.600368 43.435106 
L 334.847426 47.44832 
L 326.094485 54.63208 
L 317.341544 54.439977 
L 308.588603 51.190317 
L 299.835662 47.271436 
L 291.082721 53.429403 
L 282.329779 54.707438 
L 273.576838 49.390045 
L 264.823897 46.35962 
L 256.070956 45.673669 
L 247.318015 58.446811 
L 238.565074 46.779531 
L 229.812132 50.543849 
L 221.059191 56.073344 
L 212.30625 62.557315 
L 203.553309 62.690355 
L 194.800368 54.970968 
L 186.047426 61.291862 
L 177.294485 84.798091 
L 168.541544 64.162058 
L 159.788603 65.918361 
L 151.035662 64.874682 
L 142.282721 73.216991 
L 133.529779 68.247272 
L 124.776838 65.32848 
L 116.023897 61.109279 
L 107.270956 56.524907 
L 98.518015 59.170356 
L 89.765074 56.376613 
L 81.012132 60.984606 
L 72.259191 55.248358 
L 63.50625 77.813708 
z
" style="fill:#ba4a00;fill-opacity:0.6;"/>
   </g>
   <g id="PolyCollection_9">
    <path clip-path="url(#p07e7be9b9e)" d="M 63.50625 73.128992 
L 63.50625 71.299191 
L 72.259191 44.140508 
L 81.012132 50.518638 
L 89.765074 45.808028 
L 98.518015 48.044886 
L 107.270956 45.389906 
L 116.023897 48.060382 
L 124.776838 54.284785 
L 133.529779 57.771035 
L 142.282721 62.888333 
L 151.035662 54.150849 
L 159.788603 55.414885 
L 168.541544 52.806538 
L 177.294485 78.292573 
L 186.047426 51.349665 
L 194.800368 42.571098 
L 203.553309 51.26555 
L 212.30625 52.682857 
L 221.059191 45.067927 
L 229.812132 39.630595 
L 238.565074 35.28254 
L 247.318015 49.825869 
L 256.070956 34.731263 
L 264.823897 35.102579 
L 273.576838 37.695191 
L 282.329779 43.918895 
L 291.082721 43.701477 
L 299.835662 34.230972 
L 308.588603 41.546069 
L 317.341544 44.734831 
L 326.094485 44.212816 
L 334.847426 35.861172 
L 343.600368 33.676454 
L 352.353309 31.417666 
L 361.10625 31.303363 
L 369.859191 28.214053 
L 378.612132 22.318125 
L 387.365074 24.592158 
L 396.118015 35.119361 
L 404.870956 41.36853 
L 413.623897 25.660989 
L 422.376838 45.245761 
L 431.129779 34.214193 
L 439.882721 22.940831 
L 448.635662 25.579211 
L 457.388603 33.011733 
L 466.141544 23.944253 
L 474.894485 32.872031 
L 483.647426 22.570691 
L 492.400368 39.230651 
L 501.153309 32.037808 
L 509.90625 75.019022 
L 509.90625 77.427694 
L 509.90625 77.427694 
L 501.153309 35.973652 
L 492.400368 42.949826 
L 483.647426 26.678739 
L 474.894485 36.743231 
L 466.141544 28.004151 
L 457.388603 36.89807 
L 448.635662 29.895982 
L 439.882721 27.087355 
L 431.129779 37.843979 
L 422.376838 48.328799 
L 413.623897 30.395026 
L 404.870956 44.683101 
L 396.118015 39.308804 
L 387.365074 28.265881 
L 378.612132 25.639157 
L 369.859191 31.040394 
L 361.10625 34.091243 
L 352.353309 34.255242 
L 343.600368 36.34288 
L 334.847426 38.89656 
L 326.094485 46.922024 
L 317.341544 47.171438 
L 308.588603 44.327249 
L 299.835662 37.826323 
L 291.082721 46.399956 
L 282.329779 47.50574 
L 273.576838 41.792619 
L 264.823897 39.029833 
L 256.070956 38.547807 
L 247.318015 52.774412 
L 238.565074 39.374453 
L 229.812132 43.483123 
L 221.059191 48.901327 
L 212.30625 56.14945 
L 203.553309 55.195683 
L 194.800368 46.903638 
L 186.047426 54.787454 
L 177.294485 80.468503 
L 168.541544 56.565738 
L 159.788603 58.544871 
L 151.035662 57.351817 
L 142.282721 65.763146 
L 133.529779 60.620091 
L 124.776838 57.227487 
L 116.023897 51.903666 
L 107.270956 48.57438 
L 98.518015 51.150834 
L 89.765074 48.928892 
L 81.012132 53.664933 
L 72.259191 47.493517 
L 63.50625 73.128992 
z
" style="fill:#592400;fill-opacity:0.6;"/>
   </g>
   <g id="matplotlib.axis_3">
    <g id="xtick_13">
     <g id="line2d_18">
      <g>
       <use style="stroke:#000000;stroke-width:0.8;" x="63.50625" xlink:href="#m405db577e9" y="392.954489"/>
      </g>
     </g>
    </g>
    <g id="xtick_14">
     <g id="line2d_19">
      <g>
       <use style="stroke:#000000;stroke-width:0.8;" x="107.270956" xlink:href="#m405db577e9" y="392.954489"/>
      </g>
     </g>
    </g>
    <g id="xtick_15">
     <g id="line2d_20">
      <g>
       <use style="stroke:#000000;stroke-width:0.8;" x="142.282721" xlink:href="#m405db577e9" y="392.954489"/>
      </g>
     </g>
    </g>
    <g id="xtick_16">
     <g id="line2d_21">
      <g>
       <use style="stroke:#000000;stroke-width:0.8;" x="177.294485" xlink:href="#m405db577e9" y="392.954489"/>
      </g>
     </g>
    </g>
    <g id="xtick_17">
     <g id="line2d_22">
      <g>
       <use style="stroke:#000000;stroke-width:0.8;" x="212.30625" xlink:href="#m405db577e9" y="392.954489"/>
      </g>
     </g>
    </g>
    <g id="xtick_18">
     <g id="line2d_23">
      <g>
       <use style="stroke:#000000;stroke-width:0.8;" x="256.070956" xlink:href="#m405db577e9" y="392.954489"/>
      </g>
     </g>
    </g>
    <g id="xtick_19">
     <g id="line2d_24">
      <g>
       <use style="stroke:#000000;stroke-width:0.8;" x="291.082721" xlink:href="#m405db577e9" y="392.954489"/>
      </g>
     </g>
    </g>
    <g id="xtick_20">
     <g id="line2d_25">
      <g>
       <use style="stroke:#000000;stroke-width:0.8;" x="326.094485" xlink:href="#m405db577e9" y="392.954489"/>
      </g>
     </g>
    </g>
    <g id="xtick_21">
     <g id="line2d_26">
      <g>
       <use style="stroke:#000000;stroke-width:0.8;" x="369.859191" xlink:href="#m405db577e9" y="392.954489"/>
      </g>
     </g>
    </g>
    <g id="xtick_22">
     <g id="line2d_27">
      <g>
       <use style="stroke:#000000;stroke-width:0.8;" x="404.870956" xlink:href="#m405db577e9" y="392.954489"/>
      </g>
     </g>
    </g>
    <g id="xtick_23">
     <g id="line2d_28">
      <g>
       <use style="stroke:#000000;stroke-width:0.8;" x="439.882721" xlink:href="#m405db577e9" y="392.954489"/>
      </g>
     </g>
    </g>
    <g id="xtick_24">
     <g id="line2d_29">
      <g>
       <use style="stroke:#000000;stroke-width:0.8;" x="474.894485" xlink:href="#m405db577e9" y="392.954489"/>
      </g>
     </g>
    </g>
   </g>
   <g id="matplotlib.axis_4">
    <g id="ytick_5">
     <g id="line2d_30">
      <g>
       <use style="stroke:#000000;stroke-width:0.8;" x="63.50625" xlink:href="#mb324315742" y="392.954489"/>
      </g>
     </g>
     <g id="text_19">
      <!-- 0.0 -->
      <g transform="translate(40.603125 396.753707)scale(0.1 -0.1)">
       <use xlink:href="#DejaVuSans-48"/>
       <use x="63.623047" xlink:href="#DejaVuSans-46"/>
       <use x="95.410156" xlink:href="#DejaVuSans-48"/>
      </g>
     </g>
    </g>
    <g id="ytick_6">
     <g id="line2d_31">
      <g>
       <use style="stroke:#000000;stroke-width:0.8;" x="63.50625" xlink:href="#mb324315742" y="325.266987"/>
      </g>
     </g>
     <g id="text_20">
      <!-- 0.2 -->
      <defs>
       <path d="M 19.1875 8.296875 
L 53.609375 8.296875 
L 53.609375 0 
L 7.328125 0 
L 7.328125 8.296875 
Q 12.9375 14.109375 22.625 23.890625 
Q 32.328125 33.6875 34.8125 36.53125 
Q 39.546875 41.84375 41.421875 45.53125 
Q 43.3125 49.21875 43.3125 52.78125 
Q 43.3125 58.59375 39.234375 62.25 
Q 35.15625 65.921875 28.609375 65.921875 
Q 23.96875 65.921875 18.8125 64.3125 
Q 13.671875 62.703125 7.8125 59.421875 
L 7.8125 69.390625 
Q 13.765625 71.78125 18.9375 73 
Q 24.125 74.21875 28.421875 74.21875 
Q 39.75 74.21875 46.484375 68.546875 
Q 53.21875 62.890625 53.21875 53.421875 
Q 53.21875 48.921875 51.53125 44.890625 
Q 49.859375 40.875 45.40625 35.40625 
Q 44.1875 33.984375 37.640625 27.21875 
Q 31.109375 20.453125 19.1875 8.296875 
z
" id="DejaVuSans-50"/>
      </defs>
      <g transform="translate(40.603125 329.066206)scale(0.1 -0.1)">
       <use xlink:href="#DejaVuSans-48"/>
       <use x="63.623047" xlink:href="#DejaVuSans-46"/>
       <use x="95.410156" xlink:href="#DejaVuSans-50"/>
      </g>
     </g>
    </g>
    <g id="ytick_7">
     <g id="line2d_32">
      <g>
       <use style="stroke:#000000;stroke-width:0.8;" x="63.50625" xlink:href="#mb324315742" y="257.579485"/>
      </g>
     </g>
     <g id="text_21">
      <!-- 0.4 -->
      <defs>
       <path d="M 37.796875 64.3125 
L 12.890625 25.390625 
L 37.796875 25.390625 
z
M 35.203125 72.90625 
L 47.609375 72.90625 
L 47.609375 25.390625 
L 58.015625 25.390625 
L 58.015625 17.1875 
L 47.609375 17.1875 
L 47.609375 0 
L 37.796875 0 
L 37.796875 17.1875 
L 4.890625 17.1875 
L 4.890625 26.703125 
z
" id="DejaVuSans-52"/>
      </defs>
      <g transform="translate(40.603125 261.378704)scale(0.1 -0.1)">
       <use xlink:href="#DejaVuSans-48"/>
       <use x="63.623047" xlink:href="#DejaVuSans-46"/>
       <use x="95.410156" xlink:href="#DejaVuSans-52"/>
      </g>
     </g>
    </g>
    <g id="ytick_8">
     <g id="line2d_33">
      <g>
       <use style="stroke:#000000;stroke-width:0.8;" x="63.50625" xlink:href="#mb324315742" y="189.891984"/>
      </g>
     </g>
     <g id="text_22">
      <!-- 0.6 -->
      <defs>
       <path d="M 33.015625 40.375 
Q 26.375 40.375 22.484375 35.828125 
Q 18.609375 31.296875 18.609375 23.390625 
Q 18.609375 15.53125 22.484375 10.953125 
Q 26.375 6.390625 33.015625 6.390625 
Q 39.65625 6.390625 43.53125 10.953125 
Q 47.40625 15.53125 47.40625 23.390625 
Q 47.40625 31.296875 43.53125 35.828125 
Q 39.65625 40.375 33.015625 40.375 
z
M 52.59375 71.296875 
L 52.59375 62.3125 
Q 48.875 64.0625 45.09375 64.984375 
Q 41.3125 65.921875 37.59375 65.921875 
Q 27.828125 65.921875 22.671875 59.328125 
Q 17.53125 52.734375 16.796875 39.40625 
Q 19.671875 43.65625 24.015625 45.921875 
Q 28.375 48.1875 33.59375 48.1875 
Q 44.578125 48.1875 50.953125 41.515625 
Q 57.328125 34.859375 57.328125 23.390625 
Q 57.328125 12.15625 50.6875 5.359375 
Q 44.046875 -1.421875 33.015625 -1.421875 
Q 20.359375 -1.421875 13.671875 8.265625 
Q 6.984375 17.96875 6.984375 36.375 
Q 6.984375 53.65625 15.1875 63.9375 
Q 23.390625 74.21875 37.203125 74.21875 
Q 40.921875 74.21875 44.703125 73.484375 
Q 48.484375 72.75 52.59375 71.296875 
z
" id="DejaVuSans-54"/>
      </defs>
      <g transform="translate(40.603125 193.691203)scale(0.1 -0.1)">
       <use xlink:href="#DejaVuSans-48"/>
       <use x="63.623047" xlink:href="#DejaVuSans-46"/>
       <use x="95.410156" xlink:href="#DejaVuSans-54"/>
      </g>
     </g>
    </g>
    <g id="ytick_9">
     <g id="line2d_34">
      <g>
       <use style="stroke:#000000;stroke-width:0.8;" x="63.50625" xlink:href="#mb324315742" y="122.204482"/>
      </g>
     </g>
     <g id="text_23">
      <!-- 0.8 -->
      <defs>
       <path d="M 31.78125 34.625 
Q 24.75 34.625 20.71875 30.859375 
Q 16.703125 27.09375 16.703125 20.515625 
Q 16.703125 13.921875 20.71875 10.15625 
Q 24.75 6.390625 31.78125 6.390625 
Q 38.8125 6.390625 42.859375 10.171875 
Q 46.921875 13.96875 46.921875 20.515625 
Q 46.921875 27.09375 42.890625 30.859375 
Q 38.875 34.625 31.78125 34.625 
z
M 21.921875 38.8125 
Q 15.578125 40.375 12.03125 44.71875 
Q 8.5 49.078125 8.5 55.328125 
Q 8.5 64.0625 14.71875 69.140625 
Q 20.953125 74.21875 31.78125 74.21875 
Q 42.671875 74.21875 48.875 69.140625 
Q 55.078125 64.0625 55.078125 55.328125 
Q 55.078125 49.078125 51.53125 44.71875 
Q 48 40.375 41.703125 38.8125 
Q 48.828125 37.15625 52.796875 32.3125 
Q 56.78125 27.484375 56.78125 20.515625 
Q 56.78125 9.90625 50.3125 4.234375 
Q 43.84375 -1.421875 31.78125 -1.421875 
Q 19.734375 -1.421875 13.25 4.234375 
Q 6.78125 9.90625 6.78125 20.515625 
Q 6.78125 27.484375 10.78125 32.3125 
Q 14.796875 37.15625 21.921875 38.8125 
z
M 18.3125 54.390625 
Q 18.3125 48.734375 21.84375 45.5625 
Q 25.390625 42.390625 31.78125 42.390625 
Q 38.140625 42.390625 41.71875 45.5625 
Q 45.3125 48.734375 45.3125 54.390625 
Q 45.3125 60.0625 41.71875 63.234375 
Q 38.140625 66.40625 31.78125 66.40625 
Q 25.390625 66.40625 21.84375 63.234375 
Q 18.3125 60.0625 18.3125 54.390625 
z
" id="DejaVuSans-56"/>
      </defs>
      <g transform="translate(40.603125 126.003701)scale(0.1 -0.1)">
       <use xlink:href="#DejaVuSans-48"/>
       <use x="63.623047" xlink:href="#DejaVuSans-46"/>
       <use x="95.410156" xlink:href="#DejaVuSans-56"/>
      </g>
     </g>
    </g>
    <g id="ytick_10">
     <g id="line2d_35">
      <g>
       <use style="stroke:#000000;stroke-width:0.8;" x="63.50625" xlink:href="#mb324315742" y="54.516981"/>
      </g>
     </g>
     <g id="text_24">
      <!-- 1.0 -->
      <g transform="translate(40.603125 58.316199)scale(0.1 -0.1)">
       <use xlink:href="#DejaVuSans-49"/>
       <use x="63.623047" xlink:href="#DejaVuSans-46"/>
       <use x="95.410156" xlink:href="#DejaVuSans-48"/>
      </g>
     </g>
    </g>
    <g id="text_25">
     <!-- Power (GW) -->
     <g transform="translate(27.523437 237.237869)rotate(-90)scale(0.1 -0.1)">
      <use xlink:href="#DejaVuSans-80"/>
      <use x="60.255859" xlink:href="#DejaVuSans-111"/>
      <use x="121.4375" xlink:href="#DejaVuSans-119"/>
      <use x="203.224609" xlink:href="#DejaVuSans-101"/>
      <use x="264.748047" xlink:href="#DejaVuSans-114"/>
      <use x="305.861328" xlink:href="#DejaVuSans-32"/>
      <use x="337.648438" xlink:href="#DejaVuSans-40"/>
      <use x="376.662109" xlink:href="#DejaVuSans-71"/>
      <use x="454.152344" xlink:href="#DejaVuSans-87"/>
      <use x="553.029297" xlink:href="#DejaVuSans-41"/>
     </g>
    </g>
   </g>
   <g id="line2d_36">
    <path clip-path="url(#p07e7be9b9e)" d="M 63.50625 72.185657 
L 72.259191 44.961063 
L 81.012132 51.313606 
L 89.765074 46.617516 
L 98.518015 48.830409 
L 107.270956 46.191972 
L 116.023897 48.798728 
L 124.776838 55.094019 
L 133.529779 58.600471 
L 142.282721 63.706127 
L 151.035662 54.973813 
L 159.788603 56.234903 
L 168.541544 53.648905 
L 177.294485 79.276997 
L 186.047426 52.264988 
L 194.800368 43.384839 
L 203.553309 52.091744 
L 212.30625 53.49861 
L 221.059191 45.886378 
L 229.812132 40.497045 
L 238.565074 36.1552 
L 247.318015 50.721856 
L 256.070956 35.612358 
L 264.823897 35.955357 
L 273.576838 38.506198 
L 282.329779 44.745771 
L 291.082721 44.519883 
L 299.835662 34.950531 
L 308.588603 42.390541 
L 317.341544 45.553758 
L 326.094485 45.018114 
L 334.847426 36.604908 
L 343.600368 34.519097 
L 352.353309 32.252064 
L 361.10625 32.166715 
L 369.859191 29.043825 
L 378.612132 23.046752 
L 387.365074 25.324366 
L 396.118015 35.847114 
L 404.870956 42.165061 
L 413.623897 26.376062 
L 422.376838 46.056989 
L 431.129779 35.083981 
L 439.882721 23.692577 
L 448.635662 26.299913 
L 457.388603 33.807284 
L 466.141544 24.691547 
L 474.894485 33.665923 
L 483.647426 23.375262 
L 492.400368 39.996328 
L 501.153309 32.81913 
L 509.90625 75.884644 
" style="fill:none;stroke:#000000;stroke-linecap:square;stroke-opacity:0.5;stroke-width:1.5;"/>
   </g>
   <g id="line2d_37">
    <path clip-path="url(#p07e7be9b9e)" d="M 63.50625 181.809609 
L 72.259191 181.769484 
L 81.012132 183.998671 
L 89.765074 181.769484 
L 98.518015 181.769484 
L 107.270956 181.769484 
L 116.023897 181.769484 
L 124.776838 181.769484 
L 133.529779 181.769484 
L 142.282721 181.769484 
L 151.035662 181.769484 
L 159.788603 181.769484 
L 168.541544 181.769484 
L 177.294485 181.817464 
L 186.047426 181.769484 
L 194.800368 181.769484 
L 203.553309 181.787832 
L 212.30625 181.769484 
L 221.059191 181.769484 
L 229.812132 181.769484 
L 238.565074 181.769484 
L 247.318015 181.769484 
L 256.070956 181.769484 
L 264.823897 181.769484 
L 273.576838 181.769484 
L 282.329779 181.769484 
L 291.082721 181.769484 
L 299.835662 181.769484 
L 308.588603 181.769484 
L 317.341544 181.769484 
L 326.094485 181.769484 
L 334.847426 181.769484 
L 343.600368 181.769484 
L 352.353309 181.769484 
L 361.10625 181.769484 
L 369.859191 181.769484 
L 378.612132 181.769484 
L 387.365074 181.769484 
L 396.118015 181.769484 
L 404.870956 182.220374 
L 413.623897 181.769484 
L 422.376838 181.769484 
L 431.129779 181.769484 
L 439.882721 181.769484 
L 448.635662 181.769484 
L 457.388603 181.769484 
L 466.141544 181.769484 
L 474.894485 181.769484 
L 483.647426 181.769484 
L 492.400368 181.769484 
L 501.153309 181.769484 
L 509.90625 181.843689 
" style="fill:none;stroke:#ffb30f;stroke-linecap:square;stroke-opacity:0.2;stroke-width:1.5;"/>
   </g>
   <g id="line2d_38">
    <path clip-path="url(#p07e7be9b9e)" d="M 63.50625 91.111662 
L 72.259191 75.717806 
L 81.012132 81.676866 
L 89.765074 79.138334 
L 98.518015 80.907192 
L 107.270956 80.156615 
L 116.023897 90.076888 
L 124.776838 84.265704 
L 133.529779 86.363381 
L 142.282721 90.384531 
L 151.035662 87.475924 
L 159.788603 85.666698 
L 168.541544 85.235508 
L 177.294485 93.821778 
L 186.047426 76.675575 
L 194.800368 75.375469 
L 203.553309 75.953707 
L 212.30625 75.804524 
L 221.059191 69.890835 
L 229.812132 69.077933 
L 238.565074 66.774927 
L 247.318015 70.982655 
L 256.070956 61.862617 
L 264.823897 63.212016 
L 273.576838 69.192481 
L 282.329779 70.754291 
L 291.082721 68.435655 
L 299.835662 72.537303 
L 308.588603 72.018177 
L 317.341544 70.89691 
L 326.094485 73.529668 
L 334.847426 69.97177 
L 343.600368 63.915592 
L 352.353309 64.17575 
L 361.10625 63.971679 
L 369.859191 59.994612 
L 378.612132 61.576703 
L 387.365074 64.889244 
L 396.118015 74.130345 
L 404.870956 74.508031 
L 413.623897 69.626805 
L 422.376838 73.837032 
L 431.129779 67.827173 
L 439.882721 67.627952 
L 448.635662 73.699612 
L 457.388603 74.746699 
L 466.141544 73.395215 
L 474.894485 77.492801 
L 483.647426 69.835241 
L 492.400368 78.996491 
L 501.153309 75.16514 
L 509.90625 101.903241 
" style="fill:none;stroke:#2980b9;stroke-linecap:square;stroke-opacity:0.2;stroke-width:1.5;"/>
   </g>
   <g id="line2d_39">
    <path clip-path="url(#p07e7be9b9e)" d="M 63.50625 88.230924 
L 72.259191 73.144228 
L 81.012132 79.466894 
L 89.765074 77.097062 
L 98.518015 79.338685 
L 107.270956 78.743957 
L 116.023897 88.793598 
L 124.776838 83.200191 
L 133.529779 85.458254 
L 142.282721 89.408318 
L 151.035662 86.68043 
L 159.788603 84.621006 
L 168.541544 83.637053 
L 177.294485 92.144617 
L 186.047426 74.45565 
L 194.800368 73.714422 
L 203.553309 74.252474 
L 212.30625 74.083843 
L 221.059191 68.082673 
L 229.812132 67.187941 
L 238.565074 64.913551 
L 247.318015 68.248545 
L 256.070956 59.402605 
L 264.823897 60.55815 
L 273.576838 66.479582 
L 282.329779 68.222484 
L 291.082721 66.299701 
L 299.835662 69.842802 
L 308.588603 69.397506 
L 317.341544 68.373657 
L 326.094485 71.251235 
L 334.847426 67.709293 
L 343.600368 62.08248 
L 352.353309 62.366241 
L 361.10625 62.20852 
L 369.859191 57.974743 
L 378.612132 59.674718 
L 387.365074 63.427685 
L 396.118015 72.540672 
L 404.870956 72.781964 
L 413.623897 67.939255 
L 422.376838 71.72529 
L 431.129779 64.961563 
L 439.882721 64.819807 
L 448.635662 70.422267 
L 457.388603 71.70398 
L 466.141544 70.174659 
L 474.894485 74.573998 
L 483.647426 67.702845 
L 492.400368 76.95804 
L 501.153309 72.709949 
L 509.90625 98.981084 
" style="fill:none;stroke:#3498db;stroke-linecap:square;stroke-opacity:0.2;stroke-width:1.5;"/>
   </g>
   <g id="line2d_40">
    <path clip-path="url(#p07e7be9b9e)" d="M 63.50625 86.341415 
L 72.259191 70.975307 
L 81.012132 78.170557 
L 89.765074 73.905123 
L 98.518015 76.303324 
L 107.270956 75.395642 
L 116.023897 87.705259 
L 124.776838 80.381188 
L 133.529779 82.106916 
L 142.282721 85.281093 
L 151.035662 82.690595 
L 159.788603 80.960996 
L 168.541544 81.429151 
L 177.294485 91.080151 
L 186.047426 72.885643 
L 194.800368 71.940697 
L 203.553309 73.454627 
L 212.30625 72.284232 
L 221.059191 67.096923 
L 229.812132 66.108517 
L 238.565074 64.195429 
L 247.318015 66.739476 
L 256.070956 59.155022 
L 264.823897 60.353879 
L 273.576838 65.671814 
L 282.329779 67.195538 
L 291.082721 64.340894 
L 299.835662 68.396939 
L 308.588603 68.418102 
L 317.341544 67.731482 
L 326.094485 70.003246 
L 334.847426 66.6689 
L 343.600368 60.955916 
L 352.353309 60.513699 
L 361.10625 60.905838 
L 369.859191 56.788146 
L 378.612132 57.703672 
L 387.365074 61.398017 
L 396.118015 70.590073 
L 404.870956 69.305929 
L 413.623897 65.37131 
L 422.376838 69.41349 
L 431.129779 63.340034 
L 439.882721 63.087934 
L 448.635662 68.504757 
L 457.388603 69.929298 
L 466.141544 68.105154 
L 474.894485 72.070517 
L 483.647426 66.129412 
L 492.400368 75.960153 
L 501.153309 69.825474 
L 509.90625 95.838419 
" style="fill:none;stroke:#28b463;stroke-linecap:square;stroke-opacity:0.2;stroke-width:1.5;"/>
   </g>
   <g id="line2d_41">
    <path clip-path="url(#p07e7be9b9e)" d="M 63.50625 77.813708 
L 72.259191 55.248358 
L 81.012132 60.984606 
L 89.765074 56.376613 
L 98.518015 59.170356 
L 107.270956 56.524907 
L 116.023897 61.109279 
L 124.776838 65.32848 
L 133.529779 68.247272 
L 142.282721 73.216991 
L 151.035662 64.874682 
L 159.788603 65.918361 
L 168.541544 64.162058 
L 177.294485 84.798091 
L 186.047426 61.291862 
L 194.800368 54.970968 
L 203.553309 62.690355 
L 212.30625 62.557315 
L 221.059191 56.073344 
L 229.812132 50.543849 
L 238.565074 46.779531 
L 247.318015 58.446811 
L 256.070956 45.673669 
L 264.823897 46.35962 
L 273.576838 49.390045 
L 282.329779 54.707438 
L 291.082721 53.429403 
L 299.835662 47.271436 
L 308.588603 51.190317 
L 317.341544 54.439977 
L 326.094485 54.63208 
L 334.847426 47.44832 
L 343.600368 43.435106 
L 352.353309 41.704165 
L 361.10625 41.210365 
L 369.859191 38.798477 
L 378.612132 35.659236 
L 387.365074 37.991488 
L 396.118015 49.204029 
L 404.870956 52.291571 
L 413.623897 40.619936 
L 422.376838 54.987995 
L 431.129779 45.246143 
L 439.882721 36.70948 
L 448.635662 39.104349 
L 457.388603 44.755736 
L 466.141544 36.621895 
L 474.894485 44.273611 
L 483.647426 34.568612 
L 492.400368 50.745656 
L 501.153309 44.00463 
L 509.90625 82.97254 
" style="fill:none;stroke:#494949;stroke-linecap:square;stroke-opacity:0.2;stroke-width:1.5;"/>
   </g>
   <g id="line2d_42">
    <path clip-path="url(#p07e7be9b9e)" d="M 63.50625 77.813708 
L 72.259191 55.248358 
L 81.012132 60.984606 
L 89.765074 56.376613 
L 98.518015 59.170356 
L 107.270956 56.524907 
L 116.023897 61.109279 
L 124.776838 65.32848 
L 133.529779 68.247272 
L 142.282721 73.216991 
L 151.035662 64.874682 
L 159.788603 65.918361 
L 168.541544 64.162058 
L 177.294485 84.798091 
L 186.047426 61.291862 
L 194.800368 54.970968 
L 203.553309 62.690355 
L 212.30625 62.557315 
L 221.059191 56.073344 
L 229.812132 50.543849 
L 238.565074 46.779531 
L 247.318015 58.446811 
L 256.070956 45.673669 
L 264.823897 46.35962 
L 273.576838 49.390045 
L 282.329779 54.707438 
L 291.082721 53.429403 
L 299.835662 47.271436 
L 308.588603 51.190317 
L 317.341544 54.439977 
L 326.094485 54.63208 
L 334.847426 47.44832 
L 343.600368 43.435106 
L 352.353309 41.704165 
L 361.10625 41.210365 
L 369.859191 38.798477 
L 378.612132 35.659236 
L 387.365074 37.991488 
L 396.118015 49.204029 
L 404.870956 52.291571 
L 413.623897 40.619936 
L 422.376838 54.987995 
L 431.129779 45.246143 
L 439.882721 36.70948 
L 448.635662 39.104349 
L 457.388603 44.755736 
L 466.141544 36.621895 
L 474.894485 44.273611 
L 483.647426 34.568612 
L 492.400368 50.745656 
L 501.153309 44.00463 
L 509.90625 82.97254 
" style="fill:none;stroke:#7c7c7c;stroke-linecap:square;stroke-opacity:0.2;stroke-width:1.5;"/>
   </g>
   <g id="line2d_43">
    <path clip-path="url(#p07e7be9b9e)" d="M 63.50625 73.128992 
L 72.259191 47.493517 
L 81.012132 53.664933 
L 89.765074 48.928892 
L 98.518015 51.150834 
L 107.270956 48.57438 
L 116.023897 51.903666 
L 124.776838 57.227487 
L 133.529779 60.620091 
L 142.282721 65.763146 
L 151.035662 57.351817 
L 159.788603 58.544871 
L 168.541544 56.565738 
L 177.294485 80.468503 
L 186.047426 54.787454 
L 194.800368 46.903638 
L 203.553309 55.195683 
L 212.30625 56.14945 
L 221.059191 48.901327 
L 229.812132 43.483123 
L 238.565074 39.374453 
L 247.318015 52.774412 
L 256.070956 38.547807 
L 264.823897 39.029833 
L 273.576838 41.792619 
L 282.329779 47.50574 
L 291.082721 46.399956 
L 299.835662 37.826323 
L 308.588603 44.327249 
L 317.341544 47.171438 
L 326.094485 46.922024 
L 334.847426 38.89656 
L 343.600368 36.34288 
L 352.353309 34.255242 
L 361.10625 34.091243 
L 369.859191 31.040394 
L 378.612132 25.639157 
L 387.365074 28.265881 
L 396.118015 39.308804 
L 404.870956 44.683101 
L 413.623897 30.395026 
L 422.376838 48.328799 
L 431.129779 37.843979 
L 439.882721 27.087355 
L 448.635662 29.895982 
L 457.388603 36.89807 
L 466.141544 28.004151 
L 474.894485 36.743231 
L 483.647426 26.678739 
L 492.400368 42.949826 
L 501.153309 35.973652 
L 509.90625 77.427694 
" style="fill:none;stroke:#ba4a00;stroke-linecap:square;stroke-opacity:0.2;stroke-width:1.5;"/>
   </g>
   <g id="line2d_44">
    <path clip-path="url(#p07e7be9b9e)" d="M 63.50625 71.299191 
L 72.259191 44.140508 
L 81.012132 50.518638 
L 89.765074 45.808028 
L 98.518015 48.044886 
L 107.270956 45.389906 
L 116.023897 48.060382 
L 124.776838 54.284785 
L 133.529779 57.771035 
L 142.282721 62.888333 
L 151.035662 54.150849 
L 159.788603 55.414885 
L 168.541544 52.806538 
L 177.294485 78.292573 
L 186.047426 51.349665 
L 194.800368 42.571098 
L 203.553309 51.26555 
L 212.30625 52.682857 
L 221.059191 45.067927 
L 229.812132 39.630595 
L 238.565074 35.28254 
L 247.318015 49.825869 
L 256.070956 34.731263 
L 264.823897 35.102579 
L 273.576838 37.695191 
L 282.329779 43.918895 
L 291.082721 43.701477 
L 299.835662 34.230972 
L 308.588603 41.546069 
L 317.341544 44.734831 
L 326.094485 44.212816 
L 334.847426 35.861172 
L 343.600368 33.676454 
L 352.353309 31.417666 
L 361.10625 31.303363 
L 369.859191 28.214053 
L 378.612132 22.318125 
L 387.365074 24.592158 
L 396.118015 35.119361 
L 404.870956 41.36853 
L 413.623897 25.660989 
L 422.376838 45.245761 
L 431.129779 34.214193 
L 439.882721 22.940831 
L 448.635662 25.579211 
L 457.388603 33.011733 
L 466.141544 23.944253 
L 474.894485 32.872031 
L 483.647426 22.570691 
L 492.400368 39.230651 
L 501.153309 32.037808 
L 509.90625 75.019022 
" style="fill:none;stroke:#592400;stroke-linecap:square;stroke-opacity:0.2;stroke-width:1.5;"/>
   </g>
   <g id="patch_10">
    <path d="M 63.50625 392.954489 
L 63.50625 22.318125 
" style="fill:none;stroke:#000000;stroke-linecap:square;stroke-linejoin:miter;stroke-width:0.8;"/>
   </g>
   <g id="patch_11">
    <path d="M 509.90625 392.954489 
L 509.90625 22.318125 
" style="fill:none;stroke:#000000;stroke-linecap:square;stroke-linejoin:miter;stroke-width:0.8;"/>
   </g>
   <g id="patch_12">
    <path d="M 63.50625 392.954489 
L 509.90625 392.954489 
" style="fill:none;stroke:#000000;stroke-linecap:square;stroke-linejoin:miter;stroke-width:0.8;"/>
   </g>
   <g id="patch_13">
    <path d="M 63.50625 22.318125 
L 509.90625 22.318125 
" style="fill:none;stroke:#000000;stroke-linecap:square;stroke-linejoin:miter;stroke-width:0.8;"/>
   </g>
   <g id="text_26">
    <!-- System Energy Dispatch -->
    <defs>
     <path d="M 9.8125 72.90625 
L 55.90625 72.90625 
L 55.90625 64.59375 
L 19.671875 64.59375 
L 19.671875 43.015625 
L 54.390625 43.015625 
L 54.390625 34.71875 
L 19.671875 34.71875 
L 19.671875 8.296875 
L 56.78125 8.296875 
L 56.78125 0 
L 9.8125 0 
z
" id="DejaVuSans-69"/>
     <path d="M 54.890625 33.015625 
L 54.890625 0 
L 45.90625 0 
L 45.90625 32.71875 
Q 45.90625 40.484375 42.875 44.328125 
Q 39.84375 48.1875 33.796875 48.1875 
Q 26.515625 48.1875 22.3125 43.546875 
Q 18.109375 38.921875 18.109375 30.90625 
L 18.109375 0 
L 9.078125 0 
L 9.078125 75.984375 
L 18.109375 75.984375 
L 18.109375 46.1875 
Q 21.34375 51.125 25.703125 53.5625 
Q 30.078125 56 35.796875 56 
Q 45.21875 56 50.046875 50.171875 
Q 54.890625 44.34375 54.890625 33.015625 
z
" id="DejaVuSans-104"/>
    </defs>
    <g transform="translate(213.054375 16.318125)scale(0.12 -0.12)">
     <use xlink:href="#DejaVuSans-83"/>
     <use x="63.476562" xlink:href="#DejaVuSans-121"/>
     <use x="122.65625" xlink:href="#DejaVuSans-115"/>
     <use x="174.755859" xlink:href="#DejaVuSans-116"/>
     <use x="213.964844" xlink:href="#DejaVuSans-101"/>
     <use x="275.488281" xlink:href="#DejaVuSans-109"/>
     <use x="372.900391" xlink:href="#DejaVuSans-32"/>
     <use x="404.6875" xlink:href="#DejaVuSans-69"/>
     <use x="467.871094" xlink:href="#DejaVuSans-110"/>
     <use x="531.25" xlink:href="#DejaVuSans-101"/>
     <use x="592.773438" xlink:href="#DejaVuSans-114"/>
     <use x="633.871094" xlink:href="#DejaVuSans-103"/>
     <use x="697.347656" xlink:href="#DejaVuSans-121"/>
     <use x="756.527344" xlink:href="#DejaVuSans-32"/>
     <use x="788.314453" xlink:href="#DejaVuSans-68"/>
     <use x="865.316406" xlink:href="#DejaVuSans-105"/>
     <use x="893.099609" xlink:href="#DejaVuSans-115"/>
     <use x="945.199219" xlink:href="#DejaVuSans-112"/>
     <use x="1008.675781" xlink:href="#DejaVuSans-97"/>
     <use x="1069.955078" xlink:href="#DejaVuSans-116"/>
     <use x="1109.164062" xlink:href="#DejaVuSans-99"/>
     <use x="1164.144531" xlink:href="#DejaVuSans-104"/>
    </g>
   </g>
   <g id="legend_2">
    <g id="patch_14">
     <path d="M 594.114375 162.42125 
L 703.78625 162.42125 
Q 705.78625 162.42125 705.78625 160.42125 
L 705.78625 29.318125 
Q 705.78625 27.318125 703.78625 27.318125 
L 594.114375 27.318125 
Q 592.114375 27.318125 592.114375 29.318125 
L 592.114375 160.42125 
Q 592.114375 162.42125 594.114375 162.42125 
z
" style="fill:#ffffff;opacity:0.8;stroke:#cccccc;stroke-linejoin:miter;"/>
    </g>
    <g id="line2d_45">
     <path d="M 596.114375 35.416562 
L 616.114375 35.416562 
" style="fill:none;stroke:#000000;stroke-linecap:square;stroke-opacity:0.5;stroke-width:1.5;"/>
    </g>
    <g id="line2d_46"/>
    <g id="text_27">
     <!-- Demand -->
     <defs>
      <path d="M 45.40625 46.390625 
L 45.40625 75.984375 
L 54.390625 75.984375 
L 54.390625 0 
L 45.40625 0 
L 45.40625 8.203125 
Q 42.578125 3.328125 38.25 0.953125 
Q 33.9375 -1.421875 27.875 -1.421875 
Q 17.96875 -1.421875 11.734375 6.484375 
Q 5.515625 14.40625 5.515625 27.296875 
Q 5.515625 40.1875 11.734375 48.09375 
Q 17.96875 56 27.875 56 
Q 33.9375 56 38.25 53.625 
Q 42.578125 51.265625 45.40625 46.390625 
z
M 14.796875 27.296875 
Q 14.796875 17.390625 18.875 11.75 
Q 22.953125 6.109375 30.078125 6.109375 
Q 37.203125 6.109375 41.296875 11.75 
Q 45.40625 17.390625 45.40625 27.296875 
Q 45.40625 37.203125 41.296875 42.84375 
Q 37.203125 48.484375 30.078125 48.484375 
Q 22.953125 48.484375 18.875 42.84375 
Q 14.796875 37.203125 14.796875 27.296875 
z
" id="DejaVuSans-100"/>
     </defs>
     <g transform="translate(624.114375 38.916562)scale(0.1 -0.1)">
      <use xlink:href="#DejaVuSans-68"/>
      <use x="77.001953" xlink:href="#DejaVuSans-101"/>
      <use x="138.525391" xlink:href="#DejaVuSans-109"/>
      <use x="235.9375" xlink:href="#DejaVuSans-97"/>
      <use x="297.216797" xlink:href="#DejaVuSans-110"/>
      <use x="360.595703" xlink:href="#DejaVuSans-100"/>
     </g>
    </g>
    <g id="patch_15">
     <path d="M 596.114375 53.594687 
L 616.114375 53.594687 
L 616.114375 46.594687 
L 596.114375 46.594687 
z
" style="fill:#ffb30f;opacity:0.6;"/>
    </g>
    <g id="text_28">
     <!-- Geothermal -->
     <g transform="translate(624.114375 53.594687)scale(0.1 -0.1)">
      <use xlink:href="#DejaVuSans-71"/>
      <use x="77.490234" xlink:href="#DejaVuSans-101"/>
      <use x="139.013672" xlink:href="#DejaVuSans-111"/>
      <use x="200.195312" xlink:href="#DejaVuSans-116"/>
      <use x="239.404297" xlink:href="#DejaVuSans-104"/>
      <use x="302.783203" xlink:href="#DejaVuSans-101"/>
      <use x="364.306641" xlink:href="#DejaVuSans-114"/>
      <use x="405.404297" xlink:href="#DejaVuSans-109"/>
      <use x="502.816406" xlink:href="#DejaVuSans-97"/>
      <use x="564.095703" xlink:href="#DejaVuSans-108"/>
     </g>
    </g>
    <g id="patch_16">
     <path d="M 596.114375 68.272812 
L 616.114375 68.272812 
L 616.114375 61.272812 
L 596.114375 61.272812 
z
" style="fill:#2980b9;opacity:0.6;"/>
    </g>
    <g id="text_29">
     <!-- Large Hydro -->
     <defs>
      <path d="M 9.8125 72.90625 
L 19.671875 72.90625 
L 19.671875 8.296875 
L 55.171875 8.296875 
L 55.171875 0 
L 9.8125 0 
z
" id="DejaVuSans-76"/>
      <path d="M 9.8125 72.90625 
L 19.671875 72.90625 
L 19.671875 43.015625 
L 55.515625 43.015625 
L 55.515625 72.90625 
L 65.375 72.90625 
L 65.375 0 
L 55.515625 0 
L 55.515625 34.71875 
L 19.671875 34.71875 
L 19.671875 0 
L 9.8125 0 
z
" id="DejaVuSans-72"/>
     </defs>
     <g transform="translate(624.114375 68.272812)scale(0.1 -0.1)">
      <use xlink:href="#DejaVuSans-76"/>
      <use x="55.712891" xlink:href="#DejaVuSans-97"/>
      <use x="116.992188" xlink:href="#DejaVuSans-114"/>
      <use x="158.089844" xlink:href="#DejaVuSans-103"/>
      <use x="221.566406" xlink:href="#DejaVuSans-101"/>
      <use x="283.089844" xlink:href="#DejaVuSans-32"/>
      <use x="314.876953" xlink:href="#DejaVuSans-72"/>
      <use x="390.072266" xlink:href="#DejaVuSans-121"/>
      <use x="449.251953" xlink:href="#DejaVuSans-100"/>
      <use x="512.728516" xlink:href="#DejaVuSans-114"/>
      <use x="553.810547" xlink:href="#DejaVuSans-111"/>
     </g>
    </g>
    <g id="patch_17">
     <path d="M 596.114375 82.950937 
L 616.114375 82.950937 
L 616.114375 75.950937 
L 596.114375 75.950937 
z
" style="fill:#3498db;opacity:0.6;"/>
    </g>
    <g id="text_30">
     <!-- Small Hydro -->
     <g transform="translate(624.114375 82.950937)scale(0.1 -0.1)">
      <use xlink:href="#DejaVuSans-83"/>
      <use x="63.476562" xlink:href="#DejaVuSans-109"/>
      <use x="160.888672" xlink:href="#DejaVuSans-97"/>
      <use x="222.167969" xlink:href="#DejaVuSans-108"/>
      <use x="249.951172" xlink:href="#DejaVuSans-108"/>
      <use x="277.734375" xlink:href="#DejaVuSans-32"/>
      <use x="309.521484" xlink:href="#DejaVuSans-72"/>
      <use x="384.716797" xlink:href="#DejaVuSans-121"/>
      <use x="443.896484" xlink:href="#DejaVuSans-100"/>
      <use x="507.373047" xlink:href="#DejaVuSans-114"/>
      <use x="548.455078" xlink:href="#DejaVuSans-111"/>
     </g>
    </g>
    <g id="patch_18">
     <path d="M 596.114375 97.629062 
L 616.114375 97.629062 
L 616.114375 90.629062 
L 596.114375 90.629062 
z
" style="fill:#28b463;opacity:0.6;"/>
    </g>
    <g id="text_31">
     <!-- Onshore Wind -->
     <g transform="translate(624.114375 97.629062)scale(0.1 -0.1)">
      <use xlink:href="#DejaVuSans-79"/>
      <use x="78.710938" xlink:href="#DejaVuSans-110"/>
      <use x="142.089844" xlink:href="#DejaVuSans-115"/>
      <use x="194.189453" xlink:href="#DejaVuSans-104"/>
      <use x="257.568359" xlink:href="#DejaVuSans-111"/>
      <use x="318.75" xlink:href="#DejaVuSans-114"/>
      <use x="359.832031" xlink:href="#DejaVuSans-101"/>
      <use x="421.355469" xlink:href="#DejaVuSans-32"/>
      <use x="453.142578" xlink:href="#DejaVuSans-87"/>
      <use x="551.988281" xlink:href="#DejaVuSans-105"/>
      <use x="579.771484" xlink:href="#DejaVuSans-110"/>
      <use x="643.150391" xlink:href="#DejaVuSans-100"/>
     </g>
    </g>
    <g id="patch_19">
     <path d="M 596.114375 112.307187 
L 616.114375 112.307187 
L 616.114375 105.307187 
L 596.114375 105.307187 
z
" style="fill:#494949;opacity:0.6;"/>
    </g>
    <g id="text_32">
     <!-- Heavy Fuel Oil -->
     <g transform="translate(624.114375 112.307187)scale(0.1 -0.1)">
      <use xlink:href="#DejaVuSans-72"/>
      <use x="75.195312" xlink:href="#DejaVuSans-101"/>
      <use x="136.71875" xlink:href="#DejaVuSans-97"/>
      <use x="197.998047" xlink:href="#DejaVuSans-118"/>
      <use x="257.177734" xlink:href="#DejaVuSans-121"/>
      <use x="316.357422" xlink:href="#DejaVuSans-32"/>
      <use x="348.144531" xlink:href="#DejaVuSans-70"/>
      <use x="405.585938" xlink:href="#DejaVuSans-117"/>
      <use x="468.964844" xlink:href="#DejaVuSans-101"/>
      <use x="530.488281" xlink:href="#DejaVuSans-108"/>
      <use x="558.271484" xlink:href="#DejaVuSans-32"/>
      <use x="590.058594" xlink:href="#DejaVuSans-79"/>
      <use x="668.769531" xlink:href="#DejaVuSans-105"/>
      <use x="696.552734" xlink:href="#DejaVuSans-108"/>
     </g>
    </g>
    <g id="patch_20">
     <path d="M 596.114375 126.985312 
L 616.114375 126.985312 
L 616.114375 119.985312 
L 596.114375 119.985312 
z
" style="fill:#7c7c7c;opacity:0.6;"/>
    </g>
    <g id="text_33">
     <!-- Gast Turbine  -->
     <defs>
      <path d="M -0.296875 72.90625 
L 61.375 72.90625 
L 61.375 64.59375 
L 35.5 64.59375 
L 35.5 0 
L 25.59375 0 
L 25.59375 64.59375 
L -0.296875 64.59375 
z
" id="DejaVuSans-84"/>
     </defs>
     <g transform="translate(624.114375 126.985312)scale(0.1 -0.1)">
      <use xlink:href="#DejaVuSans-71"/>
      <use x="77.490234" xlink:href="#DejaVuSans-97"/>
      <use x="138.769531" xlink:href="#DejaVuSans-115"/>
      <use x="190.869141" xlink:href="#DejaVuSans-116"/>
      <use x="230.078125" xlink:href="#DejaVuSans-32"/>
      <use x="261.865234" xlink:href="#DejaVuSans-84"/>
      <use x="322.714844" xlink:href="#DejaVuSans-117"/>
      <use x="386.09375" xlink:href="#DejaVuSans-114"/>
      <use x="427.207031" xlink:href="#DejaVuSans-98"/>
      <use x="490.683594" xlink:href="#DejaVuSans-105"/>
      <use x="518.466797" xlink:href="#DejaVuSans-110"/>
      <use x="581.845703" xlink:href="#DejaVuSans-101"/>
      <use x="643.369141" xlink:href="#DejaVuSans-32"/>
     </g>
    </g>
    <g id="patch_21">
     <path d="M 596.114375 141.663437 
L 616.114375 141.663437 
L 616.114375 134.663437 
L 596.114375 134.663437 
z
" style="fill:#ba4a00;opacity:0.6;"/>
    </g>
    <g id="text_34">
     <!-- Biomass -->
     <g transform="translate(624.114375 141.663437)scale(0.1 -0.1)">
      <use xlink:href="#DejaVuSans-66"/>
      <use x="68.603516" xlink:href="#DejaVuSans-105"/>
      <use x="96.386719" xlink:href="#DejaVuSans-111"/>
      <use x="157.568359" xlink:href="#DejaVuSans-109"/>
      <use x="254.980469" xlink:href="#DejaVuSans-97"/>
      <use x="316.259766" xlink:href="#DejaVuSans-115"/>
      <use x="368.359375" xlink:href="#DejaVuSans-115"/>
     </g>
    </g>
    <g id="patch_22">
     <path d="M 596.114375 156.341562 
L 616.114375 156.341562 
L 616.114375 149.341562 
L 596.114375 149.341562 
z
" style="fill:#592400;opacity:0.6;"/>
    </g>
    <g id="text_35">
     <!-- Coffee Biomass -->
     <g transform="translate(624.114375 156.341562)scale(0.1 -0.1)">
      <use xlink:href="#DejaVuSans-67"/>
      <use x="69.824219" xlink:href="#DejaVuSans-111"/>
      <use x="131.005859" xlink:href="#DejaVuSans-102"/>
      <use x="166.210938" xlink:href="#DejaVuSans-102"/>
      <use x="201.416016" xlink:href="#DejaVuSans-101"/>
      <use x="262.939453" xlink:href="#DejaVuSans-101"/>
      <use x="324.462891" xlink:href="#DejaVuSans-32"/>
      <use x="356.25" xlink:href="#DejaVuSans-66"/>
      <use x="424.853516" xlink:href="#DejaVuSans-105"/>
      <use x="452.636719" xlink:href="#DejaVuSans-111"/>
      <use x="513.818359" xlink:href="#DejaVuSans-109"/>
      <use x="611.230469" xlink:href="#DejaVuSans-97"/>
      <use x="672.509766" xlink:href="#DejaVuSans-115"/>
      <use x="724.609375" xlink:href="#DejaVuSans-115"/>
     </g>
    </g>
   </g>
  </g>
 </g>
 <defs>
  <clipPath id="p92580ca529">
   <rect height="123.545455" width="446.4" x="63.50625" y="442.37267"/>
  </clipPath>
  <clipPath id="p07e7be9b9e">
   <rect height="370.636364" width="446.4" x="63.50625" y="22.318125"/>
  </clipPath>
 </defs>
</svg>
