<?xml version="1.0" encoding="utf-8" standalone="no"?>
<!DOCTYPE svg PUBLIC "-//W3C//DTD SVG 1.1//EN"
  "http://www.w3.org/Graphics/SVG/1.1/DTD/svg11.dtd">
<!-- Created with matplotlib (https://matplotlib.org/) -->
<svg height="440.368873pt" version="1.1" viewBox="0 0 679.729375 440.368873" width="679.729375pt" xmlns="http://www.w3.org/2000/svg" xmlns:xlink="http://www.w3.org/1999/xlink">
 <metadata>
  <rdf:RDF xmlns:cc="http://creativecommons.org/ns#" xmlns:dc="http://purl.org/dc/elements/1.1/" xmlns:rdf="http://www.w3.org/1999/02/22-rdf-syntax-ns#">
   <cc:Work>
    <dc:type rdf:resource="http://purl.org/dc/dcmitype/StillImage"/>
    <dc:date>2020-09-01T12:37:21.174120</dc:date>
    <dc:format>image/svg+xml</dc:format>
    <dc:creator>
     <cc:Agent>
      <dc:title>Matplotlib v3.3.1, https://matplotlib.org/</dc:title>
     </cc:Agent>
    </dc:creator>
   </cc:Work>
  </rdf:RDF>
 </metadata>
 <defs>
  <style type="text/css">*{stroke-linecap:butt;stroke-linejoin:round;}</style>
 </defs>
 <g id="figure_1">
  <g id="patch_1">
   <path d="M 0 440.368873 
L 679.729375 440.368873 
L 679.729375 0 
L 0 0 
z
" style="fill:#ffffff;"/>
  </g>
  <g id="axes_1">
   <g id="patch_2">
    <path d="M 58.523438 357.237656 
L 504.923437 357.237656 
L 504.923437 24.597656 
L 58.523438 24.597656 
z
" style="fill:#ffffff;"/>
   </g>
   <g id="PolyCollection_1">
    <path clip-path="url(#p8c69a6ebef)" d="M 58.523438 235.033963 
L 58.523438 235.033963 
L 67.108053 235.033963 
L 75.692668 235.033963 
L 84.277284 235.033963 
L 92.861899 235.033963 
L 101.446514 235.033963 
L 110.03113 235.033963 
L 118.615745 235.033963 
L 127.200361 235.033963 
L 135.784976 235.033963 
L 144.369591 235.033963 
L 152.954207 235.033963 
L 161.538822 235.033963 
L 170.123438 235.033963 
L 178.708053 235.033963 
L 187.292668 235.033963 
L 195.877284 235.033963 
L 204.461899 235.033963 
L 213.046514 235.033963 
L 221.63113 235.033963 
L 230.215745 235.033963 
L 238.800361 235.033963 
L 247.384976 235.033963 
L 255.969591 235.033963 
L 264.554207 235.033963 
L 273.138822 235.033963 
L 281.723438 235.033963 
L 290.308053 235.033963 
L 298.892668 235.033963 
L 307.477284 235.033963 
L 316.061899 235.033963 
L 324.646514 235.033963 
L 333.23113 235.033963 
L 341.815745 235.033963 
L 350.400361 235.033963 
L 358.984976 235.033963 
L 367.569591 235.033963 
L 376.154207 235.033963 
L 384.738822 235.033963 
L 393.323438 235.033963 
L 401.908053 235.033963 
L 410.492668 235.033963 
L 419.077284 235.033963 
L 427.661899 235.033963 
L 436.246514 235.033963 
L 444.83113 235.033963 
L 453.415745 235.033963 
L 462.000361 235.033963 
L 470.584976 235.033963 
L 479.169591 235.033963 
L 487.754207 235.033963 
L 496.338822 235.033963 
L 504.923438 235.033963 
L 504.923438 235.033963 
L 504.923438 235.033963 
L 496.338822 235.033963 
L 487.754207 235.033963 
L 479.169591 235.033963 
L 470.584976 235.033963 
L 462.000361 235.033963 
L 453.415745 235.033963 
L 444.83113 235.033963 
L 436.246514 235.033963 
L 427.661899 235.033963 
L 419.077284 235.033963 
L 410.492668 235.033963 
L 401.908053 235.033963 
L 393.323438 235.033963 
L 384.738822 235.033963 
L 376.154207 235.033963 
L 367.569591 235.033963 
L 358.984976 235.033963 
L 350.400361 235.033963 
L 341.815745 235.033963 
L 333.23113 235.033963 
L 324.646514 235.033963 
L 316.061899 235.033963 
L 307.477284 235.033963 
L 298.892668 235.033963 
L 290.308053 235.033963 
L 281.723438 235.033963 
L 273.138822 235.033963 
L 264.554207 235.033963 
L 255.969591 235.033963 
L 247.384976 235.033963 
L 238.800361 235.033963 
L 230.215745 235.033963 
L 221.63113 235.033963 
L 213.046514 235.033963 
L 204.461899 235.033963 
L 195.877284 235.033963 
L 187.292668 235.033963 
L 178.708053 235.033963 
L 170.123438 235.033963 
L 161.538822 235.033963 
L 152.954207 235.033963 
L 144.369591 235.033963 
L 135.784976 235.033963 
L 127.200361 235.033963 
L 118.615745 235.033963 
L 110.03113 235.033963 
L 101.446514 235.033963 
L 92.861899 235.033963 
L 84.277284 235.033963 
L 75.692668 235.033963 
L 67.108053 235.033963 
L 58.523438 235.033963 
z
" style="fill:#ffb30f;"/>
   </g>
   <g id="PolyCollection_2">
    <path clip-path="url(#p8c69a6ebef)" d="M 58.523438 104.622321 
L 58.523438 235.033963 
L 67.108053 235.033963 
L 75.692668 235.033963 
L 84.277284 235.033963 
L 92.861899 235.033963 
L 101.446514 235.033963 
L 110.03113 235.033963 
L 118.615745 235.033963 
L 127.200361 235.033963 
L 135.784976 235.033963 
L 144.369591 235.033963 
L 152.954207 235.033963 
L 161.538822 235.033963 
L 170.123438 235.033963 
L 178.708053 235.033963 
L 187.292668 235.033963 
L 195.877284 235.033963 
L 204.461899 235.033963 
L 213.046514 235.033963 
L 221.63113 235.033963 
L 230.215745 235.033963 
L 238.800361 235.033963 
L 247.384976 235.033963 
L 255.969591 235.033963 
L 264.554207 235.033963 
L 273.138822 235.033963 
L 281.723438 235.033963 
L 290.308053 235.033963 
L 298.892668 235.033963 
L 307.477284 235.033963 
L 316.061899 235.033963 
L 324.646514 235.033963 
L 333.23113 235.033963 
L 341.815745 235.033963 
L 350.400361 235.033963 
L 358.984976 235.033963 
L 367.569591 235.033963 
L 376.154207 235.033963 
L 384.738822 235.033963 
L 393.323438 235.033963 
L 401.908053 235.033963 
L 410.492668 235.033963 
L 419.077284 235.033963 
L 427.661899 235.033963 
L 436.246514 235.033963 
L 444.83113 235.033963 
L 453.415745 235.033963 
L 462.000361 235.033963 
L 470.584976 235.033963 
L 479.169591 235.033963 
L 487.754207 235.033963 
L 496.338822 235.033963 
L 504.923438 235.033963 
L 504.923438 75.976488 
L 504.923438 75.976488 
L 496.338822 80.307856 
L 487.754207 68.641748 
L 479.169591 70.091719 
L 470.584976 59.672761 
L 462.000361 71.75179 
L 453.415745 76.918713 
L 444.83113 73.969895 
L 436.246514 78.439867 
L 427.661899 76.344932 
L 419.077284 64.022583 
L 410.492668 66.479579 
L 401.908053 78.965279 
L 393.323438 73.252239 
L 384.738822 73.531582 
L 376.154207 81.380414 
L 367.569591 83.214965 
L 358.984976 65.494465 
L 350.400361 60.977406 
L 341.815745 64.909184 
L 333.23113 68.055203 
L 324.646514 80.397392 
L 316.061899 68.929515 
L 307.477284 69.878025 
L 298.892668 71.276008 
L 290.308053 83.06669 
L 281.723438 85.728597 
L 273.138822 83.046232 
L 264.554207 78.143232 
L 255.969591 72.292859 
L 247.384976 74.398462 
L 238.800361 65.364112 
L 230.215745 58.833411 
L 221.63113 67.234376 
L 213.046514 89.604529 
L 204.461899 88.928134 
L 195.877284 86.840245 
L 187.292668 85.180194 
L 178.708053 86.791492 
L 170.123438 91.539508 
L 161.538822 82.550858 
L 152.954207 86.505854 
L 144.369591 84.772601 
L 135.784976 85.945626 
L 127.200361 85.581046 
L 118.615745 86.036753 
L 110.03113 83.057704 
L 101.446514 84.397361 
L 92.861899 83.522206 
L 84.277284 80.472748 
L 75.692668 82.956614 
L 67.108053 84.924842 
L 58.523438 104.622321 
z
" style="fill:#2980b9;"/>
   </g>
   <g id="PolyCollection_3">
    <path clip-path="url(#p8c69a6ebef)" d="M 58.523438 96.712814 
L 58.523438 104.622321 
L 67.108053 84.924842 
L 75.692668 82.956614 
L 84.277284 80.472748 
L 92.861899 83.522206 
L 101.446514 84.397361 
L 110.03113 83.057704 
L 118.615745 86.036753 
L 127.200361 85.581046 
L 135.784976 85.945626 
L 144.369591 84.772601 
L 152.954207 86.505854 
L 161.538822 82.550858 
L 170.123438 91.539508 
L 178.708053 86.791492 
L 187.292668 85.180194 
L 195.877284 86.840245 
L 204.461899 88.928134 
L 213.046514 89.604529 
L 221.63113 67.234376 
L 230.215745 58.833411 
L 238.800361 65.364112 
L 247.384976 74.398462 
L 255.969591 72.292859 
L 264.554207 78.143232 
L 273.138822 83.046232 
L 281.723438 85.728597 
L 290.308053 83.06669 
L 298.892668 71.276008 
L 307.477284 69.878025 
L 316.061899 68.929515 
L 324.646514 80.397392 
L 333.23113 68.055203 
L 341.815745 64.909184 
L 350.400361 60.977406 
L 358.984976 65.494465 
L 367.569591 83.214965 
L 376.154207 81.380414 
L 384.738822 73.531582 
L 393.323438 73.252239 
L 401.908053 78.965279 
L 410.492668 66.479579 
L 419.077284 64.022583 
L 427.661899 76.344932 
L 436.246514 78.439867 
L 444.83113 73.969895 
L 453.415745 76.918713 
L 462.000361 71.75179 
L 470.584976 59.672761 
L 479.169591 70.091719 
L 487.754207 68.641748 
L 496.338822 80.307856 
L 504.923438 75.976488 
L 504.923438 68.267439 
L 504.923438 68.267439 
L 496.338822 72.782493 
L 487.754207 63.385862 
L 479.169591 64.287708 
L 470.584976 53.794459 
L 462.000361 63.434356 
L 453.415745 68.237116 
L 444.83113 65.649638 
L 436.246514 70.327684 
L 427.661899 68.233238 
L 419.077284 57.737333 
L 410.492668 61.784169 
L 401.908053 74.958262 
L 393.323438 68.984464 
L 384.738822 69.562554 
L 376.154207 77.775157 
L 367.569591 78.728341 
L 358.984976 60.665385 
L 350.400361 56.465682 
L 341.815745 60.31001 
L 333.23113 63.822632 
L 324.646514 74.083004 
L 316.061899 62.819069 
L 307.477284 63.040624 
L 298.892668 64.444921 
L 290.308053 76.448983 
L 281.723438 80.285578 
L 273.138822 75.945015 
L 264.554207 71.484981 
L 255.969591 65.096382 
L 247.384976 67.516414 
L 238.800361 58.858729 
L 230.215745 54.283342 
L 221.63113 62.254781 
L 213.046514 85.091587 
L 204.461899 84.534074 
L 195.877284 82.108081 
L 187.292668 80.533564 
L 178.708053 80.895751 
L 170.123438 86.955033 
L 161.538822 78.690501 
L 152.954207 84.106646 
L 144.369591 82.247605 
L 135.784976 82.926152 
L 127.200361 83.103943 
L 118.615745 82.467363 
L 110.03113 79.134866 
L 101.446514 80.22212 
L 92.861899 79.182289 
L 84.277284 74.756796 
L 75.692668 76.828046 
L 67.108053 77.760654 
L 58.523438 96.712814 
z
" style="fill:#3498db;"/>
   </g>
   <g id="PolyCollection_4">
    <path clip-path="url(#p8c69a6ebef)" d="M 58.523438 96.712814 
L 58.523438 96.712814 
L 67.108053 77.760654 
L 75.692668 76.828046 
L 84.277284 74.756796 
L 92.861899 79.182289 
L 101.446514 80.22212 
L 110.03113 79.134866 
L 118.615745 82.467363 
L 127.200361 83.103943 
L 135.784976 82.926152 
L 144.369591 82.247605 
L 152.954207 84.106646 
L 161.538822 78.690501 
L 170.123438 86.955033 
L 178.708053 80.895751 
L 187.292668 80.533564 
L 195.877284 82.108081 
L 204.461899 84.534074 
L 213.046514 85.091587 
L 221.63113 62.254781 
L 230.215745 54.283342 
L 238.800361 58.858729 
L 247.384976 67.516414 
L 255.969591 65.096382 
L 264.554207 71.484981 
L 273.138822 75.945015 
L 281.723438 80.285578 
L 290.308053 76.448983 
L 298.892668 64.444921 
L 307.477284 63.040624 
L 316.061899 62.819069 
L 324.646514 74.083004 
L 333.23113 63.822632 
L 341.815745 60.31001 
L 350.400361 56.465682 
L 358.984976 60.665385 
L 367.569591 78.728341 
L 376.154207 77.775157 
L 384.738822 69.562554 
L 393.323438 68.984464 
L 401.908053 74.958262 
L 410.492668 61.784169 
L 419.077284 57.737333 
L 427.661899 68.233238 
L 436.246514 70.327684 
L 444.83113 65.649638 
L 453.415745 68.237116 
L 462.000361 63.434356 
L 470.584976 53.794459 
L 479.169591 64.287708 
L 487.754207 63.385862 
L 496.338822 72.782493 
L 504.923438 68.267439 
L 504.923438 68.267439 
L 504.923438 68.267439 
L 496.338822 72.782493 
L 487.754207 63.385862 
L 479.169591 64.287708 
L 470.584976 53.794459 
L 462.000361 63.434356 
L 453.415745 68.237116 
L 444.83113 65.649638 
L 436.246514 70.327684 
L 427.661899 68.233238 
L 419.077284 57.737333 
L 410.492668 61.784169 
L 401.908053 74.958262 
L 393.323438 68.984464 
L 384.738822 69.562554 
L 376.154207 77.775157 
L 367.569591 78.728341 
L 358.984976 60.665385 
L 350.400361 56.465682 
L 341.815745 60.31001 
L 333.23113 63.822632 
L 324.646514 74.083004 
L 316.061899 62.819069 
L 307.477284 63.040624 
L 298.892668 64.444921 
L 290.308053 76.448983 
L 281.723438 80.285578 
L 273.138822 75.945015 
L 264.554207 71.484981 
L 255.969591 65.096382 
L 247.384976 67.516414 
L 238.800361 58.858729 
L 230.215745 54.283342 
L 221.63113 62.254781 
L 213.046514 85.091587 
L 204.461899 84.534074 
L 195.877284 82.108081 
L 187.292668 80.533564 
L 178.708053 80.895751 
L 170.123438 86.955033 
L 161.538822 78.690501 
L 152.954207 84.106646 
L 144.369591 82.247605 
L 135.784976 82.926152 
L 127.200361 83.103943 
L 118.615745 82.467363 
L 110.03113 79.134866 
L 101.446514 80.22212 
L 92.861899 79.182289 
L 84.277284 74.756796 
L 75.692668 76.828046 
L 67.108053 77.760654 
L 58.523438 96.712814 
z
" style="fill:#28b463;"/>
   </g>
   <g id="PolyCollection_5">
    <path clip-path="url(#p8c69a6ebef)" d="M 58.523438 96.712814 
L 58.523438 96.712814 
L 67.108053 77.760654 
L 75.692668 76.828046 
L 84.277284 74.756796 
L 92.861899 79.182289 
L 101.446514 80.22212 
L 110.03113 79.134866 
L 118.615745 82.467363 
L 127.200361 83.103943 
L 135.784976 82.926152 
L 144.369591 82.247605 
L 152.954207 84.106646 
L 161.538822 78.690501 
L 170.123438 86.955033 
L 178.708053 80.895751 
L 187.292668 80.533564 
L 195.877284 82.108081 
L 204.461899 84.534074 
L 213.046514 85.091587 
L 221.63113 62.254781 
L 230.215745 54.283342 
L 238.800361 58.858729 
L 247.384976 67.516414 
L 255.969591 65.096382 
L 264.554207 71.484981 
L 273.138822 75.945015 
L 281.723438 80.285578 
L 290.308053 76.448983 
L 298.892668 64.444921 
L 307.477284 63.040624 
L 316.061899 62.819069 
L 324.646514 74.083004 
L 333.23113 63.822632 
L 341.815745 60.31001 
L 350.400361 56.465682 
L 358.984976 60.665385 
L 367.569591 78.728341 
L 376.154207 77.775157 
L 384.738822 69.562554 
L 393.323438 68.984464 
L 401.908053 74.958262 
L 410.492668 61.784169 
L 419.077284 57.737333 
L 427.661899 68.233238 
L 436.246514 70.327684 
L 444.83113 65.649638 
L 453.415745 68.237116 
L 462.000361 63.434356 
L 470.584976 53.794459 
L 479.169591 64.287708 
L 487.754207 63.385862 
L 496.338822 72.782493 
L 504.923438 68.267439 
L 504.923438 68.267439 
L 504.923438 68.267439 
L 496.338822 72.782493 
L 487.754207 63.385862 
L 479.169591 64.287708 
L 470.584976 53.794459 
L 462.000361 63.434356 
L 453.415745 68.237116 
L 444.83113 65.649638 
L 436.246514 70.327684 
L 427.661899 68.233238 
L 419.077284 57.737333 
L 410.492668 61.784169 
L 401.908053 74.958262 
L 393.323438 68.984464 
L 384.738822 69.562554 
L 376.154207 77.775157 
L 367.569591 78.728341 
L 358.984976 60.665385 
L 350.400361 56.465682 
L 341.815745 60.31001 
L 333.23113 63.822632 
L 324.646514 74.083004 
L 316.061899 62.819069 
L 307.477284 63.040624 
L 298.892668 64.444921 
L 290.308053 76.448983 
L 281.723438 80.285578 
L 273.138822 75.945015 
L 264.554207 71.484981 
L 255.969591 65.096382 
L 247.384976 67.516414 
L 238.800361 58.858729 
L 230.215745 54.283342 
L 221.63113 62.254781 
L 213.046514 85.091587 
L 204.461899 84.534074 
L 195.877284 82.108081 
L 187.292668 80.533564 
L 178.708053 80.895751 
L 170.123438 86.955033 
L 161.538822 78.690501 
L 152.954207 84.106646 
L 144.369591 82.247605 
L 135.784976 82.926152 
L 127.200361 83.103943 
L 118.615745 82.467363 
L 110.03113 79.134866 
L 101.446514 80.22212 
L 92.861899 79.182289 
L 84.277284 74.756796 
L 75.692668 76.828046 
L 67.108053 77.760654 
L 58.523438 96.712814 
z
" style="fill:#494949;"/>
   </g>
   <g id="PolyCollection_6">
    <path clip-path="url(#p8c69a6ebef)" d="M 58.523438 96.712814 
L 58.523438 96.712814 
L 67.108053 77.760654 
L 75.692668 76.828046 
L 84.277284 74.756796 
L 92.861899 79.182289 
L 101.446514 80.22212 
L 110.03113 79.134866 
L 118.615745 82.467363 
L 127.200361 83.103943 
L 135.784976 82.926152 
L 144.369591 82.247605 
L 152.954207 84.106646 
L 161.538822 78.690501 
L 170.123438 86.955033 
L 178.708053 80.895751 
L 187.292668 80.533564 
L 195.877284 82.108081 
L 204.461899 84.534074 
L 213.046514 85.091587 
L 221.63113 62.254781 
L 230.215745 54.283342 
L 238.800361 58.858729 
L 247.384976 67.516414 
L 255.969591 65.096382 
L 264.554207 71.484981 
L 273.138822 75.945015 
L 281.723438 80.285578 
L 290.308053 76.448983 
L 298.892668 64.444921 
L 307.477284 63.040624 
L 316.061899 62.819069 
L 324.646514 74.083004 
L 333.23113 63.822632 
L 341.815745 60.31001 
L 350.400361 56.465682 
L 358.984976 60.665385 
L 367.569591 78.728341 
L 376.154207 77.775157 
L 384.738822 69.562554 
L 393.323438 68.984464 
L 401.908053 74.958262 
L 410.492668 61.784169 
L 419.077284 57.737333 
L 427.661899 68.233238 
L 436.246514 70.327684 
L 444.83113 65.649638 
L 453.415745 68.237116 
L 462.000361 63.434356 
L 470.584976 53.794459 
L 479.169591 64.287708 
L 487.754207 63.385862 
L 496.338822 72.782493 
L 504.923438 68.267439 
L 504.923438 68.267439 
L 504.923438 68.267439 
L 496.338822 72.782493 
L 487.754207 63.385862 
L 479.169591 64.287708 
L 470.584976 53.794459 
L 462.000361 63.434356 
L 453.415745 68.237116 
L 444.83113 65.649638 
L 436.246514 70.327684 
L 427.661899 68.233238 
L 419.077284 57.737333 
L 410.492668 61.784169 
L 401.908053 74.958262 
L 393.323438 68.984464 
L 384.738822 69.562554 
L 376.154207 77.775157 
L 367.569591 78.728341 
L 358.984976 60.665385 
L 350.400361 56.465682 
L 341.815745 60.31001 
L 333.23113 63.822632 
L 324.646514 74.083004 
L 316.061899 62.819069 
L 307.477284 63.040624 
L 298.892668 64.444921 
L 290.308053 76.448983 
L 281.723438 80.285578 
L 273.138822 75.945015 
L 264.554207 71.484981 
L 255.969591 65.096382 
L 247.384976 67.516414 
L 238.800361 58.858729 
L 230.215745 54.283342 
L 221.63113 62.254781 
L 213.046514 85.091587 
L 204.461899 84.534074 
L 195.877284 82.108081 
L 187.292668 80.533564 
L 178.708053 80.895751 
L 170.123438 86.955033 
L 161.538822 78.690501 
L 152.954207 84.106646 
L 144.369591 82.247605 
L 135.784976 82.926152 
L 127.200361 83.103943 
L 118.615745 82.467363 
L 110.03113 79.134866 
L 101.446514 80.22212 
L 92.861899 79.182289 
L 84.277284 74.756796 
L 75.692668 76.828046 
L 67.108053 77.760654 
L 58.523438 96.712814 
z
" style="fill:#7c7c7c;"/>
   </g>
   <g id="PolyCollection_7">
    <path clip-path="url(#p8c69a6ebef)" d="M 58.523438 96.712814 
L 58.523438 96.712814 
L 67.108053 77.760654 
L 75.692668 76.828046 
L 84.277284 74.756796 
L 92.861899 79.182289 
L 101.446514 80.22212 
L 110.03113 79.134866 
L 118.615745 82.467363 
L 127.200361 83.103943 
L 135.784976 82.926152 
L 144.369591 82.247605 
L 152.954207 84.106646 
L 161.538822 78.690501 
L 170.123438 86.955033 
L 178.708053 80.895751 
L 187.292668 80.533564 
L 195.877284 82.108081 
L 204.461899 84.534074 
L 213.046514 85.091587 
L 221.63113 62.254781 
L 230.215745 54.283342 
L 238.800361 58.858729 
L 247.384976 67.516414 
L 255.969591 65.096382 
L 264.554207 71.484981 
L 273.138822 75.945015 
L 281.723438 80.285578 
L 290.308053 76.448983 
L 298.892668 64.444921 
L 307.477284 63.040624 
L 316.061899 62.819069 
L 324.646514 74.083004 
L 333.23113 63.822632 
L 341.815745 60.31001 
L 350.400361 56.465682 
L 358.984976 60.665385 
L 367.569591 78.728341 
L 376.154207 77.775157 
L 384.738822 69.562554 
L 393.323438 68.984464 
L 401.908053 74.958262 
L 410.492668 61.784169 
L 419.077284 57.737333 
L 427.661899 68.233238 
L 436.246514 70.327684 
L 444.83113 65.649638 
L 453.415745 68.237116 
L 462.000361 63.434356 
L 470.584976 53.794459 
L 479.169591 64.287708 
L 487.754207 63.385862 
L 496.338822 72.782493 
L 504.923438 68.267439 
L 504.923438 68.267439 
L 504.923438 68.267439 
L 496.338822 72.782493 
L 487.754207 63.385862 
L 479.169591 64.287708 
L 470.584976 53.794459 
L 462.000361 63.434356 
L 453.415745 68.237116 
L 444.83113 65.649638 
L 436.246514 70.327684 
L 427.661899 68.233238 
L 419.077284 57.737333 
L 410.492668 61.784169 
L 401.908053 74.958262 
L 393.323438 68.984464 
L 384.738822 69.562554 
L 376.154207 77.775157 
L 367.569591 78.728341 
L 358.984976 60.665385 
L 350.400361 56.465682 
L 341.815745 60.31001 
L 333.23113 63.822632 
L 324.646514 74.083004 
L 316.061899 62.819069 
L 307.477284 63.040624 
L 298.892668 64.444921 
L 290.308053 76.448983 
L 281.723438 80.285578 
L 273.138822 75.945015 
L 264.554207 71.484981 
L 255.969591 65.096382 
L 247.384976 67.516414 
L 238.800361 58.858729 
L 230.215745 54.283342 
L 221.63113 62.254781 
L 213.046514 85.091587 
L 204.461899 84.534074 
L 195.877284 82.108081 
L 187.292668 80.533564 
L 178.708053 80.895751 
L 170.123438 86.955033 
L 161.538822 78.690501 
L 152.954207 84.106646 
L 144.369591 82.247605 
L 135.784976 82.926152 
L 127.200361 83.103943 
L 118.615745 82.467363 
L 110.03113 79.134866 
L 101.446514 80.22212 
L 92.861899 79.182289 
L 84.277284 74.756796 
L 75.692668 76.828046 
L 67.108053 77.760654 
L 58.523438 96.712814 
z
" style="fill:#ba4a00;"/>
   </g>
   <g id="PolyCollection_8">
    <path clip-path="url(#p8c69a6ebef)" d="M 58.523438 79.727159 
L 58.523438 96.712814 
L 67.108053 77.760654 
L 75.692668 76.828046 
L 84.277284 74.756796 
L 92.861899 79.182289 
L 101.446514 80.22212 
L 110.03113 79.134866 
L 118.615745 82.467363 
L 127.200361 83.103943 
L 135.784976 82.926152 
L 144.369591 82.247605 
L 152.954207 84.106646 
L 161.538822 78.690501 
L 170.123438 86.955033 
L 178.708053 80.895751 
L 187.292668 80.533564 
L 195.877284 82.108081 
L 204.461899 84.534074 
L 213.046514 85.091587 
L 221.63113 62.254781 
L 230.215745 54.283342 
L 238.800361 58.858729 
L 247.384976 67.516414 
L 255.969591 65.096382 
L 264.554207 71.484981 
L 273.138822 75.945015 
L 281.723438 80.285578 
L 290.308053 76.448983 
L 298.892668 64.444921 
L 307.477284 63.040624 
L 316.061899 62.819069 
L 324.646514 74.083004 
L 333.23113 63.822632 
L 341.815745 60.31001 
L 350.400361 56.465682 
L 358.984976 60.665385 
L 367.569591 78.728341 
L 376.154207 77.775157 
L 384.738822 69.562554 
L 393.323438 68.984464 
L 401.908053 74.958262 
L 410.492668 61.784169 
L 419.077284 57.737333 
L 427.661899 68.233238 
L 436.246514 70.327684 
L 444.83113 65.649638 
L 453.415745 68.237116 
L 462.000361 63.434356 
L 470.584976 53.794459 
L 479.169591 64.287708 
L 487.754207 63.385862 
L 496.338822 72.782493 
L 504.923438 68.267439 
L 504.923438 52.317656 
L 504.923438 52.317656 
L 496.338822 58.258144 
L 487.754207 58.167031 
L 479.169591 57.712712 
L 470.584976 52.453069 
L 462.000361 55.072646 
L 453.415745 58.446294 
L 444.83113 58.159089 
L 436.246514 59.155991 
L 427.661899 61.646953 
L 419.077284 53.186767 
L 410.492668 61.127976 
L 401.908053 64.27566 
L 393.323438 63.897553 
L 384.738822 63.316115 
L 376.154207 67.285635 
L 367.569591 63.108619 
L 358.984976 60.201535 
L 350.400361 55.793129 
L 341.815745 59.326075 
L 333.23113 62.489706 
L 324.646514 68.610518 
L 316.061899 60.252233 
L 307.477284 58.870883 
L 298.892668 60.704525 
L 290.308053 68.150773 
L 281.723438 72.183575 
L 273.138822 68.141533 
L 264.554207 68.608726 
L 255.969591 63.298795 
L 247.384976 64.159772 
L 238.800361 58.084403 
L 230.215745 53.610638 
L 221.63113 60.501176 
L 213.046514 73.724193 
L 204.461899 75.78753 
L 195.877284 72.59067 
L 187.292668 69.752247 
L 178.708053 68.080435 
L 170.123438 70.356586 
L 161.538822 68.782598 
L 152.954207 69.846075 
L 144.369591 70.288257 
L 135.784976 71.425282 
L 127.200361 69.313209 
L 118.615745 68.782021 
L 110.03113 64.209316 
L 101.446514 66.894745 
L 92.861899 66.319495 
L 84.277284 64.782218 
L 75.692668 66.322767 
L 67.108053 67.146829 
L 58.523438 79.727159 
z
" style="fill:#75ee6b;"/>
   </g>
   <g id="PolyCollection_9">
    <path clip-path="url(#p8c69a6ebef)" d="M 58.523438 79.727159 
L 58.523438 79.727159 
L 67.108053 67.146829 
L 75.692668 66.322767 
L 84.277284 64.782218 
L 92.861899 66.319495 
L 101.446514 66.894745 
L 110.03113 64.209316 
L 118.615745 68.782021 
L 127.200361 69.313209 
L 135.784976 71.425282 
L 144.369591 70.288257 
L 152.954207 69.846075 
L 161.538822 68.782598 
L 170.123438 70.356586 
L 178.708053 68.080435 
L 187.292668 69.752247 
L 195.877284 72.59067 
L 204.461899 75.78753 
L 213.046514 73.724193 
L 221.63113 60.501176 
L 230.215745 53.610638 
L 238.800361 58.084403 
L 247.384976 64.159772 
L 255.969591 63.298795 
L 264.554207 68.608726 
L 273.138822 68.141533 
L 281.723438 72.183575 
L 290.308053 68.150773 
L 298.892668 60.704525 
L 307.477284 58.870883 
L 316.061899 60.252233 
L 324.646514 68.610518 
L 333.23113 62.489706 
L 341.815745 59.326075 
L 350.400361 55.793129 
L 358.984976 60.201535 
L 367.569591 63.108619 
L 376.154207 67.285635 
L 384.738822 63.316115 
L 393.323438 63.897553 
L 401.908053 64.27566 
L 410.492668 61.127976 
L 419.077284 53.186767 
L 427.661899 61.646953 
L 436.246514 59.155991 
L 444.83113 58.159089 
L 453.415745 58.446294 
L 462.000361 55.072646 
L 470.584976 52.453069 
L 479.169591 57.712712 
L 487.754207 58.167031 
L 496.338822 58.258144 
L 504.923438 52.317656 
L 504.923438 52.317656 
L 504.923438 52.317656 
L 496.338822 58.258144 
L 487.754207 58.167031 
L 479.169591 57.712712 
L 470.584976 52.453069 
L 462.000361 55.072646 
L 453.415745 58.446294 
L 444.83113 58.159089 
L 436.246514 59.155991 
L 427.661899 61.646953 
L 419.077284 53.186767 
L 410.492668 61.127976 
L 401.908053 64.27566 
L 393.323438 63.897553 
L 384.738822 63.316115 
L 376.154207 67.285635 
L 367.569591 63.108619 
L 358.984976 60.201535 
L 350.400361 55.793129 
L 341.815745 59.326075 
L 333.23113 62.489706 
L 324.646514 68.610518 
L 316.061899 60.252233 
L 307.477284 58.870883 
L 298.892668 60.704525 
L 290.308053 68.150773 
L 281.723438 72.183575 
L 273.138822 68.141533 
L 264.554207 68.608726 
L 255.969591 63.298795 
L 247.384976 64.159772 
L 238.800361 58.084403 
L 230.215745 53.610638 
L 221.63113 60.501176 
L 213.046514 73.724193 
L 204.461899 75.78753 
L 195.877284 72.59067 
L 187.292668 69.752247 
L 178.708053 68.080435 
L 170.123438 70.356586 
L 161.538822 68.782598 
L 152.954207 69.846075 
L 144.369591 70.288257 
L 135.784976 71.425282 
L 127.200361 69.313209 
L 118.615745 68.782021 
L 110.03113 64.209316 
L 101.446514 66.894745 
L 92.861899 66.319495 
L 84.277284 64.782218 
L 75.692668 66.322767 
L 67.108053 67.146829 
L 58.523438 79.727159 
z
" style="fill:#ed6060;"/>
   </g>
   <g id="PolyCollection_10">
    <path clip-path="url(#p8c69a6ebef)" d="M 58.523438 79.727159 
L 58.523438 79.727159 
L 67.108053 67.146829 
L 75.692668 66.322767 
L 84.277284 64.782218 
L 92.861899 66.319495 
L 101.446514 66.894745 
L 110.03113 64.209316 
L 118.615745 68.782021 
L 127.200361 69.313209 
L 135.784976 71.425282 
L 144.369591 70.288257 
L 152.954207 69.846075 
L 161.538822 68.782598 
L 170.123438 70.356586 
L 178.708053 68.080435 
L 187.292668 69.752247 
L 195.877284 72.59067 
L 204.461899 75.78753 
L 213.046514 73.724193 
L 221.63113 60.501176 
L 230.215745 53.610638 
L 238.800361 58.084403 
L 247.384976 64.159772 
L 255.969591 63.298795 
L 264.554207 68.608726 
L 273.138822 68.141533 
L 281.723438 72.183575 
L 290.308053 68.150773 
L 298.892668 60.704525 
L 307.477284 58.870883 
L 316.061899 60.252233 
L 324.646514 68.610518 
L 333.23113 62.489706 
L 341.815745 59.326075 
L 350.400361 55.793129 
L 358.984976 60.201535 
L 367.569591 63.108619 
L 376.154207 67.285635 
L 384.738822 63.316115 
L 393.323438 63.897553 
L 401.908053 64.27566 
L 410.492668 61.127976 
L 419.077284 53.186767 
L 427.661899 61.646953 
L 436.246514 59.155991 
L 444.83113 58.159089 
L 453.415745 58.446294 
L 462.000361 55.072646 
L 470.584976 52.453069 
L 479.169591 57.712712 
L 487.754207 58.167031 
L 496.338822 58.258144 
L 504.923438 52.317656 
L 504.923438 52.317656 
L 504.923438 52.317656 
L 496.338822 58.258144 
L 487.754207 58.167031 
L 479.169591 57.712712 
L 470.584976 52.453069 
L 462.000361 55.072646 
L 453.415745 58.446294 
L 444.83113 58.159089 
L 436.246514 59.155991 
L 427.661899 61.646953 
L 419.077284 53.186767 
L 410.492668 61.127976 
L 401.908053 64.27566 
L 393.323438 63.897553 
L 384.738822 63.316115 
L 376.154207 67.285635 
L 367.569591 63.108619 
L 358.984976 60.201535 
L 350.400361 55.793129 
L 341.815745 59.326075 
L 333.23113 62.489706 
L 324.646514 68.610518 
L 316.061899 60.252233 
L 307.477284 58.870883 
L 298.892668 60.704525 
L 290.308053 68.150773 
L 281.723438 72.183575 
L 273.138822 68.141533 
L 264.554207 68.608726 
L 255.969591 63.298795 
L 247.384976 64.159772 
L 238.800361 58.084403 
L 230.215745 53.610638 
L 221.63113 60.501176 
L 213.046514 73.724193 
L 204.461899 75.78753 
L 195.877284 72.59067 
L 187.292668 69.752247 
L 178.708053 68.080435 
L 170.123438 70.356586 
L 161.538822 68.782598 
L 152.954207 69.846075 
L 144.369591 70.288257 
L 135.784976 71.425282 
L 127.200361 69.313209 
L 118.615745 68.782021 
L 110.03113 64.209316 
L 101.446514 66.894745 
L 92.861899 66.319495 
L 84.277284 64.782218 
L 75.692668 66.322767 
L 67.108053 67.146829 
L 58.523438 79.727159 
z
" style="fill:#ea6bee;"/>
   </g>
   <g id="PolyCollection_11">
    <path clip-path="url(#p8c69a6ebef)" d="M 58.523438 235.033963 
L 58.523438 235.033963 
L 67.108053 235.033963 
L 75.692668 235.033963 
L 84.277284 235.033963 
L 92.861899 235.033963 
L 101.446514 235.033963 
L 110.03113 235.033963 
L 118.615745 235.033963 
L 127.200361 235.033963 
L 135.784976 235.033963 
L 144.369591 235.033963 
L 152.954207 235.033963 
L 161.538822 235.033963 
L 170.123438 235.033963 
L 178.708053 235.033963 
L 187.292668 235.033963 
L 195.877284 235.033963 
L 204.461899 235.033963 
L 213.046514 235.033963 
L 221.63113 235.033963 
L 230.215745 235.033963 
L 238.800361 235.033963 
L 247.384976 235.033963 
L 255.969591 235.033963 
L 264.554207 235.033963 
L 273.138822 235.033963 
L 281.723438 235.033963 
L 290.308053 235.033963 
L 298.892668 235.033963 
L 307.477284 235.033963 
L 316.061899 235.033963 
L 324.646514 235.033963 
L 333.23113 235.033963 
L 341.815745 235.033963 
L 350.400361 235.033963 
L 358.984976 235.033963 
L 367.569591 235.033963 
L 376.154207 235.033963 
L 384.738822 235.033963 
L 393.323438 235.033963 
L 401.908053 235.033963 
L 410.492668 235.033963 
L 419.077284 235.033963 
L 427.661899 235.033963 
L 436.246514 235.033963 
L 444.83113 235.033963 
L 453.415745 235.033963 
L 462.000361 235.033963 
L 470.584976 235.033963 
L 479.169591 235.033963 
L 487.754207 235.033963 
L 496.338822 235.033963 
L 504.923438 235.033963 
L 504.923438 235.033963 
L 504.923438 235.033963 
L 496.338822 235.033963 
L 487.754207 235.033963 
L 479.169591 235.033963 
L 470.584976 235.033963 
L 462.000361 235.033963 
L 453.415745 235.033963 
L 444.83113 235.033963 
L 436.246514 235.033963 
L 427.661899 235.033963 
L 419.077284 235.033963 
L 410.492668 235.033963 
L 401.908053 235.033963 
L 393.323438 235.033963 
L 384.738822 235.033963 
L 376.154207 235.033963 
L 367.569591 235.033963 
L 358.984976 235.033963 
L 350.400361 235.033963 
L 341.815745 235.033963 
L 333.23113 235.033963 
L 324.646514 235.033963 
L 316.061899 235.033963 
L 307.477284 235.033963 
L 298.892668 235.033963 
L 290.308053 235.033963 
L 281.723438 235.033963 
L 273.138822 235.033963 
L 264.554207 235.033963 
L 255.969591 235.033963 
L 247.384976 235.033963 
L 238.800361 235.033963 
L 230.215745 235.033963 
L 221.63113 235.033963 
L 213.046514 235.033963 
L 204.461899 235.033963 
L 195.877284 235.033963 
L 187.292668 235.033963 
L 178.708053 235.033963 
L 170.123438 235.033963 
L 161.538822 235.033963 
L 152.954207 235.033963 
L 144.369591 235.033963 
L 135.784976 235.033963 
L 127.200361 235.033963 
L 118.615745 235.033963 
L 110.03113 235.033963 
L 101.446514 235.033963 
L 92.861899 235.033963 
L 84.277284 235.033963 
L 75.692668 235.033963 
L 67.108053 235.033963 
L 58.523438 235.033963 
z
" style="fill:#22eb11;"/>
   </g>
   <g id="PolyCollection_12">
    <path clip-path="url(#p8c69a6ebef)" d="M 58.523438 235.237744 
L 58.523438 235.033963 
L 67.108053 235.033963 
L 75.692668 235.033963 
L 84.277284 235.033963 
L 92.861899 235.033963 
L 101.446514 235.033963 
L 110.03113 235.033963 
L 118.615745 235.033963 
L 127.200361 235.033963 
L 135.784976 235.033963 
L 144.369591 235.033963 
L 152.954207 235.033963 
L 161.538822 235.033963 
L 170.123438 235.033963 
L 178.708053 235.033963 
L 187.292668 235.033963 
L 195.877284 235.033963 
L 204.461899 235.033963 
L 213.046514 235.033963 
L 221.63113 235.033963 
L 230.215745 235.033963 
L 238.800361 235.033963 
L 247.384976 235.033963 
L 255.969591 235.033963 
L 264.554207 235.033963 
L 273.138822 235.033963 
L 281.723438 235.033963 
L 290.308053 235.033963 
L 298.892668 235.033963 
L 307.477284 235.033963 
L 316.061899 235.033963 
L 324.646514 235.033963 
L 333.23113 235.033963 
L 341.815745 235.033963 
L 350.400361 235.033963 
L 358.984976 235.033963 
L 367.569591 235.033963 
L 376.154207 235.033963 
L 384.738822 235.033963 
L 393.323438 235.033963 
L 401.908053 235.033963 
L 410.492668 235.033963 
L 419.077284 235.033963 
L 427.661899 235.033963 
L 436.246514 235.033963 
L 444.83113 235.033963 
L 453.415745 235.033963 
L 462.000361 235.033963 
L 470.584976 235.033963 
L 479.169591 235.033963 
L 487.754207 235.033963 
L 496.338822 235.033963 
L 504.923438 235.033963 
L 504.923438 236.053669 
L 504.923438 236.053669 
L 496.338822 236.157234 
L 487.754207 237.840337 
L 479.169591 236.468279 
L 470.584976 237.022069 
L 462.000361 238.73674 
L 453.415745 238.739866 
L 444.83113 237.387387 
L 436.246514 240.014018 
L 427.661899 251.16521 
L 419.077284 239.388638 
L 410.492668 242.80781 
L 401.908053 244.493703 
L 393.323438 243.739045 
L 384.738822 241.653769 
L 376.154207 242.764351 
L 367.569591 238.805499 
L 358.984976 238.683673 
L 350.400361 238.81458 
L 341.815745 241.490967 
L 333.23113 239.637081 
L 324.646514 241.549989 
L 316.061899 239.590843 
L 307.477284 239.465528 
L 298.892668 240.47363 
L 290.308053 239.523923 
L 281.723438 242.120156 
L 273.138822 245.45169 
L 264.554207 247.377612 
L 255.969591 244.8152 
L 247.384976 242.787378 
L 238.800361 241.78181 
L 230.215745 242.721983 
L 221.63113 241.529595 
L 213.046514 242.453996 
L 204.461899 240.604858 
L 195.877284 243.70902 
L 187.292668 244.232643 
L 178.708053 241.737849 
L 170.123438 240.585606 
L 161.538822 243.706141 
L 152.954207 241.629062 
L 144.369591 241.808423 
L 135.784976 244.356692 
L 127.200361 241.445709 
L 118.615745 242.951897 
L 110.03113 239.697072 
L 101.446514 239.969019 
L 92.861899 240.10063 
L 84.277284 239.324692 
L 75.692668 239.573484 
L 67.108053 239.564875 
L 58.523438 235.237744 
z
" style="fill:#ee1111;"/>
   </g>
   <g id="PolyCollection_13">
    <path clip-path="url(#p8c69a6ebef)" d="M 58.523438 302.069055 
L 58.523438 235.237744 
L 67.108053 239.564875 
L 75.692668 239.573484 
L 84.277284 239.324692 
L 92.861899 240.10063 
L 101.446514 239.969019 
L 110.03113 239.697072 
L 118.615745 242.951897 
L 127.200361 241.445709 
L 135.784976 244.356692 
L 144.369591 241.808423 
L 152.954207 241.629062 
L 161.538822 243.706141 
L 170.123438 240.585606 
L 178.708053 241.737849 
L 187.292668 244.232643 
L 195.877284 243.70902 
L 204.461899 240.604858 
L 213.046514 242.453996 
L 221.63113 241.529595 
L 230.215745 242.721983 
L 238.800361 241.78181 
L 247.384976 242.787378 
L 255.969591 244.8152 
L 264.554207 247.377612 
L 273.138822 245.45169 
L 281.723438 242.120156 
L 290.308053 239.523923 
L 298.892668 240.47363 
L 307.477284 239.465528 
L 316.061899 239.590843 
L 324.646514 241.549989 
L 333.23113 239.637081 
L 341.815745 241.490967 
L 350.400361 238.81458 
L 358.984976 238.683673 
L 367.569591 238.805499 
L 376.154207 242.764351 
L 384.738822 241.653769 
L 393.323438 243.739045 
L 401.908053 244.493703 
L 410.492668 242.80781 
L 419.077284 239.388638 
L 427.661899 251.16521 
L 436.246514 240.014018 
L 444.83113 237.387387 
L 453.415745 238.739866 
L 462.000361 238.73674 
L 470.584976 237.022069 
L 479.169591 236.468279 
L 487.754207 237.840337 
L 496.338822 236.157234 
L 504.923438 236.053669 
L 504.923438 310.743119 
L 504.923438 310.743119 
L 496.338822 313.405242 
L 487.754207 310.03693 
L 479.169591 308.538874 
L 470.584976 315.146747 
L 462.000361 313.27742 
L 453.415745 309.968723 
L 444.83113 307.838674 
L 436.246514 313.087283 
L 427.661899 329.517656 
L 419.077284 322.775401 
L 410.492668 320.089351 
L 401.908053 319.369416 
L 393.323438 321.711263 
L 384.738822 318.11354 
L 376.154207 315.658649 
L 367.569591 308.467034 
L 358.984976 320.236213 
L 350.400361 325.603331 
L 341.815745 321.773328 
L 333.23113 316.484959 
L 324.646514 310.615918 
L 316.061899 317.699011 
L 307.477284 316.754714 
L 298.892668 317.376923 
L 290.308053 308.993728 
L 281.723438 311.275043 
L 273.138822 319.669117 
L 264.554207 321.440108 
L 255.969591 322.279481 
L 247.384976 319.25063 
L 238.800361 323.762394 
L 230.215745 326.776795 
L 221.63113 322.186654 
L 213.046514 309.676791 
L 204.461899 307.755779 
L 195.877284 312.85454 
L 187.292668 318.014052 
L 178.708053 320.68289 
L 170.123438 317.320796 
L 161.538822 315.050853 
L 152.954207 313.189408 
L 144.369591 312.979692 
L 135.784976 316.269732 
L 127.200361 315.464799 
L 118.615745 315.939496 
L 110.03113 312.65168 
L 101.446514 309.89123 
L 92.861899 309.838303 
L 84.277284 309.352719 
L 75.692668 309.487497 
L 67.108053 307.864621 
L 58.523438 302.069055 
z
" style="fill:#e50eec;"/>
   </g>
   <g id="matplotlib.axis_1">
    <g id="xtick_1">
     <g id="line2d_1">
      <defs>
       <path d="M 0 0 
L 0 3.5 
" id="m5cf508dd04" style="stroke:#000000;stroke-width:0.8;"/>
      </defs>
      <g>
       <use style="stroke:#000000;stroke-width:0.8;" x="58.523438" xlink:href="#m5cf508dd04" y="357.237656"/>
      </g>
     </g>
     <g id="text_1">
      <!-- January -->
      <g transform="translate(54.63325 402.461103)rotate(-70)scale(0.1 -0.1)">
       <defs>
        <path d="M 9.8125 72.90625 
L 19.671875 72.90625 
L 19.671875 5.078125 
Q 19.671875 -8.109375 14.671875 -14.0625 
Q 9.671875 -20.015625 -1.421875 -20.015625 
L -5.171875 -20.015625 
L -5.171875 -11.71875 
L -2.09375 -11.71875 
Q 4.4375 -11.71875 7.125 -8.046875 
Q 9.8125 -4.390625 9.8125 5.078125 
z
" id="DejaVuSans-74"/>
        <path d="M 34.28125 27.484375 
Q 23.390625 27.484375 19.1875 25 
Q 14.984375 22.515625 14.984375 16.5 
Q 14.984375 11.71875 18.140625 8.90625 
Q 21.296875 6.109375 26.703125 6.109375 
Q 34.1875 6.109375 38.703125 11.40625 
Q 43.21875 16.703125 43.21875 25.484375 
L 43.21875 27.484375 
z
M 52.203125 31.203125 
L 52.203125 0 
L 43.21875 0 
L 43.21875 8.296875 
Q 40.140625 3.328125 35.546875 0.953125 
Q 30.953125 -1.421875 24.3125 -1.421875 
Q 15.921875 -1.421875 10.953125 3.296875 
Q 6 8.015625 6 15.921875 
Q 6 25.140625 12.171875 29.828125 
Q 18.359375 34.515625 30.609375 34.515625 
L 43.21875 34.515625 
L 43.21875 35.40625 
Q 43.21875 41.609375 39.140625 45 
Q 35.0625 48.390625 27.6875 48.390625 
Q 23 48.390625 18.546875 47.265625 
Q 14.109375 46.140625 10.015625 43.890625 
L 10.015625 52.203125 
Q 14.9375 54.109375 19.578125 55.046875 
Q 24.21875 56 28.609375 56 
Q 40.484375 56 46.34375 49.84375 
Q 52.203125 43.703125 52.203125 31.203125 
z
" id="DejaVuSans-97"/>
        <path d="M 54.890625 33.015625 
L 54.890625 0 
L 45.90625 0 
L 45.90625 32.71875 
Q 45.90625 40.484375 42.875 44.328125 
Q 39.84375 48.1875 33.796875 48.1875 
Q 26.515625 48.1875 22.3125 43.546875 
Q 18.109375 38.921875 18.109375 30.90625 
L 18.109375 0 
L 9.078125 0 
L 9.078125 54.6875 
L 18.109375 54.6875 
L 18.109375 46.1875 
Q 21.34375 51.125 25.703125 53.5625 
Q 30.078125 56 35.796875 56 
Q 45.21875 56 50.046875 50.171875 
Q 54.890625 44.34375 54.890625 33.015625 
z
" id="DejaVuSans-110"/>
        <path d="M 8.5 21.578125 
L 8.5 54.6875 
L 17.484375 54.6875 
L 17.484375 21.921875 
Q 17.484375 14.15625 20.5 10.265625 
Q 23.53125 6.390625 29.59375 6.390625 
Q 36.859375 6.390625 41.078125 11.03125 
Q 45.3125 15.671875 45.3125 23.6875 
L 45.3125 54.6875 
L 54.296875 54.6875 
L 54.296875 0 
L 45.3125 0 
L 45.3125 8.40625 
Q 42.046875 3.421875 37.71875 1 
Q 33.40625 -1.421875 27.6875 -1.421875 
Q 18.265625 -1.421875 13.375 4.4375 
Q 8.5 10.296875 8.5 21.578125 
z
M 31.109375 56 
z
" id="DejaVuSans-117"/>
        <path d="M 41.109375 46.296875 
Q 39.59375 47.171875 37.8125 47.578125 
Q 36.03125 48 33.890625 48 
Q 26.265625 48 22.1875 43.046875 
Q 18.109375 38.09375 18.109375 28.8125 
L 18.109375 0 
L 9.078125 0 
L 9.078125 54.6875 
L 18.109375 54.6875 
L 18.109375 46.1875 
Q 20.953125 51.171875 25.484375 53.578125 
Q 30.03125 56 36.53125 56 
Q 37.453125 56 38.578125 55.875 
Q 39.703125 55.765625 41.0625 55.515625 
z
" id="DejaVuSans-114"/>
        <path d="M 32.171875 -5.078125 
Q 28.375 -14.84375 24.75 -17.8125 
Q 21.140625 -20.796875 15.09375 -20.796875 
L 7.90625 -20.796875 
L 7.90625 -13.28125 
L 13.1875 -13.28125 
Q 16.890625 -13.28125 18.9375 -11.515625 
Q 21 -9.765625 23.484375 -3.21875 
L 25.09375 0.875 
L 2.984375 54.6875 
L 12.5 54.6875 
L 29.59375 11.921875 
L 46.6875 54.6875 
L 56.203125 54.6875 
z
" id="DejaVuSans-121"/>
       </defs>
       <use xlink:href="#DejaVuSans-74"/>
       <use x="29.492188" xlink:href="#DejaVuSans-97"/>
       <use x="90.771484" xlink:href="#DejaVuSans-110"/>
       <use x="154.150391" xlink:href="#DejaVuSans-117"/>
       <use x="217.529297" xlink:href="#DejaVuSans-97"/>
       <use x="278.808594" xlink:href="#DejaVuSans-114"/>
       <use x="319.921875" xlink:href="#DejaVuSans-121"/>
      </g>
     </g>
    </g>
    <g id="xtick_2">
     <g id="line2d_2">
      <g>
       <use style="stroke:#000000;stroke-width:0.8;" x="92.861899" xlink:href="#m5cf508dd04" y="357.237656"/>
      </g>
     </g>
     <g id="text_2">
      <!-- February -->
      <g transform="translate(87.877514 408.473668)rotate(-70)scale(0.1 -0.1)">
       <defs>
        <path d="M 9.8125 72.90625 
L 51.703125 72.90625 
L 51.703125 64.59375 
L 19.671875 64.59375 
L 19.671875 43.109375 
L 48.578125 43.109375 
L 48.578125 34.8125 
L 19.671875 34.8125 
L 19.671875 0 
L 9.8125 0 
z
" id="DejaVuSans-70"/>
        <path d="M 56.203125 29.59375 
L 56.203125 25.203125 
L 14.890625 25.203125 
Q 15.484375 15.921875 20.484375 11.0625 
Q 25.484375 6.203125 34.421875 6.203125 
Q 39.59375 6.203125 44.453125 7.46875 
Q 49.3125 8.734375 54.109375 11.28125 
L 54.109375 2.78125 
Q 49.265625 0.734375 44.1875 -0.34375 
Q 39.109375 -1.421875 33.890625 -1.421875 
Q 20.796875 -1.421875 13.15625 6.1875 
Q 5.515625 13.8125 5.515625 26.8125 
Q 5.515625 40.234375 12.765625 48.109375 
Q 20.015625 56 32.328125 56 
Q 43.359375 56 49.78125 48.890625 
Q 56.203125 41.796875 56.203125 29.59375 
z
M 47.21875 32.234375 
Q 47.125 39.59375 43.09375 43.984375 
Q 39.0625 48.390625 32.421875 48.390625 
Q 24.90625 48.390625 20.390625 44.140625 
Q 15.875 39.890625 15.1875 32.171875 
z
" id="DejaVuSans-101"/>
        <path d="M 48.6875 27.296875 
Q 48.6875 37.203125 44.609375 42.84375 
Q 40.53125 48.484375 33.40625 48.484375 
Q 26.265625 48.484375 22.1875 42.84375 
Q 18.109375 37.203125 18.109375 27.296875 
Q 18.109375 17.390625 22.1875 11.75 
Q 26.265625 6.109375 33.40625 6.109375 
Q 40.53125 6.109375 44.609375 11.75 
Q 48.6875 17.390625 48.6875 27.296875 
z
M 18.109375 46.390625 
Q 20.953125 51.265625 25.265625 53.625 
Q 29.59375 56 35.59375 56 
Q 45.5625 56 51.78125 48.09375 
Q 58.015625 40.1875 58.015625 27.296875 
Q 58.015625 14.40625 51.78125 6.484375 
Q 45.5625 -1.421875 35.59375 -1.421875 
Q 29.59375 -1.421875 25.265625 0.953125 
Q 20.953125 3.328125 18.109375 8.203125 
L 18.109375 0 
L 9.078125 0 
L 9.078125 75.984375 
L 18.109375 75.984375 
z
" id="DejaVuSans-98"/>
       </defs>
       <use xlink:href="#DejaVuSans-70"/>
       <use x="52.019531" xlink:href="#DejaVuSans-101"/>
       <use x="113.542969" xlink:href="#DejaVuSans-98"/>
       <use x="177.019531" xlink:href="#DejaVuSans-114"/>
       <use x="218.132812" xlink:href="#DejaVuSans-117"/>
       <use x="281.511719" xlink:href="#DejaVuSans-97"/>
       <use x="342.791016" xlink:href="#DejaVuSans-114"/>
       <use x="383.904297" xlink:href="#DejaVuSans-121"/>
      </g>
     </g>
    </g>
    <g id="xtick_3">
     <g id="line2d_3">
      <g>
       <use style="stroke:#000000;stroke-width:0.8;" x="127.200361" xlink:href="#m5cf508dd04" y="357.237656"/>
      </g>
     </g>
     <g id="text_3">
      <!-- March -->
      <g transform="translate(124.581259 395.476544)rotate(-70)scale(0.1 -0.1)">
       <defs>
        <path d="M 9.8125 72.90625 
L 24.515625 72.90625 
L 43.109375 23.296875 
L 61.8125 72.90625 
L 76.515625 72.90625 
L 76.515625 0 
L 66.890625 0 
L 66.890625 64.015625 
L 48.09375 14.015625 
L 38.1875 14.015625 
L 19.390625 64.015625 
L 19.390625 0 
L 9.8125 0 
z
" id="DejaVuSans-77"/>
        <path d="M 48.78125 52.59375 
L 48.78125 44.1875 
Q 44.96875 46.296875 41.140625 47.34375 
Q 37.3125 48.390625 33.40625 48.390625 
Q 24.65625 48.390625 19.8125 42.84375 
Q 14.984375 37.3125 14.984375 27.296875 
Q 14.984375 17.28125 19.8125 11.734375 
Q 24.65625 6.203125 33.40625 6.203125 
Q 37.3125 6.203125 41.140625 7.25 
Q 44.96875 8.296875 48.78125 10.40625 
L 48.78125 2.09375 
Q 45.015625 0.34375 40.984375 -0.53125 
Q 36.96875 -1.421875 32.421875 -1.421875 
Q 20.0625 -1.421875 12.78125 6.34375 
Q 5.515625 14.109375 5.515625 27.296875 
Q 5.515625 40.671875 12.859375 48.328125 
Q 20.21875 56 33.015625 56 
Q 37.15625 56 41.109375 55.140625 
Q 45.0625 54.296875 48.78125 52.59375 
z
" id="DejaVuSans-99"/>
        <path d="M 54.890625 33.015625 
L 54.890625 0 
L 45.90625 0 
L 45.90625 32.71875 
Q 45.90625 40.484375 42.875 44.328125 
Q 39.84375 48.1875 33.796875 48.1875 
Q 26.515625 48.1875 22.3125 43.546875 
Q 18.109375 38.921875 18.109375 30.90625 
L 18.109375 0 
L 9.078125 0 
L 9.078125 75.984375 
L 18.109375 75.984375 
L 18.109375 46.1875 
Q 21.34375 51.125 25.703125 53.5625 
Q 30.078125 56 35.796875 56 
Q 45.21875 56 50.046875 50.171875 
Q 54.890625 44.34375 54.890625 33.015625 
z
" id="DejaVuSans-104"/>
       </defs>
       <use xlink:href="#DejaVuSans-77"/>
       <use x="86.279297" xlink:href="#DejaVuSans-97"/>
       <use x="147.558594" xlink:href="#DejaVuSans-114"/>
       <use x="186.421875" xlink:href="#DejaVuSans-99"/>
       <use x="241.402344" xlink:href="#DejaVuSans-104"/>
      </g>
     </g>
    </g>
    <g id="xtick_4">
     <g id="line2d_4">
      <g>
       <use style="stroke:#000000;stroke-width:0.8;" x="170.123438" xlink:href="#m5cf508dd04" y="357.237656"/>
      </g>
     </g>
     <g id="text_4">
      <!-- April -->
      <g transform="translate(168.807753 388.314324)rotate(-70)scale(0.1 -0.1)">
       <defs>
        <path d="M 34.1875 63.1875 
L 20.796875 26.90625 
L 47.609375 26.90625 
z
M 28.609375 72.90625 
L 39.796875 72.90625 
L 67.578125 0 
L 57.328125 0 
L 50.6875 18.703125 
L 17.828125 18.703125 
L 11.1875 0 
L 0.78125 0 
z
" id="DejaVuSans-65"/>
        <path d="M 18.109375 8.203125 
L 18.109375 -20.796875 
L 9.078125 -20.796875 
L 9.078125 54.6875 
L 18.109375 54.6875 
L 18.109375 46.390625 
Q 20.953125 51.265625 25.265625 53.625 
Q 29.59375 56 35.59375 56 
Q 45.5625 56 51.78125 48.09375 
Q 58.015625 40.1875 58.015625 27.296875 
Q 58.015625 14.40625 51.78125 6.484375 
Q 45.5625 -1.421875 35.59375 -1.421875 
Q 29.59375 -1.421875 25.265625 0.953125 
Q 20.953125 3.328125 18.109375 8.203125 
z
M 48.6875 27.296875 
Q 48.6875 37.203125 44.609375 42.84375 
Q 40.53125 48.484375 33.40625 48.484375 
Q 26.265625 48.484375 22.1875 42.84375 
Q 18.109375 37.203125 18.109375 27.296875 
Q 18.109375 17.390625 22.1875 11.75 
Q 26.265625 6.109375 33.40625 6.109375 
Q 40.53125 6.109375 44.609375 11.75 
Q 48.6875 17.390625 48.6875 27.296875 
z
" id="DejaVuSans-112"/>
        <path d="M 9.421875 54.6875 
L 18.40625 54.6875 
L 18.40625 0 
L 9.421875 0 
z
M 9.421875 75.984375 
L 18.40625 75.984375 
L 18.40625 64.59375 
L 9.421875 64.59375 
z
" id="DejaVuSans-105"/>
        <path d="M 9.421875 75.984375 
L 18.40625 75.984375 
L 18.40625 0 
L 9.421875 0 
z
" id="DejaVuSans-108"/>
       </defs>
       <use xlink:href="#DejaVuSans-65"/>
       <use x="68.408203" xlink:href="#DejaVuSans-112"/>
       <use x="131.884766" xlink:href="#DejaVuSans-114"/>
       <use x="172.998047" xlink:href="#DejaVuSans-105"/>
       <use x="200.78125" xlink:href="#DejaVuSans-108"/>
      </g>
     </g>
    </g>
    <g id="xtick_5">
     <g id="line2d_5">
      <g>
       <use style="stroke:#000000;stroke-width:0.8;" x="204.461899" xlink:href="#m5cf508dd04" y="357.237656"/>
      </g>
     </g>
     <g id="text_5">
      <!-- May -->
      <g transform="translate(203.51923 386.26462)rotate(-70)scale(0.1 -0.1)">
       <use xlink:href="#DejaVuSans-77"/>
       <use x="86.279297" xlink:href="#DejaVuSans-97"/>
       <use x="147.558594" xlink:href="#DejaVuSans-121"/>
      </g>
     </g>
    </g>
    <g id="xtick_6">
     <g id="line2d_6">
      <g>
       <use style="stroke:#000000;stroke-width:0.8;" x="247.384976" xlink:href="#m5cf508dd04" y="357.237656"/>
      </g>
     </g>
     <g id="text_6">
      <!-- June -->
      <g transform="translate(246.253662 387.301218)rotate(-70)scale(0.1 -0.1)">
       <use xlink:href="#DejaVuSans-74"/>
       <use x="29.492188" xlink:href="#DejaVuSans-117"/>
       <use x="92.871094" xlink:href="#DejaVuSans-110"/>
       <use x="156.25" xlink:href="#DejaVuSans-101"/>
      </g>
     </g>
    </g>
    <g id="xtick_7">
     <g id="line2d_7">
      <g>
       <use style="stroke:#000000;stroke-width:0.8;" x="281.723438" xlink:href="#m5cf508dd04" y="357.237656"/>
      </g>
     </g>
     <g id="text_7">
      <!-- July -->
      <g transform="translate(281.240893 383.736259)rotate(-70)scale(0.1 -0.1)">
       <use xlink:href="#DejaVuSans-74"/>
       <use x="29.492188" xlink:href="#DejaVuSans-117"/>
       <use x="92.871094" xlink:href="#DejaVuSans-108"/>
       <use x="120.654297" xlink:href="#DejaVuSans-121"/>
      </g>
     </g>
    </g>
    <g id="xtick_8">
     <g id="line2d_8">
      <g>
       <use style="stroke:#000000;stroke-width:0.8;" x="316.061899" xlink:href="#m5cf508dd04" y="357.237656"/>
      </g>
     </g>
     <g id="text_8">
      <!-- August -->
      <g transform="translate(312.67058 399.719844)rotate(-70)scale(0.1 -0.1)">
       <defs>
        <path d="M 45.40625 27.984375 
Q 45.40625 37.75 41.375 43.109375 
Q 37.359375 48.484375 30.078125 48.484375 
Q 22.859375 48.484375 18.828125 43.109375 
Q 14.796875 37.75 14.796875 27.984375 
Q 14.796875 18.265625 18.828125 12.890625 
Q 22.859375 7.515625 30.078125 7.515625 
Q 37.359375 7.515625 41.375 12.890625 
Q 45.40625 18.265625 45.40625 27.984375 
z
M 54.390625 6.78125 
Q 54.390625 -7.171875 48.1875 -13.984375 
Q 42 -20.796875 29.203125 -20.796875 
Q 24.46875 -20.796875 20.265625 -20.09375 
Q 16.0625 -19.390625 12.109375 -17.921875 
L 12.109375 -9.1875 
Q 16.0625 -11.328125 19.921875 -12.34375 
Q 23.78125 -13.375 27.78125 -13.375 
Q 36.625 -13.375 41.015625 -8.765625 
Q 45.40625 -4.15625 45.40625 5.171875 
L 45.40625 9.625 
Q 42.625 4.78125 38.28125 2.390625 
Q 33.9375 0 27.875 0 
Q 17.828125 0 11.671875 7.65625 
Q 5.515625 15.328125 5.515625 27.984375 
Q 5.515625 40.671875 11.671875 48.328125 
Q 17.828125 56 27.875 56 
Q 33.9375 56 38.28125 53.609375 
Q 42.625 51.21875 45.40625 46.390625 
L 45.40625 54.6875 
L 54.390625 54.6875 
z
" id="DejaVuSans-103"/>
        <path d="M 44.28125 53.078125 
L 44.28125 44.578125 
Q 40.484375 46.53125 36.375 47.5 
Q 32.28125 48.484375 27.875 48.484375 
Q 21.1875 48.484375 17.84375 46.4375 
Q 14.5 44.390625 14.5 40.28125 
Q 14.5 37.15625 16.890625 35.375 
Q 19.28125 33.59375 26.515625 31.984375 
L 29.59375 31.296875 
Q 39.15625 29.25 43.1875 25.515625 
Q 47.21875 21.78125 47.21875 15.09375 
Q 47.21875 7.46875 41.1875 3.015625 
Q 35.15625 -1.421875 24.609375 -1.421875 
Q 20.21875 -1.421875 15.453125 -0.5625 
Q 10.6875 0.296875 5.421875 2 
L 5.421875 11.28125 
Q 10.40625 8.6875 15.234375 7.390625 
Q 20.0625 6.109375 24.8125 6.109375 
Q 31.15625 6.109375 34.5625 8.28125 
Q 37.984375 10.453125 37.984375 14.40625 
Q 37.984375 18.0625 35.515625 20.015625 
Q 33.0625 21.96875 24.703125 23.78125 
L 21.578125 24.515625 
Q 13.234375 26.265625 9.515625 29.90625 
Q 5.8125 33.546875 5.8125 39.890625 
Q 5.8125 47.609375 11.28125 51.796875 
Q 16.75 56 26.8125 56 
Q 31.78125 56 36.171875 55.265625 
Q 40.578125 54.546875 44.28125 53.078125 
z
" id="DejaVuSans-115"/>
        <path d="M 18.3125 70.21875 
L 18.3125 54.6875 
L 36.8125 54.6875 
L 36.8125 47.703125 
L 18.3125 47.703125 
L 18.3125 18.015625 
Q 18.3125 11.328125 20.140625 9.421875 
Q 21.96875 7.515625 27.59375 7.515625 
L 36.8125 7.515625 
L 36.8125 0 
L 27.59375 0 
Q 17.1875 0 13.234375 3.875 
Q 9.28125 7.765625 9.28125 18.015625 
L 9.28125 47.703125 
L 2.6875 47.703125 
L 2.6875 54.6875 
L 9.28125 54.6875 
L 9.28125 70.21875 
z
" id="DejaVuSans-116"/>
       </defs>
       <use xlink:href="#DejaVuSans-65"/>
       <use x="68.408203" xlink:href="#DejaVuSans-117"/>
       <use x="131.787109" xlink:href="#DejaVuSans-103"/>
       <use x="195.263672" xlink:href="#DejaVuSans-117"/>
       <use x="258.642578" xlink:href="#DejaVuSans-115"/>
       <use x="310.742188" xlink:href="#DejaVuSans-116"/>
      </g>
     </g>
    </g>
    <g id="xtick_9">
     <g id="line2d_9">
      <g>
       <use style="stroke:#000000;stroke-width:0.8;" x="358.984976" xlink:href="#m5cf508dd04" y="357.237656"/>
      </g>
     </g>
     <g id="text_9">
      <!-- September -->
      <g transform="translate(352.125091 418.779453)rotate(-70)scale(0.1 -0.1)">
       <defs>
        <path d="M 53.515625 70.515625 
L 53.515625 60.890625 
Q 47.90625 63.578125 42.921875 64.890625 
Q 37.9375 66.21875 33.296875 66.21875 
Q 25.25 66.21875 20.875 63.09375 
Q 16.5 59.96875 16.5 54.203125 
Q 16.5 49.359375 19.40625 46.890625 
Q 22.3125 44.4375 30.421875 42.921875 
L 36.375 41.703125 
Q 47.40625 39.59375 52.65625 34.296875 
Q 57.90625 29 57.90625 20.125 
Q 57.90625 9.515625 50.796875 4.046875 
Q 43.703125 -1.421875 29.984375 -1.421875 
Q 24.8125 -1.421875 18.96875 -0.25 
Q 13.140625 0.921875 6.890625 3.21875 
L 6.890625 13.375 
Q 12.890625 10.015625 18.65625 8.296875 
Q 24.421875 6.59375 29.984375 6.59375 
Q 38.421875 6.59375 43.015625 9.90625 
Q 47.609375 13.234375 47.609375 19.390625 
Q 47.609375 24.75 44.3125 27.78125 
Q 41.015625 30.8125 33.5 32.328125 
L 27.484375 33.5 
Q 16.453125 35.6875 11.515625 40.375 
Q 6.59375 45.0625 6.59375 53.421875 
Q 6.59375 63.09375 13.40625 68.65625 
Q 20.21875 74.21875 32.171875 74.21875 
Q 37.3125 74.21875 42.625 73.28125 
Q 47.953125 72.359375 53.515625 70.515625 
z
" id="DejaVuSans-83"/>
        <path d="M 52 44.1875 
Q 55.375 50.25 60.0625 53.125 
Q 64.75 56 71.09375 56 
Q 79.640625 56 84.28125 50.015625 
Q 88.921875 44.046875 88.921875 33.015625 
L 88.921875 0 
L 79.890625 0 
L 79.890625 32.71875 
Q 79.890625 40.578125 77.09375 44.375 
Q 74.3125 48.1875 68.609375 48.1875 
Q 61.625 48.1875 57.5625 43.546875 
Q 53.515625 38.921875 53.515625 30.90625 
L 53.515625 0 
L 44.484375 0 
L 44.484375 32.71875 
Q 44.484375 40.625 41.703125 44.40625 
Q 38.921875 48.1875 33.109375 48.1875 
Q 26.21875 48.1875 22.15625 43.53125 
Q 18.109375 38.875 18.109375 30.90625 
L 18.109375 0 
L 9.078125 0 
L 9.078125 54.6875 
L 18.109375 54.6875 
L 18.109375 46.1875 
Q 21.1875 51.21875 25.484375 53.609375 
Q 29.78125 56 35.6875 56 
Q 41.65625 56 45.828125 52.96875 
Q 50 49.953125 52 44.1875 
z
" id="DejaVuSans-109"/>
       </defs>
       <use xlink:href="#DejaVuSans-83"/>
       <use x="63.476562" xlink:href="#DejaVuSans-101"/>
       <use x="125" xlink:href="#DejaVuSans-112"/>
       <use x="188.476562" xlink:href="#DejaVuSans-116"/>
       <use x="227.685547" xlink:href="#DejaVuSans-101"/>
       <use x="289.208984" xlink:href="#DejaVuSans-109"/>
       <use x="386.621094" xlink:href="#DejaVuSans-98"/>
       <use x="450.097656" xlink:href="#DejaVuSans-101"/>
       <use x="511.621094" xlink:href="#DejaVuSans-114"/>
      </g>
     </g>
    </g>
    <g id="xtick_10">
     <g id="line2d_10">
      <g>
       <use style="stroke:#000000;stroke-width:0.8;" x="393.323438" xlink:href="#m5cf508dd04" y="357.237656"/>
      </g>
     </g>
     <g id="text_10">
      <!-- October -->
      <g transform="translate(389.072258 404.444736)rotate(-70)scale(0.1 -0.1)">
       <defs>
        <path d="M 39.40625 66.21875 
Q 28.65625 66.21875 22.328125 58.203125 
Q 16.015625 50.203125 16.015625 36.375 
Q 16.015625 22.609375 22.328125 14.59375 
Q 28.65625 6.59375 39.40625 6.59375 
Q 50.140625 6.59375 56.421875 14.59375 
Q 62.703125 22.609375 62.703125 36.375 
Q 62.703125 50.203125 56.421875 58.203125 
Q 50.140625 66.21875 39.40625 66.21875 
z
M 39.40625 74.21875 
Q 54.734375 74.21875 63.90625 63.9375 
Q 73.09375 53.65625 73.09375 36.375 
Q 73.09375 19.140625 63.90625 8.859375 
Q 54.734375 -1.421875 39.40625 -1.421875 
Q 24.03125 -1.421875 14.8125 8.828125 
Q 5.609375 19.09375 5.609375 36.375 
Q 5.609375 53.65625 14.8125 63.9375 
Q 24.03125 74.21875 39.40625 74.21875 
z
" id="DejaVuSans-79"/>
        <path d="M 30.609375 48.390625 
Q 23.390625 48.390625 19.1875 42.75 
Q 14.984375 37.109375 14.984375 27.296875 
Q 14.984375 17.484375 19.15625 11.84375 
Q 23.34375 6.203125 30.609375 6.203125 
Q 37.796875 6.203125 41.984375 11.859375 
Q 46.1875 17.53125 46.1875 27.296875 
Q 46.1875 37.015625 41.984375 42.703125 
Q 37.796875 48.390625 30.609375 48.390625 
z
M 30.609375 56 
Q 42.328125 56 49.015625 48.375 
Q 55.71875 40.765625 55.71875 27.296875 
Q 55.71875 13.875 49.015625 6.21875 
Q 42.328125 -1.421875 30.609375 -1.421875 
Q 18.84375 -1.421875 12.171875 6.21875 
Q 5.515625 13.875 5.515625 27.296875 
Q 5.515625 40.765625 12.171875 48.375 
Q 18.84375 56 30.609375 56 
z
" id="DejaVuSans-111"/>
       </defs>
       <use xlink:href="#DejaVuSans-79"/>
       <use x="78.710938" xlink:href="#DejaVuSans-99"/>
       <use x="133.691406" xlink:href="#DejaVuSans-116"/>
       <use x="172.900391" xlink:href="#DejaVuSans-111"/>
       <use x="234.082031" xlink:href="#DejaVuSans-98"/>
       <use x="297.558594" xlink:href="#DejaVuSans-101"/>
       <use x="359.082031" xlink:href="#DejaVuSans-114"/>
      </g>
     </g>
    </g>
    <g id="xtick_11">
     <g id="line2d_11">
      <g>
       <use style="stroke:#000000;stroke-width:0.8;" x="427.661899" xlink:href="#m5cf508dd04" y="357.237656"/>
      </g>
     </g>
     <g id="text_11">
      <!-- November -->
      <g transform="translate(421.358064 415.723984)rotate(-70)scale(0.1 -0.1)">
       <defs>
        <path d="M 9.8125 72.90625 
L 23.09375 72.90625 
L 55.421875 11.921875 
L 55.421875 72.90625 
L 64.984375 72.90625 
L 64.984375 0 
L 51.703125 0 
L 19.390625 60.984375 
L 19.390625 0 
L 9.8125 0 
z
" id="DejaVuSans-78"/>
        <path d="M 2.984375 54.6875 
L 12.5 54.6875 
L 29.59375 8.796875 
L 46.6875 54.6875 
L 56.203125 54.6875 
L 35.6875 0 
L 23.484375 0 
z
" id="DejaVuSans-118"/>
       </defs>
       <use xlink:href="#DejaVuSans-78"/>
       <use x="74.804688" xlink:href="#DejaVuSans-111"/>
       <use x="135.986328" xlink:href="#DejaVuSans-118"/>
       <use x="195.166016" xlink:href="#DejaVuSans-101"/>
       <use x="256.689453" xlink:href="#DejaVuSans-109"/>
       <use x="354.101562" xlink:href="#DejaVuSans-98"/>
       <use x="417.578125" xlink:href="#DejaVuSans-101"/>
       <use x="479.101562" xlink:href="#DejaVuSans-114"/>
      </g>
     </g>
    </g>
    <g id="xtick_12">
     <g id="line2d_12">
      <g>
       <use style="stroke:#000000;stroke-width:0.8;" x="470.584976" xlink:href="#m5cf508dd04" y="357.237656"/>
      </g>
     </g>
     <g id="text_12">
      <!-- December -->
      <g transform="translate(464.309732 415.566879)rotate(-70)scale(0.1 -0.1)">
       <defs>
        <path d="M 19.671875 64.796875 
L 19.671875 8.109375 
L 31.59375 8.109375 
Q 46.6875 8.109375 53.6875 14.9375 
Q 60.6875 21.78125 60.6875 36.53125 
Q 60.6875 51.171875 53.6875 57.984375 
Q 46.6875 64.796875 31.59375 64.796875 
z
M 9.8125 72.90625 
L 30.078125 72.90625 
Q 51.265625 72.90625 61.171875 64.09375 
Q 71.09375 55.28125 71.09375 36.53125 
Q 71.09375 17.671875 61.125 8.828125 
Q 51.171875 0 30.078125 0 
L 9.8125 0 
z
" id="DejaVuSans-68"/>
       </defs>
       <use xlink:href="#DejaVuSans-68"/>
       <use x="77.001953" xlink:href="#DejaVuSans-101"/>
       <use x="138.525391" xlink:href="#DejaVuSans-99"/>
       <use x="193.505859" xlink:href="#DejaVuSans-101"/>
       <use x="255.029297" xlink:href="#DejaVuSans-109"/>
       <use x="352.441406" xlink:href="#DejaVuSans-98"/>
       <use x="415.917969" xlink:href="#DejaVuSans-101"/>
       <use x="477.441406" xlink:href="#DejaVuSans-114"/>
      </g>
     </g>
    </g>
    <g id="text_13">
     <!-- Date -->
     <g transform="translate(269.772656 431.089185)scale(0.1 -0.1)">
      <use xlink:href="#DejaVuSans-68"/>
      <use x="77.001953" xlink:href="#DejaVuSans-97"/>
      <use x="138.28125" xlink:href="#DejaVuSans-116"/>
      <use x="177.490234" xlink:href="#DejaVuSans-101"/>
     </g>
    </g>
   </g>
   <g id="matplotlib.axis_2">
    <g id="ytick_1">
     <g id="line2d_13">
      <defs>
       <path d="M 0 0 
L -3.5 0 
" id="mfb7d0170f9" style="stroke:#000000;stroke-width:0.8;"/>
      </defs>
      <g>
       <use style="stroke:#000000;stroke-width:0.8;" x="58.523438" xlink:href="#mfb7d0170f9" y="334.368303"/>
      </g>
     </g>
     <g id="text_14">
      <!-- 0.10 -->
      <g transform="translate(20.878125 338.167522)scale(0.1 -0.1)">
       <defs>
        <path d="M 10.59375 35.5 
L 73.1875 35.5 
L 73.1875 27.203125 
L 10.59375 27.203125 
z
" id="DejaVuSans-8722"/>
        <path d="M 31.78125 66.40625 
Q 24.171875 66.40625 20.328125 58.90625 
Q 16.5 51.421875 16.5 36.375 
Q 16.5 21.390625 20.328125 13.890625 
Q 24.171875 6.390625 31.78125 6.390625 
Q 39.453125 6.390625 43.28125 13.890625 
Q 47.125 21.390625 47.125 36.375 
Q 47.125 51.421875 43.28125 58.90625 
Q 39.453125 66.40625 31.78125 66.40625 
z
M 31.78125 74.21875 
Q 44.046875 74.21875 50.515625 64.515625 
Q 56.984375 54.828125 56.984375 36.375 
Q 56.984375 17.96875 50.515625 8.265625 
Q 44.046875 -1.421875 31.78125 -1.421875 
Q 19.53125 -1.421875 13.0625 8.265625 
Q 6.59375 17.96875 6.59375 36.375 
Q 6.59375 54.828125 13.0625 64.515625 
Q 19.53125 74.21875 31.78125 74.21875 
z
" id="DejaVuSans-48"/>
        <path d="M 10.6875 12.40625 
L 21 12.40625 
L 21 0 
L 10.6875 0 
z
" id="DejaVuSans-46"/>
        <path d="M 12.40625 8.296875 
L 28.515625 8.296875 
L 28.515625 63.921875 
L 10.984375 60.40625 
L 10.984375 69.390625 
L 28.421875 72.90625 
L 38.28125 72.90625 
L 38.28125 8.296875 
L 54.390625 8.296875 
L 54.390625 0 
L 12.40625 0 
z
" id="DejaVuSans-49"/>
       </defs>
       <use xlink:href="#DejaVuSans-8722"/>
       <use x="83.789062" xlink:href="#DejaVuSans-48"/>
       <use x="147.412109" xlink:href="#DejaVuSans-46"/>
       <use x="179.199219" xlink:href="#DejaVuSans-49"/>
       <use x="242.822266" xlink:href="#DejaVuSans-48"/>
      </g>
     </g>
    </g>
    <g id="ytick_2">
     <g id="line2d_14">
      <g>
       <use style="stroke:#000000;stroke-width:0.8;" x="58.523438" xlink:href="#mfb7d0170f9" y="284.701133"/>
      </g>
     </g>
     <g id="text_15">
      <!-- 0.05 -->
      <g transform="translate(20.878125 288.500352)scale(0.1 -0.1)">
       <defs>
        <path d="M 10.796875 72.90625 
L 49.515625 72.90625 
L 49.515625 64.59375 
L 19.828125 64.59375 
L 19.828125 46.734375 
Q 21.96875 47.46875 24.109375 47.828125 
Q 26.265625 48.1875 28.421875 48.1875 
Q 40.625 48.1875 47.75 41.5 
Q 54.890625 34.8125 54.890625 23.390625 
Q 54.890625 11.625 47.5625 5.09375 
Q 40.234375 -1.421875 26.90625 -1.421875 
Q 22.3125 -1.421875 17.546875 -0.640625 
Q 12.796875 0.140625 7.71875 1.703125 
L 7.71875 11.625 
Q 12.109375 9.234375 16.796875 8.0625 
Q 21.484375 6.890625 26.703125 6.890625 
Q 35.15625 6.890625 40.078125 11.328125 
Q 45.015625 15.765625 45.015625 23.390625 
Q 45.015625 31 40.078125 35.4375 
Q 35.15625 39.890625 26.703125 39.890625 
Q 22.75 39.890625 18.8125 39.015625 
Q 14.890625 38.140625 10.796875 36.28125 
z
" id="DejaVuSans-53"/>
       </defs>
       <use xlink:href="#DejaVuSans-8722"/>
       <use x="83.789062" xlink:href="#DejaVuSans-48"/>
       <use x="147.412109" xlink:href="#DejaVuSans-46"/>
       <use x="179.199219" xlink:href="#DejaVuSans-48"/>
       <use x="242.822266" xlink:href="#DejaVuSans-53"/>
      </g>
     </g>
    </g>
    <g id="ytick_3">
     <g id="line2d_15">
      <g>
       <use style="stroke:#000000;stroke-width:0.8;" x="58.523438" xlink:href="#mfb7d0170f9" y="235.033963"/>
      </g>
     </g>
     <g id="text_16">
      <!-- 0.00 -->
      <g transform="translate(29.257813 238.833182)scale(0.1 -0.1)">
       <use xlink:href="#DejaVuSans-48"/>
       <use x="63.623047" xlink:href="#DejaVuSans-46"/>
       <use x="95.410156" xlink:href="#DejaVuSans-48"/>
       <use x="159.033203" xlink:href="#DejaVuSans-48"/>
      </g>
     </g>
    </g>
    <g id="ytick_4">
     <g id="line2d_16">
      <g>
       <use style="stroke:#000000;stroke-width:0.8;" x="58.523438" xlink:href="#mfb7d0170f9" y="185.366794"/>
      </g>
     </g>
     <g id="text_17">
      <!-- 0.05 -->
      <g transform="translate(29.257813 189.166012)scale(0.1 -0.1)">
       <use xlink:href="#DejaVuSans-48"/>
       <use x="63.623047" xlink:href="#DejaVuSans-46"/>
       <use x="95.410156" xlink:href="#DejaVuSans-48"/>
       <use x="159.033203" xlink:href="#DejaVuSans-53"/>
      </g>
     </g>
    </g>
    <g id="ytick_5">
     <g id="line2d_17">
      <g>
       <use style="stroke:#000000;stroke-width:0.8;" x="58.523438" xlink:href="#mfb7d0170f9" y="135.699624"/>
      </g>
     </g>
     <g id="text_18">
      <!-- 0.10 -->
      <g transform="translate(29.257813 139.498842)scale(0.1 -0.1)">
       <use xlink:href="#DejaVuSans-48"/>
       <use x="63.623047" xlink:href="#DejaVuSans-46"/>
       <use x="95.410156" xlink:href="#DejaVuSans-49"/>
       <use x="159.033203" xlink:href="#DejaVuSans-48"/>
      </g>
     </g>
    </g>
    <g id="ytick_6">
     <g id="line2d_18">
      <g>
       <use style="stroke:#000000;stroke-width:0.8;" x="58.523438" xlink:href="#mfb7d0170f9" y="86.032454"/>
      </g>
     </g>
     <g id="text_19">
      <!-- 0.15 -->
      <g transform="translate(29.257813 89.831673)scale(0.1 -0.1)">
       <use xlink:href="#DejaVuSans-48"/>
       <use x="63.623047" xlink:href="#DejaVuSans-46"/>
       <use x="95.410156" xlink:href="#DejaVuSans-49"/>
       <use x="159.033203" xlink:href="#DejaVuSans-53"/>
      </g>
     </g>
    </g>
    <g id="ytick_7">
     <g id="line2d_19">
      <g>
       <use style="stroke:#000000;stroke-width:0.8;" x="58.523438" xlink:href="#mfb7d0170f9" y="36.365284"/>
      </g>
     </g>
     <g id="text_20">
      <!-- 0.20 -->
      <g transform="translate(29.257813 40.164503)scale(0.1 -0.1)">
       <defs>
        <path d="M 19.1875 8.296875 
L 53.609375 8.296875 
L 53.609375 0 
L 7.328125 0 
L 7.328125 8.296875 
Q 12.9375 14.109375 22.625 23.890625 
Q 32.328125 33.6875 34.8125 36.53125 
Q 39.546875 41.84375 41.421875 45.53125 
Q 43.3125 49.21875 43.3125 52.78125 
Q 43.3125 58.59375 39.234375 62.25 
Q 35.15625 65.921875 28.609375 65.921875 
Q 23.96875 65.921875 18.8125 64.3125 
Q 13.671875 62.703125 7.8125 59.421875 
L 7.8125 69.390625 
Q 13.765625 71.78125 18.9375 73 
Q 24.125 74.21875 28.421875 74.21875 
Q 39.75 74.21875 46.484375 68.546875 
Q 53.21875 62.890625 53.21875 53.421875 
Q 53.21875 48.921875 51.53125 44.890625 
Q 49.859375 40.875 45.40625 35.40625 
Q 44.1875 33.984375 37.640625 27.21875 
Q 31.109375 20.453125 19.1875 8.296875 
z
" id="DejaVuSans-50"/>
       </defs>
       <use xlink:href="#DejaVuSans-48"/>
       <use x="63.623047" xlink:href="#DejaVuSans-46"/>
       <use x="95.410156" xlink:href="#DejaVuSans-50"/>
       <use x="159.033203" xlink:href="#DejaVuSans-48"/>
      </g>
     </g>
    </g>
    <g id="text_21">
     <!-- GW -->
     <g transform="translate(14.798438 199.735625)rotate(-90)scale(0.1 -0.1)">
      <defs>
       <path d="M 59.515625 10.40625 
L 59.515625 29.984375 
L 43.40625 29.984375 
L 43.40625 38.09375 
L 69.28125 38.09375 
L 69.28125 6.78125 
Q 63.578125 2.734375 56.6875 0.65625 
Q 49.8125 -1.421875 42 -1.421875 
Q 24.90625 -1.421875 15.25 8.5625 
Q 5.609375 18.5625 5.609375 36.375 
Q 5.609375 54.25 15.25 64.234375 
Q 24.90625 74.21875 42 74.21875 
Q 49.125 74.21875 55.546875 72.453125 
Q 61.96875 70.703125 67.390625 67.28125 
L 67.390625 56.78125 
Q 61.921875 61.421875 55.765625 63.765625 
Q 49.609375 66.109375 42.828125 66.109375 
Q 29.4375 66.109375 22.71875 58.640625 
Q 16.015625 51.171875 16.015625 36.375 
Q 16.015625 21.625 22.71875 14.15625 
Q 29.4375 6.6875 42.828125 6.6875 
Q 48.046875 6.6875 52.140625 7.59375 
Q 56.25 8.5 59.515625 10.40625 
z
" id="DejaVuSans-71"/>
       <path d="M 3.328125 72.90625 
L 13.28125 72.90625 
L 28.609375 11.28125 
L 43.890625 72.90625 
L 54.984375 72.90625 
L 70.3125 11.28125 
L 85.59375 72.90625 
L 95.609375 72.90625 
L 77.296875 0 
L 64.890625 0 
L 49.515625 63.28125 
L 33.984375 0 
L 21.578125 0 
z
" id="DejaVuSans-87"/>
      </defs>
      <use xlink:href="#DejaVuSans-71"/>
      <use x="77.490234" xlink:href="#DejaVuSans-87"/>
     </g>
    </g>
   </g>
   <g id="line2d_20">
    <path clip-path="url(#p8c69a6ebef)" d="M 58.523438 146.762251 
L 67.108053 139.977487 
L 75.692668 140.7763 
L 84.277284 139.100973 
L 92.861899 141.123834 
L 101.446514 141.752012 
L 110.03113 141.827033 
L 118.615745 149.687554 
L 127.200361 149.744045 
L 135.784976 152.661051 
L 144.369591 148.233985 
L 152.954207 148.001519 
L 161.538822 148.799488 
L 170.123438 152.643419 
L 178.708053 153.729362 
L 187.292668 152.732335 
L 195.877284 150.411246 
L 204.461899 148.509346 
L 213.046514 148.367021 
L 221.63113 147.653866 
L 230.215745 145.35347 
L 238.800361 146.812833 
L 247.384976 148.376439 
L 255.969591 150.544313 
L 264.554207 155.01487 
L 273.138822 152.776687 
L 281.723438 148.424654 
L 290.308053 142.110538 
L 298.892668 143.047485 
L 307.477284 140.591633 
L 316.061899 142.91728 
L 324.646514 144.192473 
L 333.23113 143.940702 
L 341.815745 146.06544 
L 350.400361 146.362497 
L 358.984976 145.403785 
L 367.569591 136.541689 
L 376.154207 147.910321 
L 384.738822 146.395691 
L 393.323438 150.574852 
L 401.908053 148.611113 
L 410.492668 146.183364 
L 419.077284 140.928205 
L 427.661899 156.130646 
L 436.246514 137.209311 
L 444.83113 130.9638 
L 453.415745 133.381054 
L 462.000361 133.316102 
L 470.584976 132.565853 
L 479.169591 131.217623 
L 487.754207 133.169998 
L 496.338822 136.629423 
L 504.923438 128.026812 
" style="fill:none;stroke:#000000;stroke-linecap:square;stroke-opacity:0.5;"/>
   </g>
   <g id="patch_3">
    <path d="M 58.523438 357.237656 
L 58.523438 24.597656 
" style="fill:none;stroke:#000000;stroke-linecap:square;stroke-linejoin:miter;stroke-width:0.8;"/>
   </g>
   <g id="patch_4">
    <path d="M 504.923437 357.237656 
L 504.923437 24.597656 
" style="fill:none;stroke:#000000;stroke-linecap:square;stroke-linejoin:miter;stroke-width:0.8;"/>
   </g>
   <g id="patch_5">
    <path d="M 58.523438 357.237656 
L 504.923438 357.237656 
" style="fill:none;stroke:#000000;stroke-linecap:square;stroke-linejoin:miter;stroke-width:0.8;"/>
   </g>
   <g id="patch_6">
    <path d="M 58.523438 24.597656 
L 504.923438 24.597656 
" style="fill:none;stroke:#000000;stroke-linecap:square;stroke-linejoin:miter;stroke-width:0.8;"/>
   </g>
   <g id="text_22">
    <!-- Mont Kenya Region Dispatch -->
    <g transform="translate(174.256641 18.597656)scale(0.15 -0.15)">
     <defs>
      <path id="DejaVuSans-32"/>
      <path d="M 9.8125 72.90625 
L 19.671875 72.90625 
L 19.671875 42.09375 
L 52.390625 72.90625 
L 65.09375 72.90625 
L 28.90625 38.921875 
L 67.671875 0 
L 54.6875 0 
L 19.671875 35.109375 
L 19.671875 0 
L 9.8125 0 
z
" id="DejaVuSans-75"/>
      <path d="M 44.390625 34.1875 
Q 47.5625 33.109375 50.5625 29.59375 
Q 53.5625 26.078125 56.59375 19.921875 
L 66.609375 0 
L 56 0 
L 46.6875 18.703125 
Q 43.0625 26.03125 39.671875 28.421875 
Q 36.28125 30.8125 30.421875 30.8125 
L 19.671875 30.8125 
L 19.671875 0 
L 9.8125 0 
L 9.8125 72.90625 
L 32.078125 72.90625 
Q 44.578125 72.90625 50.734375 67.671875 
Q 56.890625 62.453125 56.890625 51.90625 
Q 56.890625 45.015625 53.6875 40.46875 
Q 50.484375 35.9375 44.390625 34.1875 
z
M 19.671875 64.796875 
L 19.671875 38.921875 
L 32.078125 38.921875 
Q 39.203125 38.921875 42.84375 42.21875 
Q 46.484375 45.515625 46.484375 51.90625 
Q 46.484375 58.296875 42.84375 61.546875 
Q 39.203125 64.796875 32.078125 64.796875 
z
" id="DejaVuSans-82"/>
     </defs>
     <use xlink:href="#DejaVuSans-77"/>
     <use x="86.279297" xlink:href="#DejaVuSans-111"/>
     <use x="147.460938" xlink:href="#DejaVuSans-110"/>
     <use x="210.839844" xlink:href="#DejaVuSans-116"/>
     <use x="250.048828" xlink:href="#DejaVuSans-32"/>
     <use x="281.835938" xlink:href="#DejaVuSans-75"/>
     <use x="342.412109" xlink:href="#DejaVuSans-101"/>
     <use x="403.935547" xlink:href="#DejaVuSans-110"/>
     <use x="467.314453" xlink:href="#DejaVuSans-121"/>
     <use x="526.494141" xlink:href="#DejaVuSans-97"/>
     <use x="587.773438" xlink:href="#DejaVuSans-32"/>
     <use x="619.560547" xlink:href="#DejaVuSans-82"/>
     <use x="684.542969" xlink:href="#DejaVuSans-101"/>
     <use x="746.066406" xlink:href="#DejaVuSans-103"/>
     <use x="809.542969" xlink:href="#DejaVuSans-105"/>
     <use x="837.326172" xlink:href="#DejaVuSans-111"/>
     <use x="898.507812" xlink:href="#DejaVuSans-110"/>
     <use x="961.886719" xlink:href="#DejaVuSans-32"/>
     <use x="993.673828" xlink:href="#DejaVuSans-68"/>
     <use x="1070.675781" xlink:href="#DejaVuSans-105"/>
     <use x="1098.458984" xlink:href="#DejaVuSans-115"/>
     <use x="1150.558594" xlink:href="#DejaVuSans-112"/>
     <use x="1214.035156" xlink:href="#DejaVuSans-97"/>
     <use x="1275.314453" xlink:href="#DejaVuSans-116"/>
     <use x="1314.523438" xlink:href="#DejaVuSans-99"/>
     <use x="1369.503906" xlink:href="#DejaVuSans-104"/>
    </g>
   </g>
   <g id="legend_1">
    <g id="patch_7">
     <path d="M 529.243438 233.091406 
L 670.529375 233.091406 
Q 672.529375 233.091406 672.529375 231.091406 
L 672.529375 26.597656 
Q 672.529375 24.597656 670.529375 24.597656 
L 529.243438 24.597656 
Q 527.243438 24.597656 527.243438 26.597656 
L 527.243438 231.091406 
Q 527.243438 233.091406 529.243438 233.091406 
z
" style="fill:#ffffff;opacity:0.8;stroke:#cccccc;stroke-linejoin:miter;"/>
    </g>
    <g id="line2d_21">
     <path d="M 531.243438 32.696094 
L 551.243438 32.696094 
" style="fill:none;stroke:#000000;stroke-linecap:square;stroke-opacity:0.5;"/>
    </g>
    <g id="line2d_22"/>
    <g id="text_23">
     <!-- Demand -->
     <g transform="translate(559.243438 36.196094)scale(0.1 -0.1)">
      <defs>
       <path d="M 45.40625 46.390625 
L 45.40625 75.984375 
L 54.390625 75.984375 
L 54.390625 0 
L 45.40625 0 
L 45.40625 8.203125 
Q 42.578125 3.328125 38.25 0.953125 
Q 33.9375 -1.421875 27.875 -1.421875 
Q 17.96875 -1.421875 11.734375 6.484375 
Q 5.515625 14.40625 5.515625 27.296875 
Q 5.515625 40.1875 11.734375 48.09375 
Q 17.96875 56 27.875 56 
Q 33.9375 56 38.25 53.625 
Q 42.578125 51.265625 45.40625 46.390625 
z
M 14.796875 27.296875 
Q 14.796875 17.390625 18.875 11.75 
Q 22.953125 6.109375 30.078125 6.109375 
Q 37.203125 6.109375 41.296875 11.75 
Q 45.40625 17.390625 45.40625 27.296875 
Q 45.40625 37.203125 41.296875 42.84375 
Q 37.203125 48.484375 30.078125 48.484375 
Q 22.953125 48.484375 18.875 42.84375 
Q 14.796875 37.203125 14.796875 27.296875 
z
" id="DejaVuSans-100"/>
      </defs>
      <use xlink:href="#DejaVuSans-68"/>
      <use x="77.001953" xlink:href="#DejaVuSans-101"/>
      <use x="138.525391" xlink:href="#DejaVuSans-109"/>
      <use x="235.9375" xlink:href="#DejaVuSans-97"/>
      <use x="297.216797" xlink:href="#DejaVuSans-110"/>
      <use x="360.595703" xlink:href="#DejaVuSans-100"/>
     </g>
    </g>
    <g id="patch_8">
     <path d="M 531.243438 50.874219 
L 551.243438 50.874219 
L 551.243438 43.874219 
L 531.243438 43.874219 
z
" style="fill:#ffb30f;"/>
    </g>
    <g id="text_24">
     <!-- Geothermal -->
     <g transform="translate(559.243438 50.874219)scale(0.1 -0.1)">
      <use xlink:href="#DejaVuSans-71"/>
      <use x="77.490234" xlink:href="#DejaVuSans-101"/>
      <use x="139.013672" xlink:href="#DejaVuSans-111"/>
      <use x="200.195312" xlink:href="#DejaVuSans-116"/>
      <use x="239.404297" xlink:href="#DejaVuSans-104"/>
      <use x="302.783203" xlink:href="#DejaVuSans-101"/>
      <use x="364.306641" xlink:href="#DejaVuSans-114"/>
      <use x="403.669922" xlink:href="#DejaVuSans-109"/>
      <use x="501.082031" xlink:href="#DejaVuSans-97"/>
      <use x="562.361328" xlink:href="#DejaVuSans-108"/>
     </g>
    </g>
    <g id="patch_9">
     <path d="M 531.243438 65.552344 
L 551.243438 65.552344 
L 551.243438 58.552344 
L 531.243438 58.552344 
z
" style="fill:#2980b9;"/>
    </g>
    <g id="text_25">
     <!-- Large Hydro -->
     <g transform="translate(559.243438 65.552344)scale(0.1 -0.1)">
      <defs>
       <path d="M 9.8125 72.90625 
L 19.671875 72.90625 
L 19.671875 8.296875 
L 55.171875 8.296875 
L 55.171875 0 
L 9.8125 0 
z
" id="DejaVuSans-76"/>
       <path d="M 9.8125 72.90625 
L 19.671875 72.90625 
L 19.671875 43.015625 
L 55.515625 43.015625 
L 55.515625 72.90625 
L 65.375 72.90625 
L 65.375 0 
L 55.515625 0 
L 55.515625 34.71875 
L 19.671875 34.71875 
L 19.671875 0 
L 9.8125 0 
z
" id="DejaVuSans-72"/>
      </defs>
      <use xlink:href="#DejaVuSans-76"/>
      <use x="55.712891" xlink:href="#DejaVuSans-97"/>
      <use x="116.992188" xlink:href="#DejaVuSans-114"/>
      <use x="156.355469" xlink:href="#DejaVuSans-103"/>
      <use x="219.832031" xlink:href="#DejaVuSans-101"/>
      <use x="281.355469" xlink:href="#DejaVuSans-32"/>
      <use x="313.142578" xlink:href="#DejaVuSans-72"/>
      <use x="388.337891" xlink:href="#DejaVuSans-121"/>
      <use x="447.517578" xlink:href="#DejaVuSans-100"/>
      <use x="510.994141" xlink:href="#DejaVuSans-114"/>
      <use x="549.857422" xlink:href="#DejaVuSans-111"/>
     </g>
    </g>
    <g id="patch_10">
     <path d="M 531.243438 80.230469 
L 551.243438 80.230469 
L 551.243438 73.230469 
L 531.243438 73.230469 
z
" style="fill:#3498db;"/>
    </g>
    <g id="text_26">
     <!-- Small Hydro -->
     <g transform="translate(559.243438 80.230469)scale(0.1 -0.1)">
      <use xlink:href="#DejaVuSans-83"/>
      <use x="63.476562" xlink:href="#DejaVuSans-109"/>
      <use x="160.888672" xlink:href="#DejaVuSans-97"/>
      <use x="222.167969" xlink:href="#DejaVuSans-108"/>
      <use x="249.951172" xlink:href="#DejaVuSans-108"/>
      <use x="277.734375" xlink:href="#DejaVuSans-32"/>
      <use x="309.521484" xlink:href="#DejaVuSans-72"/>
      <use x="384.716797" xlink:href="#DejaVuSans-121"/>
      <use x="443.896484" xlink:href="#DejaVuSans-100"/>
      <use x="507.373047" xlink:href="#DejaVuSans-114"/>
      <use x="546.236328" xlink:href="#DejaVuSans-111"/>
     </g>
    </g>
    <g id="patch_11">
     <path d="M 531.243438 94.908594 
L 551.243438 94.908594 
L 551.243438 87.908594 
L 531.243438 87.908594 
z
" style="fill:#28b463;"/>
    </g>
    <g id="text_27">
     <!-- Onshore Wind -->
     <g transform="translate(559.243438 94.908594)scale(0.1 -0.1)">
      <use xlink:href="#DejaVuSans-79"/>
      <use x="78.710938" xlink:href="#DejaVuSans-110"/>
      <use x="142.089844" xlink:href="#DejaVuSans-115"/>
      <use x="194.189453" xlink:href="#DejaVuSans-104"/>
      <use x="257.568359" xlink:href="#DejaVuSans-111"/>
      <use x="318.75" xlink:href="#DejaVuSans-114"/>
      <use x="357.613281" xlink:href="#DejaVuSans-101"/>
      <use x="419.136719" xlink:href="#DejaVuSans-32"/>
      <use x="450.923828" xlink:href="#DejaVuSans-87"/>
      <use x="547.550781" xlink:href="#DejaVuSans-105"/>
      <use x="575.333984" xlink:href="#DejaVuSans-110"/>
      <use x="638.712891" xlink:href="#DejaVuSans-100"/>
     </g>
    </g>
    <g id="patch_12">
     <path d="M 531.243438 109.586719 
L 551.243438 109.586719 
L 551.243438 102.586719 
L 531.243438 102.586719 
z
" style="fill:#494949;"/>
    </g>
    <g id="text_28">
     <!-- Heavy Fuel Oil -->
     <g transform="translate(559.243438 109.586719)scale(0.1 -0.1)">
      <use xlink:href="#DejaVuSans-72"/>
      <use x="75.195312" xlink:href="#DejaVuSans-101"/>
      <use x="136.71875" xlink:href="#DejaVuSans-97"/>
      <use x="197.998047" xlink:href="#DejaVuSans-118"/>
      <use x="257.177734" xlink:href="#DejaVuSans-121"/>
      <use x="316.357422" xlink:href="#DejaVuSans-32"/>
      <use x="348.144531" xlink:href="#DejaVuSans-70"/>
      <use x="400.164062" xlink:href="#DejaVuSans-117"/>
      <use x="463.542969" xlink:href="#DejaVuSans-101"/>
      <use x="525.066406" xlink:href="#DejaVuSans-108"/>
      <use x="552.849609" xlink:href="#DejaVuSans-32"/>
      <use x="584.636719" xlink:href="#DejaVuSans-79"/>
      <use x="663.347656" xlink:href="#DejaVuSans-105"/>
      <use x="691.130859" xlink:href="#DejaVuSans-108"/>
     </g>
    </g>
    <g id="patch_13">
     <path d="M 531.243438 124.264844 
L 551.243438 124.264844 
L 551.243438 117.264844 
L 531.243438 117.264844 
z
" style="fill:#7c7c7c;"/>
    </g>
    <g id="text_29">
     <!-- Gas Turbine -->
     <g transform="translate(559.243438 124.264844)scale(0.1 -0.1)">
      <defs>
       <path d="M -0.296875 72.90625 
L 61.375 72.90625 
L 61.375 64.59375 
L 35.5 64.59375 
L 35.5 0 
L 25.59375 0 
L 25.59375 64.59375 
L -0.296875 64.59375 
z
" id="DejaVuSans-84"/>
      </defs>
      <use xlink:href="#DejaVuSans-71"/>
      <use x="77.490234" xlink:href="#DejaVuSans-97"/>
      <use x="138.769531" xlink:href="#DejaVuSans-115"/>
      <use x="190.869141" xlink:href="#DejaVuSans-32"/>
      <use x="222.65625" xlink:href="#DejaVuSans-84"/>
      <use x="268.615234" xlink:href="#DejaVuSans-117"/>
      <use x="331.994141" xlink:href="#DejaVuSans-114"/>
      <use x="373.107422" xlink:href="#DejaVuSans-98"/>
      <use x="436.583984" xlink:href="#DejaVuSans-105"/>
      <use x="464.367188" xlink:href="#DejaVuSans-110"/>
      <use x="527.746094" xlink:href="#DejaVuSans-101"/>
     </g>
    </g>
    <g id="patch_14">
     <path d="M 531.243438 138.942969 
L 551.243438 138.942969 
L 551.243438 131.942969 
L 531.243438 131.942969 
z
" style="fill:#ba4a00;"/>
    </g>
    <g id="text_30">
     <!-- Biomass -->
     <g transform="translate(559.243438 138.942969)scale(0.1 -0.1)">
      <defs>
       <path d="M 19.671875 34.8125 
L 19.671875 8.109375 
L 35.5 8.109375 
Q 43.453125 8.109375 47.28125 11.40625 
Q 51.125 14.703125 51.125 21.484375 
Q 51.125 28.328125 47.28125 31.5625 
Q 43.453125 34.8125 35.5 34.8125 
z
M 19.671875 64.796875 
L 19.671875 42.828125 
L 34.28125 42.828125 
Q 41.5 42.828125 45.03125 45.53125 
Q 48.578125 48.25 48.578125 53.8125 
Q 48.578125 59.328125 45.03125 62.0625 
Q 41.5 64.796875 34.28125 64.796875 
z
M 9.8125 72.90625 
L 35.015625 72.90625 
Q 46.296875 72.90625 52.390625 68.21875 
Q 58.5 63.53125 58.5 54.890625 
Q 58.5 48.1875 55.375 44.234375 
Q 52.25 40.28125 46.1875 39.3125 
Q 53.46875 37.75 57.5 32.78125 
Q 61.53125 27.828125 61.53125 20.40625 
Q 61.53125 10.640625 54.890625 5.3125 
Q 48.25 0 35.984375 0 
L 9.8125 0 
z
" id="DejaVuSans-66"/>
      </defs>
      <use xlink:href="#DejaVuSans-66"/>
      <use x="68.603516" xlink:href="#DejaVuSans-105"/>
      <use x="96.386719" xlink:href="#DejaVuSans-111"/>
      <use x="157.568359" xlink:href="#DejaVuSans-109"/>
      <use x="254.980469" xlink:href="#DejaVuSans-97"/>
      <use x="316.259766" xlink:href="#DejaVuSans-115"/>
      <use x="368.359375" xlink:href="#DejaVuSans-115"/>
     </g>
    </g>
    <g id="patch_15">
     <path d="M 531.243438 153.621094 
L 551.243438 153.621094 
L 551.243438 146.621094 
L 531.243438 146.621094 
z
" style="fill:#75ee6b;"/>
    </g>
    <g id="text_31">
     <!-- Exchange From WSTR -->
     <g transform="translate(559.243438 153.621094)scale(0.1 -0.1)">
      <defs>
       <path d="M 9.8125 72.90625 
L 55.90625 72.90625 
L 55.90625 64.59375 
L 19.671875 64.59375 
L 19.671875 43.015625 
L 54.390625 43.015625 
L 54.390625 34.71875 
L 19.671875 34.71875 
L 19.671875 8.296875 
L 56.78125 8.296875 
L 56.78125 0 
L 9.8125 0 
z
" id="DejaVuSans-69"/>
       <path d="M 54.890625 54.6875 
L 35.109375 28.078125 
L 55.90625 0 
L 45.3125 0 
L 29.390625 21.484375 
L 13.484375 0 
L 2.875 0 
L 24.125 28.609375 
L 4.6875 54.6875 
L 15.28125 54.6875 
L 29.78125 35.203125 
L 44.28125 54.6875 
z
" id="DejaVuSans-120"/>
      </defs>
      <use xlink:href="#DejaVuSans-69"/>
      <use x="63.183594" xlink:href="#DejaVuSans-120"/>
      <use x="120.613281" xlink:href="#DejaVuSans-99"/>
      <use x="175.59375" xlink:href="#DejaVuSans-104"/>
      <use x="238.972656" xlink:href="#DejaVuSans-97"/>
      <use x="300.251953" xlink:href="#DejaVuSans-110"/>
      <use x="363.630859" xlink:href="#DejaVuSans-103"/>
      <use x="427.107422" xlink:href="#DejaVuSans-101"/>
      <use x="488.630859" xlink:href="#DejaVuSans-32"/>
      <use x="520.417969" xlink:href="#DejaVuSans-70"/>
      <use x="570.6875" xlink:href="#DejaVuSans-114"/>
      <use x="609.550781" xlink:href="#DejaVuSans-111"/>
      <use x="670.732422" xlink:href="#DejaVuSans-109"/>
      <use x="768.144531" xlink:href="#DejaVuSans-32"/>
      <use x="799.931641" xlink:href="#DejaVuSans-87"/>
      <use x="898.808594" xlink:href="#DejaVuSans-83"/>
      <use x="962.285156" xlink:href="#DejaVuSans-84"/>
      <use x="1023.369141" xlink:href="#DejaVuSans-82"/>
     </g>
    </g>
    <g id="patch_16">
     <path d="M 531.243438 168.299219 
L 551.243438 168.299219 
L 551.243438 161.299219 
L 531.243438 161.299219 
z
" style="fill:#ed6060;"/>
    </g>
    <g id="text_32">
     <!-- Exchange From NBOR -->
     <g transform="translate(559.243438 168.299219)scale(0.1 -0.1)">
      <use xlink:href="#DejaVuSans-69"/>
      <use x="63.183594" xlink:href="#DejaVuSans-120"/>
      <use x="120.613281" xlink:href="#DejaVuSans-99"/>
      <use x="175.59375" xlink:href="#DejaVuSans-104"/>
      <use x="238.972656" xlink:href="#DejaVuSans-97"/>
      <use x="300.251953" xlink:href="#DejaVuSans-110"/>
      <use x="363.630859" xlink:href="#DejaVuSans-103"/>
      <use x="427.107422" xlink:href="#DejaVuSans-101"/>
      <use x="488.630859" xlink:href="#DejaVuSans-32"/>
      <use x="520.417969" xlink:href="#DejaVuSans-70"/>
      <use x="570.6875" xlink:href="#DejaVuSans-114"/>
      <use x="609.550781" xlink:href="#DejaVuSans-111"/>
      <use x="670.732422" xlink:href="#DejaVuSans-109"/>
      <use x="768.144531" xlink:href="#DejaVuSans-32"/>
      <use x="799.931641" xlink:href="#DejaVuSans-78"/>
      <use x="874.736328" xlink:href="#DejaVuSans-66"/>
      <use x="941.589844" xlink:href="#DejaVuSans-79"/>
      <use x="1020.300781" xlink:href="#DejaVuSans-82"/>
     </g>
    </g>
    <g id="patch_17">
     <path d="M 531.243438 182.977344 
L 551.243438 182.977344 
L 551.243438 175.977344 
L 531.243438 175.977344 
z
" style="fill:#ea6bee;"/>
    </g>
    <g id="text_33">
     <!-- Exchange From CSTR -->
     <g transform="translate(559.243438 182.977344)scale(0.1 -0.1)">
      <defs>
       <path d="M 64.40625 67.28125 
L 64.40625 56.890625 
Q 59.421875 61.53125 53.78125 63.8125 
Q 48.140625 66.109375 41.796875 66.109375 
Q 29.296875 66.109375 22.65625 58.46875 
Q 16.015625 50.828125 16.015625 36.375 
Q 16.015625 21.96875 22.65625 14.328125 
Q 29.296875 6.6875 41.796875 6.6875 
Q 48.140625 6.6875 53.78125 8.984375 
Q 59.421875 11.28125 64.40625 15.921875 
L 64.40625 5.609375 
Q 59.234375 2.09375 53.4375 0.328125 
Q 47.65625 -1.421875 41.21875 -1.421875 
Q 24.65625 -1.421875 15.125 8.703125 
Q 5.609375 18.84375 5.609375 36.375 
Q 5.609375 53.953125 15.125 64.078125 
Q 24.65625 74.21875 41.21875 74.21875 
Q 47.75 74.21875 53.53125 72.484375 
Q 59.328125 70.75 64.40625 67.28125 
z
" id="DejaVuSans-67"/>
      </defs>
      <use xlink:href="#DejaVuSans-69"/>
      <use x="63.183594" xlink:href="#DejaVuSans-120"/>
      <use x="120.613281" xlink:href="#DejaVuSans-99"/>
      <use x="175.59375" xlink:href="#DejaVuSans-104"/>
      <use x="238.972656" xlink:href="#DejaVuSans-97"/>
      <use x="300.251953" xlink:href="#DejaVuSans-110"/>
      <use x="363.630859" xlink:href="#DejaVuSans-103"/>
      <use x="427.107422" xlink:href="#DejaVuSans-101"/>
      <use x="488.630859" xlink:href="#DejaVuSans-32"/>
      <use x="520.417969" xlink:href="#DejaVuSans-70"/>
      <use x="570.6875" xlink:href="#DejaVuSans-114"/>
      <use x="609.550781" xlink:href="#DejaVuSans-111"/>
      <use x="670.732422" xlink:href="#DejaVuSans-109"/>
      <use x="768.144531" xlink:href="#DejaVuSans-32"/>
      <use x="799.931641" xlink:href="#DejaVuSans-67"/>
      <use x="869.755859" xlink:href="#DejaVuSans-83"/>
      <use x="933.232422" xlink:href="#DejaVuSans-84"/>
      <use x="994.316406" xlink:href="#DejaVuSans-82"/>
     </g>
    </g>
    <g id="patch_18">
     <path d="M 531.243438 197.655469 
L 551.243438 197.655469 
L 551.243438 190.655469 
L 531.243438 190.655469 
z
" style="fill:#22eb11;"/>
    </g>
    <g id="text_34">
     <!-- Exchange To WSTR -->
     <g transform="translate(559.243438 197.655469)scale(0.1 -0.1)">
      <use xlink:href="#DejaVuSans-69"/>
      <use x="63.183594" xlink:href="#DejaVuSans-120"/>
      <use x="120.613281" xlink:href="#DejaVuSans-99"/>
      <use x="175.59375" xlink:href="#DejaVuSans-104"/>
      <use x="238.972656" xlink:href="#DejaVuSans-97"/>
      <use x="300.251953" xlink:href="#DejaVuSans-110"/>
      <use x="363.630859" xlink:href="#DejaVuSans-103"/>
      <use x="427.107422" xlink:href="#DejaVuSans-101"/>
      <use x="488.630859" xlink:href="#DejaVuSans-32"/>
      <use x="520.417969" xlink:href="#DejaVuSans-84"/>
      <use x="564.501953" xlink:href="#DejaVuSans-111"/>
      <use x="625.683594" xlink:href="#DejaVuSans-32"/>
      <use x="657.470703" xlink:href="#DejaVuSans-87"/>
      <use x="756.347656" xlink:href="#DejaVuSans-83"/>
      <use x="819.824219" xlink:href="#DejaVuSans-84"/>
      <use x="880.908203" xlink:href="#DejaVuSans-82"/>
     </g>
    </g>
    <g id="patch_19">
     <path d="M 531.243438 212.333594 
L 551.243438 212.333594 
L 551.243438 205.333594 
L 531.243438 205.333594 
z
" style="fill:#ee1111;"/>
    </g>
    <g id="text_35">
     <!-- Exchange To NBOR -->
     <g transform="translate(559.243438 212.333594)scale(0.1 -0.1)">
      <use xlink:href="#DejaVuSans-69"/>
      <use x="63.183594" xlink:href="#DejaVuSans-120"/>
      <use x="120.613281" xlink:href="#DejaVuSans-99"/>
      <use x="175.59375" xlink:href="#DejaVuSans-104"/>
      <use x="238.972656" xlink:href="#DejaVuSans-97"/>
      <use x="300.251953" xlink:href="#DejaVuSans-110"/>
      <use x="363.630859" xlink:href="#DejaVuSans-103"/>
      <use x="427.107422" xlink:href="#DejaVuSans-101"/>
      <use x="488.630859" xlink:href="#DejaVuSans-32"/>
      <use x="520.417969" xlink:href="#DejaVuSans-84"/>
      <use x="564.501953" xlink:href="#DejaVuSans-111"/>
      <use x="625.683594" xlink:href="#DejaVuSans-32"/>
      <use x="657.470703" xlink:href="#DejaVuSans-78"/>
      <use x="732.275391" xlink:href="#DejaVuSans-66"/>
      <use x="799.128906" xlink:href="#DejaVuSans-79"/>
      <use x="877.839844" xlink:href="#DejaVuSans-82"/>
     </g>
    </g>
    <g id="patch_20">
     <path d="M 531.243438 227.011719 
L 551.243438 227.011719 
L 551.243438 220.011719 
L 531.243438 220.011719 
z
" style="fill:#e50eec;"/>
    </g>
    <g id="text_36">
     <!-- Exchange To CSTR -->
     <g transform="translate(559.243438 227.011719)scale(0.1 -0.1)">
      <use xlink:href="#DejaVuSans-69"/>
      <use x="63.183594" xlink:href="#DejaVuSans-120"/>
      <use x="120.613281" xlink:href="#DejaVuSans-99"/>
      <use x="175.59375" xlink:href="#DejaVuSans-104"/>
      <use x="238.972656" xlink:href="#DejaVuSans-97"/>
      <use x="300.251953" xlink:href="#DejaVuSans-110"/>
      <use x="363.630859" xlink:href="#DejaVuSans-103"/>
      <use x="427.107422" xlink:href="#DejaVuSans-101"/>
      <use x="488.630859" xlink:href="#DejaVuSans-32"/>
      <use x="520.417969" xlink:href="#DejaVuSans-84"/>
      <use x="564.501953" xlink:href="#DejaVuSans-111"/>
      <use x="625.683594" xlink:href="#DejaVuSans-32"/>
      <use x="657.470703" xlink:href="#DejaVuSans-67"/>
      <use x="727.294922" xlink:href="#DejaVuSans-83"/>
      <use x="790.771484" xlink:href="#DejaVuSans-84"/>
      <use x="851.855469" xlink:href="#DejaVuSans-82"/>
     </g>
    </g>
   </g>
  </g>
 </g>
 <defs>
  <clipPath id="p8c69a6ebef">
   <rect height="332.64" width="446.4" x="58.523438" y="24.597656"/>
  </clipPath>
 </defs>
</svg>
