<?xml version="1.0" encoding="utf-8" standalone="no"?>
<!DOCTYPE svg PUBLIC "-//W3C//DTD SVG 1.1//EN"
  "http://www.w3.org/Graphics/SVG/1.1/DTD/svg11.dtd">
<!-- Created with matplotlib (https://matplotlib.org/) -->
<svg height="424.050523pt" version="1.1" viewBox="0 0 664.987188 424.050523" width="664.987188pt" xmlns="http://www.w3.org/2000/svg" xmlns:xlink="http://www.w3.org/1999/xlink">
 <defs>
  <style type="text/css">
*{stroke-linecap:butt;stroke-linejoin:round;}
  </style>
 </defs>
 <g id="figure_1">
  <g id="patch_1">
   <path d="M 0 424.050523 
L 664.987188 424.050523 
L 664.987188 0 
L 0 0 
z
" style="fill:#ffffff;"/>
  </g>
  <g id="axes_1">
   <g id="patch_2">
    <path d="M 43.78125 357.237656 
L 490.18125 357.237656 
L 490.18125 24.597656 
L 43.78125 24.597656 
z
" style="fill:#ffffff;"/>
   </g>
   <g id="PolyCollection_1">
    <path clip-path="url(#pdabf56bd0c)" d="M 43.78125 287.182081 
L 43.78125 287.182081 
L 53.279122 287.182081 
L 62.776995 287.182081 
L 72.274867 287.182081 
L 81.772739 287.182081 
L 91.270612 287.182081 
L 100.768484 287.182081 
L 110.266356 287.182081 
L 119.764229 287.182081 
L 129.262101 287.182081 
L 138.759973 287.182081 
L 148.257846 287.182081 
L 157.755718 287.182081 
L 167.25359 287.182081 
L 176.751463 287.182081 
L 186.249335 287.182081 
L 195.747207 287.182081 
L 205.24508 287.182081 
L 214.742952 287.182081 
L 224.240824 287.182081 
L 233.738697 287.182081 
L 243.236569 287.182081 
L 252.734441 287.182081 
L 262.232314 287.182081 
L 271.730186 287.182081 
L 281.228059 287.182081 
L 290.725931 287.182081 
L 300.223803 287.182081 
L 309.721676 287.182081 
L 319.219548 287.182081 
L 328.71742 287.182081 
L 338.215293 287.182081 
L 347.713165 287.182081 
L 357.211037 287.182081 
L 366.70891 287.182081 
L 376.206782 287.182081 
L 385.704654 287.182081 
L 395.202527 287.182081 
L 404.700399 287.182081 
L 414.198271 287.182081 
L 423.696144 287.182081 
L 433.194016 287.182081 
L 442.691888 287.182081 
L 452.189761 287.182081 
L 461.687633 287.182081 
L 471.185505 287.182081 
L 480.683378 287.182081 
L 490.18125 287.182081 
L 490.18125 287.182081 
L 490.18125 287.182081 
L 480.683378 287.182081 
L 471.185505 287.182081 
L 461.687633 287.182081 
L 452.189761 287.182081 
L 442.691888 287.182081 
L 433.194016 287.182081 
L 423.696144 287.182081 
L 414.198271 287.182081 
L 404.700399 287.182081 
L 395.202527 287.182081 
L 385.704654 287.182081 
L 376.206782 287.182081 
L 366.70891 287.182081 
L 357.211037 287.182081 
L 347.713165 287.182081 
L 338.215293 287.182081 
L 328.71742 287.182081 
L 319.219548 287.182081 
L 309.721676 287.182081 
L 300.223803 287.182081 
L 290.725931 287.182081 
L 281.228059 287.182081 
L 271.730186 287.182081 
L 262.232314 287.182081 
L 252.734441 287.182081 
L 243.236569 287.182081 
L 233.738697 287.182081 
L 224.240824 287.182081 
L 214.742952 287.182081 
L 205.24508 287.182081 
L 195.747207 287.182081 
L 186.249335 287.182081 
L 176.751463 287.182081 
L 167.25359 287.182081 
L 157.755718 287.182081 
L 148.257846 287.182081 
L 138.759973 287.182081 
L 129.262101 287.182081 
L 119.764229 287.182081 
L 110.266356 287.182081 
L 100.768484 287.182081 
L 91.270612 287.182081 
L 81.772739 287.182081 
L 72.274867 287.182081 
L 62.776995 287.182081 
L 53.279122 287.182081 
L 43.78125 287.182081 
z
" style="fill:#ffb30f;"/>
   </g>
   <g id="PolyCollection_2">
    <path clip-path="url(#pdabf56bd0c)" d="M 43.78125 274.855994 
L 43.78125 287.182081 
L 53.279122 287.182081 
L 62.776995 287.182081 
L 72.274867 287.182081 
L 81.772739 287.182081 
L 91.270612 287.182081 
L 100.768484 287.182081 
L 110.266356 287.182081 
L 119.764229 287.182081 
L 129.262101 287.182081 
L 138.759973 287.182081 
L 148.257846 287.182081 
L 157.755718 287.182081 
L 167.25359 287.182081 
L 176.751463 287.182081 
L 186.249335 287.182081 
L 195.747207 287.182081 
L 205.24508 287.182081 
L 214.742952 287.182081 
L 224.240824 287.182081 
L 233.738697 287.182081 
L 243.236569 287.182081 
L 252.734441 287.182081 
L 262.232314 287.182081 
L 271.730186 287.182081 
L 281.228059 287.182081 
L 290.725931 287.182081 
L 300.223803 287.182081 
L 309.721676 287.182081 
L 319.219548 287.182081 
L 328.71742 287.182081 
L 338.215293 287.182081 
L 347.713165 287.182081 
L 357.211037 287.182081 
L 366.70891 287.182081 
L 376.206782 287.182081 
L 385.704654 287.182081 
L 395.202527 287.182081 
L 404.700399 287.182081 
L 414.198271 287.182081 
L 423.696144 287.182081 
L 433.194016 287.182081 
L 442.691888 287.182081 
L 452.189761 287.182081 
L 461.687633 287.182081 
L 471.185505 287.182081 
L 480.683378 287.182081 
L 490.18125 287.182081 
L 490.18125 269.780547 
L 490.18125 269.780547 
L 480.683378 260.717248 
L 471.185505 255.279269 
L 461.687633 254.191673 
L 452.189761 255.641801 
L 442.691888 280.656506 
L 433.194016 275.94359 
L 423.696144 267.605355 
L 414.198271 267.605355 
L 404.700399 266.880291 
L 395.202527 263.254972 
L 385.704654 253.104077 
L 376.206782 253.829141 
L 366.70891 254.191673 
L 357.211037 254.916737 
L 347.713165 262.529908 
L 338.215293 287.182081 
L 328.71742 287.182081 
L 319.219548 287.182081 
L 309.721676 287.182081 
L 300.223803 287.182081 
L 290.725931 287.182081 
L 281.228059 287.182081 
L 271.730186 287.182081 
L 262.232314 282.106633 
L 252.734441 272.680802 
L 243.236569 257.091928 
L 233.738697 249.841289 
L 224.240824 249.841289 
L 214.742952 268.330419 
L 205.24508 278.118782 
L 195.747207 282.469165 
L 186.249335 282.106633 
L 176.751463 274.855994 
L 167.25359 275.581058 
L 157.755718 274.493462 
L 148.257846 274.493462 
L 138.759973 274.855994 
L 129.262101 275.218526 
L 119.764229 274.13093 
L 110.266356 277.75625 
L 100.768484 283.194229 
L 91.270612 283.194229 
L 81.772739 285.677508 
L 72.274867 283.556761 
L 62.776995 280.293974 
L 53.279122 273.768398 
L 43.78125 274.855994 
z
" style="fill:#2980b9;"/>
   </g>
   <g id="PolyCollection_3">
    <path clip-path="url(#pdabf56bd0c)" d="M 43.78125 274.855994 
L 43.78125 274.855994 
L 53.279122 273.768398 
L 62.776995 280.293974 
L 72.274867 283.556761 
L 81.772739 285.677508 
L 91.270612 283.194229 
L 100.768484 283.194229 
L 110.266356 277.75625 
L 119.764229 274.13093 
L 129.262101 275.218526 
L 138.759973 274.855994 
L 148.257846 274.493462 
L 157.755718 274.493462 
L 167.25359 275.581058 
L 176.751463 274.855994 
L 186.249335 282.106633 
L 195.747207 282.469165 
L 205.24508 278.118782 
L 214.742952 268.330419 
L 224.240824 249.841289 
L 233.738697 249.841289 
L 243.236569 257.091928 
L 252.734441 272.680802 
L 262.232314 282.106633 
L 271.730186 287.182081 
L 281.228059 287.182081 
L 290.725931 287.182081 
L 300.223803 287.182081 
L 309.721676 287.182081 
L 319.219548 287.182081 
L 328.71742 287.182081 
L 338.215293 287.182081 
L 347.713165 262.529908 
L 357.211037 254.916737 
L 366.70891 254.191673 
L 376.206782 253.829141 
L 385.704654 253.104077 
L 395.202527 263.254972 
L 404.700399 266.880291 
L 414.198271 267.605355 
L 423.696144 267.605355 
L 433.194016 275.94359 
L 442.691888 280.656506 
L 452.189761 255.641801 
L 461.687633 254.191673 
L 471.185505 255.279269 
L 480.683378 260.717248 
L 490.18125 269.780547 
L 490.18125 269.780547 
L 490.18125 269.780547 
L 480.683378 260.717248 
L 471.185505 255.279269 
L 461.687633 254.191673 
L 452.189761 255.641801 
L 442.691888 280.656506 
L 433.194016 275.94359 
L 423.696144 267.605355 
L 414.198271 267.605355 
L 404.700399 266.880291 
L 395.202527 263.254972 
L 385.704654 253.104077 
L 376.206782 253.829141 
L 366.70891 254.191673 
L 357.211037 254.916737 
L 347.713165 262.529908 
L 338.215293 287.182081 
L 328.71742 287.182081 
L 319.219548 287.182081 
L 309.721676 287.182081 
L 300.223803 287.182081 
L 290.725931 287.182081 
L 281.228059 287.182081 
L 271.730186 287.182081 
L 262.232314 282.106633 
L 252.734441 272.680802 
L 243.236569 257.091928 
L 233.738697 249.841289 
L 224.240824 249.841289 
L 214.742952 268.330419 
L 205.24508 278.118782 
L 195.747207 282.469165 
L 186.249335 282.106633 
L 176.751463 274.855994 
L 167.25359 275.581058 
L 157.755718 274.493462 
L 148.257846 274.493462 
L 138.759973 274.855994 
L 129.262101 275.218526 
L 119.764229 274.13093 
L 110.266356 277.75625 
L 100.768484 283.194229 
L 91.270612 283.194229 
L 81.772739 285.677508 
L 72.274867 283.556761 
L 62.776995 280.293974 
L 53.279122 273.768398 
L 43.78125 274.855994 
z
" style="fill:#3498db;"/>
   </g>
   <g id="PolyCollection_4">
    <path clip-path="url(#pdabf56bd0c)" d="M 43.78125 272.762372 
L 43.78125 274.855994 
L 53.279122 273.768398 
L 62.776995 280.293974 
L 72.274867 283.556761 
L 81.772739 285.677508 
L 91.270612 283.194229 
L 100.768484 283.194229 
L 110.266356 277.75625 
L 119.764229 274.13093 
L 129.262101 275.218526 
L 138.759973 274.855994 
L 148.257846 274.493462 
L 157.755718 274.493462 
L 167.25359 275.581058 
L 176.751463 274.855994 
L 186.249335 282.106633 
L 195.747207 282.469165 
L 205.24508 278.118782 
L 214.742952 268.330419 
L 224.240824 249.841289 
L 233.738697 249.841289 
L 243.236569 257.091928 
L 252.734441 272.680802 
L 262.232314 282.106633 
L 271.730186 287.182081 
L 281.228059 287.182081 
L 290.725931 287.182081 
L 300.223803 287.182081 
L 309.721676 287.182081 
L 319.219548 287.182081 
L 328.71742 287.182081 
L 338.215293 287.182081 
L 347.713165 262.529908 
L 357.211037 254.916737 
L 366.70891 254.191673 
L 376.206782 253.829141 
L 385.704654 253.104077 
L 395.202527 263.254972 
L 404.700399 266.880291 
L 414.198271 267.605355 
L 423.696144 267.605355 
L 433.194016 275.94359 
L 442.691888 280.656506 
L 452.189761 255.641801 
L 461.687633 254.191673 
L 471.185505 255.279269 
L 480.683378 260.717248 
L 490.18125 269.780547 
L 490.18125 265.294214 
L 490.18125 265.294214 
L 480.683378 256.094966 
L 471.185505 250.539163 
L 461.687633 249.089035 
L 452.189761 250.095062 
L 442.691888 274.620348 
L 433.194016 269.436141 
L 423.696144 261.261046 
L 414.198271 262.403022 
L 404.700399 262.992136 
L 395.202527 260.418159 
L 385.704654 251.028581 
L 376.206782 252.351823 
L 366.70891 253.131267 
L 357.211037 254.164483 
L 347.713165 261.95892 
L 338.215293 286.475143 
L 328.71742 285.813523 
L 319.219548 285.088459 
L 309.721676 285.088459 
L 300.223803 283.9918 
L 290.725931 283.892103 
L 281.228059 283.783344 
L 271.730186 283.719901 
L 262.232314 278.562883 
L 252.734441 269.010166 
L 243.236569 253.312533 
L 233.738697 245.762805 
L 224.240824 245.36402 
L 214.742952 263.119022 
L 205.24508 272.191384 
L 195.747207 276.152046 
L 186.249335 276.351439 
L 176.751463 270.505611 
L 167.25359 272.680802 
L 157.755718 272.671739 
L 148.257846 273.324297 
L 138.759973 274.067487 
L 129.262101 274.602222 
L 119.764229 273.514626 
L 110.266356 276.840857 
L 100.768484 281.508456 
L 91.270612 280.946531 
L 81.772739 284.000797 
L 72.274867 280.846835 
L 62.776995 277.665617 
L 53.279122 271.475384 
L 43.78125 272.762372 
z
" style="fill:#28b463;"/>
   </g>
   <g id="PolyCollection_5">
    <path clip-path="url(#pdabf56bd0c)" d="M 43.78125 272.762372 
L 43.78125 272.762372 
L 53.279122 271.475384 
L 62.776995 277.665617 
L 72.274867 280.846835 
L 81.772739 284.000797 
L 91.270612 280.946531 
L 100.768484 281.508456 
L 110.266356 276.840857 
L 119.764229 273.514626 
L 129.262101 274.602222 
L 138.759973 274.067487 
L 148.257846 273.324297 
L 157.755718 272.671739 
L 167.25359 272.680802 
L 176.751463 270.505611 
L 186.249335 276.351439 
L 195.747207 276.152046 
L 205.24508 272.191384 
L 214.742952 263.119022 
L 224.240824 245.36402 
L 233.738697 245.762805 
L 243.236569 253.312533 
L 252.734441 269.010166 
L 262.232314 278.562883 
L 271.730186 283.719901 
L 281.228059 283.783344 
L 290.725931 283.892103 
L 300.223803 283.9918 
L 309.721676 285.088459 
L 319.219548 285.088459 
L 328.71742 285.813523 
L 338.215293 286.475143 
L 347.713165 261.95892 
L 357.211037 254.164483 
L 366.70891 253.131267 
L 376.206782 252.351823 
L 385.704654 251.028581 
L 395.202527 260.418159 
L 404.700399 262.992136 
L 414.198271 262.403022 
L 423.696144 261.261046 
L 433.194016 269.436141 
L 442.691888 274.620348 
L 452.189761 250.095062 
L 461.687633 249.089035 
L 471.185505 250.539163 
L 480.683378 256.094966 
L 490.18125 265.294214 
L 490.18125 265.294214 
L 490.18125 265.294214 
L 480.683378 256.094966 
L 471.185505 250.539163 
L 461.687633 249.089035 
L 452.189761 250.095062 
L 442.691888 274.620348 
L 433.194016 269.436141 
L 423.696144 261.261046 
L 414.198271 262.403022 
L 404.700399 262.992136 
L 395.202527 260.418159 
L 385.704654 251.028581 
L 376.206782 252.351823 
L 366.70891 253.131267 
L 357.211037 254.164483 
L 347.713165 261.95892 
L 338.215293 286.475143 
L 328.71742 285.813523 
L 319.219548 285.088459 
L 309.721676 285.088459 
L 300.223803 283.9918 
L 290.725931 283.892103 
L 281.228059 283.783344 
L 271.730186 283.719901 
L 262.232314 278.562883 
L 252.734441 269.010166 
L 243.236569 253.312533 
L 233.738697 245.762805 
L 224.240824 245.36402 
L 214.742952 263.119022 
L 205.24508 272.191384 
L 195.747207 276.152046 
L 186.249335 276.351439 
L 176.751463 270.505611 
L 167.25359 272.680802 
L 157.755718 272.671739 
L 148.257846 273.324297 
L 138.759973 274.067487 
L 129.262101 274.602222 
L 119.764229 273.514626 
L 110.266356 276.840857 
L 100.768484 281.508456 
L 91.270612 280.946531 
L 81.772739 284.000797 
L 72.274867 280.846835 
L 62.776995 277.665617 
L 53.279122 271.475384 
L 43.78125 272.762372 
z
" style="fill:#494949;"/>
   </g>
   <g id="PolyCollection_6">
    <path clip-path="url(#pdabf56bd0c)" d="M 43.78125 272.762372 
L 43.78125 272.762372 
L 53.279122 271.475384 
L 62.776995 277.665617 
L 72.274867 280.846835 
L 81.772739 284.000797 
L 91.270612 280.946531 
L 100.768484 281.508456 
L 110.266356 276.840857 
L 119.764229 273.514626 
L 129.262101 274.602222 
L 138.759973 274.067487 
L 148.257846 273.324297 
L 157.755718 272.671739 
L 167.25359 272.680802 
L 176.751463 270.505611 
L 186.249335 276.351439 
L 195.747207 276.152046 
L 205.24508 272.191384 
L 214.742952 263.119022 
L 224.240824 245.36402 
L 233.738697 245.762805 
L 243.236569 253.312533 
L 252.734441 269.010166 
L 262.232314 278.562883 
L 271.730186 283.719901 
L 281.228059 283.783344 
L 290.725931 283.892103 
L 300.223803 283.9918 
L 309.721676 285.088459 
L 319.219548 285.088459 
L 328.71742 285.813523 
L 338.215293 286.475143 
L 347.713165 261.95892 
L 357.211037 254.164483 
L 366.70891 253.131267 
L 376.206782 252.351823 
L 385.704654 251.028581 
L 395.202527 260.418159 
L 404.700399 262.992136 
L 414.198271 262.403022 
L 423.696144 261.261046 
L 433.194016 269.436141 
L 442.691888 274.620348 
L 452.189761 250.095062 
L 461.687633 249.089035 
L 471.185505 250.539163 
L 480.683378 256.094966 
L 490.18125 265.294214 
L 490.18125 265.294214 
L 490.18125 265.294214 
L 480.683378 256.094966 
L 471.185505 250.539163 
L 461.687633 249.089035 
L 452.189761 250.095062 
L 442.691888 274.620348 
L 433.194016 269.436141 
L 423.696144 261.261046 
L 414.198271 262.403022 
L 404.700399 262.992136 
L 395.202527 260.418159 
L 385.704654 251.028581 
L 376.206782 252.351823 
L 366.70891 253.131267 
L 357.211037 254.164483 
L 347.713165 261.95892 
L 338.215293 286.475143 
L 328.71742 285.813523 
L 319.219548 285.088459 
L 309.721676 285.088459 
L 300.223803 283.9918 
L 290.725931 283.892103 
L 281.228059 283.783344 
L 271.730186 283.719901 
L 262.232314 278.562883 
L 252.734441 269.010166 
L 243.236569 253.312533 
L 233.738697 245.762805 
L 224.240824 245.36402 
L 214.742952 263.119022 
L 205.24508 272.191384 
L 195.747207 276.152046 
L 186.249335 276.351439 
L 176.751463 270.505611 
L 167.25359 272.680802 
L 157.755718 272.671739 
L 148.257846 273.324297 
L 138.759973 274.067487 
L 129.262101 274.602222 
L 119.764229 273.514626 
L 110.266356 276.840857 
L 100.768484 281.508456 
L 91.270612 280.946531 
L 81.772739 284.000797 
L 72.274867 280.846835 
L 62.776995 277.665617 
L 53.279122 271.475384 
L 43.78125 272.762372 
z
" style="fill:#7c7c7c;"/>
   </g>
   <g id="PolyCollection_7">
    <path clip-path="url(#pdabf56bd0c)" d="M 43.78125 272.762372 
L 43.78125 272.762372 
L 53.279122 271.475384 
L 62.776995 277.665617 
L 72.274867 280.846835 
L 81.772739 284.000797 
L 91.270612 280.946531 
L 100.768484 281.508456 
L 110.266356 276.840857 
L 119.764229 273.514626 
L 129.262101 274.602222 
L 138.759973 274.067487 
L 148.257846 273.324297 
L 157.755718 272.671739 
L 167.25359 272.680802 
L 176.751463 270.505611 
L 186.249335 276.351439 
L 195.747207 276.152046 
L 205.24508 272.191384 
L 214.742952 263.119022 
L 224.240824 245.36402 
L 233.738697 245.762805 
L 243.236569 253.312533 
L 252.734441 269.010166 
L 262.232314 278.562883 
L 271.730186 283.719901 
L 281.228059 283.783344 
L 290.725931 283.892103 
L 300.223803 283.9918 
L 309.721676 285.088459 
L 319.219548 285.088459 
L 328.71742 285.813523 
L 338.215293 286.475143 
L 347.713165 261.95892 
L 357.211037 254.164483 
L 366.70891 253.131267 
L 376.206782 252.351823 
L 385.704654 251.028581 
L 395.202527 260.418159 
L 404.700399 262.992136 
L 414.198271 262.403022 
L 423.696144 261.261046 
L 433.194016 269.436141 
L 442.691888 274.620348 
L 452.189761 250.095062 
L 461.687633 249.089035 
L 471.185505 250.539163 
L 480.683378 256.094966 
L 490.18125 265.294214 
L 490.18125 265.294214 
L 490.18125 265.294214 
L 480.683378 256.094966 
L 471.185505 250.539163 
L 461.687633 249.089035 
L 452.189761 250.095062 
L 442.691888 274.620348 
L 433.194016 269.436141 
L 423.696144 261.261046 
L 414.198271 262.403022 
L 404.700399 262.992136 
L 395.202527 260.418159 
L 385.704654 251.028581 
L 376.206782 252.351823 
L 366.70891 253.131267 
L 357.211037 254.164483 
L 347.713165 261.95892 
L 338.215293 286.475143 
L 328.71742 285.813523 
L 319.219548 285.088459 
L 309.721676 285.088459 
L 300.223803 283.9918 
L 290.725931 283.892103 
L 281.228059 283.783344 
L 271.730186 283.719901 
L 262.232314 278.562883 
L 252.734441 269.010166 
L 243.236569 253.312533 
L 233.738697 245.762805 
L 224.240824 245.36402 
L 214.742952 263.119022 
L 205.24508 272.191384 
L 195.747207 276.152046 
L 186.249335 276.351439 
L 176.751463 270.505611 
L 167.25359 272.680802 
L 157.755718 272.671739 
L 148.257846 273.324297 
L 138.759973 274.067487 
L 129.262101 274.602222 
L 119.764229 273.514626 
L 110.266356 276.840857 
L 100.768484 281.508456 
L 91.270612 280.946531 
L 81.772739 284.000797 
L 72.274867 280.846835 
L 62.776995 277.665617 
L 53.279122 271.475384 
L 43.78125 272.762372 
z
" style="fill:#ba4a00;"/>
   </g>
   <g id="PolyCollection_8">
    <path clip-path="url(#pdabf56bd0c)" d="M 43.78125 99.696489 
L 43.78125 272.762372 
L 53.279122 271.475384 
L 62.776995 277.665617 
L 72.274867 280.846835 
L 81.772739 284.000797 
L 91.270612 280.946531 
L 100.768484 281.508456 
L 110.266356 276.840857 
L 119.764229 273.514626 
L 129.262101 274.602222 
L 138.759973 274.067487 
L 148.257846 273.324297 
L 157.755718 272.671739 
L 167.25359 272.680802 
L 176.751463 270.505611 
L 186.249335 276.351439 
L 195.747207 276.152046 
L 205.24508 272.191384 
L 214.742952 263.119022 
L 224.240824 245.36402 
L 233.738697 245.762805 
L 243.236569 253.312533 
L 252.734441 269.010166 
L 262.232314 278.562883 
L 271.730186 283.719901 
L 281.228059 283.783344 
L 290.725931 283.892103 
L 300.223803 283.9918 
L 309.721676 285.088459 
L 319.219548 285.088459 
L 328.71742 285.813523 
L 338.215293 286.475143 
L 347.713165 261.95892 
L 357.211037 254.164483 
L 366.70891 253.131267 
L 376.206782 252.351823 
L 385.704654 251.028581 
L 395.202527 260.418159 
L 404.700399 262.992136 
L 414.198271 262.403022 
L 423.696144 261.261046 
L 433.194016 269.436141 
L 442.691888 274.620348 
L 452.189761 250.095062 
L 461.687633 249.089035 
L 471.185505 250.539163 
L 480.683378 256.094966 
L 490.18125 265.294214 
L 490.18125 86.751848 
L 490.18125 86.751848 
L 480.683378 62.012667 
L 471.185505 52.371678 
L 461.687633 56.169209 
L 452.189761 52.317656 
L 442.691888 56.921638 
L 433.194016 77.265437 
L 423.696144 69.886498 
L 414.198271 69.832818 
L 404.700399 75.470759 
L 395.202527 74.281655 
L 385.704654 67.773678 
L 376.206782 72.424727 
L 366.70891 68.207383 
L 357.211037 70.659891 
L 347.713165 94.460454 
L 338.215293 123.778467 
L 328.71742 115.196105 
L 319.219548 133.939007 
L 309.721676 140.261565 
L 300.223803 140.004167 
L 290.725931 137.111162 
L 281.228059 133.935382 
L 271.730186 128.780177 
L 262.232314 112.450364 
L 252.734441 89.491215 
L 243.236569 66.213038 
L 233.738697 56.972098 
L 224.240824 54.100845 
L 214.742952 87.718433 
L 205.24508 107.882461 
L 195.747207 107.994846 
L 186.249335 105.45844 
L 176.751463 98.137395 
L 167.25359 97.256249 
L 157.755718 105.725498 
L 148.257846 105.232204 
L 138.759973 105.423227 
L 129.262101 102.205121 
L 119.764229 93.286924 
L 110.266356 105.362864 
L 100.768484 115.615268 
L 91.270612 125.356501 
L 81.772739 127.277921 
L 72.274867 124.138394 
L 62.776995 119.403726 
L 53.279122 112.185715 
L 43.78125 99.696489 
z
" style="fill:#75ee6b;"/>
   </g>
   <g id="PolyCollection_9">
    <path clip-path="url(#pdabf56bd0c)" d="M 43.78125 99.696489 
L 43.78125 99.696489 
L 53.279122 112.185715 
L 62.776995 119.403726 
L 72.274867 124.138394 
L 81.772739 127.277921 
L 91.270612 125.356501 
L 100.768484 115.615268 
L 110.266356 105.362864 
L 119.764229 93.286924 
L 129.262101 102.205121 
L 138.759973 105.423227 
L 148.257846 105.232204 
L 157.755718 105.725498 
L 167.25359 97.256249 
L 176.751463 98.137395 
L 186.249335 105.45844 
L 195.747207 107.994846 
L 205.24508 107.882461 
L 214.742952 87.718433 
L 224.240824 54.100845 
L 233.738697 56.972098 
L 243.236569 66.213038 
L 252.734441 89.491215 
L 262.232314 112.450364 
L 271.730186 128.780177 
L 281.228059 133.935382 
L 290.725931 137.111162 
L 300.223803 140.004167 
L 309.721676 140.261565 
L 319.219548 133.939007 
L 328.71742 115.196105 
L 338.215293 123.778467 
L 347.713165 94.460454 
L 357.211037 70.659891 
L 366.70891 68.207383 
L 376.206782 72.424727 
L 385.704654 67.773678 
L 395.202527 74.281655 
L 404.700399 75.470759 
L 414.198271 69.832818 
L 423.696144 69.886498 
L 433.194016 77.265437 
L 442.691888 56.921638 
L 452.189761 52.317656 
L 461.687633 56.169209 
L 471.185505 52.371678 
L 480.683378 62.012667 
L 490.18125 86.751848 
L 490.18125 86.751848 
L 490.18125 86.751848 
L 480.683378 62.012667 
L 471.185505 52.371678 
L 461.687633 56.169209 
L 452.189761 52.317656 
L 442.691888 56.921638 
L 433.194016 77.265437 
L 423.696144 69.886498 
L 414.198271 69.832818 
L 404.700399 75.470759 
L 395.202527 74.281655 
L 385.704654 67.773678 
L 376.206782 72.424727 
L 366.70891 68.207383 
L 357.211037 70.659891 
L 347.713165 94.460454 
L 338.215293 123.778467 
L 328.71742 115.196105 
L 319.219548 133.939007 
L 309.721676 140.261565 
L 300.223803 140.004167 
L 290.725931 137.111162 
L 281.228059 133.935382 
L 271.730186 128.780177 
L 262.232314 112.450364 
L 252.734441 89.491215 
L 243.236569 66.213038 
L 233.738697 56.972098 
L 224.240824 54.100845 
L 214.742952 87.718433 
L 205.24508 107.882461 
L 195.747207 107.994846 
L 186.249335 105.45844 
L 176.751463 98.137395 
L 167.25359 97.256249 
L 157.755718 105.725498 
L 148.257846 105.232204 
L 138.759973 105.423227 
L 129.262101 102.205121 
L 119.764229 93.286924 
L 110.266356 105.362864 
L 100.768484 115.615268 
L 91.270612 125.356501 
L 81.772739 127.277921 
L 72.274867 124.138394 
L 62.776995 119.403726 
L 53.279122 112.185715 
L 43.78125 99.696489 
z
" style="fill:#606fed;"/>
   </g>
   <g id="PolyCollection_10">
    <path clip-path="url(#pdabf56bd0c)" d="M 43.78125 99.696489 
L 43.78125 99.696489 
L 53.279122 112.185715 
L 62.776995 119.403726 
L 72.274867 124.138394 
L 81.772739 127.277921 
L 91.270612 125.356501 
L 100.768484 115.615268 
L 110.266356 105.362864 
L 119.764229 93.286924 
L 129.262101 102.205121 
L 138.759973 105.423227 
L 148.257846 105.232204 
L 157.755718 105.725498 
L 167.25359 97.256249 
L 176.751463 98.137395 
L 186.249335 105.45844 
L 195.747207 107.994846 
L 205.24508 107.882461 
L 214.742952 87.718433 
L 224.240824 54.100845 
L 233.738697 56.972098 
L 243.236569 66.213038 
L 252.734441 89.491215 
L 262.232314 112.450364 
L 271.730186 128.780177 
L 281.228059 133.935382 
L 290.725931 137.111162 
L 300.223803 140.004167 
L 309.721676 140.261565 
L 319.219548 133.939007 
L 328.71742 115.196105 
L 338.215293 123.778467 
L 347.713165 94.460454 
L 357.211037 70.659891 
L 366.70891 68.207383 
L 376.206782 72.424727 
L 385.704654 67.773678 
L 395.202527 74.281655 
L 404.700399 75.470759 
L 414.198271 69.832818 
L 423.696144 69.886498 
L 433.194016 77.265437 
L 442.691888 56.921638 
L 452.189761 52.317656 
L 461.687633 56.169209 
L 471.185505 52.371678 
L 480.683378 62.012667 
L 490.18125 86.751848 
L 490.18125 86.751848 
L 490.18125 86.751848 
L 480.683378 62.012667 
L 471.185505 52.371678 
L 461.687633 56.169209 
L 452.189761 52.317656 
L 442.691888 56.921638 
L 433.194016 77.265437 
L 423.696144 69.886498 
L 414.198271 69.832818 
L 404.700399 75.470759 
L 395.202527 74.281655 
L 385.704654 67.773678 
L 376.206782 72.424727 
L 366.70891 68.207383 
L 357.211037 70.659891 
L 347.713165 94.460454 
L 338.215293 123.778467 
L 328.71742 115.196105 
L 319.219548 133.939007 
L 309.721676 140.261565 
L 300.223803 140.004167 
L 290.725931 137.111162 
L 281.228059 133.935382 
L 271.730186 128.780177 
L 262.232314 112.450364 
L 252.734441 89.491215 
L 243.236569 66.213038 
L 233.738697 56.972098 
L 224.240824 54.100845 
L 214.742952 87.718433 
L 205.24508 107.882461 
L 195.747207 107.994846 
L 186.249335 105.45844 
L 176.751463 98.137395 
L 167.25359 97.256249 
L 157.755718 105.725498 
L 148.257846 105.232204 
L 138.759973 105.423227 
L 129.262101 102.205121 
L 119.764229 93.286924 
L 110.266356 105.362864 
L 100.768484 115.615268 
L 91.270612 125.356501 
L 81.772739 127.277921 
L 72.274867 124.138394 
L 62.776995 119.403726 
L 53.279122 112.185715 
L 43.78125 99.696489 
z
" style="fill:#ea6bee;"/>
   </g>
   <g id="PolyCollection_11">
    <path clip-path="url(#pdabf56bd0c)" d="M 43.78125 287.182081 
L 43.78125 287.182081 
L 53.279122 287.182081 
L 62.776995 287.182081 
L 72.274867 287.182081 
L 81.772739 287.182081 
L 91.270612 287.182081 
L 100.768484 287.182081 
L 110.266356 287.182081 
L 119.764229 287.182081 
L 129.262101 287.182081 
L 138.759973 287.182081 
L 148.257846 287.182081 
L 157.755718 287.182081 
L 167.25359 287.182081 
L 176.751463 287.182081 
L 186.249335 287.182081 
L 195.747207 287.182081 
L 205.24508 287.182081 
L 214.742952 287.182081 
L 224.240824 287.182081 
L 233.738697 287.182081 
L 243.236569 287.182081 
L 252.734441 287.182081 
L 262.232314 287.182081 
L 271.730186 287.182081 
L 281.228059 287.182081 
L 290.725931 287.182081 
L 300.223803 287.182081 
L 309.721676 287.182081 
L 319.219548 287.182081 
L 328.71742 287.182081 
L 338.215293 287.182081 
L 347.713165 287.182081 
L 357.211037 287.182081 
L 366.70891 287.182081 
L 376.206782 287.182081 
L 385.704654 287.182081 
L 395.202527 287.182081 
L 404.700399 287.182081 
L 414.198271 287.182081 
L 423.696144 287.182081 
L 433.194016 287.182081 
L 442.691888 287.182081 
L 452.189761 287.182081 
L 461.687633 287.182081 
L 471.185505 287.182081 
L 480.683378 287.182081 
L 490.18125 287.182081 
L 490.18125 287.182081 
L 490.18125 287.182081 
L 480.683378 287.182081 
L 471.185505 287.182081 
L 461.687633 287.182081 
L 452.189761 287.182081 
L 442.691888 287.182081 
L 433.194016 287.182081 
L 423.696144 287.182081 
L 414.198271 287.182081 
L 404.700399 287.182081 
L 395.202527 287.182081 
L 385.704654 287.182081 
L 376.206782 287.182081 
L 366.70891 287.182081 
L 357.211037 287.182081 
L 347.713165 287.182081 
L 338.215293 287.182081 
L 328.71742 287.182081 
L 319.219548 287.182081 
L 309.721676 287.182081 
L 300.223803 287.182081 
L 290.725931 287.182081 
L 281.228059 287.182081 
L 271.730186 287.182081 
L 262.232314 287.182081 
L 252.734441 287.182081 
L 243.236569 287.182081 
L 233.738697 287.182081 
L 224.240824 287.182081 
L 214.742952 287.182081 
L 205.24508 287.182081 
L 195.747207 287.182081 
L 186.249335 287.182081 
L 176.751463 287.182081 
L 167.25359 287.182081 
L 157.755718 287.182081 
L 148.257846 287.182081 
L 138.759973 287.182081 
L 129.262101 287.182081 
L 119.764229 287.182081 
L 110.266356 287.182081 
L 100.768484 287.182081 
L 91.270612 287.182081 
L 81.772739 287.182081 
L 72.274867 287.182081 
L 62.776995 287.182081 
L 53.279122 287.182081 
L 43.78125 287.182081 
z
" style="fill:#22eb11;"/>
   </g>
   <g id="PolyCollection_12">
    <path clip-path="url(#pdabf56bd0c)" d="M 43.78125 287.182081 
L 43.78125 287.182081 
L 53.279122 287.182081 
L 62.776995 287.182081 
L 72.274867 287.182081 
L 81.772739 287.182081 
L 91.270612 287.182081 
L 100.768484 287.182081 
L 110.266356 287.182081 
L 119.764229 287.182081 
L 129.262101 287.182081 
L 138.759973 287.182081 
L 148.257846 287.182081 
L 157.755718 287.182081 
L 167.25359 287.182081 
L 176.751463 287.182081 
L 186.249335 287.182081 
L 195.747207 287.182081 
L 205.24508 287.182081 
L 214.742952 287.182081 
L 224.240824 287.182081 
L 233.738697 287.182081 
L 243.236569 287.182081 
L 252.734441 287.182081 
L 262.232314 287.182081 
L 271.730186 287.182081 
L 281.228059 287.182081 
L 290.725931 287.182081 
L 300.223803 287.182081 
L 309.721676 287.182081 
L 319.219548 287.182081 
L 328.71742 287.182081 
L 338.215293 287.182081 
L 347.713165 287.182081 
L 357.211037 287.182081 
L 366.70891 287.182081 
L 376.206782 287.182081 
L 385.704654 287.182081 
L 395.202527 287.182081 
L 404.700399 287.182081 
L 414.198271 287.182081 
L 423.696144 287.182081 
L 433.194016 287.182081 
L 442.691888 287.182081 
L 452.189761 287.182081 
L 461.687633 287.182081 
L 471.185505 287.182081 
L 480.683378 287.182081 
L 490.18125 287.182081 
L 490.18125 287.182081 
L 490.18125 287.182081 
L 480.683378 287.182081 
L 471.185505 287.182081 
L 461.687633 287.182081 
L 452.189761 287.182081 
L 442.691888 287.182081 
L 433.194016 287.182081 
L 423.696144 287.182081 
L 414.198271 287.182081 
L 404.700399 287.182081 
L 395.202527 287.182081 
L 385.704654 287.182081 
L 376.206782 287.182081 
L 366.70891 287.182081 
L 357.211037 287.182081 
L 347.713165 287.182081 
L 338.215293 287.182081 
L 328.71742 287.182081 
L 319.219548 287.182081 
L 309.721676 287.182081 
L 300.223803 287.182081 
L 290.725931 287.182081 
L 281.228059 287.182081 
L 271.730186 287.182081 
L 262.232314 287.182081 
L 252.734441 287.182081 
L 243.236569 287.182081 
L 233.738697 287.182081 
L 224.240824 287.182081 
L 214.742952 287.182081 
L 205.24508 287.182081 
L 195.747207 287.182081 
L 186.249335 287.182081 
L 176.751463 287.182081 
L 167.25359 287.182081 
L 157.755718 287.182081 
L 148.257846 287.182081 
L 138.759973 287.182081 
L 129.262101 287.182081 
L 119.764229 287.182081 
L 110.266356 287.182081 
L 100.768484 287.182081 
L 91.270612 287.182081 
L 81.772739 287.182081 
L 72.274867 287.182081 
L 62.776995 287.182081 
L 53.279122 287.182081 
L 43.78125 287.182081 
z
" style="fill:#0e25ec;"/>
   </g>
   <g id="PolyCollection_13">
    <path clip-path="url(#pdabf56bd0c)" d="M 43.78125 329.517656 
L 43.78125 287.182081 
L 53.279122 287.182081 
L 62.776995 287.182081 
L 72.274867 287.182081 
L 81.772739 287.182081 
L 91.270612 287.182081 
L 100.768484 287.182081 
L 110.266356 287.182081 
L 119.764229 287.182081 
L 129.262101 287.182081 
L 138.759973 287.182081 
L 148.257846 287.182081 
L 157.755718 287.182081 
L 167.25359 287.182081 
L 176.751463 287.182081 
L 186.249335 287.182081 
L 195.747207 287.182081 
L 205.24508 287.182081 
L 214.742952 287.182081 
L 224.240824 287.182081 
L 233.738697 287.182081 
L 243.236569 287.182081 
L 252.734441 287.182081 
L 262.232314 287.182081 
L 271.730186 287.182081 
L 281.228059 287.182081 
L 290.725931 287.182081 
L 300.223803 287.182081 
L 309.721676 287.182081 
L 319.219548 287.182081 
L 328.71742 287.182081 
L 338.215293 287.182081 
L 347.713165 287.182081 
L 357.211037 287.182081 
L 366.70891 287.182081 
L 376.206782 287.182081 
L 385.704654 287.182081 
L 395.202527 287.182081 
L 404.700399 287.182081 
L 414.198271 287.182081 
L 423.696144 287.182081 
L 433.194016 287.182081 
L 442.691888 287.182081 
L 452.189761 287.182081 
L 461.687633 287.182081 
L 471.185505 287.182081 
L 480.683378 287.182081 
L 490.18125 287.182081 
L 490.18125 329.517656 
L 490.18125 329.517656 
L 480.683378 329.517656 
L 471.185505 309.724676 
L 461.687633 299.930867 
L 452.189761 287.182081 
L 442.691888 324.987087 
L 433.194016 319.525225 
L 423.696144 321.658327 
L 414.198271 320.638912 
L 404.700399 319.344104 
L 395.202527 320.087294 
L 385.704654 320.46123 
L 376.206782 320.541222 
L 366.70891 320.988234 
L 357.211037 318.361711 
L 347.713165 314.047241 
L 338.215293 303.961548 
L 328.71742 329.517656 
L 319.219548 329.517656 
L 309.721676 329.517656 
L 300.223803 329.517656 
L 290.725931 329.517656 
L 281.228059 329.517656 
L 271.730186 329.517656 
L 262.232314 329.517656 
L 252.734441 329.517656 
L 243.236569 329.517656 
L 233.738697 329.517656 
L 224.240824 329.517656 
L 214.742952 329.517656 
L 205.24508 329.517656 
L 195.747207 329.517656 
L 186.249335 328.327234 
L 176.751463 325.098598 
L 167.25359 321.415468 
L 157.755718 321.146692 
L 148.257846 320.207984 
L 138.759973 320.669518 
L 129.262101 321.487663 
L 119.764229 329.517656 
L 110.266356 329.517656 
L 100.768484 329.517656 
L 91.270612 329.517656 
L 81.772739 329.517656 
L 72.274867 329.517656 
L 62.776995 329.517656 
L 53.279122 329.517656 
L 43.78125 329.517656 
z
" style="fill:#e50eec;"/>
   </g>
   <g id="matplotlib.axis_1">
    <g id="xtick_1">
     <g id="line2d_1">
      <defs>
       <path d="M 0 0 
L 0 3.5 
" id="m2ad791b545" style="stroke:#000000;stroke-width:0.8;"/>
      </defs>
      <g>
       <use style="stroke:#000000;stroke-width:0.8;" x="43.78125" xlink:href="#m2ad791b545" y="357.237656"/>
      </g>
     </g>
     <g id="text_1">
      <!-- January -->
      <defs>
       <path d="M 9.8125 72.90625 
L 19.671875 72.90625 
L 19.671875 5.078125 
Q 19.671875 -8.109375 14.671875 -14.0625 
Q 9.671875 -20.015625 -1.421875 -20.015625 
L -5.171875 -20.015625 
L -5.171875 -11.71875 
L -2.09375 -11.71875 
Q 4.4375 -11.71875 7.125 -8.046875 
Q 9.8125 -4.390625 9.8125 5.078125 
z
" id="DejaVuSans-74"/>
       <path d="M 34.28125 27.484375 
Q 23.390625 27.484375 19.1875 25 
Q 14.984375 22.515625 14.984375 16.5 
Q 14.984375 11.71875 18.140625 8.90625 
Q 21.296875 6.109375 26.703125 6.109375 
Q 34.1875 6.109375 38.703125 11.40625 
Q 43.21875 16.703125 43.21875 25.484375 
L 43.21875 27.484375 
z
M 52.203125 31.203125 
L 52.203125 0 
L 43.21875 0 
L 43.21875 8.296875 
Q 40.140625 3.328125 35.546875 0.953125 
Q 30.953125 -1.421875 24.3125 -1.421875 
Q 15.921875 -1.421875 10.953125 3.296875 
Q 6 8.015625 6 15.921875 
Q 6 25.140625 12.171875 29.828125 
Q 18.359375 34.515625 30.609375 34.515625 
L 43.21875 34.515625 
L 43.21875 35.40625 
Q 43.21875 41.609375 39.140625 45 
Q 35.0625 48.390625 27.6875 48.390625 
Q 23 48.390625 18.546875 47.265625 
Q 14.109375 46.140625 10.015625 43.890625 
L 10.015625 52.203125 
Q 14.9375 54.109375 19.578125 55.046875 
Q 24.21875 56 28.609375 56 
Q 40.484375 56 46.34375 49.84375 
Q 52.203125 43.703125 52.203125 31.203125 
z
" id="DejaVuSans-97"/>
       <path d="M 54.890625 33.015625 
L 54.890625 0 
L 45.90625 0 
L 45.90625 32.71875 
Q 45.90625 40.484375 42.875 44.328125 
Q 39.84375 48.1875 33.796875 48.1875 
Q 26.515625 48.1875 22.3125 43.546875 
Q 18.109375 38.921875 18.109375 30.90625 
L 18.109375 0 
L 9.078125 0 
L 9.078125 54.6875 
L 18.109375 54.6875 
L 18.109375 46.1875 
Q 21.34375 51.125 25.703125 53.5625 
Q 30.078125 56 35.796875 56 
Q 45.21875 56 50.046875 50.171875 
Q 54.890625 44.34375 54.890625 33.015625 
z
" id="DejaVuSans-110"/>
       <path d="M 8.5 21.578125 
L 8.5 54.6875 
L 17.484375 54.6875 
L 17.484375 21.921875 
Q 17.484375 14.15625 20.5 10.265625 
Q 23.53125 6.390625 29.59375 6.390625 
Q 36.859375 6.390625 41.078125 11.03125 
Q 45.3125 15.671875 45.3125 23.6875 
L 45.3125 54.6875 
L 54.296875 54.6875 
L 54.296875 0 
L 45.3125 0 
L 45.3125 8.40625 
Q 42.046875 3.421875 37.71875 1 
Q 33.40625 -1.421875 27.6875 -1.421875 
Q 18.265625 -1.421875 13.375 4.4375 
Q 8.5 10.296875 8.5 21.578125 
z
M 31.109375 56 
z
" id="DejaVuSans-117"/>
       <path d="M 41.109375 46.296875 
Q 39.59375 47.171875 37.8125 47.578125 
Q 36.03125 48 33.890625 48 
Q 26.265625 48 22.1875 43.046875 
Q 18.109375 38.09375 18.109375 28.8125 
L 18.109375 0 
L 9.078125 0 
L 9.078125 54.6875 
L 18.109375 54.6875 
L 18.109375 46.1875 
Q 20.953125 51.171875 25.484375 53.578125 
Q 30.03125 56 36.53125 56 
Q 37.453125 56 38.578125 55.875 
Q 39.703125 55.765625 41.0625 55.515625 
z
" id="DejaVuSans-114"/>
       <path d="M 32.171875 -5.078125 
Q 28.375 -14.84375 24.75 -17.8125 
Q 21.140625 -20.796875 15.09375 -20.796875 
L 7.90625 -20.796875 
L 7.90625 -13.28125 
L 13.1875 -13.28125 
Q 16.890625 -13.28125 18.9375 -11.515625 
Q 21 -9.765625 23.484375 -3.21875 
L 25.09375 0.875 
L 2.984375 54.6875 
L 12.5 54.6875 
L 29.59375 11.921875 
L 46.6875 54.6875 
L 56.203125 54.6875 
z
" id="DejaVuSans-121"/>
      </defs>
      <g transform="translate(39.891062 402.461103)rotate(-70)scale(0.1 -0.1)">
       <use xlink:href="#DejaVuSans-74"/>
       <use x="29.492188" xlink:href="#DejaVuSans-97"/>
       <use x="90.771484" xlink:href="#DejaVuSans-110"/>
       <use x="154.150391" xlink:href="#DejaVuSans-117"/>
       <use x="217.529297" xlink:href="#DejaVuSans-97"/>
       <use x="278.808594" xlink:href="#DejaVuSans-114"/>
       <use x="319.921875" xlink:href="#DejaVuSans-121"/>
      </g>
     </g>
    </g>
    <g id="text_2">
     <!-- Date -->
     <defs>
      <path d="M 19.671875 64.796875 
L 19.671875 8.109375 
L 31.59375 8.109375 
Q 46.6875 8.109375 53.6875 14.9375 
Q 60.6875 21.78125 60.6875 36.53125 
Q 60.6875 51.171875 53.6875 57.984375 
Q 46.6875 64.796875 31.59375 64.796875 
z
M 9.8125 72.90625 
L 30.078125 72.90625 
Q 51.265625 72.90625 61.171875 64.09375 
Q 71.09375 55.28125 71.09375 36.53125 
Q 71.09375 17.671875 61.125 8.828125 
Q 51.171875 0 30.078125 0 
L 9.8125 0 
z
" id="DejaVuSans-68"/>
      <path d="M 18.3125 70.21875 
L 18.3125 54.6875 
L 36.8125 54.6875 
L 36.8125 47.703125 
L 18.3125 47.703125 
L 18.3125 18.015625 
Q 18.3125 11.328125 20.140625 9.421875 
Q 21.96875 7.515625 27.59375 7.515625 
L 36.8125 7.515625 
L 36.8125 0 
L 27.59375 0 
Q 17.1875 0 13.234375 3.875 
Q 9.28125 7.765625 9.28125 18.015625 
L 9.28125 47.703125 
L 2.6875 47.703125 
L 2.6875 54.6875 
L 9.28125 54.6875 
L 9.28125 70.21875 
z
" id="DejaVuSans-116"/>
      <path d="M 56.203125 29.59375 
L 56.203125 25.203125 
L 14.890625 25.203125 
Q 15.484375 15.921875 20.484375 11.0625 
Q 25.484375 6.203125 34.421875 6.203125 
Q 39.59375 6.203125 44.453125 7.46875 
Q 49.3125 8.734375 54.109375 11.28125 
L 54.109375 2.78125 
Q 49.265625 0.734375 44.1875 -0.34375 
Q 39.109375 -1.421875 33.890625 -1.421875 
Q 20.796875 -1.421875 13.15625 6.1875 
Q 5.515625 13.8125 5.515625 26.8125 
Q 5.515625 40.234375 12.765625 48.109375 
Q 20.015625 56 32.328125 56 
Q 43.359375 56 49.78125 48.890625 
Q 56.203125 41.796875 56.203125 29.59375 
z
M 47.21875 32.234375 
Q 47.125 39.59375 43.09375 43.984375 
Q 39.0625 48.390625 32.421875 48.390625 
Q 24.90625 48.390625 20.390625 44.140625 
Q 15.875 39.890625 15.1875 32.171875 
z
" id="DejaVuSans-101"/>
     </defs>
     <g transform="translate(255.030469 414.770836)scale(0.1 -0.1)">
      <use xlink:href="#DejaVuSans-68"/>
      <use x="77.001953" xlink:href="#DejaVuSans-97"/>
      <use x="138.28125" xlink:href="#DejaVuSans-116"/>
      <use x="177.490234" xlink:href="#DejaVuSans-101"/>
     </g>
    </g>
   </g>
   <g id="matplotlib.axis_2">
    <g id="ytick_1">
     <g id="line2d_2">
      <defs>
       <path d="M 0 0 
L -3.5 0 
" id="me343437da3" style="stroke:#000000;stroke-width:0.8;"/>
      </defs>
      <g>
       <use style="stroke:#000000;stroke-width:0.8;" x="43.78125" xlink:href="#me343437da3" y="287.182081"/>
      </g>
     </g>
     <g id="text_3">
      <!-- 0.0 -->
      <defs>
       <path d="M 31.78125 66.40625 
Q 24.171875 66.40625 20.328125 58.90625 
Q 16.5 51.421875 16.5 36.375 
Q 16.5 21.390625 20.328125 13.890625 
Q 24.171875 6.390625 31.78125 6.390625 
Q 39.453125 6.390625 43.28125 13.890625 
Q 47.125 21.390625 47.125 36.375 
Q 47.125 51.421875 43.28125 58.90625 
Q 39.453125 66.40625 31.78125 66.40625 
z
M 31.78125 74.21875 
Q 44.046875 74.21875 50.515625 64.515625 
Q 56.984375 54.828125 56.984375 36.375 
Q 56.984375 17.96875 50.515625 8.265625 
Q 44.046875 -1.421875 31.78125 -1.421875 
Q 19.53125 -1.421875 13.0625 8.265625 
Q 6.59375 17.96875 6.59375 36.375 
Q 6.59375 54.828125 13.0625 64.515625 
Q 19.53125 74.21875 31.78125 74.21875 
z
" id="DejaVuSans-48"/>
       <path d="M 10.6875 12.40625 
L 21 12.40625 
L 21 0 
L 10.6875 0 
z
" id="DejaVuSans-46"/>
      </defs>
      <g transform="translate(20.878125 290.981299)scale(0.1 -0.1)">
       <use xlink:href="#DejaVuSans-48"/>
       <use x="63.623047" xlink:href="#DejaVuSans-46"/>
       <use x="95.410156" xlink:href="#DejaVuSans-48"/>
      </g>
     </g>
    </g>
    <g id="ytick_2">
     <g id="line2d_3">
      <g>
       <use style="stroke:#000000;stroke-width:0.8;" x="43.78125" xlink:href="#me343437da3" y="214.67569"/>
      </g>
     </g>
     <g id="text_4">
      <!-- 0.2 -->
      <defs>
       <path d="M 19.1875 8.296875 
L 53.609375 8.296875 
L 53.609375 0 
L 7.328125 0 
L 7.328125 8.296875 
Q 12.9375 14.109375 22.625 23.890625 
Q 32.328125 33.6875 34.8125 36.53125 
Q 39.546875 41.84375 41.421875 45.53125 
Q 43.3125 49.21875 43.3125 52.78125 
Q 43.3125 58.59375 39.234375 62.25 
Q 35.15625 65.921875 28.609375 65.921875 
Q 23.96875 65.921875 18.8125 64.3125 
Q 13.671875 62.703125 7.8125 59.421875 
L 7.8125 69.390625 
Q 13.765625 71.78125 18.9375 73 
Q 24.125 74.21875 28.421875 74.21875 
Q 39.75 74.21875 46.484375 68.546875 
Q 53.21875 62.890625 53.21875 53.421875 
Q 53.21875 48.921875 51.53125 44.890625 
Q 49.859375 40.875 45.40625 35.40625 
Q 44.1875 33.984375 37.640625 27.21875 
Q 31.109375 20.453125 19.1875 8.296875 
z
" id="DejaVuSans-50"/>
      </defs>
      <g transform="translate(20.878125 218.474908)scale(0.1 -0.1)">
       <use xlink:href="#DejaVuSans-48"/>
       <use x="63.623047" xlink:href="#DejaVuSans-46"/>
       <use x="95.410156" xlink:href="#DejaVuSans-50"/>
      </g>
     </g>
    </g>
    <g id="ytick_3">
     <g id="line2d_4">
      <g>
       <use style="stroke:#000000;stroke-width:0.8;" x="43.78125" xlink:href="#me343437da3" y="142.169298"/>
      </g>
     </g>
     <g id="text_5">
      <!-- 0.4 -->
      <defs>
       <path d="M 37.796875 64.3125 
L 12.890625 25.390625 
L 37.796875 25.390625 
z
M 35.203125 72.90625 
L 47.609375 72.90625 
L 47.609375 25.390625 
L 58.015625 25.390625 
L 58.015625 17.1875 
L 47.609375 17.1875 
L 47.609375 0 
L 37.796875 0 
L 37.796875 17.1875 
L 4.890625 17.1875 
L 4.890625 26.703125 
z
" id="DejaVuSans-52"/>
      </defs>
      <g transform="translate(20.878125 145.968517)scale(0.1 -0.1)">
       <use xlink:href="#DejaVuSans-48"/>
       <use x="63.623047" xlink:href="#DejaVuSans-46"/>
       <use x="95.410156" xlink:href="#DejaVuSans-52"/>
      </g>
     </g>
    </g>
    <g id="ytick_4">
     <g id="line2d_5">
      <g>
       <use style="stroke:#000000;stroke-width:0.8;" x="43.78125" xlink:href="#me343437da3" y="69.662907"/>
      </g>
     </g>
     <g id="text_6">
      <!-- 0.6 -->
      <defs>
       <path d="M 33.015625 40.375 
Q 26.375 40.375 22.484375 35.828125 
Q 18.609375 31.296875 18.609375 23.390625 
Q 18.609375 15.53125 22.484375 10.953125 
Q 26.375 6.390625 33.015625 6.390625 
Q 39.65625 6.390625 43.53125 10.953125 
Q 47.40625 15.53125 47.40625 23.390625 
Q 47.40625 31.296875 43.53125 35.828125 
Q 39.65625 40.375 33.015625 40.375 
z
M 52.59375 71.296875 
L 52.59375 62.3125 
Q 48.875 64.0625 45.09375 64.984375 
Q 41.3125 65.921875 37.59375 65.921875 
Q 27.828125 65.921875 22.671875 59.328125 
Q 17.53125 52.734375 16.796875 39.40625 
Q 19.671875 43.65625 24.015625 45.921875 
Q 28.375 48.1875 33.59375 48.1875 
Q 44.578125 48.1875 50.953125 41.515625 
Q 57.328125 34.859375 57.328125 23.390625 
Q 57.328125 12.15625 50.6875 5.359375 
Q 44.046875 -1.421875 33.015625 -1.421875 
Q 20.359375 -1.421875 13.671875 8.265625 
Q 6.984375 17.96875 6.984375 36.375 
Q 6.984375 53.65625 15.1875 63.9375 
Q 23.390625 74.21875 37.203125 74.21875 
Q 40.921875 74.21875 44.703125 73.484375 
Q 48.484375 72.75 52.59375 71.296875 
z
" id="DejaVuSans-54"/>
      </defs>
      <g transform="translate(20.878125 73.462126)scale(0.1 -0.1)">
       <use xlink:href="#DejaVuSans-48"/>
       <use x="63.623047" xlink:href="#DejaVuSans-46"/>
       <use x="95.410156" xlink:href="#DejaVuSans-54"/>
      </g>
     </g>
    </g>
    <g id="text_7">
     <!-- GW -->
     <defs>
      <path d="M 59.515625 10.40625 
L 59.515625 29.984375 
L 43.40625 29.984375 
L 43.40625 38.09375 
L 69.28125 38.09375 
L 69.28125 6.78125 
Q 63.578125 2.734375 56.6875 0.65625 
Q 49.8125 -1.421875 42 -1.421875 
Q 24.90625 -1.421875 15.25 8.5625 
Q 5.609375 18.5625 5.609375 36.375 
Q 5.609375 54.25 15.25 64.234375 
Q 24.90625 74.21875 42 74.21875 
Q 49.125 74.21875 55.546875 72.453125 
Q 61.96875 70.703125 67.390625 67.28125 
L 67.390625 56.78125 
Q 61.921875 61.421875 55.765625 63.765625 
Q 49.609375 66.109375 42.828125 66.109375 
Q 29.4375 66.109375 22.71875 58.640625 
Q 16.015625 51.171875 16.015625 36.375 
Q 16.015625 21.625 22.71875 14.15625 
Q 29.4375 6.6875 42.828125 6.6875 
Q 48.046875 6.6875 52.140625 7.59375 
Q 56.25 8.5 59.515625 10.40625 
z
" id="DejaVuSans-71"/>
      <path d="M 3.328125 72.90625 
L 13.28125 72.90625 
L 28.609375 11.28125 
L 43.890625 72.90625 
L 54.984375 72.90625 
L 70.3125 11.28125 
L 85.59375 72.90625 
L 95.609375 72.90625 
L 77.296875 0 
L 64.890625 0 
L 49.515625 63.28125 
L 33.984375 0 
L 21.578125 0 
z
" id="DejaVuSans-87"/>
     </defs>
     <g transform="translate(14.798438 199.735625)rotate(-90)scale(0.1 -0.1)">
      <use xlink:href="#DejaVuSans-71"/>
      <use x="77.490234" xlink:href="#DejaVuSans-87"/>
     </g>
    </g>
   </g>
   <g id="line2d_6">
    <path clip-path="url(#pdabf56bd0c)" d="M 43.78125 142.032065 
L 53.279122 154.521291 
L 62.776995 161.739302 
L 72.274867 166.473969 
L 81.772739 169.613496 
L 91.270612 167.692077 
L 100.768484 157.950843 
L 110.266356 147.698439 
L 119.764229 135.6225 
L 129.262101 136.510703 
L 138.759973 138.910665 
L 148.257846 138.258107 
L 157.755718 139.690108 
L 167.25359 131.489636 
L 176.751463 136.053913 
L 186.249335 146.603593 
L 195.747207 150.330421 
L 205.24508 150.218036 
L 214.742952 130.054009 
L 224.240824 96.436421 
L 233.738697 99.307674 
L 243.236569 108.548613 
L 252.734441 131.82679 
L 262.232314 154.785939 
L 271.730186 171.115753 
L 281.228059 176.270957 
L 290.725931 179.446737 
L 300.223803 182.339742 
L 309.721676 182.59714 
L 319.219548 176.274583 
L 328.71742 157.531681 
L 338.215293 140.557934 
L 347.713165 121.325614 
L 357.211037 101.839521 
L 366.70891 102.013537 
L 376.206782 105.783869 
L 385.704654 101.052827 
L 395.202527 107.186868 
L 404.700399 107.632782 
L 414.198271 103.289649 
L 423.696144 104.362744 
L 433.194016 109.608581 
L 442.691888 94.726644 
L 452.189761 52.317656 
L 461.687633 68.917995 
L 471.185505 74.914273 
L 480.683378 104.348243 
L 490.18125 129.087423 
" style="fill:none;stroke:#000000;stroke-linecap:square;stroke-opacity:0.5;stroke-width:3;"/>
   </g>
   <g id="patch_3">
    <path d="M 43.78125 357.237656 
L 43.78125 24.597656 
" style="fill:none;stroke:#000000;stroke-linecap:square;stroke-linejoin:miter;stroke-width:0.8;"/>
   </g>
   <g id="patch_4">
    <path d="M 490.18125 357.237656 
L 490.18125 24.597656 
" style="fill:none;stroke:#000000;stroke-linecap:square;stroke-linejoin:miter;stroke-width:0.8;"/>
   </g>
   <g id="patch_5">
    <path d="M 43.78125 357.237656 
L 490.18125 357.237656 
" style="fill:none;stroke:#000000;stroke-linecap:square;stroke-linejoin:miter;stroke-width:0.8;"/>
   </g>
   <g id="patch_6">
    <path d="M 43.78125 24.597656 
L 490.18125 24.597656 
" style="fill:none;stroke:#000000;stroke-linecap:square;stroke-linejoin:miter;stroke-width:0.8;"/>
   </g>
   <g id="text_8">
    <!-- Nairobi Region Dispatch -->
    <defs>
     <path d="M 9.8125 72.90625 
L 23.09375 72.90625 
L 55.421875 11.921875 
L 55.421875 72.90625 
L 64.984375 72.90625 
L 64.984375 0 
L 51.703125 0 
L 19.390625 60.984375 
L 19.390625 0 
L 9.8125 0 
z
" id="DejaVuSans-78"/>
     <path d="M 9.421875 54.6875 
L 18.40625 54.6875 
L 18.40625 0 
L 9.421875 0 
z
M 9.421875 75.984375 
L 18.40625 75.984375 
L 18.40625 64.59375 
L 9.421875 64.59375 
z
" id="DejaVuSans-105"/>
     <path d="M 30.609375 48.390625 
Q 23.390625 48.390625 19.1875 42.75 
Q 14.984375 37.109375 14.984375 27.296875 
Q 14.984375 17.484375 19.15625 11.84375 
Q 23.34375 6.203125 30.609375 6.203125 
Q 37.796875 6.203125 41.984375 11.859375 
Q 46.1875 17.53125 46.1875 27.296875 
Q 46.1875 37.015625 41.984375 42.703125 
Q 37.796875 48.390625 30.609375 48.390625 
z
M 30.609375 56 
Q 42.328125 56 49.015625 48.375 
Q 55.71875 40.765625 55.71875 27.296875 
Q 55.71875 13.875 49.015625 6.21875 
Q 42.328125 -1.421875 30.609375 -1.421875 
Q 18.84375 -1.421875 12.171875 6.21875 
Q 5.515625 13.875 5.515625 27.296875 
Q 5.515625 40.765625 12.171875 48.375 
Q 18.84375 56 30.609375 56 
z
" id="DejaVuSans-111"/>
     <path d="M 48.6875 27.296875 
Q 48.6875 37.203125 44.609375 42.84375 
Q 40.53125 48.484375 33.40625 48.484375 
Q 26.265625 48.484375 22.1875 42.84375 
Q 18.109375 37.203125 18.109375 27.296875 
Q 18.109375 17.390625 22.1875 11.75 
Q 26.265625 6.109375 33.40625 6.109375 
Q 40.53125 6.109375 44.609375 11.75 
Q 48.6875 17.390625 48.6875 27.296875 
z
M 18.109375 46.390625 
Q 20.953125 51.265625 25.265625 53.625 
Q 29.59375 56 35.59375 56 
Q 45.5625 56 51.78125 48.09375 
Q 58.015625 40.1875 58.015625 27.296875 
Q 58.015625 14.40625 51.78125 6.484375 
Q 45.5625 -1.421875 35.59375 -1.421875 
Q 29.59375 -1.421875 25.265625 0.953125 
Q 20.953125 3.328125 18.109375 8.203125 
L 18.109375 0 
L 9.078125 0 
L 9.078125 75.984375 
L 18.109375 75.984375 
z
" id="DejaVuSans-98"/>
     <path id="DejaVuSans-32"/>
     <path d="M 44.390625 34.1875 
Q 47.5625 33.109375 50.5625 29.59375 
Q 53.5625 26.078125 56.59375 19.921875 
L 66.609375 0 
L 56 0 
L 46.6875 18.703125 
Q 43.0625 26.03125 39.671875 28.421875 
Q 36.28125 30.8125 30.421875 30.8125 
L 19.671875 30.8125 
L 19.671875 0 
L 9.8125 0 
L 9.8125 72.90625 
L 32.078125 72.90625 
Q 44.578125 72.90625 50.734375 67.671875 
Q 56.890625 62.453125 56.890625 51.90625 
Q 56.890625 45.015625 53.6875 40.46875 
Q 50.484375 35.9375 44.390625 34.1875 
z
M 19.671875 64.796875 
L 19.671875 38.921875 
L 32.078125 38.921875 
Q 39.203125 38.921875 42.84375 42.21875 
Q 46.484375 45.515625 46.484375 51.90625 
Q 46.484375 58.296875 42.84375 61.546875 
Q 39.203125 64.796875 32.078125 64.796875 
z
" id="DejaVuSans-82"/>
     <path d="M 45.40625 27.984375 
Q 45.40625 37.75 41.375 43.109375 
Q 37.359375 48.484375 30.078125 48.484375 
Q 22.859375 48.484375 18.828125 43.109375 
Q 14.796875 37.75 14.796875 27.984375 
Q 14.796875 18.265625 18.828125 12.890625 
Q 22.859375 7.515625 30.078125 7.515625 
Q 37.359375 7.515625 41.375 12.890625 
Q 45.40625 18.265625 45.40625 27.984375 
z
M 54.390625 6.78125 
Q 54.390625 -7.171875 48.1875 -13.984375 
Q 42 -20.796875 29.203125 -20.796875 
Q 24.46875 -20.796875 20.265625 -20.09375 
Q 16.0625 -19.390625 12.109375 -17.921875 
L 12.109375 -9.1875 
Q 16.0625 -11.328125 19.921875 -12.34375 
Q 23.78125 -13.375 27.78125 -13.375 
Q 36.625 -13.375 41.015625 -8.765625 
Q 45.40625 -4.15625 45.40625 5.171875 
L 45.40625 9.625 
Q 42.625 4.78125 38.28125 2.390625 
Q 33.9375 0 27.875 0 
Q 17.828125 0 11.671875 7.65625 
Q 5.515625 15.328125 5.515625 27.984375 
Q 5.515625 40.671875 11.671875 48.328125 
Q 17.828125 56 27.875 56 
Q 33.9375 56 38.28125 53.609375 
Q 42.625 51.21875 45.40625 46.390625 
L 45.40625 54.6875 
L 54.390625 54.6875 
z
" id="DejaVuSans-103"/>
     <path d="M 44.28125 53.078125 
L 44.28125 44.578125 
Q 40.484375 46.53125 36.375 47.5 
Q 32.28125 48.484375 27.875 48.484375 
Q 21.1875 48.484375 17.84375 46.4375 
Q 14.5 44.390625 14.5 40.28125 
Q 14.5 37.15625 16.890625 35.375 
Q 19.28125 33.59375 26.515625 31.984375 
L 29.59375 31.296875 
Q 39.15625 29.25 43.1875 25.515625 
Q 47.21875 21.78125 47.21875 15.09375 
Q 47.21875 7.46875 41.1875 3.015625 
Q 35.15625 -1.421875 24.609375 -1.421875 
Q 20.21875 -1.421875 15.453125 -0.5625 
Q 10.6875 0.296875 5.421875 2 
L 5.421875 11.28125 
Q 10.40625 8.6875 15.234375 7.390625 
Q 20.0625 6.109375 24.8125 6.109375 
Q 31.15625 6.109375 34.5625 8.28125 
Q 37.984375 10.453125 37.984375 14.40625 
Q 37.984375 18.0625 35.515625 20.015625 
Q 33.0625 21.96875 24.703125 23.78125 
L 21.578125 24.515625 
Q 13.234375 26.265625 9.515625 29.90625 
Q 5.8125 33.546875 5.8125 39.890625 
Q 5.8125 47.609375 11.28125 51.796875 
Q 16.75 56 26.8125 56 
Q 31.78125 56 36.171875 55.265625 
Q 40.578125 54.546875 44.28125 53.078125 
z
" id="DejaVuSans-115"/>
     <path d="M 18.109375 8.203125 
L 18.109375 -20.796875 
L 9.078125 -20.796875 
L 9.078125 54.6875 
L 18.109375 54.6875 
L 18.109375 46.390625 
Q 20.953125 51.265625 25.265625 53.625 
Q 29.59375 56 35.59375 56 
Q 45.5625 56 51.78125 48.09375 
Q 58.015625 40.1875 58.015625 27.296875 
Q 58.015625 14.40625 51.78125 6.484375 
Q 45.5625 -1.421875 35.59375 -1.421875 
Q 29.59375 -1.421875 25.265625 0.953125 
Q 20.953125 3.328125 18.109375 8.203125 
z
M 48.6875 27.296875 
Q 48.6875 37.203125 44.609375 42.84375 
Q 40.53125 48.484375 33.40625 48.484375 
Q 26.265625 48.484375 22.1875 42.84375 
Q 18.109375 37.203125 18.109375 27.296875 
Q 18.109375 17.390625 22.1875 11.75 
Q 26.265625 6.109375 33.40625 6.109375 
Q 40.53125 6.109375 44.609375 11.75 
Q 48.6875 17.390625 48.6875 27.296875 
z
" id="DejaVuSans-112"/>
     <path d="M 48.78125 52.59375 
L 48.78125 44.1875 
Q 44.96875 46.296875 41.140625 47.34375 
Q 37.3125 48.390625 33.40625 48.390625 
Q 24.65625 48.390625 19.8125 42.84375 
Q 14.984375 37.3125 14.984375 27.296875 
Q 14.984375 17.28125 19.8125 11.734375 
Q 24.65625 6.203125 33.40625 6.203125 
Q 37.3125 6.203125 41.140625 7.25 
Q 44.96875 8.296875 48.78125 10.40625 
L 48.78125 2.09375 
Q 45.015625 0.34375 40.984375 -0.53125 
Q 36.96875 -1.421875 32.421875 -1.421875 
Q 20.0625 -1.421875 12.78125 6.34375 
Q 5.515625 14.109375 5.515625 27.296875 
Q 5.515625 40.671875 12.859375 48.328125 
Q 20.21875 56 33.015625 56 
Q 37.15625 56 41.109375 55.140625 
Q 45.0625 54.296875 48.78125 52.59375 
z
" id="DejaVuSans-99"/>
     <path d="M 54.890625 33.015625 
L 54.890625 0 
L 45.90625 0 
L 45.90625 32.71875 
Q 45.90625 40.484375 42.875 44.328125 
Q 39.84375 48.1875 33.796875 48.1875 
Q 26.515625 48.1875 22.3125 43.546875 
Q 18.109375 38.921875 18.109375 30.90625 
L 18.109375 0 
L 9.078125 0 
L 9.078125 75.984375 
L 18.109375 75.984375 
L 18.109375 46.1875 
Q 21.34375 51.125 25.703125 53.5625 
Q 30.078125 56 35.796875 56 
Q 45.21875 56 50.046875 50.171875 
Q 54.890625 44.34375 54.890625 33.015625 
z
" id="DejaVuSans-104"/>
    </defs>
    <g transform="translate(176.958984 18.597656)scale(0.15 -0.15)">
     <use xlink:href="#DejaVuSans-78"/>
     <use x="74.804688" xlink:href="#DejaVuSans-97"/>
     <use x="136.083984" xlink:href="#DejaVuSans-105"/>
     <use x="163.867188" xlink:href="#DejaVuSans-114"/>
     <use x="202.730469" xlink:href="#DejaVuSans-111"/>
     <use x="263.912109" xlink:href="#DejaVuSans-98"/>
     <use x="327.388672" xlink:href="#DejaVuSans-105"/>
     <use x="355.171875" xlink:href="#DejaVuSans-32"/>
     <use x="386.958984" xlink:href="#DejaVuSans-82"/>
     <use x="451.941406" xlink:href="#DejaVuSans-101"/>
     <use x="513.464844" xlink:href="#DejaVuSans-103"/>
     <use x="576.941406" xlink:href="#DejaVuSans-105"/>
     <use x="604.724609" xlink:href="#DejaVuSans-111"/>
     <use x="665.90625" xlink:href="#DejaVuSans-110"/>
     <use x="729.285156" xlink:href="#DejaVuSans-32"/>
     <use x="761.072266" xlink:href="#DejaVuSans-68"/>
     <use x="838.074219" xlink:href="#DejaVuSans-105"/>
     <use x="865.857422" xlink:href="#DejaVuSans-115"/>
     <use x="917.957031" xlink:href="#DejaVuSans-112"/>
     <use x="981.433594" xlink:href="#DejaVuSans-97"/>
     <use x="1042.712891" xlink:href="#DejaVuSans-116"/>
     <use x="1081.921875" xlink:href="#DejaVuSans-99"/>
     <use x="1136.902344" xlink:href="#DejaVuSans-104"/>
    </g>
   </g>
   <g id="legend_1">
    <g id="patch_7">
     <path d="M 514.50125 233.091406 
L 655.787188 233.091406 
Q 657.787188 233.091406 657.787188 231.091406 
L 657.787188 26.597656 
Q 657.787188 24.597656 655.787188 24.597656 
L 514.50125 24.597656 
Q 512.50125 24.597656 512.50125 26.597656 
L 512.50125 231.091406 
Q 512.50125 233.091406 514.50125 233.091406 
z
" style="fill:#ffffff;opacity:0.8;stroke:#cccccc;stroke-linejoin:miter;"/>
    </g>
    <g id="line2d_7">
     <path d="M 516.50125 32.696094 
L 536.50125 32.696094 
" style="fill:none;stroke:#000000;stroke-linecap:square;stroke-opacity:0.5;stroke-width:3;"/>
    </g>
    <g id="line2d_8"/>
    <g id="text_9">
     <!-- Demand -->
     <defs>
      <path d="M 52 44.1875 
Q 55.375 50.25 60.0625 53.125 
Q 64.75 56 71.09375 56 
Q 79.640625 56 84.28125 50.015625 
Q 88.921875 44.046875 88.921875 33.015625 
L 88.921875 0 
L 79.890625 0 
L 79.890625 32.71875 
Q 79.890625 40.578125 77.09375 44.375 
Q 74.3125 48.1875 68.609375 48.1875 
Q 61.625 48.1875 57.5625 43.546875 
Q 53.515625 38.921875 53.515625 30.90625 
L 53.515625 0 
L 44.484375 0 
L 44.484375 32.71875 
Q 44.484375 40.625 41.703125 44.40625 
Q 38.921875 48.1875 33.109375 48.1875 
Q 26.21875 48.1875 22.15625 43.53125 
Q 18.109375 38.875 18.109375 30.90625 
L 18.109375 0 
L 9.078125 0 
L 9.078125 54.6875 
L 18.109375 54.6875 
L 18.109375 46.1875 
Q 21.1875 51.21875 25.484375 53.609375 
Q 29.78125 56 35.6875 56 
Q 41.65625 56 45.828125 52.96875 
Q 50 49.953125 52 44.1875 
z
" id="DejaVuSans-109"/>
      <path d="M 45.40625 46.390625 
L 45.40625 75.984375 
L 54.390625 75.984375 
L 54.390625 0 
L 45.40625 0 
L 45.40625 8.203125 
Q 42.578125 3.328125 38.25 0.953125 
Q 33.9375 -1.421875 27.875 -1.421875 
Q 17.96875 -1.421875 11.734375 6.484375 
Q 5.515625 14.40625 5.515625 27.296875 
Q 5.515625 40.1875 11.734375 48.09375 
Q 17.96875 56 27.875 56 
Q 33.9375 56 38.25 53.625 
Q 42.578125 51.265625 45.40625 46.390625 
z
M 14.796875 27.296875 
Q 14.796875 17.390625 18.875 11.75 
Q 22.953125 6.109375 30.078125 6.109375 
Q 37.203125 6.109375 41.296875 11.75 
Q 45.40625 17.390625 45.40625 27.296875 
Q 45.40625 37.203125 41.296875 42.84375 
Q 37.203125 48.484375 30.078125 48.484375 
Q 22.953125 48.484375 18.875 42.84375 
Q 14.796875 37.203125 14.796875 27.296875 
z
" id="DejaVuSans-100"/>
     </defs>
     <g transform="translate(544.50125 36.196094)scale(0.1 -0.1)">
      <use xlink:href="#DejaVuSans-68"/>
      <use x="77.001953" xlink:href="#DejaVuSans-101"/>
      <use x="138.525391" xlink:href="#DejaVuSans-109"/>
      <use x="235.9375" xlink:href="#DejaVuSans-97"/>
      <use x="297.216797" xlink:href="#DejaVuSans-110"/>
      <use x="360.595703" xlink:href="#DejaVuSans-100"/>
     </g>
    </g>
    <g id="patch_8">
     <path d="M 516.50125 50.874219 
L 536.50125 50.874219 
L 536.50125 43.874219 
L 516.50125 43.874219 
z
" style="fill:#ffb30f;"/>
    </g>
    <g id="text_10">
     <!-- Geothermal -->
     <defs>
      <path d="M 9.421875 75.984375 
L 18.40625 75.984375 
L 18.40625 0 
L 9.421875 0 
z
" id="DejaVuSans-108"/>
     </defs>
     <g transform="translate(544.50125 50.874219)scale(0.1 -0.1)">
      <use xlink:href="#DejaVuSans-71"/>
      <use x="77.490234" xlink:href="#DejaVuSans-101"/>
      <use x="139.013672" xlink:href="#DejaVuSans-111"/>
      <use x="200.195312" xlink:href="#DejaVuSans-116"/>
      <use x="239.404297" xlink:href="#DejaVuSans-104"/>
      <use x="302.783203" xlink:href="#DejaVuSans-101"/>
      <use x="364.306641" xlink:href="#DejaVuSans-114"/>
      <use x="403.669922" xlink:href="#DejaVuSans-109"/>
      <use x="501.082031" xlink:href="#DejaVuSans-97"/>
      <use x="562.361328" xlink:href="#DejaVuSans-108"/>
     </g>
    </g>
    <g id="patch_9">
     <path d="M 516.50125 65.552344 
L 536.50125 65.552344 
L 536.50125 58.552344 
L 516.50125 58.552344 
z
" style="fill:#2980b9;"/>
    </g>
    <g id="text_11">
     <!-- Large Hydro -->
     <defs>
      <path d="M 9.8125 72.90625 
L 19.671875 72.90625 
L 19.671875 8.296875 
L 55.171875 8.296875 
L 55.171875 0 
L 9.8125 0 
z
" id="DejaVuSans-76"/>
      <path d="M 9.8125 72.90625 
L 19.671875 72.90625 
L 19.671875 43.015625 
L 55.515625 43.015625 
L 55.515625 72.90625 
L 65.375 72.90625 
L 65.375 0 
L 55.515625 0 
L 55.515625 34.71875 
L 19.671875 34.71875 
L 19.671875 0 
L 9.8125 0 
z
" id="DejaVuSans-72"/>
     </defs>
     <g transform="translate(544.50125 65.552344)scale(0.1 -0.1)">
      <use xlink:href="#DejaVuSans-76"/>
      <use x="55.712891" xlink:href="#DejaVuSans-97"/>
      <use x="116.992188" xlink:href="#DejaVuSans-114"/>
      <use x="156.355469" xlink:href="#DejaVuSans-103"/>
      <use x="219.832031" xlink:href="#DejaVuSans-101"/>
      <use x="281.355469" xlink:href="#DejaVuSans-32"/>
      <use x="313.142578" xlink:href="#DejaVuSans-72"/>
      <use x="388.337891" xlink:href="#DejaVuSans-121"/>
      <use x="447.517578" xlink:href="#DejaVuSans-100"/>
      <use x="510.994141" xlink:href="#DejaVuSans-114"/>
      <use x="549.857422" xlink:href="#DejaVuSans-111"/>
     </g>
    </g>
    <g id="patch_10">
     <path d="M 516.50125 80.230469 
L 536.50125 80.230469 
L 536.50125 73.230469 
L 516.50125 73.230469 
z
" style="fill:#3498db;"/>
    </g>
    <g id="text_12">
     <!-- Small Hydro -->
     <defs>
      <path d="M 53.515625 70.515625 
L 53.515625 60.890625 
Q 47.90625 63.578125 42.921875 64.890625 
Q 37.9375 66.21875 33.296875 66.21875 
Q 25.25 66.21875 20.875 63.09375 
Q 16.5 59.96875 16.5 54.203125 
Q 16.5 49.359375 19.40625 46.890625 
Q 22.3125 44.4375 30.421875 42.921875 
L 36.375 41.703125 
Q 47.40625 39.59375 52.65625 34.296875 
Q 57.90625 29 57.90625 20.125 
Q 57.90625 9.515625 50.796875 4.046875 
Q 43.703125 -1.421875 29.984375 -1.421875 
Q 24.8125 -1.421875 18.96875 -0.25 
Q 13.140625 0.921875 6.890625 3.21875 
L 6.890625 13.375 
Q 12.890625 10.015625 18.65625 8.296875 
Q 24.421875 6.59375 29.984375 6.59375 
Q 38.421875 6.59375 43.015625 9.90625 
Q 47.609375 13.234375 47.609375 19.390625 
Q 47.609375 24.75 44.3125 27.78125 
Q 41.015625 30.8125 33.5 32.328125 
L 27.484375 33.5 
Q 16.453125 35.6875 11.515625 40.375 
Q 6.59375 45.0625 6.59375 53.421875 
Q 6.59375 63.09375 13.40625 68.65625 
Q 20.21875 74.21875 32.171875 74.21875 
Q 37.3125 74.21875 42.625 73.28125 
Q 47.953125 72.359375 53.515625 70.515625 
z
" id="DejaVuSans-83"/>
     </defs>
     <g transform="translate(544.50125 80.230469)scale(0.1 -0.1)">
      <use xlink:href="#DejaVuSans-83"/>
      <use x="63.476562" xlink:href="#DejaVuSans-109"/>
      <use x="160.888672" xlink:href="#DejaVuSans-97"/>
      <use x="222.167969" xlink:href="#DejaVuSans-108"/>
      <use x="249.951172" xlink:href="#DejaVuSans-108"/>
      <use x="277.734375" xlink:href="#DejaVuSans-32"/>
      <use x="309.521484" xlink:href="#DejaVuSans-72"/>
      <use x="384.716797" xlink:href="#DejaVuSans-121"/>
      <use x="443.896484" xlink:href="#DejaVuSans-100"/>
      <use x="507.373047" xlink:href="#DejaVuSans-114"/>
      <use x="546.236328" xlink:href="#DejaVuSans-111"/>
     </g>
    </g>
    <g id="patch_11">
     <path d="M 516.50125 94.908594 
L 536.50125 94.908594 
L 536.50125 87.908594 
L 516.50125 87.908594 
z
" style="fill:#28b463;"/>
    </g>
    <g id="text_13">
     <!-- Onshore Wind -->
     <defs>
      <path d="M 39.40625 66.21875 
Q 28.65625 66.21875 22.328125 58.203125 
Q 16.015625 50.203125 16.015625 36.375 
Q 16.015625 22.609375 22.328125 14.59375 
Q 28.65625 6.59375 39.40625 6.59375 
Q 50.140625 6.59375 56.421875 14.59375 
Q 62.703125 22.609375 62.703125 36.375 
Q 62.703125 50.203125 56.421875 58.203125 
Q 50.140625 66.21875 39.40625 66.21875 
z
M 39.40625 74.21875 
Q 54.734375 74.21875 63.90625 63.9375 
Q 73.09375 53.65625 73.09375 36.375 
Q 73.09375 19.140625 63.90625 8.859375 
Q 54.734375 -1.421875 39.40625 -1.421875 
Q 24.03125 -1.421875 14.8125 8.828125 
Q 5.609375 19.09375 5.609375 36.375 
Q 5.609375 53.65625 14.8125 63.9375 
Q 24.03125 74.21875 39.40625 74.21875 
z
" id="DejaVuSans-79"/>
     </defs>
     <g transform="translate(544.50125 94.908594)scale(0.1 -0.1)">
      <use xlink:href="#DejaVuSans-79"/>
      <use x="78.710938" xlink:href="#DejaVuSans-110"/>
      <use x="142.089844" xlink:href="#DejaVuSans-115"/>
      <use x="194.189453" xlink:href="#DejaVuSans-104"/>
      <use x="257.568359" xlink:href="#DejaVuSans-111"/>
      <use x="318.75" xlink:href="#DejaVuSans-114"/>
      <use x="357.613281" xlink:href="#DejaVuSans-101"/>
      <use x="419.136719" xlink:href="#DejaVuSans-32"/>
      <use x="450.923828" xlink:href="#DejaVuSans-87"/>
      <use x="547.550781" xlink:href="#DejaVuSans-105"/>
      <use x="575.333984" xlink:href="#DejaVuSans-110"/>
      <use x="638.712891" xlink:href="#DejaVuSans-100"/>
     </g>
    </g>
    <g id="patch_12">
     <path d="M 516.50125 109.586719 
L 536.50125 109.586719 
L 536.50125 102.586719 
L 516.50125 102.586719 
z
" style="fill:#494949;"/>
    </g>
    <g id="text_14">
     <!-- Heavy Fuel Oil -->
     <defs>
      <path d="M 2.984375 54.6875 
L 12.5 54.6875 
L 29.59375 8.796875 
L 46.6875 54.6875 
L 56.203125 54.6875 
L 35.6875 0 
L 23.484375 0 
z
" id="DejaVuSans-118"/>
      <path d="M 9.8125 72.90625 
L 51.703125 72.90625 
L 51.703125 64.59375 
L 19.671875 64.59375 
L 19.671875 43.109375 
L 48.578125 43.109375 
L 48.578125 34.8125 
L 19.671875 34.8125 
L 19.671875 0 
L 9.8125 0 
z
" id="DejaVuSans-70"/>
     </defs>
     <g transform="translate(544.50125 109.586719)scale(0.1 -0.1)">
      <use xlink:href="#DejaVuSans-72"/>
      <use x="75.195312" xlink:href="#DejaVuSans-101"/>
      <use x="136.71875" xlink:href="#DejaVuSans-97"/>
      <use x="197.998047" xlink:href="#DejaVuSans-118"/>
      <use x="257.177734" xlink:href="#DejaVuSans-121"/>
      <use x="316.357422" xlink:href="#DejaVuSans-32"/>
      <use x="348.144531" xlink:href="#DejaVuSans-70"/>
      <use x="400.164062" xlink:href="#DejaVuSans-117"/>
      <use x="463.542969" xlink:href="#DejaVuSans-101"/>
      <use x="525.066406" xlink:href="#DejaVuSans-108"/>
      <use x="552.849609" xlink:href="#DejaVuSans-32"/>
      <use x="584.636719" xlink:href="#DejaVuSans-79"/>
      <use x="663.347656" xlink:href="#DejaVuSans-105"/>
      <use x="691.130859" xlink:href="#DejaVuSans-108"/>
     </g>
    </g>
    <g id="patch_13">
     <path d="M 516.50125 124.264844 
L 536.50125 124.264844 
L 536.50125 117.264844 
L 516.50125 117.264844 
z
" style="fill:#7c7c7c;"/>
    </g>
    <g id="text_15">
     <!-- Gas Turbine -->
     <defs>
      <path d="M -0.296875 72.90625 
L 61.375 72.90625 
L 61.375 64.59375 
L 35.5 64.59375 
L 35.5 0 
L 25.59375 0 
L 25.59375 64.59375 
L -0.296875 64.59375 
z
" id="DejaVuSans-84"/>
     </defs>
     <g transform="translate(544.50125 124.264844)scale(0.1 -0.1)">
      <use xlink:href="#DejaVuSans-71"/>
      <use x="77.490234" xlink:href="#DejaVuSans-97"/>
      <use x="138.769531" xlink:href="#DejaVuSans-115"/>
      <use x="190.869141" xlink:href="#DejaVuSans-32"/>
      <use x="222.65625" xlink:href="#DejaVuSans-84"/>
      <use x="268.615234" xlink:href="#DejaVuSans-117"/>
      <use x="331.994141" xlink:href="#DejaVuSans-114"/>
      <use x="373.107422" xlink:href="#DejaVuSans-98"/>
      <use x="436.583984" xlink:href="#DejaVuSans-105"/>
      <use x="464.367188" xlink:href="#DejaVuSans-110"/>
      <use x="527.746094" xlink:href="#DejaVuSans-101"/>
     </g>
    </g>
    <g id="patch_14">
     <path d="M 516.50125 138.942969 
L 536.50125 138.942969 
L 536.50125 131.942969 
L 516.50125 131.942969 
z
" style="fill:#ba4a00;"/>
    </g>
    <g id="text_16">
     <!-- Biomass -->
     <defs>
      <path d="M 19.671875 34.8125 
L 19.671875 8.109375 
L 35.5 8.109375 
Q 43.453125 8.109375 47.28125 11.40625 
Q 51.125 14.703125 51.125 21.484375 
Q 51.125 28.328125 47.28125 31.5625 
Q 43.453125 34.8125 35.5 34.8125 
z
M 19.671875 64.796875 
L 19.671875 42.828125 
L 34.28125 42.828125 
Q 41.5 42.828125 45.03125 45.53125 
Q 48.578125 48.25 48.578125 53.8125 
Q 48.578125 59.328125 45.03125 62.0625 
Q 41.5 64.796875 34.28125 64.796875 
z
M 9.8125 72.90625 
L 35.015625 72.90625 
Q 46.296875 72.90625 52.390625 68.21875 
Q 58.5 63.53125 58.5 54.890625 
Q 58.5 48.1875 55.375 44.234375 
Q 52.25 40.28125 46.1875 39.3125 
Q 53.46875 37.75 57.5 32.78125 
Q 61.53125 27.828125 61.53125 20.40625 
Q 61.53125 10.640625 54.890625 5.3125 
Q 48.25 0 35.984375 0 
L 9.8125 0 
z
" id="DejaVuSans-66"/>
     </defs>
     <g transform="translate(544.50125 138.942969)scale(0.1 -0.1)">
      <use xlink:href="#DejaVuSans-66"/>
      <use x="68.603516" xlink:href="#DejaVuSans-105"/>
      <use x="96.386719" xlink:href="#DejaVuSans-111"/>
      <use x="157.568359" xlink:href="#DejaVuSans-109"/>
      <use x="254.980469" xlink:href="#DejaVuSans-97"/>
      <use x="316.259766" xlink:href="#DejaVuSans-115"/>
      <use x="368.359375" xlink:href="#DejaVuSans-115"/>
     </g>
    </g>
    <g id="patch_15">
     <path d="M 516.50125 153.621094 
L 536.50125 153.621094 
L 536.50125 146.621094 
L 516.50125 146.621094 
z
" style="fill:#75ee6b;"/>
    </g>
    <g id="text_17">
     <!-- Exchange From WSTR -->
     <defs>
      <path d="M 9.8125 72.90625 
L 55.90625 72.90625 
L 55.90625 64.59375 
L 19.671875 64.59375 
L 19.671875 43.015625 
L 54.390625 43.015625 
L 54.390625 34.71875 
L 19.671875 34.71875 
L 19.671875 8.296875 
L 56.78125 8.296875 
L 56.78125 0 
L 9.8125 0 
z
" id="DejaVuSans-69"/>
      <path d="M 54.890625 54.6875 
L 35.109375 28.078125 
L 55.90625 0 
L 45.3125 0 
L 29.390625 21.484375 
L 13.484375 0 
L 2.875 0 
L 24.125 28.609375 
L 4.6875 54.6875 
L 15.28125 54.6875 
L 29.78125 35.203125 
L 44.28125 54.6875 
z
" id="DejaVuSans-120"/>
     </defs>
     <g transform="translate(544.50125 153.621094)scale(0.1 -0.1)">
      <use xlink:href="#DejaVuSans-69"/>
      <use x="63.183594" xlink:href="#DejaVuSans-120"/>
      <use x="120.613281" xlink:href="#DejaVuSans-99"/>
      <use x="175.59375" xlink:href="#DejaVuSans-104"/>
      <use x="238.972656" xlink:href="#DejaVuSans-97"/>
      <use x="300.251953" xlink:href="#DejaVuSans-110"/>
      <use x="363.630859" xlink:href="#DejaVuSans-103"/>
      <use x="427.107422" xlink:href="#DejaVuSans-101"/>
      <use x="488.630859" xlink:href="#DejaVuSans-32"/>
      <use x="520.417969" xlink:href="#DejaVuSans-70"/>
      <use x="570.6875" xlink:href="#DejaVuSans-114"/>
      <use x="609.550781" xlink:href="#DejaVuSans-111"/>
      <use x="670.732422" xlink:href="#DejaVuSans-109"/>
      <use x="768.144531" xlink:href="#DejaVuSans-32"/>
      <use x="799.931641" xlink:href="#DejaVuSans-87"/>
      <use x="898.808594" xlink:href="#DejaVuSans-83"/>
      <use x="962.285156" xlink:href="#DejaVuSans-84"/>
      <use x="1023.369141" xlink:href="#DejaVuSans-82"/>
     </g>
    </g>
    <g id="patch_16">
     <path d="M 516.50125 168.299219 
L 536.50125 168.299219 
L 536.50125 161.299219 
L 516.50125 161.299219 
z
" style="fill:#606fed;"/>
    </g>
    <g id="text_18">
     <!-- Exchange From MTKR -->
     <defs>
      <path d="M 9.8125 72.90625 
L 24.515625 72.90625 
L 43.109375 23.296875 
L 61.8125 72.90625 
L 76.515625 72.90625 
L 76.515625 0 
L 66.890625 0 
L 66.890625 64.015625 
L 48.09375 14.015625 
L 38.1875 14.015625 
L 19.390625 64.015625 
L 19.390625 0 
L 9.8125 0 
z
" id="DejaVuSans-77"/>
      <path d="M 9.8125 72.90625 
L 19.671875 72.90625 
L 19.671875 42.09375 
L 52.390625 72.90625 
L 65.09375 72.90625 
L 28.90625 38.921875 
L 67.671875 0 
L 54.6875 0 
L 19.671875 35.109375 
L 19.671875 0 
L 9.8125 0 
z
" id="DejaVuSans-75"/>
     </defs>
     <g transform="translate(544.50125 168.299219)scale(0.1 -0.1)">
      <use xlink:href="#DejaVuSans-69"/>
      <use x="63.183594" xlink:href="#DejaVuSans-120"/>
      <use x="120.613281" xlink:href="#DejaVuSans-99"/>
      <use x="175.59375" xlink:href="#DejaVuSans-104"/>
      <use x="238.972656" xlink:href="#DejaVuSans-97"/>
      <use x="300.251953" xlink:href="#DejaVuSans-110"/>
      <use x="363.630859" xlink:href="#DejaVuSans-103"/>
      <use x="427.107422" xlink:href="#DejaVuSans-101"/>
      <use x="488.630859" xlink:href="#DejaVuSans-32"/>
      <use x="520.417969" xlink:href="#DejaVuSans-70"/>
      <use x="570.6875" xlink:href="#DejaVuSans-114"/>
      <use x="609.550781" xlink:href="#DejaVuSans-111"/>
      <use x="670.732422" xlink:href="#DejaVuSans-109"/>
      <use x="768.144531" xlink:href="#DejaVuSans-32"/>
      <use x="799.931641" xlink:href="#DejaVuSans-77"/>
      <use x="886.210938" xlink:href="#DejaVuSans-84"/>
      <use x="947.294922" xlink:href="#DejaVuSans-75"/>
      <use x="1012.871094" xlink:href="#DejaVuSans-82"/>
     </g>
    </g>
    <g id="patch_17">
     <path d="M 516.50125 182.977344 
L 536.50125 182.977344 
L 536.50125 175.977344 
L 516.50125 175.977344 
z
" style="fill:#ea6bee;"/>
    </g>
    <g id="text_19">
     <!-- Exchange From CSTR -->
     <defs>
      <path d="M 64.40625 67.28125 
L 64.40625 56.890625 
Q 59.421875 61.53125 53.78125 63.8125 
Q 48.140625 66.109375 41.796875 66.109375 
Q 29.296875 66.109375 22.65625 58.46875 
Q 16.015625 50.828125 16.015625 36.375 
Q 16.015625 21.96875 22.65625 14.328125 
Q 29.296875 6.6875 41.796875 6.6875 
Q 48.140625 6.6875 53.78125 8.984375 
Q 59.421875 11.28125 64.40625 15.921875 
L 64.40625 5.609375 
Q 59.234375 2.09375 53.4375 0.328125 
Q 47.65625 -1.421875 41.21875 -1.421875 
Q 24.65625 -1.421875 15.125 8.703125 
Q 5.609375 18.84375 5.609375 36.375 
Q 5.609375 53.953125 15.125 64.078125 
Q 24.65625 74.21875 41.21875 74.21875 
Q 47.75 74.21875 53.53125 72.484375 
Q 59.328125 70.75 64.40625 67.28125 
z
" id="DejaVuSans-67"/>
     </defs>
     <g transform="translate(544.50125 182.977344)scale(0.1 -0.1)">
      <use xlink:href="#DejaVuSans-69"/>
      <use x="63.183594" xlink:href="#DejaVuSans-120"/>
      <use x="120.613281" xlink:href="#DejaVuSans-99"/>
      <use x="175.59375" xlink:href="#DejaVuSans-104"/>
      <use x="238.972656" xlink:href="#DejaVuSans-97"/>
      <use x="300.251953" xlink:href="#DejaVuSans-110"/>
      <use x="363.630859" xlink:href="#DejaVuSans-103"/>
      <use x="427.107422" xlink:href="#DejaVuSans-101"/>
      <use x="488.630859" xlink:href="#DejaVuSans-32"/>
      <use x="520.417969" xlink:href="#DejaVuSans-70"/>
      <use x="570.6875" xlink:href="#DejaVuSans-114"/>
      <use x="609.550781" xlink:href="#DejaVuSans-111"/>
      <use x="670.732422" xlink:href="#DejaVuSans-109"/>
      <use x="768.144531" xlink:href="#DejaVuSans-32"/>
      <use x="799.931641" xlink:href="#DejaVuSans-67"/>
      <use x="869.755859" xlink:href="#DejaVuSans-83"/>
      <use x="933.232422" xlink:href="#DejaVuSans-84"/>
      <use x="994.316406" xlink:href="#DejaVuSans-82"/>
     </g>
    </g>
    <g id="patch_18">
     <path d="M 516.50125 197.655469 
L 536.50125 197.655469 
L 536.50125 190.655469 
L 516.50125 190.655469 
z
" style="fill:#22eb11;"/>
    </g>
    <g id="text_20">
     <!-- Exchange To WSTR -->
     <g transform="translate(544.50125 197.655469)scale(0.1 -0.1)">
      <use xlink:href="#DejaVuSans-69"/>
      <use x="63.183594" xlink:href="#DejaVuSans-120"/>
      <use x="120.613281" xlink:href="#DejaVuSans-99"/>
      <use x="175.59375" xlink:href="#DejaVuSans-104"/>
      <use x="238.972656" xlink:href="#DejaVuSans-97"/>
      <use x="300.251953" xlink:href="#DejaVuSans-110"/>
      <use x="363.630859" xlink:href="#DejaVuSans-103"/>
      <use x="427.107422" xlink:href="#DejaVuSans-101"/>
      <use x="488.630859" xlink:href="#DejaVuSans-32"/>
      <use x="520.417969" xlink:href="#DejaVuSans-84"/>
      <use x="564.501953" xlink:href="#DejaVuSans-111"/>
      <use x="625.683594" xlink:href="#DejaVuSans-32"/>
      <use x="657.470703" xlink:href="#DejaVuSans-87"/>
      <use x="756.347656" xlink:href="#DejaVuSans-83"/>
      <use x="819.824219" xlink:href="#DejaVuSans-84"/>
      <use x="880.908203" xlink:href="#DejaVuSans-82"/>
     </g>
    </g>
    <g id="patch_19">
     <path d="M 516.50125 212.333594 
L 536.50125 212.333594 
L 536.50125 205.333594 
L 516.50125 205.333594 
z
" style="fill:#0e25ec;"/>
    </g>
    <g id="text_21">
     <!-- Exchange To MTKR -->
     <g transform="translate(544.50125 212.333594)scale(0.1 -0.1)">
      <use xlink:href="#DejaVuSans-69"/>
      <use x="63.183594" xlink:href="#DejaVuSans-120"/>
      <use x="120.613281" xlink:href="#DejaVuSans-99"/>
      <use x="175.59375" xlink:href="#DejaVuSans-104"/>
      <use x="238.972656" xlink:href="#DejaVuSans-97"/>
      <use x="300.251953" xlink:href="#DejaVuSans-110"/>
      <use x="363.630859" xlink:href="#DejaVuSans-103"/>
      <use x="427.107422" xlink:href="#DejaVuSans-101"/>
      <use x="488.630859" xlink:href="#DejaVuSans-32"/>
      <use x="520.417969" xlink:href="#DejaVuSans-84"/>
      <use x="564.501953" xlink:href="#DejaVuSans-111"/>
      <use x="625.683594" xlink:href="#DejaVuSans-32"/>
      <use x="657.470703" xlink:href="#DejaVuSans-77"/>
      <use x="743.75" xlink:href="#DejaVuSans-84"/>
      <use x="804.833984" xlink:href="#DejaVuSans-75"/>
      <use x="870.410156" xlink:href="#DejaVuSans-82"/>
     </g>
    </g>
    <g id="patch_20">
     <path d="M 516.50125 227.011719 
L 536.50125 227.011719 
L 536.50125 220.011719 
L 516.50125 220.011719 
z
" style="fill:#e50eec;"/>
    </g>
    <g id="text_22">
     <!-- Exchange To CSTR -->
     <g transform="translate(544.50125 227.011719)scale(0.1 -0.1)">
      <use xlink:href="#DejaVuSans-69"/>
      <use x="63.183594" xlink:href="#DejaVuSans-120"/>
      <use x="120.613281" xlink:href="#DejaVuSans-99"/>
      <use x="175.59375" xlink:href="#DejaVuSans-104"/>
      <use x="238.972656" xlink:href="#DejaVuSans-97"/>
      <use x="300.251953" xlink:href="#DejaVuSans-110"/>
      <use x="363.630859" xlink:href="#DejaVuSans-103"/>
      <use x="427.107422" xlink:href="#DejaVuSans-101"/>
      <use x="488.630859" xlink:href="#DejaVuSans-32"/>
      <use x="520.417969" xlink:href="#DejaVuSans-84"/>
      <use x="564.501953" xlink:href="#DejaVuSans-111"/>
      <use x="625.683594" xlink:href="#DejaVuSans-32"/>
      <use x="657.470703" xlink:href="#DejaVuSans-67"/>
      <use x="727.294922" xlink:href="#DejaVuSans-83"/>
      <use x="790.771484" xlink:href="#DejaVuSans-84"/>
      <use x="851.855469" xlink:href="#DejaVuSans-82"/>
     </g>
    </g>
   </g>
  </g>
 </g>
 <defs>
  <clipPath id="pdabf56bd0c">
   <rect height="332.64" width="446.4" x="43.78125" y="24.597656"/>
  </clipPath>
 </defs>
</svg>
