<?xml version="1.0" encoding="utf-8" standalone="no"?>
<!DOCTYPE svg PUBLIC "-//W3C//DTD SVG 1.1//EN"
  "http://www.w3.org/Graphics/SVG/1.1/DTD/svg11.dtd">
<!-- Created with matplotlib (https://matplotlib.org/) -->
<svg height="440.368873pt" version="1.1" viewBox="0 0 673.062188 440.368873" width="673.062188pt" xmlns="http://www.w3.org/2000/svg" xmlns:xlink="http://www.w3.org/1999/xlink">
 <metadata>
  <rdf:RDF xmlns:cc="http://creativecommons.org/ns#" xmlns:dc="http://purl.org/dc/elements/1.1/" xmlns:rdf="http://www.w3.org/1999/02/22-rdf-syntax-ns#">
   <cc:Work>
    <dc:type rdf:resource="http://purl.org/dc/dcmitype/StillImage"/>
    <dc:date>2020-09-01T12:37:20.603308</dc:date>
    <dc:format>image/svg+xml</dc:format>
    <dc:creator>
     <cc:Agent>
      <dc:title>Matplotlib v3.3.1, https://matplotlib.org/</dc:title>
     </cc:Agent>
    </dc:creator>
   </cc:Work>
  </rdf:RDF>
 </metadata>
 <defs>
  <style type="text/css">*{stroke-linecap:butt;stroke-linejoin:round;}</style>
 </defs>
 <g id="figure_1">
  <g id="patch_1">
   <path d="M 0 440.368873 
L 673.062188 440.368873 
L 673.062188 0 
L 0 0 
z
" style="fill:#ffffff;"/>
  </g>
  <g id="axes_1">
   <g id="patch_2">
    <path d="M 52.160938 357.237656 
L 498.560937 357.237656 
L 498.560937 24.597656 
L 52.160938 24.597656 
z
" style="fill:#ffffff;"/>
   </g>
   <g id="PolyCollection_1">
    <path clip-path="url(#pac61878b61)" d="M 52.160938 84.895768 
L 52.160938 212.976138 
L 60.745553 212.976138 
L 69.330168 212.976138 
L 77.914784 212.976138 
L 86.499399 212.976138 
L 95.084014 212.976138 
L 103.66863 212.976138 
L 112.253245 212.976138 
L 120.837861 212.976138 
L 129.422476 212.976138 
L 138.007091 212.976138 
L 146.591707 212.976138 
L 155.176322 212.976138 
L 163.760938 212.976138 
L 172.345553 212.976138 
L 180.930168 212.976138 
L 189.514784 212.976138 
L 198.099399 212.976138 
L 206.684014 212.976138 
L 215.26863 212.976138 
L 223.853245 212.976138 
L 232.437861 212.976138 
L 241.022476 212.976138 
L 249.607091 212.976138 
L 258.191707 212.976138 
L 266.776322 212.976138 
L 275.360938 212.976138 
L 283.945553 212.976138 
L 292.530168 212.976138 
L 301.114784 212.976138 
L 309.699399 212.976138 
L 318.284014 212.976138 
L 326.86863 212.976138 
L 335.453245 212.976138 
L 344.037861 212.976138 
L 352.622476 212.976138 
L 361.207091 212.976138 
L 369.791707 212.976138 
L 378.376322 212.976138 
L 386.960938 212.976138 
L 395.545553 212.976138 
L 404.130168 212.976138 
L 412.714784 212.976138 
L 421.299399 212.976138 
L 429.884014 212.976138 
L 438.46863 212.976138 
L 447.053245 212.976138 
L 455.637861 212.976138 
L 464.222476 212.976138 
L 472.807091 212.976138 
L 481.391707 212.976138 
L 489.976322 212.976138 
L 498.560938 212.976138 
L 498.560938 84.849584 
L 498.560938 84.849584 
L 489.976322 84.905943 
L 481.391707 84.849584 
L 472.807091 84.849584 
L 464.222476 84.849584 
L 455.637861 84.849584 
L 447.053245 84.849584 
L 438.46863 84.849584 
L 429.884014 84.849584 
L 421.299399 84.849584 
L 412.714784 84.849584 
L 404.130168 84.849584 
L 395.545553 85.12545 
L 386.960938 84.849584 
L 378.376322 84.849584 
L 369.791707 84.849584 
L 361.207091 84.849584 
L 352.622476 84.849584 
L 344.037861 84.849584 
L 335.453245 84.849584 
L 326.86863 84.849584 
L 318.284014 84.849584 
L 309.699399 84.849584 
L 301.114784 84.849584 
L 292.530168 84.849584 
L 283.945553 84.849584 
L 275.360938 84.849584 
L 266.776322 84.849584 
L 258.191707 84.849584 
L 249.607091 84.849584 
L 241.022476 84.849584 
L 232.437861 84.849584 
L 223.853245 84.849584 
L 215.26863 84.849584 
L 206.684014 84.849584 
L 198.099399 84.860926 
L 189.514784 84.849584 
L 180.930168 84.849584 
L 172.345553 84.878931 
L 163.760938 84.849584 
L 155.176322 84.849584 
L 146.591707 84.849584 
L 138.007091 84.849584 
L 129.422476 84.849584 
L 120.837861 84.849584 
L 112.253245 84.849584 
L 103.66863 84.849584 
L 95.084014 84.849584 
L 86.499399 84.849584 
L 77.914784 84.849584 
L 69.330168 86.20677 
L 60.745553 84.849584 
L 52.160938 84.895768 
z
" style="fill:#ffb30f;"/>
   </g>
   <g id="PolyCollection_2">
    <path clip-path="url(#pac61878b61)" d="M 52.160938 71.198432 
L 52.160938 84.895768 
L 60.745553 84.849584 
L 69.330168 86.20677 
L 77.914784 84.849584 
L 86.499399 84.849584 
L 95.084014 84.849584 
L 103.66863 84.849584 
L 112.253245 84.849584 
L 120.837861 84.849584 
L 129.422476 84.849584 
L 138.007091 84.849584 
L 146.591707 84.849584 
L 155.176322 84.849584 
L 163.760938 84.849584 
L 172.345553 84.878931 
L 180.930168 84.849584 
L 189.514784 84.849584 
L 198.099399 84.860926 
L 206.684014 84.849584 
L 215.26863 84.849584 
L 223.853245 84.849584 
L 232.437861 84.849584 
L 241.022476 84.849584 
L 249.607091 84.849584 
L 258.191707 84.849584 
L 266.776322 84.849584 
L 275.360938 84.849584 
L 283.945553 84.849584 
L 292.530168 84.849584 
L 301.114784 84.849584 
L 309.699399 84.849584 
L 318.284014 84.849584 
L 326.86863 84.849584 
L 335.453245 84.849584 
L 344.037861 84.849584 
L 352.622476 84.849584 
L 361.207091 84.849584 
L 369.791707 84.849584 
L 378.376322 84.849584 
L 386.960938 84.849584 
L 395.545553 85.12545 
L 404.130168 84.849584 
L 412.714784 84.849584 
L 421.299399 84.849584 
L 429.884014 84.849584 
L 438.46863 84.849584 
L 447.053245 84.849584 
L 455.637861 84.849584 
L 464.222476 84.849584 
L 472.807091 84.849584 
L 481.391707 84.849584 
L 489.976322 84.905943 
L 498.560938 84.849584 
L 498.560938 72.259511 
L 498.560938 72.259511 
L 489.976322 72.562715 
L 481.391707 64.051999 
L 472.807091 63.714724 
L 464.222476 65.2495 
L 455.637861 64.130212 
L 447.053245 63.797866 
L 438.46863 64.801437 
L 429.884014 61.136008 
L 421.299399 59.943901 
L 412.714784 66.374131 
L 404.130168 67.506673 
L 395.545553 64.510386 
L 386.960938 65.778641 
L 378.376322 63.752923 
L 369.791707 60.222841 
L 361.207091 58.485097 
L 352.622476 65.508793 
L 344.037861 66.711926 
L 335.453245 63.802951 
L 326.86863 62.473563 
L 318.284014 63.766939 
L 309.699399 65.067302 
L 301.114784 64.2004 
L 292.530168 66.256613 
L 283.945553 61.236456 
L 275.360938 60.837301 
L 266.776322 59.741727 
L 258.191707 60.672182 
L 249.607091 59.630605 
L 241.022476 60.438839 
L 232.437861 61.027949 
L 223.853245 64.09992 
L 215.26863 60.413095 
L 206.684014 58.128595 
L 198.099399 62.720312 
L 189.514784 60.138416 
L 180.930168 63.94937 
L 172.345553 66.507184 
L 163.760938 69.714644 
L 155.176322 69.445535 
L 146.591707 69.417469 
L 138.007091 70.427782 
L 129.422476 70.13777 
L 120.837861 69.505958 
L 112.253245 70.224248 
L 103.66863 69.281902 
L 95.084014 67.895075 
L 86.499399 67.023804 
L 77.914784 66.658428 
L 69.330168 67.970345 
L 60.745553 64.245081 
L 52.160938 71.198432 
z
" style="fill:#2980b9;"/>
   </g>
   <g id="PolyCollection_3">
    <path clip-path="url(#pac61878b61)" d="M 52.160938 71.039014 
L 52.160938 71.198432 
L 60.745553 64.245081 
L 69.330168 67.970345 
L 77.914784 66.658428 
L 86.499399 67.023804 
L 95.084014 67.895075 
L 103.66863 69.281902 
L 112.253245 70.224248 
L 120.837861 69.505958 
L 129.422476 70.13777 
L 138.007091 70.427782 
L 146.591707 69.417469 
L 155.176322 69.445535 
L 163.760938 69.714644 
L 172.345553 66.507184 
L 180.930168 63.94937 
L 189.514784 60.138416 
L 198.099399 62.720312 
L 206.684014 58.128595 
L 215.26863 60.413095 
L 223.853245 64.09992 
L 232.437861 61.027949 
L 241.022476 60.438839 
L 249.607091 59.630605 
L 258.191707 60.672182 
L 266.776322 59.741727 
L 275.360938 60.837301 
L 283.945553 61.236456 
L 292.530168 66.256613 
L 301.114784 64.2004 
L 309.699399 65.067302 
L 318.284014 63.766939 
L 326.86863 62.473563 
L 335.453245 63.802951 
L 344.037861 66.711926 
L 352.622476 65.508793 
L 361.207091 58.485097 
L 369.791707 60.222841 
L 378.376322 63.752923 
L 386.960938 65.778641 
L 395.545553 64.510386 
L 404.130168 67.506673 
L 412.714784 66.374131 
L 421.299399 59.943901 
L 429.884014 61.136008 
L 438.46863 64.801437 
L 447.053245 63.797866 
L 455.637861 64.130212 
L 464.222476 65.2495 
L 472.807091 63.714724 
L 481.391707 64.051999 
L 489.976322 72.562715 
L 498.560938 72.259511 
L 498.560938 72.13868 
L 498.560938 72.13868 
L 489.976322 72.380693 
L 481.391707 63.869052 
L 472.807091 63.542813 
L 464.222476 65.076034 
L 455.637861 63.92984 
L 447.053245 63.66735 
L 438.46863 64.649042 
L 429.884014 60.94762 
L 421.299399 59.80193 
L 412.714784 66.19747 
L 404.130168 67.356884 
L 395.545553 64.352549 
L 386.960938 65.586805 
L 378.376322 63.598821 
L 369.791707 60.002611 
L 361.207091 58.225509 
L 352.622476 65.31584 
L 344.037861 66.599169 
L 335.453245 63.631339 
L 326.86863 62.25638 
L 318.284014 63.563679 
L 309.699399 64.932688 
L 301.114784 64.015956 
L 292.530168 66.04763 
L 283.945553 61.051591 
L 275.360938 60.695721 
L 266.776322 59.521339 
L 258.191707 60.478586 
L 249.607091 59.50466 
L 241.022476 60.320611 
L 232.437861 60.912679 
L 223.853245 63.982285 
L 215.26863 60.283096 
L 206.684014 57.968795 
L 198.099399 62.604182 
L 189.514784 60.099351 
L 180.930168 63.857209 
L 172.345553 66.42155 
L 163.760938 69.628904 
L 155.176322 69.395798 
L 146.591707 69.401075 
L 138.007091 70.427782 
L 129.422476 70.13777 
L 120.837861 69.505958 
L 112.253245 70.224248 
L 103.66863 69.281902 
L 95.084014 67.856188 
L 86.499399 66.896609 
L 77.914784 66.52678 
L 69.330168 67.80034 
L 60.745553 64.089318 
L 52.160938 71.039014 
z
" style="fill:#3498db;"/>
   </g>
   <g id="PolyCollection_4">
    <path clip-path="url(#pac61878b61)" d="M 52.160938 71.039014 
L 52.160938 71.039014 
L 60.745553 64.089318 
L 69.330168 67.80034 
L 77.914784 66.52678 
L 86.499399 66.896609 
L 95.084014 67.856188 
L 103.66863 69.281902 
L 112.253245 70.224248 
L 120.837861 69.505958 
L 129.422476 70.13777 
L 138.007091 70.427782 
L 146.591707 69.401075 
L 155.176322 69.395798 
L 163.760938 69.628904 
L 172.345553 66.42155 
L 180.930168 63.857209 
L 189.514784 60.099351 
L 198.099399 62.604182 
L 206.684014 57.968795 
L 215.26863 60.283096 
L 223.853245 63.982285 
L 232.437861 60.912679 
L 241.022476 60.320611 
L 249.607091 59.50466 
L 258.191707 60.478586 
L 266.776322 59.521339 
L 275.360938 60.695721 
L 283.945553 61.051591 
L 292.530168 66.04763 
L 301.114784 64.015956 
L 309.699399 64.932688 
L 318.284014 63.563679 
L 326.86863 62.25638 
L 335.453245 63.631339 
L 344.037861 66.599169 
L 352.622476 65.31584 
L 361.207091 58.225509 
L 369.791707 60.002611 
L 378.376322 63.598821 
L 386.960938 65.586805 
L 395.545553 64.352549 
L 404.130168 67.356884 
L 412.714784 66.19747 
L 421.299399 59.80193 
L 429.884014 60.94762 
L 438.46863 64.649042 
L 447.053245 63.66735 
L 455.637861 63.92984 
L 464.222476 65.076034 
L 472.807091 63.542813 
L 481.391707 63.869052 
L 489.976322 72.380693 
L 498.560938 72.13868 
L 498.560938 72.13868 
L 498.560938 72.13868 
L 489.976322 72.380693 
L 481.391707 63.869052 
L 472.807091 63.542813 
L 464.222476 65.076034 
L 455.637861 63.92984 
L 447.053245 63.66735 
L 438.46863 64.649042 
L 429.884014 60.94762 
L 421.299399 59.80193 
L 412.714784 66.19747 
L 404.130168 67.356884 
L 395.545553 64.352549 
L 386.960938 65.586805 
L 378.376322 63.598821 
L 369.791707 60.002611 
L 361.207091 58.225509 
L 352.622476 65.31584 
L 344.037861 66.599169 
L 335.453245 63.631339 
L 326.86863 62.25638 
L 318.284014 63.563679 
L 309.699399 64.932688 
L 301.114784 64.015956 
L 292.530168 66.04763 
L 283.945553 61.051591 
L 275.360938 60.695721 
L 266.776322 59.521339 
L 258.191707 60.478586 
L 249.607091 59.50466 
L 241.022476 60.320611 
L 232.437861 60.912679 
L 223.853245 63.982285 
L 215.26863 60.283096 
L 206.684014 57.968795 
L 198.099399 62.604182 
L 189.514784 60.099351 
L 180.930168 63.857209 
L 172.345553 66.42155 
L 163.760938 69.628904 
L 155.176322 69.395798 
L 146.591707 69.401075 
L 138.007091 70.427782 
L 129.422476 70.13777 
L 120.837861 69.505958 
L 112.253245 70.224248 
L 103.66863 69.281902 
L 95.084014 67.856188 
L 86.499399 66.896609 
L 77.914784 66.52678 
L 69.330168 67.80034 
L 60.745553 64.089318 
L 52.160938 71.039014 
z
" style="fill:#28b463;"/>
   </g>
   <g id="PolyCollection_5">
    <path clip-path="url(#pac61878b61)" d="M 52.160938 71.039014 
L 52.160938 71.039014 
L 60.745553 64.089318 
L 69.330168 67.80034 
L 77.914784 66.52678 
L 86.499399 66.896609 
L 95.084014 67.856188 
L 103.66863 69.281902 
L 112.253245 70.224248 
L 120.837861 69.505958 
L 129.422476 70.13777 
L 138.007091 70.427782 
L 146.591707 69.401075 
L 155.176322 69.395798 
L 163.760938 69.628904 
L 172.345553 66.42155 
L 180.930168 63.857209 
L 189.514784 60.099351 
L 198.099399 62.604182 
L 206.684014 57.968795 
L 215.26863 60.283096 
L 223.853245 63.982285 
L 232.437861 60.912679 
L 241.022476 60.320611 
L 249.607091 59.50466 
L 258.191707 60.478586 
L 266.776322 59.521339 
L 275.360938 60.695721 
L 283.945553 61.051591 
L 292.530168 66.04763 
L 301.114784 64.015956 
L 309.699399 64.932688 
L 318.284014 63.563679 
L 326.86863 62.25638 
L 335.453245 63.631339 
L 344.037861 66.599169 
L 352.622476 65.31584 
L 361.207091 58.225509 
L 369.791707 60.002611 
L 378.376322 63.598821 
L 386.960938 65.586805 
L 395.545553 64.352549 
L 404.130168 67.356884 
L 412.714784 66.19747 
L 421.299399 59.80193 
L 429.884014 60.94762 
L 438.46863 64.649042 
L 447.053245 63.66735 
L 455.637861 63.92984 
L 464.222476 65.076034 
L 472.807091 63.542813 
L 481.391707 63.869052 
L 489.976322 72.380693 
L 498.560938 72.13868 
L 498.560938 72.13868 
L 498.560938 72.13868 
L 489.976322 72.380693 
L 481.391707 63.869052 
L 472.807091 63.542813 
L 464.222476 65.076034 
L 455.637861 63.92984 
L 447.053245 63.66735 
L 438.46863 64.649042 
L 429.884014 60.94762 
L 421.299399 59.80193 
L 412.714784 66.19747 
L 404.130168 67.356884 
L 395.545553 64.352549 
L 386.960938 65.586805 
L 378.376322 63.598821 
L 369.791707 60.002611 
L 361.207091 58.225509 
L 352.622476 65.31584 
L 344.037861 66.599169 
L 335.453245 63.631339 
L 326.86863 62.25638 
L 318.284014 63.563679 
L 309.699399 64.932688 
L 301.114784 64.015956 
L 292.530168 66.04763 
L 283.945553 61.051591 
L 275.360938 60.695721 
L 266.776322 59.521339 
L 258.191707 60.478586 
L 249.607091 59.50466 
L 241.022476 60.320611 
L 232.437861 60.912679 
L 223.853245 63.982285 
L 215.26863 60.283096 
L 206.684014 57.968795 
L 198.099399 62.604182 
L 189.514784 60.099351 
L 180.930168 63.857209 
L 172.345553 66.42155 
L 163.760938 69.628904 
L 155.176322 69.395798 
L 146.591707 69.401075 
L 138.007091 70.427782 
L 129.422476 70.13777 
L 120.837861 69.505958 
L 112.253245 70.224248 
L 103.66863 69.281902 
L 95.084014 67.856188 
L 86.499399 66.896609 
L 77.914784 66.52678 
L 69.330168 67.80034 
L 60.745553 64.089318 
L 52.160938 71.039014 
z
" style="fill:#494949;"/>
   </g>
   <g id="PolyCollection_6">
    <path clip-path="url(#pac61878b61)" d="M 52.160938 71.039014 
L 52.160938 71.039014 
L 60.745553 64.089318 
L 69.330168 67.80034 
L 77.914784 66.52678 
L 86.499399 66.896609 
L 95.084014 67.856188 
L 103.66863 69.281902 
L 112.253245 70.224248 
L 120.837861 69.505958 
L 129.422476 70.13777 
L 138.007091 70.427782 
L 146.591707 69.401075 
L 155.176322 69.395798 
L 163.760938 69.628904 
L 172.345553 66.42155 
L 180.930168 63.857209 
L 189.514784 60.099351 
L 198.099399 62.604182 
L 206.684014 57.968795 
L 215.26863 60.283096 
L 223.853245 63.982285 
L 232.437861 60.912679 
L 241.022476 60.320611 
L 249.607091 59.50466 
L 258.191707 60.478586 
L 266.776322 59.521339 
L 275.360938 60.695721 
L 283.945553 61.051591 
L 292.530168 66.04763 
L 301.114784 64.015956 
L 309.699399 64.932688 
L 318.284014 63.563679 
L 326.86863 62.25638 
L 335.453245 63.631339 
L 344.037861 66.599169 
L 352.622476 65.31584 
L 361.207091 58.225509 
L 369.791707 60.002611 
L 378.376322 63.598821 
L 386.960938 65.586805 
L 395.545553 64.352549 
L 404.130168 67.356884 
L 412.714784 66.19747 
L 421.299399 59.80193 
L 429.884014 60.94762 
L 438.46863 64.649042 
L 447.053245 63.66735 
L 455.637861 63.92984 
L 464.222476 65.076034 
L 472.807091 63.542813 
L 481.391707 63.869052 
L 489.976322 72.380693 
L 498.560938 72.13868 
L 498.560938 72.13868 
L 498.560938 72.13868 
L 489.976322 72.380693 
L 481.391707 63.869052 
L 472.807091 63.542813 
L 464.222476 65.076034 
L 455.637861 63.92984 
L 447.053245 63.66735 
L 438.46863 64.649042 
L 429.884014 60.94762 
L 421.299399 59.80193 
L 412.714784 66.19747 
L 404.130168 67.356884 
L 395.545553 64.352549 
L 386.960938 65.586805 
L 378.376322 63.598821 
L 369.791707 60.002611 
L 361.207091 58.225509 
L 352.622476 65.31584 
L 344.037861 66.599169 
L 335.453245 63.631339 
L 326.86863 62.25638 
L 318.284014 63.563679 
L 309.699399 64.932688 
L 301.114784 64.015956 
L 292.530168 66.04763 
L 283.945553 61.051591 
L 275.360938 60.695721 
L 266.776322 59.521339 
L 258.191707 60.478586 
L 249.607091 59.50466 
L 241.022476 60.320611 
L 232.437861 60.912679 
L 223.853245 63.982285 
L 215.26863 60.283096 
L 206.684014 57.968795 
L 198.099399 62.604182 
L 189.514784 60.099351 
L 180.930168 63.857209 
L 172.345553 66.42155 
L 163.760938 69.628904 
L 155.176322 69.395798 
L 146.591707 69.401075 
L 138.007091 70.427782 
L 129.422476 70.13777 
L 120.837861 69.505958 
L 112.253245 70.224248 
L 103.66863 69.281902 
L 95.084014 67.856188 
L 86.499399 66.896609 
L 77.914784 66.52678 
L 69.330168 67.80034 
L 60.745553 64.089318 
L 52.160938 71.039014 
z
" style="fill:#7c7c7c;"/>
   </g>
   <g id="PolyCollection_7">
    <path clip-path="url(#pac61878b61)" d="M 52.160938 69.807973 
L 52.160938 71.039014 
L 60.745553 64.089318 
L 69.330168 67.80034 
L 77.914784 66.52678 
L 86.499399 66.896609 
L 95.084014 67.856188 
L 103.66863 69.281902 
L 112.253245 70.224248 
L 120.837861 69.505958 
L 129.422476 70.13777 
L 138.007091 70.427782 
L 146.591707 69.401075 
L 155.176322 69.395798 
L 163.760938 69.628904 
L 172.345553 66.42155 
L 180.930168 63.857209 
L 189.514784 60.099351 
L 198.099399 62.604182 
L 206.684014 57.968795 
L 215.26863 60.283096 
L 223.853245 63.982285 
L 232.437861 60.912679 
L 241.022476 60.320611 
L 249.607091 59.50466 
L 258.191707 60.478586 
L 266.776322 59.521339 
L 275.360938 60.695721 
L 283.945553 61.051591 
L 292.530168 66.04763 
L 301.114784 64.015956 
L 309.699399 64.932688 
L 318.284014 63.563679 
L 326.86863 62.25638 
L 335.453245 63.631339 
L 344.037861 66.599169 
L 352.622476 65.31584 
L 361.207091 58.225509 
L 369.791707 60.002611 
L 378.376322 63.598821 
L 386.960938 65.586805 
L 395.545553 64.352549 
L 404.130168 67.356884 
L 412.714784 66.19747 
L 421.299399 59.80193 
L 429.884014 60.94762 
L 438.46863 64.649042 
L 447.053245 63.66735 
L 455.637861 63.92984 
L 464.222476 65.076034 
L 472.807091 63.542813 
L 481.391707 63.869052 
L 489.976322 72.380693 
L 498.560938 72.13868 
L 498.560938 67.445325 
L 498.560938 67.445325 
L 489.976322 69.100422 
L 481.391707 58.948233 
L 472.807091 58.69102 
L 464.222476 60.40681 
L 455.637861 59.165316 
L 447.053245 58.463091 
L 438.46863 59.934777 
L 429.884014 55.187034 
L 421.299399 54.225921 
L 412.714784 62.072619 
L 404.130168 62.896361 
L 395.545553 58.153647 
L 386.960938 60.524813 
L 378.376322 57.761819 
L 369.791707 53.879869 
L 361.207091 52.317656 
L 352.622476 60.991146 
L 344.037861 62.348985 
L 335.453245 59.06071 
L 326.86863 57.951457 
L 318.284014 58.161143 
L 309.699399 60.666792 
L 301.114784 59.444332 
L 292.530168 61.420504 
L 283.945553 55.916028 
L 275.360938 56.246078 
L 266.776322 54.86425 
L 258.191707 55.76743 
L 249.607091 55.111614 
L 241.022476 56.548423 
L 232.437861 56.711111 
L 223.853245 59.323893 
L 215.26863 55.993794 
L 206.684014 53.253506 
L 198.099399 58.557313 
L 189.514784 55.021049 
L 180.930168 59.10524 
L 172.345553 62.958246 
L 163.760938 66.25595 
L 155.176322 64.822104 
L 146.591707 64.823562 
L 138.007091 65.852162 
L 129.422476 65.708254 
L 120.837861 64.947034 
L 112.253245 65.079846 
L 103.66863 63.780709 
L 95.084014 63.055388 
L 86.499399 61.83878 
L 77.914784 62.15718 
L 69.330168 63.381476 
L 60.745553 59.506893 
L 52.160938 69.807973 
z
" style="fill:#ba4a00;"/>
   </g>
   <g id="PolyCollection_8">
    <path clip-path="url(#pac61878b61)" d="M 52.160938 69.807973 
L 52.160938 69.807973 
L 60.745553 59.506893 
L 69.330168 63.381476 
L 77.914784 62.15718 
L 86.499399 61.83878 
L 95.084014 63.055388 
L 103.66863 63.780709 
L 112.253245 65.079846 
L 120.837861 64.947034 
L 129.422476 65.708254 
L 138.007091 65.852162 
L 146.591707 64.823562 
L 155.176322 64.822104 
L 163.760938 66.25595 
L 172.345553 62.958246 
L 180.930168 59.10524 
L 189.514784 55.021049 
L 198.099399 58.557313 
L 206.684014 53.253506 
L 215.26863 55.993794 
L 223.853245 59.323893 
L 232.437861 56.711111 
L 241.022476 56.548423 
L 249.607091 55.111614 
L 258.191707 55.76743 
L 266.776322 54.86425 
L 275.360938 56.246078 
L 283.945553 55.916028 
L 292.530168 61.420504 
L 301.114784 59.444332 
L 309.699399 60.666792 
L 318.284014 58.161143 
L 326.86863 57.951457 
L 335.453245 59.06071 
L 344.037861 62.348985 
L 352.622476 60.991146 
L 361.207091 52.317656 
L 369.791707 53.879869 
L 378.376322 57.761819 
L 386.960938 60.524813 
L 395.545553 58.153647 
L 404.130168 62.896361 
L 412.714784 62.072619 
L 421.299399 54.225921 
L 429.884014 55.187034 
L 438.46863 59.934777 
L 447.053245 58.463091 
L 455.637861 59.165316 
L 464.222476 60.40681 
L 472.807091 58.69102 
L 481.391707 58.948233 
L 489.976322 69.100422 
L 498.560938 67.445325 
L 498.560938 67.445325 
L 498.560938 67.445325 
L 489.976322 69.100422 
L 481.391707 58.948233 
L 472.807091 58.69102 
L 464.222476 60.40681 
L 455.637861 59.165316 
L 447.053245 58.463091 
L 438.46863 59.934777 
L 429.884014 55.187034 
L 421.299399 54.225921 
L 412.714784 62.072619 
L 404.130168 62.896361 
L 395.545553 58.153647 
L 386.960938 60.524813 
L 378.376322 57.761819 
L 369.791707 53.879869 
L 361.207091 52.317656 
L 352.622476 60.991146 
L 344.037861 62.348985 
L 335.453245 59.06071 
L 326.86863 57.951457 
L 318.284014 58.161143 
L 309.699399 60.666792 
L 301.114784 59.444332 
L 292.530168 61.420504 
L 283.945553 55.916028 
L 275.360938 56.246078 
L 266.776322 54.86425 
L 258.191707 55.76743 
L 249.607091 55.111614 
L 241.022476 56.548423 
L 232.437861 56.711111 
L 223.853245 59.323893 
L 215.26863 55.993794 
L 206.684014 53.253506 
L 198.099399 58.557313 
L 189.514784 55.021049 
L 180.930168 59.10524 
L 172.345553 62.958246 
L 163.760938 66.25595 
L 155.176322 64.822104 
L 146.591707 64.823562 
L 138.007091 65.852162 
L 129.422476 65.708254 
L 120.837861 64.947034 
L 112.253245 65.079846 
L 103.66863 63.780709 
L 95.084014 63.055388 
L 86.499399 61.83878 
L 77.914784 62.15718 
L 69.330168 63.381476 
L 60.745553 59.506893 
L 52.160938 69.807973 
z
" style="fill:#606fed;"/>
   </g>
   <g id="PolyCollection_9">
    <path clip-path="url(#pac61878b61)" d="M 52.160938 69.807973 
L 52.160938 69.807973 
L 60.745553 59.506893 
L 69.330168 63.381476 
L 77.914784 62.15718 
L 86.499399 61.83878 
L 95.084014 63.055388 
L 103.66863 63.780709 
L 112.253245 65.079846 
L 120.837861 64.947034 
L 129.422476 65.708254 
L 138.007091 65.852162 
L 146.591707 64.823562 
L 155.176322 64.822104 
L 163.760938 66.25595 
L 172.345553 62.958246 
L 180.930168 59.10524 
L 189.514784 55.021049 
L 198.099399 58.557313 
L 206.684014 53.253506 
L 215.26863 55.993794 
L 223.853245 59.323893 
L 232.437861 56.711111 
L 241.022476 56.548423 
L 249.607091 55.111614 
L 258.191707 55.76743 
L 266.776322 54.86425 
L 275.360938 56.246078 
L 283.945553 55.916028 
L 292.530168 61.420504 
L 301.114784 59.444332 
L 309.699399 60.666792 
L 318.284014 58.161143 
L 326.86863 57.951457 
L 335.453245 59.06071 
L 344.037861 62.348985 
L 352.622476 60.991146 
L 361.207091 52.317656 
L 369.791707 53.879869 
L 378.376322 57.761819 
L 386.960938 60.524813 
L 395.545553 58.153647 
L 404.130168 62.896361 
L 412.714784 62.072619 
L 421.299399 54.225921 
L 429.884014 55.187034 
L 438.46863 59.934777 
L 447.053245 58.463091 
L 455.637861 59.165316 
L 464.222476 60.40681 
L 472.807091 58.69102 
L 481.391707 58.948233 
L 489.976322 69.100422 
L 498.560938 67.445325 
L 498.560938 67.445325 
L 498.560938 67.445325 
L 489.976322 69.100422 
L 481.391707 58.948233 
L 472.807091 58.69102 
L 464.222476 60.40681 
L 455.637861 59.165316 
L 447.053245 58.463091 
L 438.46863 59.934777 
L 429.884014 55.187034 
L 421.299399 54.225921 
L 412.714784 62.072619 
L 404.130168 62.896361 
L 395.545553 58.153647 
L 386.960938 60.524813 
L 378.376322 57.761819 
L 369.791707 53.879869 
L 361.207091 52.317656 
L 352.622476 60.991146 
L 344.037861 62.348985 
L 335.453245 59.06071 
L 326.86863 57.951457 
L 318.284014 58.161143 
L 309.699399 60.666792 
L 301.114784 59.444332 
L 292.530168 61.420504 
L 283.945553 55.916028 
L 275.360938 56.246078 
L 266.776322 54.86425 
L 258.191707 55.76743 
L 249.607091 55.111614 
L 241.022476 56.548423 
L 232.437861 56.711111 
L 223.853245 59.323893 
L 215.26863 55.993794 
L 206.684014 53.253506 
L 198.099399 58.557313 
L 189.514784 55.021049 
L 180.930168 59.10524 
L 172.345553 62.958246 
L 163.760938 66.25595 
L 155.176322 64.822104 
L 146.591707 64.823562 
L 138.007091 65.852162 
L 129.422476 65.708254 
L 120.837861 64.947034 
L 112.253245 65.079846 
L 103.66863 63.780709 
L 95.084014 63.055388 
L 86.499399 61.83878 
L 77.914784 62.15718 
L 69.330168 63.381476 
L 60.745553 59.506893 
L 52.160938 69.807973 
z
" style="fill:#ed6060;"/>
   </g>
   <g id="PolyCollection_10">
    <path clip-path="url(#pac61878b61)" d="M 52.160938 69.807973 
L 52.160938 69.807973 
L 60.745553 59.506893 
L 69.330168 63.381476 
L 77.914784 62.15718 
L 86.499399 61.83878 
L 95.084014 63.055388 
L 103.66863 63.780709 
L 112.253245 65.079846 
L 120.837861 64.947034 
L 129.422476 65.708254 
L 138.007091 65.852162 
L 146.591707 64.823562 
L 155.176322 64.822104 
L 163.760938 66.25595 
L 172.345553 62.958246 
L 180.930168 59.10524 
L 189.514784 55.021049 
L 198.099399 58.557313 
L 206.684014 53.253506 
L 215.26863 55.993794 
L 223.853245 59.323893 
L 232.437861 56.711111 
L 241.022476 56.548423 
L 249.607091 55.111614 
L 258.191707 55.76743 
L 266.776322 54.86425 
L 275.360938 56.246078 
L 283.945553 55.916028 
L 292.530168 61.420504 
L 301.114784 59.444332 
L 309.699399 60.666792 
L 318.284014 58.161143 
L 326.86863 57.951457 
L 335.453245 59.06071 
L 344.037861 62.348985 
L 352.622476 60.991146 
L 361.207091 52.317656 
L 369.791707 53.879869 
L 378.376322 57.761819 
L 386.960938 60.524813 
L 395.545553 58.153647 
L 404.130168 62.896361 
L 412.714784 62.072619 
L 421.299399 54.225921 
L 429.884014 55.187034 
L 438.46863 59.934777 
L 447.053245 58.463091 
L 455.637861 59.165316 
L 464.222476 60.40681 
L 472.807091 58.69102 
L 481.391707 58.948233 
L 489.976322 69.100422 
L 498.560938 67.445325 
L 498.560938 67.445325 
L 498.560938 67.445325 
L 489.976322 69.100422 
L 481.391707 58.948233 
L 472.807091 58.69102 
L 464.222476 60.40681 
L 455.637861 59.165316 
L 447.053245 58.463091 
L 438.46863 59.934777 
L 429.884014 55.187034 
L 421.299399 54.225921 
L 412.714784 62.072619 
L 404.130168 62.896361 
L 395.545553 58.153647 
L 386.960938 60.524813 
L 378.376322 57.761819 
L 369.791707 53.879869 
L 361.207091 52.317656 
L 352.622476 60.991146 
L 344.037861 62.348985 
L 335.453245 59.06071 
L 326.86863 57.951457 
L 318.284014 58.161143 
L 309.699399 60.666792 
L 301.114784 59.444332 
L 292.530168 61.420504 
L 283.945553 55.916028 
L 275.360938 56.246078 
L 266.776322 54.86425 
L 258.191707 55.76743 
L 249.607091 55.111614 
L 241.022476 56.548423 
L 232.437861 56.711111 
L 223.853245 59.323893 
L 215.26863 55.993794 
L 206.684014 53.253506 
L 198.099399 58.557313 
L 189.514784 55.021049 
L 180.930168 59.10524 
L 172.345553 62.958246 
L 163.760938 66.25595 
L 155.176322 64.822104 
L 146.591707 64.823562 
L 138.007091 65.852162 
L 129.422476 65.708254 
L 120.837861 64.947034 
L 112.253245 65.079846 
L 103.66863 63.780709 
L 95.084014 63.055388 
L 86.499399 61.83878 
L 77.914784 62.15718 
L 69.330168 63.381476 
L 60.745553 59.506893 
L 52.160938 69.807973 
z
" style="fill:#ea6bee;"/>
   </g>
   <g id="PolyCollection_11">
    <path clip-path="url(#pac61878b61)" d="M 52.160938 216.501741 
L 52.160938 212.976138 
L 60.745553 212.976138 
L 69.330168 212.976138 
L 77.914784 212.976138 
L 86.499399 212.976138 
L 95.084014 212.976138 
L 103.66863 212.976138 
L 112.253245 212.976138 
L 120.837861 212.976138 
L 129.422476 212.976138 
L 138.007091 212.976138 
L 146.591707 212.976138 
L 155.176322 212.976138 
L 163.760938 212.976138 
L 172.345553 212.976138 
L 180.930168 212.976138 
L 189.514784 212.976138 
L 198.099399 212.976138 
L 206.684014 212.976138 
L 215.26863 212.976138 
L 223.853245 212.976138 
L 232.437861 212.976138 
L 241.022476 212.976138 
L 249.607091 212.976138 
L 258.191707 212.976138 
L 266.776322 212.976138 
L 275.360938 212.976138 
L 283.945553 212.976138 
L 292.530168 212.976138 
L 301.114784 212.976138 
L 309.699399 212.976138 
L 318.284014 212.976138 
L 326.86863 212.976138 
L 335.453245 212.976138 
L 344.037861 212.976138 
L 352.622476 212.976138 
L 361.207091 212.976138 
L 369.791707 212.976138 
L 378.376322 212.976138 
L 386.960938 212.976138 
L 395.545553 212.976138 
L 404.130168 212.976138 
L 412.714784 212.976138 
L 421.299399 212.976138 
L 429.884014 212.976138 
L 438.46863 212.976138 
L 447.053245 212.976138 
L 455.637861 212.976138 
L 464.222476 212.976138 
L 472.807091 212.976138 
L 481.391707 212.976138 
L 489.976322 212.976138 
L 498.560938 212.976138 
L 498.560938 216.286732 
L 498.560938 216.286732 
L 489.976322 215.990864 
L 481.391707 214.059377 
L 472.807091 214.340868 
L 464.222476 213.254562 
L 455.637861 214.711725 
L 447.053245 215.008356 
L 438.46863 214.530903 
L 429.884014 215.294975 
L 421.299399 214.343211 
L 412.714784 213.92067 
L 404.130168 213.11234 
L 395.545553 215.193457 
L 386.960938 214.031996 
L 378.376322 214.272671 
L 369.791707 215.153381 
L 361.207091 216.218223 
L 352.622476 213.072417 
L 344.037861 213.115736 
L 335.453245 213.180367 
L 326.86863 213.252805 
L 318.284014 214.112027 
L 309.699399 213.50892 
L 301.114784 213.841625 
L 292.530168 213.752508 
L 283.945553 214.698544 
L 275.360938 214.657819 
L 266.776322 214.595857 
L 258.191707 213.573144 
L 249.607091 213.349252 
L 241.022476 213.672855 
L 232.437861 213.13686 
L 223.853245 213.115767 
L 215.26863 213.340123 
L 206.684014 215.335595 
L 198.099399 214.791602 
L 189.514784 214.951606 
L 180.930168 215.213947 
L 172.345553 215.636131 
L 163.760938 216.421371 
L 155.176322 215.032658 
L 146.591707 215.936113 
L 138.007091 215.458463 
L 129.422476 215.3633 
L 120.837861 215.838592 
L 112.253245 215.816716 
L 103.66863 216.074139 
L 95.084014 215.742416 
L 86.499399 215.645985 
L 77.914784 215.046497 
L 69.330168 215.156651 
L 60.745553 215.179181 
L 52.160938 216.501741 
z
" style="fill:#0e25ec;"/>
   </g>
   <g id="PolyCollection_12">
    <path clip-path="url(#pac61878b61)" d="M 52.160938 318.489329 
L 52.160938 216.501741 
L 60.745553 215.179181 
L 69.330168 215.156651 
L 77.914784 215.046497 
L 86.499399 215.645985 
L 95.084014 215.742416 
L 103.66863 216.074139 
L 112.253245 215.816716 
L 120.837861 215.838592 
L 129.422476 215.3633 
L 138.007091 215.458463 
L 146.591707 215.936113 
L 155.176322 215.032658 
L 163.760938 216.421371 
L 172.345553 215.636131 
L 180.930168 215.213947 
L 189.514784 214.951606 
L 198.099399 214.791602 
L 206.684014 215.335595 
L 215.26863 213.340123 
L 223.853245 213.115767 
L 232.437861 213.13686 
L 241.022476 213.672855 
L 249.607091 213.349252 
L 258.191707 213.573144 
L 266.776322 214.595857 
L 275.360938 214.657819 
L 283.945553 214.698544 
L 292.530168 213.752508 
L 301.114784 213.841625 
L 309.699399 213.50892 
L 318.284014 214.112027 
L 326.86863 213.252805 
L 335.453245 213.180367 
L 344.037861 213.115736 
L 352.622476 213.072417 
L 361.207091 216.218223 
L 369.791707 215.153381 
L 378.376322 214.272671 
L 386.960938 214.031996 
L 395.545553 215.193457 
L 404.130168 213.11234 
L 412.714784 213.92067 
L 421.299399 214.343211 
L 429.884014 215.294975 
L 438.46863 214.530903 
L 447.053245 215.008356 
L 455.637861 214.711725 
L 464.222476 213.254562 
L 472.807091 214.340868 
L 481.391707 214.059377 
L 489.976322 215.990864 
L 498.560938 216.286732 
L 498.560938 312.073498 
L 498.560938 312.073498 
L 489.976322 313.578348 
L 481.391707 320.611882 
L 472.807091 320.43842 
L 464.222476 318.610503 
L 455.637861 319.921878 
L 447.053245 322.159695 
L 438.46863 321.499053 
L 429.884014 323.088722 
L 421.299399 323.83048 
L 412.714784 319.125274 
L 404.130168 316.082347 
L 395.545553 321.730692 
L 386.960938 319.722265 
L 378.376322 321.047323 
L 369.791707 324.870003 
L 361.207091 326.675308 
L 352.622476 319.677165 
L 344.037861 317.692054 
L 335.453245 321.578102 
L 326.86863 321.987388 
L 318.284014 322.43794 
L 309.699399 322.666521 
L 301.114784 320.638345 
L 292.530168 319.694675 
L 283.945553 323.140138 
L 275.360938 323.781454 
L 266.776322 325.485385 
L 258.191707 324.318511 
L 249.607091 325.017673 
L 241.022476 324.748053 
L 232.437861 325.118622 
L 223.853245 321.268492 
L 215.26863 324.258339 
L 206.684014 328.540592 
L 198.099399 325.974489 
L 189.514784 329.517656 
L 180.930168 327.998048 
L 172.345553 327.173072 
L 163.760938 326.329278 
L 155.176322 325.957318 
L 146.591707 324.406432 
L 138.007091 323.630604 
L 129.422476 323.972499 
L 120.837861 323.397592 
L 112.253245 323.93741 
L 103.66863 323.194326 
L 95.084014 324.120585 
L 86.499399 324.432636 
L 77.914784 323.963702 
L 69.330168 322.616904 
L 60.745553 325.757544 
L 52.160938 318.489329 
z
" style="fill:#ee1111;"/>
   </g>
   <g id="PolyCollection_13">
    <path clip-path="url(#pac61878b61)" d="M 52.160938 318.489329 
L 52.160938 318.489329 
L 60.745553 325.757544 
L 69.330168 322.616904 
L 77.914784 323.963702 
L 86.499399 324.432636 
L 95.084014 324.120585 
L 103.66863 323.194326 
L 112.253245 323.93741 
L 120.837861 323.397592 
L 129.422476 323.972499 
L 138.007091 323.630604 
L 146.591707 324.406432 
L 155.176322 325.957318 
L 163.760938 326.329278 
L 172.345553 327.173072 
L 180.930168 327.998048 
L 189.514784 329.517656 
L 198.099399 325.974489 
L 206.684014 328.540592 
L 215.26863 324.258339 
L 223.853245 321.268492 
L 232.437861 325.118622 
L 241.022476 324.748053 
L 249.607091 325.017673 
L 258.191707 324.318511 
L 266.776322 325.485385 
L 275.360938 323.781454 
L 283.945553 323.140138 
L 292.530168 319.694675 
L 301.114784 320.638345 
L 309.699399 322.666521 
L 318.284014 322.43794 
L 326.86863 321.987388 
L 335.453245 321.578102 
L 344.037861 317.692054 
L 352.622476 319.677165 
L 361.207091 326.675308 
L 369.791707 324.870003 
L 378.376322 321.047323 
L 386.960938 319.722265 
L 395.545553 321.730692 
L 404.130168 316.082347 
L 412.714784 319.125274 
L 421.299399 323.83048 
L 429.884014 323.088722 
L 438.46863 321.499053 
L 447.053245 322.159695 
L 455.637861 319.921878 
L 464.222476 318.610503 
L 472.807091 320.43842 
L 481.391707 320.611882 
L 489.976322 313.578348 
L 498.560938 312.073498 
L 498.560938 312.073498 
L 498.560938 312.073498 
L 489.976322 313.578348 
L 481.391707 320.611882 
L 472.807091 320.43842 
L 464.222476 318.610503 
L 455.637861 319.921878 
L 447.053245 322.159695 
L 438.46863 321.499053 
L 429.884014 323.088722 
L 421.299399 323.83048 
L 412.714784 319.125274 
L 404.130168 316.082347 
L 395.545553 321.730692 
L 386.960938 319.722265 
L 378.376322 321.047323 
L 369.791707 324.870003 
L 361.207091 326.675308 
L 352.622476 319.677165 
L 344.037861 317.692054 
L 335.453245 321.578102 
L 326.86863 321.987388 
L 318.284014 322.43794 
L 309.699399 322.666521 
L 301.114784 320.638345 
L 292.530168 319.694675 
L 283.945553 323.140138 
L 275.360938 323.781454 
L 266.776322 325.485385 
L 258.191707 324.318511 
L 249.607091 325.017673 
L 241.022476 324.748053 
L 232.437861 325.118622 
L 223.853245 321.268492 
L 215.26863 324.258339 
L 206.684014 328.540592 
L 198.099399 325.974489 
L 189.514784 329.517656 
L 180.930168 327.998048 
L 172.345553 327.173072 
L 163.760938 326.329278 
L 155.176322 325.957318 
L 146.591707 324.406432 
L 138.007091 323.630604 
L 129.422476 323.972499 
L 120.837861 323.397592 
L 112.253245 323.93741 
L 103.66863 323.194326 
L 95.084014 324.120585 
L 86.499399 324.432636 
L 77.914784 323.963702 
L 69.330168 322.616904 
L 60.745553 325.757544 
L 52.160938 318.489329 
z
" style="fill:#e50eec;"/>
   </g>
   <g id="matplotlib.axis_1">
    <g id="xtick_1">
     <g id="line2d_1">
      <defs>
       <path d="M 0 0 
L 0 3.5 
" id="mb3f62b2771" style="stroke:#000000;stroke-width:0.8;"/>
      </defs>
      <g>
       <use style="stroke:#000000;stroke-width:0.8;" x="52.160938" xlink:href="#mb3f62b2771" y="357.237656"/>
      </g>
     </g>
     <g id="text_1">
      <!-- January -->
      <g transform="translate(48.27075 402.461103)rotate(-70)scale(0.1 -0.1)">
       <defs>
        <path d="M 9.8125 72.90625 
L 19.671875 72.90625 
L 19.671875 5.078125 
Q 19.671875 -8.109375 14.671875 -14.0625 
Q 9.671875 -20.015625 -1.421875 -20.015625 
L -5.171875 -20.015625 
L -5.171875 -11.71875 
L -2.09375 -11.71875 
Q 4.4375 -11.71875 7.125 -8.046875 
Q 9.8125 -4.390625 9.8125 5.078125 
z
" id="DejaVuSans-74"/>
        <path d="M 34.28125 27.484375 
Q 23.390625 27.484375 19.1875 25 
Q 14.984375 22.515625 14.984375 16.5 
Q 14.984375 11.71875 18.140625 8.90625 
Q 21.296875 6.109375 26.703125 6.109375 
Q 34.1875 6.109375 38.703125 11.40625 
Q 43.21875 16.703125 43.21875 25.484375 
L 43.21875 27.484375 
z
M 52.203125 31.203125 
L 52.203125 0 
L 43.21875 0 
L 43.21875 8.296875 
Q 40.140625 3.328125 35.546875 0.953125 
Q 30.953125 -1.421875 24.3125 -1.421875 
Q 15.921875 -1.421875 10.953125 3.296875 
Q 6 8.015625 6 15.921875 
Q 6 25.140625 12.171875 29.828125 
Q 18.359375 34.515625 30.609375 34.515625 
L 43.21875 34.515625 
L 43.21875 35.40625 
Q 43.21875 41.609375 39.140625 45 
Q 35.0625 48.390625 27.6875 48.390625 
Q 23 48.390625 18.546875 47.265625 
Q 14.109375 46.140625 10.015625 43.890625 
L 10.015625 52.203125 
Q 14.9375 54.109375 19.578125 55.046875 
Q 24.21875 56 28.609375 56 
Q 40.484375 56 46.34375 49.84375 
Q 52.203125 43.703125 52.203125 31.203125 
z
" id="DejaVuSans-97"/>
        <path d="M 54.890625 33.015625 
L 54.890625 0 
L 45.90625 0 
L 45.90625 32.71875 
Q 45.90625 40.484375 42.875 44.328125 
Q 39.84375 48.1875 33.796875 48.1875 
Q 26.515625 48.1875 22.3125 43.546875 
Q 18.109375 38.921875 18.109375 30.90625 
L 18.109375 0 
L 9.078125 0 
L 9.078125 54.6875 
L 18.109375 54.6875 
L 18.109375 46.1875 
Q 21.34375 51.125 25.703125 53.5625 
Q 30.078125 56 35.796875 56 
Q 45.21875 56 50.046875 50.171875 
Q 54.890625 44.34375 54.890625 33.015625 
z
" id="DejaVuSans-110"/>
        <path d="M 8.5 21.578125 
L 8.5 54.6875 
L 17.484375 54.6875 
L 17.484375 21.921875 
Q 17.484375 14.15625 20.5 10.265625 
Q 23.53125 6.390625 29.59375 6.390625 
Q 36.859375 6.390625 41.078125 11.03125 
Q 45.3125 15.671875 45.3125 23.6875 
L 45.3125 54.6875 
L 54.296875 54.6875 
L 54.296875 0 
L 45.3125 0 
L 45.3125 8.40625 
Q 42.046875 3.421875 37.71875 1 
Q 33.40625 -1.421875 27.6875 -1.421875 
Q 18.265625 -1.421875 13.375 4.4375 
Q 8.5 10.296875 8.5 21.578125 
z
M 31.109375 56 
z
" id="DejaVuSans-117"/>
        <path d="M 41.109375 46.296875 
Q 39.59375 47.171875 37.8125 47.578125 
Q 36.03125 48 33.890625 48 
Q 26.265625 48 22.1875 43.046875 
Q 18.109375 38.09375 18.109375 28.8125 
L 18.109375 0 
L 9.078125 0 
L 9.078125 54.6875 
L 18.109375 54.6875 
L 18.109375 46.1875 
Q 20.953125 51.171875 25.484375 53.578125 
Q 30.03125 56 36.53125 56 
Q 37.453125 56 38.578125 55.875 
Q 39.703125 55.765625 41.0625 55.515625 
z
" id="DejaVuSans-114"/>
        <path d="M 32.171875 -5.078125 
Q 28.375 -14.84375 24.75 -17.8125 
Q 21.140625 -20.796875 15.09375 -20.796875 
L 7.90625 -20.796875 
L 7.90625 -13.28125 
L 13.1875 -13.28125 
Q 16.890625 -13.28125 18.9375 -11.515625 
Q 21 -9.765625 23.484375 -3.21875 
L 25.09375 0.875 
L 2.984375 54.6875 
L 12.5 54.6875 
L 29.59375 11.921875 
L 46.6875 54.6875 
L 56.203125 54.6875 
z
" id="DejaVuSans-121"/>
       </defs>
       <use xlink:href="#DejaVuSans-74"/>
       <use x="29.492188" xlink:href="#DejaVuSans-97"/>
       <use x="90.771484" xlink:href="#DejaVuSans-110"/>
       <use x="154.150391" xlink:href="#DejaVuSans-117"/>
       <use x="217.529297" xlink:href="#DejaVuSans-97"/>
       <use x="278.808594" xlink:href="#DejaVuSans-114"/>
       <use x="319.921875" xlink:href="#DejaVuSans-121"/>
      </g>
     </g>
    </g>
    <g id="xtick_2">
     <g id="line2d_2">
      <g>
       <use style="stroke:#000000;stroke-width:0.8;" x="86.499399" xlink:href="#mb3f62b2771" y="357.237656"/>
      </g>
     </g>
     <g id="text_2">
      <!-- February -->
      <g transform="translate(81.515014 408.473668)rotate(-70)scale(0.1 -0.1)">
       <defs>
        <path d="M 9.8125 72.90625 
L 51.703125 72.90625 
L 51.703125 64.59375 
L 19.671875 64.59375 
L 19.671875 43.109375 
L 48.578125 43.109375 
L 48.578125 34.8125 
L 19.671875 34.8125 
L 19.671875 0 
L 9.8125 0 
z
" id="DejaVuSans-70"/>
        <path d="M 56.203125 29.59375 
L 56.203125 25.203125 
L 14.890625 25.203125 
Q 15.484375 15.921875 20.484375 11.0625 
Q 25.484375 6.203125 34.421875 6.203125 
Q 39.59375 6.203125 44.453125 7.46875 
Q 49.3125 8.734375 54.109375 11.28125 
L 54.109375 2.78125 
Q 49.265625 0.734375 44.1875 -0.34375 
Q 39.109375 -1.421875 33.890625 -1.421875 
Q 20.796875 -1.421875 13.15625 6.1875 
Q 5.515625 13.8125 5.515625 26.8125 
Q 5.515625 40.234375 12.765625 48.109375 
Q 20.015625 56 32.328125 56 
Q 43.359375 56 49.78125 48.890625 
Q 56.203125 41.796875 56.203125 29.59375 
z
M 47.21875 32.234375 
Q 47.125 39.59375 43.09375 43.984375 
Q 39.0625 48.390625 32.421875 48.390625 
Q 24.90625 48.390625 20.390625 44.140625 
Q 15.875 39.890625 15.1875 32.171875 
z
" id="DejaVuSans-101"/>
        <path d="M 48.6875 27.296875 
Q 48.6875 37.203125 44.609375 42.84375 
Q 40.53125 48.484375 33.40625 48.484375 
Q 26.265625 48.484375 22.1875 42.84375 
Q 18.109375 37.203125 18.109375 27.296875 
Q 18.109375 17.390625 22.1875 11.75 
Q 26.265625 6.109375 33.40625 6.109375 
Q 40.53125 6.109375 44.609375 11.75 
Q 48.6875 17.390625 48.6875 27.296875 
z
M 18.109375 46.390625 
Q 20.953125 51.265625 25.265625 53.625 
Q 29.59375 56 35.59375 56 
Q 45.5625 56 51.78125 48.09375 
Q 58.015625 40.1875 58.015625 27.296875 
Q 58.015625 14.40625 51.78125 6.484375 
Q 45.5625 -1.421875 35.59375 -1.421875 
Q 29.59375 -1.421875 25.265625 0.953125 
Q 20.953125 3.328125 18.109375 8.203125 
L 18.109375 0 
L 9.078125 0 
L 9.078125 75.984375 
L 18.109375 75.984375 
z
" id="DejaVuSans-98"/>
       </defs>
       <use xlink:href="#DejaVuSans-70"/>
       <use x="52.019531" xlink:href="#DejaVuSans-101"/>
       <use x="113.542969" xlink:href="#DejaVuSans-98"/>
       <use x="177.019531" xlink:href="#DejaVuSans-114"/>
       <use x="218.132812" xlink:href="#DejaVuSans-117"/>
       <use x="281.511719" xlink:href="#DejaVuSans-97"/>
       <use x="342.791016" xlink:href="#DejaVuSans-114"/>
       <use x="383.904297" xlink:href="#DejaVuSans-121"/>
      </g>
     </g>
    </g>
    <g id="xtick_3">
     <g id="line2d_3">
      <g>
       <use style="stroke:#000000;stroke-width:0.8;" x="120.837861" xlink:href="#mb3f62b2771" y="357.237656"/>
      </g>
     </g>
     <g id="text_3">
      <!-- March -->
      <g transform="translate(118.218759 395.476544)rotate(-70)scale(0.1 -0.1)">
       <defs>
        <path d="M 9.8125 72.90625 
L 24.515625 72.90625 
L 43.109375 23.296875 
L 61.8125 72.90625 
L 76.515625 72.90625 
L 76.515625 0 
L 66.890625 0 
L 66.890625 64.015625 
L 48.09375 14.015625 
L 38.1875 14.015625 
L 19.390625 64.015625 
L 19.390625 0 
L 9.8125 0 
z
" id="DejaVuSans-77"/>
        <path d="M 48.78125 52.59375 
L 48.78125 44.1875 
Q 44.96875 46.296875 41.140625 47.34375 
Q 37.3125 48.390625 33.40625 48.390625 
Q 24.65625 48.390625 19.8125 42.84375 
Q 14.984375 37.3125 14.984375 27.296875 
Q 14.984375 17.28125 19.8125 11.734375 
Q 24.65625 6.203125 33.40625 6.203125 
Q 37.3125 6.203125 41.140625 7.25 
Q 44.96875 8.296875 48.78125 10.40625 
L 48.78125 2.09375 
Q 45.015625 0.34375 40.984375 -0.53125 
Q 36.96875 -1.421875 32.421875 -1.421875 
Q 20.0625 -1.421875 12.78125 6.34375 
Q 5.515625 14.109375 5.515625 27.296875 
Q 5.515625 40.671875 12.859375 48.328125 
Q 20.21875 56 33.015625 56 
Q 37.15625 56 41.109375 55.140625 
Q 45.0625 54.296875 48.78125 52.59375 
z
" id="DejaVuSans-99"/>
        <path d="M 54.890625 33.015625 
L 54.890625 0 
L 45.90625 0 
L 45.90625 32.71875 
Q 45.90625 40.484375 42.875 44.328125 
Q 39.84375 48.1875 33.796875 48.1875 
Q 26.515625 48.1875 22.3125 43.546875 
Q 18.109375 38.921875 18.109375 30.90625 
L 18.109375 0 
L 9.078125 0 
L 9.078125 75.984375 
L 18.109375 75.984375 
L 18.109375 46.1875 
Q 21.34375 51.125 25.703125 53.5625 
Q 30.078125 56 35.796875 56 
Q 45.21875 56 50.046875 50.171875 
Q 54.890625 44.34375 54.890625 33.015625 
z
" id="DejaVuSans-104"/>
       </defs>
       <use xlink:href="#DejaVuSans-77"/>
       <use x="86.279297" xlink:href="#DejaVuSans-97"/>
       <use x="147.558594" xlink:href="#DejaVuSans-114"/>
       <use x="186.421875" xlink:href="#DejaVuSans-99"/>
       <use x="241.402344" xlink:href="#DejaVuSans-104"/>
      </g>
     </g>
    </g>
    <g id="xtick_4">
     <g id="line2d_4">
      <g>
       <use style="stroke:#000000;stroke-width:0.8;" x="163.760938" xlink:href="#mb3f62b2771" y="357.237656"/>
      </g>
     </g>
     <g id="text_4">
      <!-- April -->
      <g transform="translate(162.445253 388.314324)rotate(-70)scale(0.1 -0.1)">
       <defs>
        <path d="M 34.1875 63.1875 
L 20.796875 26.90625 
L 47.609375 26.90625 
z
M 28.609375 72.90625 
L 39.796875 72.90625 
L 67.578125 0 
L 57.328125 0 
L 50.6875 18.703125 
L 17.828125 18.703125 
L 11.1875 0 
L 0.78125 0 
z
" id="DejaVuSans-65"/>
        <path d="M 18.109375 8.203125 
L 18.109375 -20.796875 
L 9.078125 -20.796875 
L 9.078125 54.6875 
L 18.109375 54.6875 
L 18.109375 46.390625 
Q 20.953125 51.265625 25.265625 53.625 
Q 29.59375 56 35.59375 56 
Q 45.5625 56 51.78125 48.09375 
Q 58.015625 40.1875 58.015625 27.296875 
Q 58.015625 14.40625 51.78125 6.484375 
Q 45.5625 -1.421875 35.59375 -1.421875 
Q 29.59375 -1.421875 25.265625 0.953125 
Q 20.953125 3.328125 18.109375 8.203125 
z
M 48.6875 27.296875 
Q 48.6875 37.203125 44.609375 42.84375 
Q 40.53125 48.484375 33.40625 48.484375 
Q 26.265625 48.484375 22.1875 42.84375 
Q 18.109375 37.203125 18.109375 27.296875 
Q 18.109375 17.390625 22.1875 11.75 
Q 26.265625 6.109375 33.40625 6.109375 
Q 40.53125 6.109375 44.609375 11.75 
Q 48.6875 17.390625 48.6875 27.296875 
z
" id="DejaVuSans-112"/>
        <path d="M 9.421875 54.6875 
L 18.40625 54.6875 
L 18.40625 0 
L 9.421875 0 
z
M 9.421875 75.984375 
L 18.40625 75.984375 
L 18.40625 64.59375 
L 9.421875 64.59375 
z
" id="DejaVuSans-105"/>
        <path d="M 9.421875 75.984375 
L 18.40625 75.984375 
L 18.40625 0 
L 9.421875 0 
z
" id="DejaVuSans-108"/>
       </defs>
       <use xlink:href="#DejaVuSans-65"/>
       <use x="68.408203" xlink:href="#DejaVuSans-112"/>
       <use x="131.884766" xlink:href="#DejaVuSans-114"/>
       <use x="172.998047" xlink:href="#DejaVuSans-105"/>
       <use x="200.78125" xlink:href="#DejaVuSans-108"/>
      </g>
     </g>
    </g>
    <g id="xtick_5">
     <g id="line2d_5">
      <g>
       <use style="stroke:#000000;stroke-width:0.8;" x="198.099399" xlink:href="#mb3f62b2771" y="357.237656"/>
      </g>
     </g>
     <g id="text_5">
      <!-- May -->
      <g transform="translate(197.15673 386.26462)rotate(-70)scale(0.1 -0.1)">
       <use xlink:href="#DejaVuSans-77"/>
       <use x="86.279297" xlink:href="#DejaVuSans-97"/>
       <use x="147.558594" xlink:href="#DejaVuSans-121"/>
      </g>
     </g>
    </g>
    <g id="xtick_6">
     <g id="line2d_6">
      <g>
       <use style="stroke:#000000;stroke-width:0.8;" x="241.022476" xlink:href="#mb3f62b2771" y="357.237656"/>
      </g>
     </g>
     <g id="text_6">
      <!-- June -->
      <g transform="translate(239.891162 387.301218)rotate(-70)scale(0.1 -0.1)">
       <use xlink:href="#DejaVuSans-74"/>
       <use x="29.492188" xlink:href="#DejaVuSans-117"/>
       <use x="92.871094" xlink:href="#DejaVuSans-110"/>
       <use x="156.25" xlink:href="#DejaVuSans-101"/>
      </g>
     </g>
    </g>
    <g id="xtick_7">
     <g id="line2d_7">
      <g>
       <use style="stroke:#000000;stroke-width:0.8;" x="275.360938" xlink:href="#mb3f62b2771" y="357.237656"/>
      </g>
     </g>
     <g id="text_7">
      <!-- July -->
      <g transform="translate(274.878393 383.736259)rotate(-70)scale(0.1 -0.1)">
       <use xlink:href="#DejaVuSans-74"/>
       <use x="29.492188" xlink:href="#DejaVuSans-117"/>
       <use x="92.871094" xlink:href="#DejaVuSans-108"/>
       <use x="120.654297" xlink:href="#DejaVuSans-121"/>
      </g>
     </g>
    </g>
    <g id="xtick_8">
     <g id="line2d_8">
      <g>
       <use style="stroke:#000000;stroke-width:0.8;" x="309.699399" xlink:href="#mb3f62b2771" y="357.237656"/>
      </g>
     </g>
     <g id="text_8">
      <!-- August -->
      <g transform="translate(306.30808 399.719844)rotate(-70)scale(0.1 -0.1)">
       <defs>
        <path d="M 45.40625 27.984375 
Q 45.40625 37.75 41.375 43.109375 
Q 37.359375 48.484375 30.078125 48.484375 
Q 22.859375 48.484375 18.828125 43.109375 
Q 14.796875 37.75 14.796875 27.984375 
Q 14.796875 18.265625 18.828125 12.890625 
Q 22.859375 7.515625 30.078125 7.515625 
Q 37.359375 7.515625 41.375 12.890625 
Q 45.40625 18.265625 45.40625 27.984375 
z
M 54.390625 6.78125 
Q 54.390625 -7.171875 48.1875 -13.984375 
Q 42 -20.796875 29.203125 -20.796875 
Q 24.46875 -20.796875 20.265625 -20.09375 
Q 16.0625 -19.390625 12.109375 -17.921875 
L 12.109375 -9.1875 
Q 16.0625 -11.328125 19.921875 -12.34375 
Q 23.78125 -13.375 27.78125 -13.375 
Q 36.625 -13.375 41.015625 -8.765625 
Q 45.40625 -4.15625 45.40625 5.171875 
L 45.40625 9.625 
Q 42.625 4.78125 38.28125 2.390625 
Q 33.9375 0 27.875 0 
Q 17.828125 0 11.671875 7.65625 
Q 5.515625 15.328125 5.515625 27.984375 
Q 5.515625 40.671875 11.671875 48.328125 
Q 17.828125 56 27.875 56 
Q 33.9375 56 38.28125 53.609375 
Q 42.625 51.21875 45.40625 46.390625 
L 45.40625 54.6875 
L 54.390625 54.6875 
z
" id="DejaVuSans-103"/>
        <path d="M 44.28125 53.078125 
L 44.28125 44.578125 
Q 40.484375 46.53125 36.375 47.5 
Q 32.28125 48.484375 27.875 48.484375 
Q 21.1875 48.484375 17.84375 46.4375 
Q 14.5 44.390625 14.5 40.28125 
Q 14.5 37.15625 16.890625 35.375 
Q 19.28125 33.59375 26.515625 31.984375 
L 29.59375 31.296875 
Q 39.15625 29.25 43.1875 25.515625 
Q 47.21875 21.78125 47.21875 15.09375 
Q 47.21875 7.46875 41.1875 3.015625 
Q 35.15625 -1.421875 24.609375 -1.421875 
Q 20.21875 -1.421875 15.453125 -0.5625 
Q 10.6875 0.296875 5.421875 2 
L 5.421875 11.28125 
Q 10.40625 8.6875 15.234375 7.390625 
Q 20.0625 6.109375 24.8125 6.109375 
Q 31.15625 6.109375 34.5625 8.28125 
Q 37.984375 10.453125 37.984375 14.40625 
Q 37.984375 18.0625 35.515625 20.015625 
Q 33.0625 21.96875 24.703125 23.78125 
L 21.578125 24.515625 
Q 13.234375 26.265625 9.515625 29.90625 
Q 5.8125 33.546875 5.8125 39.890625 
Q 5.8125 47.609375 11.28125 51.796875 
Q 16.75 56 26.8125 56 
Q 31.78125 56 36.171875 55.265625 
Q 40.578125 54.546875 44.28125 53.078125 
z
" id="DejaVuSans-115"/>
        <path d="M 18.3125 70.21875 
L 18.3125 54.6875 
L 36.8125 54.6875 
L 36.8125 47.703125 
L 18.3125 47.703125 
L 18.3125 18.015625 
Q 18.3125 11.328125 20.140625 9.421875 
Q 21.96875 7.515625 27.59375 7.515625 
L 36.8125 7.515625 
L 36.8125 0 
L 27.59375 0 
Q 17.1875 0 13.234375 3.875 
Q 9.28125 7.765625 9.28125 18.015625 
L 9.28125 47.703125 
L 2.6875 47.703125 
L 2.6875 54.6875 
L 9.28125 54.6875 
L 9.28125 70.21875 
z
" id="DejaVuSans-116"/>
       </defs>
       <use xlink:href="#DejaVuSans-65"/>
       <use x="68.408203" xlink:href="#DejaVuSans-117"/>
       <use x="131.787109" xlink:href="#DejaVuSans-103"/>
       <use x="195.263672" xlink:href="#DejaVuSans-117"/>
       <use x="258.642578" xlink:href="#DejaVuSans-115"/>
       <use x="310.742188" xlink:href="#DejaVuSans-116"/>
      </g>
     </g>
    </g>
    <g id="xtick_9">
     <g id="line2d_9">
      <g>
       <use style="stroke:#000000;stroke-width:0.8;" x="352.622476" xlink:href="#mb3f62b2771" y="357.237656"/>
      </g>
     </g>
     <g id="text_9">
      <!-- September -->
      <g transform="translate(345.762591 418.779453)rotate(-70)scale(0.1 -0.1)">
       <defs>
        <path d="M 53.515625 70.515625 
L 53.515625 60.890625 
Q 47.90625 63.578125 42.921875 64.890625 
Q 37.9375 66.21875 33.296875 66.21875 
Q 25.25 66.21875 20.875 63.09375 
Q 16.5 59.96875 16.5 54.203125 
Q 16.5 49.359375 19.40625 46.890625 
Q 22.3125 44.4375 30.421875 42.921875 
L 36.375 41.703125 
Q 47.40625 39.59375 52.65625 34.296875 
Q 57.90625 29 57.90625 20.125 
Q 57.90625 9.515625 50.796875 4.046875 
Q 43.703125 -1.421875 29.984375 -1.421875 
Q 24.8125 -1.421875 18.96875 -0.25 
Q 13.140625 0.921875 6.890625 3.21875 
L 6.890625 13.375 
Q 12.890625 10.015625 18.65625 8.296875 
Q 24.421875 6.59375 29.984375 6.59375 
Q 38.421875 6.59375 43.015625 9.90625 
Q 47.609375 13.234375 47.609375 19.390625 
Q 47.609375 24.75 44.3125 27.78125 
Q 41.015625 30.8125 33.5 32.328125 
L 27.484375 33.5 
Q 16.453125 35.6875 11.515625 40.375 
Q 6.59375 45.0625 6.59375 53.421875 
Q 6.59375 63.09375 13.40625 68.65625 
Q 20.21875 74.21875 32.171875 74.21875 
Q 37.3125 74.21875 42.625 73.28125 
Q 47.953125 72.359375 53.515625 70.515625 
z
" id="DejaVuSans-83"/>
        <path d="M 52 44.1875 
Q 55.375 50.25 60.0625 53.125 
Q 64.75 56 71.09375 56 
Q 79.640625 56 84.28125 50.015625 
Q 88.921875 44.046875 88.921875 33.015625 
L 88.921875 0 
L 79.890625 0 
L 79.890625 32.71875 
Q 79.890625 40.578125 77.09375 44.375 
Q 74.3125 48.1875 68.609375 48.1875 
Q 61.625 48.1875 57.5625 43.546875 
Q 53.515625 38.921875 53.515625 30.90625 
L 53.515625 0 
L 44.484375 0 
L 44.484375 32.71875 
Q 44.484375 40.625 41.703125 44.40625 
Q 38.921875 48.1875 33.109375 48.1875 
Q 26.21875 48.1875 22.15625 43.53125 
Q 18.109375 38.875 18.109375 30.90625 
L 18.109375 0 
L 9.078125 0 
L 9.078125 54.6875 
L 18.109375 54.6875 
L 18.109375 46.1875 
Q 21.1875 51.21875 25.484375 53.609375 
Q 29.78125 56 35.6875 56 
Q 41.65625 56 45.828125 52.96875 
Q 50 49.953125 52 44.1875 
z
" id="DejaVuSans-109"/>
       </defs>
       <use xlink:href="#DejaVuSans-83"/>
       <use x="63.476562" xlink:href="#DejaVuSans-101"/>
       <use x="125" xlink:href="#DejaVuSans-112"/>
       <use x="188.476562" xlink:href="#DejaVuSans-116"/>
       <use x="227.685547" xlink:href="#DejaVuSans-101"/>
       <use x="289.208984" xlink:href="#DejaVuSans-109"/>
       <use x="386.621094" xlink:href="#DejaVuSans-98"/>
       <use x="450.097656" xlink:href="#DejaVuSans-101"/>
       <use x="511.621094" xlink:href="#DejaVuSans-114"/>
      </g>
     </g>
    </g>
    <g id="xtick_10">
     <g id="line2d_10">
      <g>
       <use style="stroke:#000000;stroke-width:0.8;" x="386.960938" xlink:href="#mb3f62b2771" y="357.237656"/>
      </g>
     </g>
     <g id="text_10">
      <!-- October -->
      <g transform="translate(382.709758 404.444736)rotate(-70)scale(0.1 -0.1)">
       <defs>
        <path d="M 39.40625 66.21875 
Q 28.65625 66.21875 22.328125 58.203125 
Q 16.015625 50.203125 16.015625 36.375 
Q 16.015625 22.609375 22.328125 14.59375 
Q 28.65625 6.59375 39.40625 6.59375 
Q 50.140625 6.59375 56.421875 14.59375 
Q 62.703125 22.609375 62.703125 36.375 
Q 62.703125 50.203125 56.421875 58.203125 
Q 50.140625 66.21875 39.40625 66.21875 
z
M 39.40625 74.21875 
Q 54.734375 74.21875 63.90625 63.9375 
Q 73.09375 53.65625 73.09375 36.375 
Q 73.09375 19.140625 63.90625 8.859375 
Q 54.734375 -1.421875 39.40625 -1.421875 
Q 24.03125 -1.421875 14.8125 8.828125 
Q 5.609375 19.09375 5.609375 36.375 
Q 5.609375 53.65625 14.8125 63.9375 
Q 24.03125 74.21875 39.40625 74.21875 
z
" id="DejaVuSans-79"/>
        <path d="M 30.609375 48.390625 
Q 23.390625 48.390625 19.1875 42.75 
Q 14.984375 37.109375 14.984375 27.296875 
Q 14.984375 17.484375 19.15625 11.84375 
Q 23.34375 6.203125 30.609375 6.203125 
Q 37.796875 6.203125 41.984375 11.859375 
Q 46.1875 17.53125 46.1875 27.296875 
Q 46.1875 37.015625 41.984375 42.703125 
Q 37.796875 48.390625 30.609375 48.390625 
z
M 30.609375 56 
Q 42.328125 56 49.015625 48.375 
Q 55.71875 40.765625 55.71875 27.296875 
Q 55.71875 13.875 49.015625 6.21875 
Q 42.328125 -1.421875 30.609375 -1.421875 
Q 18.84375 -1.421875 12.171875 6.21875 
Q 5.515625 13.875 5.515625 27.296875 
Q 5.515625 40.765625 12.171875 48.375 
Q 18.84375 56 30.609375 56 
z
" id="DejaVuSans-111"/>
       </defs>
       <use xlink:href="#DejaVuSans-79"/>
       <use x="78.710938" xlink:href="#DejaVuSans-99"/>
       <use x="133.691406" xlink:href="#DejaVuSans-116"/>
       <use x="172.900391" xlink:href="#DejaVuSans-111"/>
       <use x="234.082031" xlink:href="#DejaVuSans-98"/>
       <use x="297.558594" xlink:href="#DejaVuSans-101"/>
       <use x="359.082031" xlink:href="#DejaVuSans-114"/>
      </g>
     </g>
    </g>
    <g id="xtick_11">
     <g id="line2d_11">
      <g>
       <use style="stroke:#000000;stroke-width:0.8;" x="421.299399" xlink:href="#mb3f62b2771" y="357.237656"/>
      </g>
     </g>
     <g id="text_11">
      <!-- November -->
      <g transform="translate(414.995564 415.723984)rotate(-70)scale(0.1 -0.1)">
       <defs>
        <path d="M 9.8125 72.90625 
L 23.09375 72.90625 
L 55.421875 11.921875 
L 55.421875 72.90625 
L 64.984375 72.90625 
L 64.984375 0 
L 51.703125 0 
L 19.390625 60.984375 
L 19.390625 0 
L 9.8125 0 
z
" id="DejaVuSans-78"/>
        <path d="M 2.984375 54.6875 
L 12.5 54.6875 
L 29.59375 8.796875 
L 46.6875 54.6875 
L 56.203125 54.6875 
L 35.6875 0 
L 23.484375 0 
z
" id="DejaVuSans-118"/>
       </defs>
       <use xlink:href="#DejaVuSans-78"/>
       <use x="74.804688" xlink:href="#DejaVuSans-111"/>
       <use x="135.986328" xlink:href="#DejaVuSans-118"/>
       <use x="195.166016" xlink:href="#DejaVuSans-101"/>
       <use x="256.689453" xlink:href="#DejaVuSans-109"/>
       <use x="354.101562" xlink:href="#DejaVuSans-98"/>
       <use x="417.578125" xlink:href="#DejaVuSans-101"/>
       <use x="479.101562" xlink:href="#DejaVuSans-114"/>
      </g>
     </g>
    </g>
    <g id="xtick_12">
     <g id="line2d_12">
      <g>
       <use style="stroke:#000000;stroke-width:0.8;" x="464.222476" xlink:href="#mb3f62b2771" y="357.237656"/>
      </g>
     </g>
     <g id="text_12">
      <!-- December -->
      <g transform="translate(457.947232 415.566879)rotate(-70)scale(0.1 -0.1)">
       <defs>
        <path d="M 19.671875 64.796875 
L 19.671875 8.109375 
L 31.59375 8.109375 
Q 46.6875 8.109375 53.6875 14.9375 
Q 60.6875 21.78125 60.6875 36.53125 
Q 60.6875 51.171875 53.6875 57.984375 
Q 46.6875 64.796875 31.59375 64.796875 
z
M 9.8125 72.90625 
L 30.078125 72.90625 
Q 51.265625 72.90625 61.171875 64.09375 
Q 71.09375 55.28125 71.09375 36.53125 
Q 71.09375 17.671875 61.125 8.828125 
Q 51.171875 0 30.078125 0 
L 9.8125 0 
z
" id="DejaVuSans-68"/>
       </defs>
       <use xlink:href="#DejaVuSans-68"/>
       <use x="77.001953" xlink:href="#DejaVuSans-101"/>
       <use x="138.525391" xlink:href="#DejaVuSans-99"/>
       <use x="193.505859" xlink:href="#DejaVuSans-101"/>
       <use x="255.029297" xlink:href="#DejaVuSans-109"/>
       <use x="352.441406" xlink:href="#DejaVuSans-98"/>
       <use x="415.917969" xlink:href="#DejaVuSans-101"/>
       <use x="477.441406" xlink:href="#DejaVuSans-114"/>
      </g>
     </g>
    </g>
    <g id="text_13">
     <!-- Date -->
     <g transform="translate(263.410156 431.089185)scale(0.1 -0.1)">
      <use xlink:href="#DejaVuSans-68"/>
      <use x="77.001953" xlink:href="#DejaVuSans-97"/>
      <use x="138.28125" xlink:href="#DejaVuSans-116"/>
      <use x="177.490234" xlink:href="#DejaVuSans-101"/>
     </g>
    </g>
   </g>
   <g id="matplotlib.axis_2">
    <g id="ytick_1">
     <g id="line2d_13">
      <defs>
       <path d="M 0 0 
L -3.5 0 
" id="mf5adc11dc1" style="stroke:#000000;stroke-width:0.8;"/>
      </defs>
      <g>
       <use style="stroke:#000000;stroke-width:0.8;" x="52.160938" xlink:href="#mf5adc11dc1" y="336.174748"/>
      </g>
     </g>
     <g id="text_14">
      <!-- 0.6 -->
      <g transform="translate(20.878125 339.973967)scale(0.1 -0.1)">
       <defs>
        <path d="M 10.59375 35.5 
L 73.1875 35.5 
L 73.1875 27.203125 
L 10.59375 27.203125 
z
" id="DejaVuSans-8722"/>
        <path d="M 31.78125 66.40625 
Q 24.171875 66.40625 20.328125 58.90625 
Q 16.5 51.421875 16.5 36.375 
Q 16.5 21.390625 20.328125 13.890625 
Q 24.171875 6.390625 31.78125 6.390625 
Q 39.453125 6.390625 43.28125 13.890625 
Q 47.125 21.390625 47.125 36.375 
Q 47.125 51.421875 43.28125 58.90625 
Q 39.453125 66.40625 31.78125 66.40625 
z
M 31.78125 74.21875 
Q 44.046875 74.21875 50.515625 64.515625 
Q 56.984375 54.828125 56.984375 36.375 
Q 56.984375 17.96875 50.515625 8.265625 
Q 44.046875 -1.421875 31.78125 -1.421875 
Q 19.53125 -1.421875 13.0625 8.265625 
Q 6.59375 17.96875 6.59375 36.375 
Q 6.59375 54.828125 13.0625 64.515625 
Q 19.53125 74.21875 31.78125 74.21875 
z
" id="DejaVuSans-48"/>
        <path d="M 10.6875 12.40625 
L 21 12.40625 
L 21 0 
L 10.6875 0 
z
" id="DejaVuSans-46"/>
        <path d="M 33.015625 40.375 
Q 26.375 40.375 22.484375 35.828125 
Q 18.609375 31.296875 18.609375 23.390625 
Q 18.609375 15.53125 22.484375 10.953125 
Q 26.375 6.390625 33.015625 6.390625 
Q 39.65625 6.390625 43.53125 10.953125 
Q 47.40625 15.53125 47.40625 23.390625 
Q 47.40625 31.296875 43.53125 35.828125 
Q 39.65625 40.375 33.015625 40.375 
z
M 52.59375 71.296875 
L 52.59375 62.3125 
Q 48.875 64.0625 45.09375 64.984375 
Q 41.3125 65.921875 37.59375 65.921875 
Q 27.828125 65.921875 22.671875 59.328125 
Q 17.53125 52.734375 16.796875 39.40625 
Q 19.671875 43.65625 24.015625 45.921875 
Q 28.375 48.1875 33.59375 48.1875 
Q 44.578125 48.1875 50.953125 41.515625 
Q 57.328125 34.859375 57.328125 23.390625 
Q 57.328125 12.15625 50.6875 5.359375 
Q 44.046875 -1.421875 33.015625 -1.421875 
Q 20.359375 -1.421875 13.671875 8.265625 
Q 6.984375 17.96875 6.984375 36.375 
Q 6.984375 53.65625 15.1875 63.9375 
Q 23.390625 74.21875 37.203125 74.21875 
Q 40.921875 74.21875 44.703125 73.484375 
Q 48.484375 72.75 52.59375 71.296875 
z
" id="DejaVuSans-54"/>
       </defs>
       <use xlink:href="#DejaVuSans-8722"/>
       <use x="83.789062" xlink:href="#DejaVuSans-48"/>
       <use x="147.412109" xlink:href="#DejaVuSans-46"/>
       <use x="179.199219" xlink:href="#DejaVuSans-54"/>
      </g>
     </g>
    </g>
    <g id="ytick_2">
     <g id="line2d_14">
      <g>
       <use style="stroke:#000000;stroke-width:0.8;" x="52.160938" xlink:href="#mf5adc11dc1" y="295.108545"/>
      </g>
     </g>
     <g id="text_15">
      <!-- 0.4 -->
      <g transform="translate(20.878125 298.907764)scale(0.1 -0.1)">
       <defs>
        <path d="M 37.796875 64.3125 
L 12.890625 25.390625 
L 37.796875 25.390625 
z
M 35.203125 72.90625 
L 47.609375 72.90625 
L 47.609375 25.390625 
L 58.015625 25.390625 
L 58.015625 17.1875 
L 47.609375 17.1875 
L 47.609375 0 
L 37.796875 0 
L 37.796875 17.1875 
L 4.890625 17.1875 
L 4.890625 26.703125 
z
" id="DejaVuSans-52"/>
       </defs>
       <use xlink:href="#DejaVuSans-8722"/>
       <use x="83.789062" xlink:href="#DejaVuSans-48"/>
       <use x="147.412109" xlink:href="#DejaVuSans-46"/>
       <use x="179.199219" xlink:href="#DejaVuSans-52"/>
      </g>
     </g>
    </g>
    <g id="ytick_3">
     <g id="line2d_15">
      <g>
       <use style="stroke:#000000;stroke-width:0.8;" x="52.160938" xlink:href="#mf5adc11dc1" y="254.042342"/>
      </g>
     </g>
     <g id="text_16">
      <!-- 0.2 -->
      <g transform="translate(20.878125 257.84156)scale(0.1 -0.1)">
       <defs>
        <path d="M 19.1875 8.296875 
L 53.609375 8.296875 
L 53.609375 0 
L 7.328125 0 
L 7.328125 8.296875 
Q 12.9375 14.109375 22.625 23.890625 
Q 32.328125 33.6875 34.8125 36.53125 
Q 39.546875 41.84375 41.421875 45.53125 
Q 43.3125 49.21875 43.3125 52.78125 
Q 43.3125 58.59375 39.234375 62.25 
Q 35.15625 65.921875 28.609375 65.921875 
Q 23.96875 65.921875 18.8125 64.3125 
Q 13.671875 62.703125 7.8125 59.421875 
L 7.8125 69.390625 
Q 13.765625 71.78125 18.9375 73 
Q 24.125 74.21875 28.421875 74.21875 
Q 39.75 74.21875 46.484375 68.546875 
Q 53.21875 62.890625 53.21875 53.421875 
Q 53.21875 48.921875 51.53125 44.890625 
Q 49.859375 40.875 45.40625 35.40625 
Q 44.1875 33.984375 37.640625 27.21875 
Q 31.109375 20.453125 19.1875 8.296875 
z
" id="DejaVuSans-50"/>
       </defs>
       <use xlink:href="#DejaVuSans-8722"/>
       <use x="83.789062" xlink:href="#DejaVuSans-48"/>
       <use x="147.412109" xlink:href="#DejaVuSans-46"/>
       <use x="179.199219" xlink:href="#DejaVuSans-50"/>
      </g>
     </g>
    </g>
    <g id="ytick_4">
     <g id="line2d_16">
      <g>
       <use style="stroke:#000000;stroke-width:0.8;" x="52.160938" xlink:href="#mf5adc11dc1" y="212.976138"/>
      </g>
     </g>
     <g id="text_17">
      <!-- 0.0 -->
      <g transform="translate(29.257812 216.775357)scale(0.1 -0.1)">
       <use xlink:href="#DejaVuSans-48"/>
       <use x="63.623047" xlink:href="#DejaVuSans-46"/>
       <use x="95.410156" xlink:href="#DejaVuSans-48"/>
      </g>
     </g>
    </g>
    <g id="ytick_5">
     <g id="line2d_17">
      <g>
       <use style="stroke:#000000;stroke-width:0.8;" x="52.160938" xlink:href="#mf5adc11dc1" y="171.909935"/>
      </g>
     </g>
     <g id="text_18">
      <!-- 0.2 -->
      <g transform="translate(29.257812 175.709154)scale(0.1 -0.1)">
       <use xlink:href="#DejaVuSans-48"/>
       <use x="63.623047" xlink:href="#DejaVuSans-46"/>
       <use x="95.410156" xlink:href="#DejaVuSans-50"/>
      </g>
     </g>
    </g>
    <g id="ytick_6">
     <g id="line2d_18">
      <g>
       <use style="stroke:#000000;stroke-width:0.8;" x="52.160938" xlink:href="#mf5adc11dc1" y="130.843731"/>
      </g>
     </g>
     <g id="text_19">
      <!-- 0.4 -->
      <g transform="translate(29.257812 134.64295)scale(0.1 -0.1)">
       <use xlink:href="#DejaVuSans-48"/>
       <use x="63.623047" xlink:href="#DejaVuSans-46"/>
       <use x="95.410156" xlink:href="#DejaVuSans-52"/>
      </g>
     </g>
    </g>
    <g id="ytick_7">
     <g id="line2d_19">
      <g>
       <use style="stroke:#000000;stroke-width:0.8;" x="52.160938" xlink:href="#mf5adc11dc1" y="89.777528"/>
      </g>
     </g>
     <g id="text_20">
      <!-- 0.6 -->
      <g transform="translate(29.257812 93.576747)scale(0.1 -0.1)">
       <use xlink:href="#DejaVuSans-48"/>
       <use x="63.623047" xlink:href="#DejaVuSans-46"/>
       <use x="95.410156" xlink:href="#DejaVuSans-54"/>
      </g>
     </g>
    </g>
    <g id="ytick_8">
     <g id="line2d_20">
      <g>
       <use style="stroke:#000000;stroke-width:0.8;" x="52.160938" xlink:href="#mf5adc11dc1" y="48.711324"/>
      </g>
     </g>
     <g id="text_21">
      <!-- 0.8 -->
      <g transform="translate(29.257812 52.510543)scale(0.1 -0.1)">
       <defs>
        <path d="M 31.78125 34.625 
Q 24.75 34.625 20.71875 30.859375 
Q 16.703125 27.09375 16.703125 20.515625 
Q 16.703125 13.921875 20.71875 10.15625 
Q 24.75 6.390625 31.78125 6.390625 
Q 38.8125 6.390625 42.859375 10.171875 
Q 46.921875 13.96875 46.921875 20.515625 
Q 46.921875 27.09375 42.890625 30.859375 
Q 38.875 34.625 31.78125 34.625 
z
M 21.921875 38.8125 
Q 15.578125 40.375 12.03125 44.71875 
Q 8.5 49.078125 8.5 55.328125 
Q 8.5 64.0625 14.71875 69.140625 
Q 20.953125 74.21875 31.78125 74.21875 
Q 42.671875 74.21875 48.875 69.140625 
Q 55.078125 64.0625 55.078125 55.328125 
Q 55.078125 49.078125 51.53125 44.71875 
Q 48 40.375 41.703125 38.8125 
Q 48.828125 37.15625 52.796875 32.3125 
Q 56.78125 27.484375 56.78125 20.515625 
Q 56.78125 9.90625 50.3125 4.234375 
Q 43.84375 -1.421875 31.78125 -1.421875 
Q 19.734375 -1.421875 13.25 4.234375 
Q 6.78125 9.90625 6.78125 20.515625 
Q 6.78125 27.484375 10.78125 32.3125 
Q 14.796875 37.15625 21.921875 38.8125 
z
M 18.3125 54.390625 
Q 18.3125 48.734375 21.84375 45.5625 
Q 25.390625 42.390625 31.78125 42.390625 
Q 38.140625 42.390625 41.71875 45.5625 
Q 45.3125 48.734375 45.3125 54.390625 
Q 45.3125 60.0625 41.71875 63.234375 
Q 38.140625 66.40625 31.78125 66.40625 
Q 25.390625 66.40625 21.84375 63.234375 
Q 18.3125 60.0625 18.3125 54.390625 
z
" id="DejaVuSans-56"/>
       </defs>
       <use xlink:href="#DejaVuSans-48"/>
       <use x="63.623047" xlink:href="#DejaVuSans-46"/>
       <use x="95.410156" xlink:href="#DejaVuSans-56"/>
      </g>
     </g>
    </g>
    <g id="text_22">
     <!-- GW -->
     <g transform="translate(14.798438 199.735625)rotate(-90)scale(0.1 -0.1)">
      <defs>
       <path d="M 59.515625 10.40625 
L 59.515625 29.984375 
L 43.40625 29.984375 
L 43.40625 38.09375 
L 69.28125 38.09375 
L 69.28125 6.78125 
Q 63.578125 2.734375 56.6875 0.65625 
Q 49.8125 -1.421875 42 -1.421875 
Q 24.90625 -1.421875 15.25 8.5625 
Q 5.609375 18.5625 5.609375 36.375 
Q 5.609375 54.25 15.25 64.234375 
Q 24.90625 74.21875 42 74.21875 
Q 49.125 74.21875 55.546875 72.453125 
Q 61.96875 70.703125 67.390625 67.28125 
L 67.390625 56.78125 
Q 61.921875 61.421875 55.765625 63.765625 
Q 49.609375 66.109375 42.828125 66.109375 
Q 29.4375 66.109375 22.71875 58.640625 
Q 16.015625 51.171875 16.015625 36.375 
Q 16.015625 21.625 22.71875 14.15625 
Q 29.4375 6.6875 42.828125 6.6875 
Q 48.046875 6.6875 52.140625 7.59375 
Q 56.25 8.5 59.515625 10.40625 
z
" id="DejaVuSans-71"/>
       <path d="M 3.328125 72.90625 
L 13.28125 72.90625 
L 28.609375 11.28125 
L 43.890625 72.90625 
L 54.984375 72.90625 
L 70.3125 11.28125 
L 85.59375 72.90625 
L 95.609375 72.90625 
L 77.296875 0 
L 64.890625 0 
L 49.515625 63.28125 
L 33.984375 0 
L 21.578125 0 
z
" id="DejaVuSans-87"/>
      </defs>
      <use xlink:href="#DejaVuSans-71"/>
      <use x="77.490234" xlink:href="#DejaVuSans-87"/>
     </g>
    </g>
   </g>
   <g id="line2d_21">
    <path clip-path="url(#pac61878b61)" d="M 52.160938 175.321164 
L 60.745553 172.288298 
L 69.330168 173.022242 
L 77.914784 173.144744 
L 86.499399 173.295277 
L 95.084014 174.199835 
L 103.66863 173.998897 
L 112.253245 176.041117 
L 120.837861 175.368488 
L 129.422476 176.704614 
L 138.007091 176.506627 
L 146.591707 176.253856 
L 155.176322 177.803285 
L 163.760938 179.60909 
L 172.345553 177.15518 
L 180.930168 174.12715 
L 189.514784 171.562567 
L 198.099399 171.555664 
L 206.684014 168.81796 
L 215.26863 167.275995 
L 223.853245 167.616246 
L 232.437861 168.853595 
L 241.022476 168.320338 
L 249.607091 167.153149 
L 258.191707 167.109803 
L 266.776322 167.373497 
L 275.360938 167.051394 
L 283.945553 166.080028 
L 292.530168 168.139041 
L 301.114784 167.106538 
L 309.699399 170.357175 
L 318.284014 167.622944 
L 326.86863 166.962706 
L 335.453245 167.662673 
L 344.037861 167.064901 
L 352.622476 167.692173 
L 361.207091 166.016826 
L 369.791707 165.773734 
L 378.376322 165.833003 
L 386.960938 167.270939 
L 395.545553 166.908201 
L 404.130168 166.00257 
L 412.714784 168.221754 
L 421.299399 165.080262 
L 429.884014 165.299618 
L 438.46863 168.457692 
L 447.053245 167.646648 
L 455.637861 166.111055 
L 464.222476 166.041175 
L 472.807091 166.153302 
L 481.391707 166.583977 
L 489.976322 169.702631 
L 498.560938 166.542684 
" style="fill:none;stroke:#000000;stroke-linecap:square;stroke-opacity:0.5;"/>
   </g>
   <g id="patch_3">
    <path d="M 52.160938 357.237656 
L 52.160938 24.597656 
" style="fill:none;stroke:#000000;stroke-linecap:square;stroke-linejoin:miter;stroke-width:0.8;"/>
   </g>
   <g id="patch_4">
    <path d="M 498.560937 357.237656 
L 498.560937 24.597656 
" style="fill:none;stroke:#000000;stroke-linecap:square;stroke-linejoin:miter;stroke-width:0.8;"/>
   </g>
   <g id="patch_5">
    <path d="M 52.160938 357.237656 
L 498.560938 357.237656 
" style="fill:none;stroke:#000000;stroke-linecap:square;stroke-linejoin:miter;stroke-width:0.8;"/>
   </g>
   <g id="patch_6">
    <path d="M 52.160938 24.597656 
L 498.560938 24.597656 
" style="fill:none;stroke:#000000;stroke-linecap:square;stroke-linejoin:miter;stroke-width:0.8;"/>
   </g>
   <g id="text_23">
    <!-- Western Region Dispatch -->
    <g transform="translate(181.220703 18.597656)scale(0.15 -0.15)">
     <defs>
      <path id="DejaVuSans-32"/>
      <path d="M 44.390625 34.1875 
Q 47.5625 33.109375 50.5625 29.59375 
Q 53.5625 26.078125 56.59375 19.921875 
L 66.609375 0 
L 56 0 
L 46.6875 18.703125 
Q 43.0625 26.03125 39.671875 28.421875 
Q 36.28125 30.8125 30.421875 30.8125 
L 19.671875 30.8125 
L 19.671875 0 
L 9.8125 0 
L 9.8125 72.90625 
L 32.078125 72.90625 
Q 44.578125 72.90625 50.734375 67.671875 
Q 56.890625 62.453125 56.890625 51.90625 
Q 56.890625 45.015625 53.6875 40.46875 
Q 50.484375 35.9375 44.390625 34.1875 
z
M 19.671875 64.796875 
L 19.671875 38.921875 
L 32.078125 38.921875 
Q 39.203125 38.921875 42.84375 42.21875 
Q 46.484375 45.515625 46.484375 51.90625 
Q 46.484375 58.296875 42.84375 61.546875 
Q 39.203125 64.796875 32.078125 64.796875 
z
" id="DejaVuSans-82"/>
     </defs>
     <use xlink:href="#DejaVuSans-87"/>
     <use x="93.001953" xlink:href="#DejaVuSans-101"/>
     <use x="154.525391" xlink:href="#DejaVuSans-115"/>
     <use x="206.625" xlink:href="#DejaVuSans-116"/>
     <use x="245.833984" xlink:href="#DejaVuSans-101"/>
     <use x="307.357422" xlink:href="#DejaVuSans-114"/>
     <use x="346.720703" xlink:href="#DejaVuSans-110"/>
     <use x="410.099609" xlink:href="#DejaVuSans-32"/>
     <use x="441.886719" xlink:href="#DejaVuSans-82"/>
     <use x="506.869141" xlink:href="#DejaVuSans-101"/>
     <use x="568.392578" xlink:href="#DejaVuSans-103"/>
     <use x="631.869141" xlink:href="#DejaVuSans-105"/>
     <use x="659.652344" xlink:href="#DejaVuSans-111"/>
     <use x="720.833984" xlink:href="#DejaVuSans-110"/>
     <use x="784.212891" xlink:href="#DejaVuSans-32"/>
     <use x="816" xlink:href="#DejaVuSans-68"/>
     <use x="893.001953" xlink:href="#DejaVuSans-105"/>
     <use x="920.785156" xlink:href="#DejaVuSans-115"/>
     <use x="972.884766" xlink:href="#DejaVuSans-112"/>
     <use x="1036.361328" xlink:href="#DejaVuSans-97"/>
     <use x="1097.640625" xlink:href="#DejaVuSans-116"/>
     <use x="1136.849609" xlink:href="#DejaVuSans-99"/>
     <use x="1191.830078" xlink:href="#DejaVuSans-104"/>
    </g>
   </g>
   <g id="legend_1">
    <g id="patch_7">
     <path d="M 522.880937 233.091406 
L 663.862187 233.091406 
Q 665.862187 233.091406 665.862187 231.091406 
L 665.862187 26.597656 
Q 665.862187 24.597656 663.862187 24.597656 
L 522.880937 24.597656 
Q 520.880937 24.597656 520.880937 26.597656 
L 520.880937 231.091406 
Q 520.880937 233.091406 522.880937 233.091406 
z
" style="fill:#ffffff;opacity:0.8;stroke:#cccccc;stroke-linejoin:miter;"/>
    </g>
    <g id="line2d_22">
     <path d="M 524.880937 32.696094 
L 544.880937 32.696094 
" style="fill:none;stroke:#000000;stroke-linecap:square;stroke-opacity:0.5;"/>
    </g>
    <g id="line2d_23"/>
    <g id="text_24">
     <!-- Demand -->
     <g transform="translate(552.880937 36.196094)scale(0.1 -0.1)">
      <defs>
       <path d="M 45.40625 46.390625 
L 45.40625 75.984375 
L 54.390625 75.984375 
L 54.390625 0 
L 45.40625 0 
L 45.40625 8.203125 
Q 42.578125 3.328125 38.25 0.953125 
Q 33.9375 -1.421875 27.875 -1.421875 
Q 17.96875 -1.421875 11.734375 6.484375 
Q 5.515625 14.40625 5.515625 27.296875 
Q 5.515625 40.1875 11.734375 48.09375 
Q 17.96875 56 27.875 56 
Q 33.9375 56 38.25 53.625 
Q 42.578125 51.265625 45.40625 46.390625 
z
M 14.796875 27.296875 
Q 14.796875 17.390625 18.875 11.75 
Q 22.953125 6.109375 30.078125 6.109375 
Q 37.203125 6.109375 41.296875 11.75 
Q 45.40625 17.390625 45.40625 27.296875 
Q 45.40625 37.203125 41.296875 42.84375 
Q 37.203125 48.484375 30.078125 48.484375 
Q 22.953125 48.484375 18.875 42.84375 
Q 14.796875 37.203125 14.796875 27.296875 
z
" id="DejaVuSans-100"/>
      </defs>
      <use xlink:href="#DejaVuSans-68"/>
      <use x="77.001953" xlink:href="#DejaVuSans-101"/>
      <use x="138.525391" xlink:href="#DejaVuSans-109"/>
      <use x="235.9375" xlink:href="#DejaVuSans-97"/>
      <use x="297.216797" xlink:href="#DejaVuSans-110"/>
      <use x="360.595703" xlink:href="#DejaVuSans-100"/>
     </g>
    </g>
    <g id="patch_8">
     <path d="M 524.880937 50.874219 
L 544.880937 50.874219 
L 544.880937 43.874219 
L 524.880937 43.874219 
z
" style="fill:#ffb30f;"/>
    </g>
    <g id="text_25">
     <!-- Geothermal -->
     <g transform="translate(552.880937 50.874219)scale(0.1 -0.1)">
      <use xlink:href="#DejaVuSans-71"/>
      <use x="77.490234" xlink:href="#DejaVuSans-101"/>
      <use x="139.013672" xlink:href="#DejaVuSans-111"/>
      <use x="200.195312" xlink:href="#DejaVuSans-116"/>
      <use x="239.404297" xlink:href="#DejaVuSans-104"/>
      <use x="302.783203" xlink:href="#DejaVuSans-101"/>
      <use x="364.306641" xlink:href="#DejaVuSans-114"/>
      <use x="403.669922" xlink:href="#DejaVuSans-109"/>
      <use x="501.082031" xlink:href="#DejaVuSans-97"/>
      <use x="562.361328" xlink:href="#DejaVuSans-108"/>
     </g>
    </g>
    <g id="patch_9">
     <path d="M 524.880937 65.552344 
L 544.880937 65.552344 
L 544.880937 58.552344 
L 524.880937 58.552344 
z
" style="fill:#2980b9;"/>
    </g>
    <g id="text_26">
     <!-- Large Hydro -->
     <g transform="translate(552.880937 65.552344)scale(0.1 -0.1)">
      <defs>
       <path d="M 9.8125 72.90625 
L 19.671875 72.90625 
L 19.671875 8.296875 
L 55.171875 8.296875 
L 55.171875 0 
L 9.8125 0 
z
" id="DejaVuSans-76"/>
       <path d="M 9.8125 72.90625 
L 19.671875 72.90625 
L 19.671875 43.015625 
L 55.515625 43.015625 
L 55.515625 72.90625 
L 65.375 72.90625 
L 65.375 0 
L 55.515625 0 
L 55.515625 34.71875 
L 19.671875 34.71875 
L 19.671875 0 
L 9.8125 0 
z
" id="DejaVuSans-72"/>
      </defs>
      <use xlink:href="#DejaVuSans-76"/>
      <use x="55.712891" xlink:href="#DejaVuSans-97"/>
      <use x="116.992188" xlink:href="#DejaVuSans-114"/>
      <use x="156.355469" xlink:href="#DejaVuSans-103"/>
      <use x="219.832031" xlink:href="#DejaVuSans-101"/>
      <use x="281.355469" xlink:href="#DejaVuSans-32"/>
      <use x="313.142578" xlink:href="#DejaVuSans-72"/>
      <use x="388.337891" xlink:href="#DejaVuSans-121"/>
      <use x="447.517578" xlink:href="#DejaVuSans-100"/>
      <use x="510.994141" xlink:href="#DejaVuSans-114"/>
      <use x="549.857422" xlink:href="#DejaVuSans-111"/>
     </g>
    </g>
    <g id="patch_10">
     <path d="M 524.880937 80.230469 
L 544.880937 80.230469 
L 544.880937 73.230469 
L 524.880937 73.230469 
z
" style="fill:#3498db;"/>
    </g>
    <g id="text_27">
     <!-- Small Hydro -->
     <g transform="translate(552.880937 80.230469)scale(0.1 -0.1)">
      <use xlink:href="#DejaVuSans-83"/>
      <use x="63.476562" xlink:href="#DejaVuSans-109"/>
      <use x="160.888672" xlink:href="#DejaVuSans-97"/>
      <use x="222.167969" xlink:href="#DejaVuSans-108"/>
      <use x="249.951172" xlink:href="#DejaVuSans-108"/>
      <use x="277.734375" xlink:href="#DejaVuSans-32"/>
      <use x="309.521484" xlink:href="#DejaVuSans-72"/>
      <use x="384.716797" xlink:href="#DejaVuSans-121"/>
      <use x="443.896484" xlink:href="#DejaVuSans-100"/>
      <use x="507.373047" xlink:href="#DejaVuSans-114"/>
      <use x="546.236328" xlink:href="#DejaVuSans-111"/>
     </g>
    </g>
    <g id="patch_11">
     <path d="M 524.880937 94.908594 
L 544.880937 94.908594 
L 544.880937 87.908594 
L 524.880937 87.908594 
z
" style="fill:#28b463;"/>
    </g>
    <g id="text_28">
     <!-- Onshore Wind -->
     <g transform="translate(552.880937 94.908594)scale(0.1 -0.1)">
      <use xlink:href="#DejaVuSans-79"/>
      <use x="78.710938" xlink:href="#DejaVuSans-110"/>
      <use x="142.089844" xlink:href="#DejaVuSans-115"/>
      <use x="194.189453" xlink:href="#DejaVuSans-104"/>
      <use x="257.568359" xlink:href="#DejaVuSans-111"/>
      <use x="318.75" xlink:href="#DejaVuSans-114"/>
      <use x="357.613281" xlink:href="#DejaVuSans-101"/>
      <use x="419.136719" xlink:href="#DejaVuSans-32"/>
      <use x="450.923828" xlink:href="#DejaVuSans-87"/>
      <use x="547.550781" xlink:href="#DejaVuSans-105"/>
      <use x="575.333984" xlink:href="#DejaVuSans-110"/>
      <use x="638.712891" xlink:href="#DejaVuSans-100"/>
     </g>
    </g>
    <g id="patch_12">
     <path d="M 524.880937 109.586719 
L 544.880937 109.586719 
L 544.880937 102.586719 
L 524.880937 102.586719 
z
" style="fill:#494949;"/>
    </g>
    <g id="text_29">
     <!-- Heavy Fuel Oil -->
     <g transform="translate(552.880937 109.586719)scale(0.1 -0.1)">
      <use xlink:href="#DejaVuSans-72"/>
      <use x="75.195312" xlink:href="#DejaVuSans-101"/>
      <use x="136.71875" xlink:href="#DejaVuSans-97"/>
      <use x="197.998047" xlink:href="#DejaVuSans-118"/>
      <use x="257.177734" xlink:href="#DejaVuSans-121"/>
      <use x="316.357422" xlink:href="#DejaVuSans-32"/>
      <use x="348.144531" xlink:href="#DejaVuSans-70"/>
      <use x="400.164062" xlink:href="#DejaVuSans-117"/>
      <use x="463.542969" xlink:href="#DejaVuSans-101"/>
      <use x="525.066406" xlink:href="#DejaVuSans-108"/>
      <use x="552.849609" xlink:href="#DejaVuSans-32"/>
      <use x="584.636719" xlink:href="#DejaVuSans-79"/>
      <use x="663.347656" xlink:href="#DejaVuSans-105"/>
      <use x="691.130859" xlink:href="#DejaVuSans-108"/>
     </g>
    </g>
    <g id="patch_13">
     <path d="M 524.880937 124.264844 
L 544.880937 124.264844 
L 544.880937 117.264844 
L 524.880937 117.264844 
z
" style="fill:#7c7c7c;"/>
    </g>
    <g id="text_30">
     <!-- Gas Turbine -->
     <g transform="translate(552.880937 124.264844)scale(0.1 -0.1)">
      <defs>
       <path d="M -0.296875 72.90625 
L 61.375 72.90625 
L 61.375 64.59375 
L 35.5 64.59375 
L 35.5 0 
L 25.59375 0 
L 25.59375 64.59375 
L -0.296875 64.59375 
z
" id="DejaVuSans-84"/>
      </defs>
      <use xlink:href="#DejaVuSans-71"/>
      <use x="77.490234" xlink:href="#DejaVuSans-97"/>
      <use x="138.769531" xlink:href="#DejaVuSans-115"/>
      <use x="190.869141" xlink:href="#DejaVuSans-32"/>
      <use x="222.65625" xlink:href="#DejaVuSans-84"/>
      <use x="268.615234" xlink:href="#DejaVuSans-117"/>
      <use x="331.994141" xlink:href="#DejaVuSans-114"/>
      <use x="373.107422" xlink:href="#DejaVuSans-98"/>
      <use x="436.583984" xlink:href="#DejaVuSans-105"/>
      <use x="464.367188" xlink:href="#DejaVuSans-110"/>
      <use x="527.746094" xlink:href="#DejaVuSans-101"/>
     </g>
    </g>
    <g id="patch_14">
     <path d="M 524.880937 138.942969 
L 544.880937 138.942969 
L 544.880937 131.942969 
L 524.880937 131.942969 
z
" style="fill:#ba4a00;"/>
    </g>
    <g id="text_31">
     <!-- Biomass -->
     <g transform="translate(552.880937 138.942969)scale(0.1 -0.1)">
      <defs>
       <path d="M 19.671875 34.8125 
L 19.671875 8.109375 
L 35.5 8.109375 
Q 43.453125 8.109375 47.28125 11.40625 
Q 51.125 14.703125 51.125 21.484375 
Q 51.125 28.328125 47.28125 31.5625 
Q 43.453125 34.8125 35.5 34.8125 
z
M 19.671875 64.796875 
L 19.671875 42.828125 
L 34.28125 42.828125 
Q 41.5 42.828125 45.03125 45.53125 
Q 48.578125 48.25 48.578125 53.8125 
Q 48.578125 59.328125 45.03125 62.0625 
Q 41.5 64.796875 34.28125 64.796875 
z
M 9.8125 72.90625 
L 35.015625 72.90625 
Q 46.296875 72.90625 52.390625 68.21875 
Q 58.5 63.53125 58.5 54.890625 
Q 58.5 48.1875 55.375 44.234375 
Q 52.25 40.28125 46.1875 39.3125 
Q 53.46875 37.75 57.5 32.78125 
Q 61.53125 27.828125 61.53125 20.40625 
Q 61.53125 10.640625 54.890625 5.3125 
Q 48.25 0 35.984375 0 
L 9.8125 0 
z
" id="DejaVuSans-66"/>
      </defs>
      <use xlink:href="#DejaVuSans-66"/>
      <use x="68.603516" xlink:href="#DejaVuSans-105"/>
      <use x="96.386719" xlink:href="#DejaVuSans-111"/>
      <use x="157.568359" xlink:href="#DejaVuSans-109"/>
      <use x="254.980469" xlink:href="#DejaVuSans-97"/>
      <use x="316.259766" xlink:href="#DejaVuSans-115"/>
      <use x="368.359375" xlink:href="#DejaVuSans-115"/>
     </g>
    </g>
    <g id="patch_15">
     <path d="M 524.880937 153.621094 
L 544.880937 153.621094 
L 544.880937 146.621094 
L 524.880937 146.621094 
z
" style="fill:#606fed;"/>
    </g>
    <g id="text_32">
     <!-- Exchange From MTKR -->
     <g transform="translate(552.880937 153.621094)scale(0.1 -0.1)">
      <defs>
       <path d="M 9.8125 72.90625 
L 55.90625 72.90625 
L 55.90625 64.59375 
L 19.671875 64.59375 
L 19.671875 43.015625 
L 54.390625 43.015625 
L 54.390625 34.71875 
L 19.671875 34.71875 
L 19.671875 8.296875 
L 56.78125 8.296875 
L 56.78125 0 
L 9.8125 0 
z
" id="DejaVuSans-69"/>
       <path d="M 54.890625 54.6875 
L 35.109375 28.078125 
L 55.90625 0 
L 45.3125 0 
L 29.390625 21.484375 
L 13.484375 0 
L 2.875 0 
L 24.125 28.609375 
L 4.6875 54.6875 
L 15.28125 54.6875 
L 29.78125 35.203125 
L 44.28125 54.6875 
z
" id="DejaVuSans-120"/>
       <path d="M 9.8125 72.90625 
L 19.671875 72.90625 
L 19.671875 42.09375 
L 52.390625 72.90625 
L 65.09375 72.90625 
L 28.90625 38.921875 
L 67.671875 0 
L 54.6875 0 
L 19.671875 35.109375 
L 19.671875 0 
L 9.8125 0 
z
" id="DejaVuSans-75"/>
      </defs>
      <use xlink:href="#DejaVuSans-69"/>
      <use x="63.183594" xlink:href="#DejaVuSans-120"/>
      <use x="120.613281" xlink:href="#DejaVuSans-99"/>
      <use x="175.59375" xlink:href="#DejaVuSans-104"/>
      <use x="238.972656" xlink:href="#DejaVuSans-97"/>
      <use x="300.251953" xlink:href="#DejaVuSans-110"/>
      <use x="363.630859" xlink:href="#DejaVuSans-103"/>
      <use x="427.107422" xlink:href="#DejaVuSans-101"/>
      <use x="488.630859" xlink:href="#DejaVuSans-32"/>
      <use x="520.417969" xlink:href="#DejaVuSans-70"/>
      <use x="570.6875" xlink:href="#DejaVuSans-114"/>
      <use x="609.550781" xlink:href="#DejaVuSans-111"/>
      <use x="670.732422" xlink:href="#DejaVuSans-109"/>
      <use x="768.144531" xlink:href="#DejaVuSans-32"/>
      <use x="799.931641" xlink:href="#DejaVuSans-77"/>
      <use x="886.210938" xlink:href="#DejaVuSans-84"/>
      <use x="947.294922" xlink:href="#DejaVuSans-75"/>
      <use x="1012.871094" xlink:href="#DejaVuSans-82"/>
     </g>
    </g>
    <g id="patch_16">
     <path d="M 524.880937 168.299219 
L 544.880937 168.299219 
L 544.880937 161.299219 
L 524.880937 161.299219 
z
" style="fill:#ed6060;"/>
    </g>
    <g id="text_33">
     <!-- Exchange From NBOR -->
     <g transform="translate(552.880937 168.299219)scale(0.1 -0.1)">
      <use xlink:href="#DejaVuSans-69"/>
      <use x="63.183594" xlink:href="#DejaVuSans-120"/>
      <use x="120.613281" xlink:href="#DejaVuSans-99"/>
      <use x="175.59375" xlink:href="#DejaVuSans-104"/>
      <use x="238.972656" xlink:href="#DejaVuSans-97"/>
      <use x="300.251953" xlink:href="#DejaVuSans-110"/>
      <use x="363.630859" xlink:href="#DejaVuSans-103"/>
      <use x="427.107422" xlink:href="#DejaVuSans-101"/>
      <use x="488.630859" xlink:href="#DejaVuSans-32"/>
      <use x="520.417969" xlink:href="#DejaVuSans-70"/>
      <use x="570.6875" xlink:href="#DejaVuSans-114"/>
      <use x="609.550781" xlink:href="#DejaVuSans-111"/>
      <use x="670.732422" xlink:href="#DejaVuSans-109"/>
      <use x="768.144531" xlink:href="#DejaVuSans-32"/>
      <use x="799.931641" xlink:href="#DejaVuSans-78"/>
      <use x="874.736328" xlink:href="#DejaVuSans-66"/>
      <use x="941.589844" xlink:href="#DejaVuSans-79"/>
      <use x="1020.300781" xlink:href="#DejaVuSans-82"/>
     </g>
    </g>
    <g id="patch_17">
     <path d="M 524.880937 182.977344 
L 544.880937 182.977344 
L 544.880937 175.977344 
L 524.880937 175.977344 
z
" style="fill:#ea6bee;"/>
    </g>
    <g id="text_34">
     <!-- Exchange From CSTR -->
     <g transform="translate(552.880937 182.977344)scale(0.1 -0.1)">
      <defs>
       <path d="M 64.40625 67.28125 
L 64.40625 56.890625 
Q 59.421875 61.53125 53.78125 63.8125 
Q 48.140625 66.109375 41.796875 66.109375 
Q 29.296875 66.109375 22.65625 58.46875 
Q 16.015625 50.828125 16.015625 36.375 
Q 16.015625 21.96875 22.65625 14.328125 
Q 29.296875 6.6875 41.796875 6.6875 
Q 48.140625 6.6875 53.78125 8.984375 
Q 59.421875 11.28125 64.40625 15.921875 
L 64.40625 5.609375 
Q 59.234375 2.09375 53.4375 0.328125 
Q 47.65625 -1.421875 41.21875 -1.421875 
Q 24.65625 -1.421875 15.125 8.703125 
Q 5.609375 18.84375 5.609375 36.375 
Q 5.609375 53.953125 15.125 64.078125 
Q 24.65625 74.21875 41.21875 74.21875 
Q 47.75 74.21875 53.53125 72.484375 
Q 59.328125 70.75 64.40625 67.28125 
z
" id="DejaVuSans-67"/>
      </defs>
      <use xlink:href="#DejaVuSans-69"/>
      <use x="63.183594" xlink:href="#DejaVuSans-120"/>
      <use x="120.613281" xlink:href="#DejaVuSans-99"/>
      <use x="175.59375" xlink:href="#DejaVuSans-104"/>
      <use x="238.972656" xlink:href="#DejaVuSans-97"/>
      <use x="300.251953" xlink:href="#DejaVuSans-110"/>
      <use x="363.630859" xlink:href="#DejaVuSans-103"/>
      <use x="427.107422" xlink:href="#DejaVuSans-101"/>
      <use x="488.630859" xlink:href="#DejaVuSans-32"/>
      <use x="520.417969" xlink:href="#DejaVuSans-70"/>
      <use x="570.6875" xlink:href="#DejaVuSans-114"/>
      <use x="609.550781" xlink:href="#DejaVuSans-111"/>
      <use x="670.732422" xlink:href="#DejaVuSans-109"/>
      <use x="768.144531" xlink:href="#DejaVuSans-32"/>
      <use x="799.931641" xlink:href="#DejaVuSans-67"/>
      <use x="869.755859" xlink:href="#DejaVuSans-83"/>
      <use x="933.232422" xlink:href="#DejaVuSans-84"/>
      <use x="994.316406" xlink:href="#DejaVuSans-82"/>
     </g>
    </g>
    <g id="patch_18">
     <path d="M 524.880937 197.655469 
L 544.880937 197.655469 
L 544.880937 190.655469 
L 524.880937 190.655469 
z
" style="fill:#0e25ec;"/>
    </g>
    <g id="text_35">
     <!-- Exchange To MTKR -->
     <g transform="translate(552.880937 197.655469)scale(0.1 -0.1)">
      <use xlink:href="#DejaVuSans-69"/>
      <use x="63.183594" xlink:href="#DejaVuSans-120"/>
      <use x="120.613281" xlink:href="#DejaVuSans-99"/>
      <use x="175.59375" xlink:href="#DejaVuSans-104"/>
      <use x="238.972656" xlink:href="#DejaVuSans-97"/>
      <use x="300.251953" xlink:href="#DejaVuSans-110"/>
      <use x="363.630859" xlink:href="#DejaVuSans-103"/>
      <use x="427.107422" xlink:href="#DejaVuSans-101"/>
      <use x="488.630859" xlink:href="#DejaVuSans-32"/>
      <use x="520.417969" xlink:href="#DejaVuSans-84"/>
      <use x="564.501953" xlink:href="#DejaVuSans-111"/>
      <use x="625.683594" xlink:href="#DejaVuSans-32"/>
      <use x="657.470703" xlink:href="#DejaVuSans-77"/>
      <use x="743.75" xlink:href="#DejaVuSans-84"/>
      <use x="804.833984" xlink:href="#DejaVuSans-75"/>
      <use x="870.410156" xlink:href="#DejaVuSans-82"/>
     </g>
    </g>
    <g id="patch_19">
     <path d="M 524.880937 212.333594 
L 544.880937 212.333594 
L 544.880937 205.333594 
L 524.880937 205.333594 
z
" style="fill:#ee1111;"/>
    </g>
    <g id="text_36">
     <!-- Exchange To NBOR -->
     <g transform="translate(552.880937 212.333594)scale(0.1 -0.1)">
      <use xlink:href="#DejaVuSans-69"/>
      <use x="63.183594" xlink:href="#DejaVuSans-120"/>
      <use x="120.613281" xlink:href="#DejaVuSans-99"/>
      <use x="175.59375" xlink:href="#DejaVuSans-104"/>
      <use x="238.972656" xlink:href="#DejaVuSans-97"/>
      <use x="300.251953" xlink:href="#DejaVuSans-110"/>
      <use x="363.630859" xlink:href="#DejaVuSans-103"/>
      <use x="427.107422" xlink:href="#DejaVuSans-101"/>
      <use x="488.630859" xlink:href="#DejaVuSans-32"/>
      <use x="520.417969" xlink:href="#DejaVuSans-84"/>
      <use x="564.501953" xlink:href="#DejaVuSans-111"/>
      <use x="625.683594" xlink:href="#DejaVuSans-32"/>
      <use x="657.470703" xlink:href="#DejaVuSans-78"/>
      <use x="732.275391" xlink:href="#DejaVuSans-66"/>
      <use x="799.128906" xlink:href="#DejaVuSans-79"/>
      <use x="877.839844" xlink:href="#DejaVuSans-82"/>
     </g>
    </g>
    <g id="patch_20">
     <path d="M 524.880937 227.011719 
L 544.880937 227.011719 
L 544.880937 220.011719 
L 524.880937 220.011719 
z
" style="fill:#e50eec;"/>
    </g>
    <g id="text_37">
     <!-- Exchange To CSTR -->
     <g transform="translate(552.880937 227.011719)scale(0.1 -0.1)">
      <use xlink:href="#DejaVuSans-69"/>
      <use x="63.183594" xlink:href="#DejaVuSans-120"/>
      <use x="120.613281" xlink:href="#DejaVuSans-99"/>
      <use x="175.59375" xlink:href="#DejaVuSans-104"/>
      <use x="238.972656" xlink:href="#DejaVuSans-97"/>
      <use x="300.251953" xlink:href="#DejaVuSans-110"/>
      <use x="363.630859" xlink:href="#DejaVuSans-103"/>
      <use x="427.107422" xlink:href="#DejaVuSans-101"/>
      <use x="488.630859" xlink:href="#DejaVuSans-32"/>
      <use x="520.417969" xlink:href="#DejaVuSans-84"/>
      <use x="564.501953" xlink:href="#DejaVuSans-111"/>
      <use x="625.683594" xlink:href="#DejaVuSans-32"/>
      <use x="657.470703" xlink:href="#DejaVuSans-67"/>
      <use x="727.294922" xlink:href="#DejaVuSans-83"/>
      <use x="790.771484" xlink:href="#DejaVuSans-84"/>
      <use x="851.855469" xlink:href="#DejaVuSans-82"/>
     </g>
    </g>
   </g>
  </g>
 </g>
 <defs>
  <clipPath id="pac61878b61">
   <rect height="332.64" width="446.4" x="52.160938" y="24.597656"/>
  </clipPath>
 </defs>
</svg>
