<?xml version="1.0" encoding="utf-8" standalone="no"?>
<!DOCTYPE svg PUBLIC "-//W3C//DTD SVG 1.1//EN"
  "http://www.w3.org/Graphics/SVG/1.1/DTD/svg11.dtd">
<!-- Created with matplotlib (https://matplotlib.org/) -->
<svg height="424.050523pt" version="1.1" viewBox="0 0 673.062188 424.050523" width="673.062188pt" xmlns="http://www.w3.org/2000/svg" xmlns:xlink="http://www.w3.org/1999/xlink">
 <defs>
  <style type="text/css">
*{stroke-linecap:butt;stroke-linejoin:round;}
  </style>
 </defs>
 <g id="figure_1">
  <g id="patch_1">
   <path d="M 0 424.050523 
L 673.062188 424.050523 
L 673.062188 0 
L 0 0 
z
" style="fill:#ffffff;"/>
  </g>
  <g id="axes_1">
   <g id="patch_2">
    <path d="M 52.160938 357.237656 
L 498.560937 357.237656 
L 498.560937 24.597656 
L 52.160938 24.597656 
z
" style="fill:#ffffff;"/>
   </g>
   <g id="PolyCollection_1">
    <path clip-path="url(#p8bc33f4051)" d="M 52.160938 91.549012 
L 52.160938 212.620545 
L 61.65881 212.620545 
L 71.156682 212.620545 
L 80.654555 212.620545 
L 90.152427 212.620545 
L 99.650299 212.620545 
L 109.148172 212.620545 
L 118.646044 212.620545 
L 128.143916 212.620545 
L 137.641789 212.620545 
L 147.139661 212.620545 
L 156.637533 212.620545 
L 166.135406 212.620545 
L 175.633278 212.620545 
L 185.13115 212.620545 
L 194.629023 212.620545 
L 204.126895 212.620545 
L 213.624767 212.620545 
L 223.12264 212.620545 
L 232.620512 212.620545 
L 242.118384 212.620545 
L 251.616257 212.620545 
L 261.114129 212.620545 
L 270.612001 212.620545 
L 280.109874 212.620545 
L 289.607746 212.620545 
L 299.105618 212.620545 
L 308.603491 212.620545 
L 318.101363 212.620545 
L 327.599235 212.620545 
L 337.097108 212.620545 
L 346.59498 212.620545 
L 356.092852 212.620545 
L 365.590725 212.620545 
L 375.088597 212.620545 
L 384.586469 212.620545 
L 394.084342 212.620545 
L 403.582214 212.620545 
L 413.080086 212.620545 
L 422.577959 212.620545 
L 432.075831 212.620545 
L 441.573703 212.620545 
L 451.071576 212.620545 
L 460.569448 212.620545 
L 470.06732 212.620545 
L 479.565193 212.620545 
L 489.063065 212.620545 
L 498.560938 212.620545 
L 498.560938 91.549012 
L 498.560938 91.549012 
L 489.063065 91.549012 
L 479.565193 91.549012 
L 470.06732 91.549012 
L 460.569448 91.549012 
L 451.071576 91.549012 
L 441.573703 91.549012 
L 432.075831 91.549012 
L 422.577959 91.549012 
L 413.080086 91.549012 
L 403.582214 91.549012 
L 394.084342 91.549012 
L 384.586469 91.549012 
L 375.088597 91.549012 
L 365.590725 91.549012 
L 356.092852 91.549012 
L 346.59498 91.549012 
L 337.097108 91.549012 
L 327.599235 91.549012 
L 318.101363 93.203192 
L 308.603491 94.084431 
L 299.105618 91.549012 
L 289.607746 91.549012 
L 280.109874 91.549012 
L 270.612001 91.549012 
L 261.114129 91.549012 
L 251.616257 91.549012 
L 242.118384 91.549012 
L 232.620512 91.549012 
L 223.12264 91.549012 
L 213.624767 91.549012 
L 204.126895 91.549012 
L 194.629023 91.549012 
L 185.13115 91.549012 
L 175.633278 91.549012 
L 166.135406 91.549012 
L 156.637533 91.549012 
L 147.139661 91.549012 
L 137.641789 91.549012 
L 128.143916 91.549012 
L 118.646044 91.549012 
L 109.148172 91.549012 
L 99.650299 91.549012 
L 90.152427 91.549012 
L 80.654555 91.549012 
L 71.156682 91.549012 
L 61.65881 91.549012 
L 52.160938 91.549012 
z
" style="fill:#ffb30f;"/>
   </g>
   <g id="PolyCollection_2">
    <path clip-path="url(#p8bc33f4051)" d="M 52.160938 75.826406 
L 52.160938 91.549012 
L 61.65881 91.549012 
L 71.156682 91.549012 
L 80.654555 91.549012 
L 90.152427 91.549012 
L 99.650299 91.549012 
L 109.148172 91.549012 
L 118.646044 91.549012 
L 128.143916 91.549012 
L 137.641789 91.549012 
L 147.139661 91.549012 
L 156.637533 91.549012 
L 166.135406 91.549012 
L 175.633278 91.549012 
L 185.13115 91.549012 
L 194.629023 91.549012 
L 204.126895 91.549012 
L 213.624767 91.549012 
L 223.12264 91.549012 
L 232.620512 91.549012 
L 242.118384 91.549012 
L 251.616257 91.549012 
L 261.114129 91.549012 
L 270.612001 91.549012 
L 280.109874 91.549012 
L 289.607746 91.549012 
L 299.105618 91.549012 
L 308.603491 94.084431 
L 318.101363 93.203192 
L 327.599235 91.549012 
L 337.097108 91.549012 
L 346.59498 91.549012 
L 356.092852 91.549012 
L 365.590725 91.549012 
L 375.088597 91.549012 
L 384.586469 91.549012 
L 394.084342 91.549012 
L 403.582214 91.549012 
L 413.080086 91.549012 
L 422.577959 91.549012 
L 432.075831 91.549012 
L 441.573703 91.549012 
L 451.071576 91.549012 
L 460.569448 91.549012 
L 470.06732 91.549012 
L 479.565193 91.549012 
L 489.063065 91.549012 
L 498.560938 91.549012 
L 498.560938 74.958781 
L 498.560938 74.958781 
L 489.063065 70.274989 
L 479.565193 63.093322 
L 470.06732 59.719229 
L 460.569448 59.465056 
L 451.071576 64.028522 
L 441.573703 72.007038 
L 432.075831 72.456667 
L 422.577959 72.114213 
L 413.080086 72.776947 
L 403.582214 73.015338 
L 394.084342 73.715357 
L 384.586469 75.97221 
L 375.088597 73.915604 
L 365.590725 75.168988 
L 356.092852 84.76085 
L 346.59498 91.549012 
L 337.097108 91.549012 
L 327.599235 91.549012 
L 318.101363 93.203192 
L 308.603491 94.084431 
L 299.105618 91.549012 
L 289.607746 91.549012 
L 280.109874 91.549012 
L 270.612001 88.350663 
L 261.114129 76.245925 
L 251.616257 67.708955 
L 242.118384 59.763855 
L 232.620512 61.350978 
L 223.12264 71.123478 
L 213.624767 84.158245 
L 204.126895 84.797733 
L 194.629023 87.218286 
L 185.13115 85.664207 
L 175.633278 83.196312 
L 166.135406 87.175546 
L 156.637533 86.618275 
L 147.139661 90.292782 
L 137.641789 90.381723 
L 128.143916 84.910291 
L 118.646044 89.561325 
L 109.148172 91.116965 
L 99.650299 88.716829 
L 90.152427 91.549012 
L 80.654555 90.213636 
L 71.156682 87.40488 
L 61.65881 85.151723 
L 52.160938 75.826406 
z
" style="fill:#2980b9;"/>
   </g>
   <g id="PolyCollection_3">
    <path clip-path="url(#p8bc33f4051)" d="M 52.160938 75.671663 
L 52.160938 75.826406 
L 61.65881 85.151723 
L 71.156682 87.40488 
L 80.654555 90.213636 
L 90.152427 91.549012 
L 99.650299 88.716829 
L 109.148172 91.116965 
L 118.646044 89.561325 
L 128.143916 84.910291 
L 137.641789 90.381723 
L 147.139661 90.292782 
L 156.637533 86.618275 
L 166.135406 87.175546 
L 175.633278 83.196312 
L 185.13115 85.664207 
L 194.629023 87.218286 
L 204.126895 84.797733 
L 213.624767 84.158245 
L 223.12264 71.123478 
L 232.620512 61.350978 
L 242.118384 59.763855 
L 251.616257 67.708955 
L 261.114129 76.245925 
L 270.612001 88.350663 
L 280.109874 91.549012 
L 289.607746 91.549012 
L 299.105618 91.549012 
L 308.603491 94.084431 
L 318.101363 93.203192 
L 327.599235 91.549012 
L 337.097108 91.549012 
L 346.59498 91.549012 
L 356.092852 84.76085 
L 365.590725 75.168988 
L 375.088597 73.915604 
L 384.586469 75.97221 
L 394.084342 73.715357 
L 403.582214 73.015338 
L 413.080086 72.776947 
L 422.577959 72.114213 
L 432.075831 72.456667 
L 441.573703 72.007038 
L 451.071576 64.028522 
L 460.569448 59.465056 
L 470.06732 59.719229 
L 479.565193 63.093322 
L 489.063065 70.274989 
L 498.560938 74.958781 
L 498.560938 74.796277 
L 498.560938 74.796277 
L 489.063065 70.112485 
L 479.565193 62.930818 
L 470.06732 59.556725 
L 460.569448 59.302552 
L 451.071576 63.866018 
L 441.573703 71.844534 
L 432.075831 72.294163 
L 422.577959 71.951709 
L 413.080086 72.614443 
L 403.582214 72.852834 
L 394.084342 73.552853 
L 384.586469 75.809706 
L 375.088597 73.7531 
L 365.590725 75.006485 
L 356.092852 84.598346 
L 346.59498 91.386508 
L 337.097108 91.386508 
L 327.599235 91.386508 
L 318.101363 93.040688 
L 308.603491 93.921927 
L 299.105618 91.386508 
L 289.607746 91.386508 
L 280.109874 91.386508 
L 270.612001 88.19592 
L 261.114129 76.091182 
L 251.616257 67.554212 
L 242.118384 59.609112 
L 232.620512 61.196235 
L 223.12264 70.968735 
L 213.624767 84.003502 
L 204.126895 84.64299 
L 194.629023 87.063543 
L 185.13115 85.509464 
L 175.633278 83.041569 
L 166.135406 87.020803 
L 156.637533 86.463532 
L 147.139661 90.138039 
L 137.641789 90.22698 
L 128.143916 84.755549 
L 118.646044 89.406582 
L 109.148172 90.962222 
L 99.650299 88.562086 
L 90.152427 91.394269 
L 80.654555 90.058893 
L 71.156682 87.250137 
L 61.65881 84.99698 
L 52.160938 75.671663 
z
" style="fill:#3498db;"/>
   </g>
   <g id="PolyCollection_4">
    <path clip-path="url(#p8bc33f4051)" d="M 52.160938 75.671663 
L 52.160938 75.671663 
L 61.65881 84.99698 
L 71.156682 87.250137 
L 80.654555 90.058893 
L 90.152427 91.394269 
L 99.650299 88.562086 
L 109.148172 90.962222 
L 118.646044 89.406582 
L 128.143916 84.755549 
L 137.641789 90.22698 
L 147.139661 90.138039 
L 156.637533 86.463532 
L 166.135406 87.020803 
L 175.633278 83.041569 
L 185.13115 85.509464 
L 194.629023 87.063543 
L 204.126895 84.64299 
L 213.624767 84.003502 
L 223.12264 70.968735 
L 232.620512 61.196235 
L 242.118384 59.609112 
L 251.616257 67.554212 
L 261.114129 76.091182 
L 270.612001 88.19592 
L 280.109874 91.386508 
L 289.607746 91.386508 
L 299.105618 91.386508 
L 308.603491 93.921927 
L 318.101363 93.040688 
L 327.599235 91.386508 
L 337.097108 91.386508 
L 346.59498 91.386508 
L 356.092852 84.598346 
L 365.590725 75.006485 
L 375.088597 73.7531 
L 384.586469 75.809706 
L 394.084342 73.552853 
L 403.582214 72.852834 
L 413.080086 72.614443 
L 422.577959 71.951709 
L 432.075831 72.294163 
L 441.573703 71.844534 
L 451.071576 63.866018 
L 460.569448 59.302552 
L 470.06732 59.556725 
L 479.565193 62.930818 
L 489.063065 70.112485 
L 498.560938 74.796277 
L 498.560938 74.796277 
L 498.560938 74.796277 
L 489.063065 70.112485 
L 479.565193 62.930818 
L 470.06732 59.556725 
L 460.569448 59.302552 
L 451.071576 63.866018 
L 441.573703 71.844534 
L 432.075831 72.294163 
L 422.577959 71.951709 
L 413.080086 72.614443 
L 403.582214 72.852834 
L 394.084342 73.552853 
L 384.586469 75.809706 
L 375.088597 73.7531 
L 365.590725 75.006485 
L 356.092852 84.598346 
L 346.59498 91.386508 
L 337.097108 91.386508 
L 327.599235 91.386508 
L 318.101363 93.040688 
L 308.603491 93.921927 
L 299.105618 91.386508 
L 289.607746 91.386508 
L 280.109874 91.386508 
L 270.612001 88.19592 
L 261.114129 76.091182 
L 251.616257 67.554212 
L 242.118384 59.609112 
L 232.620512 61.196235 
L 223.12264 70.968735 
L 213.624767 84.003502 
L 204.126895 84.64299 
L 194.629023 87.063543 
L 185.13115 85.509464 
L 175.633278 83.041569 
L 166.135406 87.020803 
L 156.637533 86.463532 
L 147.139661 90.138039 
L 137.641789 90.22698 
L 128.143916 84.755549 
L 118.646044 89.406582 
L 109.148172 90.962222 
L 99.650299 88.562086 
L 90.152427 91.394269 
L 80.654555 90.058893 
L 71.156682 87.250137 
L 61.65881 84.99698 
L 52.160938 75.671663 
z
" style="fill:#28b463;"/>
   </g>
   <g id="PolyCollection_5">
    <path clip-path="url(#p8bc33f4051)" d="M 52.160938 75.671663 
L 52.160938 75.671663 
L 61.65881 84.99698 
L 71.156682 87.250137 
L 80.654555 90.058893 
L 90.152427 91.394269 
L 99.650299 88.562086 
L 109.148172 90.962222 
L 118.646044 89.406582 
L 128.143916 84.755549 
L 137.641789 90.22698 
L 147.139661 90.138039 
L 156.637533 86.463532 
L 166.135406 87.020803 
L 175.633278 83.041569 
L 185.13115 85.509464 
L 194.629023 87.063543 
L 204.126895 84.64299 
L 213.624767 84.003502 
L 223.12264 70.968735 
L 232.620512 61.196235 
L 242.118384 59.609112 
L 251.616257 67.554212 
L 261.114129 76.091182 
L 270.612001 88.19592 
L 280.109874 91.386508 
L 289.607746 91.386508 
L 299.105618 91.386508 
L 308.603491 93.921927 
L 318.101363 93.040688 
L 327.599235 91.386508 
L 337.097108 91.386508 
L 346.59498 91.386508 
L 356.092852 84.598346 
L 365.590725 75.006485 
L 375.088597 73.7531 
L 384.586469 75.809706 
L 394.084342 73.552853 
L 403.582214 72.852834 
L 413.080086 72.614443 
L 422.577959 71.951709 
L 432.075831 72.294163 
L 441.573703 71.844534 
L 451.071576 63.866018 
L 460.569448 59.302552 
L 470.06732 59.556725 
L 479.565193 62.930818 
L 489.063065 70.112485 
L 498.560938 74.796277 
L 498.560938 74.796277 
L 498.560938 74.796277 
L 489.063065 70.112485 
L 479.565193 62.930818 
L 470.06732 59.556725 
L 460.569448 59.302552 
L 451.071576 63.866018 
L 441.573703 71.844534 
L 432.075831 72.294163 
L 422.577959 71.951709 
L 413.080086 72.614443 
L 403.582214 72.852834 
L 394.084342 73.552853 
L 384.586469 75.809706 
L 375.088597 73.7531 
L 365.590725 75.006485 
L 356.092852 84.598346 
L 346.59498 91.386508 
L 337.097108 91.386508 
L 327.599235 91.386508 
L 318.101363 93.040688 
L 308.603491 93.921927 
L 299.105618 91.386508 
L 289.607746 91.386508 
L 280.109874 91.386508 
L 270.612001 88.19592 
L 261.114129 76.091182 
L 251.616257 67.554212 
L 242.118384 59.609112 
L 232.620512 61.196235 
L 223.12264 70.968735 
L 213.624767 84.003502 
L 204.126895 84.64299 
L 194.629023 87.063543 
L 185.13115 85.509464 
L 175.633278 83.041569 
L 166.135406 87.020803 
L 156.637533 86.463532 
L 147.139661 90.138039 
L 137.641789 90.22698 
L 128.143916 84.755549 
L 118.646044 89.406582 
L 109.148172 90.962222 
L 99.650299 88.562086 
L 90.152427 91.394269 
L 80.654555 90.058893 
L 71.156682 87.250137 
L 61.65881 84.99698 
L 52.160938 75.671663 
z
" style="fill:#494949;"/>
   </g>
   <g id="PolyCollection_6">
    <path clip-path="url(#p8bc33f4051)" d="M 52.160938 75.671663 
L 52.160938 75.671663 
L 61.65881 84.99698 
L 71.156682 87.250137 
L 80.654555 90.058893 
L 90.152427 91.394269 
L 99.650299 88.562086 
L 109.148172 90.962222 
L 118.646044 89.406582 
L 128.143916 84.755549 
L 137.641789 90.22698 
L 147.139661 90.138039 
L 156.637533 86.463532 
L 166.135406 87.020803 
L 175.633278 83.041569 
L 185.13115 85.509464 
L 194.629023 87.063543 
L 204.126895 84.64299 
L 213.624767 84.003502 
L 223.12264 70.968735 
L 232.620512 61.196235 
L 242.118384 59.609112 
L 251.616257 67.554212 
L 261.114129 76.091182 
L 270.612001 88.19592 
L 280.109874 91.386508 
L 289.607746 91.386508 
L 299.105618 91.386508 
L 308.603491 93.921927 
L 318.101363 93.040688 
L 327.599235 91.386508 
L 337.097108 91.386508 
L 346.59498 91.386508 
L 356.092852 84.598346 
L 365.590725 75.006485 
L 375.088597 73.7531 
L 384.586469 75.809706 
L 394.084342 73.552853 
L 403.582214 72.852834 
L 413.080086 72.614443 
L 422.577959 71.951709 
L 432.075831 72.294163 
L 441.573703 71.844534 
L 451.071576 63.866018 
L 460.569448 59.302552 
L 470.06732 59.556725 
L 479.565193 62.930818 
L 489.063065 70.112485 
L 498.560938 74.796277 
L 498.560938 74.796277 
L 498.560938 74.796277 
L 489.063065 70.112485 
L 479.565193 62.930818 
L 470.06732 59.556725 
L 460.569448 59.302552 
L 451.071576 63.866018 
L 441.573703 71.844534 
L 432.075831 72.294163 
L 422.577959 71.951709 
L 413.080086 72.614443 
L 403.582214 72.852834 
L 394.084342 73.552853 
L 384.586469 75.809706 
L 375.088597 73.7531 
L 365.590725 75.006485 
L 356.092852 84.598346 
L 346.59498 91.386508 
L 337.097108 91.386508 
L 327.599235 91.386508 
L 318.101363 93.040688 
L 308.603491 93.921927 
L 299.105618 91.386508 
L 289.607746 91.386508 
L 280.109874 91.386508 
L 270.612001 88.19592 
L 261.114129 76.091182 
L 251.616257 67.554212 
L 242.118384 59.609112 
L 232.620512 61.196235 
L 223.12264 70.968735 
L 213.624767 84.003502 
L 204.126895 84.64299 
L 194.629023 87.063543 
L 185.13115 85.509464 
L 175.633278 83.041569 
L 166.135406 87.020803 
L 156.637533 86.463532 
L 147.139661 90.138039 
L 137.641789 90.22698 
L 128.143916 84.755549 
L 118.646044 89.406582 
L 109.148172 90.962222 
L 99.650299 88.562086 
L 90.152427 91.394269 
L 80.654555 90.058893 
L 71.156682 87.250137 
L 61.65881 84.99698 
L 52.160938 75.671663 
z
" style="fill:#7c7c7c;"/>
   </g>
   <g id="PolyCollection_7">
    <path clip-path="url(#p8bc33f4051)" d="M 52.160938 75.671663 
L 52.160938 75.671663 
L 61.65881 84.99698 
L 71.156682 87.250137 
L 80.654555 90.058893 
L 90.152427 91.394269 
L 99.650299 88.562086 
L 109.148172 90.962222 
L 118.646044 89.406582 
L 128.143916 84.755549 
L 137.641789 90.22698 
L 147.139661 90.138039 
L 156.637533 86.463532 
L 166.135406 87.020803 
L 175.633278 83.041569 
L 185.13115 85.509464 
L 194.629023 87.063543 
L 204.126895 84.64299 
L 213.624767 84.003502 
L 223.12264 70.968735 
L 232.620512 61.196235 
L 242.118384 59.609112 
L 251.616257 67.554212 
L 261.114129 76.091182 
L 270.612001 88.19592 
L 280.109874 91.386508 
L 289.607746 91.386508 
L 299.105618 91.386508 
L 308.603491 93.921927 
L 318.101363 93.040688 
L 327.599235 91.386508 
L 337.097108 91.386508 
L 346.59498 91.386508 
L 356.092852 84.598346 
L 365.590725 75.006485 
L 375.088597 73.7531 
L 384.586469 75.809706 
L 394.084342 73.552853 
L 403.582214 72.852834 
L 413.080086 72.614443 
L 422.577959 71.951709 
L 432.075831 72.294163 
L 441.573703 71.844534 
L 451.071576 63.866018 
L 460.569448 59.302552 
L 470.06732 59.556725 
L 479.565193 62.930818 
L 489.063065 70.112485 
L 498.560938 74.796277 
L 498.560938 74.796277 
L 498.560938 74.796277 
L 489.063065 70.112485 
L 479.565193 55.945922 
L 470.06732 52.571829 
L 460.569448 52.317656 
L 451.071576 56.934648 
L 441.573703 71.844534 
L 432.075831 72.294163 
L 422.577959 71.951709 
L 413.080086 72.614443 
L 403.582214 72.852834 
L 394.084342 73.552853 
L 384.586469 75.809706 
L 375.088597 73.7531 
L 365.590725 75.006485 
L 356.092852 84.598346 
L 346.59498 91.386508 
L 337.097108 91.386508 
L 327.599235 91.386508 
L 318.101363 93.040688 
L 308.603491 93.921927 
L 299.105618 91.386508 
L 289.607746 91.386508 
L 280.109874 91.386508 
L 270.612001 88.19592 
L 261.114129 76.091182 
L 251.616257 67.554212 
L 242.118384 57.703366 
L 232.620512 57.380842 
L 223.12264 70.968735 
L 213.624767 84.003502 
L 204.126895 84.64299 
L 194.629023 87.063543 
L 185.13115 85.509464 
L 175.633278 83.041569 
L 166.135406 87.020803 
L 156.637533 86.463532 
L 147.139661 90.138039 
L 137.641789 90.22698 
L 128.143916 84.755549 
L 118.646044 89.406582 
L 109.148172 90.962222 
L 99.650299 88.562086 
L 90.152427 91.394269 
L 80.654555 90.058893 
L 71.156682 87.250137 
L 61.65881 84.99698 
L 52.160938 75.671663 
z
" style="fill:#ba4a00;"/>
   </g>
   <g id="PolyCollection_8">
    <path clip-path="url(#p8bc33f4051)" d="M 52.160938 75.671663 
L 52.160938 75.671663 
L 61.65881 84.99698 
L 71.156682 87.250137 
L 80.654555 90.058893 
L 90.152427 91.394269 
L 99.650299 88.562086 
L 109.148172 90.962222 
L 118.646044 89.406582 
L 128.143916 84.755549 
L 137.641789 90.22698 
L 147.139661 90.138039 
L 156.637533 86.463532 
L 166.135406 87.020803 
L 175.633278 83.041569 
L 185.13115 85.509464 
L 194.629023 87.063543 
L 204.126895 84.64299 
L 213.624767 84.003502 
L 223.12264 70.968735 
L 232.620512 57.380842 
L 242.118384 57.703366 
L 251.616257 67.554212 
L 261.114129 76.091182 
L 270.612001 88.19592 
L 280.109874 91.386508 
L 289.607746 91.386508 
L 299.105618 91.386508 
L 308.603491 93.921927 
L 318.101363 93.040688 
L 327.599235 91.386508 
L 337.097108 91.386508 
L 346.59498 91.386508 
L 356.092852 84.598346 
L 365.590725 75.006485 
L 375.088597 73.7531 
L 384.586469 75.809706 
L 394.084342 73.552853 
L 403.582214 72.852834 
L 413.080086 72.614443 
L 422.577959 71.951709 
L 432.075831 72.294163 
L 441.573703 71.844534 
L 451.071576 56.934648 
L 460.569448 52.317656 
L 470.06732 52.571829 
L 479.565193 55.945922 
L 489.063065 70.112485 
L 498.560938 74.796277 
L 498.560938 74.796277 
L 498.560938 74.796277 
L 489.063065 70.112485 
L 479.565193 55.945922 
L 470.06732 52.571829 
L 460.569448 52.317656 
L 451.071576 56.934648 
L 441.573703 71.844534 
L 432.075831 72.294163 
L 422.577959 71.951709 
L 413.080086 72.614443 
L 403.582214 72.852834 
L 394.084342 73.552853 
L 384.586469 75.809706 
L 375.088597 73.7531 
L 365.590725 75.006485 
L 356.092852 84.598346 
L 346.59498 91.386508 
L 337.097108 91.386508 
L 327.599235 91.386508 
L 318.101363 93.040688 
L 308.603491 93.921927 
L 299.105618 91.386508 
L 289.607746 91.386508 
L 280.109874 91.386508 
L 270.612001 88.19592 
L 261.114129 76.091182 
L 251.616257 67.554212 
L 242.118384 57.703366 
L 232.620512 57.380842 
L 223.12264 70.968735 
L 213.624767 84.003502 
L 204.126895 84.64299 
L 194.629023 87.063543 
L 185.13115 85.509464 
L 175.633278 83.041569 
L 166.135406 87.020803 
L 156.637533 86.463532 
L 147.139661 90.138039 
L 137.641789 90.22698 
L 128.143916 84.755549 
L 118.646044 89.406582 
L 109.148172 90.962222 
L 99.650299 88.562086 
L 90.152427 91.394269 
L 80.654555 90.058893 
L 71.156682 87.250137 
L 61.65881 84.99698 
L 52.160938 75.671663 
z
" style="fill:#606fed;"/>
   </g>
   <g id="PolyCollection_9">
    <path clip-path="url(#p8bc33f4051)" d="M 52.160938 75.671663 
L 52.160938 75.671663 
L 61.65881 84.99698 
L 71.156682 87.250137 
L 80.654555 90.058893 
L 90.152427 91.394269 
L 99.650299 88.562086 
L 109.148172 90.962222 
L 118.646044 89.406582 
L 128.143916 84.755549 
L 137.641789 90.22698 
L 147.139661 90.138039 
L 156.637533 86.463532 
L 166.135406 87.020803 
L 175.633278 83.041569 
L 185.13115 85.509464 
L 194.629023 87.063543 
L 204.126895 84.64299 
L 213.624767 84.003502 
L 223.12264 70.968735 
L 232.620512 57.380842 
L 242.118384 57.703366 
L 251.616257 67.554212 
L 261.114129 76.091182 
L 270.612001 88.19592 
L 280.109874 91.386508 
L 289.607746 91.386508 
L 299.105618 91.386508 
L 308.603491 93.921927 
L 318.101363 93.040688 
L 327.599235 91.386508 
L 337.097108 91.386508 
L 346.59498 91.386508 
L 356.092852 84.598346 
L 365.590725 75.006485 
L 375.088597 73.7531 
L 384.586469 75.809706 
L 394.084342 73.552853 
L 403.582214 72.852834 
L 413.080086 72.614443 
L 422.577959 71.951709 
L 432.075831 72.294163 
L 441.573703 71.844534 
L 451.071576 56.934648 
L 460.569448 52.317656 
L 470.06732 52.571829 
L 479.565193 55.945922 
L 489.063065 70.112485 
L 498.560938 74.796277 
L 498.560938 74.796277 
L 498.560938 74.796277 
L 489.063065 70.112485 
L 479.565193 55.945922 
L 470.06732 52.571829 
L 460.569448 52.317656 
L 451.071576 56.934648 
L 441.573703 71.844534 
L 432.075831 72.294163 
L 422.577959 71.951709 
L 413.080086 72.614443 
L 403.582214 72.852834 
L 394.084342 73.552853 
L 384.586469 75.809706 
L 375.088597 73.7531 
L 365.590725 75.006485 
L 356.092852 84.598346 
L 346.59498 91.386508 
L 337.097108 91.386508 
L 327.599235 91.386508 
L 318.101363 93.040688 
L 308.603491 93.921927 
L 299.105618 91.386508 
L 289.607746 91.386508 
L 280.109874 91.386508 
L 270.612001 88.19592 
L 261.114129 76.091182 
L 251.616257 67.554212 
L 242.118384 57.703366 
L 232.620512 57.380842 
L 223.12264 70.968735 
L 213.624767 84.003502 
L 204.126895 84.64299 
L 194.629023 87.063543 
L 185.13115 85.509464 
L 175.633278 83.041569 
L 166.135406 87.020803 
L 156.637533 86.463532 
L 147.139661 90.138039 
L 137.641789 90.22698 
L 128.143916 84.755549 
L 118.646044 89.406582 
L 109.148172 90.962222 
L 99.650299 88.562086 
L 90.152427 91.394269 
L 80.654555 90.058893 
L 71.156682 87.250137 
L 61.65881 84.99698 
L 52.160938 75.671663 
z
" style="fill:#ed6060;"/>
   </g>
   <g id="PolyCollection_10">
    <path clip-path="url(#p8bc33f4051)" d="M 52.160938 75.671663 
L 52.160938 75.671663 
L 61.65881 84.99698 
L 71.156682 87.250137 
L 80.654555 90.058893 
L 90.152427 91.394269 
L 99.650299 88.562086 
L 109.148172 90.962222 
L 118.646044 89.406582 
L 128.143916 84.755549 
L 137.641789 90.22698 
L 147.139661 90.138039 
L 156.637533 86.463532 
L 166.135406 87.020803 
L 175.633278 83.041569 
L 185.13115 85.509464 
L 194.629023 87.063543 
L 204.126895 84.64299 
L 213.624767 84.003502 
L 223.12264 70.968735 
L 232.620512 57.380842 
L 242.118384 57.703366 
L 251.616257 67.554212 
L 261.114129 76.091182 
L 270.612001 88.19592 
L 280.109874 91.386508 
L 289.607746 91.386508 
L 299.105618 91.386508 
L 308.603491 93.921927 
L 318.101363 93.040688 
L 327.599235 91.386508 
L 337.097108 91.386508 
L 346.59498 91.386508 
L 356.092852 84.598346 
L 365.590725 75.006485 
L 375.088597 73.7531 
L 384.586469 75.809706 
L 394.084342 73.552853 
L 403.582214 72.852834 
L 413.080086 72.614443 
L 422.577959 71.951709 
L 432.075831 72.294163 
L 441.573703 71.844534 
L 451.071576 56.934648 
L 460.569448 52.317656 
L 470.06732 52.571829 
L 479.565193 55.945922 
L 489.063065 70.112485 
L 498.560938 74.796277 
L 498.560938 74.796277 
L 498.560938 74.796277 
L 489.063065 70.112485 
L 479.565193 55.945922 
L 470.06732 52.571829 
L 460.569448 52.317656 
L 451.071576 56.934648 
L 441.573703 71.844534 
L 432.075831 72.294163 
L 422.577959 71.951709 
L 413.080086 72.614443 
L 403.582214 72.852834 
L 394.084342 73.552853 
L 384.586469 75.809706 
L 375.088597 73.7531 
L 365.590725 75.006485 
L 356.092852 84.598346 
L 346.59498 91.386508 
L 337.097108 91.386508 
L 327.599235 91.386508 
L 318.101363 93.040688 
L 308.603491 93.921927 
L 299.105618 91.386508 
L 289.607746 91.386508 
L 280.109874 91.386508 
L 270.612001 88.19592 
L 261.114129 76.091182 
L 251.616257 67.554212 
L 242.118384 57.703366 
L 232.620512 57.380842 
L 223.12264 70.968735 
L 213.624767 84.003502 
L 204.126895 84.64299 
L 194.629023 87.063543 
L 185.13115 85.509464 
L 175.633278 83.041569 
L 166.135406 87.020803 
L 156.637533 86.463532 
L 147.139661 90.138039 
L 137.641789 90.22698 
L 128.143916 84.755549 
L 118.646044 89.406582 
L 109.148172 90.962222 
L 99.650299 88.562086 
L 90.152427 91.394269 
L 80.654555 90.058893 
L 71.156682 87.250137 
L 61.65881 84.99698 
L 52.160938 75.671663 
z
" style="fill:#ea6bee;"/>
   </g>
   <g id="PolyCollection_11">
    <path clip-path="url(#p8bc33f4051)" d="M 52.160938 221.185661 
L 52.160938 212.620545 
L 61.65881 212.620545 
L 71.156682 212.620545 
L 80.654555 212.620545 
L 90.152427 212.620545 
L 99.650299 212.620545 
L 109.148172 212.620545 
L 118.646044 212.620545 
L 128.143916 212.620545 
L 137.641789 212.620545 
L 147.139661 212.620545 
L 156.637533 212.620545 
L 166.135406 212.620545 
L 175.633278 212.620545 
L 185.13115 212.620545 
L 194.629023 212.620545 
L 204.126895 212.620545 
L 213.624767 212.620545 
L 223.12264 212.620545 
L 232.620512 212.620545 
L 242.118384 212.620545 
L 251.616257 212.620545 
L 261.114129 212.620545 
L 270.612001 212.620545 
L 280.109874 212.620545 
L 289.607746 212.620545 
L 299.105618 212.620545 
L 308.603491 212.620545 
L 318.101363 212.620545 
L 327.599235 212.620545 
L 337.097108 212.620545 
L 346.59498 212.620545 
L 356.092852 212.620545 
L 365.590725 212.620545 
L 375.088597 212.620545 
L 384.586469 212.620545 
L 394.084342 212.620545 
L 403.582214 212.620545 
L 413.080086 212.620545 
L 422.577959 212.620545 
L 432.075831 212.620545 
L 441.573703 212.620545 
L 451.071576 212.620545 
L 460.569448 212.620545 
L 470.06732 212.620545 
L 479.565193 212.620545 
L 489.063065 212.620545 
L 498.560938 212.620545 
L 498.560938 221.041895 
L 498.560938 221.041895 
L 489.063065 212.810606 
L 479.565193 215.53051 
L 470.06732 217.034589 
L 460.569448 214.254321 
L 451.071576 212.620545 
L 441.573703 212.620545 
L 432.075831 212.620545 
L 422.577959 212.620545 
L 413.080086 212.620545 
L 403.582214 212.620545 
L 394.084342 212.620545 
L 384.586469 212.620545 
L 375.088597 212.620545 
L 365.590725 212.620545 
L 356.092852 212.620545 
L 346.59498 212.620545 
L 337.097108 213.757377 
L 327.599235 226.725603 
L 318.101363 230.160656 
L 308.603491 230.141793 
L 299.105618 228.822804 
L 289.607746 226.791551 
L 280.109874 223.721972 
L 270.612001 218.650414 
L 261.114129 218.403617 
L 251.616257 214.752469 
L 242.118384 216.991823 
L 232.620512 215.67472 
L 223.12264 221.789083 
L 213.624767 220.240083 
L 204.126895 217.001985 
L 194.629023 212.620545 
L 185.13115 212.620545 
L 175.633278 212.620545 
L 166.135406 212.620545 
L 156.637533 212.620545 
L 147.139661 212.620545 
L 137.641789 212.620545 
L 128.143916 214.509049 
L 118.646044 216.055845 
L 109.148172 216.796597 
L 99.650299 220.72025 
L 90.152427 220.112916 
L 80.654555 221.689844 
L 71.156682 222.781635 
L 61.65881 223.247941 
L 52.160938 221.185661 
z
" style="fill:#0e25ec;"/>
   </g>
   <g id="PolyCollection_12">
    <path clip-path="url(#p8bc33f4051)" d="M 52.160938 314.116398 
L 52.160938 221.185661 
L 61.65881 223.247941 
L 71.156682 222.781635 
L 80.654555 221.689844 
L 90.152427 220.112916 
L 99.650299 220.72025 
L 109.148172 216.796597 
L 118.646044 216.055845 
L 128.143916 214.509049 
L 137.641789 212.620545 
L 147.139661 212.620545 
L 156.637533 212.620545 
L 166.135406 212.620545 
L 175.633278 212.620545 
L 185.13115 212.620545 
L 194.629023 212.620545 
L 204.126895 217.001985 
L 213.624767 220.240083 
L 223.12264 221.789083 
L 232.620512 215.67472 
L 242.118384 216.991823 
L 251.616257 214.752469 
L 261.114129 218.403617 
L 270.612001 218.650414 
L 280.109874 223.721972 
L 289.607746 226.791551 
L 299.105618 228.822804 
L 308.603491 230.141793 
L 318.101363 230.160656 
L 327.599235 226.725603 
L 337.097108 213.757377 
L 346.59498 212.620545 
L 356.092852 212.620545 
L 365.590725 212.620545 
L 375.088597 212.620545 
L 384.586469 212.620545 
L 394.084342 212.620545 
L 403.582214 212.620545 
L 413.080086 212.620545 
L 422.577959 212.620545 
L 432.075831 212.620545 
L 441.573703 212.620545 
L 451.071576 212.620545 
L 460.569448 214.254321 
L 470.06732 217.034589 
L 479.565193 215.53051 
L 489.063065 212.810606 
L 498.560938 221.041895 
L 498.560938 316.913326 
L 498.560938 316.913326 
L 489.063065 317.026474 
L 479.565193 321.93999 
L 470.06732 320.626247 
L 460.569448 320.454341 
L 451.071576 329.517656 
L 441.573703 315.809949 
L 432.075831 315.382439 
L 422.577959 316.024467 
L 413.080086 313.313412 
L 403.582214 312.56978 
L 394.084342 311.022454 
L 384.586469 309.23553 
L 375.088597 311.918642 
L 365.590725 311.156529 
L 356.092852 302.561761 
L 346.59498 299.983357 
L 337.097108 305.373368 
L 327.599235 307.887931 
L 318.101363 307.927977 
L 308.603491 307.458458 
L 299.105618 307.639385 
L 289.607746 307.255022 
L 280.109874 306.919553 
L 270.612001 307.847423 
L 261.114129 314.799442 
L 251.616257 315.218798 
L 242.118384 318.366279 
L 232.620512 318.37681 
L 223.12264 315.973482 
L 213.624767 308.468619 
L 204.126895 307.29692 
L 194.629023 304.384515 
L 185.13115 305.176658 
L 175.633278 306.817812 
L 166.135406 302.265235 
L 156.637533 302.880519 
L 147.139661 303.177015 
L 137.641789 305.192168 
L 128.143916 311.28545 
L 118.646044 308.133937 
L 109.148172 305.875831 
L 99.650299 304.267024 
L 90.152427 304.267992 
L 80.654555 305.837169 
L 71.156682 307.763112 
L 61.65881 308.781301 
L 52.160938 314.116398 
z
" style="fill:#ee1111;"/>
   </g>
   <g id="PolyCollection_13">
    <path clip-path="url(#p8bc33f4051)" d="M 52.160938 314.116398 
L 52.160938 314.116398 
L 61.65881 308.781301 
L 71.156682 307.763112 
L 80.654555 305.837169 
L 90.152427 304.267992 
L 99.650299 304.267024 
L 109.148172 305.875831 
L 118.646044 308.133937 
L 128.143916 311.28545 
L 137.641789 305.192168 
L 147.139661 303.177015 
L 156.637533 302.880519 
L 166.135406 302.265235 
L 175.633278 306.817812 
L 185.13115 305.176658 
L 194.629023 304.384515 
L 204.126895 307.29692 
L 213.624767 308.468619 
L 223.12264 315.973482 
L 232.620512 318.37681 
L 242.118384 318.366279 
L 251.616257 315.218798 
L 261.114129 314.799442 
L 270.612001 307.847423 
L 280.109874 306.919553 
L 289.607746 307.255022 
L 299.105618 307.639385 
L 308.603491 307.458458 
L 318.101363 307.927977 
L 327.599235 307.887931 
L 337.097108 305.373368 
L 346.59498 299.983357 
L 356.092852 302.561761 
L 365.590725 311.156529 
L 375.088597 311.918642 
L 384.586469 309.23553 
L 394.084342 311.022454 
L 403.582214 312.56978 
L 413.080086 313.313412 
L 422.577959 316.024467 
L 432.075831 315.382439 
L 441.573703 315.809949 
L 451.071576 329.517656 
L 460.569448 320.454341 
L 470.06732 320.626247 
L 479.565193 321.93999 
L 489.063065 317.026474 
L 498.560938 316.913326 
L 498.560938 316.913326 
L 498.560938 316.913326 
L 489.063065 317.026474 
L 479.565193 321.93999 
L 470.06732 320.626247 
L 460.569448 320.454341 
L 451.071576 329.517656 
L 441.573703 315.809949 
L 432.075831 315.382439 
L 422.577959 316.024467 
L 413.080086 313.313412 
L 403.582214 312.56978 
L 394.084342 311.022454 
L 384.586469 309.23553 
L 375.088597 311.918642 
L 365.590725 311.156529 
L 356.092852 302.561761 
L 346.59498 299.983357 
L 337.097108 305.373368 
L 327.599235 307.887931 
L 318.101363 307.927977 
L 308.603491 307.458458 
L 299.105618 307.639385 
L 289.607746 307.255022 
L 280.109874 306.919553 
L 270.612001 307.847423 
L 261.114129 314.799442 
L 251.616257 315.218798 
L 242.118384 318.366279 
L 232.620512 318.37681 
L 223.12264 315.973482 
L 213.624767 308.468619 
L 204.126895 307.29692 
L 194.629023 304.384515 
L 185.13115 305.176658 
L 175.633278 306.817812 
L 166.135406 302.265235 
L 156.637533 302.880519 
L 147.139661 303.177015 
L 137.641789 305.192168 
L 128.143916 311.28545 
L 118.646044 308.133937 
L 109.148172 305.875831 
L 99.650299 304.267024 
L 90.152427 304.267992 
L 80.654555 305.837169 
L 71.156682 307.763112 
L 61.65881 308.781301 
L 52.160938 314.116398 
z
" style="fill:#e50eec;"/>
   </g>
   <g id="matplotlib.axis_1">
    <g id="xtick_1">
     <g id="line2d_1">
      <defs>
       <path d="M 0 0 
L 0 3.5 
" id="mba1ddb7ca2" style="stroke:#000000;stroke-width:0.8;"/>
      </defs>
      <g>
       <use style="stroke:#000000;stroke-width:0.8;" x="52.160938" xlink:href="#mba1ddb7ca2" y="357.237656"/>
      </g>
     </g>
     <g id="text_1">
      <!-- January -->
      <defs>
       <path d="M 9.8125 72.90625 
L 19.671875 72.90625 
L 19.671875 5.078125 
Q 19.671875 -8.109375 14.671875 -14.0625 
Q 9.671875 -20.015625 -1.421875 -20.015625 
L -5.171875 -20.015625 
L -5.171875 -11.71875 
L -2.09375 -11.71875 
Q 4.4375 -11.71875 7.125 -8.046875 
Q 9.8125 -4.390625 9.8125 5.078125 
z
" id="DejaVuSans-74"/>
       <path d="M 34.28125 27.484375 
Q 23.390625 27.484375 19.1875 25 
Q 14.984375 22.515625 14.984375 16.5 
Q 14.984375 11.71875 18.140625 8.90625 
Q 21.296875 6.109375 26.703125 6.109375 
Q 34.1875 6.109375 38.703125 11.40625 
Q 43.21875 16.703125 43.21875 25.484375 
L 43.21875 27.484375 
z
M 52.203125 31.203125 
L 52.203125 0 
L 43.21875 0 
L 43.21875 8.296875 
Q 40.140625 3.328125 35.546875 0.953125 
Q 30.953125 -1.421875 24.3125 -1.421875 
Q 15.921875 -1.421875 10.953125 3.296875 
Q 6 8.015625 6 15.921875 
Q 6 25.140625 12.171875 29.828125 
Q 18.359375 34.515625 30.609375 34.515625 
L 43.21875 34.515625 
L 43.21875 35.40625 
Q 43.21875 41.609375 39.140625 45 
Q 35.0625 48.390625 27.6875 48.390625 
Q 23 48.390625 18.546875 47.265625 
Q 14.109375 46.140625 10.015625 43.890625 
L 10.015625 52.203125 
Q 14.9375 54.109375 19.578125 55.046875 
Q 24.21875 56 28.609375 56 
Q 40.484375 56 46.34375 49.84375 
Q 52.203125 43.703125 52.203125 31.203125 
z
" id="DejaVuSans-97"/>
       <path d="M 54.890625 33.015625 
L 54.890625 0 
L 45.90625 0 
L 45.90625 32.71875 
Q 45.90625 40.484375 42.875 44.328125 
Q 39.84375 48.1875 33.796875 48.1875 
Q 26.515625 48.1875 22.3125 43.546875 
Q 18.109375 38.921875 18.109375 30.90625 
L 18.109375 0 
L 9.078125 0 
L 9.078125 54.6875 
L 18.109375 54.6875 
L 18.109375 46.1875 
Q 21.34375 51.125 25.703125 53.5625 
Q 30.078125 56 35.796875 56 
Q 45.21875 56 50.046875 50.171875 
Q 54.890625 44.34375 54.890625 33.015625 
z
" id="DejaVuSans-110"/>
       <path d="M 8.5 21.578125 
L 8.5 54.6875 
L 17.484375 54.6875 
L 17.484375 21.921875 
Q 17.484375 14.15625 20.5 10.265625 
Q 23.53125 6.390625 29.59375 6.390625 
Q 36.859375 6.390625 41.078125 11.03125 
Q 45.3125 15.671875 45.3125 23.6875 
L 45.3125 54.6875 
L 54.296875 54.6875 
L 54.296875 0 
L 45.3125 0 
L 45.3125 8.40625 
Q 42.046875 3.421875 37.71875 1 
Q 33.40625 -1.421875 27.6875 -1.421875 
Q 18.265625 -1.421875 13.375 4.4375 
Q 8.5 10.296875 8.5 21.578125 
z
M 31.109375 56 
z
" id="DejaVuSans-117"/>
       <path d="M 41.109375 46.296875 
Q 39.59375 47.171875 37.8125 47.578125 
Q 36.03125 48 33.890625 48 
Q 26.265625 48 22.1875 43.046875 
Q 18.109375 38.09375 18.109375 28.8125 
L 18.109375 0 
L 9.078125 0 
L 9.078125 54.6875 
L 18.109375 54.6875 
L 18.109375 46.1875 
Q 20.953125 51.171875 25.484375 53.578125 
Q 30.03125 56 36.53125 56 
Q 37.453125 56 38.578125 55.875 
Q 39.703125 55.765625 41.0625 55.515625 
z
" id="DejaVuSans-114"/>
       <path d="M 32.171875 -5.078125 
Q 28.375 -14.84375 24.75 -17.8125 
Q 21.140625 -20.796875 15.09375 -20.796875 
L 7.90625 -20.796875 
L 7.90625 -13.28125 
L 13.1875 -13.28125 
Q 16.890625 -13.28125 18.9375 -11.515625 
Q 21 -9.765625 23.484375 -3.21875 
L 25.09375 0.875 
L 2.984375 54.6875 
L 12.5 54.6875 
L 29.59375 11.921875 
L 46.6875 54.6875 
L 56.203125 54.6875 
z
" id="DejaVuSans-121"/>
      </defs>
      <g transform="translate(48.27075 402.461103)rotate(-70)scale(0.1 -0.1)">
       <use xlink:href="#DejaVuSans-74"/>
       <use x="29.492188" xlink:href="#DejaVuSans-97"/>
       <use x="90.771484" xlink:href="#DejaVuSans-110"/>
       <use x="154.150391" xlink:href="#DejaVuSans-117"/>
       <use x="217.529297" xlink:href="#DejaVuSans-97"/>
       <use x="278.808594" xlink:href="#DejaVuSans-114"/>
       <use x="319.921875" xlink:href="#DejaVuSans-121"/>
      </g>
     </g>
    </g>
    <g id="text_2">
     <!-- Date -->
     <defs>
      <path d="M 19.671875 64.796875 
L 19.671875 8.109375 
L 31.59375 8.109375 
Q 46.6875 8.109375 53.6875 14.9375 
Q 60.6875 21.78125 60.6875 36.53125 
Q 60.6875 51.171875 53.6875 57.984375 
Q 46.6875 64.796875 31.59375 64.796875 
z
M 9.8125 72.90625 
L 30.078125 72.90625 
Q 51.265625 72.90625 61.171875 64.09375 
Q 71.09375 55.28125 71.09375 36.53125 
Q 71.09375 17.671875 61.125 8.828125 
Q 51.171875 0 30.078125 0 
L 9.8125 0 
z
" id="DejaVuSans-68"/>
      <path d="M 18.3125 70.21875 
L 18.3125 54.6875 
L 36.8125 54.6875 
L 36.8125 47.703125 
L 18.3125 47.703125 
L 18.3125 18.015625 
Q 18.3125 11.328125 20.140625 9.421875 
Q 21.96875 7.515625 27.59375 7.515625 
L 36.8125 7.515625 
L 36.8125 0 
L 27.59375 0 
Q 17.1875 0 13.234375 3.875 
Q 9.28125 7.765625 9.28125 18.015625 
L 9.28125 47.703125 
L 2.6875 47.703125 
L 2.6875 54.6875 
L 9.28125 54.6875 
L 9.28125 70.21875 
z
" id="DejaVuSans-116"/>
      <path d="M 56.203125 29.59375 
L 56.203125 25.203125 
L 14.890625 25.203125 
Q 15.484375 15.921875 20.484375 11.0625 
Q 25.484375 6.203125 34.421875 6.203125 
Q 39.59375 6.203125 44.453125 7.46875 
Q 49.3125 8.734375 54.109375 11.28125 
L 54.109375 2.78125 
Q 49.265625 0.734375 44.1875 -0.34375 
Q 39.109375 -1.421875 33.890625 -1.421875 
Q 20.796875 -1.421875 13.15625 6.1875 
Q 5.515625 13.8125 5.515625 26.8125 
Q 5.515625 40.234375 12.765625 48.109375 
Q 20.015625 56 32.328125 56 
Q 43.359375 56 49.78125 48.890625 
Q 56.203125 41.796875 56.203125 29.59375 
z
M 47.21875 32.234375 
Q 47.125 39.59375 43.09375 43.984375 
Q 39.0625 48.390625 32.421875 48.390625 
Q 24.90625 48.390625 20.390625 44.140625 
Q 15.875 39.890625 15.1875 32.171875 
z
" id="DejaVuSans-101"/>
     </defs>
     <g transform="translate(263.410156 414.770836)scale(0.1 -0.1)">
      <use xlink:href="#DejaVuSans-68"/>
      <use x="77.001953" xlink:href="#DejaVuSans-97"/>
      <use x="138.28125" xlink:href="#DejaVuSans-116"/>
      <use x="177.490234" xlink:href="#DejaVuSans-101"/>
     </g>
    </g>
   </g>
   <g id="matplotlib.axis_2">
    <g id="ytick_1">
     <g id="line2d_2">
      <defs>
       <path d="M 0 0 
L -3.5 0 
" id="m92327e9b0e" style="stroke:#000000;stroke-width:0.8;"/>
      </defs>
      <g>
       <use style="stroke:#000000;stroke-width:0.8;" x="52.160938" xlink:href="#m92327e9b0e" y="329.03548"/>
      </g>
     </g>
     <g id="text_3">
      <!-- −0.6 -->
      <defs>
       <path d="M 10.59375 35.5 
L 73.1875 35.5 
L 73.1875 27.203125 
L 10.59375 27.203125 
z
" id="DejaVuSans-8722"/>
       <path d="M 31.78125 66.40625 
Q 24.171875 66.40625 20.328125 58.90625 
Q 16.5 51.421875 16.5 36.375 
Q 16.5 21.390625 20.328125 13.890625 
Q 24.171875 6.390625 31.78125 6.390625 
Q 39.453125 6.390625 43.28125 13.890625 
Q 47.125 21.390625 47.125 36.375 
Q 47.125 51.421875 43.28125 58.90625 
Q 39.453125 66.40625 31.78125 66.40625 
z
M 31.78125 74.21875 
Q 44.046875 74.21875 50.515625 64.515625 
Q 56.984375 54.828125 56.984375 36.375 
Q 56.984375 17.96875 50.515625 8.265625 
Q 44.046875 -1.421875 31.78125 -1.421875 
Q 19.53125 -1.421875 13.0625 8.265625 
Q 6.59375 17.96875 6.59375 36.375 
Q 6.59375 54.828125 13.0625 64.515625 
Q 19.53125 74.21875 31.78125 74.21875 
z
" id="DejaVuSans-48"/>
       <path d="M 10.6875 12.40625 
L 21 12.40625 
L 21 0 
L 10.6875 0 
z
" id="DejaVuSans-46"/>
       <path d="M 33.015625 40.375 
Q 26.375 40.375 22.484375 35.828125 
Q 18.609375 31.296875 18.609375 23.390625 
Q 18.609375 15.53125 22.484375 10.953125 
Q 26.375 6.390625 33.015625 6.390625 
Q 39.65625 6.390625 43.53125 10.953125 
Q 47.40625 15.53125 47.40625 23.390625 
Q 47.40625 31.296875 43.53125 35.828125 
Q 39.65625 40.375 33.015625 40.375 
z
M 52.59375 71.296875 
L 52.59375 62.3125 
Q 48.875 64.0625 45.09375 64.984375 
Q 41.3125 65.921875 37.59375 65.921875 
Q 27.828125 65.921875 22.671875 59.328125 
Q 17.53125 52.734375 16.796875 39.40625 
Q 19.671875 43.65625 24.015625 45.921875 
Q 28.375 48.1875 33.59375 48.1875 
Q 44.578125 48.1875 50.953125 41.515625 
Q 57.328125 34.859375 57.328125 23.390625 
Q 57.328125 12.15625 50.6875 5.359375 
Q 44.046875 -1.421875 33.015625 -1.421875 
Q 20.359375 -1.421875 13.671875 8.265625 
Q 6.984375 17.96875 6.984375 36.375 
Q 6.984375 53.65625 15.1875 63.9375 
Q 23.390625 74.21875 37.203125 74.21875 
Q 40.921875 74.21875 44.703125 73.484375 
Q 48.484375 72.75 52.59375 71.296875 
z
" id="DejaVuSans-54"/>
      </defs>
      <g transform="translate(20.878125 332.834699)scale(0.1 -0.1)">
       <use xlink:href="#DejaVuSans-8722"/>
       <use x="83.789062" xlink:href="#DejaVuSans-48"/>
       <use x="147.412109" xlink:href="#DejaVuSans-46"/>
       <use x="179.199219" xlink:href="#DejaVuSans-54"/>
      </g>
     </g>
    </g>
    <g id="ytick_2">
     <g id="line2d_3">
      <g>
       <use style="stroke:#000000;stroke-width:0.8;" x="52.160938" xlink:href="#m92327e9b0e" y="290.230502"/>
      </g>
     </g>
     <g id="text_4">
      <!-- −0.4 -->
      <defs>
       <path d="M 37.796875 64.3125 
L 12.890625 25.390625 
L 37.796875 25.390625 
z
M 35.203125 72.90625 
L 47.609375 72.90625 
L 47.609375 25.390625 
L 58.015625 25.390625 
L 58.015625 17.1875 
L 47.609375 17.1875 
L 47.609375 0 
L 37.796875 0 
L 37.796875 17.1875 
L 4.890625 17.1875 
L 4.890625 26.703125 
z
" id="DejaVuSans-52"/>
      </defs>
      <g transform="translate(20.878125 294.02972)scale(0.1 -0.1)">
       <use xlink:href="#DejaVuSans-8722"/>
       <use x="83.789062" xlink:href="#DejaVuSans-48"/>
       <use x="147.412109" xlink:href="#DejaVuSans-46"/>
       <use x="179.199219" xlink:href="#DejaVuSans-52"/>
      </g>
     </g>
    </g>
    <g id="ytick_3">
     <g id="line2d_4">
      <g>
       <use style="stroke:#000000;stroke-width:0.8;" x="52.160938" xlink:href="#m92327e9b0e" y="251.425523"/>
      </g>
     </g>
     <g id="text_5">
      <!-- −0.2 -->
      <defs>
       <path d="M 19.1875 8.296875 
L 53.609375 8.296875 
L 53.609375 0 
L 7.328125 0 
L 7.328125 8.296875 
Q 12.9375 14.109375 22.625 23.890625 
Q 32.328125 33.6875 34.8125 36.53125 
Q 39.546875 41.84375 41.421875 45.53125 
Q 43.3125 49.21875 43.3125 52.78125 
Q 43.3125 58.59375 39.234375 62.25 
Q 35.15625 65.921875 28.609375 65.921875 
Q 23.96875 65.921875 18.8125 64.3125 
Q 13.671875 62.703125 7.8125 59.421875 
L 7.8125 69.390625 
Q 13.765625 71.78125 18.9375 73 
Q 24.125 74.21875 28.421875 74.21875 
Q 39.75 74.21875 46.484375 68.546875 
Q 53.21875 62.890625 53.21875 53.421875 
Q 53.21875 48.921875 51.53125 44.890625 
Q 49.859375 40.875 45.40625 35.40625 
Q 44.1875 33.984375 37.640625 27.21875 
Q 31.109375 20.453125 19.1875 8.296875 
z
" id="DejaVuSans-50"/>
      </defs>
      <g transform="translate(20.878125 255.224742)scale(0.1 -0.1)">
       <use xlink:href="#DejaVuSans-8722"/>
       <use x="83.789062" xlink:href="#DejaVuSans-48"/>
       <use x="147.412109" xlink:href="#DejaVuSans-46"/>
       <use x="179.199219" xlink:href="#DejaVuSans-50"/>
      </g>
     </g>
    </g>
    <g id="ytick_4">
     <g id="line2d_5">
      <g>
       <use style="stroke:#000000;stroke-width:0.8;" x="52.160938" xlink:href="#m92327e9b0e" y="212.620545"/>
      </g>
     </g>
     <g id="text_6">
      <!-- 0.0 -->
      <g transform="translate(29.257812 216.419764)scale(0.1 -0.1)">
       <use xlink:href="#DejaVuSans-48"/>
       <use x="63.623047" xlink:href="#DejaVuSans-46"/>
       <use x="95.410156" xlink:href="#DejaVuSans-48"/>
      </g>
     </g>
    </g>
    <g id="ytick_5">
     <g id="line2d_6">
      <g>
       <use style="stroke:#000000;stroke-width:0.8;" x="52.160938" xlink:href="#m92327e9b0e" y="173.815567"/>
      </g>
     </g>
     <g id="text_7">
      <!-- 0.2 -->
      <g transform="translate(29.257812 177.614785)scale(0.1 -0.1)">
       <use xlink:href="#DejaVuSans-48"/>
       <use x="63.623047" xlink:href="#DejaVuSans-46"/>
       <use x="95.410156" xlink:href="#DejaVuSans-50"/>
      </g>
     </g>
    </g>
    <g id="ytick_6">
     <g id="line2d_7">
      <g>
       <use style="stroke:#000000;stroke-width:0.8;" x="52.160938" xlink:href="#m92327e9b0e" y="135.010588"/>
      </g>
     </g>
     <g id="text_8">
      <!-- 0.4 -->
      <g transform="translate(29.257812 138.809807)scale(0.1 -0.1)">
       <use xlink:href="#DejaVuSans-48"/>
       <use x="63.623047" xlink:href="#DejaVuSans-46"/>
       <use x="95.410156" xlink:href="#DejaVuSans-52"/>
      </g>
     </g>
    </g>
    <g id="ytick_7">
     <g id="line2d_8">
      <g>
       <use style="stroke:#000000;stroke-width:0.8;" x="52.160938" xlink:href="#m92327e9b0e" y="96.20561"/>
      </g>
     </g>
     <g id="text_9">
      <!-- 0.6 -->
      <g transform="translate(29.257812 100.004829)scale(0.1 -0.1)">
       <use xlink:href="#DejaVuSans-48"/>
       <use x="63.623047" xlink:href="#DejaVuSans-46"/>
       <use x="95.410156" xlink:href="#DejaVuSans-54"/>
      </g>
     </g>
    </g>
    <g id="ytick_8">
     <g id="line2d_9">
      <g>
       <use style="stroke:#000000;stroke-width:0.8;" x="52.160938" xlink:href="#m92327e9b0e" y="57.400631"/>
      </g>
     </g>
     <g id="text_10">
      <!-- 0.8 -->
      <defs>
       <path d="M 31.78125 34.625 
Q 24.75 34.625 20.71875 30.859375 
Q 16.703125 27.09375 16.703125 20.515625 
Q 16.703125 13.921875 20.71875 10.15625 
Q 24.75 6.390625 31.78125 6.390625 
Q 38.8125 6.390625 42.859375 10.171875 
Q 46.921875 13.96875 46.921875 20.515625 
Q 46.921875 27.09375 42.890625 30.859375 
Q 38.875 34.625 31.78125 34.625 
z
M 21.921875 38.8125 
Q 15.578125 40.375 12.03125 44.71875 
Q 8.5 49.078125 8.5 55.328125 
Q 8.5 64.0625 14.71875 69.140625 
Q 20.953125 74.21875 31.78125 74.21875 
Q 42.671875 74.21875 48.875 69.140625 
Q 55.078125 64.0625 55.078125 55.328125 
Q 55.078125 49.078125 51.53125 44.71875 
Q 48 40.375 41.703125 38.8125 
Q 48.828125 37.15625 52.796875 32.3125 
Q 56.78125 27.484375 56.78125 20.515625 
Q 56.78125 9.90625 50.3125 4.234375 
Q 43.84375 -1.421875 31.78125 -1.421875 
Q 19.734375 -1.421875 13.25 4.234375 
Q 6.78125 9.90625 6.78125 20.515625 
Q 6.78125 27.484375 10.78125 32.3125 
Q 14.796875 37.15625 21.921875 38.8125 
z
M 18.3125 54.390625 
Q 18.3125 48.734375 21.84375 45.5625 
Q 25.390625 42.390625 31.78125 42.390625 
Q 38.140625 42.390625 41.71875 45.5625 
Q 45.3125 48.734375 45.3125 54.390625 
Q 45.3125 60.0625 41.71875 63.234375 
Q 38.140625 66.40625 31.78125 66.40625 
Q 25.390625 66.40625 21.84375 63.234375 
Q 18.3125 60.0625 18.3125 54.390625 
z
" id="DejaVuSans-56"/>
      </defs>
      <g transform="translate(29.257812 61.19985)scale(0.1 -0.1)">
       <use xlink:href="#DejaVuSans-48"/>
       <use x="63.623047" xlink:href="#DejaVuSans-46"/>
       <use x="95.410156" xlink:href="#DejaVuSans-56"/>
      </g>
     </g>
    </g>
    <g id="text_11">
     <!-- GW -->
     <defs>
      <path d="M 59.515625 10.40625 
L 59.515625 29.984375 
L 43.40625 29.984375 
L 43.40625 38.09375 
L 69.28125 38.09375 
L 69.28125 6.78125 
Q 63.578125 2.734375 56.6875 0.65625 
Q 49.8125 -1.421875 42 -1.421875 
Q 24.90625 -1.421875 15.25 8.5625 
Q 5.609375 18.5625 5.609375 36.375 
Q 5.609375 54.25 15.25 64.234375 
Q 24.90625 74.21875 42 74.21875 
Q 49.125 74.21875 55.546875 72.453125 
Q 61.96875 70.703125 67.390625 67.28125 
L 67.390625 56.78125 
Q 61.921875 61.421875 55.765625 63.765625 
Q 49.609375 66.109375 42.828125 66.109375 
Q 29.4375 66.109375 22.71875 58.640625 
Q 16.015625 51.171875 16.015625 36.375 
Q 16.015625 21.625 22.71875 14.15625 
Q 29.4375 6.6875 42.828125 6.6875 
Q 48.046875 6.6875 52.140625 7.59375 
Q 56.25 8.5 59.515625 10.40625 
z
" id="DejaVuSans-71"/>
      <path d="M 3.328125 72.90625 
L 13.28125 72.90625 
L 28.609375 11.28125 
L 43.890625 72.90625 
L 54.984375 72.90625 
L 70.3125 11.28125 
L 85.59375 72.90625 
L 95.609375 72.90625 
L 77.296875 0 
L 64.890625 0 
L 49.515625 63.28125 
L 33.984375 0 
L 21.578125 0 
z
" id="DejaVuSans-87"/>
     </defs>
     <g transform="translate(14.798438 199.735625)rotate(-90)scale(0.1 -0.1)">
      <use xlink:href="#DejaVuSans-71"/>
      <use x="77.490234" xlink:href="#DejaVuSans-87"/>
     </g>
    </g>
   </g>
   <g id="line2d_10">
    <path clip-path="url(#p8bc33f4051)" d="M 52.160938 177.167516 
L 61.65881 181.157735 
L 71.156682 182.392704 
L 80.654555 183.275517 
L 90.152427 183.041717 
L 99.650299 180.208565 
L 109.148172 184.217508 
L 118.646044 184.919975 
L 128.143916 183.420454 
L 137.641789 182.798604 
L 147.139661 180.694509 
L 156.637533 176.723507 
L 166.135406 176.665493 
L 175.633278 177.238837 
L 185.13115 178.065577 
L 194.629023 178.827512 
L 204.126895 179.319366 
L 213.624767 179.851576 
L 223.12264 174.321672 
L 232.620512 163.137108 
L 242.118384 163.4491 
L 251.616257 170.152466 
L 261.114129 178.270079 
L 270.612001 183.422798 
L 280.109874 185.685516 
L 289.607746 186.020985 
L 299.105618 186.405349 
L 308.603491 188.759841 
L 318.101363 188.34812 
L 327.599235 186.653895 
L 337.097108 184.139332 
L 346.59498 178.74932 
L 356.092852 174.539562 
L 365.590725 173.542468 
L 375.088597 173.051197 
L 384.586469 172.424691 
L 394.084342 171.954763 
L 403.582214 172.802069 
L 413.080086 173.30731 
L 422.577959 175.355631 
L 432.075831 175.056057 
L 441.573703 175.033938 
L 451.071576 173.83176 
L 460.569448 160.151452 
L 470.06732 160.577531 
L 479.565193 165.265367 
L 489.063065 174.518414 
L 498.560938 179.089058 
" style="fill:none;stroke:#000000;stroke-linecap:square;stroke-opacity:0.5;stroke-width:3;"/>
   </g>
   <g id="patch_3">
    <path d="M 52.160938 357.237656 
L 52.160938 24.597656 
" style="fill:none;stroke:#000000;stroke-linecap:square;stroke-linejoin:miter;stroke-width:0.8;"/>
   </g>
   <g id="patch_4">
    <path d="M 498.560937 357.237656 
L 498.560937 24.597656 
" style="fill:none;stroke:#000000;stroke-linecap:square;stroke-linejoin:miter;stroke-width:0.8;"/>
   </g>
   <g id="patch_5">
    <path d="M 52.160938 357.237656 
L 498.560938 357.237656 
" style="fill:none;stroke:#000000;stroke-linecap:square;stroke-linejoin:miter;stroke-width:0.8;"/>
   </g>
   <g id="patch_6">
    <path d="M 52.160938 24.597656 
L 498.560938 24.597656 
" style="fill:none;stroke:#000000;stroke-linecap:square;stroke-linejoin:miter;stroke-width:0.8;"/>
   </g>
   <g id="text_12">
    <!-- Western Region Dispatch -->
    <defs>
     <path d="M 44.28125 53.078125 
L 44.28125 44.578125 
Q 40.484375 46.53125 36.375 47.5 
Q 32.28125 48.484375 27.875 48.484375 
Q 21.1875 48.484375 17.84375 46.4375 
Q 14.5 44.390625 14.5 40.28125 
Q 14.5 37.15625 16.890625 35.375 
Q 19.28125 33.59375 26.515625 31.984375 
L 29.59375 31.296875 
Q 39.15625 29.25 43.1875 25.515625 
Q 47.21875 21.78125 47.21875 15.09375 
Q 47.21875 7.46875 41.1875 3.015625 
Q 35.15625 -1.421875 24.609375 -1.421875 
Q 20.21875 -1.421875 15.453125 -0.5625 
Q 10.6875 0.296875 5.421875 2 
L 5.421875 11.28125 
Q 10.40625 8.6875 15.234375 7.390625 
Q 20.0625 6.109375 24.8125 6.109375 
Q 31.15625 6.109375 34.5625 8.28125 
Q 37.984375 10.453125 37.984375 14.40625 
Q 37.984375 18.0625 35.515625 20.015625 
Q 33.0625 21.96875 24.703125 23.78125 
L 21.578125 24.515625 
Q 13.234375 26.265625 9.515625 29.90625 
Q 5.8125 33.546875 5.8125 39.890625 
Q 5.8125 47.609375 11.28125 51.796875 
Q 16.75 56 26.8125 56 
Q 31.78125 56 36.171875 55.265625 
Q 40.578125 54.546875 44.28125 53.078125 
z
" id="DejaVuSans-115"/>
     <path id="DejaVuSans-32"/>
     <path d="M 44.390625 34.1875 
Q 47.5625 33.109375 50.5625 29.59375 
Q 53.5625 26.078125 56.59375 19.921875 
L 66.609375 0 
L 56 0 
L 46.6875 18.703125 
Q 43.0625 26.03125 39.671875 28.421875 
Q 36.28125 30.8125 30.421875 30.8125 
L 19.671875 30.8125 
L 19.671875 0 
L 9.8125 0 
L 9.8125 72.90625 
L 32.078125 72.90625 
Q 44.578125 72.90625 50.734375 67.671875 
Q 56.890625 62.453125 56.890625 51.90625 
Q 56.890625 45.015625 53.6875 40.46875 
Q 50.484375 35.9375 44.390625 34.1875 
z
M 19.671875 64.796875 
L 19.671875 38.921875 
L 32.078125 38.921875 
Q 39.203125 38.921875 42.84375 42.21875 
Q 46.484375 45.515625 46.484375 51.90625 
Q 46.484375 58.296875 42.84375 61.546875 
Q 39.203125 64.796875 32.078125 64.796875 
z
" id="DejaVuSans-82"/>
     <path d="M 45.40625 27.984375 
Q 45.40625 37.75 41.375 43.109375 
Q 37.359375 48.484375 30.078125 48.484375 
Q 22.859375 48.484375 18.828125 43.109375 
Q 14.796875 37.75 14.796875 27.984375 
Q 14.796875 18.265625 18.828125 12.890625 
Q 22.859375 7.515625 30.078125 7.515625 
Q 37.359375 7.515625 41.375 12.890625 
Q 45.40625 18.265625 45.40625 27.984375 
z
M 54.390625 6.78125 
Q 54.390625 -7.171875 48.1875 -13.984375 
Q 42 -20.796875 29.203125 -20.796875 
Q 24.46875 -20.796875 20.265625 -20.09375 
Q 16.0625 -19.390625 12.109375 -17.921875 
L 12.109375 -9.1875 
Q 16.0625 -11.328125 19.921875 -12.34375 
Q 23.78125 -13.375 27.78125 -13.375 
Q 36.625 -13.375 41.015625 -8.765625 
Q 45.40625 -4.15625 45.40625 5.171875 
L 45.40625 9.625 
Q 42.625 4.78125 38.28125 2.390625 
Q 33.9375 0 27.875 0 
Q 17.828125 0 11.671875 7.65625 
Q 5.515625 15.328125 5.515625 27.984375 
Q 5.515625 40.671875 11.671875 48.328125 
Q 17.828125 56 27.875 56 
Q 33.9375 56 38.28125 53.609375 
Q 42.625 51.21875 45.40625 46.390625 
L 45.40625 54.6875 
L 54.390625 54.6875 
z
" id="DejaVuSans-103"/>
     <path d="M 9.421875 54.6875 
L 18.40625 54.6875 
L 18.40625 0 
L 9.421875 0 
z
M 9.421875 75.984375 
L 18.40625 75.984375 
L 18.40625 64.59375 
L 9.421875 64.59375 
z
" id="DejaVuSans-105"/>
     <path d="M 30.609375 48.390625 
Q 23.390625 48.390625 19.1875 42.75 
Q 14.984375 37.109375 14.984375 27.296875 
Q 14.984375 17.484375 19.15625 11.84375 
Q 23.34375 6.203125 30.609375 6.203125 
Q 37.796875 6.203125 41.984375 11.859375 
Q 46.1875 17.53125 46.1875 27.296875 
Q 46.1875 37.015625 41.984375 42.703125 
Q 37.796875 48.390625 30.609375 48.390625 
z
M 30.609375 56 
Q 42.328125 56 49.015625 48.375 
Q 55.71875 40.765625 55.71875 27.296875 
Q 55.71875 13.875 49.015625 6.21875 
Q 42.328125 -1.421875 30.609375 -1.421875 
Q 18.84375 -1.421875 12.171875 6.21875 
Q 5.515625 13.875 5.515625 27.296875 
Q 5.515625 40.765625 12.171875 48.375 
Q 18.84375 56 30.609375 56 
z
" id="DejaVuSans-111"/>
     <path d="M 18.109375 8.203125 
L 18.109375 -20.796875 
L 9.078125 -20.796875 
L 9.078125 54.6875 
L 18.109375 54.6875 
L 18.109375 46.390625 
Q 20.953125 51.265625 25.265625 53.625 
Q 29.59375 56 35.59375 56 
Q 45.5625 56 51.78125 48.09375 
Q 58.015625 40.1875 58.015625 27.296875 
Q 58.015625 14.40625 51.78125 6.484375 
Q 45.5625 -1.421875 35.59375 -1.421875 
Q 29.59375 -1.421875 25.265625 0.953125 
Q 20.953125 3.328125 18.109375 8.203125 
z
M 48.6875 27.296875 
Q 48.6875 37.203125 44.609375 42.84375 
Q 40.53125 48.484375 33.40625 48.484375 
Q 26.265625 48.484375 22.1875 42.84375 
Q 18.109375 37.203125 18.109375 27.296875 
Q 18.109375 17.390625 22.1875 11.75 
Q 26.265625 6.109375 33.40625 6.109375 
Q 40.53125 6.109375 44.609375 11.75 
Q 48.6875 17.390625 48.6875 27.296875 
z
" id="DejaVuSans-112"/>
     <path d="M 48.78125 52.59375 
L 48.78125 44.1875 
Q 44.96875 46.296875 41.140625 47.34375 
Q 37.3125 48.390625 33.40625 48.390625 
Q 24.65625 48.390625 19.8125 42.84375 
Q 14.984375 37.3125 14.984375 27.296875 
Q 14.984375 17.28125 19.8125 11.734375 
Q 24.65625 6.203125 33.40625 6.203125 
Q 37.3125 6.203125 41.140625 7.25 
Q 44.96875 8.296875 48.78125 10.40625 
L 48.78125 2.09375 
Q 45.015625 0.34375 40.984375 -0.53125 
Q 36.96875 -1.421875 32.421875 -1.421875 
Q 20.0625 -1.421875 12.78125 6.34375 
Q 5.515625 14.109375 5.515625 27.296875 
Q 5.515625 40.671875 12.859375 48.328125 
Q 20.21875 56 33.015625 56 
Q 37.15625 56 41.109375 55.140625 
Q 45.0625 54.296875 48.78125 52.59375 
z
" id="DejaVuSans-99"/>
     <path d="M 54.890625 33.015625 
L 54.890625 0 
L 45.90625 0 
L 45.90625 32.71875 
Q 45.90625 40.484375 42.875 44.328125 
Q 39.84375 48.1875 33.796875 48.1875 
Q 26.515625 48.1875 22.3125 43.546875 
Q 18.109375 38.921875 18.109375 30.90625 
L 18.109375 0 
L 9.078125 0 
L 9.078125 75.984375 
L 18.109375 75.984375 
L 18.109375 46.1875 
Q 21.34375 51.125 25.703125 53.5625 
Q 30.078125 56 35.796875 56 
Q 45.21875 56 50.046875 50.171875 
Q 54.890625 44.34375 54.890625 33.015625 
z
" id="DejaVuSans-104"/>
    </defs>
    <g transform="translate(181.220703 18.597656)scale(0.15 -0.15)">
     <use xlink:href="#DejaVuSans-87"/>
     <use x="93.001953" xlink:href="#DejaVuSans-101"/>
     <use x="154.525391" xlink:href="#DejaVuSans-115"/>
     <use x="206.625" xlink:href="#DejaVuSans-116"/>
     <use x="245.833984" xlink:href="#DejaVuSans-101"/>
     <use x="307.357422" xlink:href="#DejaVuSans-114"/>
     <use x="346.720703" xlink:href="#DejaVuSans-110"/>
     <use x="410.099609" xlink:href="#DejaVuSans-32"/>
     <use x="441.886719" xlink:href="#DejaVuSans-82"/>
     <use x="506.869141" xlink:href="#DejaVuSans-101"/>
     <use x="568.392578" xlink:href="#DejaVuSans-103"/>
     <use x="631.869141" xlink:href="#DejaVuSans-105"/>
     <use x="659.652344" xlink:href="#DejaVuSans-111"/>
     <use x="720.833984" xlink:href="#DejaVuSans-110"/>
     <use x="784.212891" xlink:href="#DejaVuSans-32"/>
     <use x="816" xlink:href="#DejaVuSans-68"/>
     <use x="893.001953" xlink:href="#DejaVuSans-105"/>
     <use x="920.785156" xlink:href="#DejaVuSans-115"/>
     <use x="972.884766" xlink:href="#DejaVuSans-112"/>
     <use x="1036.361328" xlink:href="#DejaVuSans-97"/>
     <use x="1097.640625" xlink:href="#DejaVuSans-116"/>
     <use x="1136.849609" xlink:href="#DejaVuSans-99"/>
     <use x="1191.830078" xlink:href="#DejaVuSans-104"/>
    </g>
   </g>
   <g id="legend_1">
    <g id="patch_7">
     <path d="M 522.880937 233.091406 
L 663.862187 233.091406 
Q 665.862187 233.091406 665.862187 231.091406 
L 665.862187 26.597656 
Q 665.862187 24.597656 663.862187 24.597656 
L 522.880937 24.597656 
Q 520.880937 24.597656 520.880937 26.597656 
L 520.880937 231.091406 
Q 520.880937 233.091406 522.880937 233.091406 
z
" style="fill:#ffffff;opacity:0.8;stroke:#cccccc;stroke-linejoin:miter;"/>
    </g>
    <g id="line2d_11">
     <path d="M 524.880937 32.696094 
L 544.880937 32.696094 
" style="fill:none;stroke:#000000;stroke-linecap:square;stroke-opacity:0.5;stroke-width:3;"/>
    </g>
    <g id="line2d_12"/>
    <g id="text_13">
     <!-- Demand -->
     <defs>
      <path d="M 52 44.1875 
Q 55.375 50.25 60.0625 53.125 
Q 64.75 56 71.09375 56 
Q 79.640625 56 84.28125 50.015625 
Q 88.921875 44.046875 88.921875 33.015625 
L 88.921875 0 
L 79.890625 0 
L 79.890625 32.71875 
Q 79.890625 40.578125 77.09375 44.375 
Q 74.3125 48.1875 68.609375 48.1875 
Q 61.625 48.1875 57.5625 43.546875 
Q 53.515625 38.921875 53.515625 30.90625 
L 53.515625 0 
L 44.484375 0 
L 44.484375 32.71875 
Q 44.484375 40.625 41.703125 44.40625 
Q 38.921875 48.1875 33.109375 48.1875 
Q 26.21875 48.1875 22.15625 43.53125 
Q 18.109375 38.875 18.109375 30.90625 
L 18.109375 0 
L 9.078125 0 
L 9.078125 54.6875 
L 18.109375 54.6875 
L 18.109375 46.1875 
Q 21.1875 51.21875 25.484375 53.609375 
Q 29.78125 56 35.6875 56 
Q 41.65625 56 45.828125 52.96875 
Q 50 49.953125 52 44.1875 
z
" id="DejaVuSans-109"/>
      <path d="M 45.40625 46.390625 
L 45.40625 75.984375 
L 54.390625 75.984375 
L 54.390625 0 
L 45.40625 0 
L 45.40625 8.203125 
Q 42.578125 3.328125 38.25 0.953125 
Q 33.9375 -1.421875 27.875 -1.421875 
Q 17.96875 -1.421875 11.734375 6.484375 
Q 5.515625 14.40625 5.515625 27.296875 
Q 5.515625 40.1875 11.734375 48.09375 
Q 17.96875 56 27.875 56 
Q 33.9375 56 38.25 53.625 
Q 42.578125 51.265625 45.40625 46.390625 
z
M 14.796875 27.296875 
Q 14.796875 17.390625 18.875 11.75 
Q 22.953125 6.109375 30.078125 6.109375 
Q 37.203125 6.109375 41.296875 11.75 
Q 45.40625 17.390625 45.40625 27.296875 
Q 45.40625 37.203125 41.296875 42.84375 
Q 37.203125 48.484375 30.078125 48.484375 
Q 22.953125 48.484375 18.875 42.84375 
Q 14.796875 37.203125 14.796875 27.296875 
z
" id="DejaVuSans-100"/>
     </defs>
     <g transform="translate(552.880937 36.196094)scale(0.1 -0.1)">
      <use xlink:href="#DejaVuSans-68"/>
      <use x="77.001953" xlink:href="#DejaVuSans-101"/>
      <use x="138.525391" xlink:href="#DejaVuSans-109"/>
      <use x="235.9375" xlink:href="#DejaVuSans-97"/>
      <use x="297.216797" xlink:href="#DejaVuSans-110"/>
      <use x="360.595703" xlink:href="#DejaVuSans-100"/>
     </g>
    </g>
    <g id="patch_8">
     <path d="M 524.880937 50.874219 
L 544.880937 50.874219 
L 544.880937 43.874219 
L 524.880937 43.874219 
z
" style="fill:#ffb30f;"/>
    </g>
    <g id="text_14">
     <!-- Geothermal -->
     <defs>
      <path d="M 9.421875 75.984375 
L 18.40625 75.984375 
L 18.40625 0 
L 9.421875 0 
z
" id="DejaVuSans-108"/>
     </defs>
     <g transform="translate(552.880937 50.874219)scale(0.1 -0.1)">
      <use xlink:href="#DejaVuSans-71"/>
      <use x="77.490234" xlink:href="#DejaVuSans-101"/>
      <use x="139.013672" xlink:href="#DejaVuSans-111"/>
      <use x="200.195312" xlink:href="#DejaVuSans-116"/>
      <use x="239.404297" xlink:href="#DejaVuSans-104"/>
      <use x="302.783203" xlink:href="#DejaVuSans-101"/>
      <use x="364.306641" xlink:href="#DejaVuSans-114"/>
      <use x="403.669922" xlink:href="#DejaVuSans-109"/>
      <use x="501.082031" xlink:href="#DejaVuSans-97"/>
      <use x="562.361328" xlink:href="#DejaVuSans-108"/>
     </g>
    </g>
    <g id="patch_9">
     <path d="M 524.880937 65.552344 
L 544.880937 65.552344 
L 544.880937 58.552344 
L 524.880937 58.552344 
z
" style="fill:#2980b9;"/>
    </g>
    <g id="text_15">
     <!-- Large Hydro -->
     <defs>
      <path d="M 9.8125 72.90625 
L 19.671875 72.90625 
L 19.671875 8.296875 
L 55.171875 8.296875 
L 55.171875 0 
L 9.8125 0 
z
" id="DejaVuSans-76"/>
      <path d="M 9.8125 72.90625 
L 19.671875 72.90625 
L 19.671875 43.015625 
L 55.515625 43.015625 
L 55.515625 72.90625 
L 65.375 72.90625 
L 65.375 0 
L 55.515625 0 
L 55.515625 34.71875 
L 19.671875 34.71875 
L 19.671875 0 
L 9.8125 0 
z
" id="DejaVuSans-72"/>
     </defs>
     <g transform="translate(552.880937 65.552344)scale(0.1 -0.1)">
      <use xlink:href="#DejaVuSans-76"/>
      <use x="55.712891" xlink:href="#DejaVuSans-97"/>
      <use x="116.992188" xlink:href="#DejaVuSans-114"/>
      <use x="156.355469" xlink:href="#DejaVuSans-103"/>
      <use x="219.832031" xlink:href="#DejaVuSans-101"/>
      <use x="281.355469" xlink:href="#DejaVuSans-32"/>
      <use x="313.142578" xlink:href="#DejaVuSans-72"/>
      <use x="388.337891" xlink:href="#DejaVuSans-121"/>
      <use x="447.517578" xlink:href="#DejaVuSans-100"/>
      <use x="510.994141" xlink:href="#DejaVuSans-114"/>
      <use x="549.857422" xlink:href="#DejaVuSans-111"/>
     </g>
    </g>
    <g id="patch_10">
     <path d="M 524.880937 80.230469 
L 544.880937 80.230469 
L 544.880937 73.230469 
L 524.880937 73.230469 
z
" style="fill:#3498db;"/>
    </g>
    <g id="text_16">
     <!-- Small Hydro -->
     <defs>
      <path d="M 53.515625 70.515625 
L 53.515625 60.890625 
Q 47.90625 63.578125 42.921875 64.890625 
Q 37.9375 66.21875 33.296875 66.21875 
Q 25.25 66.21875 20.875 63.09375 
Q 16.5 59.96875 16.5 54.203125 
Q 16.5 49.359375 19.40625 46.890625 
Q 22.3125 44.4375 30.421875 42.921875 
L 36.375 41.703125 
Q 47.40625 39.59375 52.65625 34.296875 
Q 57.90625 29 57.90625 20.125 
Q 57.90625 9.515625 50.796875 4.046875 
Q 43.703125 -1.421875 29.984375 -1.421875 
Q 24.8125 -1.421875 18.96875 -0.25 
Q 13.140625 0.921875 6.890625 3.21875 
L 6.890625 13.375 
Q 12.890625 10.015625 18.65625 8.296875 
Q 24.421875 6.59375 29.984375 6.59375 
Q 38.421875 6.59375 43.015625 9.90625 
Q 47.609375 13.234375 47.609375 19.390625 
Q 47.609375 24.75 44.3125 27.78125 
Q 41.015625 30.8125 33.5 32.328125 
L 27.484375 33.5 
Q 16.453125 35.6875 11.515625 40.375 
Q 6.59375 45.0625 6.59375 53.421875 
Q 6.59375 63.09375 13.40625 68.65625 
Q 20.21875 74.21875 32.171875 74.21875 
Q 37.3125 74.21875 42.625 73.28125 
Q 47.953125 72.359375 53.515625 70.515625 
z
" id="DejaVuSans-83"/>
     </defs>
     <g transform="translate(552.880937 80.230469)scale(0.1 -0.1)">
      <use xlink:href="#DejaVuSans-83"/>
      <use x="63.476562" xlink:href="#DejaVuSans-109"/>
      <use x="160.888672" xlink:href="#DejaVuSans-97"/>
      <use x="222.167969" xlink:href="#DejaVuSans-108"/>
      <use x="249.951172" xlink:href="#DejaVuSans-108"/>
      <use x="277.734375" xlink:href="#DejaVuSans-32"/>
      <use x="309.521484" xlink:href="#DejaVuSans-72"/>
      <use x="384.716797" xlink:href="#DejaVuSans-121"/>
      <use x="443.896484" xlink:href="#DejaVuSans-100"/>
      <use x="507.373047" xlink:href="#DejaVuSans-114"/>
      <use x="546.236328" xlink:href="#DejaVuSans-111"/>
     </g>
    </g>
    <g id="patch_11">
     <path d="M 524.880937 94.908594 
L 544.880937 94.908594 
L 544.880937 87.908594 
L 524.880937 87.908594 
z
" style="fill:#28b463;"/>
    </g>
    <g id="text_17">
     <!-- Onshore Wind -->
     <defs>
      <path d="M 39.40625 66.21875 
Q 28.65625 66.21875 22.328125 58.203125 
Q 16.015625 50.203125 16.015625 36.375 
Q 16.015625 22.609375 22.328125 14.59375 
Q 28.65625 6.59375 39.40625 6.59375 
Q 50.140625 6.59375 56.421875 14.59375 
Q 62.703125 22.609375 62.703125 36.375 
Q 62.703125 50.203125 56.421875 58.203125 
Q 50.140625 66.21875 39.40625 66.21875 
z
M 39.40625 74.21875 
Q 54.734375 74.21875 63.90625 63.9375 
Q 73.09375 53.65625 73.09375 36.375 
Q 73.09375 19.140625 63.90625 8.859375 
Q 54.734375 -1.421875 39.40625 -1.421875 
Q 24.03125 -1.421875 14.8125 8.828125 
Q 5.609375 19.09375 5.609375 36.375 
Q 5.609375 53.65625 14.8125 63.9375 
Q 24.03125 74.21875 39.40625 74.21875 
z
" id="DejaVuSans-79"/>
     </defs>
     <g transform="translate(552.880937 94.908594)scale(0.1 -0.1)">
      <use xlink:href="#DejaVuSans-79"/>
      <use x="78.710938" xlink:href="#DejaVuSans-110"/>
      <use x="142.089844" xlink:href="#DejaVuSans-115"/>
      <use x="194.189453" xlink:href="#DejaVuSans-104"/>
      <use x="257.568359" xlink:href="#DejaVuSans-111"/>
      <use x="318.75" xlink:href="#DejaVuSans-114"/>
      <use x="357.613281" xlink:href="#DejaVuSans-101"/>
      <use x="419.136719" xlink:href="#DejaVuSans-32"/>
      <use x="450.923828" xlink:href="#DejaVuSans-87"/>
      <use x="547.550781" xlink:href="#DejaVuSans-105"/>
      <use x="575.333984" xlink:href="#DejaVuSans-110"/>
      <use x="638.712891" xlink:href="#DejaVuSans-100"/>
     </g>
    </g>
    <g id="patch_12">
     <path d="M 524.880937 109.586719 
L 544.880937 109.586719 
L 544.880937 102.586719 
L 524.880937 102.586719 
z
" style="fill:#494949;"/>
    </g>
    <g id="text_18">
     <!-- Heavy Fuel Oil -->
     <defs>
      <path d="M 2.984375 54.6875 
L 12.5 54.6875 
L 29.59375 8.796875 
L 46.6875 54.6875 
L 56.203125 54.6875 
L 35.6875 0 
L 23.484375 0 
z
" id="DejaVuSans-118"/>
      <path d="M 9.8125 72.90625 
L 51.703125 72.90625 
L 51.703125 64.59375 
L 19.671875 64.59375 
L 19.671875 43.109375 
L 48.578125 43.109375 
L 48.578125 34.8125 
L 19.671875 34.8125 
L 19.671875 0 
L 9.8125 0 
z
" id="DejaVuSans-70"/>
     </defs>
     <g transform="translate(552.880937 109.586719)scale(0.1 -0.1)">
      <use xlink:href="#DejaVuSans-72"/>
      <use x="75.195312" xlink:href="#DejaVuSans-101"/>
      <use x="136.71875" xlink:href="#DejaVuSans-97"/>
      <use x="197.998047" xlink:href="#DejaVuSans-118"/>
      <use x="257.177734" xlink:href="#DejaVuSans-121"/>
      <use x="316.357422" xlink:href="#DejaVuSans-32"/>
      <use x="348.144531" xlink:href="#DejaVuSans-70"/>
      <use x="400.164062" xlink:href="#DejaVuSans-117"/>
      <use x="463.542969" xlink:href="#DejaVuSans-101"/>
      <use x="525.066406" xlink:href="#DejaVuSans-108"/>
      <use x="552.849609" xlink:href="#DejaVuSans-32"/>
      <use x="584.636719" xlink:href="#DejaVuSans-79"/>
      <use x="663.347656" xlink:href="#DejaVuSans-105"/>
      <use x="691.130859" xlink:href="#DejaVuSans-108"/>
     </g>
    </g>
    <g id="patch_13">
     <path d="M 524.880937 124.264844 
L 544.880937 124.264844 
L 544.880937 117.264844 
L 524.880937 117.264844 
z
" style="fill:#7c7c7c;"/>
    </g>
    <g id="text_19">
     <!-- Gas Turbine -->
     <defs>
      <path d="M -0.296875 72.90625 
L 61.375 72.90625 
L 61.375 64.59375 
L 35.5 64.59375 
L 35.5 0 
L 25.59375 0 
L 25.59375 64.59375 
L -0.296875 64.59375 
z
" id="DejaVuSans-84"/>
      <path d="M 48.6875 27.296875 
Q 48.6875 37.203125 44.609375 42.84375 
Q 40.53125 48.484375 33.40625 48.484375 
Q 26.265625 48.484375 22.1875 42.84375 
Q 18.109375 37.203125 18.109375 27.296875 
Q 18.109375 17.390625 22.1875 11.75 
Q 26.265625 6.109375 33.40625 6.109375 
Q 40.53125 6.109375 44.609375 11.75 
Q 48.6875 17.390625 48.6875 27.296875 
z
M 18.109375 46.390625 
Q 20.953125 51.265625 25.265625 53.625 
Q 29.59375 56 35.59375 56 
Q 45.5625 56 51.78125 48.09375 
Q 58.015625 40.1875 58.015625 27.296875 
Q 58.015625 14.40625 51.78125 6.484375 
Q 45.5625 -1.421875 35.59375 -1.421875 
Q 29.59375 -1.421875 25.265625 0.953125 
Q 20.953125 3.328125 18.109375 8.203125 
L 18.109375 0 
L 9.078125 0 
L 9.078125 75.984375 
L 18.109375 75.984375 
z
" id="DejaVuSans-98"/>
     </defs>
     <g transform="translate(552.880937 124.264844)scale(0.1 -0.1)">
      <use xlink:href="#DejaVuSans-71"/>
      <use x="77.490234" xlink:href="#DejaVuSans-97"/>
      <use x="138.769531" xlink:href="#DejaVuSans-115"/>
      <use x="190.869141" xlink:href="#DejaVuSans-32"/>
      <use x="222.65625" xlink:href="#DejaVuSans-84"/>
      <use x="268.615234" xlink:href="#DejaVuSans-117"/>
      <use x="331.994141" xlink:href="#DejaVuSans-114"/>
      <use x="373.107422" xlink:href="#DejaVuSans-98"/>
      <use x="436.583984" xlink:href="#DejaVuSans-105"/>
      <use x="464.367188" xlink:href="#DejaVuSans-110"/>
      <use x="527.746094" xlink:href="#DejaVuSans-101"/>
     </g>
    </g>
    <g id="patch_14">
     <path d="M 524.880937 138.942969 
L 544.880937 138.942969 
L 544.880937 131.942969 
L 524.880937 131.942969 
z
" style="fill:#ba4a00;"/>
    </g>
    <g id="text_20">
     <!-- Biomass -->
     <defs>
      <path d="M 19.671875 34.8125 
L 19.671875 8.109375 
L 35.5 8.109375 
Q 43.453125 8.109375 47.28125 11.40625 
Q 51.125 14.703125 51.125 21.484375 
Q 51.125 28.328125 47.28125 31.5625 
Q 43.453125 34.8125 35.5 34.8125 
z
M 19.671875 64.796875 
L 19.671875 42.828125 
L 34.28125 42.828125 
Q 41.5 42.828125 45.03125 45.53125 
Q 48.578125 48.25 48.578125 53.8125 
Q 48.578125 59.328125 45.03125 62.0625 
Q 41.5 64.796875 34.28125 64.796875 
z
M 9.8125 72.90625 
L 35.015625 72.90625 
Q 46.296875 72.90625 52.390625 68.21875 
Q 58.5 63.53125 58.5 54.890625 
Q 58.5 48.1875 55.375 44.234375 
Q 52.25 40.28125 46.1875 39.3125 
Q 53.46875 37.75 57.5 32.78125 
Q 61.53125 27.828125 61.53125 20.40625 
Q 61.53125 10.640625 54.890625 5.3125 
Q 48.25 0 35.984375 0 
L 9.8125 0 
z
" id="DejaVuSans-66"/>
     </defs>
     <g transform="translate(552.880937 138.942969)scale(0.1 -0.1)">
      <use xlink:href="#DejaVuSans-66"/>
      <use x="68.603516" xlink:href="#DejaVuSans-105"/>
      <use x="96.386719" xlink:href="#DejaVuSans-111"/>
      <use x="157.568359" xlink:href="#DejaVuSans-109"/>
      <use x="254.980469" xlink:href="#DejaVuSans-97"/>
      <use x="316.259766" xlink:href="#DejaVuSans-115"/>
      <use x="368.359375" xlink:href="#DejaVuSans-115"/>
     </g>
    </g>
    <g id="patch_15">
     <path d="M 524.880937 153.621094 
L 544.880937 153.621094 
L 544.880937 146.621094 
L 524.880937 146.621094 
z
" style="fill:#606fed;"/>
    </g>
    <g id="text_21">
     <!-- Exchange From MTKR -->
     <defs>
      <path d="M 9.8125 72.90625 
L 55.90625 72.90625 
L 55.90625 64.59375 
L 19.671875 64.59375 
L 19.671875 43.015625 
L 54.390625 43.015625 
L 54.390625 34.71875 
L 19.671875 34.71875 
L 19.671875 8.296875 
L 56.78125 8.296875 
L 56.78125 0 
L 9.8125 0 
z
" id="DejaVuSans-69"/>
      <path d="M 54.890625 54.6875 
L 35.109375 28.078125 
L 55.90625 0 
L 45.3125 0 
L 29.390625 21.484375 
L 13.484375 0 
L 2.875 0 
L 24.125 28.609375 
L 4.6875 54.6875 
L 15.28125 54.6875 
L 29.78125 35.203125 
L 44.28125 54.6875 
z
" id="DejaVuSans-120"/>
      <path d="M 9.8125 72.90625 
L 24.515625 72.90625 
L 43.109375 23.296875 
L 61.8125 72.90625 
L 76.515625 72.90625 
L 76.515625 0 
L 66.890625 0 
L 66.890625 64.015625 
L 48.09375 14.015625 
L 38.1875 14.015625 
L 19.390625 64.015625 
L 19.390625 0 
L 9.8125 0 
z
" id="DejaVuSans-77"/>
      <path d="M 9.8125 72.90625 
L 19.671875 72.90625 
L 19.671875 42.09375 
L 52.390625 72.90625 
L 65.09375 72.90625 
L 28.90625 38.921875 
L 67.671875 0 
L 54.6875 0 
L 19.671875 35.109375 
L 19.671875 0 
L 9.8125 0 
z
" id="DejaVuSans-75"/>
     </defs>
     <g transform="translate(552.880937 153.621094)scale(0.1 -0.1)">
      <use xlink:href="#DejaVuSans-69"/>
      <use x="63.183594" xlink:href="#DejaVuSans-120"/>
      <use x="120.613281" xlink:href="#DejaVuSans-99"/>
      <use x="175.59375" xlink:href="#DejaVuSans-104"/>
      <use x="238.972656" xlink:href="#DejaVuSans-97"/>
      <use x="300.251953" xlink:href="#DejaVuSans-110"/>
      <use x="363.630859" xlink:href="#DejaVuSans-103"/>
      <use x="427.107422" xlink:href="#DejaVuSans-101"/>
      <use x="488.630859" xlink:href="#DejaVuSans-32"/>
      <use x="520.417969" xlink:href="#DejaVuSans-70"/>
      <use x="570.6875" xlink:href="#DejaVuSans-114"/>
      <use x="609.550781" xlink:href="#DejaVuSans-111"/>
      <use x="670.732422" xlink:href="#DejaVuSans-109"/>
      <use x="768.144531" xlink:href="#DejaVuSans-32"/>
      <use x="799.931641" xlink:href="#DejaVuSans-77"/>
      <use x="886.210938" xlink:href="#DejaVuSans-84"/>
      <use x="947.294922" xlink:href="#DejaVuSans-75"/>
      <use x="1012.871094" xlink:href="#DejaVuSans-82"/>
     </g>
    </g>
    <g id="patch_16">
     <path d="M 524.880937 168.299219 
L 544.880937 168.299219 
L 544.880937 161.299219 
L 524.880937 161.299219 
z
" style="fill:#ed6060;"/>
    </g>
    <g id="text_22">
     <!-- Exchange From NBOR -->
     <defs>
      <path d="M 9.8125 72.90625 
L 23.09375 72.90625 
L 55.421875 11.921875 
L 55.421875 72.90625 
L 64.984375 72.90625 
L 64.984375 0 
L 51.703125 0 
L 19.390625 60.984375 
L 19.390625 0 
L 9.8125 0 
z
" id="DejaVuSans-78"/>
     </defs>
     <g transform="translate(552.880937 168.299219)scale(0.1 -0.1)">
      <use xlink:href="#DejaVuSans-69"/>
      <use x="63.183594" xlink:href="#DejaVuSans-120"/>
      <use x="120.613281" xlink:href="#DejaVuSans-99"/>
      <use x="175.59375" xlink:href="#DejaVuSans-104"/>
      <use x="238.972656" xlink:href="#DejaVuSans-97"/>
      <use x="300.251953" xlink:href="#DejaVuSans-110"/>
      <use x="363.630859" xlink:href="#DejaVuSans-103"/>
      <use x="427.107422" xlink:href="#DejaVuSans-101"/>
      <use x="488.630859" xlink:href="#DejaVuSans-32"/>
      <use x="520.417969" xlink:href="#DejaVuSans-70"/>
      <use x="570.6875" xlink:href="#DejaVuSans-114"/>
      <use x="609.550781" xlink:href="#DejaVuSans-111"/>
      <use x="670.732422" xlink:href="#DejaVuSans-109"/>
      <use x="768.144531" xlink:href="#DejaVuSans-32"/>
      <use x="799.931641" xlink:href="#DejaVuSans-78"/>
      <use x="874.736328" xlink:href="#DejaVuSans-66"/>
      <use x="941.589844" xlink:href="#DejaVuSans-79"/>
      <use x="1020.300781" xlink:href="#DejaVuSans-82"/>
     </g>
    </g>
    <g id="patch_17">
     <path d="M 524.880937 182.977344 
L 544.880937 182.977344 
L 544.880937 175.977344 
L 524.880937 175.977344 
z
" style="fill:#ea6bee;"/>
    </g>
    <g id="text_23">
     <!-- Exchange From CSTR -->
     <defs>
      <path d="M 64.40625 67.28125 
L 64.40625 56.890625 
Q 59.421875 61.53125 53.78125 63.8125 
Q 48.140625 66.109375 41.796875 66.109375 
Q 29.296875 66.109375 22.65625 58.46875 
Q 16.015625 50.828125 16.015625 36.375 
Q 16.015625 21.96875 22.65625 14.328125 
Q 29.296875 6.6875 41.796875 6.6875 
Q 48.140625 6.6875 53.78125 8.984375 
Q 59.421875 11.28125 64.40625 15.921875 
L 64.40625 5.609375 
Q 59.234375 2.09375 53.4375 0.328125 
Q 47.65625 -1.421875 41.21875 -1.421875 
Q 24.65625 -1.421875 15.125 8.703125 
Q 5.609375 18.84375 5.609375 36.375 
Q 5.609375 53.953125 15.125 64.078125 
Q 24.65625 74.21875 41.21875 74.21875 
Q 47.75 74.21875 53.53125 72.484375 
Q 59.328125 70.75 64.40625 67.28125 
z
" id="DejaVuSans-67"/>
     </defs>
     <g transform="translate(552.880937 182.977344)scale(0.1 -0.1)">
      <use xlink:href="#DejaVuSans-69"/>
      <use x="63.183594" xlink:href="#DejaVuSans-120"/>
      <use x="120.613281" xlink:href="#DejaVuSans-99"/>
      <use x="175.59375" xlink:href="#DejaVuSans-104"/>
      <use x="238.972656" xlink:href="#DejaVuSans-97"/>
      <use x="300.251953" xlink:href="#DejaVuSans-110"/>
      <use x="363.630859" xlink:href="#DejaVuSans-103"/>
      <use x="427.107422" xlink:href="#DejaVuSans-101"/>
      <use x="488.630859" xlink:href="#DejaVuSans-32"/>
      <use x="520.417969" xlink:href="#DejaVuSans-70"/>
      <use x="570.6875" xlink:href="#DejaVuSans-114"/>
      <use x="609.550781" xlink:href="#DejaVuSans-111"/>
      <use x="670.732422" xlink:href="#DejaVuSans-109"/>
      <use x="768.144531" xlink:href="#DejaVuSans-32"/>
      <use x="799.931641" xlink:href="#DejaVuSans-67"/>
      <use x="869.755859" xlink:href="#DejaVuSans-83"/>
      <use x="933.232422" xlink:href="#DejaVuSans-84"/>
      <use x="994.316406" xlink:href="#DejaVuSans-82"/>
     </g>
    </g>
    <g id="patch_18">
     <path d="M 524.880937 197.655469 
L 544.880937 197.655469 
L 544.880937 190.655469 
L 524.880937 190.655469 
z
" style="fill:#0e25ec;"/>
    </g>
    <g id="text_24">
     <!-- Exchange To MTKR -->
     <g transform="translate(552.880937 197.655469)scale(0.1 -0.1)">
      <use xlink:href="#DejaVuSans-69"/>
      <use x="63.183594" xlink:href="#DejaVuSans-120"/>
      <use x="120.613281" xlink:href="#DejaVuSans-99"/>
      <use x="175.59375" xlink:href="#DejaVuSans-104"/>
      <use x="238.972656" xlink:href="#DejaVuSans-97"/>
      <use x="300.251953" xlink:href="#DejaVuSans-110"/>
      <use x="363.630859" xlink:href="#DejaVuSans-103"/>
      <use x="427.107422" xlink:href="#DejaVuSans-101"/>
      <use x="488.630859" xlink:href="#DejaVuSans-32"/>
      <use x="520.417969" xlink:href="#DejaVuSans-84"/>
      <use x="564.501953" xlink:href="#DejaVuSans-111"/>
      <use x="625.683594" xlink:href="#DejaVuSans-32"/>
      <use x="657.470703" xlink:href="#DejaVuSans-77"/>
      <use x="743.75" xlink:href="#DejaVuSans-84"/>
      <use x="804.833984" xlink:href="#DejaVuSans-75"/>
      <use x="870.410156" xlink:href="#DejaVuSans-82"/>
     </g>
    </g>
    <g id="patch_19">
     <path d="M 524.880937 212.333594 
L 544.880937 212.333594 
L 544.880937 205.333594 
L 524.880937 205.333594 
z
" style="fill:#ee1111;"/>
    </g>
    <g id="text_25">
     <!-- Exchange To NBOR -->
     <g transform="translate(552.880937 212.333594)scale(0.1 -0.1)">
      <use xlink:href="#DejaVuSans-69"/>
      <use x="63.183594" xlink:href="#DejaVuSans-120"/>
      <use x="120.613281" xlink:href="#DejaVuSans-99"/>
      <use x="175.59375" xlink:href="#DejaVuSans-104"/>
      <use x="238.972656" xlink:href="#DejaVuSans-97"/>
      <use x="300.251953" xlink:href="#DejaVuSans-110"/>
      <use x="363.630859" xlink:href="#DejaVuSans-103"/>
      <use x="427.107422" xlink:href="#DejaVuSans-101"/>
      <use x="488.630859" xlink:href="#DejaVuSans-32"/>
      <use x="520.417969" xlink:href="#DejaVuSans-84"/>
      <use x="564.501953" xlink:href="#DejaVuSans-111"/>
      <use x="625.683594" xlink:href="#DejaVuSans-32"/>
      <use x="657.470703" xlink:href="#DejaVuSans-78"/>
      <use x="732.275391" xlink:href="#DejaVuSans-66"/>
      <use x="799.128906" xlink:href="#DejaVuSans-79"/>
      <use x="877.839844" xlink:href="#DejaVuSans-82"/>
     </g>
    </g>
    <g id="patch_20">
     <path d="M 524.880937 227.011719 
L 544.880937 227.011719 
L 544.880937 220.011719 
L 524.880937 220.011719 
z
" style="fill:#e50eec;"/>
    </g>
    <g id="text_26">
     <!-- Exchange To CSTR -->
     <g transform="translate(552.880937 227.011719)scale(0.1 -0.1)">
      <use xlink:href="#DejaVuSans-69"/>
      <use x="63.183594" xlink:href="#DejaVuSans-120"/>
      <use x="120.613281" xlink:href="#DejaVuSans-99"/>
      <use x="175.59375" xlink:href="#DejaVuSans-104"/>
      <use x="238.972656" xlink:href="#DejaVuSans-97"/>
      <use x="300.251953" xlink:href="#DejaVuSans-110"/>
      <use x="363.630859" xlink:href="#DejaVuSans-103"/>
      <use x="427.107422" xlink:href="#DejaVuSans-101"/>
      <use x="488.630859" xlink:href="#DejaVuSans-32"/>
      <use x="520.417969" xlink:href="#DejaVuSans-84"/>
      <use x="564.501953" xlink:href="#DejaVuSans-111"/>
      <use x="625.683594" xlink:href="#DejaVuSans-32"/>
      <use x="657.470703" xlink:href="#DejaVuSans-67"/>
      <use x="727.294922" xlink:href="#DejaVuSans-83"/>
      <use x="790.771484" xlink:href="#DejaVuSans-84"/>
      <use x="851.855469" xlink:href="#DejaVuSans-82"/>
     </g>
    </g>
   </g>
  </g>
 </g>
 <defs>
  <clipPath id="p8bc33f4051">
   <rect height="332.64" width="446.4" x="52.160938" y="24.597656"/>
  </clipPath>
 </defs>
</svg>
