<?xml version="1.0" encoding="utf-8" standalone="no"?>
<!DOCTYPE svg PUBLIC "-//W3C//DTD SVG 1.1//EN"
  "http://www.w3.org/Graphics/SVG/1.1/DTD/svg11.dtd">
<!-- Created with matplotlib (https://matplotlib.org/) -->
<svg height="589.79625pt" version="1.1" viewBox="0 0 712.98625 589.79625" width="712.98625pt" xmlns="http://www.w3.org/2000/svg" xmlns:xlink="http://www.w3.org/1999/xlink">
 <defs>
  <style type="text/css">
*{stroke-linecap:butt;stroke-linejoin:round;}
  </style>
 </defs>
 <g id="figure_1">
  <g id="patch_1">
   <path d="M 0 589.79625 
L 712.98625 589.79625 
L 712.98625 0 
L 0 0 
z
" style="fill:#ffffff;"/>
  </g>
  <g id="axes_1">
   <g id="patch_2">
    <path d="M 63.50625 565.918125 
L 509.90625 565.918125 
L 509.90625 442.37267 
L 63.50625 442.37267 
z
" style="fill:#ffffff;"/>
   </g>
   <g id="PolyCollection_1">
    <path clip-path="url(#pc1056aac2c)" d="M 63.50625 565.918125 
L 63.50625 565.918125 
L 73.004122 565.918125 
L 82.501995 565.918125 
L 91.999867 565.918125 
L 101.497739 565.918125 
L 110.995612 565.918125 
L 120.493484 565.918125 
L 129.991356 565.918125 
L 139.489229 565.918125 
L 148.987101 565.918125 
L 158.484973 565.918125 
L 167.982846 565.918125 
L 177.480718 565.918125 
L 186.97859 565.918125 
L 196.476463 565.918125 
L 205.974335 565.918125 
L 215.472207 565.918125 
L 224.97008 565.918125 
L 234.467952 565.918125 
L 243.965824 565.918125 
L 253.463697 565.918125 
L 262.961569 565.918125 
L 272.459441 565.918125 
L 281.957314 565.918125 
L 291.455186 565.918125 
L 300.953059 565.918125 
L 310.450931 565.918125 
L 319.948803 565.918125 
L 329.446676 565.918125 
L 338.944548 565.918125 
L 348.44242 565.918125 
L 357.940293 565.918125 
L 367.438165 565.918125 
L 376.936037 565.918125 
L 386.43391 565.918125 
L 395.931782 565.918125 
L 405.429654 565.918125 
L 414.927527 565.918125 
L 424.425399 565.918125 
L 433.923271 565.918125 
L 443.421144 565.918125 
L 452.919016 565.918125 
L 462.416888 565.918125 
L 471.914761 565.918125 
L 481.412633 565.918125 
L 490.910505 565.918125 
L 500.408378 565.918125 
L 509.90625 565.918125 
L 509.90625 565.918125 
L 509.90625 565.918125 
L 500.408378 565.918125 
L 490.910505 453.604075 
L 481.412633 453.604075 
L 471.914761 453.604075 
L 462.416888 453.604075 
L 452.919016 507.626528 
L 443.421144 453.604075 
L 433.923271 549.808423 
L 424.425399 521.90307 
L 414.927527 508.023152 
L 405.429654 487.355055 
L 395.931782 453.604075 
L 386.43391 472.173879 
L 376.936037 453.604075 
L 367.438165 453.604075 
L 357.940293 565.918125 
L 348.44242 565.918125 
L 338.944548 565.918125 
L 329.446676 565.918125 
L 319.948803 565.918125 
L 310.450931 565.918125 
L 300.953059 565.918125 
L 291.455186 565.918125 
L 281.957314 565.918125 
L 272.459441 565.918125 
L 262.961569 453.604075 
L 253.463697 453.604075 
L 243.965824 453.604075 
L 234.467952 471.916812 
L 224.97008 565.918125 
L 215.472207 565.918125 
L 205.974335 565.918125 
L 196.476463 565.918125 
L 186.97859 565.918125 
L 177.480718 565.918125 
L 167.982846 565.918125 
L 158.484973 565.918125 
L 148.987101 565.918125 
L 139.489229 565.918125 
L 129.991356 565.918125 
L 120.493484 565.918125 
L 110.995612 565.918125 
L 101.497739 565.918125 
L 91.999867 565.918125 
L 82.501995 565.918125 
L 73.004122 565.918125 
L 63.50625 565.918125 
z
" style="fill:#592400;fill-opacity:0.6;"/>
   </g>
   <g id="matplotlib.axis_1">
    <g id="xtick_1">
     <g id="line2d_1">
      <defs>
       <path d="M 0 0 
L 0 3.5 
" id="m12ea47c329" style="stroke:#000000;stroke-width:0.8;"/>
      </defs>
      <g>
       <use style="stroke:#000000;stroke-width:0.8;" x="63.50625" xlink:href="#m12ea47c329" y="565.918125"/>
      </g>
     </g>
     <g id="text_1">
      <!-- 06-01 00 -->
      <defs>
       <path d="M 31.78125 66.40625 
Q 24.171875 66.40625 20.328125 58.90625 
Q 16.5 51.421875 16.5 36.375 
Q 16.5 21.390625 20.328125 13.890625 
Q 24.171875 6.390625 31.78125 6.390625 
Q 39.453125 6.390625 43.28125 13.890625 
Q 47.125 21.390625 47.125 36.375 
Q 47.125 51.421875 43.28125 58.90625 
Q 39.453125 66.40625 31.78125 66.40625 
z
M 31.78125 74.21875 
Q 44.046875 74.21875 50.515625 64.515625 
Q 56.984375 54.828125 56.984375 36.375 
Q 56.984375 17.96875 50.515625 8.265625 
Q 44.046875 -1.421875 31.78125 -1.421875 
Q 19.53125 -1.421875 13.0625 8.265625 
Q 6.59375 17.96875 6.59375 36.375 
Q 6.59375 54.828125 13.0625 64.515625 
Q 19.53125 74.21875 31.78125 74.21875 
z
" id="DejaVuSans-48"/>
       <path d="M 33.015625 40.375 
Q 26.375 40.375 22.484375 35.828125 
Q 18.609375 31.296875 18.609375 23.390625 
Q 18.609375 15.53125 22.484375 10.953125 
Q 26.375 6.390625 33.015625 6.390625 
Q 39.65625 6.390625 43.53125 10.953125 
Q 47.40625 15.53125 47.40625 23.390625 
Q 47.40625 31.296875 43.53125 35.828125 
Q 39.65625 40.375 33.015625 40.375 
z
M 52.59375 71.296875 
L 52.59375 62.3125 
Q 48.875 64.0625 45.09375 64.984375 
Q 41.3125 65.921875 37.59375 65.921875 
Q 27.828125 65.921875 22.671875 59.328125 
Q 17.53125 52.734375 16.796875 39.40625 
Q 19.671875 43.65625 24.015625 45.921875 
Q 28.375 48.1875 33.59375 48.1875 
Q 44.578125 48.1875 50.953125 41.515625 
Q 57.328125 34.859375 57.328125 23.390625 
Q 57.328125 12.15625 50.6875 5.359375 
Q 44.046875 -1.421875 33.015625 -1.421875 
Q 20.359375 -1.421875 13.671875 8.265625 
Q 6.984375 17.96875 6.984375 36.375 
Q 6.984375 53.65625 15.1875 63.9375 
Q 23.390625 74.21875 37.203125 74.21875 
Q 40.921875 74.21875 44.703125 73.484375 
Q 48.484375 72.75 52.59375 71.296875 
z
" id="DejaVuSans-54"/>
       <path d="M 4.890625 31.390625 
L 31.203125 31.390625 
L 31.203125 23.390625 
L 4.890625 23.390625 
z
" id="DejaVuSans-45"/>
       <path d="M 12.40625 8.296875 
L 28.515625 8.296875 
L 28.515625 63.921875 
L 10.984375 60.40625 
L 10.984375 69.390625 
L 28.421875 72.90625 
L 38.28125 72.90625 
L 38.28125 8.296875 
L 54.390625 8.296875 
L 54.390625 0 
L 12.40625 0 
z
" id="DejaVuSans-49"/>
       <path id="DejaVuSans-32"/>
      </defs>
      <g transform="translate(41.025781 580.516562)scale(0.1 -0.1)">
       <use xlink:href="#DejaVuSans-48"/>
       <use x="63.623047" xlink:href="#DejaVuSans-54"/>
       <use x="127.246094" xlink:href="#DejaVuSans-45"/>
       <use x="163.330078" xlink:href="#DejaVuSans-48"/>
       <use x="226.953125" xlink:href="#DejaVuSans-49"/>
       <use x="290.576172" xlink:href="#DejaVuSans-32"/>
       <use x="322.363281" xlink:href="#DejaVuSans-48"/>
       <use x="385.986328" xlink:href="#DejaVuSans-48"/>
      </g>
     </g>
    </g>
    <g id="xtick_2">
     <g id="line2d_2">
      <g>
       <use style="stroke:#000000;stroke-width:0.8;" x="120.493484" xlink:href="#m12ea47c329" y="565.918125"/>
      </g>
     </g>
     <g id="text_2">
      <!-- 06-01 06 -->
      <g transform="translate(98.013015 580.516562)scale(0.1 -0.1)">
       <use xlink:href="#DejaVuSans-48"/>
       <use x="63.623047" xlink:href="#DejaVuSans-54"/>
       <use x="127.246094" xlink:href="#DejaVuSans-45"/>
       <use x="163.330078" xlink:href="#DejaVuSans-48"/>
       <use x="226.953125" xlink:href="#DejaVuSans-49"/>
       <use x="290.576172" xlink:href="#DejaVuSans-32"/>
       <use x="322.363281" xlink:href="#DejaVuSans-48"/>
       <use x="385.986328" xlink:href="#DejaVuSans-54"/>
      </g>
     </g>
    </g>
    <g id="xtick_3">
     <g id="line2d_3">
      <g>
       <use style="stroke:#000000;stroke-width:0.8;" x="177.480718" xlink:href="#m12ea47c329" y="565.918125"/>
      </g>
     </g>
     <g id="text_3">
      <!-- 06-01 12 -->
      <defs>
       <path d="M 19.1875 8.296875 
L 53.609375 8.296875 
L 53.609375 0 
L 7.328125 0 
L 7.328125 8.296875 
Q 12.9375 14.109375 22.625 23.890625 
Q 32.328125 33.6875 34.8125 36.53125 
Q 39.546875 41.84375 41.421875 45.53125 
Q 43.3125 49.21875 43.3125 52.78125 
Q 43.3125 58.59375 39.234375 62.25 
Q 35.15625 65.921875 28.609375 65.921875 
Q 23.96875 65.921875 18.8125 64.3125 
Q 13.671875 62.703125 7.8125 59.421875 
L 7.8125 69.390625 
Q 13.765625 71.78125 18.9375 73 
Q 24.125 74.21875 28.421875 74.21875 
Q 39.75 74.21875 46.484375 68.546875 
Q 53.21875 62.890625 53.21875 53.421875 
Q 53.21875 48.921875 51.53125 44.890625 
Q 49.859375 40.875 45.40625 35.40625 
Q 44.1875 33.984375 37.640625 27.21875 
Q 31.109375 20.453125 19.1875 8.296875 
z
" id="DejaVuSans-50"/>
      </defs>
      <g transform="translate(155.000249 580.516562)scale(0.1 -0.1)">
       <use xlink:href="#DejaVuSans-48"/>
       <use x="63.623047" xlink:href="#DejaVuSans-54"/>
       <use x="127.246094" xlink:href="#DejaVuSans-45"/>
       <use x="163.330078" xlink:href="#DejaVuSans-48"/>
       <use x="226.953125" xlink:href="#DejaVuSans-49"/>
       <use x="290.576172" xlink:href="#DejaVuSans-32"/>
       <use x="322.363281" xlink:href="#DejaVuSans-49"/>
       <use x="385.986328" xlink:href="#DejaVuSans-50"/>
      </g>
     </g>
    </g>
    <g id="xtick_4">
     <g id="line2d_4">
      <g>
       <use style="stroke:#000000;stroke-width:0.8;" x="234.467952" xlink:href="#m12ea47c329" y="565.918125"/>
      </g>
     </g>
     <g id="text_4">
      <!-- 06-01 18 -->
      <defs>
       <path d="M 31.78125 34.625 
Q 24.75 34.625 20.71875 30.859375 
Q 16.703125 27.09375 16.703125 20.515625 
Q 16.703125 13.921875 20.71875 10.15625 
Q 24.75 6.390625 31.78125 6.390625 
Q 38.8125 6.390625 42.859375 10.171875 
Q 46.921875 13.96875 46.921875 20.515625 
Q 46.921875 27.09375 42.890625 30.859375 
Q 38.875 34.625 31.78125 34.625 
z
M 21.921875 38.8125 
Q 15.578125 40.375 12.03125 44.71875 
Q 8.5 49.078125 8.5 55.328125 
Q 8.5 64.0625 14.71875 69.140625 
Q 20.953125 74.21875 31.78125 74.21875 
Q 42.671875 74.21875 48.875 69.140625 
Q 55.078125 64.0625 55.078125 55.328125 
Q 55.078125 49.078125 51.53125 44.71875 
Q 48 40.375 41.703125 38.8125 
Q 48.828125 37.15625 52.796875 32.3125 
Q 56.78125 27.484375 56.78125 20.515625 
Q 56.78125 9.90625 50.3125 4.234375 
Q 43.84375 -1.421875 31.78125 -1.421875 
Q 19.734375 -1.421875 13.25 4.234375 
Q 6.78125 9.90625 6.78125 20.515625 
Q 6.78125 27.484375 10.78125 32.3125 
Q 14.796875 37.15625 21.921875 38.8125 
z
M 18.3125 54.390625 
Q 18.3125 48.734375 21.84375 45.5625 
Q 25.390625 42.390625 31.78125 42.390625 
Q 38.140625 42.390625 41.71875 45.5625 
Q 45.3125 48.734375 45.3125 54.390625 
Q 45.3125 60.0625 41.71875 63.234375 
Q 38.140625 66.40625 31.78125 66.40625 
Q 25.390625 66.40625 21.84375 63.234375 
Q 18.3125 60.0625 18.3125 54.390625 
z
" id="DejaVuSans-56"/>
      </defs>
      <g transform="translate(211.987483 580.516562)scale(0.1 -0.1)">
       <use xlink:href="#DejaVuSans-48"/>
       <use x="63.623047" xlink:href="#DejaVuSans-54"/>
       <use x="127.246094" xlink:href="#DejaVuSans-45"/>
       <use x="163.330078" xlink:href="#DejaVuSans-48"/>
       <use x="226.953125" xlink:href="#DejaVuSans-49"/>
       <use x="290.576172" xlink:href="#DejaVuSans-32"/>
       <use x="322.363281" xlink:href="#DejaVuSans-49"/>
       <use x="385.986328" xlink:href="#DejaVuSans-56"/>
      </g>
     </g>
    </g>
    <g id="xtick_5">
     <g id="line2d_5">
      <g>
       <use style="stroke:#000000;stroke-width:0.8;" x="291.455186" xlink:href="#m12ea47c329" y="565.918125"/>
      </g>
     </g>
     <g id="text_5">
      <!-- 06-02 00 -->
      <g transform="translate(268.974717 580.516562)scale(0.1 -0.1)">
       <use xlink:href="#DejaVuSans-48"/>
       <use x="63.623047" xlink:href="#DejaVuSans-54"/>
       <use x="127.246094" xlink:href="#DejaVuSans-45"/>
       <use x="163.330078" xlink:href="#DejaVuSans-48"/>
       <use x="226.953125" xlink:href="#DejaVuSans-50"/>
       <use x="290.576172" xlink:href="#DejaVuSans-32"/>
       <use x="322.363281" xlink:href="#DejaVuSans-48"/>
       <use x="385.986328" xlink:href="#DejaVuSans-48"/>
      </g>
     </g>
    </g>
    <g id="xtick_6">
     <g id="line2d_6">
      <g>
       <use style="stroke:#000000;stroke-width:0.8;" x="348.44242" xlink:href="#m12ea47c329" y="565.918125"/>
      </g>
     </g>
     <g id="text_6">
      <!-- 06-02 06 -->
      <g transform="translate(325.961951 580.516562)scale(0.1 -0.1)">
       <use xlink:href="#DejaVuSans-48"/>
       <use x="63.623047" xlink:href="#DejaVuSans-54"/>
       <use x="127.246094" xlink:href="#DejaVuSans-45"/>
       <use x="163.330078" xlink:href="#DejaVuSans-48"/>
       <use x="226.953125" xlink:href="#DejaVuSans-50"/>
       <use x="290.576172" xlink:href="#DejaVuSans-32"/>
       <use x="322.363281" xlink:href="#DejaVuSans-48"/>
       <use x="385.986328" xlink:href="#DejaVuSans-54"/>
      </g>
     </g>
    </g>
    <g id="xtick_7">
     <g id="line2d_7">
      <g>
       <use style="stroke:#000000;stroke-width:0.8;" x="405.429654" xlink:href="#m12ea47c329" y="565.918125"/>
      </g>
     </g>
     <g id="text_7">
      <!-- 06-02 12 -->
      <g transform="translate(382.949186 580.516562)scale(0.1 -0.1)">
       <use xlink:href="#DejaVuSans-48"/>
       <use x="63.623047" xlink:href="#DejaVuSans-54"/>
       <use x="127.246094" xlink:href="#DejaVuSans-45"/>
       <use x="163.330078" xlink:href="#DejaVuSans-48"/>
       <use x="226.953125" xlink:href="#DejaVuSans-50"/>
       <use x="290.576172" xlink:href="#DejaVuSans-32"/>
       <use x="322.363281" xlink:href="#DejaVuSans-49"/>
       <use x="385.986328" xlink:href="#DejaVuSans-50"/>
      </g>
     </g>
    </g>
    <g id="xtick_8">
     <g id="line2d_8">
      <g>
       <use style="stroke:#000000;stroke-width:0.8;" x="462.416888" xlink:href="#m12ea47c329" y="565.918125"/>
      </g>
     </g>
     <g id="text_8">
      <!-- 06-02 18 -->
      <g transform="translate(439.93642 580.516562)scale(0.1 -0.1)">
       <use xlink:href="#DejaVuSans-48"/>
       <use x="63.623047" xlink:href="#DejaVuSans-54"/>
       <use x="127.246094" xlink:href="#DejaVuSans-45"/>
       <use x="163.330078" xlink:href="#DejaVuSans-48"/>
       <use x="226.953125" xlink:href="#DejaVuSans-50"/>
       <use x="290.576172" xlink:href="#DejaVuSans-32"/>
       <use x="322.363281" xlink:href="#DejaVuSans-49"/>
       <use x="385.986328" xlink:href="#DejaVuSans-56"/>
      </g>
     </g>
    </g>
   </g>
   <g id="matplotlib.axis_2">
    <g id="ytick_1">
     <g id="line2d_9">
      <defs>
       <path d="M 0 0 
L -3.5 0 
" id="m3db041c333" style="stroke:#000000;stroke-width:0.8;"/>
      </defs>
      <g>
       <use style="stroke:#000000;stroke-width:0.8;" x="63.50625" xlink:href="#m3db041c333" y="565.918125"/>
      </g>
     </g>
     <g id="text_9">
      <!-- 0.000 -->
      <defs>
       <path d="M 10.6875 12.40625 
L 21 12.40625 
L 21 0 
L 10.6875 0 
z
" id="DejaVuSans-46"/>
      </defs>
      <g transform="translate(27.878125 569.717344)scale(0.1 -0.1)">
       <use xlink:href="#DejaVuSans-48"/>
       <use x="63.623047" xlink:href="#DejaVuSans-46"/>
       <use x="95.410156" xlink:href="#DejaVuSans-48"/>
       <use x="159.033203" xlink:href="#DejaVuSans-48"/>
       <use x="222.65625" xlink:href="#DejaVuSans-48"/>
      </g>
     </g>
    </g>
    <g id="ytick_2">
     <g id="line2d_10">
      <g>
       <use style="stroke:#000000;stroke-width:0.8;" x="63.50625" xlink:href="#m3db041c333" y="537.839613"/>
      </g>
     </g>
     <g id="text_10">
      <!-- 0.005 -->
      <defs>
       <path d="M 10.796875 72.90625 
L 49.515625 72.90625 
L 49.515625 64.59375 
L 19.828125 64.59375 
L 19.828125 46.734375 
Q 21.96875 47.46875 24.109375 47.828125 
Q 26.265625 48.1875 28.421875 48.1875 
Q 40.625 48.1875 47.75 41.5 
Q 54.890625 34.8125 54.890625 23.390625 
Q 54.890625 11.625 47.5625 5.09375 
Q 40.234375 -1.421875 26.90625 -1.421875 
Q 22.3125 -1.421875 17.546875 -0.640625 
Q 12.796875 0.140625 7.71875 1.703125 
L 7.71875 11.625 
Q 12.109375 9.234375 16.796875 8.0625 
Q 21.484375 6.890625 26.703125 6.890625 
Q 35.15625 6.890625 40.078125 11.328125 
Q 45.015625 15.765625 45.015625 23.390625 
Q 45.015625 31 40.078125 35.4375 
Q 35.15625 39.890625 26.703125 39.890625 
Q 22.75 39.890625 18.8125 39.015625 
Q 14.890625 38.140625 10.796875 36.28125 
z
" id="DejaVuSans-53"/>
      </defs>
      <g transform="translate(27.878125 541.638831)scale(0.1 -0.1)">
       <use xlink:href="#DejaVuSans-48"/>
       <use x="63.623047" xlink:href="#DejaVuSans-46"/>
       <use x="95.410156" xlink:href="#DejaVuSans-48"/>
       <use x="159.033203" xlink:href="#DejaVuSans-48"/>
       <use x="222.65625" xlink:href="#DejaVuSans-53"/>
      </g>
     </g>
    </g>
    <g id="ytick_3">
     <g id="line2d_11">
      <g>
       <use style="stroke:#000000;stroke-width:0.8;" x="63.50625" xlink:href="#m3db041c333" y="509.7611"/>
      </g>
     </g>
     <g id="text_11">
      <!-- 0.010 -->
      <g transform="translate(27.878125 513.560319)scale(0.1 -0.1)">
       <use xlink:href="#DejaVuSans-48"/>
       <use x="63.623047" xlink:href="#DejaVuSans-46"/>
       <use x="95.410156" xlink:href="#DejaVuSans-48"/>
       <use x="159.033203" xlink:href="#DejaVuSans-49"/>
       <use x="222.65625" xlink:href="#DejaVuSans-48"/>
      </g>
     </g>
    </g>
    <g id="ytick_4">
     <g id="line2d_12">
      <g>
       <use style="stroke:#000000;stroke-width:0.8;" x="63.50625" xlink:href="#m3db041c333" y="481.682588"/>
      </g>
     </g>
     <g id="text_12">
      <!-- 0.015 -->
      <g transform="translate(27.878125 485.481807)scale(0.1 -0.1)">
       <use xlink:href="#DejaVuSans-48"/>
       <use x="63.623047" xlink:href="#DejaVuSans-46"/>
       <use x="95.410156" xlink:href="#DejaVuSans-48"/>
       <use x="159.033203" xlink:href="#DejaVuSans-49"/>
       <use x="222.65625" xlink:href="#DejaVuSans-53"/>
      </g>
     </g>
    </g>
    <g id="ytick_5">
     <g id="line2d_13">
      <g>
       <use style="stroke:#000000;stroke-width:0.8;" x="63.50625" xlink:href="#m3db041c333" y="453.604075"/>
      </g>
     </g>
     <g id="text_13">
      <!-- 0.020 -->
      <g transform="translate(27.878125 457.403294)scale(0.1 -0.1)">
       <use xlink:href="#DejaVuSans-48"/>
       <use x="63.623047" xlink:href="#DejaVuSans-46"/>
       <use x="95.410156" xlink:href="#DejaVuSans-48"/>
       <use x="159.033203" xlink:href="#DejaVuSans-50"/>
       <use x="222.65625" xlink:href="#DejaVuSans-48"/>
      </g>
     </g>
    </g>
    <g id="text_14">
     <!-- Power (GW) -->
     <defs>
      <path d="M 19.671875 64.796875 
L 19.671875 37.40625 
L 32.078125 37.40625 
Q 38.96875 37.40625 42.71875 40.96875 
Q 46.484375 44.53125 46.484375 51.125 
Q 46.484375 57.671875 42.71875 61.234375 
Q 38.96875 64.796875 32.078125 64.796875 
z
M 9.8125 72.90625 
L 32.078125 72.90625 
Q 44.34375 72.90625 50.609375 67.359375 
Q 56.890625 61.8125 56.890625 51.125 
Q 56.890625 40.328125 50.609375 34.8125 
Q 44.34375 29.296875 32.078125 29.296875 
L 19.671875 29.296875 
L 19.671875 0 
L 9.8125 0 
z
" id="DejaVuSans-80"/>
      <path d="M 30.609375 48.390625 
Q 23.390625 48.390625 19.1875 42.75 
Q 14.984375 37.109375 14.984375 27.296875 
Q 14.984375 17.484375 19.15625 11.84375 
Q 23.34375 6.203125 30.609375 6.203125 
Q 37.796875 6.203125 41.984375 11.859375 
Q 46.1875 17.53125 46.1875 27.296875 
Q 46.1875 37.015625 41.984375 42.703125 
Q 37.796875 48.390625 30.609375 48.390625 
z
M 30.609375 56 
Q 42.328125 56 49.015625 48.375 
Q 55.71875 40.765625 55.71875 27.296875 
Q 55.71875 13.875 49.015625 6.21875 
Q 42.328125 -1.421875 30.609375 -1.421875 
Q 18.84375 -1.421875 12.171875 6.21875 
Q 5.515625 13.875 5.515625 27.296875 
Q 5.515625 40.765625 12.171875 48.375 
Q 18.84375 56 30.609375 56 
z
" id="DejaVuSans-111"/>
      <path d="M 4.203125 54.6875 
L 13.1875 54.6875 
L 24.421875 12.015625 
L 35.59375 54.6875 
L 46.1875 54.6875 
L 57.421875 12.015625 
L 68.609375 54.6875 
L 77.59375 54.6875 
L 63.28125 0 
L 52.6875 0 
L 40.921875 44.828125 
L 29.109375 0 
L 18.5 0 
z
" id="DejaVuSans-119"/>
      <path d="M 56.203125 29.59375 
L 56.203125 25.203125 
L 14.890625 25.203125 
Q 15.484375 15.921875 20.484375 11.0625 
Q 25.484375 6.203125 34.421875 6.203125 
Q 39.59375 6.203125 44.453125 7.46875 
Q 49.3125 8.734375 54.109375 11.28125 
L 54.109375 2.78125 
Q 49.265625 0.734375 44.1875 -0.34375 
Q 39.109375 -1.421875 33.890625 -1.421875 
Q 20.796875 -1.421875 13.15625 6.1875 
Q 5.515625 13.8125 5.515625 26.8125 
Q 5.515625 40.234375 12.765625 48.109375 
Q 20.015625 56 32.328125 56 
Q 43.359375 56 49.78125 48.890625 
Q 56.203125 41.796875 56.203125 29.59375 
z
M 47.21875 32.234375 
Q 47.125 39.59375 43.09375 43.984375 
Q 39.0625 48.390625 32.421875 48.390625 
Q 24.90625 48.390625 20.390625 44.140625 
Q 15.875 39.890625 15.1875 32.171875 
z
" id="DejaVuSans-101"/>
      <path d="M 41.109375 46.296875 
Q 39.59375 47.171875 37.8125 47.578125 
Q 36.03125 48 33.890625 48 
Q 26.265625 48 22.1875 43.046875 
Q 18.109375 38.09375 18.109375 28.8125 
L 18.109375 0 
L 9.078125 0 
L 9.078125 54.6875 
L 18.109375 54.6875 
L 18.109375 46.1875 
Q 20.953125 51.171875 25.484375 53.578125 
Q 30.03125 56 36.53125 56 
Q 37.453125 56 38.578125 55.875 
Q 39.703125 55.765625 41.0625 55.515625 
z
" id="DejaVuSans-114"/>
      <path d="M 31 75.875 
Q 24.46875 64.65625 21.28125 53.65625 
Q 18.109375 42.671875 18.109375 31.390625 
Q 18.109375 20.125 21.3125 9.0625 
Q 24.515625 -2 31 -13.1875 
L 23.1875 -13.1875 
Q 15.875 -1.703125 12.234375 9.375 
Q 8.59375 20.453125 8.59375 31.390625 
Q 8.59375 42.28125 12.203125 53.3125 
Q 15.828125 64.359375 23.1875 75.875 
z
" id="DejaVuSans-40"/>
      <path d="M 59.515625 10.40625 
L 59.515625 29.984375 
L 43.40625 29.984375 
L 43.40625 38.09375 
L 69.28125 38.09375 
L 69.28125 6.78125 
Q 63.578125 2.734375 56.6875 0.65625 
Q 49.8125 -1.421875 42 -1.421875 
Q 24.90625 -1.421875 15.25 8.5625 
Q 5.609375 18.5625 5.609375 36.375 
Q 5.609375 54.25 15.25 64.234375 
Q 24.90625 74.21875 42 74.21875 
Q 49.125 74.21875 55.546875 72.453125 
Q 61.96875 70.703125 67.390625 67.28125 
L 67.390625 56.78125 
Q 61.921875 61.421875 55.765625 63.765625 
Q 49.609375 66.109375 42.828125 66.109375 
Q 29.4375 66.109375 22.71875 58.640625 
Q 16.015625 51.171875 16.015625 36.375 
Q 16.015625 21.625 22.71875 14.15625 
Q 29.4375 6.6875 42.828125 6.6875 
Q 48.046875 6.6875 52.140625 7.59375 
Q 56.25 8.5 59.515625 10.40625 
z
" id="DejaVuSans-71"/>
      <path d="M 3.328125 72.90625 
L 13.28125 72.90625 
L 28.609375 11.28125 
L 43.890625 72.90625 
L 54.984375 72.90625 
L 70.3125 11.28125 
L 85.59375 72.90625 
L 95.609375 72.90625 
L 77.296875 0 
L 64.890625 0 
L 49.515625 63.28125 
L 33.984375 0 
L 21.578125 0 
z
" id="DejaVuSans-87"/>
      <path d="M 8.015625 75.875 
L 15.828125 75.875 
Q 23.140625 64.359375 26.78125 53.3125 
Q 30.421875 42.28125 30.421875 31.390625 
Q 30.421875 20.453125 26.78125 9.375 
Q 23.140625 -1.703125 15.828125 -13.1875 
L 8.015625 -13.1875 
Q 14.5 -2 17.703125 9.0625 
Q 20.90625 20.125 20.90625 31.390625 
Q 20.90625 42.671875 17.703125 53.65625 
Q 14.5 64.65625 8.015625 75.875 
z
" id="DejaVuSans-41"/>
     </defs>
     <g transform="translate(14.798437 533.568054)rotate(-90)scale(0.1 -0.1)">
      <use xlink:href="#DejaVuSans-80"/>
      <use x="56.677734" xlink:href="#DejaVuSans-111"/>
      <use x="117.859375" xlink:href="#DejaVuSans-119"/>
      <use x="199.646484" xlink:href="#DejaVuSans-101"/>
      <use x="261.169922" xlink:href="#DejaVuSans-114"/>
      <use x="302.283203" xlink:href="#DejaVuSans-32"/>
      <use x="334.070312" xlink:href="#DejaVuSans-40"/>
      <use x="373.083984" xlink:href="#DejaVuSans-71"/>
      <use x="450.574219" xlink:href="#DejaVuSans-87"/>
      <use x="549.451172" xlink:href="#DejaVuSans-41"/>
     </g>
    </g>
   </g>
   <g id="line2d_14">
    <path clip-path="url(#pc1056aac2c)" d="M 63.50625 565.918125 
L 73.004122 565.918125 
L 82.501995 565.918125 
L 91.999867 565.918125 
L 101.497739 565.918125 
L 110.995612 565.918125 
L 120.493484 565.918125 
L 129.991356 565.918125 
L 139.489229 565.918125 
L 148.987101 565.918125 
L 158.484973 565.918125 
L 167.982846 565.918125 
L 177.480718 565.918125 
L 186.97859 565.918125 
L 196.476463 565.918125 
L 205.974335 565.918125 
L 215.472207 565.918125 
L 224.97008 565.918125 
L 234.467952 471.916812 
L 243.965824 453.604075 
L 253.463697 453.604075 
L 262.961569 453.604075 
L 272.459441 565.918125 
L 281.957314 565.918125 
L 291.455186 565.918125 
L 300.953059 565.918125 
L 310.450931 565.918125 
L 319.948803 565.918125 
L 329.446676 565.918125 
L 338.944548 565.918125 
L 348.44242 565.918125 
L 357.940293 565.918125 
L 367.438165 453.604075 
L 376.936037 453.604075 
L 386.43391 472.173879 
L 395.931782 453.604075 
L 405.429654 487.355055 
L 414.927527 508.023152 
L 424.425399 521.90307 
L 433.923271 549.808423 
L 443.421144 453.604075 
L 452.919016 507.626528 
L 462.416888 453.604075 
L 471.914761 453.604075 
L 481.412633 453.604075 
L 490.910505 453.604075 
L 500.408378 565.918125 
L 509.90625 565.918125 
" style="fill:none;stroke:#000000;stroke-linecap:square;stroke-opacity:0.5;stroke-width:1.5;"/>
   </g>
   <g id="patch_3">
    <path d="M 63.50625 565.918125 
L 63.50625 442.37267 
" style="fill:none;stroke:#000000;stroke-linecap:square;stroke-linejoin:miter;stroke-width:0.8;"/>
   </g>
   <g id="patch_4">
    <path d="M 509.90625 565.918125 
L 509.90625 442.37267 
" style="fill:none;stroke:#000000;stroke-linecap:square;stroke-linejoin:miter;stroke-width:0.8;"/>
   </g>
   <g id="patch_5">
    <path d="M 63.50625 565.918125 
L 509.90625 565.918125 
" style="fill:none;stroke:#000000;stroke-linecap:square;stroke-linejoin:miter;stroke-width:0.8;"/>
   </g>
   <g id="patch_6">
    <path d="M 63.50625 442.37267 
L 509.90625 442.37267 
" style="fill:none;stroke:#000000;stroke-linecap:square;stroke-linejoin:miter;stroke-width:0.8;"/>
   </g>
   <g id="legend_1">
    <g id="patch_7">
     <path d="M 594.114375 465.050795 
L 703.78625 465.050795 
Q 705.78625 465.050795 705.78625 463.050795 
L 705.78625 449.37267 
Q 705.78625 447.37267 703.78625 447.37267 
L 594.114375 447.37267 
Q 592.114375 447.37267 592.114375 449.37267 
L 592.114375 463.050795 
Q 592.114375 465.050795 594.114375 465.050795 
z
" style="fill:#ffffff;opacity:0.8;stroke:#cccccc;stroke-linejoin:miter;"/>
    </g>
    <g id="patch_8">
     <path d="M 596.114375 458.971108 
L 616.114375 458.971108 
L 616.114375 451.971108 
L 596.114375 451.971108 
z
" style="fill:#592400;opacity:0.6;"/>
    </g>
    <g id="text_15">
     <!-- Coffee Biomass -->
     <defs>
      <path d="M 64.40625 67.28125 
L 64.40625 56.890625 
Q 59.421875 61.53125 53.78125 63.8125 
Q 48.140625 66.109375 41.796875 66.109375 
Q 29.296875 66.109375 22.65625 58.46875 
Q 16.015625 50.828125 16.015625 36.375 
Q 16.015625 21.96875 22.65625 14.328125 
Q 29.296875 6.6875 41.796875 6.6875 
Q 48.140625 6.6875 53.78125 8.984375 
Q 59.421875 11.28125 64.40625 15.921875 
L 64.40625 5.609375 
Q 59.234375 2.09375 53.4375 0.328125 
Q 47.65625 -1.421875 41.21875 -1.421875 
Q 24.65625 -1.421875 15.125 8.703125 
Q 5.609375 18.84375 5.609375 36.375 
Q 5.609375 53.953125 15.125 64.078125 
Q 24.65625 74.21875 41.21875 74.21875 
Q 47.75 74.21875 53.53125 72.484375 
Q 59.328125 70.75 64.40625 67.28125 
z
" id="DejaVuSans-67"/>
      <path d="M 37.109375 75.984375 
L 37.109375 68.5 
L 28.515625 68.5 
Q 23.6875 68.5 21.796875 66.546875 
Q 19.921875 64.59375 19.921875 59.515625 
L 19.921875 54.6875 
L 34.71875 54.6875 
L 34.71875 47.703125 
L 19.921875 47.703125 
L 19.921875 0 
L 10.890625 0 
L 10.890625 47.703125 
L 2.296875 47.703125 
L 2.296875 54.6875 
L 10.890625 54.6875 
L 10.890625 58.5 
Q 10.890625 67.625 15.140625 71.796875 
Q 19.390625 75.984375 28.609375 75.984375 
z
" id="DejaVuSans-102"/>
      <path d="M 19.671875 34.8125 
L 19.671875 8.109375 
L 35.5 8.109375 
Q 43.453125 8.109375 47.28125 11.40625 
Q 51.125 14.703125 51.125 21.484375 
Q 51.125 28.328125 47.28125 31.5625 
Q 43.453125 34.8125 35.5 34.8125 
z
M 19.671875 64.796875 
L 19.671875 42.828125 
L 34.28125 42.828125 
Q 41.5 42.828125 45.03125 45.53125 
Q 48.578125 48.25 48.578125 53.8125 
Q 48.578125 59.328125 45.03125 62.0625 
Q 41.5 64.796875 34.28125 64.796875 
z
M 9.8125 72.90625 
L 35.015625 72.90625 
Q 46.296875 72.90625 52.390625 68.21875 
Q 58.5 63.53125 58.5 54.890625 
Q 58.5 48.1875 55.375 44.234375 
Q 52.25 40.28125 46.1875 39.3125 
Q 53.46875 37.75 57.5 32.78125 
Q 61.53125 27.828125 61.53125 20.40625 
Q 61.53125 10.640625 54.890625 5.3125 
Q 48.25 0 35.984375 0 
L 9.8125 0 
z
" id="DejaVuSans-66"/>
      <path d="M 9.421875 54.6875 
L 18.40625 54.6875 
L 18.40625 0 
L 9.421875 0 
z
M 9.421875 75.984375 
L 18.40625 75.984375 
L 18.40625 64.59375 
L 9.421875 64.59375 
z
" id="DejaVuSans-105"/>
      <path d="M 52 44.1875 
Q 55.375 50.25 60.0625 53.125 
Q 64.75 56 71.09375 56 
Q 79.640625 56 84.28125 50.015625 
Q 88.921875 44.046875 88.921875 33.015625 
L 88.921875 0 
L 79.890625 0 
L 79.890625 32.71875 
Q 79.890625 40.578125 77.09375 44.375 
Q 74.3125 48.1875 68.609375 48.1875 
Q 61.625 48.1875 57.5625 43.546875 
Q 53.515625 38.921875 53.515625 30.90625 
L 53.515625 0 
L 44.484375 0 
L 44.484375 32.71875 
Q 44.484375 40.625 41.703125 44.40625 
Q 38.921875 48.1875 33.109375 48.1875 
Q 26.21875 48.1875 22.15625 43.53125 
Q 18.109375 38.875 18.109375 30.90625 
L 18.109375 0 
L 9.078125 0 
L 9.078125 54.6875 
L 18.109375 54.6875 
L 18.109375 46.1875 
Q 21.1875 51.21875 25.484375 53.609375 
Q 29.78125 56 35.6875 56 
Q 41.65625 56 45.828125 52.96875 
Q 50 49.953125 52 44.1875 
z
" id="DejaVuSans-109"/>
      <path d="M 34.28125 27.484375 
Q 23.390625 27.484375 19.1875 25 
Q 14.984375 22.515625 14.984375 16.5 
Q 14.984375 11.71875 18.140625 8.90625 
Q 21.296875 6.109375 26.703125 6.109375 
Q 34.1875 6.109375 38.703125 11.40625 
Q 43.21875 16.703125 43.21875 25.484375 
L 43.21875 27.484375 
z
M 52.203125 31.203125 
L 52.203125 0 
L 43.21875 0 
L 43.21875 8.296875 
Q 40.140625 3.328125 35.546875 0.953125 
Q 30.953125 -1.421875 24.3125 -1.421875 
Q 15.921875 -1.421875 10.953125 3.296875 
Q 6 8.015625 6 15.921875 
Q 6 25.140625 12.171875 29.828125 
Q 18.359375 34.515625 30.609375 34.515625 
L 43.21875 34.515625 
L 43.21875 35.40625 
Q 43.21875 41.609375 39.140625 45 
Q 35.0625 48.390625 27.6875 48.390625 
Q 23 48.390625 18.546875 47.265625 
Q 14.109375 46.140625 10.015625 43.890625 
L 10.015625 52.203125 
Q 14.9375 54.109375 19.578125 55.046875 
Q 24.21875 56 28.609375 56 
Q 40.484375 56 46.34375 49.84375 
Q 52.203125 43.703125 52.203125 31.203125 
z
" id="DejaVuSans-97"/>
      <path d="M 44.28125 53.078125 
L 44.28125 44.578125 
Q 40.484375 46.53125 36.375 47.5 
Q 32.28125 48.484375 27.875 48.484375 
Q 21.1875 48.484375 17.84375 46.4375 
Q 14.5 44.390625 14.5 40.28125 
Q 14.5 37.15625 16.890625 35.375 
Q 19.28125 33.59375 26.515625 31.984375 
L 29.59375 31.296875 
Q 39.15625 29.25 43.1875 25.515625 
Q 47.21875 21.78125 47.21875 15.09375 
Q 47.21875 7.46875 41.1875 3.015625 
Q 35.15625 -1.421875 24.609375 -1.421875 
Q 20.21875 -1.421875 15.453125 -0.5625 
Q 10.6875 0.296875 5.421875 2 
L 5.421875 11.28125 
Q 10.40625 8.6875 15.234375 7.390625 
Q 20.0625 6.109375 24.8125 6.109375 
Q 31.15625 6.109375 34.5625 8.28125 
Q 37.984375 10.453125 37.984375 14.40625 
Q 37.984375 18.0625 35.515625 20.015625 
Q 33.0625 21.96875 24.703125 23.78125 
L 21.578125 24.515625 
Q 13.234375 26.265625 9.515625 29.90625 
Q 5.8125 33.546875 5.8125 39.890625 
Q 5.8125 47.609375 11.28125 51.796875 
Q 16.75 56 26.8125 56 
Q 31.78125 56 36.171875 55.265625 
Q 40.578125 54.546875 44.28125 53.078125 
z
" id="DejaVuSans-115"/>
     </defs>
     <g transform="translate(624.114375 458.971108)scale(0.1 -0.1)">
      <use xlink:href="#DejaVuSans-67"/>
      <use x="69.824219" xlink:href="#DejaVuSans-111"/>
      <use x="131.005859" xlink:href="#DejaVuSans-102"/>
      <use x="166.210938" xlink:href="#DejaVuSans-102"/>
      <use x="201.416016" xlink:href="#DejaVuSans-101"/>
      <use x="262.939453" xlink:href="#DejaVuSans-101"/>
      <use x="324.462891" xlink:href="#DejaVuSans-32"/>
      <use x="356.25" xlink:href="#DejaVuSans-66"/>
      <use x="424.853516" xlink:href="#DejaVuSans-105"/>
      <use x="452.636719" xlink:href="#DejaVuSans-111"/>
      <use x="513.818359" xlink:href="#DejaVuSans-109"/>
      <use x="611.230469" xlink:href="#DejaVuSans-97"/>
      <use x="672.509766" xlink:href="#DejaVuSans-115"/>
      <use x="724.609375" xlink:href="#DejaVuSans-115"/>
     </g>
    </g>
   </g>
  </g>
  <g id="axes_2">
   <g id="patch_9">
    <path d="M 63.50625 392.954489 
L 509.90625 392.954489 
L 509.90625 22.318125 
L 63.50625 22.318125 
z
" style="fill:#ffffff;"/>
   </g>
   <g id="PolyCollection_2">
    <path clip-path="url(#pd858827a2d)" d="M 63.50625 221.522197 
L 63.50625 392.954489 
L 73.004122 392.954489 
L 82.501995 392.954489 
L 91.999867 392.954489 
L 101.497739 392.954489 
L 110.995612 392.954489 
L 120.493484 392.954489 
L 129.991356 392.954489 
L 139.489229 392.954489 
L 148.987101 392.954489 
L 158.484973 392.954489 
L 167.982846 392.954489 
L 177.480718 392.954489 
L 186.97859 392.954489 
L 196.476463 392.954489 
L 205.974335 392.954489 
L 215.472207 392.954489 
L 224.97008 392.954489 
L 234.467952 392.954489 
L 243.965824 392.954489 
L 253.463697 392.954489 
L 262.961569 392.954489 
L 272.459441 392.954489 
L 281.957314 392.954489 
L 291.455186 392.954489 
L 300.953059 392.954489 
L 310.450931 392.954489 
L 319.948803 392.954489 
L 329.446676 392.954489 
L 338.944548 392.954489 
L 348.44242 392.954489 
L 357.940293 392.954489 
L 367.438165 392.954489 
L 376.936037 392.954489 
L 386.43391 392.954489 
L 395.931782 392.954489 
L 405.429654 392.954489 
L 414.927527 392.954489 
L 424.425399 392.954489 
L 433.923271 392.954489 
L 443.421144 392.954489 
L 452.919016 392.954489 
L 462.416888 392.954489 
L 471.914761 392.954489 
L 481.412633 392.954489 
L 490.910505 392.954489 
L 500.408378 392.954489 
L 509.90625 392.954489 
L 509.90625 221.522197 
L 509.90625 221.522197 
L 500.408378 221.522197 
L 490.910505 221.522197 
L 481.412633 221.522197 
L 471.914761 221.522197 
L 462.416888 221.522197 
L 452.919016 221.522197 
L 443.421144 221.522197 
L 433.923271 221.522197 
L 424.425399 221.522197 
L 414.927527 221.522197 
L 405.429654 221.522197 
L 395.931782 221.522197 
L 386.43391 221.522197 
L 376.936037 221.522197 
L 367.438165 221.522197 
L 357.940293 221.522197 
L 348.44242 221.522197 
L 338.944548 221.522197 
L 329.446676 221.522197 
L 319.948803 221.522197 
L 310.450931 221.522197 
L 300.953059 221.522197 
L 291.455186 221.522197 
L 281.957314 221.522197 
L 272.459441 221.522197 
L 262.961569 221.522197 
L 253.463697 221.522197 
L 243.965824 221.522197 
L 234.467952 221.522197 
L 224.97008 221.522197 
L 215.472207 221.522197 
L 205.974335 221.522197 
L 196.476463 221.522197 
L 186.97859 221.522197 
L 177.480718 221.522197 
L 167.982846 221.522197 
L 158.484973 221.522197 
L 148.987101 221.522197 
L 139.489229 221.522197 
L 129.991356 221.522197 
L 120.493484 221.522197 
L 110.995612 221.522197 
L 101.497739 221.522197 
L 91.999867 221.522197 
L 82.501995 221.522197 
L 73.004122 221.522197 
L 63.50625 221.522197 
z
" style="fill:#ffb30f;fill-opacity:0.6;"/>
   </g>
   <g id="PolyCollection_3">
    <path clip-path="url(#pd858827a2d)" d="M 63.50625 221.522197 
L 63.50625 193.44343 
L 73.004122 199.469216 
L 82.501995 204.692042 
L 91.999867 208.331433 
L 101.497739 204.861061 
L 110.995612 192.143256 
L 120.493484 174.700802 
L 129.991356 157.833017 
L 139.489229 132.723567 
L 148.987101 126.407884 
L 158.484973 121.51728 
L 167.982846 122.673899 
L 177.480718 125.161414 
L 186.97859 130.685096 
L 196.476463 125.848313 
L 205.974335 136.550738 
L 215.472207 133.577386 
L 224.97008 129.776303 
L 234.467952 102.698191 
L 243.965824 94.835383 
L 253.463697 95.406824 
L 262.961569 104.124046 
L 272.459441 131.217912 
L 281.957314 165.828395 
L 291.455186 192.655738 
L 300.953059 197.788753 
L 310.450931 200.636205 
L 319.948803 200.866305 
L 329.446676 196.803479 
L 338.944548 169.772152 
L 348.44242 131.122504 
L 357.940293 121.522775 
L 367.438165 119.558447 
L 376.936037 111.742343 
L 386.43391 111.687397 
L 395.931782 109.692848 
L 405.429654 113.044569 
L 414.927527 113.030832 
L 424.425399 106.459261 
L 433.923271 105.330116 
L 443.421144 106.780697 
L 452.919016 105.409788 
L 462.416888 100.338249 
L 471.914761 101.60476 
L 481.412633 102.091035 
L 490.910505 104.50867 
L 500.408378 109.665375 
L 509.90625 144.037 
L 509.90625 221.522197 
L 509.90625 221.522197 
L 500.408378 221.522197 
L 490.910505 221.522197 
L 481.412633 221.522197 
L 471.914761 221.522197 
L 462.416888 221.522197 
L 452.919016 221.522197 
L 443.421144 221.522197 
L 433.923271 221.522197 
L 424.425399 221.522197 
L 414.927527 221.522197 
L 405.429654 221.522197 
L 395.931782 221.522197 
L 386.43391 221.522197 
L 376.936037 221.522197 
L 367.438165 221.522197 
L 357.940293 221.522197 
L 348.44242 221.522197 
L 338.944548 221.522197 
L 329.446676 221.522197 
L 319.948803 221.522197 
L 310.450931 221.522197 
L 300.953059 221.522197 
L 291.455186 221.522197 
L 281.957314 221.522197 
L 272.459441 221.522197 
L 262.961569 221.522197 
L 253.463697 221.522197 
L 243.965824 221.522197 
L 234.467952 221.522197 
L 224.97008 221.522197 
L 215.472207 221.522197 
L 205.974335 221.522197 
L 196.476463 221.522197 
L 186.97859 221.522197 
L 177.480718 221.522197 
L 167.982846 221.522197 
L 158.484973 221.522197 
L 148.987101 221.522197 
L 139.489229 221.522197 
L 129.991356 221.522197 
L 120.493484 221.522197 
L 110.995612 221.522197 
L 101.497739 221.522197 
L 91.999867 221.522197 
L 82.501995 221.522197 
L 73.004122 221.522197 
L 63.50625 221.522197 
z
" style="fill:#2980b9;fill-opacity:0.6;"/>
   </g>
   <g id="PolyCollection_4">
    <path clip-path="url(#pd858827a2d)" d="M 63.50625 193.44343 
L 63.50625 191.054928 
L 73.004122 197.081263 
L 82.501995 202.304089 
L 91.999867 205.94403 
L 101.497739 202.473658 
L 110.995612 189.755304 
L 120.493484 172.313399 
L 129.991356 155.445339 
L 139.489229 130.33534 
L 148.987101 124.019107 
L 158.484973 119.128778 
L 167.982846 120.283749 
L 177.480718 122.77044 
L 186.97859 128.293297 
L 196.476463 123.455416 
L 205.974335 134.156192 
L 215.472207 131.182565 
L 224.97008 127.380658 
L 234.467952 100.311062 
L 243.965824 92.448254 
L 253.463697 93.018596 
L 262.961569 101.735269 
L 272.459441 128.828861 
L 281.957314 163.43852 
L 291.455186 190.289363 
L 300.953059 195.450401 
L 310.450931 198.297578 
L 319.948803 198.526579 
L 329.446676 194.463478 
L 338.944548 167.431328 
L 348.44242 128.816295 
L 357.940293 119.217391 
L 367.438165 117.253337 
L 376.936037 109.437508 
L 386.43391 109.382837 
L 395.931782 107.388288 
L 405.429654 110.751273 
L 414.927527 110.737262 
L 424.425399 104.16569 
L 433.923271 103.036545 
L 443.421144 104.487675 
L 452.919016 103.117041 
L 462.416888 97.999623 
L 471.914761 99.266134 
L 481.412633 99.752133 
L 490.910505 102.168944 
L 500.408378 107.325924 
L 509.90625 141.697824 
L 509.90625 144.037 
L 509.90625 144.037 
L 500.408378 109.665375 
L 490.910505 104.50867 
L 481.412633 102.091035 
L 471.914761 101.60476 
L 462.416888 100.338249 
L 452.919016 105.409788 
L 443.421144 106.780697 
L 433.923271 105.330116 
L 424.425399 106.459261 
L 414.927527 113.030832 
L 405.429654 113.044569 
L 395.931782 109.692848 
L 386.43391 111.687397 
L 376.936037 111.742343 
L 367.438165 119.558447 
L 357.940293 121.522775 
L 348.44242 131.122504 
L 338.944548 169.772152 
L 329.446676 196.803479 
L 319.948803 200.866305 
L 310.450931 200.636205 
L 300.953059 197.788753 
L 291.455186 192.655738 
L 281.957314 165.828395 
L 272.459441 131.217912 
L 262.961569 104.124046 
L 253.463697 95.406824 
L 243.965824 94.835383 
L 234.467952 102.698191 
L 224.97008 129.776303 
L 215.472207 133.577386 
L 205.974335 136.550738 
L 196.476463 125.848313 
L 186.97859 130.685096 
L 177.480718 125.161414 
L 167.982846 122.673899 
L 158.484973 121.51728 
L 148.987101 126.407884 
L 139.489229 132.723567 
L 129.991356 157.833017 
L 120.493484 174.700802 
L 110.995612 192.143256 
L 101.497739 204.861061 
L 91.999867 208.331433 
L 82.501995 204.692042 
L 73.004122 199.469216 
L 63.50625 193.44343 
z
" style="fill:#3498db;fill-opacity:0.6;"/>
   </g>
   <g id="PolyCollection_5">
    <path clip-path="url(#pd858827a2d)" d="M 63.50625 191.054928 
L 63.50625 189.825505 
L 73.004122 195.961733 
L 82.501995 201.315057 
L 91.999867 205.202255 
L 101.497739 201.9448 
L 110.995612 189.006661 
L 120.493484 171.496073 
L 129.991356 154.76538 
L 139.489229 129.758405 
L 148.987101 123.545196 
L 158.484973 118.72355 
L 167.982846 119.87852 
L 177.480718 122.33087 
L 186.97859 127.764439 
L 196.476463 122.754851 
L 205.974335 133.105345 
L 215.472207 129.84325 
L 224.97008 126.137499 
L 234.467952 99.370108 
L 243.965824 91.802636 
L 253.463697 92.482871 
L 262.961569 101.17207 
L 272.459441 128.217584 
L 281.957314 162.703614 
L 291.455186 189.410223 
L 300.953059 194.523183 
L 310.450931 197.397833 
L 319.948803 197.668044 
L 329.446676 193.728572 
L 338.944548 166.600266 
L 348.44242 128.095126 
L 357.940293 118.743479 
L 367.438165 116.971738 
L 376.936037 109.265801 
L 386.43391 109.259208 
L 395.931782 107.278395 
L 405.429654 110.627644 
L 414.927527 110.565555 
L 424.425399 103.911564 
L 433.923271 102.500819 
L 443.421144 103.546721 
L 452.919016 102.011248 
L 462.416888 96.941907 
L 471.914761 98.421335 
L 481.412633 99.175198 
L 490.910505 101.859871 
L 500.408378 107.188558 
L 509.90625 141.649746 
L 509.90625 141.697824 
L 509.90625 141.697824 
L 500.408378 107.325924 
L 490.910505 102.168944 
L 481.412633 99.752133 
L 471.914761 99.266134 
L 462.416888 97.999623 
L 452.919016 103.117041 
L 443.421144 104.487675 
L 433.923271 103.036545 
L 424.425399 104.16569 
L 414.927527 110.737262 
L 405.429654 110.751273 
L 395.931782 107.388288 
L 386.43391 109.382837 
L 376.936037 109.437508 
L 367.438165 117.253337 
L 357.940293 119.217391 
L 348.44242 128.816295 
L 338.944548 167.431328 
L 329.446676 194.463478 
L 319.948803 198.526579 
L 310.450931 198.297578 
L 300.953059 195.450401 
L 291.455186 190.289363 
L 281.957314 163.43852 
L 272.459441 128.828861 
L 262.961569 101.735269 
L 253.463697 93.018596 
L 243.965824 92.448254 
L 234.467952 100.311062 
L 224.97008 127.380658 
L 215.472207 131.182565 
L 205.974335 134.156192 
L 196.476463 123.455416 
L 186.97859 128.293297 
L 177.480718 122.77044 
L 167.982846 120.283749 
L 158.484973 119.128778 
L 148.987101 124.019107 
L 139.489229 130.33534 
L 129.991356 155.445339 
L 120.493484 172.313399 
L 110.995612 189.755304 
L 101.497739 202.473658 
L 91.999867 205.94403 
L 82.501995 202.304089 
L 73.004122 197.081263 
L 63.50625 191.054928 
z
" style="fill:#28b463;fill-opacity:0.6;"/>
   </g>
   <g id="PolyCollection_6">
    <path clip-path="url(#pd858827a2d)" d="M 63.50625 189.825505 
L 63.50625 189.825505 
L 73.004122 195.961733 
L 82.501995 201.315057 
L 91.999867 205.202255 
L 101.497739 201.9448 
L 110.995612 189.006661 
L 120.493484 171.496073 
L 129.991356 154.76538 
L 139.489229 129.758405 
L 148.987101 123.545196 
L 158.484973 118.72355 
L 167.982846 119.87852 
L 177.480718 122.33087 
L 186.97859 127.764439 
L 196.476463 122.754851 
L 205.974335 133.105345 
L 215.472207 129.84325 
L 224.97008 126.137499 
L 234.467952 99.370108 
L 243.965824 65.011346 
L 253.463697 69.75018 
L 262.961569 96.624702 
L 272.459441 128.217584 
L 281.957314 162.703614 
L 291.455186 189.410223 
L 300.953059 194.523183 
L 310.450931 197.397833 
L 319.948803 197.668044 
L 329.446676 193.728572 
L 338.944548 166.600266 
L 348.44242 128.095126 
L 357.940293 118.743479 
L 367.438165 110.524618 
L 376.936037 104.457289 
L 386.43391 109.259208 
L 395.931782 105.84377 
L 405.429654 110.627644 
L 414.927527 110.565555 
L 424.425399 103.911564 
L 433.923271 102.500819 
L 443.421144 102.555087 
L 452.919016 102.011248 
L 462.416888 70.267554 
L 471.914761 37.703074 
L 481.412633 48.218685 
L 490.910505 75.025216 
L 500.408378 107.188558 
L 509.90625 141.649746 
L 509.90625 141.649746 
L 509.90625 141.649746 
L 500.408378 107.188558 
L 490.910505 101.859871 
L 481.412633 99.175198 
L 471.914761 98.421335 
L 462.416888 96.941907 
L 452.919016 102.011248 
L 443.421144 103.546721 
L 433.923271 102.500819 
L 424.425399 103.911564 
L 414.927527 110.565555 
L 405.429654 110.627644 
L 395.931782 107.278395 
L 386.43391 109.259208 
L 376.936037 109.265801 
L 367.438165 116.971738 
L 357.940293 118.743479 
L 348.44242 128.095126 
L 338.944548 166.600266 
L 329.446676 193.728572 
L 319.948803 197.668044 
L 310.450931 197.397833 
L 300.953059 194.523183 
L 291.455186 189.410223 
L 281.957314 162.703614 
L 272.459441 128.217584 
L 262.961569 101.17207 
L 253.463697 92.482871 
L 243.965824 91.802636 
L 234.467952 99.370108 
L 224.97008 126.137499 
L 215.472207 129.84325 
L 205.974335 133.105345 
L 196.476463 122.754851 
L 186.97859 127.764439 
L 177.480718 122.33087 
L 167.982846 119.87852 
L 158.484973 118.72355 
L 148.987101 123.545196 
L 139.489229 129.758405 
L 129.991356 154.76538 
L 120.493484 171.496073 
L 110.995612 189.006661 
L 101.497739 201.9448 
L 91.999867 205.202255 
L 82.501995 201.315057 
L 73.004122 195.961733 
L 63.50625 189.825505 
z
" style="fill:#494949;fill-opacity:0.6;"/>
   </g>
   <g id="PolyCollection_7">
    <path clip-path="url(#pd858827a2d)" d="M 63.50625 189.825505 
L 63.50625 189.825505 
L 73.004122 195.961733 
L 82.501995 201.315057 
L 91.999867 205.202255 
L 101.497739 201.9448 
L 110.995612 189.006661 
L 120.493484 171.496073 
L 129.991356 154.76538 
L 139.489229 129.758405 
L 148.987101 123.545196 
L 158.484973 118.72355 
L 167.982846 119.87852 
L 177.480718 122.33087 
L 186.97859 127.764439 
L 196.476463 122.754851 
L 205.974335 133.105345 
L 215.472207 129.84325 
L 224.97008 126.137499 
L 234.467952 99.370108 
L 243.965824 65.011346 
L 253.463697 69.75018 
L 262.961569 96.624702 
L 272.459441 128.217584 
L 281.957314 162.703614 
L 291.455186 189.410223 
L 300.953059 194.523183 
L 310.450931 197.397833 
L 319.948803 197.668044 
L 329.446676 193.728572 
L 338.944548 166.600266 
L 348.44242 128.095126 
L 357.940293 118.743479 
L 367.438165 110.524618 
L 376.936037 104.457289 
L 386.43391 109.259208 
L 395.931782 105.84377 
L 405.429654 110.627644 
L 414.927527 110.565555 
L 424.425399 103.911564 
L 433.923271 102.500819 
L 443.421144 102.555087 
L 452.919016 102.011248 
L 462.416888 70.267554 
L 471.914761 37.703074 
L 481.412633 48.218685 
L 490.910505 75.025216 
L 500.408378 107.188558 
L 509.90625 141.649746 
L 509.90625 141.649746 
L 509.90625 141.649746 
L 500.408378 107.188558 
L 490.910505 75.025216 
L 481.412633 48.218685 
L 471.914761 37.703074 
L 462.416888 70.267554 
L 452.919016 102.011248 
L 443.421144 102.555087 
L 433.923271 102.500819 
L 424.425399 103.911564 
L 414.927527 110.565555 
L 405.429654 110.627644 
L 395.931782 105.84377 
L 386.43391 109.259208 
L 376.936037 104.457289 
L 367.438165 110.524618 
L 357.940293 118.743479 
L 348.44242 128.095126 
L 338.944548 166.600266 
L 329.446676 193.728572 
L 319.948803 197.668044 
L 310.450931 197.397833 
L 300.953059 194.523183 
L 291.455186 189.410223 
L 281.957314 162.703614 
L 272.459441 128.217584 
L 262.961569 96.624702 
L 253.463697 69.75018 
L 243.965824 65.011346 
L 234.467952 99.370108 
L 224.97008 126.137499 
L 215.472207 129.84325 
L 205.974335 133.105345 
L 196.476463 122.754851 
L 186.97859 127.764439 
L 177.480718 122.33087 
L 167.982846 119.87852 
L 158.484973 118.72355 
L 148.987101 123.545196 
L 139.489229 129.758405 
L 129.991356 154.76538 
L 120.493484 171.496073 
L 110.995612 189.006661 
L 101.497739 201.9448 
L 91.999867 205.202255 
L 82.501995 201.315057 
L 73.004122 195.961733 
L 63.50625 189.825505 
z
" style="fill:#7c7c7c;fill-opacity:0.6;"/>
   </g>
   <g id="PolyCollection_8">
    <path clip-path="url(#pd858827a2d)" d="M 63.50625 189.825505 
L 63.50625 189.825505 
L 73.004122 195.961733 
L 82.501995 201.315057 
L 91.999867 205.202255 
L 101.497739 201.9448 
L 110.995612 189.006661 
L 120.493484 171.496073 
L 129.991356 154.76538 
L 139.489229 129.365066 
L 148.987101 123.545196 
L 158.484973 116.964168 
L 167.982846 117.967769 
L 177.480718 122.33087 
L 186.97859 127.764439 
L 196.476463 122.754851 
L 205.974335 133.105345 
L 215.472207 129.84325 
L 224.97008 126.137499 
L 234.467952 89.479783 
L 243.965824 55.121021 
L 253.463697 59.859856 
L 262.961569 86.734377 
L 272.459441 128.217584 
L 281.957314 162.703614 
L 291.455186 189.410223 
L 300.953059 194.523183 
L 310.450931 197.397833 
L 319.948803 197.668044 
L 329.446676 193.728572 
L 338.944548 166.600266 
L 348.44242 128.095126 
L 357.940293 116.690387 
L 367.438165 100.634294 
L 376.936037 94.566964 
L 386.43391 99.368883 
L 395.931782 95.953446 
L 405.429654 100.737319 
L 414.927527 100.67523 
L 424.425399 94.02124 
L 433.923271 92.610495 
L 443.421144 92.664762 
L 452.919016 92.120924 
L 462.416888 60.37723 
L 471.914761 27.81275 
L 481.412633 38.328361 
L 490.910505 65.134892 
L 500.408378 100.49298 
L 509.90625 139.346391 
L 509.90625 141.649746 
L 509.90625 141.649746 
L 500.408378 107.188558 
L 490.910505 75.025216 
L 481.412633 48.218685 
L 471.914761 37.703074 
L 462.416888 70.267554 
L 452.919016 102.011248 
L 443.421144 102.555087 
L 433.923271 102.500819 
L 424.425399 103.911564 
L 414.927527 110.565555 
L 405.429654 110.627644 
L 395.931782 105.84377 
L 386.43391 109.259208 
L 376.936037 104.457289 
L 367.438165 110.524618 
L 357.940293 118.743479 
L 348.44242 128.095126 
L 338.944548 166.600266 
L 329.446676 193.728572 
L 319.948803 197.668044 
L 310.450931 197.397833 
L 300.953059 194.523183 
L 291.455186 189.410223 
L 281.957314 162.703614 
L 272.459441 128.217584 
L 262.961569 96.624702 
L 253.463697 69.75018 
L 243.965824 65.011346 
L 234.467952 99.370108 
L 224.97008 126.137499 
L 215.472207 129.84325 
L 205.974335 133.105345 
L 196.476463 122.754851 
L 186.97859 127.764439 
L 177.480718 122.33087 
L 167.982846 119.87852 
L 158.484973 118.72355 
L 148.987101 123.545196 
L 139.489229 129.758405 
L 129.991356 154.76538 
L 120.493484 171.496073 
L 110.995612 189.006661 
L 101.497739 201.9448 
L 91.999867 205.202255 
L 82.501995 201.315057 
L 73.004122 195.961733 
L 63.50625 189.825505 
z
" style="fill:#ba4a00;fill-opacity:0.6;"/>
   </g>
   <g id="PolyCollection_9">
    <path clip-path="url(#pd858827a2d)" d="M 63.50625 189.825505 
L 63.50625 189.825505 
L 73.004122 195.961733 
L 82.501995 201.315057 
L 91.999867 205.202255 
L 101.497739 201.9448 
L 110.995612 189.006661 
L 120.493484 171.496073 
L 129.991356 154.76538 
L 139.489229 129.365066 
L 148.987101 123.545196 
L 158.484973 116.964168 
L 167.982846 117.967769 
L 177.480718 122.33087 
L 186.97859 127.764439 
L 196.476463 122.754851 
L 205.974335 133.105345 
L 215.472207 129.84325 
L 224.97008 126.137499 
L 234.467952 84.881054 
L 243.965824 49.626397 
L 253.463697 54.365231 
L 262.961569 81.239752 
L 272.459441 128.217584 
L 281.957314 162.703614 
L 291.455186 189.410223 
L 300.953059 194.523183 
L 310.450931 197.397833 
L 319.948803 197.668044 
L 329.446676 193.728572 
L 338.944548 166.600266 
L 348.44242 128.095126 
L 357.940293 116.690387 
L 367.438165 95.139669 
L 376.936037 89.072339 
L 386.43391 94.78273 
L 395.931782 90.458821 
L 405.429654 96.893859 
L 414.927527 97.842894 
L 424.425399 91.867936 
L 433.923271 91.822376 
L 443.421144 87.170138 
L 452.919016 89.269184 
L 462.416888 54.882605 
L 471.914761 22.318125 
L 481.412633 32.833736 
L 490.910505 59.640267 
L 500.408378 100.49298 
L 509.90625 139.346391 
L 509.90625 139.346391 
L 509.90625 139.346391 
L 500.408378 100.49298 
L 490.910505 65.134892 
L 481.412633 38.328361 
L 471.914761 27.81275 
L 462.416888 60.37723 
L 452.919016 92.120924 
L 443.421144 92.664762 
L 433.923271 92.610495 
L 424.425399 94.02124 
L 414.927527 100.67523 
L 405.429654 100.737319 
L 395.931782 95.953446 
L 386.43391 99.368883 
L 376.936037 94.566964 
L 367.438165 100.634294 
L 357.940293 116.690387 
L 348.44242 128.095126 
L 338.944548 166.600266 
L 329.446676 193.728572 
L 319.948803 197.668044 
L 310.450931 197.397833 
L 300.953059 194.523183 
L 291.455186 189.410223 
L 281.957314 162.703614 
L 272.459441 128.217584 
L 262.961569 86.734377 
L 253.463697 59.859856 
L 243.965824 55.121021 
L 234.467952 89.479783 
L 224.97008 126.137499 
L 215.472207 129.84325 
L 205.974335 133.105345 
L 196.476463 122.754851 
L 186.97859 127.764439 
L 177.480718 122.33087 
L 167.982846 117.967769 
L 158.484973 116.964168 
L 148.987101 123.545196 
L 139.489229 129.365066 
L 129.991356 154.76538 
L 120.493484 171.496073 
L 110.995612 189.006661 
L 101.497739 201.9448 
L 91.999867 205.202255 
L 82.501995 201.315057 
L 73.004122 195.961733 
L 63.50625 189.825505 
z
" style="fill:#592400;fill-opacity:0.6;"/>
   </g>
   <g id="matplotlib.axis_3">
    <g id="xtick_9">
     <g id="line2d_15">
      <g>
       <use style="stroke:#000000;stroke-width:0.8;" x="63.50625" xlink:href="#m12ea47c329" y="392.954489"/>
      </g>
     </g>
    </g>
    <g id="xtick_10">
     <g id="line2d_16">
      <g>
       <use style="stroke:#000000;stroke-width:0.8;" x="120.493484" xlink:href="#m12ea47c329" y="392.954489"/>
      </g>
     </g>
    </g>
    <g id="xtick_11">
     <g id="line2d_17">
      <g>
       <use style="stroke:#000000;stroke-width:0.8;" x="177.480718" xlink:href="#m12ea47c329" y="392.954489"/>
      </g>
     </g>
    </g>
    <g id="xtick_12">
     <g id="line2d_18">
      <g>
       <use style="stroke:#000000;stroke-width:0.8;" x="234.467952" xlink:href="#m12ea47c329" y="392.954489"/>
      </g>
     </g>
    </g>
    <g id="xtick_13">
     <g id="line2d_19">
      <g>
       <use style="stroke:#000000;stroke-width:0.8;" x="291.455186" xlink:href="#m12ea47c329" y="392.954489"/>
      </g>
     </g>
    </g>
    <g id="xtick_14">
     <g id="line2d_20">
      <g>
       <use style="stroke:#000000;stroke-width:0.8;" x="348.44242" xlink:href="#m12ea47c329" y="392.954489"/>
      </g>
     </g>
    </g>
    <g id="xtick_15">
     <g id="line2d_21">
      <g>
       <use style="stroke:#000000;stroke-width:0.8;" x="405.429654" xlink:href="#m12ea47c329" y="392.954489"/>
      </g>
     </g>
    </g>
    <g id="xtick_16">
     <g id="line2d_22">
      <g>
       <use style="stroke:#000000;stroke-width:0.8;" x="462.416888" xlink:href="#m12ea47c329" y="392.954489"/>
      </g>
     </g>
    </g>
   </g>
   <g id="matplotlib.axis_4">
    <g id="ytick_6">
     <g id="line2d_23">
      <g>
       <use style="stroke:#000000;stroke-width:0.8;" x="63.50625" xlink:href="#m3db041c333" y="392.954489"/>
      </g>
     </g>
     <g id="text_16">
      <!-- 0.0 -->
      <g transform="translate(40.603125 396.753707)scale(0.1 -0.1)">
       <use xlink:href="#DejaVuSans-48"/>
       <use x="63.623047" xlink:href="#DejaVuSans-46"/>
       <use x="95.410156" xlink:href="#DejaVuSans-48"/>
      </g>
     </g>
    </g>
    <g id="ytick_7">
     <g id="line2d_24">
      <g>
       <use style="stroke:#000000;stroke-width:0.8;" x="63.50625" xlink:href="#m3db041c333" y="338.008241"/>
      </g>
     </g>
     <g id="text_17">
      <!-- 0.2 -->
      <g transform="translate(40.603125 341.80746)scale(0.1 -0.1)">
       <use xlink:href="#DejaVuSans-48"/>
       <use x="63.623047" xlink:href="#DejaVuSans-46"/>
       <use x="95.410156" xlink:href="#DejaVuSans-50"/>
      </g>
     </g>
    </g>
    <g id="ytick_8">
     <g id="line2d_25">
      <g>
       <use style="stroke:#000000;stroke-width:0.8;" x="63.50625" xlink:href="#m3db041c333" y="283.061994"/>
      </g>
     </g>
     <g id="text_18">
      <!-- 0.4 -->
      <defs>
       <path d="M 37.796875 64.3125 
L 12.890625 25.390625 
L 37.796875 25.390625 
z
M 35.203125 72.90625 
L 47.609375 72.90625 
L 47.609375 25.390625 
L 58.015625 25.390625 
L 58.015625 17.1875 
L 47.609375 17.1875 
L 47.609375 0 
L 37.796875 0 
L 37.796875 17.1875 
L 4.890625 17.1875 
L 4.890625 26.703125 
z
" id="DejaVuSans-52"/>
      </defs>
      <g transform="translate(40.603125 286.861213)scale(0.1 -0.1)">
       <use xlink:href="#DejaVuSans-48"/>
       <use x="63.623047" xlink:href="#DejaVuSans-46"/>
       <use x="95.410156" xlink:href="#DejaVuSans-52"/>
      </g>
     </g>
    </g>
    <g id="ytick_9">
     <g id="line2d_26">
      <g>
       <use style="stroke:#000000;stroke-width:0.8;" x="63.50625" xlink:href="#m3db041c333" y="228.115747"/>
      </g>
     </g>
     <g id="text_19">
      <!-- 0.6 -->
      <g transform="translate(40.603125 231.914966)scale(0.1 -0.1)">
       <use xlink:href="#DejaVuSans-48"/>
       <use x="63.623047" xlink:href="#DejaVuSans-46"/>
       <use x="95.410156" xlink:href="#DejaVuSans-54"/>
      </g>
     </g>
    </g>
    <g id="ytick_10">
     <g id="line2d_27">
      <g>
       <use style="stroke:#000000;stroke-width:0.8;" x="63.50625" xlink:href="#m3db041c333" y="173.1695"/>
      </g>
     </g>
     <g id="text_20">
      <!-- 0.8 -->
      <g transform="translate(40.603125 176.968719)scale(0.1 -0.1)">
       <use xlink:href="#DejaVuSans-48"/>
       <use x="63.623047" xlink:href="#DejaVuSans-46"/>
       <use x="95.410156" xlink:href="#DejaVuSans-56"/>
      </g>
     </g>
    </g>
    <g id="ytick_11">
     <g id="line2d_28">
      <g>
       <use style="stroke:#000000;stroke-width:0.8;" x="63.50625" xlink:href="#m3db041c333" y="118.223253"/>
      </g>
     </g>
     <g id="text_21">
      <!-- 1.0 -->
      <g transform="translate(40.603125 122.022472)scale(0.1 -0.1)">
       <use xlink:href="#DejaVuSans-49"/>
       <use x="63.623047" xlink:href="#DejaVuSans-46"/>
       <use x="95.410156" xlink:href="#DejaVuSans-48"/>
      </g>
     </g>
    </g>
    <g id="ytick_12">
     <g id="line2d_29">
      <g>
       <use style="stroke:#000000;stroke-width:0.8;" x="63.50625" xlink:href="#m3db041c333" y="63.277006"/>
      </g>
     </g>
     <g id="text_22">
      <!-- 1.2 -->
      <g transform="translate(40.603125 67.076224)scale(0.1 -0.1)">
       <use xlink:href="#DejaVuSans-49"/>
       <use x="63.623047" xlink:href="#DejaVuSans-46"/>
       <use x="95.410156" xlink:href="#DejaVuSans-50"/>
      </g>
     </g>
    </g>
    <g id="text_23">
     <!-- Power (GW) -->
     <g transform="translate(27.523437 237.058963)rotate(-90)scale(0.1 -0.1)">
      <use xlink:href="#DejaVuSans-80"/>
      <use x="56.677734" xlink:href="#DejaVuSans-111"/>
      <use x="117.859375" xlink:href="#DejaVuSans-119"/>
      <use x="199.646484" xlink:href="#DejaVuSans-101"/>
      <use x="261.169922" xlink:href="#DejaVuSans-114"/>
      <use x="302.283203" xlink:href="#DejaVuSans-32"/>
      <use x="334.070312" xlink:href="#DejaVuSans-40"/>
      <use x="373.083984" xlink:href="#DejaVuSans-71"/>
      <use x="450.574219" xlink:href="#DejaVuSans-87"/>
      <use x="549.451172" xlink:href="#DejaVuSans-41"/>
     </g>
    </g>
   </g>
   <g id="line2d_30">
    <path clip-path="url(#pd858827a2d)" d="M 63.50625 190.528336 
L 73.004122 196.664458 
L 82.501995 202.030234 
L 91.999867 205.918505 
L 101.497739 202.630247 
L 110.995612 189.750297 
L 120.493484 172.293325 
L 129.991356 155.530598 
L 139.489229 129.971253 
L 148.987101 124.549157 
L 158.484973 117.620161 
L 167.982846 118.629935 
L 177.480718 123.311218 
L 186.97859 128.69595 
L 196.476463 123.711501 
L 205.974335 133.985626 
L 215.472207 130.723192 
L 224.97008 127.051409 
L 234.467952 85.520013 
L 243.965824 50.168972 
L 253.463697 54.919899 
L 262.961569 81.857297 
L 272.459441 129.192115 
L 281.957314 163.529673 
L 291.455186 190.069111 
L 300.953059 195.176914 
L 310.450931 198.036317 
L 319.948803 198.31984 
L 329.446676 194.367007 
L 338.944548 167.377135 
L 348.44242 129.054738 
L 357.940293 117.34528 
L 367.438165 95.765691 
L 376.936037 89.734517 
L 386.43391 95.46019 
L 395.931782 91.131525 
L 405.429654 97.547323 
L 414.927527 98.514652 
L 424.425399 92.543094 
L 433.923271 92.505181 
L 443.421144 87.83942 
L 452.919016 89.92518 
L 462.416888 55.4313 
L 471.914761 22.80724 
L 481.412633 33.332469 
L 490.910505 60.190744 
L 500.408378 101.132566 
L 509.90625 139.95676 
" style="fill:none;stroke:#000000;stroke-linecap:square;stroke-opacity:0.5;stroke-width:1.5;"/>
   </g>
   <g id="line2d_31">
    <path clip-path="url(#pd858827a2d)" d="M 63.50625 221.522197 
L 73.004122 221.522197 
L 82.501995 221.522197 
L 91.999867 221.522197 
L 101.497739 221.522197 
L 110.995612 221.522197 
L 120.493484 221.522197 
L 129.991356 221.522197 
L 139.489229 221.522197 
L 148.987101 221.522197 
L 158.484973 221.522197 
L 167.982846 221.522197 
L 177.480718 221.522197 
L 186.97859 221.522197 
L 196.476463 221.522197 
L 205.974335 221.522197 
L 215.472207 221.522197 
L 224.97008 221.522197 
L 234.467952 221.522197 
L 243.965824 221.522197 
L 253.463697 221.522197 
L 262.961569 221.522197 
L 272.459441 221.522197 
L 281.957314 221.522197 
L 291.455186 221.522197 
L 300.953059 221.522197 
L 310.450931 221.522197 
L 319.948803 221.522197 
L 329.446676 221.522197 
L 338.944548 221.522197 
L 348.44242 221.522197 
L 357.940293 221.522197 
L 367.438165 221.522197 
L 376.936037 221.522197 
L 386.43391 221.522197 
L 395.931782 221.522197 
L 405.429654 221.522197 
L 414.927527 221.522197 
L 424.425399 221.522197 
L 433.923271 221.522197 
L 443.421144 221.522197 
L 452.919016 221.522197 
L 462.416888 221.522197 
L 471.914761 221.522197 
L 481.412633 221.522197 
L 490.910505 221.522197 
L 500.408378 221.522197 
L 509.90625 221.522197 
" style="fill:none;stroke:#ffb30f;stroke-linecap:square;stroke-opacity:0.2;stroke-width:1.5;"/>
   </g>
   <g id="line2d_32">
    <path clip-path="url(#pd858827a2d)" d="M 63.50625 193.44343 
L 73.004122 199.469216 
L 82.501995 204.692042 
L 91.999867 208.331433 
L 101.497739 204.861061 
L 110.995612 192.143256 
L 120.493484 174.700802 
L 129.991356 157.833017 
L 139.489229 132.723567 
L 148.987101 126.407884 
L 158.484973 121.51728 
L 167.982846 122.673899 
L 177.480718 125.161414 
L 186.97859 130.685096 
L 196.476463 125.848313 
L 205.974335 136.550738 
L 215.472207 133.577386 
L 224.97008 129.776303 
L 234.467952 102.698191 
L 243.965824 94.835383 
L 253.463697 95.406824 
L 262.961569 104.124046 
L 272.459441 131.217912 
L 281.957314 165.828395 
L 291.455186 192.655738 
L 300.953059 197.788753 
L 310.450931 200.636205 
L 319.948803 200.866305 
L 329.446676 196.803479 
L 338.944548 169.772152 
L 348.44242 131.122504 
L 357.940293 121.522775 
L 367.438165 119.558447 
L 376.936037 111.742343 
L 386.43391 111.687397 
L 395.931782 109.692848 
L 405.429654 113.044569 
L 414.927527 113.030832 
L 424.425399 106.459261 
L 433.923271 105.330116 
L 443.421144 106.780697 
L 452.919016 105.409788 
L 462.416888 100.338249 
L 471.914761 101.60476 
L 481.412633 102.091035 
L 490.910505 104.50867 
L 500.408378 109.665375 
L 509.90625 144.037 
" style="fill:none;stroke:#2980b9;stroke-linecap:square;stroke-opacity:0.2;stroke-width:1.5;"/>
   </g>
   <g id="line2d_33">
    <path clip-path="url(#pd858827a2d)" d="M 63.50625 191.054928 
L 73.004122 197.081263 
L 82.501995 202.304089 
L 91.999867 205.94403 
L 101.497739 202.473658 
L 110.995612 189.755304 
L 120.493484 172.313399 
L 129.991356 155.445339 
L 139.489229 130.33534 
L 148.987101 124.019107 
L 158.484973 119.128778 
L 167.982846 120.283749 
L 177.480718 122.77044 
L 186.97859 128.293297 
L 196.476463 123.455416 
L 205.974335 134.156192 
L 215.472207 131.182565 
L 224.97008 127.380658 
L 234.467952 100.311062 
L 243.965824 92.448254 
L 253.463697 93.018596 
L 262.961569 101.735269 
L 272.459441 128.828861 
L 281.957314 163.43852 
L 291.455186 190.289363 
L 300.953059 195.450401 
L 310.450931 198.297578 
L 319.948803 198.526579 
L 329.446676 194.463478 
L 338.944548 167.431328 
L 348.44242 128.816295 
L 357.940293 119.217391 
L 367.438165 117.253337 
L 376.936037 109.437508 
L 386.43391 109.382837 
L 395.931782 107.388288 
L 405.429654 110.751273 
L 414.927527 110.737262 
L 424.425399 104.16569 
L 433.923271 103.036545 
L 443.421144 104.487675 
L 452.919016 103.117041 
L 462.416888 97.999623 
L 471.914761 99.266134 
L 481.412633 99.752133 
L 490.910505 102.168944 
L 500.408378 107.325924 
L 509.90625 141.697824 
" style="fill:none;stroke:#3498db;stroke-linecap:square;stroke-opacity:0.2;stroke-width:1.5;"/>
   </g>
   <g id="line2d_34">
    <path clip-path="url(#pd858827a2d)" d="M 63.50625 189.825505 
L 73.004122 195.961733 
L 82.501995 201.315057 
L 91.999867 205.202255 
L 101.497739 201.9448 
L 110.995612 189.006661 
L 120.493484 171.496073 
L 129.991356 154.76538 
L 139.489229 129.758405 
L 148.987101 123.545196 
L 158.484973 118.72355 
L 167.982846 119.87852 
L 177.480718 122.33087 
L 186.97859 127.764439 
L 196.476463 122.754851 
L 205.974335 133.105345 
L 215.472207 129.84325 
L 224.97008 126.137499 
L 234.467952 99.370108 
L 243.965824 91.802636 
L 253.463697 92.482871 
L 262.961569 101.17207 
L 272.459441 128.217584 
L 281.957314 162.703614 
L 291.455186 189.410223 
L 300.953059 194.523183 
L 310.450931 197.397833 
L 319.948803 197.668044 
L 329.446676 193.728572 
L 338.944548 166.600266 
L 348.44242 128.095126 
L 357.940293 118.743479 
L 367.438165 116.971738 
L 376.936037 109.265801 
L 386.43391 109.259208 
L 395.931782 107.278395 
L 405.429654 110.627644 
L 414.927527 110.565555 
L 424.425399 103.911564 
L 433.923271 102.500819 
L 443.421144 103.546721 
L 452.919016 102.011248 
L 462.416888 96.941907 
L 471.914761 98.421335 
L 481.412633 99.175198 
L 490.910505 101.859871 
L 500.408378 107.188558 
L 509.90625 141.649746 
" style="fill:none;stroke:#28b463;stroke-linecap:square;stroke-opacity:0.2;stroke-width:1.5;"/>
   </g>
   <g id="line2d_35">
    <path clip-path="url(#pd858827a2d)" d="M 63.50625 189.825505 
L 73.004122 195.961733 
L 82.501995 201.315057 
L 91.999867 205.202255 
L 101.497739 201.9448 
L 110.995612 189.006661 
L 120.493484 171.496073 
L 129.991356 154.76538 
L 139.489229 129.758405 
L 148.987101 123.545196 
L 158.484973 118.72355 
L 167.982846 119.87852 
L 177.480718 122.33087 
L 186.97859 127.764439 
L 196.476463 122.754851 
L 205.974335 133.105345 
L 215.472207 129.84325 
L 224.97008 126.137499 
L 234.467952 99.370108 
L 243.965824 65.011346 
L 253.463697 69.75018 
L 262.961569 96.624702 
L 272.459441 128.217584 
L 281.957314 162.703614 
L 291.455186 189.410223 
L 300.953059 194.523183 
L 310.450931 197.397833 
L 319.948803 197.668044 
L 329.446676 193.728572 
L 338.944548 166.600266 
L 348.44242 128.095126 
L 357.940293 118.743479 
L 367.438165 110.524618 
L 376.936037 104.457289 
L 386.43391 109.259208 
L 395.931782 105.84377 
L 405.429654 110.627644 
L 414.927527 110.565555 
L 424.425399 103.911564 
L 433.923271 102.500819 
L 443.421144 102.555087 
L 452.919016 102.011248 
L 462.416888 70.267554 
L 471.914761 37.703074 
L 481.412633 48.218685 
L 490.910505 75.025216 
L 500.408378 107.188558 
L 509.90625 141.649746 
" style="fill:none;stroke:#494949;stroke-linecap:square;stroke-opacity:0.2;stroke-width:1.5;"/>
   </g>
   <g id="line2d_36">
    <path clip-path="url(#pd858827a2d)" d="M 63.50625 189.825505 
L 73.004122 195.961733 
L 82.501995 201.315057 
L 91.999867 205.202255 
L 101.497739 201.9448 
L 110.995612 189.006661 
L 120.493484 171.496073 
L 129.991356 154.76538 
L 139.489229 129.758405 
L 148.987101 123.545196 
L 158.484973 118.72355 
L 167.982846 119.87852 
L 177.480718 122.33087 
L 186.97859 127.764439 
L 196.476463 122.754851 
L 205.974335 133.105345 
L 215.472207 129.84325 
L 224.97008 126.137499 
L 234.467952 99.370108 
L 243.965824 65.011346 
L 253.463697 69.75018 
L 262.961569 96.624702 
L 272.459441 128.217584 
L 281.957314 162.703614 
L 291.455186 189.410223 
L 300.953059 194.523183 
L 310.450931 197.397833 
L 319.948803 197.668044 
L 329.446676 193.728572 
L 338.944548 166.600266 
L 348.44242 128.095126 
L 357.940293 118.743479 
L 367.438165 110.524618 
L 376.936037 104.457289 
L 386.43391 109.259208 
L 395.931782 105.84377 
L 405.429654 110.627644 
L 414.927527 110.565555 
L 424.425399 103.911564 
L 433.923271 102.500819 
L 443.421144 102.555087 
L 452.919016 102.011248 
L 462.416888 70.267554 
L 471.914761 37.703074 
L 481.412633 48.218685 
L 490.910505 75.025216 
L 500.408378 107.188558 
L 509.90625 141.649746 
" style="fill:none;stroke:#7c7c7c;stroke-linecap:square;stroke-opacity:0.2;stroke-width:1.5;"/>
   </g>
   <g id="line2d_37">
    <path clip-path="url(#pd858827a2d)" d="M 63.50625 189.825505 
L 73.004122 195.961733 
L 82.501995 201.315057 
L 91.999867 205.202255 
L 101.497739 201.9448 
L 110.995612 189.006661 
L 120.493484 171.496073 
L 129.991356 154.76538 
L 139.489229 129.365066 
L 148.987101 123.545196 
L 158.484973 116.964168 
L 167.982846 117.967769 
L 177.480718 122.33087 
L 186.97859 127.764439 
L 196.476463 122.754851 
L 205.974335 133.105345 
L 215.472207 129.84325 
L 224.97008 126.137499 
L 234.467952 89.479783 
L 243.965824 55.121021 
L 253.463697 59.859856 
L 262.961569 86.734377 
L 272.459441 128.217584 
L 281.957314 162.703614 
L 291.455186 189.410223 
L 300.953059 194.523183 
L 310.450931 197.397833 
L 319.948803 197.668044 
L 329.446676 193.728572 
L 338.944548 166.600266 
L 348.44242 128.095126 
L 357.940293 116.690387 
L 367.438165 100.634294 
L 376.936037 94.566964 
L 386.43391 99.368883 
L 395.931782 95.953446 
L 405.429654 100.737319 
L 414.927527 100.67523 
L 424.425399 94.02124 
L 433.923271 92.610495 
L 443.421144 92.664762 
L 452.919016 92.120924 
L 462.416888 60.37723 
L 471.914761 27.81275 
L 481.412633 38.328361 
L 490.910505 65.134892 
L 500.408378 100.49298 
L 509.90625 139.346391 
" style="fill:none;stroke:#ba4a00;stroke-linecap:square;stroke-opacity:0.2;stroke-width:1.5;"/>
   </g>
   <g id="line2d_38">
    <path clip-path="url(#pd858827a2d)" d="M 63.50625 189.825505 
L 73.004122 195.961733 
L 82.501995 201.315057 
L 91.999867 205.202255 
L 101.497739 201.9448 
L 110.995612 189.006661 
L 120.493484 171.496073 
L 129.991356 154.76538 
L 139.489229 129.365066 
L 148.987101 123.545196 
L 158.484973 116.964168 
L 167.982846 117.967769 
L 177.480718 122.33087 
L 186.97859 127.764439 
L 196.476463 122.754851 
L 205.974335 133.105345 
L 215.472207 129.84325 
L 224.97008 126.137499 
L 234.467952 84.881054 
L 243.965824 49.626397 
L 253.463697 54.365231 
L 262.961569 81.239752 
L 272.459441 128.217584 
L 281.957314 162.703614 
L 291.455186 189.410223 
L 300.953059 194.523183 
L 310.450931 197.397833 
L 319.948803 197.668044 
L 329.446676 193.728572 
L 338.944548 166.600266 
L 348.44242 128.095126 
L 357.940293 116.690387 
L 367.438165 95.139669 
L 376.936037 89.072339 
L 386.43391 94.78273 
L 395.931782 90.458821 
L 405.429654 96.893859 
L 414.927527 97.842894 
L 424.425399 91.867936 
L 433.923271 91.822376 
L 443.421144 87.170138 
L 452.919016 89.269184 
L 462.416888 54.882605 
L 471.914761 22.318125 
L 481.412633 32.833736 
L 490.910505 59.640267 
L 500.408378 100.49298 
L 509.90625 139.346391 
" style="fill:none;stroke:#592400;stroke-linecap:square;stroke-opacity:0.2;stroke-width:1.5;"/>
   </g>
   <g id="patch_10">
    <path d="M 63.50625 392.954489 
L 63.50625 22.318125 
" style="fill:none;stroke:#000000;stroke-linecap:square;stroke-linejoin:miter;stroke-width:0.8;"/>
   </g>
   <g id="patch_11">
    <path d="M 509.90625 392.954489 
L 509.90625 22.318125 
" style="fill:none;stroke:#000000;stroke-linecap:square;stroke-linejoin:miter;stroke-width:0.8;"/>
   </g>
   <g id="patch_12">
    <path d="M 63.50625 392.954489 
L 509.90625 392.954489 
" style="fill:none;stroke:#000000;stroke-linecap:square;stroke-linejoin:miter;stroke-width:0.8;"/>
   </g>
   <g id="patch_13">
    <path d="M 63.50625 22.318125 
L 509.90625 22.318125 
" style="fill:none;stroke:#000000;stroke-linecap:square;stroke-linejoin:miter;stroke-width:0.8;"/>
   </g>
   <g id="text_24">
    <!-- System Energy Dispatch -->
    <defs>
     <path d="M 53.515625 70.515625 
L 53.515625 60.890625 
Q 47.90625 63.578125 42.921875 64.890625 
Q 37.9375 66.21875 33.296875 66.21875 
Q 25.25 66.21875 20.875 63.09375 
Q 16.5 59.96875 16.5 54.203125 
Q 16.5 49.359375 19.40625 46.890625 
Q 22.3125 44.4375 30.421875 42.921875 
L 36.375 41.703125 
Q 47.40625 39.59375 52.65625 34.296875 
Q 57.90625 29 57.90625 20.125 
Q 57.90625 9.515625 50.796875 4.046875 
Q 43.703125 -1.421875 29.984375 -1.421875 
Q 24.8125 -1.421875 18.96875 -0.25 
Q 13.140625 0.921875 6.890625 3.21875 
L 6.890625 13.375 
Q 12.890625 10.015625 18.65625 8.296875 
Q 24.421875 6.59375 29.984375 6.59375 
Q 38.421875 6.59375 43.015625 9.90625 
Q 47.609375 13.234375 47.609375 19.390625 
Q 47.609375 24.75 44.3125 27.78125 
Q 41.015625 30.8125 33.5 32.328125 
L 27.484375 33.5 
Q 16.453125 35.6875 11.515625 40.375 
Q 6.59375 45.0625 6.59375 53.421875 
Q 6.59375 63.09375 13.40625 68.65625 
Q 20.21875 74.21875 32.171875 74.21875 
Q 37.3125 74.21875 42.625 73.28125 
Q 47.953125 72.359375 53.515625 70.515625 
z
" id="DejaVuSans-83"/>
     <path d="M 32.171875 -5.078125 
Q 28.375 -14.84375 24.75 -17.8125 
Q 21.140625 -20.796875 15.09375 -20.796875 
L 7.90625 -20.796875 
L 7.90625 -13.28125 
L 13.1875 -13.28125 
Q 16.890625 -13.28125 18.9375 -11.515625 
Q 21 -9.765625 23.484375 -3.21875 
L 25.09375 0.875 
L 2.984375 54.6875 
L 12.5 54.6875 
L 29.59375 11.921875 
L 46.6875 54.6875 
L 56.203125 54.6875 
z
" id="DejaVuSans-121"/>
     <path d="M 18.3125 70.21875 
L 18.3125 54.6875 
L 36.8125 54.6875 
L 36.8125 47.703125 
L 18.3125 47.703125 
L 18.3125 18.015625 
Q 18.3125 11.328125 20.140625 9.421875 
Q 21.96875 7.515625 27.59375 7.515625 
L 36.8125 7.515625 
L 36.8125 0 
L 27.59375 0 
Q 17.1875 0 13.234375 3.875 
Q 9.28125 7.765625 9.28125 18.015625 
L 9.28125 47.703125 
L 2.6875 47.703125 
L 2.6875 54.6875 
L 9.28125 54.6875 
L 9.28125 70.21875 
z
" id="DejaVuSans-116"/>
     <path d="M 9.8125 72.90625 
L 55.90625 72.90625 
L 55.90625 64.59375 
L 19.671875 64.59375 
L 19.671875 43.015625 
L 54.390625 43.015625 
L 54.390625 34.71875 
L 19.671875 34.71875 
L 19.671875 8.296875 
L 56.78125 8.296875 
L 56.78125 0 
L 9.8125 0 
z
" id="DejaVuSans-69"/>
     <path d="M 54.890625 33.015625 
L 54.890625 0 
L 45.90625 0 
L 45.90625 32.71875 
Q 45.90625 40.484375 42.875 44.328125 
Q 39.84375 48.1875 33.796875 48.1875 
Q 26.515625 48.1875 22.3125 43.546875 
Q 18.109375 38.921875 18.109375 30.90625 
L 18.109375 0 
L 9.078125 0 
L 9.078125 54.6875 
L 18.109375 54.6875 
L 18.109375 46.1875 
Q 21.34375 51.125 25.703125 53.5625 
Q 30.078125 56 35.796875 56 
Q 45.21875 56 50.046875 50.171875 
Q 54.890625 44.34375 54.890625 33.015625 
z
" id="DejaVuSans-110"/>
     <path d="M 45.40625 27.984375 
Q 45.40625 37.75 41.375 43.109375 
Q 37.359375 48.484375 30.078125 48.484375 
Q 22.859375 48.484375 18.828125 43.109375 
Q 14.796875 37.75 14.796875 27.984375 
Q 14.796875 18.265625 18.828125 12.890625 
Q 22.859375 7.515625 30.078125 7.515625 
Q 37.359375 7.515625 41.375 12.890625 
Q 45.40625 18.265625 45.40625 27.984375 
z
M 54.390625 6.78125 
Q 54.390625 -7.171875 48.1875 -13.984375 
Q 42 -20.796875 29.203125 -20.796875 
Q 24.46875 -20.796875 20.265625 -20.09375 
Q 16.0625 -19.390625 12.109375 -17.921875 
L 12.109375 -9.1875 
Q 16.0625 -11.328125 19.921875 -12.34375 
Q 23.78125 -13.375 27.78125 -13.375 
Q 36.625 -13.375 41.015625 -8.765625 
Q 45.40625 -4.15625 45.40625 5.171875 
L 45.40625 9.625 
Q 42.625 4.78125 38.28125 2.390625 
Q 33.9375 0 27.875 0 
Q 17.828125 0 11.671875 7.65625 
Q 5.515625 15.328125 5.515625 27.984375 
Q 5.515625 40.671875 11.671875 48.328125 
Q 17.828125 56 27.875 56 
Q 33.9375 56 38.28125 53.609375 
Q 42.625 51.21875 45.40625 46.390625 
L 45.40625 54.6875 
L 54.390625 54.6875 
z
" id="DejaVuSans-103"/>
     <path d="M 19.671875 64.796875 
L 19.671875 8.109375 
L 31.59375 8.109375 
Q 46.6875 8.109375 53.6875 14.9375 
Q 60.6875 21.78125 60.6875 36.53125 
Q 60.6875 51.171875 53.6875 57.984375 
Q 46.6875 64.796875 31.59375 64.796875 
z
M 9.8125 72.90625 
L 30.078125 72.90625 
Q 51.265625 72.90625 61.171875 64.09375 
Q 71.09375 55.28125 71.09375 36.53125 
Q 71.09375 17.671875 61.125 8.828125 
Q 51.171875 0 30.078125 0 
L 9.8125 0 
z
" id="DejaVuSans-68"/>
     <path d="M 18.109375 8.203125 
L 18.109375 -20.796875 
L 9.078125 -20.796875 
L 9.078125 54.6875 
L 18.109375 54.6875 
L 18.109375 46.390625 
Q 20.953125 51.265625 25.265625 53.625 
Q 29.59375 56 35.59375 56 
Q 45.5625 56 51.78125 48.09375 
Q 58.015625 40.1875 58.015625 27.296875 
Q 58.015625 14.40625 51.78125 6.484375 
Q 45.5625 -1.421875 35.59375 -1.421875 
Q 29.59375 -1.421875 25.265625 0.953125 
Q 20.953125 3.328125 18.109375 8.203125 
z
M 48.6875 27.296875 
Q 48.6875 37.203125 44.609375 42.84375 
Q 40.53125 48.484375 33.40625 48.484375 
Q 26.265625 48.484375 22.1875 42.84375 
Q 18.109375 37.203125 18.109375 27.296875 
Q 18.109375 17.390625 22.1875 11.75 
Q 26.265625 6.109375 33.40625 6.109375 
Q 40.53125 6.109375 44.609375 11.75 
Q 48.6875 17.390625 48.6875 27.296875 
z
" id="DejaVuSans-112"/>
     <path d="M 48.78125 52.59375 
L 48.78125 44.1875 
Q 44.96875 46.296875 41.140625 47.34375 
Q 37.3125 48.390625 33.40625 48.390625 
Q 24.65625 48.390625 19.8125 42.84375 
Q 14.984375 37.3125 14.984375 27.296875 
Q 14.984375 17.28125 19.8125 11.734375 
Q 24.65625 6.203125 33.40625 6.203125 
Q 37.3125 6.203125 41.140625 7.25 
Q 44.96875 8.296875 48.78125 10.40625 
L 48.78125 2.09375 
Q 45.015625 0.34375 40.984375 -0.53125 
Q 36.96875 -1.421875 32.421875 -1.421875 
Q 20.0625 -1.421875 12.78125 6.34375 
Q 5.515625 14.109375 5.515625 27.296875 
Q 5.515625 40.671875 12.859375 48.328125 
Q 20.21875 56 33.015625 56 
Q 37.15625 56 41.109375 55.140625 
Q 45.0625 54.296875 48.78125 52.59375 
z
" id="DejaVuSans-99"/>
     <path d="M 54.890625 33.015625 
L 54.890625 0 
L 45.90625 0 
L 45.90625 32.71875 
Q 45.90625 40.484375 42.875 44.328125 
Q 39.84375 48.1875 33.796875 48.1875 
Q 26.515625 48.1875 22.3125 43.546875 
Q 18.109375 38.921875 18.109375 30.90625 
L 18.109375 0 
L 9.078125 0 
L 9.078125 75.984375 
L 18.109375 75.984375 
L 18.109375 46.1875 
Q 21.34375 51.125 25.703125 53.5625 
Q 30.078125 56 35.796875 56 
Q 45.21875 56 50.046875 50.171875 
Q 54.890625 44.34375 54.890625 33.015625 
z
" id="DejaVuSans-104"/>
    </defs>
    <g transform="translate(213.158438 16.318125)scale(0.12 -0.12)">
     <use xlink:href="#DejaVuSans-83"/>
     <use x="63.476562" xlink:href="#DejaVuSans-121"/>
     <use x="122.65625" xlink:href="#DejaVuSans-115"/>
     <use x="174.755859" xlink:href="#DejaVuSans-116"/>
     <use x="213.964844" xlink:href="#DejaVuSans-101"/>
     <use x="275.488281" xlink:href="#DejaVuSans-109"/>
     <use x="372.900391" xlink:href="#DejaVuSans-32"/>
     <use x="404.6875" xlink:href="#DejaVuSans-69"/>
     <use x="467.871094" xlink:href="#DejaVuSans-110"/>
     <use x="531.25" xlink:href="#DejaVuSans-101"/>
     <use x="592.773438" xlink:href="#DejaVuSans-114"/>
     <use x="632.136719" xlink:href="#DejaVuSans-103"/>
     <use x="695.613281" xlink:href="#DejaVuSans-121"/>
     <use x="754.792969" xlink:href="#DejaVuSans-32"/>
     <use x="786.580078" xlink:href="#DejaVuSans-68"/>
     <use x="863.582031" xlink:href="#DejaVuSans-105"/>
     <use x="891.365234" xlink:href="#DejaVuSans-115"/>
     <use x="943.464844" xlink:href="#DejaVuSans-112"/>
     <use x="1006.941406" xlink:href="#DejaVuSans-97"/>
     <use x="1068.220703" xlink:href="#DejaVuSans-116"/>
     <use x="1107.429688" xlink:href="#DejaVuSans-99"/>
     <use x="1162.410156" xlink:href="#DejaVuSans-104"/>
    </g>
   </g>
   <g id="legend_2">
    <g id="patch_14">
     <path d="M 594.114375 162.42125 
L 703.78625 162.42125 
Q 705.78625 162.42125 705.78625 160.42125 
L 705.78625 29.318125 
Q 705.78625 27.318125 703.78625 27.318125 
L 594.114375 27.318125 
Q 592.114375 27.318125 592.114375 29.318125 
L 592.114375 160.42125 
Q 592.114375 162.42125 594.114375 162.42125 
z
" style="fill:#ffffff;opacity:0.8;stroke:#cccccc;stroke-linejoin:miter;"/>
    </g>
    <g id="line2d_39">
     <path d="M 596.114375 35.416562 
L 616.114375 35.416562 
" style="fill:none;stroke:#000000;stroke-linecap:square;stroke-opacity:0.5;stroke-width:1.5;"/>
    </g>
    <g id="line2d_40"/>
    <g id="text_25">
     <!-- Demand -->
     <defs>
      <path d="M 45.40625 46.390625 
L 45.40625 75.984375 
L 54.390625 75.984375 
L 54.390625 0 
L 45.40625 0 
L 45.40625 8.203125 
Q 42.578125 3.328125 38.25 0.953125 
Q 33.9375 -1.421875 27.875 -1.421875 
Q 17.96875 -1.421875 11.734375 6.484375 
Q 5.515625 14.40625 5.515625 27.296875 
Q 5.515625 40.1875 11.734375 48.09375 
Q 17.96875 56 27.875 56 
Q 33.9375 56 38.25 53.625 
Q 42.578125 51.265625 45.40625 46.390625 
z
M 14.796875 27.296875 
Q 14.796875 17.390625 18.875 11.75 
Q 22.953125 6.109375 30.078125 6.109375 
Q 37.203125 6.109375 41.296875 11.75 
Q 45.40625 17.390625 45.40625 27.296875 
Q 45.40625 37.203125 41.296875 42.84375 
Q 37.203125 48.484375 30.078125 48.484375 
Q 22.953125 48.484375 18.875 42.84375 
Q 14.796875 37.203125 14.796875 27.296875 
z
" id="DejaVuSans-100"/>
     </defs>
     <g transform="translate(624.114375 38.916562)scale(0.1 -0.1)">
      <use xlink:href="#DejaVuSans-68"/>
      <use x="77.001953" xlink:href="#DejaVuSans-101"/>
      <use x="138.525391" xlink:href="#DejaVuSans-109"/>
      <use x="235.9375" xlink:href="#DejaVuSans-97"/>
      <use x="297.216797" xlink:href="#DejaVuSans-110"/>
      <use x="360.595703" xlink:href="#DejaVuSans-100"/>
     </g>
    </g>
    <g id="patch_15">
     <path d="M 596.114375 53.594687 
L 616.114375 53.594687 
L 616.114375 46.594687 
L 596.114375 46.594687 
z
" style="fill:#ffb30f;opacity:0.6;"/>
    </g>
    <g id="text_26">
     <!-- Geothermal -->
     <defs>
      <path d="M 9.421875 75.984375 
L 18.40625 75.984375 
L 18.40625 0 
L 9.421875 0 
z
" id="DejaVuSans-108"/>
     </defs>
     <g transform="translate(624.114375 53.594687)scale(0.1 -0.1)">
      <use xlink:href="#DejaVuSans-71"/>
      <use x="77.490234" xlink:href="#DejaVuSans-101"/>
      <use x="139.013672" xlink:href="#DejaVuSans-111"/>
      <use x="200.195312" xlink:href="#DejaVuSans-116"/>
      <use x="239.404297" xlink:href="#DejaVuSans-104"/>
      <use x="302.783203" xlink:href="#DejaVuSans-101"/>
      <use x="364.306641" xlink:href="#DejaVuSans-114"/>
      <use x="403.669922" xlink:href="#DejaVuSans-109"/>
      <use x="501.082031" xlink:href="#DejaVuSans-97"/>
      <use x="562.361328" xlink:href="#DejaVuSans-108"/>
     </g>
    </g>
    <g id="patch_16">
     <path d="M 596.114375 68.272812 
L 616.114375 68.272812 
L 616.114375 61.272812 
L 596.114375 61.272812 
z
" style="fill:#2980b9;opacity:0.6;"/>
    </g>
    <g id="text_27">
     <!-- Large Hydro -->
     <defs>
      <path d="M 9.8125 72.90625 
L 19.671875 72.90625 
L 19.671875 8.296875 
L 55.171875 8.296875 
L 55.171875 0 
L 9.8125 0 
z
" id="DejaVuSans-76"/>
      <path d="M 9.8125 72.90625 
L 19.671875 72.90625 
L 19.671875 43.015625 
L 55.515625 43.015625 
L 55.515625 72.90625 
L 65.375 72.90625 
L 65.375 0 
L 55.515625 0 
L 55.515625 34.71875 
L 19.671875 34.71875 
L 19.671875 0 
L 9.8125 0 
z
" id="DejaVuSans-72"/>
     </defs>
     <g transform="translate(624.114375 68.272812)scale(0.1 -0.1)">
      <use xlink:href="#DejaVuSans-76"/>
      <use x="55.712891" xlink:href="#DejaVuSans-97"/>
      <use x="116.992188" xlink:href="#DejaVuSans-114"/>
      <use x="156.355469" xlink:href="#DejaVuSans-103"/>
      <use x="219.832031" xlink:href="#DejaVuSans-101"/>
      <use x="281.355469" xlink:href="#DejaVuSans-32"/>
      <use x="313.142578" xlink:href="#DejaVuSans-72"/>
      <use x="388.337891" xlink:href="#DejaVuSans-121"/>
      <use x="447.517578" xlink:href="#DejaVuSans-100"/>
      <use x="510.994141" xlink:href="#DejaVuSans-114"/>
      <use x="549.857422" xlink:href="#DejaVuSans-111"/>
     </g>
    </g>
    <g id="patch_17">
     <path d="M 596.114375 82.950937 
L 616.114375 82.950937 
L 616.114375 75.950937 
L 596.114375 75.950937 
z
" style="fill:#3498db;opacity:0.6;"/>
    </g>
    <g id="text_28">
     <!-- Small Hydro -->
     <g transform="translate(624.114375 82.950937)scale(0.1 -0.1)">
      <use xlink:href="#DejaVuSans-83"/>
      <use x="63.476562" xlink:href="#DejaVuSans-109"/>
      <use x="160.888672" xlink:href="#DejaVuSans-97"/>
      <use x="222.167969" xlink:href="#DejaVuSans-108"/>
      <use x="249.951172" xlink:href="#DejaVuSans-108"/>
      <use x="277.734375" xlink:href="#DejaVuSans-32"/>
      <use x="309.521484" xlink:href="#DejaVuSans-72"/>
      <use x="384.716797" xlink:href="#DejaVuSans-121"/>
      <use x="443.896484" xlink:href="#DejaVuSans-100"/>
      <use x="507.373047" xlink:href="#DejaVuSans-114"/>
      <use x="546.236328" xlink:href="#DejaVuSans-111"/>
     </g>
    </g>
    <g id="patch_18">
     <path d="M 596.114375 97.629062 
L 616.114375 97.629062 
L 616.114375 90.629062 
L 596.114375 90.629062 
z
" style="fill:#28b463;opacity:0.6;"/>
    </g>
    <g id="text_29">
     <!-- Onshore Wind -->
     <defs>
      <path d="M 39.40625 66.21875 
Q 28.65625 66.21875 22.328125 58.203125 
Q 16.015625 50.203125 16.015625 36.375 
Q 16.015625 22.609375 22.328125 14.59375 
Q 28.65625 6.59375 39.40625 6.59375 
Q 50.140625 6.59375 56.421875 14.59375 
Q 62.703125 22.609375 62.703125 36.375 
Q 62.703125 50.203125 56.421875 58.203125 
Q 50.140625 66.21875 39.40625 66.21875 
z
M 39.40625 74.21875 
Q 54.734375 74.21875 63.90625 63.9375 
Q 73.09375 53.65625 73.09375 36.375 
Q 73.09375 19.140625 63.90625 8.859375 
Q 54.734375 -1.421875 39.40625 -1.421875 
Q 24.03125 -1.421875 14.8125 8.828125 
Q 5.609375 19.09375 5.609375 36.375 
Q 5.609375 53.65625 14.8125 63.9375 
Q 24.03125 74.21875 39.40625 74.21875 
z
" id="DejaVuSans-79"/>
     </defs>
     <g transform="translate(624.114375 97.629062)scale(0.1 -0.1)">
      <use xlink:href="#DejaVuSans-79"/>
      <use x="78.710938" xlink:href="#DejaVuSans-110"/>
      <use x="142.089844" xlink:href="#DejaVuSans-115"/>
      <use x="194.189453" xlink:href="#DejaVuSans-104"/>
      <use x="257.568359" xlink:href="#DejaVuSans-111"/>
      <use x="318.75" xlink:href="#DejaVuSans-114"/>
      <use x="357.613281" xlink:href="#DejaVuSans-101"/>
      <use x="419.136719" xlink:href="#DejaVuSans-32"/>
      <use x="450.923828" xlink:href="#DejaVuSans-87"/>
      <use x="547.550781" xlink:href="#DejaVuSans-105"/>
      <use x="575.333984" xlink:href="#DejaVuSans-110"/>
      <use x="638.712891" xlink:href="#DejaVuSans-100"/>
     </g>
    </g>
    <g id="patch_19">
     <path d="M 596.114375 112.307187 
L 616.114375 112.307187 
L 616.114375 105.307187 
L 596.114375 105.307187 
z
" style="fill:#494949;opacity:0.6;"/>
    </g>
    <g id="text_30">
     <!-- Heavy Fuel Oil -->
     <defs>
      <path d="M 2.984375 54.6875 
L 12.5 54.6875 
L 29.59375 8.796875 
L 46.6875 54.6875 
L 56.203125 54.6875 
L 35.6875 0 
L 23.484375 0 
z
" id="DejaVuSans-118"/>
      <path d="M 9.8125 72.90625 
L 51.703125 72.90625 
L 51.703125 64.59375 
L 19.671875 64.59375 
L 19.671875 43.109375 
L 48.578125 43.109375 
L 48.578125 34.8125 
L 19.671875 34.8125 
L 19.671875 0 
L 9.8125 0 
z
" id="DejaVuSans-70"/>
      <path d="M 8.5 21.578125 
L 8.5 54.6875 
L 17.484375 54.6875 
L 17.484375 21.921875 
Q 17.484375 14.15625 20.5 10.265625 
Q 23.53125 6.390625 29.59375 6.390625 
Q 36.859375 6.390625 41.078125 11.03125 
Q 45.3125 15.671875 45.3125 23.6875 
L 45.3125 54.6875 
L 54.296875 54.6875 
L 54.296875 0 
L 45.3125 0 
L 45.3125 8.40625 
Q 42.046875 3.421875 37.71875 1 
Q 33.40625 -1.421875 27.6875 -1.421875 
Q 18.265625 -1.421875 13.375 4.4375 
Q 8.5 10.296875 8.5 21.578125 
z
M 31.109375 56 
z
" id="DejaVuSans-117"/>
     </defs>
     <g transform="translate(624.114375 112.307187)scale(0.1 -0.1)">
      <use xlink:href="#DejaVuSans-72"/>
      <use x="75.195312" xlink:href="#DejaVuSans-101"/>
      <use x="136.71875" xlink:href="#DejaVuSans-97"/>
      <use x="197.998047" xlink:href="#DejaVuSans-118"/>
      <use x="257.177734" xlink:href="#DejaVuSans-121"/>
      <use x="316.357422" xlink:href="#DejaVuSans-32"/>
      <use x="348.144531" xlink:href="#DejaVuSans-70"/>
      <use x="400.164062" xlink:href="#DejaVuSans-117"/>
      <use x="463.542969" xlink:href="#DejaVuSans-101"/>
      <use x="525.066406" xlink:href="#DejaVuSans-108"/>
      <use x="552.849609" xlink:href="#DejaVuSans-32"/>
      <use x="584.636719" xlink:href="#DejaVuSans-79"/>
      <use x="663.347656" xlink:href="#DejaVuSans-105"/>
      <use x="691.130859" xlink:href="#DejaVuSans-108"/>
     </g>
    </g>
    <g id="patch_20">
     <path d="M 596.114375 126.985312 
L 616.114375 126.985312 
L 616.114375 119.985312 
L 596.114375 119.985312 
z
" style="fill:#7c7c7c;opacity:0.6;"/>
    </g>
    <g id="text_31">
     <!-- Gast Turbine  -->
     <defs>
      <path d="M -0.296875 72.90625 
L 61.375 72.90625 
L 61.375 64.59375 
L 35.5 64.59375 
L 35.5 0 
L 25.59375 0 
L 25.59375 64.59375 
L -0.296875 64.59375 
z
" id="DejaVuSans-84"/>
      <path d="M 48.6875 27.296875 
Q 48.6875 37.203125 44.609375 42.84375 
Q 40.53125 48.484375 33.40625 48.484375 
Q 26.265625 48.484375 22.1875 42.84375 
Q 18.109375 37.203125 18.109375 27.296875 
Q 18.109375 17.390625 22.1875 11.75 
Q 26.265625 6.109375 33.40625 6.109375 
Q 40.53125 6.109375 44.609375 11.75 
Q 48.6875 17.390625 48.6875 27.296875 
z
M 18.109375 46.390625 
Q 20.953125 51.265625 25.265625 53.625 
Q 29.59375 56 35.59375 56 
Q 45.5625 56 51.78125 48.09375 
Q 58.015625 40.1875 58.015625 27.296875 
Q 58.015625 14.40625 51.78125 6.484375 
Q 45.5625 -1.421875 35.59375 -1.421875 
Q 29.59375 -1.421875 25.265625 0.953125 
Q 20.953125 3.328125 18.109375 8.203125 
L 18.109375 0 
L 9.078125 0 
L 9.078125 75.984375 
L 18.109375 75.984375 
z
" id="DejaVuSans-98"/>
     </defs>
     <g transform="translate(624.114375 126.985312)scale(0.1 -0.1)">
      <use xlink:href="#DejaVuSans-71"/>
      <use x="77.490234" xlink:href="#DejaVuSans-97"/>
      <use x="138.769531" xlink:href="#DejaVuSans-115"/>
      <use x="190.869141" xlink:href="#DejaVuSans-116"/>
      <use x="230.078125" xlink:href="#DejaVuSans-32"/>
      <use x="261.865234" xlink:href="#DejaVuSans-84"/>
      <use x="307.824219" xlink:href="#DejaVuSans-117"/>
      <use x="371.203125" xlink:href="#DejaVuSans-114"/>
      <use x="412.316406" xlink:href="#DejaVuSans-98"/>
      <use x="475.792969" xlink:href="#DejaVuSans-105"/>
      <use x="503.576172" xlink:href="#DejaVuSans-110"/>
      <use x="566.955078" xlink:href="#DejaVuSans-101"/>
      <use x="628.478516" xlink:href="#DejaVuSans-32"/>
     </g>
    </g>
    <g id="patch_21">
     <path d="M 596.114375 141.663437 
L 616.114375 141.663437 
L 616.114375 134.663437 
L 596.114375 134.663437 
z
" style="fill:#ba4a00;opacity:0.6;"/>
    </g>
    <g id="text_32">
     <!-- Biomass -->
     <g transform="translate(624.114375 141.663437)scale(0.1 -0.1)">
      <use xlink:href="#DejaVuSans-66"/>
      <use x="68.603516" xlink:href="#DejaVuSans-105"/>
      <use x="96.386719" xlink:href="#DejaVuSans-111"/>
      <use x="157.568359" xlink:href="#DejaVuSans-109"/>
      <use x="254.980469" xlink:href="#DejaVuSans-97"/>
      <use x="316.259766" xlink:href="#DejaVuSans-115"/>
      <use x="368.359375" xlink:href="#DejaVuSans-115"/>
     </g>
    </g>
    <g id="patch_22">
     <path d="M 596.114375 156.341562 
L 616.114375 156.341562 
L 616.114375 149.341562 
L 596.114375 149.341562 
z
" style="fill:#592400;opacity:0.6;"/>
    </g>
    <g id="text_33">
     <!-- Coffee Biomass -->
     <g transform="translate(624.114375 156.341562)scale(0.1 -0.1)">
      <use xlink:href="#DejaVuSans-67"/>
      <use x="69.824219" xlink:href="#DejaVuSans-111"/>
      <use x="131.005859" xlink:href="#DejaVuSans-102"/>
      <use x="166.210938" xlink:href="#DejaVuSans-102"/>
      <use x="201.416016" xlink:href="#DejaVuSans-101"/>
      <use x="262.939453" xlink:href="#DejaVuSans-101"/>
      <use x="324.462891" xlink:href="#DejaVuSans-32"/>
      <use x="356.25" xlink:href="#DejaVuSans-66"/>
      <use x="424.853516" xlink:href="#DejaVuSans-105"/>
      <use x="452.636719" xlink:href="#DejaVuSans-111"/>
      <use x="513.818359" xlink:href="#DejaVuSans-109"/>
      <use x="611.230469" xlink:href="#DejaVuSans-97"/>
      <use x="672.509766" xlink:href="#DejaVuSans-115"/>
      <use x="724.609375" xlink:href="#DejaVuSans-115"/>
     </g>
    </g>
   </g>
  </g>
 </g>
 <defs>
  <clipPath id="pc1056aac2c">
   <rect height="123.545455" width="446.4" x="63.50625" y="442.37267"/>
  </clipPath>
  <clipPath id="pd858827a2d">
   <rect height="370.636364" width="446.4" x="63.50625" y="22.318125"/>
  </clipPath>
 </defs>
</svg>
