<?xml version="1.0" encoding="utf-8" standalone="no"?>
<!DOCTYPE svg PUBLIC "-//W3C//DTD SVG 1.1//EN"
  "http://www.w3.org/Graphics/SVG/1.1/DTD/svg11.dtd">
<!-- Created with matplotlib (https://matplotlib.org/) -->
<svg height="440.368873pt" version="1.1" viewBox="0 0 694.937187 440.368873" width="694.937187pt" xmlns="http://www.w3.org/2000/svg" xmlns:xlink="http://www.w3.org/1999/xlink">
 <defs>
  <style type="text/css">
*{stroke-linecap:butt;stroke-linejoin:round;}
  </style>
 </defs>
 <g id="figure_1">
  <g id="patch_1">
   <path d="M 0 440.368873 
L 694.937187 440.368873 
L 694.937187 0 
L 0 0 
z
" style="fill:#ffffff;"/>
  </g>
  <g id="axes_1">
   <g id="patch_2">
    <path d="M 43.78125 357.237656 
L 490.18125 357.237656 
L 490.18125 24.597656 
L 43.78125 24.597656 
z
" style="fill:#ffffff;"/>
   </g>
   <g id="PolyCollection_1">
    <path clip-path="url(#p76d350c000)" d="M 43.78125 256.232893 
L 43.78125 357.237656 
L 52.365865 357.237656 
L 60.950481 357.237656 
L 69.535096 357.237656 
L 78.119712 357.237656 
L 86.704327 357.237656 
L 95.288942 357.237656 
L 103.873558 357.237656 
L 112.458173 357.237656 
L 121.042788 357.237656 
L 129.627404 357.237656 
L 138.212019 357.237656 
L 146.796635 357.237656 
L 155.38125 357.237656 
L 163.965865 357.237656 
L 172.550481 357.237656 
L 181.135096 357.237656 
L 189.719712 357.237656 
L 198.304327 357.237656 
L 206.888942 357.237656 
L 215.473558 357.237656 
L 224.058173 357.237656 
L 232.642788 357.237656 
L 241.227404 357.237656 
L 249.812019 357.237656 
L 258.396635 357.237656 
L 266.98125 357.237656 
L 275.565865 357.237656 
L 284.150481 357.237656 
L 292.735096 357.237656 
L 301.319712 357.237656 
L 309.904327 357.237656 
L 318.488942 357.237656 
L 327.073558 357.237656 
L 335.658173 357.237656 
L 344.242788 357.237656 
L 352.827404 357.237656 
L 361.412019 357.237656 
L 369.996635 357.237656 
L 378.58125 357.237656 
L 387.165865 357.237656 
L 395.750481 357.237656 
L 404.335096 357.237656 
L 412.919712 357.237656 
L 421.504327 357.237656 
L 430.088942 357.237656 
L 438.673558 357.237656 
L 447.258173 357.237656 
L 455.842788 357.237656 
L 464.427404 357.237656 
L 473.012019 357.237656 
L 481.596635 357.237656 
L 490.18125 357.237656 
L 490.18125 282.327055 
L 490.18125 282.327055 
L 481.596635 282.327055 
L 473.012019 282.327055 
L 464.427404 282.327055 
L 455.842788 282.327055 
L 447.258173 279.732195 
L 438.673558 279.243209 
L 430.088942 279.243209 
L 421.504327 279.243209 
L 412.919712 284.998193 
L 404.335096 289.314431 
L 395.750481 289.314431 
L 387.165865 289.314431 
L 378.58125 288.719485 
L 369.996635 285.149807 
L 361.412019 285.149807 
L 352.827404 285.149807 
L 344.242788 285.149807 
L 335.658173 287.517776 
L 327.073558 287.912438 
L 318.488942 287.912438 
L 309.904327 287.912438 
L 301.319712 285.39217 
L 292.735096 282.031813 
L 284.150481 282.031813 
L 275.565865 282.031813 
L 266.98125 282.031813 
L 258.396635 285.941689 
L 249.812019 285.941689 
L 241.227404 285.941689 
L 232.642788 285.941689 
L 224.058173 265.508201 
L 215.473558 257.334806 
L 206.888942 257.334806 
L 198.304327 257.334806 
L 189.719712 258.593473 
L 181.135096 261.740141 
L 172.550481 261.740141 
L 163.965865 261.740141 
L 155.38125 261.740141 
L 146.796635 249.118061 
L 138.212019 249.118061 
L 129.627404 249.118061 
L 121.042788 249.118061 
L 112.458173 248.598104 
L 103.873558 248.208136 
L 95.288942 248.208136 
L 86.704327 248.208136 
L 78.119712 252.793712 
L 69.535096 256.232893 
L 60.950481 256.232893 
L 52.365865 256.232893 
L 43.78125 256.232893 
z
" style="fill:#2980b9;"/>
   </g>
   <g id="PolyCollection_2">
    <path clip-path="url(#p76d350c000)" d="M 43.78125 231.156749 
L 43.78125 256.232893 
L 52.365865 256.232893 
L 60.950481 256.232893 
L 69.535096 256.232893 
L 78.119712 252.793712 
L 86.704327 248.208136 
L 95.288942 248.208136 
L 103.873558 248.208136 
L 112.458173 248.598104 
L 121.042788 249.118061 
L 129.627404 249.118061 
L 138.212019 249.118061 
L 146.796635 249.118061 
L 155.38125 261.740141 
L 163.965865 261.740141 
L 172.550481 261.740141 
L 181.135096 261.740141 
L 189.719712 258.593473 
L 198.304327 257.334806 
L 206.888942 257.334806 
L 215.473558 257.334806 
L 224.058173 265.508201 
L 232.642788 285.941689 
L 241.227404 285.941689 
L 249.812019 285.941689 
L 258.396635 285.941689 
L 266.98125 282.031813 
L 275.565865 282.031813 
L 284.150481 282.031813 
L 292.735096 282.031813 
L 301.319712 285.39217 
L 309.904327 287.912438 
L 318.488942 287.912438 
L 327.073558 287.912438 
L 335.658173 287.517776 
L 344.242788 285.149807 
L 352.827404 285.149807 
L 361.412019 285.149807 
L 369.996635 285.149807 
L 378.58125 288.719485 
L 387.165865 289.314431 
L 395.750481 289.314431 
L 404.335096 289.314431 
L 412.919712 284.998193 
L 421.504327 279.243209 
L 430.088942 279.243209 
L 438.673558 279.243209 
L 447.258173 279.732195 
L 455.842788 282.327055 
L 464.427404 282.327055 
L 473.012019 282.327055 
L 481.596635 282.327055 
L 490.18125 282.327055 
L 490.18125 262.674963 
L 490.18125 262.674963 
L 481.596635 262.674963 
L 473.012019 262.674963 
L 464.427404 262.674963 
L 455.842788 262.674963 
L 447.258173 245.934939 
L 438.673558 243.088425 
L 430.088942 243.088425 
L 421.504327 243.088425 
L 412.919712 257.860504 
L 404.335096 268.939563 
L 395.750481 268.939563 
L 387.165865 268.939563 
L 378.58125 270.589656 
L 369.996635 280.490213 
L 361.412019 280.490213 
L 352.827404 280.490213 
L 344.242788 280.490213 
L 335.658173 282.415896 
L 327.073558 282.736843 
L 318.488942 282.736843 
L 309.904327 282.736843 
L 301.319712 280.523571 
L 292.735096 277.572541 
L 284.150481 277.572541 
L 275.565865 277.572541 
L 266.98125 277.572541 
L 258.396635 281.708877 
L 249.812019 281.708877 
L 241.227404 281.708877 
L 232.642788 281.708877 
L 224.058173 258.815775 
L 215.473558 249.658535 
L 206.888942 249.658535 
L 198.304327 249.658535 
L 189.719712 250.119136 
L 181.135096 251.270641 
L 172.550481 251.270641 
L 163.965865 251.270641 
L 155.38125 251.270641 
L 146.796635 237.193865 
L 138.212019 237.193865 
L 129.627404 237.193865 
L 121.042788 237.193865 
L 112.458173 230.613838 
L 103.873558 225.678817 
L 95.288942 225.678817 
L 86.704327 225.678817 
L 78.119712 228.809064 
L 69.535096 231.156749 
L 60.950481 231.156749 
L 52.365865 231.156749 
L 43.78125 231.156749 
z
" style="fill:#3498db;"/>
   </g>
   <g id="PolyCollection_3">
    <path clip-path="url(#p76d350c000)" d="M 43.78125 114.096208 
L 43.78125 231.156749 
L 52.365865 231.156749 
L 60.950481 231.156749 
L 69.535096 231.156749 
L 78.119712 228.809064 
L 86.704327 225.678817 
L 95.288942 225.678817 
L 103.873558 225.678817 
L 112.458173 230.613838 
L 121.042788 237.193865 
L 129.627404 237.193865 
L 138.212019 237.193865 
L 146.796635 237.193865 
L 155.38125 251.270641 
L 163.965865 251.270641 
L 172.550481 251.270641 
L 181.135096 251.270641 
L 189.719712 250.119136 
L 198.304327 249.658535 
L 206.888942 249.658535 
L 215.473558 249.658535 
L 224.058173 258.815775 
L 232.642788 281.708877 
L 241.227404 281.708877 
L 249.812019 281.708877 
L 258.396635 281.708877 
L 266.98125 277.572541 
L 275.565865 277.572541 
L 284.150481 277.572541 
L 292.735096 277.572541 
L 301.319712 280.523571 
L 309.904327 282.736843 
L 318.488942 282.736843 
L 327.073558 282.736843 
L 335.658173 282.415896 
L 344.242788 280.490213 
L 352.827404 280.490213 
L 361.412019 280.490213 
L 369.996635 280.490213 
L 378.58125 270.589656 
L 387.165865 268.939563 
L 395.750481 268.939563 
L 404.335096 268.939563 
L 412.919712 257.860504 
L 421.504327 243.088425 
L 430.088942 243.088425 
L 438.673558 243.088425 
L 447.258173 245.934939 
L 455.842788 262.674963 
L 464.427404 262.674963 
L 473.012019 262.674963 
L 481.596635 262.674963 
L 490.18125 262.674963 
L 490.18125 86.364581 
L 490.18125 86.364581 
L 481.596635 93.291863 
L 473.012019 86.689434 
L 464.427404 87.710472 
L 455.842788 91.537493 
L 447.258173 85.829292 
L 438.673558 81.189325 
L 430.088942 82.3214 
L 421.504327 85.518447 
L 412.919712 99.36196 
L 404.335096 102.291662 
L 395.750481 106.532543 
L 387.165865 111.475886 
L 378.58125 108.37586 
L 369.996635 112.256047 
L 361.412019 112.759885 
L 352.827404 111.194071 
L 344.242788 114.886283 
L 335.658173 113.482193 
L 327.073558 115.421246 
L 318.488942 118.918204 
L 309.904327 117.374882 
L 301.319712 118.908625 
L 292.735096 118.027676 
L 284.150481 120.83064 
L 275.565865 123.787217 
L 266.98125 117.420891 
L 258.396635 121.382416 
L 249.812019 110.265652 
L 241.227404 111.357909 
L 232.642788 114.671861 
L 224.058173 106.383683 
L 215.473558 104.583283 
L 206.888942 96.074587 
L 198.304327 84.525102 
L 189.719712 89.843475 
L 181.135096 90.492848 
L 172.550481 103.565805 
L 163.965865 99.220735 
L 155.38125 102.901577 
L 146.796635 95.984782 
L 138.212019 94.183852 
L 129.627404 105.985431 
L 121.042788 95.502551 
L 112.458173 101.449664 
L 103.873558 87.54306 
L 95.288942 92.026991 
L 86.704327 96.871235 
L 78.119712 109.077738 
L 69.535096 102.173741 
L 60.950481 100.263672 
L 52.365865 113.589731 
L 43.78125 114.096208 
z
" style="fill:#ba4a00;"/>
   </g>
   <g id="PolyCollection_4">
    <path clip-path="url(#p76d350c000)" d="M 43.78125 114.096208 
L 43.78125 114.096208 
L 52.365865 113.589731 
L 60.950481 100.263672 
L 69.535096 102.173741 
L 78.119712 109.077738 
L 86.704327 96.871235 
L 95.288942 92.026991 
L 103.873558 87.54306 
L 112.458173 101.449664 
L 121.042788 95.502551 
L 129.627404 105.985431 
L 138.212019 94.183852 
L 146.796635 95.984782 
L 155.38125 102.901577 
L 163.965865 99.220735 
L 172.550481 103.565805 
L 181.135096 90.492848 
L 189.719712 89.843475 
L 198.304327 84.525102 
L 206.888942 96.074587 
L 215.473558 104.583283 
L 224.058173 106.383683 
L 232.642788 114.671861 
L 241.227404 111.357909 
L 249.812019 110.265652 
L 258.396635 121.382416 
L 266.98125 117.420891 
L 275.565865 123.787217 
L 284.150481 120.83064 
L 292.735096 118.027676 
L 301.319712 118.908625 
L 309.904327 117.374882 
L 318.488942 118.918204 
L 327.073558 115.421246 
L 335.658173 113.482193 
L 344.242788 114.886283 
L 352.827404 111.194071 
L 361.412019 112.759885 
L 369.996635 112.256047 
L 378.58125 108.37586 
L 387.165865 111.475886 
L 395.750481 106.532543 
L 404.335096 102.291662 
L 412.919712 99.36196 
L 421.504327 85.518447 
L 430.088942 82.3214 
L 438.673558 81.189325 
L 447.258173 85.829292 
L 455.842788 91.537493 
L 464.427404 87.710472 
L 473.012019 86.689434 
L 481.596635 93.291863 
L 490.18125 86.364581 
L 490.18125 86.364581 
L 490.18125 86.364581 
L 481.596635 93.291863 
L 473.012019 86.689434 
L 464.427404 87.710472 
L 455.842788 91.537493 
L 447.258173 85.829292 
L 438.673558 81.189325 
L 430.088942 82.3214 
L 421.504327 85.518447 
L 412.919712 99.36196 
L 404.335096 102.291662 
L 395.750481 106.532543 
L 387.165865 111.475886 
L 378.58125 108.37586 
L 369.996635 112.256047 
L 361.412019 112.759885 
L 352.827404 111.194071 
L 344.242788 114.886283 
L 335.658173 113.482193 
L 327.073558 115.421246 
L 318.488942 118.918204 
L 309.904327 117.374882 
L 301.319712 118.908625 
L 292.735096 118.027676 
L 284.150481 120.83064 
L 275.565865 123.787217 
L 266.98125 117.420891 
L 258.396635 121.034658 
L 249.812019 110.265652 
L 241.227404 111.357909 
L 232.642788 114.671861 
L 224.058173 106.383683 
L 215.473558 104.583283 
L 206.888942 96.074587 
L 198.304327 84.525102 
L 189.719712 89.843475 
L 181.135096 90.492848 
L 172.550481 103.565805 
L 163.965865 99.220735 
L 155.38125 102.901577 
L 146.796635 95.984782 
L 138.212019 94.183852 
L 129.627404 105.985431 
L 121.042788 95.502551 
L 112.458173 101.449664 
L 103.873558 87.54306 
L 95.288942 92.026991 
L 86.704327 96.871235 
L 78.119712 109.077738 
L 69.535096 102.173741 
L 60.950481 100.263672 
L 52.365865 113.589731 
L 43.78125 114.096208 
z
" style="fill:#28b463;"/>
   </g>
   <g id="PolyCollection_5">
    <path clip-path="url(#p76d350c000)" d="M 43.78125 114.096208 
L 43.78125 114.096208 
L 52.365865 113.589731 
L 60.950481 100.263672 
L 69.535096 102.173741 
L 78.119712 109.077738 
L 86.704327 96.871235 
L 95.288942 92.026991 
L 103.873558 87.54306 
L 112.458173 101.449664 
L 121.042788 95.502551 
L 129.627404 105.985431 
L 138.212019 94.183852 
L 146.796635 95.984782 
L 155.38125 102.901577 
L 163.965865 99.220735 
L 172.550481 103.565805 
L 181.135096 90.492848 
L 189.719712 89.843475 
L 198.304327 84.525102 
L 206.888942 96.074587 
L 215.473558 104.583283 
L 224.058173 106.383683 
L 232.642788 114.671861 
L 241.227404 111.357909 
L 249.812019 110.265652 
L 258.396635 121.034658 
L 266.98125 117.420891 
L 275.565865 123.787217 
L 284.150481 120.83064 
L 292.735096 118.027676 
L 301.319712 118.908625 
L 309.904327 117.374882 
L 318.488942 118.918204 
L 327.073558 115.421246 
L 335.658173 113.482193 
L 344.242788 114.886283 
L 352.827404 111.194071 
L 361.412019 112.759885 
L 369.996635 112.256047 
L 378.58125 108.37586 
L 387.165865 111.475886 
L 395.750481 106.532543 
L 404.335096 102.291662 
L 412.919712 99.36196 
L 421.504327 85.518447 
L 430.088942 82.3214 
L 438.673558 81.189325 
L 447.258173 85.829292 
L 455.842788 91.537493 
L 464.427404 87.710472 
L 473.012019 86.689434 
L 481.596635 93.291863 
L 490.18125 86.364581 
L 490.18125 65.545439 
L 490.18125 65.545439 
L 481.596635 77.821615 
L 473.012019 55.689891 
L 464.427404 63.976447 
L 455.842788 71.76852 
L 447.258173 77.507225 
L 438.673558 71.502063 
L 430.088942 73.720886 
L 421.504327 78.239587 
L 412.919712 91.174098 
L 404.335096 91.373403 
L 395.750481 98.267231 
L 387.165865 104.182528 
L 378.58125 101.808549 
L 369.996635 101.740864 
L 361.412019 99.771644 
L 352.827404 100.593054 
L 344.242788 106.746582 
L 335.658173 102.042838 
L 327.073558 106.002162 
L 318.488942 110.374022 
L 309.904327 108.619836 
L 301.319712 113.570022 
L 292.735096 112.551083 
L 284.150481 115.935358 
L 275.565865 119.289968 
L 266.98125 112.836938 
L 258.396635 114.491476 
L 249.812019 92.498888 
L 241.227404 100.286004 
L 232.642788 105.975897 
L 224.058173 103.151718 
L 215.473558 102.290409 
L 206.888942 91.955867 
L 198.304327 73.694702 
L 189.719712 80.997265 
L 181.135096 83.33629 
L 172.550481 99.373812 
L 163.965865 93.359256 
L 155.38125 96.694425 
L 146.796635 93.710023 
L 138.212019 91.434907 
L 129.627404 105.213254 
L 121.042788 93.320978 
L 112.458173 101.235094 
L 103.873558 85.615183 
L 95.288942 91.611899 
L 86.704327 96.458098 
L 78.119712 109.026052 
L 69.535096 101.477252 
L 60.950481 99.983154 
L 52.365865 113.470931 
L 43.78125 114.096208 
z
" style="fill:#592400;"/>
   </g>
   <g id="PolyCollection_6">
    <path clip-path="url(#p76d350c000)" d="M 43.78125 113.321715 
L 43.78125 114.096208 
L 52.365865 113.470931 
L 60.950481 99.983154 
L 69.535096 101.477252 
L 78.119712 109.026052 
L 86.704327 96.458098 
L 95.288942 91.611899 
L 103.873558 85.615183 
L 112.458173 101.235094 
L 121.042788 93.320978 
L 129.627404 105.213254 
L 138.212019 91.434907 
L 146.796635 93.710023 
L 155.38125 96.694425 
L 163.965865 93.359256 
L 172.550481 99.373812 
L 181.135096 83.33629 
L 189.719712 80.997265 
L 198.304327 73.694702 
L 206.888942 91.955867 
L 215.473558 102.290409 
L 224.058173 103.151718 
L 232.642788 105.975897 
L 241.227404 100.286004 
L 249.812019 92.498888 
L 258.396635 114.491476 
L 266.98125 112.836938 
L 275.565865 119.289968 
L 284.150481 115.935358 
L 292.735096 112.551083 
L 301.319712 113.570022 
L 309.904327 108.619836 
L 318.488942 110.374022 
L 327.073558 106.002162 
L 335.658173 102.042838 
L 344.242788 106.746582 
L 352.827404 100.593054 
L 361.412019 99.771644 
L 369.996635 101.740864 
L 378.58125 101.808549 
L 387.165865 104.182528 
L 395.750481 98.267231 
L 404.335096 91.373403 
L 412.919712 91.174098 
L 421.504327 78.239587 
L 430.088942 73.720886 
L 438.673558 71.502063 
L 447.258173 77.507225 
L 455.842788 71.76852 
L 464.427404 63.976447 
L 473.012019 55.689891 
L 481.596635 77.821615 
L 490.18125 65.545439 
L 490.18125 64.571169 
L 490.18125 64.571169 
L 481.596635 76.80903 
L 473.012019 54.837656 
L 464.427404 63.157595 
L 455.842788 71.129721 
L 447.258173 76.757486 
L 438.673558 70.772034 
L 430.088942 72.890799 
L 421.504327 77.348199 
L 412.919712 90.351786 
L 404.335096 90.72096 
L 395.750481 97.681009 
L 387.165865 103.395615 
L 378.58125 101.174508 
L 369.996635 100.91128 
L 361.412019 99.002311 
L 352.827404 99.737115 
L 344.242788 105.900965 
L 335.658173 101.24586 
L 327.073558 105.119673 
L 318.488942 109.368605 
L 309.904327 107.734105 
L 301.319712 112.745729 
L 292.735096 111.644237 
L 284.150481 115.149088 
L 275.565865 118.457523 
L 266.98125 112.026863 
L 258.396635 113.633545 
L 249.812019 91.58635 
L 241.227404 99.495801 
L 232.642788 105.248909 
L 224.058173 102.528024 
L 215.473558 101.645777 
L 206.888942 91.285066 
L 198.304327 73.078182 
L 189.719712 80.371165 
L 181.135096 82.693402 
L 172.550481 98.646794 
L 163.965865 92.743784 
L 155.38125 95.991428 
L 146.796635 92.984825 
L 138.212019 90.729281 
L 129.627404 104.507918 
L 121.042788 92.693142 
L 112.458173 100.531232 
L 103.873558 85.088926 
L 95.288942 90.846703 
L 86.704327 95.633641 
L 78.119712 108.228888 
L 69.535096 100.806195 
L 60.950481 99.421484 
L 52.365865 112.810727 
L 43.78125 113.321715 
z
" style="fill:#ffff00;"/>
   </g>
   <g id="matplotlib.axis_1">
    <g id="xtick_1">
     <g id="line2d_1">
      <defs>
       <path d="M 0 0 
L 0 3.5 
" id="m1719c51bc2" style="stroke:#000000;stroke-width:0.8;"/>
      </defs>
      <g>
       <use style="stroke:#000000;stroke-width:0.8;" x="43.78125" xlink:href="#m1719c51bc2" y="357.237656"/>
      </g>
     </g>
     <g id="text_1">
      <!-- January -->
      <defs>
       <path d="M 9.8125 72.90625 
L 19.671875 72.90625 
L 19.671875 5.078125 
Q 19.671875 -8.109375 14.671875 -14.0625 
Q 9.671875 -20.015625 -1.421875 -20.015625 
L -5.171875 -20.015625 
L -5.171875 -11.71875 
L -2.09375 -11.71875 
Q 4.4375 -11.71875 7.125 -8.046875 
Q 9.8125 -4.390625 9.8125 5.078125 
z
" id="DejaVuSans-74"/>
       <path d="M 34.28125 27.484375 
Q 23.390625 27.484375 19.1875 25 
Q 14.984375 22.515625 14.984375 16.5 
Q 14.984375 11.71875 18.140625 8.90625 
Q 21.296875 6.109375 26.703125 6.109375 
Q 34.1875 6.109375 38.703125 11.40625 
Q 43.21875 16.703125 43.21875 25.484375 
L 43.21875 27.484375 
z
M 52.203125 31.203125 
L 52.203125 0 
L 43.21875 0 
L 43.21875 8.296875 
Q 40.140625 3.328125 35.546875 0.953125 
Q 30.953125 -1.421875 24.3125 -1.421875 
Q 15.921875 -1.421875 10.953125 3.296875 
Q 6 8.015625 6 15.921875 
Q 6 25.140625 12.171875 29.828125 
Q 18.359375 34.515625 30.609375 34.515625 
L 43.21875 34.515625 
L 43.21875 35.40625 
Q 43.21875 41.609375 39.140625 45 
Q 35.0625 48.390625 27.6875 48.390625 
Q 23 48.390625 18.546875 47.265625 
Q 14.109375 46.140625 10.015625 43.890625 
L 10.015625 52.203125 
Q 14.9375 54.109375 19.578125 55.046875 
Q 24.21875 56 28.609375 56 
Q 40.484375 56 46.34375 49.84375 
Q 52.203125 43.703125 52.203125 31.203125 
z
" id="DejaVuSans-97"/>
       <path d="M 54.890625 33.015625 
L 54.890625 0 
L 45.90625 0 
L 45.90625 32.71875 
Q 45.90625 40.484375 42.875 44.328125 
Q 39.84375 48.1875 33.796875 48.1875 
Q 26.515625 48.1875 22.3125 43.546875 
Q 18.109375 38.921875 18.109375 30.90625 
L 18.109375 0 
L 9.078125 0 
L 9.078125 54.6875 
L 18.109375 54.6875 
L 18.109375 46.1875 
Q 21.34375 51.125 25.703125 53.5625 
Q 30.078125 56 35.796875 56 
Q 45.21875 56 50.046875 50.171875 
Q 54.890625 44.34375 54.890625 33.015625 
z
" id="DejaVuSans-110"/>
       <path d="M 8.5 21.578125 
L 8.5 54.6875 
L 17.484375 54.6875 
L 17.484375 21.921875 
Q 17.484375 14.15625 20.5 10.265625 
Q 23.53125 6.390625 29.59375 6.390625 
Q 36.859375 6.390625 41.078125 11.03125 
Q 45.3125 15.671875 45.3125 23.6875 
L 45.3125 54.6875 
L 54.296875 54.6875 
L 54.296875 0 
L 45.3125 0 
L 45.3125 8.40625 
Q 42.046875 3.421875 37.71875 1 
Q 33.40625 -1.421875 27.6875 -1.421875 
Q 18.265625 -1.421875 13.375 4.4375 
Q 8.5 10.296875 8.5 21.578125 
z
M 31.109375 56 
z
" id="DejaVuSans-117"/>
       <path d="M 41.109375 46.296875 
Q 39.59375 47.171875 37.8125 47.578125 
Q 36.03125 48 33.890625 48 
Q 26.265625 48 22.1875 43.046875 
Q 18.109375 38.09375 18.109375 28.8125 
L 18.109375 0 
L 9.078125 0 
L 9.078125 54.6875 
L 18.109375 54.6875 
L 18.109375 46.1875 
Q 20.953125 51.171875 25.484375 53.578125 
Q 30.03125 56 36.53125 56 
Q 37.453125 56 38.578125 55.875 
Q 39.703125 55.765625 41.0625 55.515625 
z
" id="DejaVuSans-114"/>
       <path d="M 32.171875 -5.078125 
Q 28.375 -14.84375 24.75 -17.8125 
Q 21.140625 -20.796875 15.09375 -20.796875 
L 7.90625 -20.796875 
L 7.90625 -13.28125 
L 13.1875 -13.28125 
Q 16.890625 -13.28125 18.9375 -11.515625 
Q 21 -9.765625 23.484375 -3.21875 
L 25.09375 0.875 
L 2.984375 54.6875 
L 12.5 54.6875 
L 29.59375 11.921875 
L 46.6875 54.6875 
L 56.203125 54.6875 
z
" id="DejaVuSans-121"/>
      </defs>
      <g transform="translate(39.891062 402.461103)rotate(-70)scale(0.1 -0.1)">
       <use xlink:href="#DejaVuSans-74"/>
       <use x="29.492188" xlink:href="#DejaVuSans-97"/>
       <use x="90.771484" xlink:href="#DejaVuSans-110"/>
       <use x="154.150391" xlink:href="#DejaVuSans-117"/>
       <use x="217.529297" xlink:href="#DejaVuSans-97"/>
       <use x="278.808594" xlink:href="#DejaVuSans-114"/>
       <use x="319.921875" xlink:href="#DejaVuSans-121"/>
      </g>
     </g>
    </g>
    <g id="xtick_2">
     <g id="line2d_2">
      <g>
       <use style="stroke:#000000;stroke-width:0.8;" x="78.119712" xlink:href="#m1719c51bc2" y="357.237656"/>
      </g>
     </g>
     <g id="text_2">
      <!-- February -->
      <defs>
       <path d="M 9.8125 72.90625 
L 51.703125 72.90625 
L 51.703125 64.59375 
L 19.671875 64.59375 
L 19.671875 43.109375 
L 48.578125 43.109375 
L 48.578125 34.8125 
L 19.671875 34.8125 
L 19.671875 0 
L 9.8125 0 
z
" id="DejaVuSans-70"/>
       <path d="M 56.203125 29.59375 
L 56.203125 25.203125 
L 14.890625 25.203125 
Q 15.484375 15.921875 20.484375 11.0625 
Q 25.484375 6.203125 34.421875 6.203125 
Q 39.59375 6.203125 44.453125 7.46875 
Q 49.3125 8.734375 54.109375 11.28125 
L 54.109375 2.78125 
Q 49.265625 0.734375 44.1875 -0.34375 
Q 39.109375 -1.421875 33.890625 -1.421875 
Q 20.796875 -1.421875 13.15625 6.1875 
Q 5.515625 13.8125 5.515625 26.8125 
Q 5.515625 40.234375 12.765625 48.109375 
Q 20.015625 56 32.328125 56 
Q 43.359375 56 49.78125 48.890625 
Q 56.203125 41.796875 56.203125 29.59375 
z
M 47.21875 32.234375 
Q 47.125 39.59375 43.09375 43.984375 
Q 39.0625 48.390625 32.421875 48.390625 
Q 24.90625 48.390625 20.390625 44.140625 
Q 15.875 39.890625 15.1875 32.171875 
z
" id="DejaVuSans-101"/>
       <path d="M 48.6875 27.296875 
Q 48.6875 37.203125 44.609375 42.84375 
Q 40.53125 48.484375 33.40625 48.484375 
Q 26.265625 48.484375 22.1875 42.84375 
Q 18.109375 37.203125 18.109375 27.296875 
Q 18.109375 17.390625 22.1875 11.75 
Q 26.265625 6.109375 33.40625 6.109375 
Q 40.53125 6.109375 44.609375 11.75 
Q 48.6875 17.390625 48.6875 27.296875 
z
M 18.109375 46.390625 
Q 20.953125 51.265625 25.265625 53.625 
Q 29.59375 56 35.59375 56 
Q 45.5625 56 51.78125 48.09375 
Q 58.015625 40.1875 58.015625 27.296875 
Q 58.015625 14.40625 51.78125 6.484375 
Q 45.5625 -1.421875 35.59375 -1.421875 
Q 29.59375 -1.421875 25.265625 0.953125 
Q 20.953125 3.328125 18.109375 8.203125 
L 18.109375 0 
L 9.078125 0 
L 9.078125 75.984375 
L 18.109375 75.984375 
z
" id="DejaVuSans-98"/>
      </defs>
      <g transform="translate(73.042607 408.983157)rotate(-70)scale(0.1 -0.1)">
       <use xlink:href="#DejaVuSans-70"/>
       <use x="57.441406" xlink:href="#DejaVuSans-101"/>
       <use x="118.964844" xlink:href="#DejaVuSans-98"/>
       <use x="182.441406" xlink:href="#DejaVuSans-114"/>
       <use x="223.554688" xlink:href="#DejaVuSans-117"/>
       <use x="286.933594" xlink:href="#DejaVuSans-97"/>
       <use x="348.212891" xlink:href="#DejaVuSans-114"/>
       <use x="389.326172" xlink:href="#DejaVuSans-121"/>
      </g>
     </g>
    </g>
    <g id="xtick_3">
     <g id="line2d_3">
      <g>
       <use style="stroke:#000000;stroke-width:0.8;" x="112.458173" xlink:href="#m1719c51bc2" y="357.237656"/>
      </g>
     </g>
     <g id="text_3">
      <!-- March -->
      <defs>
       <path d="M 9.8125 72.90625 
L 24.515625 72.90625 
L 43.109375 23.296875 
L 61.8125 72.90625 
L 76.515625 72.90625 
L 76.515625 0 
L 66.890625 0 
L 66.890625 64.015625 
L 48.09375 14.015625 
L 38.1875 14.015625 
L 19.390625 64.015625 
L 19.390625 0 
L 9.8125 0 
z
" id="DejaVuSans-77"/>
       <path d="M 48.78125 52.59375 
L 48.78125 44.1875 
Q 44.96875 46.296875 41.140625 47.34375 
Q 37.3125 48.390625 33.40625 48.390625 
Q 24.65625 48.390625 19.8125 42.84375 
Q 14.984375 37.3125 14.984375 27.296875 
Q 14.984375 17.28125 19.8125 11.734375 
Q 24.65625 6.203125 33.40625 6.203125 
Q 37.3125 6.203125 41.140625 7.25 
Q 44.96875 8.296875 48.78125 10.40625 
L 48.78125 2.09375 
Q 45.015625 0.34375 40.984375 -0.53125 
Q 36.96875 -1.421875 32.421875 -1.421875 
Q 20.0625 -1.421875 12.78125 6.34375 
Q 5.515625 14.109375 5.515625 27.296875 
Q 5.515625 40.671875 12.859375 48.328125 
Q 20.21875 56 33.015625 56 
Q 37.15625 56 41.109375 55.140625 
Q 45.0625 54.296875 48.78125 52.59375 
z
" id="DejaVuSans-99"/>
       <path d="M 54.890625 33.015625 
L 54.890625 0 
L 45.90625 0 
L 45.90625 32.71875 
Q 45.90625 40.484375 42.875 44.328125 
Q 39.84375 48.1875 33.796875 48.1875 
Q 26.515625 48.1875 22.3125 43.546875 
Q 18.109375 38.921875 18.109375 30.90625 
L 18.109375 0 
L 9.078125 0 
L 9.078125 75.984375 
L 18.109375 75.984375 
L 18.109375 46.1875 
Q 21.34375 51.125 25.703125 53.5625 
Q 30.078125 56 35.796875 56 
Q 45.21875 56 50.046875 50.171875 
Q 54.890625 44.34375 54.890625 33.015625 
z
" id="DejaVuSans-104"/>
      </defs>
      <g transform="translate(109.801128 395.685038)rotate(-70)scale(0.1 -0.1)">
       <use xlink:href="#DejaVuSans-77"/>
       <use x="86.279297" xlink:href="#DejaVuSans-97"/>
       <use x="147.558594" xlink:href="#DejaVuSans-114"/>
       <use x="188.640625" xlink:href="#DejaVuSans-99"/>
       <use x="243.621094" xlink:href="#DejaVuSans-104"/>
      </g>
     </g>
    </g>
    <g id="xtick_4">
     <g id="line2d_4">
      <g>
       <use style="stroke:#000000;stroke-width:0.8;" x="155.38125" xlink:href="#m1719c51bc2" y="357.237656"/>
      </g>
     </g>
     <g id="text_4">
      <!-- April -->
      <defs>
       <path d="M 34.1875 63.1875 
L 20.796875 26.90625 
L 47.609375 26.90625 
z
M 28.609375 72.90625 
L 39.796875 72.90625 
L 67.578125 0 
L 57.328125 0 
L 50.6875 18.703125 
L 17.828125 18.703125 
L 11.1875 0 
L 0.78125 0 
z
" id="DejaVuSans-65"/>
       <path d="M 18.109375 8.203125 
L 18.109375 -20.796875 
L 9.078125 -20.796875 
L 9.078125 54.6875 
L 18.109375 54.6875 
L 18.109375 46.390625 
Q 20.953125 51.265625 25.265625 53.625 
Q 29.59375 56 35.59375 56 
Q 45.5625 56 51.78125 48.09375 
Q 58.015625 40.1875 58.015625 27.296875 
Q 58.015625 14.40625 51.78125 6.484375 
Q 45.5625 -1.421875 35.59375 -1.421875 
Q 29.59375 -1.421875 25.265625 0.953125 
Q 20.953125 3.328125 18.109375 8.203125 
z
M 48.6875 27.296875 
Q 48.6875 37.203125 44.609375 42.84375 
Q 40.53125 48.484375 33.40625 48.484375 
Q 26.265625 48.484375 22.1875 42.84375 
Q 18.109375 37.203125 18.109375 27.296875 
Q 18.109375 17.390625 22.1875 11.75 
Q 26.265625 6.109375 33.40625 6.109375 
Q 40.53125 6.109375 44.609375 11.75 
Q 48.6875 17.390625 48.6875 27.296875 
z
" id="DejaVuSans-112"/>
       <path d="M 9.421875 54.6875 
L 18.40625 54.6875 
L 18.40625 0 
L 9.421875 0 
z
M 9.421875 75.984375 
L 18.40625 75.984375 
L 18.40625 64.59375 
L 9.421875 64.59375 
z
" id="DejaVuSans-105"/>
       <path d="M 9.421875 75.984375 
L 18.40625 75.984375 
L 18.40625 0 
L 9.421875 0 
z
" id="DejaVuSans-108"/>
      </defs>
      <g transform="translate(154.065565 388.314324)rotate(-70)scale(0.1 -0.1)">
       <use xlink:href="#DejaVuSans-65"/>
       <use x="68.408203" xlink:href="#DejaVuSans-112"/>
       <use x="131.884766" xlink:href="#DejaVuSans-114"/>
       <use x="172.998047" xlink:href="#DejaVuSans-105"/>
       <use x="200.78125" xlink:href="#DejaVuSans-108"/>
      </g>
     </g>
    </g>
    <g id="xtick_5">
     <g id="line2d_5">
      <g>
       <use style="stroke:#000000;stroke-width:0.8;" x="189.719712" xlink:href="#m1719c51bc2" y="357.237656"/>
      </g>
     </g>
     <g id="text_5">
      <!-- May -->
      <g transform="translate(188.777043 386.26462)rotate(-70)scale(0.1 -0.1)">
       <use xlink:href="#DejaVuSans-77"/>
       <use x="86.279297" xlink:href="#DejaVuSans-97"/>
       <use x="147.558594" xlink:href="#DejaVuSans-121"/>
      </g>
     </g>
    </g>
    <g id="xtick_6">
     <g id="line2d_6">
      <g>
       <use style="stroke:#000000;stroke-width:0.8;" x="224.058173" xlink:href="#m1719c51bc2" y="357.237656"/>
      </g>
     </g>
     <g id="text_6">
      <!-- June -->
      <g transform="translate(222.926859 387.301218)rotate(-70)scale(0.1 -0.1)">
       <use xlink:href="#DejaVuSans-74"/>
       <use x="29.492188" xlink:href="#DejaVuSans-117"/>
       <use x="92.871094" xlink:href="#DejaVuSans-110"/>
       <use x="156.25" xlink:href="#DejaVuSans-101"/>
      </g>
     </g>
    </g>
    <g id="xtick_7">
     <g id="line2d_7">
      <g>
       <use style="stroke:#000000;stroke-width:0.8;" x="266.98125" xlink:href="#m1719c51bc2" y="357.237656"/>
      </g>
     </g>
     <g id="text_7">
      <!-- July -->
      <g transform="translate(266.498705 383.736259)rotate(-70)scale(0.1 -0.1)">
       <use xlink:href="#DejaVuSans-74"/>
       <use x="29.492188" xlink:href="#DejaVuSans-117"/>
       <use x="92.871094" xlink:href="#DejaVuSans-108"/>
       <use x="120.654297" xlink:href="#DejaVuSans-121"/>
      </g>
     </g>
    </g>
    <g id="xtick_8">
     <g id="line2d_8">
      <g>
       <use style="stroke:#000000;stroke-width:0.8;" x="301.319712" xlink:href="#m1719c51bc2" y="357.237656"/>
      </g>
     </g>
     <g id="text_8">
      <!-- August -->
      <defs>
       <path d="M 45.40625 27.984375 
Q 45.40625 37.75 41.375 43.109375 
Q 37.359375 48.484375 30.078125 48.484375 
Q 22.859375 48.484375 18.828125 43.109375 
Q 14.796875 37.75 14.796875 27.984375 
Q 14.796875 18.265625 18.828125 12.890625 
Q 22.859375 7.515625 30.078125 7.515625 
Q 37.359375 7.515625 41.375 12.890625 
Q 45.40625 18.265625 45.40625 27.984375 
z
M 54.390625 6.78125 
Q 54.390625 -7.171875 48.1875 -13.984375 
Q 42 -20.796875 29.203125 -20.796875 
Q 24.46875 -20.796875 20.265625 -20.09375 
Q 16.0625 -19.390625 12.109375 -17.921875 
L 12.109375 -9.1875 
Q 16.0625 -11.328125 19.921875 -12.34375 
Q 23.78125 -13.375 27.78125 -13.375 
Q 36.625 -13.375 41.015625 -8.765625 
Q 45.40625 -4.15625 45.40625 5.171875 
L 45.40625 9.625 
Q 42.625 4.78125 38.28125 2.390625 
Q 33.9375 0 27.875 0 
Q 17.828125 0 11.671875 7.65625 
Q 5.515625 15.328125 5.515625 27.984375 
Q 5.515625 40.671875 11.671875 48.328125 
Q 17.828125 56 27.875 56 
Q 33.9375 56 38.28125 53.609375 
Q 42.625 51.21875 45.40625 46.390625 
L 45.40625 54.6875 
L 54.390625 54.6875 
z
" id="DejaVuSans-103"/>
       <path d="M 44.28125 53.078125 
L 44.28125 44.578125 
Q 40.484375 46.53125 36.375 47.5 
Q 32.28125 48.484375 27.875 48.484375 
Q 21.1875 48.484375 17.84375 46.4375 
Q 14.5 44.390625 14.5 40.28125 
Q 14.5 37.15625 16.890625 35.375 
Q 19.28125 33.59375 26.515625 31.984375 
L 29.59375 31.296875 
Q 39.15625 29.25 43.1875 25.515625 
Q 47.21875 21.78125 47.21875 15.09375 
Q 47.21875 7.46875 41.1875 3.015625 
Q 35.15625 -1.421875 24.609375 -1.421875 
Q 20.21875 -1.421875 15.453125 -0.5625 
Q 10.6875 0.296875 5.421875 2 
L 5.421875 11.28125 
Q 10.40625 8.6875 15.234375 7.390625 
Q 20.0625 6.109375 24.8125 6.109375 
Q 31.15625 6.109375 34.5625 8.28125 
Q 37.984375 10.453125 37.984375 14.40625 
Q 37.984375 18.0625 35.515625 20.015625 
Q 33.0625 21.96875 24.703125 23.78125 
L 21.578125 24.515625 
Q 13.234375 26.265625 9.515625 29.90625 
Q 5.8125 33.546875 5.8125 39.890625 
Q 5.8125 47.609375 11.28125 51.796875 
Q 16.75 56 26.8125 56 
Q 31.78125 56 36.171875 55.265625 
Q 40.578125 54.546875 44.28125 53.078125 
z
" id="DejaVuSans-115"/>
       <path d="M 18.3125 70.21875 
L 18.3125 54.6875 
L 36.8125 54.6875 
L 36.8125 47.703125 
L 18.3125 47.703125 
L 18.3125 18.015625 
Q 18.3125 11.328125 20.140625 9.421875 
Q 21.96875 7.515625 27.59375 7.515625 
L 36.8125 7.515625 
L 36.8125 0 
L 27.59375 0 
Q 17.1875 0 13.234375 3.875 
Q 9.28125 7.765625 9.28125 18.015625 
L 9.28125 47.703125 
L 2.6875 47.703125 
L 2.6875 54.6875 
L 9.28125 54.6875 
L 9.28125 70.21875 
z
" id="DejaVuSans-116"/>
      </defs>
      <g transform="translate(297.928392 399.719844)rotate(-70)scale(0.1 -0.1)">
       <use xlink:href="#DejaVuSans-65"/>
       <use x="68.408203" xlink:href="#DejaVuSans-117"/>
       <use x="131.787109" xlink:href="#DejaVuSans-103"/>
       <use x="195.263672" xlink:href="#DejaVuSans-117"/>
       <use x="258.642578" xlink:href="#DejaVuSans-115"/>
       <use x="310.742188" xlink:href="#DejaVuSans-116"/>
      </g>
     </g>
    </g>
    <g id="xtick_9">
     <g id="line2d_9">
      <g>
       <use style="stroke:#000000;stroke-width:0.8;" x="335.658173" xlink:href="#m1719c51bc2" y="357.237656"/>
      </g>
     </g>
     <g id="text_9">
      <!-- September -->
      <defs>
       <path d="M 53.515625 70.515625 
L 53.515625 60.890625 
Q 47.90625 63.578125 42.921875 64.890625 
Q 37.9375 66.21875 33.296875 66.21875 
Q 25.25 66.21875 20.875 63.09375 
Q 16.5 59.96875 16.5 54.203125 
Q 16.5 49.359375 19.40625 46.890625 
Q 22.3125 44.4375 30.421875 42.921875 
L 36.375 41.703125 
Q 47.40625 39.59375 52.65625 34.296875 
Q 57.90625 29 57.90625 20.125 
Q 57.90625 9.515625 50.796875 4.046875 
Q 43.703125 -1.421875 29.984375 -1.421875 
Q 24.8125 -1.421875 18.96875 -0.25 
Q 13.140625 0.921875 6.890625 3.21875 
L 6.890625 13.375 
Q 12.890625 10.015625 18.65625 8.296875 
Q 24.421875 6.59375 29.984375 6.59375 
Q 38.421875 6.59375 43.015625 9.90625 
Q 47.609375 13.234375 47.609375 19.390625 
Q 47.609375 24.75 44.3125 27.78125 
Q 41.015625 30.8125 33.5 32.328125 
L 27.484375 33.5 
Q 16.453125 35.6875 11.515625 40.375 
Q 6.59375 45.0625 6.59375 53.421875 
Q 6.59375 63.09375 13.40625 68.65625 
Q 20.21875 74.21875 32.171875 74.21875 
Q 37.3125 74.21875 42.625 73.28125 
Q 47.953125 72.359375 53.515625 70.515625 
z
" id="DejaVuSans-83"/>
       <path d="M 52 44.1875 
Q 55.375 50.25 60.0625 53.125 
Q 64.75 56 71.09375 56 
Q 79.640625 56 84.28125 50.015625 
Q 88.921875 44.046875 88.921875 33.015625 
L 88.921875 0 
L 79.890625 0 
L 79.890625 32.71875 
Q 79.890625 40.578125 77.09375 44.375 
Q 74.3125 48.1875 68.609375 48.1875 
Q 61.625 48.1875 57.5625 43.546875 
Q 53.515625 38.921875 53.515625 30.90625 
L 53.515625 0 
L 44.484375 0 
L 44.484375 32.71875 
Q 44.484375 40.625 41.703125 44.40625 
Q 38.921875 48.1875 33.109375 48.1875 
Q 26.21875 48.1875 22.15625 43.53125 
Q 18.109375 38.875 18.109375 30.90625 
L 18.109375 0 
L 9.078125 0 
L 9.078125 54.6875 
L 18.109375 54.6875 
L 18.109375 46.1875 
Q 21.1875 51.21875 25.484375 53.609375 
Q 29.78125 56 35.6875 56 
Q 41.65625 56 45.828125 52.96875 
Q 50 49.953125 52 44.1875 
z
" id="DejaVuSans-109"/>
      </defs>
      <g transform="translate(328.798288 418.779453)rotate(-70)scale(0.1 -0.1)">
       <use xlink:href="#DejaVuSans-83"/>
       <use x="63.476562" xlink:href="#DejaVuSans-101"/>
       <use x="125" xlink:href="#DejaVuSans-112"/>
       <use x="188.476562" xlink:href="#DejaVuSans-116"/>
       <use x="227.685547" xlink:href="#DejaVuSans-101"/>
       <use x="289.208984" xlink:href="#DejaVuSans-109"/>
       <use x="386.621094" xlink:href="#DejaVuSans-98"/>
       <use x="450.097656" xlink:href="#DejaVuSans-101"/>
       <use x="511.621094" xlink:href="#DejaVuSans-114"/>
      </g>
     </g>
    </g>
    <g id="xtick_10">
     <g id="line2d_10">
      <g>
       <use style="stroke:#000000;stroke-width:0.8;" x="378.58125" xlink:href="#m1719c51bc2" y="357.237656"/>
      </g>
     </g>
     <g id="text_10">
      <!-- October -->
      <defs>
       <path d="M 39.40625 66.21875 
Q 28.65625 66.21875 22.328125 58.203125 
Q 16.015625 50.203125 16.015625 36.375 
Q 16.015625 22.609375 22.328125 14.59375 
Q 28.65625 6.59375 39.40625 6.59375 
Q 50.140625 6.59375 56.421875 14.59375 
Q 62.703125 22.609375 62.703125 36.375 
Q 62.703125 50.203125 56.421875 58.203125 
Q 50.140625 66.21875 39.40625 66.21875 
z
M 39.40625 74.21875 
Q 54.734375 74.21875 63.90625 63.9375 
Q 73.09375 53.65625 73.09375 36.375 
Q 73.09375 19.140625 63.90625 8.859375 
Q 54.734375 -1.421875 39.40625 -1.421875 
Q 24.03125 -1.421875 14.8125 8.828125 
Q 5.609375 19.09375 5.609375 36.375 
Q 5.609375 53.65625 14.8125 63.9375 
Q 24.03125 74.21875 39.40625 74.21875 
z
" id="DejaVuSans-79"/>
       <path d="M 30.609375 48.390625 
Q 23.390625 48.390625 19.1875 42.75 
Q 14.984375 37.109375 14.984375 27.296875 
Q 14.984375 17.484375 19.15625 11.84375 
Q 23.34375 6.203125 30.609375 6.203125 
Q 37.796875 6.203125 41.984375 11.859375 
Q 46.1875 17.53125 46.1875 27.296875 
Q 46.1875 37.015625 41.984375 42.703125 
Q 37.796875 48.390625 30.609375 48.390625 
z
M 30.609375 56 
Q 42.328125 56 49.015625 48.375 
Q 55.71875 40.765625 55.71875 27.296875 
Q 55.71875 13.875 49.015625 6.21875 
Q 42.328125 -1.421875 30.609375 -1.421875 
Q 18.84375 -1.421875 12.171875 6.21875 
Q 5.515625 13.875 5.515625 27.296875 
Q 5.515625 40.765625 12.171875 48.375 
Q 18.84375 56 30.609375 56 
z
" id="DejaVuSans-111"/>
      </defs>
      <g transform="translate(374.330071 404.444736)rotate(-70)scale(0.1 -0.1)">
       <use xlink:href="#DejaVuSans-79"/>
       <use x="78.710938" xlink:href="#DejaVuSans-99"/>
       <use x="133.691406" xlink:href="#DejaVuSans-116"/>
       <use x="172.900391" xlink:href="#DejaVuSans-111"/>
       <use x="234.082031" xlink:href="#DejaVuSans-98"/>
       <use x="297.558594" xlink:href="#DejaVuSans-101"/>
       <use x="359.082031" xlink:href="#DejaVuSans-114"/>
      </g>
     </g>
    </g>
    <g id="xtick_11">
     <g id="line2d_11">
      <g>
       <use style="stroke:#000000;stroke-width:0.8;" x="412.919712" xlink:href="#m1719c51bc2" y="357.237656"/>
      </g>
     </g>
     <g id="text_11">
      <!-- November -->
      <defs>
       <path d="M 9.8125 72.90625 
L 23.09375 72.90625 
L 55.421875 11.921875 
L 55.421875 72.90625 
L 64.984375 72.90625 
L 64.984375 0 
L 51.703125 0 
L 19.390625 60.984375 
L 19.390625 0 
L 9.8125 0 
z
" id="DejaVuSans-78"/>
       <path d="M 2.984375 54.6875 
L 12.5 54.6875 
L 29.59375 8.796875 
L 46.6875 54.6875 
L 56.203125 54.6875 
L 35.6875 0 
L 23.484375 0 
z
" id="DejaVuSans-118"/>
      </defs>
      <g transform="translate(406.615877 415.723984)rotate(-70)scale(0.1 -0.1)">
       <use xlink:href="#DejaVuSans-78"/>
       <use x="74.804688" xlink:href="#DejaVuSans-111"/>
       <use x="135.986328" xlink:href="#DejaVuSans-118"/>
       <use x="195.166016" xlink:href="#DejaVuSans-101"/>
       <use x="256.689453" xlink:href="#DejaVuSans-109"/>
       <use x="354.101562" xlink:href="#DejaVuSans-98"/>
       <use x="417.578125" xlink:href="#DejaVuSans-101"/>
       <use x="479.101562" xlink:href="#DejaVuSans-114"/>
      </g>
     </g>
    </g>
    <g id="xtick_12">
     <g id="line2d_12">
      <g>
       <use style="stroke:#000000;stroke-width:0.8;" x="447.258173" xlink:href="#m1719c51bc2" y="357.237656"/>
      </g>
     </g>
     <g id="text_12">
      <!-- December -->
      <defs>
       <path d="M 19.671875 64.796875 
L 19.671875 8.109375 
L 31.59375 8.109375 
Q 46.6875 8.109375 53.6875 14.9375 
Q 60.6875 21.78125 60.6875 36.53125 
Q 60.6875 51.171875 53.6875 57.984375 
Q 46.6875 64.796875 31.59375 64.796875 
z
M 9.8125 72.90625 
L 30.078125 72.90625 
Q 51.265625 72.90625 61.171875 64.09375 
Q 71.09375 55.28125 71.09375 36.53125 
Q 71.09375 17.671875 61.125 8.828125 
Q 51.171875 0 30.078125 0 
L 9.8125 0 
z
" id="DejaVuSans-68"/>
      </defs>
      <g transform="translate(440.982929 415.566879)rotate(-70)scale(0.1 -0.1)">
       <use xlink:href="#DejaVuSans-68"/>
       <use x="77.001953" xlink:href="#DejaVuSans-101"/>
       <use x="138.525391" xlink:href="#DejaVuSans-99"/>
       <use x="193.505859" xlink:href="#DejaVuSans-101"/>
       <use x="255.029297" xlink:href="#DejaVuSans-109"/>
       <use x="352.441406" xlink:href="#DejaVuSans-98"/>
       <use x="415.917969" xlink:href="#DejaVuSans-101"/>
       <use x="477.441406" xlink:href="#DejaVuSans-114"/>
      </g>
     </g>
    </g>
    <g id="text_13">
     <!-- Date -->
     <g transform="translate(255.030469 431.089185)scale(0.1 -0.1)">
      <use xlink:href="#DejaVuSans-68"/>
      <use x="77.001953" xlink:href="#DejaVuSans-97"/>
      <use x="138.28125" xlink:href="#DejaVuSans-116"/>
      <use x="177.490234" xlink:href="#DejaVuSans-101"/>
     </g>
    </g>
   </g>
   <g id="matplotlib.axis_2">
    <g id="ytick_1">
     <g id="line2d_13">
      <defs>
       <path d="M 0 0 
L -3.5 0 
" id="m68f5a7ee87" style="stroke:#000000;stroke-width:0.8;"/>
      </defs>
      <g>
       <use style="stroke:#000000;stroke-width:0.8;" x="43.78125" xlink:href="#m68f5a7ee87" y="357.237656"/>
      </g>
     </g>
     <g id="text_14">
      <!-- 0.0 -->
      <defs>
       <path d="M 31.78125 66.40625 
Q 24.171875 66.40625 20.328125 58.90625 
Q 16.5 51.421875 16.5 36.375 
Q 16.5 21.390625 20.328125 13.890625 
Q 24.171875 6.390625 31.78125 6.390625 
Q 39.453125 6.390625 43.28125 13.890625 
Q 47.125 21.390625 47.125 36.375 
Q 47.125 51.421875 43.28125 58.90625 
Q 39.453125 66.40625 31.78125 66.40625 
z
M 31.78125 74.21875 
Q 44.046875 74.21875 50.515625 64.515625 
Q 56.984375 54.828125 56.984375 36.375 
Q 56.984375 17.96875 50.515625 8.265625 
Q 44.046875 -1.421875 31.78125 -1.421875 
Q 19.53125 -1.421875 13.0625 8.265625 
Q 6.59375 17.96875 6.59375 36.375 
Q 6.59375 54.828125 13.0625 64.515625 
Q 19.53125 74.21875 31.78125 74.21875 
z
" id="DejaVuSans-48"/>
       <path d="M 10.6875 12.40625 
L 21 12.40625 
L 21 0 
L 10.6875 0 
z
" id="DejaVuSans-46"/>
      </defs>
      <g transform="translate(20.878125 361.036875)scale(0.1 -0.1)">
       <use xlink:href="#DejaVuSans-48"/>
       <use x="63.623047" xlink:href="#DejaVuSans-46"/>
       <use x="95.410156" xlink:href="#DejaVuSans-48"/>
      </g>
     </g>
    </g>
    <g id="ytick_2">
     <g id="line2d_14">
      <g>
       <use style="stroke:#000000;stroke-width:0.8;" x="43.78125" xlink:href="#m68f5a7ee87" y="297.221409"/>
      </g>
     </g>
     <g id="text_15">
      <!-- 0.5 -->
      <defs>
       <path d="M 10.796875 72.90625 
L 49.515625 72.90625 
L 49.515625 64.59375 
L 19.828125 64.59375 
L 19.828125 46.734375 
Q 21.96875 47.46875 24.109375 47.828125 
Q 26.265625 48.1875 28.421875 48.1875 
Q 40.625 48.1875 47.75 41.5 
Q 54.890625 34.8125 54.890625 23.390625 
Q 54.890625 11.625 47.5625 5.09375 
Q 40.234375 -1.421875 26.90625 -1.421875 
Q 22.3125 -1.421875 17.546875 -0.640625 
Q 12.796875 0.140625 7.71875 1.703125 
L 7.71875 11.625 
Q 12.109375 9.234375 16.796875 8.0625 
Q 21.484375 6.890625 26.703125 6.890625 
Q 35.15625 6.890625 40.078125 11.328125 
Q 45.015625 15.765625 45.015625 23.390625 
Q 45.015625 31 40.078125 35.4375 
Q 35.15625 39.890625 26.703125 39.890625 
Q 22.75 39.890625 18.8125 39.015625 
Q 14.890625 38.140625 10.796875 36.28125 
z
" id="DejaVuSans-53"/>
      </defs>
      <g transform="translate(20.878125 301.020628)scale(0.1 -0.1)">
       <use xlink:href="#DejaVuSans-48"/>
       <use x="63.623047" xlink:href="#DejaVuSans-46"/>
       <use x="95.410156" xlink:href="#DejaVuSans-53"/>
      </g>
     </g>
    </g>
    <g id="ytick_3">
     <g id="line2d_15">
      <g>
       <use style="stroke:#000000;stroke-width:0.8;" x="43.78125" xlink:href="#m68f5a7ee87" y="237.205162"/>
      </g>
     </g>
     <g id="text_16">
      <!-- 1.0 -->
      <defs>
       <path d="M 12.40625 8.296875 
L 28.515625 8.296875 
L 28.515625 63.921875 
L 10.984375 60.40625 
L 10.984375 69.390625 
L 28.421875 72.90625 
L 38.28125 72.90625 
L 38.28125 8.296875 
L 54.390625 8.296875 
L 54.390625 0 
L 12.40625 0 
z
" id="DejaVuSans-49"/>
      </defs>
      <g transform="translate(20.878125 241.004381)scale(0.1 -0.1)">
       <use xlink:href="#DejaVuSans-49"/>
       <use x="63.623047" xlink:href="#DejaVuSans-46"/>
       <use x="95.410156" xlink:href="#DejaVuSans-48"/>
      </g>
     </g>
    </g>
    <g id="ytick_4">
     <g id="line2d_16">
      <g>
       <use style="stroke:#000000;stroke-width:0.8;" x="43.78125" xlink:href="#m68f5a7ee87" y="177.188915"/>
      </g>
     </g>
     <g id="text_17">
      <!-- 1.5 -->
      <g transform="translate(20.878125 180.988134)scale(0.1 -0.1)">
       <use xlink:href="#DejaVuSans-49"/>
       <use x="63.623047" xlink:href="#DejaVuSans-46"/>
       <use x="95.410156" xlink:href="#DejaVuSans-53"/>
      </g>
     </g>
    </g>
    <g id="ytick_5">
     <g id="line2d_17">
      <g>
       <use style="stroke:#000000;stroke-width:0.8;" x="43.78125" xlink:href="#m68f5a7ee87" y="117.172668"/>
      </g>
     </g>
     <g id="text_18">
      <!-- 2.0 -->
      <defs>
       <path d="M 19.1875 8.296875 
L 53.609375 8.296875 
L 53.609375 0 
L 7.328125 0 
L 7.328125 8.296875 
Q 12.9375 14.109375 22.625 23.890625 
Q 32.328125 33.6875 34.8125 36.53125 
Q 39.546875 41.84375 41.421875 45.53125 
Q 43.3125 49.21875 43.3125 52.78125 
Q 43.3125 58.59375 39.234375 62.25 
Q 35.15625 65.921875 28.609375 65.921875 
Q 23.96875 65.921875 18.8125 64.3125 
Q 13.671875 62.703125 7.8125 59.421875 
L 7.8125 69.390625 
Q 13.765625 71.78125 18.9375 73 
Q 24.125 74.21875 28.421875 74.21875 
Q 39.75 74.21875 46.484375 68.546875 
Q 53.21875 62.890625 53.21875 53.421875 
Q 53.21875 48.921875 51.53125 44.890625 
Q 49.859375 40.875 45.40625 35.40625 
Q 44.1875 33.984375 37.640625 27.21875 
Q 31.109375 20.453125 19.1875 8.296875 
z
" id="DejaVuSans-50"/>
      </defs>
      <g transform="translate(20.878125 120.971887)scale(0.1 -0.1)">
       <use xlink:href="#DejaVuSans-50"/>
       <use x="63.623047" xlink:href="#DejaVuSans-46"/>
       <use x="95.410156" xlink:href="#DejaVuSans-48"/>
      </g>
     </g>
    </g>
    <g id="ytick_6">
     <g id="line2d_18">
      <g>
       <use style="stroke:#000000;stroke-width:0.8;" x="43.78125" xlink:href="#m68f5a7ee87" y="57.156421"/>
      </g>
     </g>
     <g id="text_19">
      <!-- 2.5 -->
      <g transform="translate(20.878125 60.95564)scale(0.1 -0.1)">
       <use xlink:href="#DejaVuSans-50"/>
       <use x="63.623047" xlink:href="#DejaVuSans-46"/>
       <use x="95.410156" xlink:href="#DejaVuSans-53"/>
      </g>
     </g>
    </g>
    <g id="text_20">
     <!-- GW -->
     <defs>
      <path d="M 59.515625 10.40625 
L 59.515625 29.984375 
L 43.40625 29.984375 
L 43.40625 38.09375 
L 69.28125 38.09375 
L 69.28125 6.78125 
Q 63.578125 2.734375 56.6875 0.65625 
Q 49.8125 -1.421875 42 -1.421875 
Q 24.90625 -1.421875 15.25 8.5625 
Q 5.609375 18.5625 5.609375 36.375 
Q 5.609375 54.25 15.25 64.234375 
Q 24.90625 74.21875 42 74.21875 
Q 49.125 74.21875 55.546875 72.453125 
Q 61.96875 70.703125 67.390625 67.28125 
L 67.390625 56.78125 
Q 61.921875 61.421875 55.765625 63.765625 
Q 49.609375 66.109375 42.828125 66.109375 
Q 29.4375 66.109375 22.71875 58.640625 
Q 16.015625 51.171875 16.015625 36.375 
Q 16.015625 21.625 22.71875 14.15625 
Q 29.4375 6.6875 42.828125 6.6875 
Q 48.046875 6.6875 52.140625 7.59375 
Q 56.25 8.5 59.515625 10.40625 
z
" id="DejaVuSans-71"/>
      <path d="M 3.328125 72.90625 
L 13.28125 72.90625 
L 28.609375 11.28125 
L 43.890625 72.90625 
L 54.984375 72.90625 
L 70.3125 11.28125 
L 85.59375 72.90625 
L 95.609375 72.90625 
L 77.296875 0 
L 64.890625 0 
L 49.515625 63.28125 
L 33.984375 0 
L 21.578125 0 
z
" id="DejaVuSans-87"/>
     </defs>
     <g transform="translate(14.798438 199.735625)rotate(-90)scale(0.1 -0.1)">
      <use xlink:href="#DejaVuSans-71"/>
      <use x="77.490234" xlink:href="#DejaVuSans-87"/>
     </g>
    </g>
   </g>
   <g id="line2d_19">
    <path clip-path="url(#p76d350c000)" d="M 43.78125 114.879581 
L 52.365865 114.364679 
L 60.950481 100.965586 
L 69.535096 102.357421 
L 78.119712 109.846978 
L 86.704327 97.328482 
L 95.288942 92.544408 
L 103.873558 86.783406 
L 112.458173 102.217034 
L 121.042788 94.383306 
L 129.627404 106.189152 
L 138.212019 92.414716 
L 146.796635 94.671684 
L 155.38125 97.431767 
L 163.965865 94.200378 
L 172.550481 100.124167 
L 181.135096 84.171992 
L 189.719712 81.90042 
L 198.304327 74.633374 
L 206.888942 92.818054 
L 215.473558 103.167191 
L 224.058173 103.918309 
L 232.642788 106.331676 
L 241.227404 100.594102 
L 249.812019 92.682016 
L 258.396635 114.702474 
L 266.98125 113.154387 
L 275.565865 119.560736 
L 284.150481 116.259164 
L 292.735096 112.766404 
L 301.319712 113.819753 
L 309.904327 108.786212 
L 318.488942 110.414374 
L 327.073558 106.185644 
L 335.658173 102.327285 
L 344.242788 106.990926 
L 352.827404 100.841444 
L 361.412019 100.10867 
L 369.996635 102.008066 
L 378.58125 102.226226 
L 387.165865 104.426225 
L 395.750481 98.725082 
L 404.335096 91.792362 
L 412.919712 91.497568 
L 421.504327 78.624154 
L 430.088942 74.176479 
L 438.673558 72.057977 
L 447.258173 78.041039 
L 455.842788 72.301432 
L 464.427404 64.337151 
L 473.012019 56.003573 
L 481.596635 77.977586 
L 490.18125 65.765177 
" style="fill:none;stroke:#000000;stroke-linecap:square;stroke-opacity:0.5;stroke-width:3;"/>
   </g>
   <g id="patch_3">
    <path d="M 43.78125 357.237656 
L 43.78125 24.597656 
" style="fill:none;stroke:#000000;stroke-linecap:square;stroke-linejoin:miter;stroke-width:0.8;"/>
   </g>
   <g id="patch_4">
    <path d="M 490.18125 357.237656 
L 490.18125 24.597656 
" style="fill:none;stroke:#000000;stroke-linecap:square;stroke-linejoin:miter;stroke-width:0.8;"/>
   </g>
   <g id="patch_5">
    <path d="M 43.78125 357.237656 
L 490.18125 357.237656 
" style="fill:none;stroke:#000000;stroke-linecap:square;stroke-linejoin:miter;stroke-width:0.8;"/>
   </g>
   <g id="patch_6">
    <path d="M 43.78125 24.597656 
L 490.18125 24.597656 
" style="fill:none;stroke:#000000;stroke-linecap:square;stroke-linejoin:miter;stroke-width:0.8;"/>
   </g>
   <g id="text_21">
    <!-- System Dispatch -->
    <defs>
     <path id="DejaVuSans-32"/>
    </defs>
    <g transform="translate(203.689453 18.597656)scale(0.15 -0.15)">
     <use xlink:href="#DejaVuSans-83"/>
     <use x="63.476562" xlink:href="#DejaVuSans-121"/>
     <use x="122.65625" xlink:href="#DejaVuSans-115"/>
     <use x="174.755859" xlink:href="#DejaVuSans-116"/>
     <use x="213.964844" xlink:href="#DejaVuSans-101"/>
     <use x="275.488281" xlink:href="#DejaVuSans-109"/>
     <use x="372.900391" xlink:href="#DejaVuSans-32"/>
     <use x="404.6875" xlink:href="#DejaVuSans-68"/>
     <use x="481.689453" xlink:href="#DejaVuSans-105"/>
     <use x="509.472656" xlink:href="#DejaVuSans-115"/>
     <use x="561.572266" xlink:href="#DejaVuSans-112"/>
     <use x="625.048828" xlink:href="#DejaVuSans-97"/>
     <use x="686.328125" xlink:href="#DejaVuSans-116"/>
     <use x="725.537109" xlink:href="#DejaVuSans-99"/>
     <use x="780.517578" xlink:href="#DejaVuSans-104"/>
    </g>
   </g>
   <g id="legend_1">
    <g id="patch_7">
     <path d="M 514.50125 130.344531 
L 685.737188 130.344531 
Q 687.737188 130.344531 687.737188 128.344531 
L 687.737188 26.597656 
Q 687.737188 24.597656 685.737188 24.597656 
L 514.50125 24.597656 
Q 512.50125 24.597656 512.50125 26.597656 
L 512.50125 128.344531 
Q 512.50125 130.344531 514.50125 130.344531 
z
" style="fill:#ffffff;opacity:0.8;stroke:#cccccc;stroke-linejoin:miter;"/>
    </g>
    <g id="line2d_20">
     <path d="M 516.50125 32.696094 
L 536.50125 32.696094 
" style="fill:none;stroke:#000000;stroke-linecap:square;stroke-opacity:0.5;stroke-width:3;"/>
    </g>
    <g id="line2d_21"/>
    <g id="text_22">
     <!-- Demand -->
     <defs>
      <path d="M 45.40625 46.390625 
L 45.40625 75.984375 
L 54.390625 75.984375 
L 54.390625 0 
L 45.40625 0 
L 45.40625 8.203125 
Q 42.578125 3.328125 38.25 0.953125 
Q 33.9375 -1.421875 27.875 -1.421875 
Q 17.96875 -1.421875 11.734375 6.484375 
Q 5.515625 14.40625 5.515625 27.296875 
Q 5.515625 40.1875 11.734375 48.09375 
Q 17.96875 56 27.875 56 
Q 33.9375 56 38.25 53.625 
Q 42.578125 51.265625 45.40625 46.390625 
z
M 14.796875 27.296875 
Q 14.796875 17.390625 18.875 11.75 
Q 22.953125 6.109375 30.078125 6.109375 
Q 37.203125 6.109375 41.296875 11.75 
Q 45.40625 17.390625 45.40625 27.296875 
Q 45.40625 37.203125 41.296875 42.84375 
Q 37.203125 48.484375 30.078125 48.484375 
Q 22.953125 48.484375 18.875 42.84375 
Q 14.796875 37.203125 14.796875 27.296875 
z
" id="DejaVuSans-100"/>
     </defs>
     <g transform="translate(544.50125 36.196094)scale(0.1 -0.1)">
      <use xlink:href="#DejaVuSans-68"/>
      <use x="77.001953" xlink:href="#DejaVuSans-101"/>
      <use x="138.525391" xlink:href="#DejaVuSans-109"/>
      <use x="235.9375" xlink:href="#DejaVuSans-97"/>
      <use x="297.216797" xlink:href="#DejaVuSans-110"/>
      <use x="360.595703" xlink:href="#DejaVuSans-100"/>
     </g>
    </g>
    <g id="patch_8">
     <path d="M 516.50125 50.874219 
L 536.50125 50.874219 
L 536.50125 43.874219 
L 516.50125 43.874219 
z
" style="fill:#2980b9;"/>
    </g>
    <g id="text_23">
     <!-- Old Hydro -->
     <defs>
      <path d="M 9.8125 72.90625 
L 19.671875 72.90625 
L 19.671875 43.015625 
L 55.515625 43.015625 
L 55.515625 72.90625 
L 65.375 72.90625 
L 65.375 0 
L 55.515625 0 
L 55.515625 34.71875 
L 19.671875 34.71875 
L 19.671875 0 
L 9.8125 0 
z
" id="DejaVuSans-72"/>
     </defs>
     <g transform="translate(544.50125 50.874219)scale(0.1 -0.1)">
      <use xlink:href="#DejaVuSans-79"/>
      <use x="78.710938" xlink:href="#DejaVuSans-108"/>
      <use x="106.494141" xlink:href="#DejaVuSans-100"/>
      <use x="169.970703" xlink:href="#DejaVuSans-32"/>
      <use x="201.757812" xlink:href="#DejaVuSans-72"/>
      <use x="276.953125" xlink:href="#DejaVuSans-121"/>
      <use x="336.132812" xlink:href="#DejaVuSans-100"/>
      <use x="399.609375" xlink:href="#DejaVuSans-114"/>
      <use x="440.691406" xlink:href="#DejaVuSans-111"/>
     </g>
    </g>
    <g id="patch_9">
     <path d="M 516.50125 65.552344 
L 536.50125 65.552344 
L 536.50125 58.552344 
L 516.50125 58.552344 
z
" style="fill:#3498db;"/>
    </g>
    <g id="text_24">
     <!-- New Hydro -->
     <defs>
      <path d="M 4.203125 54.6875 
L 13.1875 54.6875 
L 24.421875 12.015625 
L 35.59375 54.6875 
L 46.1875 54.6875 
L 57.421875 12.015625 
L 68.609375 54.6875 
L 77.59375 54.6875 
L 63.28125 0 
L 52.6875 0 
L 40.921875 44.828125 
L 29.109375 0 
L 18.5 0 
z
" id="DejaVuSans-119"/>
     </defs>
     <g transform="translate(544.50125 65.552344)scale(0.1 -0.1)">
      <use xlink:href="#DejaVuSans-78"/>
      <use x="74.804688" xlink:href="#DejaVuSans-101"/>
      <use x="136.328125" xlink:href="#DejaVuSans-119"/>
      <use x="218.115234" xlink:href="#DejaVuSans-32"/>
      <use x="249.902344" xlink:href="#DejaVuSans-72"/>
      <use x="325.097656" xlink:href="#DejaVuSans-121"/>
      <use x="384.277344" xlink:href="#DejaVuSans-100"/>
      <use x="447.753906" xlink:href="#DejaVuSans-114"/>
      <use x="488.835938" xlink:href="#DejaVuSans-111"/>
     </g>
    </g>
    <g id="patch_10">
     <path d="M 516.50125 80.230469 
L 536.50125 80.230469 
L 536.50125 73.230469 
L 516.50125 73.230469 
z
" style="fill:#ba4a00;"/>
    </g>
    <g id="text_25">
     <!-- Combined Cycle -->
     <defs>
      <path d="M 64.40625 67.28125 
L 64.40625 56.890625 
Q 59.421875 61.53125 53.78125 63.8125 
Q 48.140625 66.109375 41.796875 66.109375 
Q 29.296875 66.109375 22.65625 58.46875 
Q 16.015625 50.828125 16.015625 36.375 
Q 16.015625 21.96875 22.65625 14.328125 
Q 29.296875 6.6875 41.796875 6.6875 
Q 48.140625 6.6875 53.78125 8.984375 
Q 59.421875 11.28125 64.40625 15.921875 
L 64.40625 5.609375 
Q 59.234375 2.09375 53.4375 0.328125 
Q 47.65625 -1.421875 41.21875 -1.421875 
Q 24.65625 -1.421875 15.125 8.703125 
Q 5.609375 18.84375 5.609375 36.375 
Q 5.609375 53.953125 15.125 64.078125 
Q 24.65625 74.21875 41.21875 74.21875 
Q 47.75 74.21875 53.53125 72.484375 
Q 59.328125 70.75 64.40625 67.28125 
z
" id="DejaVuSans-67"/>
     </defs>
     <g transform="translate(544.50125 80.230469)scale(0.1 -0.1)">
      <use xlink:href="#DejaVuSans-67"/>
      <use x="69.824219" xlink:href="#DejaVuSans-111"/>
      <use x="131.005859" xlink:href="#DejaVuSans-109"/>
      <use x="228.417969" xlink:href="#DejaVuSans-98"/>
      <use x="291.894531" xlink:href="#DejaVuSans-105"/>
      <use x="319.677734" xlink:href="#DejaVuSans-110"/>
      <use x="383.056641" xlink:href="#DejaVuSans-101"/>
      <use x="444.580078" xlink:href="#DejaVuSans-100"/>
      <use x="508.056641" xlink:href="#DejaVuSans-32"/>
      <use x="539.84375" xlink:href="#DejaVuSans-67"/>
      <use x="609.667969" xlink:href="#DejaVuSans-121"/>
      <use x="668.847656" xlink:href="#DejaVuSans-99"/>
      <use x="723.828125" xlink:href="#DejaVuSans-108"/>
      <use x="751.611328" xlink:href="#DejaVuSans-101"/>
     </g>
    </g>
    <g id="patch_11">
     <path d="M 516.50125 94.908594 
L 536.50125 94.908594 
L 536.50125 87.908594 
L 516.50125 87.908594 
z
" style="fill:#28b463;"/>
    </g>
    <g id="text_26">
     <!-- Gas Turbine -->
     <defs>
      <path d="M -0.296875 72.90625 
L 61.375 72.90625 
L 61.375 64.59375 
L 35.5 64.59375 
L 35.5 0 
L 25.59375 0 
L 25.59375 64.59375 
L -0.296875 64.59375 
z
" id="DejaVuSans-84"/>
     </defs>
     <g transform="translate(544.50125 94.908594)scale(0.1 -0.1)">
      <use xlink:href="#DejaVuSans-71"/>
      <use x="77.490234" xlink:href="#DejaVuSans-97"/>
      <use x="138.769531" xlink:href="#DejaVuSans-115"/>
      <use x="190.869141" xlink:href="#DejaVuSans-32"/>
      <use x="222.65625" xlink:href="#DejaVuSans-84"/>
      <use x="283.505859" xlink:href="#DejaVuSans-117"/>
      <use x="346.884766" xlink:href="#DejaVuSans-114"/>
      <use x="387.998047" xlink:href="#DejaVuSans-98"/>
      <use x="451.474609" xlink:href="#DejaVuSans-105"/>
      <use x="479.257812" xlink:href="#DejaVuSans-110"/>
      <use x="542.636719" xlink:href="#DejaVuSans-101"/>
     </g>
    </g>
    <g id="patch_12">
     <path d="M 516.50125 109.586719 
L 536.50125 109.586719 
L 536.50125 102.586719 
L 516.50125 102.586719 
z
" style="fill:#592400;"/>
    </g>
    <g id="text_27">
     <!-- Internal Combustion Engine -->
     <defs>
      <path d="M 9.8125 72.90625 
L 19.671875 72.90625 
L 19.671875 0 
L 9.8125 0 
z
" id="DejaVuSans-73"/>
      <path d="M 9.8125 72.90625 
L 55.90625 72.90625 
L 55.90625 64.59375 
L 19.671875 64.59375 
L 19.671875 43.015625 
L 54.390625 43.015625 
L 54.390625 34.71875 
L 19.671875 34.71875 
L 19.671875 8.296875 
L 56.78125 8.296875 
L 56.78125 0 
L 9.8125 0 
z
" id="DejaVuSans-69"/>
     </defs>
     <g transform="translate(544.50125 109.586719)scale(0.1 -0.1)">
      <use xlink:href="#DejaVuSans-73"/>
      <use x="29.492188" xlink:href="#DejaVuSans-110"/>
      <use x="92.871094" xlink:href="#DejaVuSans-116"/>
      <use x="132.080078" xlink:href="#DejaVuSans-101"/>
      <use x="193.603516" xlink:href="#DejaVuSans-114"/>
      <use x="234.701172" xlink:href="#DejaVuSans-110"/>
      <use x="298.080078" xlink:href="#DejaVuSans-97"/>
      <use x="359.359375" xlink:href="#DejaVuSans-108"/>
      <use x="387.142578" xlink:href="#DejaVuSans-32"/>
      <use x="418.929688" xlink:href="#DejaVuSans-67"/>
      <use x="488.753906" xlink:href="#DejaVuSans-111"/>
      <use x="549.935547" xlink:href="#DejaVuSans-109"/>
      <use x="647.347656" xlink:href="#DejaVuSans-98"/>
      <use x="710.824219" xlink:href="#DejaVuSans-117"/>
      <use x="774.203125" xlink:href="#DejaVuSans-115"/>
      <use x="826.302734" xlink:href="#DejaVuSans-116"/>
      <use x="865.511719" xlink:href="#DejaVuSans-105"/>
      <use x="893.294922" xlink:href="#DejaVuSans-111"/>
      <use x="954.476562" xlink:href="#DejaVuSans-110"/>
      <use x="1017.855469" xlink:href="#DejaVuSans-32"/>
      <use x="1049.642578" xlink:href="#DejaVuSans-69"/>
      <use x="1112.826172" xlink:href="#DejaVuSans-110"/>
      <use x="1176.205078" xlink:href="#DejaVuSans-103"/>
      <use x="1239.681641" xlink:href="#DejaVuSans-105"/>
      <use x="1267.464844" xlink:href="#DejaVuSans-110"/>
      <use x="1330.84375" xlink:href="#DejaVuSans-101"/>
     </g>
    </g>
    <g id="patch_13">
     <path d="M 516.50125 124.264844 
L 536.50125 124.264844 
L 536.50125 117.264844 
L 516.50125 117.264844 
z
" style="fill:#ffff00;"/>
    </g>
    <g id="text_28">
     <!-- Photovoltaic -->
     <defs>
      <path d="M 19.671875 64.796875 
L 19.671875 37.40625 
L 32.078125 37.40625 
Q 38.96875 37.40625 42.71875 40.96875 
Q 46.484375 44.53125 46.484375 51.125 
Q 46.484375 57.671875 42.71875 61.234375 
Q 38.96875 64.796875 32.078125 64.796875 
z
M 9.8125 72.90625 
L 32.078125 72.90625 
Q 44.34375 72.90625 50.609375 67.359375 
Q 56.890625 61.8125 56.890625 51.125 
Q 56.890625 40.328125 50.609375 34.8125 
Q 44.34375 29.296875 32.078125 29.296875 
L 19.671875 29.296875 
L 19.671875 0 
L 9.8125 0 
z
" id="DejaVuSans-80"/>
     </defs>
     <g transform="translate(544.50125 124.264844)scale(0.1 -0.1)">
      <use xlink:href="#DejaVuSans-80"/>
      <use x="60.302734" xlink:href="#DejaVuSans-104"/>
      <use x="123.681641" xlink:href="#DejaVuSans-111"/>
      <use x="184.863281" xlink:href="#DejaVuSans-116"/>
      <use x="224.072266" xlink:href="#DejaVuSans-111"/>
      <use x="285.253906" xlink:href="#DejaVuSans-118"/>
      <use x="344.433594" xlink:href="#DejaVuSans-111"/>
      <use x="405.615234" xlink:href="#DejaVuSans-108"/>
      <use x="433.398438" xlink:href="#DejaVuSans-116"/>
      <use x="472.607422" xlink:href="#DejaVuSans-97"/>
      <use x="533.886719" xlink:href="#DejaVuSans-105"/>
      <use x="561.669922" xlink:href="#DejaVuSans-99"/>
     </g>
    </g>
   </g>
  </g>
 </g>
 <defs>
  <clipPath id="p76d350c000">
   <rect height="332.64" width="446.4" x="43.78125" y="24.597656"/>
  </clipPath>
 </defs>
</svg>
