<?xml version="1.0" encoding="utf-8" standalone="no"?>
<!DOCTYPE svg PUBLIC "-//W3C//DTD SVG 1.1//EN"
  "http://www.w3.org/Graphics/SVG/1.1/DTD/svg11.dtd">
<!-- Created with matplotlib (https://matplotlib.org/) -->
<svg height="440.368873pt" version="1.1" viewBox="0 0 627.595 440.368873" width="627.595pt" xmlns="http://www.w3.org/2000/svg" xmlns:xlink="http://www.w3.org/1999/xlink">
 <metadata>
  <rdf:RDF xmlns:cc="http://creativecommons.org/ns#" xmlns:dc="http://purl.org/dc/elements/1.1/" xmlns:rdf="http://www.w3.org/1999/02/22-rdf-syntax-ns#">
   <cc:Work>
    <dc:type rdf:resource="http://purl.org/dc/dcmitype/StillImage"/>
    <dc:date>2020-09-01T12:39:06.084396</dc:date>
    <dc:format>image/svg+xml</dc:format>
    <dc:creator>
     <cc:Agent>
      <dc:title>Matplotlib v3.3.1, https://matplotlib.org/</dc:title>
     </cc:Agent>
    </dc:creator>
   </cc:Work>
  </rdf:RDF>
 </metadata>
 <defs>
  <style type="text/css">*{stroke-linecap:butt;stroke-linejoin:round;}</style>
 </defs>
 <g id="figure_1">
  <g id="patch_1">
   <path d="M 0 440.368873 
L 627.595 440.368873 
L 627.595 0 
L 0 0 
z
" style="fill:#ffffff;"/>
  </g>
  <g id="axes_1">
   <g id="patch_2">
    <path d="M 43.78125 357.237656 
L 490.18125 357.237656 
L 490.18125 24.597656 
L 43.78125 24.597656 
z
" style="fill:#ffffff;"/>
   </g>
   <g id="PolyCollection_1">
    <path clip-path="url(#p309e7ed3bf)" d="M 43.78125 185.784553 
L 43.78125 357.237656 
L 52.365865 357.237656 
L 60.950481 357.237656 
L 69.535096 357.237656 
L 78.119712 357.237656 
L 86.704327 357.237656 
L 95.288942 357.237656 
L 103.873558 357.237656 
L 112.458173 357.237656 
L 121.042788 357.237656 
L 129.627404 357.237656 
L 138.212019 357.237656 
L 146.796635 357.237656 
L 155.38125 357.237656 
L 163.965865 357.237656 
L 172.550481 357.237656 
L 181.135096 357.237656 
L 189.719712 357.237656 
L 198.304327 357.237656 
L 206.888942 357.237656 
L 215.473558 357.237656 
L 224.058173 357.237656 
L 232.642788 357.237656 
L 241.227404 357.237656 
L 249.812019 357.237656 
L 258.396635 357.237656 
L 266.98125 357.237656 
L 275.565865 357.237656 
L 284.150481 357.237656 
L 292.735096 357.237656 
L 301.319712 357.237656 
L 309.904327 357.237656 
L 318.488942 357.237656 
L 327.073558 357.237656 
L 335.658173 357.237656 
L 344.242788 357.237656 
L 352.827404 357.237656 
L 361.412019 357.237656 
L 369.996635 357.237656 
L 378.58125 357.237656 
L 387.165865 357.237656 
L 395.750481 357.237656 
L 404.335096 357.237656 
L 412.919712 357.237656 
L 421.504327 357.237656 
L 430.088942 357.237656 
L 438.673558 357.237656 
L 447.258173 357.237656 
L 455.842788 357.237656 
L 464.427404 357.237656 
L 473.012019 357.237656 
L 481.596635 357.237656 
L 490.18125 357.237656 
L 490.18125 185.722729 
L 490.18125 185.722729 
L 481.596635 185.798174 
L 473.012019 185.722729 
L 464.427404 185.722729 
L 455.842788 185.722729 
L 447.258173 185.722729 
L 438.673558 185.722729 
L 430.088942 185.722729 
L 421.504327 185.722729 
L 412.919712 185.722729 
L 404.335096 185.722729 
L 395.750481 185.722729 
L 387.165865 186.092014 
L 378.58125 185.722729 
L 369.996635 185.722729 
L 361.412019 185.722729 
L 352.827404 185.722729 
L 344.242788 185.722729 
L 335.658173 185.722729 
L 327.073558 185.722729 
L 318.488942 185.722729 
L 309.904327 185.722729 
L 301.319712 185.722729 
L 292.735096 185.722729 
L 284.150481 185.722729 
L 275.565865 185.722729 
L 266.98125 185.722729 
L 258.396635 185.722729 
L 249.812019 185.722729 
L 241.227404 185.722729 
L 232.642788 185.722729 
L 224.058173 185.722729 
L 215.473558 185.722729 
L 206.888942 185.722729 
L 198.304327 185.722729 
L 189.719712 185.737913 
L 181.135096 185.722729 
L 172.550481 185.722729 
L 163.965865 185.762014 
L 155.38125 185.722729 
L 146.796635 185.722729 
L 138.212019 185.722729 
L 129.627404 185.722729 
L 121.042788 185.722729 
L 112.458173 185.722729 
L 103.873558 185.722729 
L 95.288942 185.722729 
L 86.704327 185.722729 
L 78.119712 185.722729 
L 69.535096 185.722729 
L 60.950481 187.539509 
L 52.365865 185.722729 
L 43.78125 185.784553 
z
" style="fill:#ffb30f;"/>
   </g>
   <g id="PolyCollection_2">
    <path clip-path="url(#p309e7ed3bf)" d="M 43.78125 120.256001 
L 43.78125 185.784553 
L 52.365865 185.722729 
L 60.950481 187.539509 
L 69.535096 185.722729 
L 78.119712 185.722729 
L 86.704327 185.722729 
L 95.288942 185.722729 
L 103.873558 185.722729 
L 112.458173 185.722729 
L 121.042788 185.722729 
L 129.627404 185.722729 
L 138.212019 185.722729 
L 146.796635 185.722729 
L 155.38125 185.722729 
L 163.965865 185.762014 
L 172.550481 185.722729 
L 181.135096 185.722729 
L 189.719712 185.737913 
L 198.304327 185.722729 
L 206.888942 185.722729 
L 215.473558 185.722729 
L 224.058173 185.722729 
L 232.642788 185.722729 
L 241.227404 185.722729 
L 249.812019 185.722729 
L 258.396635 185.722729 
L 266.98125 185.722729 
L 275.565865 185.722729 
L 284.150481 185.722729 
L 292.735096 185.722729 
L 301.319712 185.722729 
L 309.904327 185.722729 
L 318.488942 185.722729 
L 327.073558 185.722729 
L 335.658173 185.722729 
L 344.242788 185.722729 
L 352.827404 185.722729 
L 361.412019 185.722729 
L 369.996635 185.722729 
L 378.58125 185.722729 
L 387.165865 186.092014 
L 395.750481 185.722729 
L 404.335096 185.722729 
L 412.919712 185.722729 
L 421.504327 185.722729 
L 430.088942 185.722729 
L 438.673558 185.722729 
L 447.258173 185.722729 
L 455.842788 185.722729 
L 464.427404 185.722729 
L 473.012019 185.722729 
L 481.596635 185.798174 
L 490.18125 185.722729 
L 490.18125 111.919561 
L 490.18125 111.919561 
L 481.596635 116.730334 
L 473.012019 100.530948 
L 464.427404 98.558896 
L 455.842788 96.858145 
L 447.258173 99.997762 
L 438.673558 99.572036 
L 430.088942 98.023717 
L 421.504327 95.630702 
L 412.919712 93.156813 
L 404.335096 95.669404 
L 395.750481 95.516068 
L 387.165865 96.889929 
L 378.58125 97.237931 
L 369.996635 95.004901 
L 361.412019 89.636892 
L 352.827404 87.038987 
L 344.242788 89.251026 
L 335.658173 90.317551 
L 327.073558 90.850499 
L 318.488942 89.335568 
L 309.904327 98.177506 
L 301.319712 97.033022 
L 292.735096 93.432556 
L 284.150481 99.653631 
L 275.565865 94.335022 
L 266.98125 95.425066 
L 258.396635 95.16341 
L 249.812019 91.826413 
L 241.227404 88.946388 
L 232.642788 93.049174 
L 224.058173 91.527966 
L 215.473558 94.639626 
L 206.888942 94.438511 
L 198.304327 95.265202 
L 189.719712 100.308994 
L 181.135096 99.443478 
L 172.550481 100.089516 
L 163.965865 106.40025 
L 155.38125 112.092226 
L 146.796635 107.152034 
L 138.212019 107.752361 
L 129.627404 110.425305 
L 121.042788 110.943609 
L 112.458173 106.210676 
L 103.873558 110.52187 
L 95.288942 106.024756 
L 86.704327 104.384366 
L 78.119712 102.892402 
L 69.535096 101.815388 
L 60.950481 104.348027 
L 52.365865 100.536881 
L 43.78125 120.256001 
z
" style="fill:#2980b9;"/>
   </g>
   <g id="PolyCollection_3">
    <path clip-path="url(#p309e7ed3bf)" d="M 43.78125 117.853993 
L 43.78125 120.256001 
L 52.365865 100.536881 
L 60.950481 104.348027 
L 69.535096 101.815388 
L 78.119712 102.892402 
L 86.704327 104.384366 
L 95.288942 106.024756 
L 103.873558 110.52187 
L 112.458173 106.210676 
L 121.042788 110.943609 
L 129.627404 110.425305 
L 138.212019 107.752361 
L 146.796635 107.152034 
L 155.38125 112.092226 
L 163.965865 106.40025 
L 172.550481 100.089516 
L 181.135096 99.443478 
L 189.719712 100.308994 
L 198.304327 95.265202 
L 206.888942 94.438511 
L 215.473558 94.639626 
L 224.058173 91.527966 
L 232.642788 93.049174 
L 241.227404 88.946388 
L 249.812019 91.826413 
L 258.396635 95.16341 
L 266.98125 95.425066 
L 275.565865 94.335022 
L 284.150481 99.653631 
L 292.735096 93.432556 
L 301.319712 97.033022 
L 309.904327 98.177506 
L 318.488942 89.335568 
L 327.073558 90.850499 
L 335.658173 90.317551 
L 344.242788 89.251026 
L 352.827404 87.038987 
L 361.412019 89.636892 
L 369.996635 95.004901 
L 378.58125 97.237931 
L 387.165865 96.889929 
L 395.750481 95.516068 
L 404.335096 95.669404 
L 412.919712 93.156813 
L 421.504327 95.630702 
L 430.088942 98.023717 
L 438.673558 99.572036 
L 447.258173 99.997762 
L 455.842788 96.858145 
L 464.427404 98.558896 
L 473.012019 100.530948 
L 481.596635 116.730334 
L 490.18125 111.919561 
L 490.18125 109.624675 
L 490.18125 109.624675 
L 481.596635 114.404362 
L 473.012019 98.831715 
L 464.427404 96.722768 
L 455.842788 94.999377 
L 447.258173 97.428056 
L 438.673558 96.995076 
L 430.088942 95.517454 
L 421.504327 93.133831 
L 412.919712 90.722215 
L 404.335096 93.693756 
L 395.750481 94.016309 
L 387.165865 95.569879 
L 378.58125 95.800214 
L 369.996635 93.700362 
L 361.412019 88.344488 
L 352.827404 85.45002 
L 344.242788 87.656498 
L 335.658173 88.91819 
L 327.073558 89.348156 
L 318.488942 87.873663 
L 309.904327 96.158189 
L 301.319712 95.162029 
L 292.735096 91.293705 
L 284.150481 97.483679 
L 275.565865 92.256398 
L 266.98125 93.729427 
L 258.396635 92.903445 
L 249.812019 89.724884 
L 241.227404 86.786488 
L 232.642788 90.986609 
L 224.058173 89.573586 
L 215.473558 93.223126 
L 206.888942 92.886608 
L 198.304327 93.802532 
L 189.719712 98.937678 
L 181.135096 98.081769 
L 172.550481 98.680398 
L 163.965865 104.654232 
L 155.38125 110.708901 
L 146.796635 106.017273 
L 138.212019 107.06654 
L 129.627404 109.726624 
L 121.042788 110.108103 
L 112.458173 105.525248 
L 103.873558 109.534199 
L 95.288942 104.939285 
L 86.704327 103.176998 
L 78.119712 101.521254 
L 69.535096 100.057524 
L 60.950481 102.424644 
L 52.365865 98.346 
L 43.78125 117.853993 
z
" style="fill:#3498db;"/>
   </g>
   <g id="PolyCollection_4">
    <path clip-path="url(#p309e7ed3bf)" d="M 43.78125 115.891868 
L 43.78125 117.853993 
L 52.365865 98.346 
L 60.950481 102.424644 
L 69.535096 100.057524 
L 78.119712 101.521254 
L 86.704327 103.176998 
L 95.288942 104.939285 
L 103.873558 109.534199 
L 112.458173 105.525248 
L 121.042788 110.108103 
L 129.627404 109.726624 
L 138.212019 107.06654 
L 146.796635 106.017273 
L 155.38125 110.708901 
L 163.965865 104.654232 
L 172.550481 98.680398 
L 181.135096 98.081769 
L 189.719712 98.937678 
L 198.304327 93.802532 
L 206.888942 92.886608 
L 215.473558 93.223126 
L 224.058173 89.573586 
L 232.642788 90.986609 
L 241.227404 86.786488 
L 249.812019 89.724884 
L 258.396635 92.903445 
L 266.98125 93.729427 
L 275.565865 92.256398 
L 284.150481 97.483679 
L 292.735096 91.293705 
L 301.319712 95.162029 
L 309.904327 96.158189 
L 318.488942 87.873663 
L 327.073558 89.348156 
L 335.658173 88.91819 
L 344.242788 87.656498 
L 352.827404 85.45002 
L 361.412019 88.344488 
L 369.996635 93.700362 
L 378.58125 95.800214 
L 387.165865 95.569879 
L 395.750481 94.016309 
L 404.335096 93.693756 
L 412.919712 90.722215 
L 421.504327 93.133831 
L 430.088942 95.517454 
L 438.673558 96.995076 
L 447.258173 97.428056 
L 455.842788 94.999377 
L 464.427404 96.722768 
L 473.012019 98.831715 
L 481.596635 114.404362 
L 490.18125 109.624675 
L 490.18125 106.870957 
L 490.18125 106.870957 
L 481.596635 112.086754 
L 473.012019 97.289329 
L 464.427404 95.37569 
L 455.842788 93.728337 
L 447.258173 95.455091 
L 438.673558 95.54701 
L 430.088942 93.976091 
L 421.504327 91.436957 
L 412.919712 89.582881 
L 404.335096 92.194563 
L 395.750481 91.825662 
L 387.165865 93.377105 
L 378.58125 93.284148 
L 369.996635 92.254587 
L 361.412019 86.482287 
L 352.827404 84.034554 
L 344.242788 87.039036 
L 335.658173 87.39826 
L 327.073558 88.268457 
L 318.488942 86.885953 
L 309.904327 95.046669 
L 301.319712 94.411389 
L 292.735096 90.724794 
L 284.150481 96.633197 
L 275.565865 90.744812 
L 266.98125 92.399447 
L 258.396635 92.268764 
L 249.812019 89.310625 
L 241.227404 86.599442 
L 232.642788 90.675178 
L 224.058173 88.170881 
L 215.473558 92.751604 
L 206.888942 91.980335 
L 198.304327 92.743489 
L 189.719712 97.906244 
L 181.135096 96.933845 
L 172.550481 97.254502 
L 163.965865 103.599811 
L 155.38125 109.732563 
L 146.796635 103.485214 
L 138.212019 103.935098 
L 129.627404 106.399956 
L 121.042788 106.985865 
L 112.458173 103.027997 
L 103.873558 107.948171 
L 95.288942 103.335627 
L 86.704327 100.226058 
L 78.119712 99.500147 
L 69.535096 97.827488 
L 60.950481 100.681059 
L 52.365865 97.338453 
L 43.78125 115.891868 
z
" style="fill:#28b463;"/>
   </g>
   <g id="PolyCollection_5">
    <path clip-path="url(#p309e7ed3bf)" d="M 43.78125 113.350449 
L 43.78125 115.891868 
L 52.365865 97.338453 
L 60.950481 100.681059 
L 69.535096 97.827488 
L 78.119712 99.500147 
L 86.704327 100.226058 
L 95.288942 103.335627 
L 103.873558 107.948171 
L 112.458173 103.027997 
L 121.042788 106.985865 
L 129.627404 106.399956 
L 138.212019 103.935098 
L 146.796635 103.485214 
L 155.38125 109.732563 
L 163.965865 103.599811 
L 172.550481 97.254502 
L 181.135096 96.933845 
L 189.719712 97.906244 
L 198.304327 92.743489 
L 206.888942 91.980335 
L 215.473558 92.751604 
L 224.058173 88.170881 
L 232.642788 90.675178 
L 241.227404 86.599442 
L 249.812019 89.310625 
L 258.396635 92.268764 
L 266.98125 92.399447 
L 275.565865 90.744812 
L 284.150481 96.633197 
L 292.735096 90.724794 
L 301.319712 94.411389 
L 309.904327 95.046669 
L 318.488942 86.885953 
L 327.073558 88.268457 
L 335.658173 87.39826 
L 344.242788 87.039036 
L 352.827404 84.034554 
L 361.412019 86.482287 
L 369.996635 92.254587 
L 378.58125 93.284148 
L 387.165865 93.377105 
L 395.750481 91.825662 
L 404.335096 92.194563 
L 412.919712 89.582881 
L 421.504327 91.436957 
L 430.088942 93.976091 
L 438.673558 95.54701 
L 447.258173 95.455091 
L 455.842788 93.728337 
L 464.427404 95.37569 
L 473.012019 97.289329 
L 481.596635 112.086754 
L 490.18125 106.870957 
L 490.18125 89.106142 
L 490.18125 89.106142 
L 481.596635 97.965128 
L 473.012019 71.822862 
L 464.427404 68.268107 
L 455.842788 65.430074 
L 447.258173 69.344813 
L 438.673558 69.899794 
L 430.088942 70.054599 
L 421.504327 62.548989 
L 412.919712 68.260784 
L 404.335096 79.796709 
L 395.750481 72.608578 
L 387.165865 69.109708 
L 378.58125 77.469416 
L 369.996635 69.166139 
L 361.412019 65.624722 
L 352.827404 64.751997 
L 344.242788 68.920286 
L 335.658173 71.342739 
L 327.073558 69.569751 
L 318.488942 71.961354 
L 309.904327 74.657633 
L 301.319712 85.608101 
L 292.735096 73.990444 
L 284.150481 78.048807 
L 275.565865 75.781497 
L 266.98125 79.575635 
L 258.396635 78.806006 
L 249.812019 72.965783 
L 241.227404 72.253752 
L 232.642788 80.665392 
L 224.058173 75.709072 
L 215.473558 73.681884 
L 206.888942 79.096663 
L 198.304327 80.411844 
L 189.719712 87.577893 
L 181.135096 82.862462 
L 172.550481 81.730374 
L 163.965865 95.268914 
L 155.38125 99.22137 
L 146.796635 87.076469 
L 138.212019 86.92645 
L 129.627404 91.850338 
L 121.042788 95.876616 
L 112.458173 87.869911 
L 103.873558 90.46478 
L 95.288942 79.529808 
L 86.704327 84.41113 
L 78.119712 81.060387 
L 69.535096 80.901932 
L 60.950481 85.7251 
L 52.365865 82.933418 
L 43.78125 113.350449 
z
" style="fill:#494949;"/>
   </g>
   <g id="PolyCollection_6">
    <path clip-path="url(#p309e7ed3bf)" d="M 43.78125 113.350449 
L 43.78125 113.350449 
L 52.365865 82.933418 
L 60.950481 85.7251 
L 69.535096 80.901932 
L 78.119712 81.060387 
L 86.704327 84.41113 
L 95.288942 79.529808 
L 103.873558 90.46478 
L 112.458173 87.869911 
L 121.042788 95.876616 
L 129.627404 91.850338 
L 138.212019 86.92645 
L 146.796635 87.076469 
L 155.38125 99.22137 
L 163.965865 95.268914 
L 172.550481 81.730374 
L 181.135096 82.862462 
L 189.719712 87.577893 
L 198.304327 80.411844 
L 206.888942 79.096663 
L 215.473558 73.681884 
L 224.058173 75.709072 
L 232.642788 80.665392 
L 241.227404 72.253752 
L 249.812019 72.965783 
L 258.396635 78.806006 
L 266.98125 79.575635 
L 275.565865 75.781497 
L 284.150481 78.048807 
L 292.735096 73.990444 
L 301.319712 85.608101 
L 309.904327 74.657633 
L 318.488942 71.961354 
L 327.073558 69.569751 
L 335.658173 71.342739 
L 344.242788 68.920286 
L 352.827404 64.751997 
L 361.412019 65.624722 
L 369.996635 69.166139 
L 378.58125 77.469416 
L 387.165865 69.109708 
L 395.750481 72.608578 
L 404.335096 79.796709 
L 412.919712 68.260784 
L 421.504327 62.548989 
L 430.088942 70.054599 
L 438.673558 69.899794 
L 447.258173 69.344813 
L 455.842788 65.430074 
L 464.427404 68.268107 
L 473.012019 71.822862 
L 481.596635 97.965128 
L 490.18125 89.106142 
L 490.18125 89.106142 
L 490.18125 89.106142 
L 481.596635 97.965128 
L 473.012019 71.822862 
L 464.427404 68.268107 
L 455.842788 65.430074 
L 447.258173 69.344813 
L 438.673558 69.899794 
L 430.088942 70.054599 
L 421.504327 62.548989 
L 412.919712 68.260784 
L 404.335096 79.796709 
L 395.750481 72.608578 
L 387.165865 69.109708 
L 378.58125 77.469416 
L 369.996635 69.166139 
L 361.412019 65.624722 
L 352.827404 64.751997 
L 344.242788 68.920286 
L 335.658173 71.342739 
L 327.073558 69.569751 
L 318.488942 71.961354 
L 309.904327 74.657633 
L 301.319712 85.608101 
L 292.735096 73.990444 
L 284.150481 78.048807 
L 275.565865 75.781497 
L 266.98125 79.575635 
L 258.396635 78.806006 
L 249.812019 72.965783 
L 241.227404 72.253752 
L 232.642788 80.665392 
L 224.058173 75.709072 
L 215.473558 73.681884 
L 206.888942 79.096663 
L 198.304327 80.411844 
L 189.719712 87.577893 
L 181.135096 82.862462 
L 172.550481 81.730374 
L 163.965865 95.268914 
L 155.38125 99.22137 
L 146.796635 87.076469 
L 138.212019 86.92645 
L 129.627404 91.850338 
L 121.042788 95.876616 
L 112.458173 87.869911 
L 103.873558 90.46478 
L 95.288942 79.529808 
L 86.704327 84.41113 
L 78.119712 81.060387 
L 69.535096 80.901932 
L 60.950481 85.7251 
L 52.365865 82.933418 
L 43.78125 113.350449 
z
" style="fill:#7c7c7c;"/>
   </g>
   <g id="PolyCollection_7">
    <path clip-path="url(#p309e7ed3bf)" d="M 43.78125 111.702534 
L 43.78125 113.350449 
L 52.365865 82.933418 
L 60.950481 85.7251 
L 69.535096 80.901932 
L 78.119712 81.060387 
L 86.704327 84.41113 
L 95.288942 79.529808 
L 103.873558 90.46478 
L 112.458173 87.869911 
L 121.042788 95.876616 
L 129.627404 91.850338 
L 138.212019 86.92645 
L 146.796635 87.076469 
L 155.38125 99.22137 
L 163.965865 95.268914 
L 172.550481 81.730374 
L 181.135096 82.862462 
L 189.719712 87.577893 
L 198.304327 80.411844 
L 206.888942 79.096663 
L 215.473558 73.681884 
L 224.058173 75.709072 
L 232.642788 80.665392 
L 241.227404 72.253752 
L 249.812019 72.965783 
L 258.396635 78.806006 
L 266.98125 79.575635 
L 275.565865 75.781497 
L 284.150481 78.048807 
L 292.735096 73.990444 
L 301.319712 85.608101 
L 309.904327 74.657633 
L 318.488942 71.961354 
L 327.073558 69.569751 
L 335.658173 71.342739 
L 344.242788 68.920286 
L 352.827404 64.751997 
L 361.412019 65.624722 
L 369.996635 69.166139 
L 378.58125 77.469416 
L 387.165865 69.109708 
L 395.750481 72.608578 
L 404.335096 79.796709 
L 412.919712 68.260784 
L 421.504327 62.548989 
L 430.088942 70.054599 
L 438.673558 69.899794 
L 447.258173 69.344813 
L 455.842788 65.430074 
L 464.427404 68.268107 
L 473.012019 71.822862 
L 481.596635 97.965128 
L 490.18125 89.106142 
L 490.18125 82.823444 
L 490.18125 82.823444 
L 481.596635 93.574036 
L 473.012019 65.235673 
L 464.427404 61.773318 
L 455.842788 59.17968 
L 447.258173 62.966845 
L 438.673558 62.933182 
L 430.088942 63.74391 
L 421.504327 54.837656 
L 412.919712 60.796532 
L 404.335096 74.275031 
L 395.750481 66.637558 
L 387.165865 60.81163 
L 378.58125 70.693247 
L 369.996635 61.352513 
L 361.412019 57.428595 
L 352.827404 56.843527 
L 344.242788 63.131091 
L 335.658173 65.653287 
L 327.073558 63.451339 
L 318.488942 66.198625 
L 309.904327 67.425598 
L 301.319712 79.897615 
L 292.735096 67.8707 
L 284.150481 71.854766 
L 275.565865 68.906843 
L 266.98125 73.61918 
L 258.396635 72.571855 
L 249.812019 66.659255 
L 241.227404 66.37306 
L 232.642788 75.615802 
L 224.058173 70.084699 
L 215.473558 67.445989 
L 206.888942 73.354845 
L 198.304327 74.099784 
L 189.719712 82.160605 
L 181.135096 76.064459 
L 172.550481 75.369213 
L 163.965865 90.632807 
L 155.38125 94.706209 
L 146.796635 80.953954 
L 138.212019 80.798822 
L 129.627404 85.725245 
L 121.042788 89.947103 
L 112.458173 81.767167 
L 103.873558 83.578294 
L 95.288942 72.165709 
L 86.704327 77.984603 
L 78.119712 74.28979 
L 69.535096 75.052624 
L 60.950481 79.809846 
L 52.365865 76.799215 
L 43.78125 111.702534 
z
" style="fill:#ba4a00;"/>
   </g>
   <g id="matplotlib.axis_1">
    <g id="xtick_1">
     <g id="line2d_1">
      <defs>
       <path d="M 0 0 
L 0 3.5 
" id="m61d2b645e3" style="stroke:#000000;stroke-width:0.8;"/>
      </defs>
      <g>
       <use style="stroke:#000000;stroke-width:0.8;" x="43.78125" xlink:href="#m61d2b645e3" y="357.237656"/>
      </g>
     </g>
     <g id="text_1">
      <!-- January -->
      <g transform="translate(39.891062 402.461103)rotate(-70)scale(0.1 -0.1)">
       <defs>
        <path d="M 9.8125 72.90625 
L 19.671875 72.90625 
L 19.671875 5.078125 
Q 19.671875 -8.109375 14.671875 -14.0625 
Q 9.671875 -20.015625 -1.421875 -20.015625 
L -5.171875 -20.015625 
L -5.171875 -11.71875 
L -2.09375 -11.71875 
Q 4.4375 -11.71875 7.125 -8.046875 
Q 9.8125 -4.390625 9.8125 5.078125 
z
" id="DejaVuSans-74"/>
        <path d="M 34.28125 27.484375 
Q 23.390625 27.484375 19.1875 25 
Q 14.984375 22.515625 14.984375 16.5 
Q 14.984375 11.71875 18.140625 8.90625 
Q 21.296875 6.109375 26.703125 6.109375 
Q 34.1875 6.109375 38.703125 11.40625 
Q 43.21875 16.703125 43.21875 25.484375 
L 43.21875 27.484375 
z
M 52.203125 31.203125 
L 52.203125 0 
L 43.21875 0 
L 43.21875 8.296875 
Q 40.140625 3.328125 35.546875 0.953125 
Q 30.953125 -1.421875 24.3125 -1.421875 
Q 15.921875 -1.421875 10.953125 3.296875 
Q 6 8.015625 6 15.921875 
Q 6 25.140625 12.171875 29.828125 
Q 18.359375 34.515625 30.609375 34.515625 
L 43.21875 34.515625 
L 43.21875 35.40625 
Q 43.21875 41.609375 39.140625 45 
Q 35.0625 48.390625 27.6875 48.390625 
Q 23 48.390625 18.546875 47.265625 
Q 14.109375 46.140625 10.015625 43.890625 
L 10.015625 52.203125 
Q 14.9375 54.109375 19.578125 55.046875 
Q 24.21875 56 28.609375 56 
Q 40.484375 56 46.34375 49.84375 
Q 52.203125 43.703125 52.203125 31.203125 
z
" id="DejaVuSans-97"/>
        <path d="M 54.890625 33.015625 
L 54.890625 0 
L 45.90625 0 
L 45.90625 32.71875 
Q 45.90625 40.484375 42.875 44.328125 
Q 39.84375 48.1875 33.796875 48.1875 
Q 26.515625 48.1875 22.3125 43.546875 
Q 18.109375 38.921875 18.109375 30.90625 
L 18.109375 0 
L 9.078125 0 
L 9.078125 54.6875 
L 18.109375 54.6875 
L 18.109375 46.1875 
Q 21.34375 51.125 25.703125 53.5625 
Q 30.078125 56 35.796875 56 
Q 45.21875 56 50.046875 50.171875 
Q 54.890625 44.34375 54.890625 33.015625 
z
" id="DejaVuSans-110"/>
        <path d="M 8.5 21.578125 
L 8.5 54.6875 
L 17.484375 54.6875 
L 17.484375 21.921875 
Q 17.484375 14.15625 20.5 10.265625 
Q 23.53125 6.390625 29.59375 6.390625 
Q 36.859375 6.390625 41.078125 11.03125 
Q 45.3125 15.671875 45.3125 23.6875 
L 45.3125 54.6875 
L 54.296875 54.6875 
L 54.296875 0 
L 45.3125 0 
L 45.3125 8.40625 
Q 42.046875 3.421875 37.71875 1 
Q 33.40625 -1.421875 27.6875 -1.421875 
Q 18.265625 -1.421875 13.375 4.4375 
Q 8.5 10.296875 8.5 21.578125 
z
M 31.109375 56 
z
" id="DejaVuSans-117"/>
        <path d="M 41.109375 46.296875 
Q 39.59375 47.171875 37.8125 47.578125 
Q 36.03125 48 33.890625 48 
Q 26.265625 48 22.1875 43.046875 
Q 18.109375 38.09375 18.109375 28.8125 
L 18.109375 0 
L 9.078125 0 
L 9.078125 54.6875 
L 18.109375 54.6875 
L 18.109375 46.1875 
Q 20.953125 51.171875 25.484375 53.578125 
Q 30.03125 56 36.53125 56 
Q 37.453125 56 38.578125 55.875 
Q 39.703125 55.765625 41.0625 55.515625 
z
" id="DejaVuSans-114"/>
        <path d="M 32.171875 -5.078125 
Q 28.375 -14.84375 24.75 -17.8125 
Q 21.140625 -20.796875 15.09375 -20.796875 
L 7.90625 -20.796875 
L 7.90625 -13.28125 
L 13.1875 -13.28125 
Q 16.890625 -13.28125 18.9375 -11.515625 
Q 21 -9.765625 23.484375 -3.21875 
L 25.09375 0.875 
L 2.984375 54.6875 
L 12.5 54.6875 
L 29.59375 11.921875 
L 46.6875 54.6875 
L 56.203125 54.6875 
z
" id="DejaVuSans-121"/>
       </defs>
       <use xlink:href="#DejaVuSans-74"/>
       <use x="29.492188" xlink:href="#DejaVuSans-97"/>
       <use x="90.771484" xlink:href="#DejaVuSans-110"/>
       <use x="154.150391" xlink:href="#DejaVuSans-117"/>
       <use x="217.529297" xlink:href="#DejaVuSans-97"/>
       <use x="278.808594" xlink:href="#DejaVuSans-114"/>
       <use x="319.921875" xlink:href="#DejaVuSans-121"/>
      </g>
     </g>
    </g>
    <g id="xtick_2">
     <g id="line2d_2">
      <g>
       <use style="stroke:#000000;stroke-width:0.8;" x="78.119712" xlink:href="#m61d2b645e3" y="357.237656"/>
      </g>
     </g>
     <g id="text_2">
      <!-- February -->
      <g transform="translate(73.135326 408.473668)rotate(-70)scale(0.1 -0.1)">
       <defs>
        <path d="M 9.8125 72.90625 
L 51.703125 72.90625 
L 51.703125 64.59375 
L 19.671875 64.59375 
L 19.671875 43.109375 
L 48.578125 43.109375 
L 48.578125 34.8125 
L 19.671875 34.8125 
L 19.671875 0 
L 9.8125 0 
z
" id="DejaVuSans-70"/>
        <path d="M 56.203125 29.59375 
L 56.203125 25.203125 
L 14.890625 25.203125 
Q 15.484375 15.921875 20.484375 11.0625 
Q 25.484375 6.203125 34.421875 6.203125 
Q 39.59375 6.203125 44.453125 7.46875 
Q 49.3125 8.734375 54.109375 11.28125 
L 54.109375 2.78125 
Q 49.265625 0.734375 44.1875 -0.34375 
Q 39.109375 -1.421875 33.890625 -1.421875 
Q 20.796875 -1.421875 13.15625 6.1875 
Q 5.515625 13.8125 5.515625 26.8125 
Q 5.515625 40.234375 12.765625 48.109375 
Q 20.015625 56 32.328125 56 
Q 43.359375 56 49.78125 48.890625 
Q 56.203125 41.796875 56.203125 29.59375 
z
M 47.21875 32.234375 
Q 47.125 39.59375 43.09375 43.984375 
Q 39.0625 48.390625 32.421875 48.390625 
Q 24.90625 48.390625 20.390625 44.140625 
Q 15.875 39.890625 15.1875 32.171875 
z
" id="DejaVuSans-101"/>
        <path d="M 48.6875 27.296875 
Q 48.6875 37.203125 44.609375 42.84375 
Q 40.53125 48.484375 33.40625 48.484375 
Q 26.265625 48.484375 22.1875 42.84375 
Q 18.109375 37.203125 18.109375 27.296875 
Q 18.109375 17.390625 22.1875 11.75 
Q 26.265625 6.109375 33.40625 6.109375 
Q 40.53125 6.109375 44.609375 11.75 
Q 48.6875 17.390625 48.6875 27.296875 
z
M 18.109375 46.390625 
Q 20.953125 51.265625 25.265625 53.625 
Q 29.59375 56 35.59375 56 
Q 45.5625 56 51.78125 48.09375 
Q 58.015625 40.1875 58.015625 27.296875 
Q 58.015625 14.40625 51.78125 6.484375 
Q 45.5625 -1.421875 35.59375 -1.421875 
Q 29.59375 -1.421875 25.265625 0.953125 
Q 20.953125 3.328125 18.109375 8.203125 
L 18.109375 0 
L 9.078125 0 
L 9.078125 75.984375 
L 18.109375 75.984375 
z
" id="DejaVuSans-98"/>
       </defs>
       <use xlink:href="#DejaVuSans-70"/>
       <use x="52.019531" xlink:href="#DejaVuSans-101"/>
       <use x="113.542969" xlink:href="#DejaVuSans-98"/>
       <use x="177.019531" xlink:href="#DejaVuSans-114"/>
       <use x="218.132812" xlink:href="#DejaVuSans-117"/>
       <use x="281.511719" xlink:href="#DejaVuSans-97"/>
       <use x="342.791016" xlink:href="#DejaVuSans-114"/>
       <use x="383.904297" xlink:href="#DejaVuSans-121"/>
      </g>
     </g>
    </g>
    <g id="xtick_3">
     <g id="line2d_3">
      <g>
       <use style="stroke:#000000;stroke-width:0.8;" x="112.458173" xlink:href="#m61d2b645e3" y="357.237656"/>
      </g>
     </g>
     <g id="text_3">
      <!-- March -->
      <g transform="translate(109.839071 395.476544)rotate(-70)scale(0.1 -0.1)">
       <defs>
        <path d="M 9.8125 72.90625 
L 24.515625 72.90625 
L 43.109375 23.296875 
L 61.8125 72.90625 
L 76.515625 72.90625 
L 76.515625 0 
L 66.890625 0 
L 66.890625 64.015625 
L 48.09375 14.015625 
L 38.1875 14.015625 
L 19.390625 64.015625 
L 19.390625 0 
L 9.8125 0 
z
" id="DejaVuSans-77"/>
        <path d="M 48.78125 52.59375 
L 48.78125 44.1875 
Q 44.96875 46.296875 41.140625 47.34375 
Q 37.3125 48.390625 33.40625 48.390625 
Q 24.65625 48.390625 19.8125 42.84375 
Q 14.984375 37.3125 14.984375 27.296875 
Q 14.984375 17.28125 19.8125 11.734375 
Q 24.65625 6.203125 33.40625 6.203125 
Q 37.3125 6.203125 41.140625 7.25 
Q 44.96875 8.296875 48.78125 10.40625 
L 48.78125 2.09375 
Q 45.015625 0.34375 40.984375 -0.53125 
Q 36.96875 -1.421875 32.421875 -1.421875 
Q 20.0625 -1.421875 12.78125 6.34375 
Q 5.515625 14.109375 5.515625 27.296875 
Q 5.515625 40.671875 12.859375 48.328125 
Q 20.21875 56 33.015625 56 
Q 37.15625 56 41.109375 55.140625 
Q 45.0625 54.296875 48.78125 52.59375 
z
" id="DejaVuSans-99"/>
        <path d="M 54.890625 33.015625 
L 54.890625 0 
L 45.90625 0 
L 45.90625 32.71875 
Q 45.90625 40.484375 42.875 44.328125 
Q 39.84375 48.1875 33.796875 48.1875 
Q 26.515625 48.1875 22.3125 43.546875 
Q 18.109375 38.921875 18.109375 30.90625 
L 18.109375 0 
L 9.078125 0 
L 9.078125 75.984375 
L 18.109375 75.984375 
L 18.109375 46.1875 
Q 21.34375 51.125 25.703125 53.5625 
Q 30.078125 56 35.796875 56 
Q 45.21875 56 50.046875 50.171875 
Q 54.890625 44.34375 54.890625 33.015625 
z
" id="DejaVuSans-104"/>
       </defs>
       <use xlink:href="#DejaVuSans-77"/>
       <use x="86.279297" xlink:href="#DejaVuSans-97"/>
       <use x="147.558594" xlink:href="#DejaVuSans-114"/>
       <use x="186.421875" xlink:href="#DejaVuSans-99"/>
       <use x="241.402344" xlink:href="#DejaVuSans-104"/>
      </g>
     </g>
    </g>
    <g id="xtick_4">
     <g id="line2d_4">
      <g>
       <use style="stroke:#000000;stroke-width:0.8;" x="155.38125" xlink:href="#m61d2b645e3" y="357.237656"/>
      </g>
     </g>
     <g id="text_4">
      <!-- April -->
      <g transform="translate(154.065565 388.314324)rotate(-70)scale(0.1 -0.1)">
       <defs>
        <path d="M 34.1875 63.1875 
L 20.796875 26.90625 
L 47.609375 26.90625 
z
M 28.609375 72.90625 
L 39.796875 72.90625 
L 67.578125 0 
L 57.328125 0 
L 50.6875 18.703125 
L 17.828125 18.703125 
L 11.1875 0 
L 0.78125 0 
z
" id="DejaVuSans-65"/>
        <path d="M 18.109375 8.203125 
L 18.109375 -20.796875 
L 9.078125 -20.796875 
L 9.078125 54.6875 
L 18.109375 54.6875 
L 18.109375 46.390625 
Q 20.953125 51.265625 25.265625 53.625 
Q 29.59375 56 35.59375 56 
Q 45.5625 56 51.78125 48.09375 
Q 58.015625 40.1875 58.015625 27.296875 
Q 58.015625 14.40625 51.78125 6.484375 
Q 45.5625 -1.421875 35.59375 -1.421875 
Q 29.59375 -1.421875 25.265625 0.953125 
Q 20.953125 3.328125 18.109375 8.203125 
z
M 48.6875 27.296875 
Q 48.6875 37.203125 44.609375 42.84375 
Q 40.53125 48.484375 33.40625 48.484375 
Q 26.265625 48.484375 22.1875 42.84375 
Q 18.109375 37.203125 18.109375 27.296875 
Q 18.109375 17.390625 22.1875 11.75 
Q 26.265625 6.109375 33.40625 6.109375 
Q 40.53125 6.109375 44.609375 11.75 
Q 48.6875 17.390625 48.6875 27.296875 
z
" id="DejaVuSans-112"/>
        <path d="M 9.421875 54.6875 
L 18.40625 54.6875 
L 18.40625 0 
L 9.421875 0 
z
M 9.421875 75.984375 
L 18.40625 75.984375 
L 18.40625 64.59375 
L 9.421875 64.59375 
z
" id="DejaVuSans-105"/>
        <path d="M 9.421875 75.984375 
L 18.40625 75.984375 
L 18.40625 0 
L 9.421875 0 
z
" id="DejaVuSans-108"/>
       </defs>
       <use xlink:href="#DejaVuSans-65"/>
       <use x="68.408203" xlink:href="#DejaVuSans-112"/>
       <use x="131.884766" xlink:href="#DejaVuSans-114"/>
       <use x="172.998047" xlink:href="#DejaVuSans-105"/>
       <use x="200.78125" xlink:href="#DejaVuSans-108"/>
      </g>
     </g>
    </g>
    <g id="xtick_5">
     <g id="line2d_5">
      <g>
       <use style="stroke:#000000;stroke-width:0.8;" x="189.719712" xlink:href="#m61d2b645e3" y="357.237656"/>
      </g>
     </g>
     <g id="text_5">
      <!-- May -->
      <g transform="translate(188.777043 386.26462)rotate(-70)scale(0.1 -0.1)">
       <use xlink:href="#DejaVuSans-77"/>
       <use x="86.279297" xlink:href="#DejaVuSans-97"/>
       <use x="147.558594" xlink:href="#DejaVuSans-121"/>
      </g>
     </g>
    </g>
    <g id="xtick_6">
     <g id="line2d_6">
      <g>
       <use style="stroke:#000000;stroke-width:0.8;" x="232.642788" xlink:href="#m61d2b645e3" y="357.237656"/>
      </g>
     </g>
     <g id="text_6">
      <!-- June -->
      <g transform="translate(231.511474 387.301218)rotate(-70)scale(0.1 -0.1)">
       <use xlink:href="#DejaVuSans-74"/>
       <use x="29.492188" xlink:href="#DejaVuSans-117"/>
       <use x="92.871094" xlink:href="#DejaVuSans-110"/>
       <use x="156.25" xlink:href="#DejaVuSans-101"/>
      </g>
     </g>
    </g>
    <g id="xtick_7">
     <g id="line2d_7">
      <g>
       <use style="stroke:#000000;stroke-width:0.8;" x="266.98125" xlink:href="#m61d2b645e3" y="357.237656"/>
      </g>
     </g>
     <g id="text_7">
      <!-- July -->
      <g transform="translate(266.498705 383.736259)rotate(-70)scale(0.1 -0.1)">
       <use xlink:href="#DejaVuSans-74"/>
       <use x="29.492188" xlink:href="#DejaVuSans-117"/>
       <use x="92.871094" xlink:href="#DejaVuSans-108"/>
       <use x="120.654297" xlink:href="#DejaVuSans-121"/>
      </g>
     </g>
    </g>
    <g id="xtick_8">
     <g id="line2d_8">
      <g>
       <use style="stroke:#000000;stroke-width:0.8;" x="301.319712" xlink:href="#m61d2b645e3" y="357.237656"/>
      </g>
     </g>
     <g id="text_8">
      <!-- August -->
      <g transform="translate(297.928392 399.719844)rotate(-70)scale(0.1 -0.1)">
       <defs>
        <path d="M 45.40625 27.984375 
Q 45.40625 37.75 41.375 43.109375 
Q 37.359375 48.484375 30.078125 48.484375 
Q 22.859375 48.484375 18.828125 43.109375 
Q 14.796875 37.75 14.796875 27.984375 
Q 14.796875 18.265625 18.828125 12.890625 
Q 22.859375 7.515625 30.078125 7.515625 
Q 37.359375 7.515625 41.375 12.890625 
Q 45.40625 18.265625 45.40625 27.984375 
z
M 54.390625 6.78125 
Q 54.390625 -7.171875 48.1875 -13.984375 
Q 42 -20.796875 29.203125 -20.796875 
Q 24.46875 -20.796875 20.265625 -20.09375 
Q 16.0625 -19.390625 12.109375 -17.921875 
L 12.109375 -9.1875 
Q 16.0625 -11.328125 19.921875 -12.34375 
Q 23.78125 -13.375 27.78125 -13.375 
Q 36.625 -13.375 41.015625 -8.765625 
Q 45.40625 -4.15625 45.40625 5.171875 
L 45.40625 9.625 
Q 42.625 4.78125 38.28125 2.390625 
Q 33.9375 0 27.875 0 
Q 17.828125 0 11.671875 7.65625 
Q 5.515625 15.328125 5.515625 27.984375 
Q 5.515625 40.671875 11.671875 48.328125 
Q 17.828125 56 27.875 56 
Q 33.9375 56 38.28125 53.609375 
Q 42.625 51.21875 45.40625 46.390625 
L 45.40625 54.6875 
L 54.390625 54.6875 
z
" id="DejaVuSans-103"/>
        <path d="M 44.28125 53.078125 
L 44.28125 44.578125 
Q 40.484375 46.53125 36.375 47.5 
Q 32.28125 48.484375 27.875 48.484375 
Q 21.1875 48.484375 17.84375 46.4375 
Q 14.5 44.390625 14.5 40.28125 
Q 14.5 37.15625 16.890625 35.375 
Q 19.28125 33.59375 26.515625 31.984375 
L 29.59375 31.296875 
Q 39.15625 29.25 43.1875 25.515625 
Q 47.21875 21.78125 47.21875 15.09375 
Q 47.21875 7.46875 41.1875 3.015625 
Q 35.15625 -1.421875 24.609375 -1.421875 
Q 20.21875 -1.421875 15.453125 -0.5625 
Q 10.6875 0.296875 5.421875 2 
L 5.421875 11.28125 
Q 10.40625 8.6875 15.234375 7.390625 
Q 20.0625 6.109375 24.8125 6.109375 
Q 31.15625 6.109375 34.5625 8.28125 
Q 37.984375 10.453125 37.984375 14.40625 
Q 37.984375 18.0625 35.515625 20.015625 
Q 33.0625 21.96875 24.703125 23.78125 
L 21.578125 24.515625 
Q 13.234375 26.265625 9.515625 29.90625 
Q 5.8125 33.546875 5.8125 39.890625 
Q 5.8125 47.609375 11.28125 51.796875 
Q 16.75 56 26.8125 56 
Q 31.78125 56 36.171875 55.265625 
Q 40.578125 54.546875 44.28125 53.078125 
z
" id="DejaVuSans-115"/>
        <path d="M 18.3125 70.21875 
L 18.3125 54.6875 
L 36.8125 54.6875 
L 36.8125 47.703125 
L 18.3125 47.703125 
L 18.3125 18.015625 
Q 18.3125 11.328125 20.140625 9.421875 
Q 21.96875 7.515625 27.59375 7.515625 
L 36.8125 7.515625 
L 36.8125 0 
L 27.59375 0 
Q 17.1875 0 13.234375 3.875 
Q 9.28125 7.765625 9.28125 18.015625 
L 9.28125 47.703125 
L 2.6875 47.703125 
L 2.6875 54.6875 
L 9.28125 54.6875 
L 9.28125 70.21875 
z
" id="DejaVuSans-116"/>
       </defs>
       <use xlink:href="#DejaVuSans-65"/>
       <use x="68.408203" xlink:href="#DejaVuSans-117"/>
       <use x="131.787109" xlink:href="#DejaVuSans-103"/>
       <use x="195.263672" xlink:href="#DejaVuSans-117"/>
       <use x="258.642578" xlink:href="#DejaVuSans-115"/>
       <use x="310.742188" xlink:href="#DejaVuSans-116"/>
      </g>
     </g>
    </g>
    <g id="xtick_9">
     <g id="line2d_9">
      <g>
       <use style="stroke:#000000;stroke-width:0.8;" x="344.242788" xlink:href="#m61d2b645e3" y="357.237656"/>
      </g>
     </g>
     <g id="text_9">
      <!-- September -->
      <g transform="translate(337.382904 418.779453)rotate(-70)scale(0.1 -0.1)">
       <defs>
        <path d="M 53.515625 70.515625 
L 53.515625 60.890625 
Q 47.90625 63.578125 42.921875 64.890625 
Q 37.9375 66.21875 33.296875 66.21875 
Q 25.25 66.21875 20.875 63.09375 
Q 16.5 59.96875 16.5 54.203125 
Q 16.5 49.359375 19.40625 46.890625 
Q 22.3125 44.4375 30.421875 42.921875 
L 36.375 41.703125 
Q 47.40625 39.59375 52.65625 34.296875 
Q 57.90625 29 57.90625 20.125 
Q 57.90625 9.515625 50.796875 4.046875 
Q 43.703125 -1.421875 29.984375 -1.421875 
Q 24.8125 -1.421875 18.96875 -0.25 
Q 13.140625 0.921875 6.890625 3.21875 
L 6.890625 13.375 
Q 12.890625 10.015625 18.65625 8.296875 
Q 24.421875 6.59375 29.984375 6.59375 
Q 38.421875 6.59375 43.015625 9.90625 
Q 47.609375 13.234375 47.609375 19.390625 
Q 47.609375 24.75 44.3125 27.78125 
Q 41.015625 30.8125 33.5 32.328125 
L 27.484375 33.5 
Q 16.453125 35.6875 11.515625 40.375 
Q 6.59375 45.0625 6.59375 53.421875 
Q 6.59375 63.09375 13.40625 68.65625 
Q 20.21875 74.21875 32.171875 74.21875 
Q 37.3125 74.21875 42.625 73.28125 
Q 47.953125 72.359375 53.515625 70.515625 
z
" id="DejaVuSans-83"/>
        <path d="M 52 44.1875 
Q 55.375 50.25 60.0625 53.125 
Q 64.75 56 71.09375 56 
Q 79.640625 56 84.28125 50.015625 
Q 88.921875 44.046875 88.921875 33.015625 
L 88.921875 0 
L 79.890625 0 
L 79.890625 32.71875 
Q 79.890625 40.578125 77.09375 44.375 
Q 74.3125 48.1875 68.609375 48.1875 
Q 61.625 48.1875 57.5625 43.546875 
Q 53.515625 38.921875 53.515625 30.90625 
L 53.515625 0 
L 44.484375 0 
L 44.484375 32.71875 
Q 44.484375 40.625 41.703125 44.40625 
Q 38.921875 48.1875 33.109375 48.1875 
Q 26.21875 48.1875 22.15625 43.53125 
Q 18.109375 38.875 18.109375 30.90625 
L 18.109375 0 
L 9.078125 0 
L 9.078125 54.6875 
L 18.109375 54.6875 
L 18.109375 46.1875 
Q 21.1875 51.21875 25.484375 53.609375 
Q 29.78125 56 35.6875 56 
Q 41.65625 56 45.828125 52.96875 
Q 50 49.953125 52 44.1875 
z
" id="DejaVuSans-109"/>
       </defs>
       <use xlink:href="#DejaVuSans-83"/>
       <use x="63.476562" xlink:href="#DejaVuSans-101"/>
       <use x="125" xlink:href="#DejaVuSans-112"/>
       <use x="188.476562" xlink:href="#DejaVuSans-116"/>
       <use x="227.685547" xlink:href="#DejaVuSans-101"/>
       <use x="289.208984" xlink:href="#DejaVuSans-109"/>
       <use x="386.621094" xlink:href="#DejaVuSans-98"/>
       <use x="450.097656" xlink:href="#DejaVuSans-101"/>
       <use x="511.621094" xlink:href="#DejaVuSans-114"/>
      </g>
     </g>
    </g>
    <g id="xtick_10">
     <g id="line2d_10">
      <g>
       <use style="stroke:#000000;stroke-width:0.8;" x="378.58125" xlink:href="#m61d2b645e3" y="357.237656"/>
      </g>
     </g>
     <g id="text_10">
      <!-- October -->
      <g transform="translate(374.330071 404.444736)rotate(-70)scale(0.1 -0.1)">
       <defs>
        <path d="M 39.40625 66.21875 
Q 28.65625 66.21875 22.328125 58.203125 
Q 16.015625 50.203125 16.015625 36.375 
Q 16.015625 22.609375 22.328125 14.59375 
Q 28.65625 6.59375 39.40625 6.59375 
Q 50.140625 6.59375 56.421875 14.59375 
Q 62.703125 22.609375 62.703125 36.375 
Q 62.703125 50.203125 56.421875 58.203125 
Q 50.140625 66.21875 39.40625 66.21875 
z
M 39.40625 74.21875 
Q 54.734375 74.21875 63.90625 63.9375 
Q 73.09375 53.65625 73.09375 36.375 
Q 73.09375 19.140625 63.90625 8.859375 
Q 54.734375 -1.421875 39.40625 -1.421875 
Q 24.03125 -1.421875 14.8125 8.828125 
Q 5.609375 19.09375 5.609375 36.375 
Q 5.609375 53.65625 14.8125 63.9375 
Q 24.03125 74.21875 39.40625 74.21875 
z
" id="DejaVuSans-79"/>
        <path d="M 30.609375 48.390625 
Q 23.390625 48.390625 19.1875 42.75 
Q 14.984375 37.109375 14.984375 27.296875 
Q 14.984375 17.484375 19.15625 11.84375 
Q 23.34375 6.203125 30.609375 6.203125 
Q 37.796875 6.203125 41.984375 11.859375 
Q 46.1875 17.53125 46.1875 27.296875 
Q 46.1875 37.015625 41.984375 42.703125 
Q 37.796875 48.390625 30.609375 48.390625 
z
M 30.609375 56 
Q 42.328125 56 49.015625 48.375 
Q 55.71875 40.765625 55.71875 27.296875 
Q 55.71875 13.875 49.015625 6.21875 
Q 42.328125 -1.421875 30.609375 -1.421875 
Q 18.84375 -1.421875 12.171875 6.21875 
Q 5.515625 13.875 5.515625 27.296875 
Q 5.515625 40.765625 12.171875 48.375 
Q 18.84375 56 30.609375 56 
z
" id="DejaVuSans-111"/>
       </defs>
       <use xlink:href="#DejaVuSans-79"/>
       <use x="78.710938" xlink:href="#DejaVuSans-99"/>
       <use x="133.691406" xlink:href="#DejaVuSans-116"/>
       <use x="172.900391" xlink:href="#DejaVuSans-111"/>
       <use x="234.082031" xlink:href="#DejaVuSans-98"/>
       <use x="297.558594" xlink:href="#DejaVuSans-101"/>
       <use x="359.082031" xlink:href="#DejaVuSans-114"/>
      </g>
     </g>
    </g>
    <g id="xtick_11">
     <g id="line2d_11">
      <g>
       <use style="stroke:#000000;stroke-width:0.8;" x="412.919712" xlink:href="#m61d2b645e3" y="357.237656"/>
      </g>
     </g>
     <g id="text_11">
      <!-- November -->
      <g transform="translate(406.615877 415.723984)rotate(-70)scale(0.1 -0.1)">
       <defs>
        <path d="M 9.8125 72.90625 
L 23.09375 72.90625 
L 55.421875 11.921875 
L 55.421875 72.90625 
L 64.984375 72.90625 
L 64.984375 0 
L 51.703125 0 
L 19.390625 60.984375 
L 19.390625 0 
L 9.8125 0 
z
" id="DejaVuSans-78"/>
        <path d="M 2.984375 54.6875 
L 12.5 54.6875 
L 29.59375 8.796875 
L 46.6875 54.6875 
L 56.203125 54.6875 
L 35.6875 0 
L 23.484375 0 
z
" id="DejaVuSans-118"/>
       </defs>
       <use xlink:href="#DejaVuSans-78"/>
       <use x="74.804688" xlink:href="#DejaVuSans-111"/>
       <use x="135.986328" xlink:href="#DejaVuSans-118"/>
       <use x="195.166016" xlink:href="#DejaVuSans-101"/>
       <use x="256.689453" xlink:href="#DejaVuSans-109"/>
       <use x="354.101562" xlink:href="#DejaVuSans-98"/>
       <use x="417.578125" xlink:href="#DejaVuSans-101"/>
       <use x="479.101562" xlink:href="#DejaVuSans-114"/>
      </g>
     </g>
    </g>
    <g id="xtick_12">
     <g id="line2d_12">
      <g>
       <use style="stroke:#000000;stroke-width:0.8;" x="455.842788" xlink:href="#m61d2b645e3" y="357.237656"/>
      </g>
     </g>
     <g id="text_12">
      <!-- December -->
      <g transform="translate(449.567545 415.566879)rotate(-70)scale(0.1 -0.1)">
       <defs>
        <path d="M 19.671875 64.796875 
L 19.671875 8.109375 
L 31.59375 8.109375 
Q 46.6875 8.109375 53.6875 14.9375 
Q 60.6875 21.78125 60.6875 36.53125 
Q 60.6875 51.171875 53.6875 57.984375 
Q 46.6875 64.796875 31.59375 64.796875 
z
M 9.8125 72.90625 
L 30.078125 72.90625 
Q 51.265625 72.90625 61.171875 64.09375 
Q 71.09375 55.28125 71.09375 36.53125 
Q 71.09375 17.671875 61.125 8.828125 
Q 51.171875 0 30.078125 0 
L 9.8125 0 
z
" id="DejaVuSans-68"/>
       </defs>
       <use xlink:href="#DejaVuSans-68"/>
       <use x="77.001953" xlink:href="#DejaVuSans-101"/>
       <use x="138.525391" xlink:href="#DejaVuSans-99"/>
       <use x="193.505859" xlink:href="#DejaVuSans-101"/>
       <use x="255.029297" xlink:href="#DejaVuSans-109"/>
       <use x="352.441406" xlink:href="#DejaVuSans-98"/>
       <use x="415.917969" xlink:href="#DejaVuSans-101"/>
       <use x="477.441406" xlink:href="#DejaVuSans-114"/>
      </g>
     </g>
    </g>
    <g id="text_13">
     <!-- Date -->
     <g transform="translate(255.030469 431.089185)scale(0.1 -0.1)">
      <use xlink:href="#DejaVuSans-68"/>
      <use x="77.001953" xlink:href="#DejaVuSans-97"/>
      <use x="138.28125" xlink:href="#DejaVuSans-116"/>
      <use x="177.490234" xlink:href="#DejaVuSans-101"/>
     </g>
    </g>
   </g>
   <g id="matplotlib.axis_2">
    <g id="ytick_1">
     <g id="line2d_13">
      <defs>
       <path d="M 0 0 
L -3.5 0 
" id="mf8e0659219" style="stroke:#000000;stroke-width:0.8;"/>
      </defs>
      <g>
       <use style="stroke:#000000;stroke-width:0.8;" x="43.78125" xlink:href="#mf8e0659219" y="357.237656"/>
      </g>
     </g>
     <g id="text_14">
      <!-- 0.0 -->
      <g transform="translate(20.878125 361.036875)scale(0.1 -0.1)">
       <defs>
        <path d="M 31.78125 66.40625 
Q 24.171875 66.40625 20.328125 58.90625 
Q 16.5 51.421875 16.5 36.375 
Q 16.5 21.390625 20.328125 13.890625 
Q 24.171875 6.390625 31.78125 6.390625 
Q 39.453125 6.390625 43.28125 13.890625 
Q 47.125 21.390625 47.125 36.375 
Q 47.125 51.421875 43.28125 58.90625 
Q 39.453125 66.40625 31.78125 66.40625 
z
M 31.78125 74.21875 
Q 44.046875 74.21875 50.515625 64.515625 
Q 56.984375 54.828125 56.984375 36.375 
Q 56.984375 17.96875 50.515625 8.265625 
Q 44.046875 -1.421875 31.78125 -1.421875 
Q 19.53125 -1.421875 13.0625 8.265625 
Q 6.59375 17.96875 6.59375 36.375 
Q 6.59375 54.828125 13.0625 64.515625 
Q 19.53125 74.21875 31.78125 74.21875 
z
" id="DejaVuSans-48"/>
        <path d="M 10.6875 12.40625 
L 21 12.40625 
L 21 0 
L 10.6875 0 
z
" id="DejaVuSans-46"/>
       </defs>
       <use xlink:href="#DejaVuSans-48"/>
       <use x="63.623047" xlink:href="#DejaVuSans-46"/>
       <use x="95.410156" xlink:href="#DejaVuSans-48"/>
      </g>
     </g>
    </g>
    <g id="ytick_2">
     <g id="line2d_14">
      <g>
       <use style="stroke:#000000;stroke-width:0.8;" x="43.78125" xlink:href="#mf8e0659219" y="302.264923"/>
      </g>
     </g>
     <g id="text_15">
      <!-- 0.2 -->
      <g transform="translate(20.878125 306.064142)scale(0.1 -0.1)">
       <defs>
        <path d="M 19.1875 8.296875 
L 53.609375 8.296875 
L 53.609375 0 
L 7.328125 0 
L 7.328125 8.296875 
Q 12.9375 14.109375 22.625 23.890625 
Q 32.328125 33.6875 34.8125 36.53125 
Q 39.546875 41.84375 41.421875 45.53125 
Q 43.3125 49.21875 43.3125 52.78125 
Q 43.3125 58.59375 39.234375 62.25 
Q 35.15625 65.921875 28.609375 65.921875 
Q 23.96875 65.921875 18.8125 64.3125 
Q 13.671875 62.703125 7.8125 59.421875 
L 7.8125 69.390625 
Q 13.765625 71.78125 18.9375 73 
Q 24.125 74.21875 28.421875 74.21875 
Q 39.75 74.21875 46.484375 68.546875 
Q 53.21875 62.890625 53.21875 53.421875 
Q 53.21875 48.921875 51.53125 44.890625 
Q 49.859375 40.875 45.40625 35.40625 
Q 44.1875 33.984375 37.640625 27.21875 
Q 31.109375 20.453125 19.1875 8.296875 
z
" id="DejaVuSans-50"/>
       </defs>
       <use xlink:href="#DejaVuSans-48"/>
       <use x="63.623047" xlink:href="#DejaVuSans-46"/>
       <use x="95.410156" xlink:href="#DejaVuSans-50"/>
      </g>
     </g>
    </g>
    <g id="ytick_3">
     <g id="line2d_15">
      <g>
       <use style="stroke:#000000;stroke-width:0.8;" x="43.78125" xlink:href="#mf8e0659219" y="247.29219"/>
      </g>
     </g>
     <g id="text_16">
      <!-- 0.4 -->
      <g transform="translate(20.878125 251.091409)scale(0.1 -0.1)">
       <defs>
        <path d="M 37.796875 64.3125 
L 12.890625 25.390625 
L 37.796875 25.390625 
z
M 35.203125 72.90625 
L 47.609375 72.90625 
L 47.609375 25.390625 
L 58.015625 25.390625 
L 58.015625 17.1875 
L 47.609375 17.1875 
L 47.609375 0 
L 37.796875 0 
L 37.796875 17.1875 
L 4.890625 17.1875 
L 4.890625 26.703125 
z
" id="DejaVuSans-52"/>
       </defs>
       <use xlink:href="#DejaVuSans-48"/>
       <use x="63.623047" xlink:href="#DejaVuSans-46"/>
       <use x="95.410156" xlink:href="#DejaVuSans-52"/>
      </g>
     </g>
    </g>
    <g id="ytick_4">
     <g id="line2d_16">
      <g>
       <use style="stroke:#000000;stroke-width:0.8;" x="43.78125" xlink:href="#mf8e0659219" y="192.319457"/>
      </g>
     </g>
     <g id="text_17">
      <!-- 0.6 -->
      <g transform="translate(20.878125 196.118675)scale(0.1 -0.1)">
       <defs>
        <path d="M 33.015625 40.375 
Q 26.375 40.375 22.484375 35.828125 
Q 18.609375 31.296875 18.609375 23.390625 
Q 18.609375 15.53125 22.484375 10.953125 
Q 26.375 6.390625 33.015625 6.390625 
Q 39.65625 6.390625 43.53125 10.953125 
Q 47.40625 15.53125 47.40625 23.390625 
Q 47.40625 31.296875 43.53125 35.828125 
Q 39.65625 40.375 33.015625 40.375 
z
M 52.59375 71.296875 
L 52.59375 62.3125 
Q 48.875 64.0625 45.09375 64.984375 
Q 41.3125 65.921875 37.59375 65.921875 
Q 27.828125 65.921875 22.671875 59.328125 
Q 17.53125 52.734375 16.796875 39.40625 
Q 19.671875 43.65625 24.015625 45.921875 
Q 28.375 48.1875 33.59375 48.1875 
Q 44.578125 48.1875 50.953125 41.515625 
Q 57.328125 34.859375 57.328125 23.390625 
Q 57.328125 12.15625 50.6875 5.359375 
Q 44.046875 -1.421875 33.015625 -1.421875 
Q 20.359375 -1.421875 13.671875 8.265625 
Q 6.984375 17.96875 6.984375 36.375 
Q 6.984375 53.65625 15.1875 63.9375 
Q 23.390625 74.21875 37.203125 74.21875 
Q 40.921875 74.21875 44.703125 73.484375 
Q 48.484375 72.75 52.59375 71.296875 
z
" id="DejaVuSans-54"/>
       </defs>
       <use xlink:href="#DejaVuSans-48"/>
       <use x="63.623047" xlink:href="#DejaVuSans-46"/>
       <use x="95.410156" xlink:href="#DejaVuSans-54"/>
      </g>
     </g>
    </g>
    <g id="ytick_5">
     <g id="line2d_17">
      <g>
       <use style="stroke:#000000;stroke-width:0.8;" x="43.78125" xlink:href="#mf8e0659219" y="137.346723"/>
      </g>
     </g>
     <g id="text_18">
      <!-- 0.8 -->
      <g transform="translate(20.878125 141.145942)scale(0.1 -0.1)">
       <defs>
        <path d="M 31.78125 34.625 
Q 24.75 34.625 20.71875 30.859375 
Q 16.703125 27.09375 16.703125 20.515625 
Q 16.703125 13.921875 20.71875 10.15625 
Q 24.75 6.390625 31.78125 6.390625 
Q 38.8125 6.390625 42.859375 10.171875 
Q 46.921875 13.96875 46.921875 20.515625 
Q 46.921875 27.09375 42.890625 30.859375 
Q 38.875 34.625 31.78125 34.625 
z
M 21.921875 38.8125 
Q 15.578125 40.375 12.03125 44.71875 
Q 8.5 49.078125 8.5 55.328125 
Q 8.5 64.0625 14.71875 69.140625 
Q 20.953125 74.21875 31.78125 74.21875 
Q 42.671875 74.21875 48.875 69.140625 
Q 55.078125 64.0625 55.078125 55.328125 
Q 55.078125 49.078125 51.53125 44.71875 
Q 48 40.375 41.703125 38.8125 
Q 48.828125 37.15625 52.796875 32.3125 
Q 56.78125 27.484375 56.78125 20.515625 
Q 56.78125 9.90625 50.3125 4.234375 
Q 43.84375 -1.421875 31.78125 -1.421875 
Q 19.734375 -1.421875 13.25 4.234375 
Q 6.78125 9.90625 6.78125 20.515625 
Q 6.78125 27.484375 10.78125 32.3125 
Q 14.796875 37.15625 21.921875 38.8125 
z
M 18.3125 54.390625 
Q 18.3125 48.734375 21.84375 45.5625 
Q 25.390625 42.390625 31.78125 42.390625 
Q 38.140625 42.390625 41.71875 45.5625 
Q 45.3125 48.734375 45.3125 54.390625 
Q 45.3125 60.0625 41.71875 63.234375 
Q 38.140625 66.40625 31.78125 66.40625 
Q 25.390625 66.40625 21.84375 63.234375 
Q 18.3125 60.0625 18.3125 54.390625 
z
" id="DejaVuSans-56"/>
       </defs>
       <use xlink:href="#DejaVuSans-48"/>
       <use x="63.623047" xlink:href="#DejaVuSans-46"/>
       <use x="95.410156" xlink:href="#DejaVuSans-56"/>
      </g>
     </g>
    </g>
    <g id="ytick_6">
     <g id="line2d_18">
      <g>
       <use style="stroke:#000000;stroke-width:0.8;" x="43.78125" xlink:href="#mf8e0659219" y="82.37399"/>
      </g>
     </g>
     <g id="text_19">
      <!-- 1.0 -->
      <g transform="translate(20.878125 86.173209)scale(0.1 -0.1)">
       <defs>
        <path d="M 12.40625 8.296875 
L 28.515625 8.296875 
L 28.515625 63.921875 
L 10.984375 60.40625 
L 10.984375 69.390625 
L 28.421875 72.90625 
L 38.28125 72.90625 
L 38.28125 8.296875 
L 54.390625 8.296875 
L 54.390625 0 
L 12.40625 0 
z
" id="DejaVuSans-49"/>
       </defs>
       <use xlink:href="#DejaVuSans-49"/>
       <use x="63.623047" xlink:href="#DejaVuSans-46"/>
       <use x="95.410156" xlink:href="#DejaVuSans-48"/>
      </g>
     </g>
    </g>
    <g id="ytick_7">
     <g id="line2d_19">
      <g>
       <use style="stroke:#000000;stroke-width:0.8;" x="43.78125" xlink:href="#mf8e0659219" y="27.401257"/>
      </g>
     </g>
     <g id="text_20">
      <!-- 1.2 -->
      <g transform="translate(20.878125 31.200476)scale(0.1 -0.1)">
       <use xlink:href="#DejaVuSans-49"/>
       <use x="63.623047" xlink:href="#DejaVuSans-46"/>
       <use x="95.410156" xlink:href="#DejaVuSans-50"/>
      </g>
     </g>
    </g>
    <g id="text_21">
     <!-- GW -->
     <g transform="translate(14.798438 199.735625)rotate(-90)scale(0.1 -0.1)">
      <defs>
       <path d="M 59.515625 10.40625 
L 59.515625 29.984375 
L 43.40625 29.984375 
L 43.40625 38.09375 
L 69.28125 38.09375 
L 69.28125 6.78125 
Q 63.578125 2.734375 56.6875 0.65625 
Q 49.8125 -1.421875 42 -1.421875 
Q 24.90625 -1.421875 15.25 8.5625 
Q 5.609375 18.5625 5.609375 36.375 
Q 5.609375 54.25 15.25 64.234375 
Q 24.90625 74.21875 42 74.21875 
Q 49.125 74.21875 55.546875 72.453125 
Q 61.96875 70.703125 67.390625 67.28125 
L 67.390625 56.78125 
Q 61.921875 61.421875 55.765625 63.765625 
Q 49.609375 66.109375 42.828125 66.109375 
Q 29.4375 66.109375 22.71875 58.640625 
Q 16.015625 51.171875 16.015625 36.375 
Q 16.015625 21.625 22.71875 14.15625 
Q 29.4375 6.6875 42.828125 6.6875 
Q 48.046875 6.6875 52.140625 7.59375 
Q 56.25 8.5 59.515625 10.40625 
z
" id="DejaVuSans-71"/>
       <path d="M 3.328125 72.90625 
L 13.28125 72.90625 
L 28.609375 11.28125 
L 43.890625 72.90625 
L 54.984375 72.90625 
L 70.3125 11.28125 
L 85.59375 72.90625 
L 95.609375 72.90625 
L 77.296875 0 
L 64.890625 0 
L 49.515625 63.28125 
L 33.984375 0 
L 21.578125 0 
z
" id="DejaVuSans-87"/>
      </defs>
      <use xlink:href="#DejaVuSans-71"/>
      <use x="77.490234" xlink:href="#DejaVuSans-87"/>
     </g>
    </g>
   </g>
   <g id="line2d_20">
    <path clip-path="url(#p309e7ed3bf)" d="M 43.78125 112.480104 
L 52.365865 77.456598 
L 60.950481 80.461096 
L 69.535096 75.714333 
L 78.119712 74.908519 
L 86.704327 78.63307 
L 95.288942 72.769463 
L 103.873558 84.207178 
L 112.458173 82.436002 
L 121.042788 90.619231 
L 129.627404 86.391735 
L 138.212019 81.450054 
L 146.796635 81.621158 
L 155.38125 95.468951 
L 163.965865 91.39551 
L 172.550481 76.048121 
L 181.135096 76.712834 
L 189.719712 82.814574 
L 198.304327 74.750704 
L 206.888942 74.053654 
L 215.473558 68.129136 
L 224.058173 70.798872 
L 232.642788 76.334382 
L 241.227404 67.073252 
L 249.812019 67.31576 
L 258.396635 73.234771 
L 266.98125 74.265241 
L 275.565865 69.52366 
L 284.150481 72.500156 
L 292.735096 68.523168 
L 301.319712 80.579059 
L 309.904327 68.012121 
L 318.488942 66.878098 
L 327.073558 64.12413 
L 335.658173 66.352422 
L 344.242788 63.811177 
L 352.827404 57.447118 
L 361.412019 58.009295 
L 369.996635 61.947643 
L 378.58125 71.328639 
L 387.165865 61.382591 
L 395.750481 67.260596 
L 404.335096 74.986106 
L 412.919712 61.42272 
L 421.504327 55.428457 
L 430.088942 64.379663 
L 438.673558 63.540088 
L 447.258173 63.597796 
L 455.842788 59.825191 
L 464.427404 62.398952 
L 473.012019 65.860024 
L 481.596635 94.274089 
L 490.18125 83.4563 
" style="fill:none;stroke:#000000;stroke-linecap:square;stroke-opacity:0.5;stroke-width:3;"/>
   </g>
   <g id="patch_3">
    <path d="M 43.78125 357.237656 
L 43.78125 24.597656 
" style="fill:none;stroke:#000000;stroke-linecap:square;stroke-linejoin:miter;stroke-width:0.8;"/>
   </g>
   <g id="patch_4">
    <path d="M 490.18125 357.237656 
L 490.18125 24.597656 
" style="fill:none;stroke:#000000;stroke-linecap:square;stroke-linejoin:miter;stroke-width:0.8;"/>
   </g>
   <g id="patch_5">
    <path d="M 43.78125 357.237656 
L 490.18125 357.237656 
" style="fill:none;stroke:#000000;stroke-linecap:square;stroke-linejoin:miter;stroke-width:0.8;"/>
   </g>
   <g id="patch_6">
    <path d="M 43.78125 24.597656 
L 490.18125 24.597656 
" style="fill:none;stroke:#000000;stroke-linecap:square;stroke-linejoin:miter;stroke-width:0.8;"/>
   </g>
   <g id="text_22">
    <!-- System Dispatch -->
    <g transform="translate(203.689453 18.597656)scale(0.15 -0.15)">
     <defs>
      <path id="DejaVuSans-32"/>
     </defs>
     <use xlink:href="#DejaVuSans-83"/>
     <use x="63.476562" xlink:href="#DejaVuSans-121"/>
     <use x="122.65625" xlink:href="#DejaVuSans-115"/>
     <use x="174.755859" xlink:href="#DejaVuSans-116"/>
     <use x="213.964844" xlink:href="#DejaVuSans-101"/>
     <use x="275.488281" xlink:href="#DejaVuSans-109"/>
     <use x="372.900391" xlink:href="#DejaVuSans-32"/>
     <use x="404.6875" xlink:href="#DejaVuSans-68"/>
     <use x="481.689453" xlink:href="#DejaVuSans-105"/>
     <use x="509.472656" xlink:href="#DejaVuSans-115"/>
     <use x="561.572266" xlink:href="#DejaVuSans-112"/>
     <use x="625.048828" xlink:href="#DejaVuSans-97"/>
     <use x="686.328125" xlink:href="#DejaVuSans-116"/>
     <use x="725.537109" xlink:href="#DejaVuSans-99"/>
     <use x="780.517578" xlink:href="#DejaVuSans-104"/>
    </g>
   </g>
   <g id="legend_1">
    <g id="patch_7">
     <path d="M 514.50125 145.022656 
L 618.395 145.022656 
Q 620.395 145.022656 620.395 143.022656 
L 620.395 26.597656 
Q 620.395 24.597656 618.395 24.597656 
L 514.50125 24.597656 
Q 512.50125 24.597656 512.50125 26.597656 
L 512.50125 143.022656 
Q 512.50125 145.022656 514.50125 145.022656 
z
" style="fill:#ffffff;opacity:0.8;stroke:#cccccc;stroke-linejoin:miter;"/>
    </g>
    <g id="line2d_21">
     <path d="M 516.50125 32.696094 
L 536.50125 32.696094 
" style="fill:none;stroke:#000000;stroke-linecap:square;stroke-opacity:0.5;stroke-width:3;"/>
    </g>
    <g id="line2d_22"/>
    <g id="text_23">
     <!-- Demand -->
     <g transform="translate(544.50125 36.196094)scale(0.1 -0.1)">
      <defs>
       <path d="M 45.40625 46.390625 
L 45.40625 75.984375 
L 54.390625 75.984375 
L 54.390625 0 
L 45.40625 0 
L 45.40625 8.203125 
Q 42.578125 3.328125 38.25 0.953125 
Q 33.9375 -1.421875 27.875 -1.421875 
Q 17.96875 -1.421875 11.734375 6.484375 
Q 5.515625 14.40625 5.515625 27.296875 
Q 5.515625 40.1875 11.734375 48.09375 
Q 17.96875 56 27.875 56 
Q 33.9375 56 38.25 53.625 
Q 42.578125 51.265625 45.40625 46.390625 
z
M 14.796875 27.296875 
Q 14.796875 17.390625 18.875 11.75 
Q 22.953125 6.109375 30.078125 6.109375 
Q 37.203125 6.109375 41.296875 11.75 
Q 45.40625 17.390625 45.40625 27.296875 
Q 45.40625 37.203125 41.296875 42.84375 
Q 37.203125 48.484375 30.078125 48.484375 
Q 22.953125 48.484375 18.875 42.84375 
Q 14.796875 37.203125 14.796875 27.296875 
z
" id="DejaVuSans-100"/>
      </defs>
      <use xlink:href="#DejaVuSans-68"/>
      <use x="77.001953" xlink:href="#DejaVuSans-101"/>
      <use x="138.525391" xlink:href="#DejaVuSans-109"/>
      <use x="235.9375" xlink:href="#DejaVuSans-97"/>
      <use x="297.216797" xlink:href="#DejaVuSans-110"/>
      <use x="360.595703" xlink:href="#DejaVuSans-100"/>
     </g>
    </g>
    <g id="patch_8">
     <path d="M 516.50125 50.874219 
L 536.50125 50.874219 
L 536.50125 43.874219 
L 516.50125 43.874219 
z
" style="fill:#ffb30f;"/>
    </g>
    <g id="text_24">
     <!-- Geothermal -->
     <g transform="translate(544.50125 50.874219)scale(0.1 -0.1)">
      <use xlink:href="#DejaVuSans-71"/>
      <use x="77.490234" xlink:href="#DejaVuSans-101"/>
      <use x="139.013672" xlink:href="#DejaVuSans-111"/>
      <use x="200.195312" xlink:href="#DejaVuSans-116"/>
      <use x="239.404297" xlink:href="#DejaVuSans-104"/>
      <use x="302.783203" xlink:href="#DejaVuSans-101"/>
      <use x="364.306641" xlink:href="#DejaVuSans-114"/>
      <use x="403.669922" xlink:href="#DejaVuSans-109"/>
      <use x="501.082031" xlink:href="#DejaVuSans-97"/>
      <use x="562.361328" xlink:href="#DejaVuSans-108"/>
     </g>
    </g>
    <g id="patch_9">
     <path d="M 516.50125 65.552344 
L 536.50125 65.552344 
L 536.50125 58.552344 
L 516.50125 58.552344 
z
" style="fill:#2980b9;"/>
    </g>
    <g id="text_25">
     <!-- Large Hydro -->
     <g transform="translate(544.50125 65.552344)scale(0.1 -0.1)">
      <defs>
       <path d="M 9.8125 72.90625 
L 19.671875 72.90625 
L 19.671875 8.296875 
L 55.171875 8.296875 
L 55.171875 0 
L 9.8125 0 
z
" id="DejaVuSans-76"/>
       <path d="M 9.8125 72.90625 
L 19.671875 72.90625 
L 19.671875 43.015625 
L 55.515625 43.015625 
L 55.515625 72.90625 
L 65.375 72.90625 
L 65.375 0 
L 55.515625 0 
L 55.515625 34.71875 
L 19.671875 34.71875 
L 19.671875 0 
L 9.8125 0 
z
" id="DejaVuSans-72"/>
      </defs>
      <use xlink:href="#DejaVuSans-76"/>
      <use x="55.712891" xlink:href="#DejaVuSans-97"/>
      <use x="116.992188" xlink:href="#DejaVuSans-114"/>
      <use x="156.355469" xlink:href="#DejaVuSans-103"/>
      <use x="219.832031" xlink:href="#DejaVuSans-101"/>
      <use x="281.355469" xlink:href="#DejaVuSans-32"/>
      <use x="313.142578" xlink:href="#DejaVuSans-72"/>
      <use x="388.337891" xlink:href="#DejaVuSans-121"/>
      <use x="447.517578" xlink:href="#DejaVuSans-100"/>
      <use x="510.994141" xlink:href="#DejaVuSans-114"/>
      <use x="549.857422" xlink:href="#DejaVuSans-111"/>
     </g>
    </g>
    <g id="patch_10">
     <path d="M 516.50125 80.230469 
L 536.50125 80.230469 
L 536.50125 73.230469 
L 516.50125 73.230469 
z
" style="fill:#3498db;"/>
    </g>
    <g id="text_26">
     <!-- Small Hydro -->
     <g transform="translate(544.50125 80.230469)scale(0.1 -0.1)">
      <use xlink:href="#DejaVuSans-83"/>
      <use x="63.476562" xlink:href="#DejaVuSans-109"/>
      <use x="160.888672" xlink:href="#DejaVuSans-97"/>
      <use x="222.167969" xlink:href="#DejaVuSans-108"/>
      <use x="249.951172" xlink:href="#DejaVuSans-108"/>
      <use x="277.734375" xlink:href="#DejaVuSans-32"/>
      <use x="309.521484" xlink:href="#DejaVuSans-72"/>
      <use x="384.716797" xlink:href="#DejaVuSans-121"/>
      <use x="443.896484" xlink:href="#DejaVuSans-100"/>
      <use x="507.373047" xlink:href="#DejaVuSans-114"/>
      <use x="546.236328" xlink:href="#DejaVuSans-111"/>
     </g>
    </g>
    <g id="patch_11">
     <path d="M 516.50125 94.908594 
L 536.50125 94.908594 
L 536.50125 87.908594 
L 516.50125 87.908594 
z
" style="fill:#28b463;"/>
    </g>
    <g id="text_27">
     <!-- Onshore Wind -->
     <g transform="translate(544.50125 94.908594)scale(0.1 -0.1)">
      <use xlink:href="#DejaVuSans-79"/>
      <use x="78.710938" xlink:href="#DejaVuSans-110"/>
      <use x="142.089844" xlink:href="#DejaVuSans-115"/>
      <use x="194.189453" xlink:href="#DejaVuSans-104"/>
      <use x="257.568359" xlink:href="#DejaVuSans-111"/>
      <use x="318.75" xlink:href="#DejaVuSans-114"/>
      <use x="357.613281" xlink:href="#DejaVuSans-101"/>
      <use x="419.136719" xlink:href="#DejaVuSans-32"/>
      <use x="450.923828" xlink:href="#DejaVuSans-87"/>
      <use x="547.550781" xlink:href="#DejaVuSans-105"/>
      <use x="575.333984" xlink:href="#DejaVuSans-110"/>
      <use x="638.712891" xlink:href="#DejaVuSans-100"/>
     </g>
    </g>
    <g id="patch_12">
     <path d="M 516.50125 109.586719 
L 536.50125 109.586719 
L 536.50125 102.586719 
L 516.50125 102.586719 
z
" style="fill:#494949;"/>
    </g>
    <g id="text_28">
     <!-- Heavy Fuel Oil -->
     <g transform="translate(544.50125 109.586719)scale(0.1 -0.1)">
      <use xlink:href="#DejaVuSans-72"/>
      <use x="75.195312" xlink:href="#DejaVuSans-101"/>
      <use x="136.71875" xlink:href="#DejaVuSans-97"/>
      <use x="197.998047" xlink:href="#DejaVuSans-118"/>
      <use x="257.177734" xlink:href="#DejaVuSans-121"/>
      <use x="316.357422" xlink:href="#DejaVuSans-32"/>
      <use x="348.144531" xlink:href="#DejaVuSans-70"/>
      <use x="400.164062" xlink:href="#DejaVuSans-117"/>
      <use x="463.542969" xlink:href="#DejaVuSans-101"/>
      <use x="525.066406" xlink:href="#DejaVuSans-108"/>
      <use x="552.849609" xlink:href="#DejaVuSans-32"/>
      <use x="584.636719" xlink:href="#DejaVuSans-79"/>
      <use x="663.347656" xlink:href="#DejaVuSans-105"/>
      <use x="691.130859" xlink:href="#DejaVuSans-108"/>
     </g>
    </g>
    <g id="patch_13">
     <path d="M 516.50125 124.264844 
L 536.50125 124.264844 
L 536.50125 117.264844 
L 516.50125 117.264844 
z
" style="fill:#7c7c7c;"/>
    </g>
    <g id="text_29">
     <!-- Gas Turbine -->
     <g transform="translate(544.50125 124.264844)scale(0.1 -0.1)">
      <defs>
       <path d="M -0.296875 72.90625 
L 61.375 72.90625 
L 61.375 64.59375 
L 35.5 64.59375 
L 35.5 0 
L 25.59375 0 
L 25.59375 64.59375 
L -0.296875 64.59375 
z
" id="DejaVuSans-84"/>
      </defs>
      <use xlink:href="#DejaVuSans-71"/>
      <use x="77.490234" xlink:href="#DejaVuSans-97"/>
      <use x="138.769531" xlink:href="#DejaVuSans-115"/>
      <use x="190.869141" xlink:href="#DejaVuSans-32"/>
      <use x="222.65625" xlink:href="#DejaVuSans-84"/>
      <use x="268.615234" xlink:href="#DejaVuSans-117"/>
      <use x="331.994141" xlink:href="#DejaVuSans-114"/>
      <use x="373.107422" xlink:href="#DejaVuSans-98"/>
      <use x="436.583984" xlink:href="#DejaVuSans-105"/>
      <use x="464.367188" xlink:href="#DejaVuSans-110"/>
      <use x="527.746094" xlink:href="#DejaVuSans-101"/>
     </g>
    </g>
    <g id="patch_14">
     <path d="M 516.50125 138.942969 
L 536.50125 138.942969 
L 536.50125 131.942969 
L 516.50125 131.942969 
z
" style="fill:#ba4a00;"/>
    </g>
    <g id="text_30">
     <!-- Biomass -->
     <g transform="translate(544.50125 138.942969)scale(0.1 -0.1)">
      <defs>
       <path d="M 19.671875 34.8125 
L 19.671875 8.109375 
L 35.5 8.109375 
Q 43.453125 8.109375 47.28125 11.40625 
Q 51.125 14.703125 51.125 21.484375 
Q 51.125 28.328125 47.28125 31.5625 
Q 43.453125 34.8125 35.5 34.8125 
z
M 19.671875 64.796875 
L 19.671875 42.828125 
L 34.28125 42.828125 
Q 41.5 42.828125 45.03125 45.53125 
Q 48.578125 48.25 48.578125 53.8125 
Q 48.578125 59.328125 45.03125 62.0625 
Q 41.5 64.796875 34.28125 64.796875 
z
M 9.8125 72.90625 
L 35.015625 72.90625 
Q 46.296875 72.90625 52.390625 68.21875 
Q 58.5 63.53125 58.5 54.890625 
Q 58.5 48.1875 55.375 44.234375 
Q 52.25 40.28125 46.1875 39.3125 
Q 53.46875 37.75 57.5 32.78125 
Q 61.53125 27.828125 61.53125 20.40625 
Q 61.53125 10.640625 54.890625 5.3125 
Q 48.25 0 35.984375 0 
L 9.8125 0 
z
" id="DejaVuSans-66"/>
      </defs>
      <use xlink:href="#DejaVuSans-66"/>
      <use x="68.603516" xlink:href="#DejaVuSans-105"/>
      <use x="96.386719" xlink:href="#DejaVuSans-111"/>
      <use x="157.568359" xlink:href="#DejaVuSans-109"/>
      <use x="254.980469" xlink:href="#DejaVuSans-97"/>
      <use x="316.259766" xlink:href="#DejaVuSans-115"/>
      <use x="368.359375" xlink:href="#DejaVuSans-115"/>
     </g>
    </g>
   </g>
  </g>
 </g>
 <defs>
  <clipPath id="p309e7ed3bf">
   <rect height="332.64" width="446.4" x="43.78125" y="24.597656"/>
  </clipPath>
 </defs>
</svg>
