<svg class="main-svg" xmlns="http://www.w3.org/2000/svg" xmlns:xlink="http://www.w3.org/1999/xlink" width="2200" height="1000" style="" viewBox="0 0 2200 1000"><rect x="0" y="0" width="2200" height="1000" style="fill: rgb(255, 255, 255); fill-opacity: 1;"/><defs id="defs-7cafe3"><g class="clips"><clipPath id="clip7cafe3xyplot" class="plotclip"><rect width="244.8" height="820"/></clipPath><clipPath id="clip7cafe3x2y2plot" class="plotclip"><rect width="244.80000000000004" height="820"/></clipPath><clipPath id="clip7cafe3x3y3plot" class="plotclip"><rect width="244.79999999999998" height="820"/></clipPath><clipPath id="clip7cafe3x4y4plot" class="plotclip"><rect width="244.8000000000001" height="820"/></clipPath><clipPath id="clip7cafe3x5y5plot" class="plotclip"><rect width="734.4" height="820"/></clipPath><clipPath class="axesclip" id="clip7cafe3x"><rect x="80" y="0" width="244.8" height="1000"/></clipPath><clipPath class="axesclip" id="clip7cafe3y"><rect x="0" y="100" width="2200" height="820"/></clipPath><clipPath class="axesclip" id="clip7cafe3xy"><rect x="80" y="100" width="244.8" height="820"/></clipPath><clipPath class="axesclip" id="clip7cafe3y2"><rect x="0" y="100" width="2200" height="820"/></clipPath><clipPath class="axesclip" id="clip7cafe3xy2"><rect x="80" y="100" width="244.8" height="820"/></clipPath><clipPath class="axesclip" id="clip7cafe3y3"><rect x="0" y="100" width="2200" height="820"/></clipPath><clipPath class="axesclip" id="clip7cafe3xy3"><rect x="80" y="100" width="244.8" height="820"/></clipPath><clipPath class="axesclip" id="clip7cafe3y4"><rect x="0" y="100" width="2200" height="820"/></clipPath><clipPath class="axesclip" id="clip7cafe3xy4"><rect x="80" y="100" width="244.8" height="820"/></clipPath><clipPath class="axesclip" id="clip7cafe3y5"><rect x="0" y="100" width="2200" height="820"/></clipPath><clipPath class="axesclip" id="clip7cafe3xy5"><rect x="80" y="100" width="244.8" height="820"/></clipPath><clipPath class="axesclip" id="clip7cafe3x2"><rect x="406.40000000000003" y="0" width="244.80000000000004" height="1000"/></clipPath><clipPath class="axesclip" id="clip7cafe3x2y"><rect x="406.40000000000003" y="100" width="244.80000000000004" height="820"/></clipPath><clipPath class="axesclip" id="clip7cafe3x2y2"><rect x="406.40000000000003" y="100" width="244.80000000000004" height="820"/></clipPath><clipPath class="axesclip" id="clip7cafe3x2y3"><rect x="406.40000000000003" y="100" width="244.80000000000004" height="820"/></clipPath><clipPath class="axesclip" id="clip7cafe3x2y4"><rect x="406.40000000000003" y="100" width="244.80000000000004" height="820"/></clipPath><clipPath class="axesclip" id="clip7cafe3x2y5"><rect x="406.40000000000003" y="100" width="244.80000000000004" height="820"/></clipPath><clipPath class="axesclip" id="clip7cafe3x3"><rect x="732.8000000000001" y="0" width="244.79999999999998" height="1000"/></clipPath><clipPath class="axesclip" id="clip7cafe3x3y"><rect x="732.8000000000001" y="100" width="244.79999999999998" height="820"/></clipPath><clipPath class="axesclip" id="clip7cafe3x3y2"><rect x="732.8000000000001" y="100" width="244.79999999999998" height="820"/></clipPath><clipPath class="axesclip" id="clip7cafe3x3y3"><rect x="732.8000000000001" y="100" width="244.79999999999998" height="820"/></clipPath><clipPath class="axesclip" id="clip7cafe3x3y4"><rect x="732.8000000000001" y="100" width="244.79999999999998" height="820"/></clipPath><clipPath class="axesclip" id="clip7cafe3x3y5"><rect x="732.8000000000001" y="100" width="244.79999999999998" height="820"/></clipPath><clipPath class="axesclip" id="clip7cafe3x4"><rect x="1059.2" y="0" width="244.8000000000001" height="1000"/></clipPath><clipPath class="axesclip" id="clip7cafe3x4y"><rect x="1059.2" y="100" width="244.8000000000001" height="820"/></clipPath><clipPath class="axesclip" id="clip7cafe3x4y2"><rect x="1059.2" y="100" width="244.8000000000001" height="820"/></clipPath><clipPath class="axesclip" id="clip7cafe3x4y3"><rect x="1059.2" y="100" width="244.8000000000001" height="820"/></clipPath><clipPath class="axesclip" id="clip7cafe3x4y4"><rect x="1059.2" y="100" width="244.8000000000001" height="820"/></clipPath><clipPath class="axesclip" id="clip7cafe3x4y5"><rect x="1059.2" y="100" width="244.8000000000001" height="820"/></clipPath><clipPath class="axesclip" id="clip7cafe3x5"><rect x="1385.6000000000001" y="0" width="734.4" height="1000"/></clipPath><clipPath class="axesclip" id="clip7cafe3x5y"><rect x="1385.6000000000001" y="100" width="734.4" height="820"/></clipPath><clipPath class="axesclip" id="clip7cafe3x5y2"><rect x="1385.6000000000001" y="100" width="734.4" height="820"/></clipPath><clipPath class="axesclip" id="clip7cafe3x5y3"><rect x="1385.6000000000001" y="100" width="734.4" height="820"/></clipPath><clipPath class="axesclip" id="clip7cafe3x5y4"><rect x="1385.6000000000001" y="100" width="734.4" height="820"/></clipPath><clipPath class="axesclip" id="clip7cafe3x5y5"><rect x="1385.6000000000001" y="100" width="734.4" height="820"/></clipPath></g><g class="gradients"/></defs><g class="bglayer"><rect class="bg" x="80" y="100" width="244.8" height="820" style="fill: rgb(229, 236, 246); fill-opacity: 1; stroke-width: 0;"/><rect class="bg" x="406.40000000000003" y="100" width="244.80000000000004" height="820" style="fill: rgb(229, 236, 246); fill-opacity: 1; stroke-width: 0;"/><rect class="bg" x="732.8000000000001" y="100" width="244.79999999999998" height="820" style="fill: rgb(229, 236, 246); fill-opacity: 1; stroke-width: 0;"/><rect class="bg" x="1059.2" y="100" width="244.8000000000001" height="820" style="fill: rgb(229, 236, 246); fill-opacity: 1; stroke-width: 0;"/><rect class="bg" x="1385.6000000000001" y="100" width="734.4" height="820" style="fill: rgb(229, 236, 246); fill-opacity: 1; stroke-width: 0;"/></g><g class="layer-below"><g class="imagelayer"/><g class="shapelayer"/></g><g class="cartesianlayer"><g class="subplot xy"><g class="layer-subplot"><g class="shapelayer"/><g class="imagelayer"/></g><g class="gridlayer"><g class="x"/><g class="y"><path class="ygrid crisp" transform="translate(0,849.83)" d="M80,0h244.8" style="stroke: rgb(255, 255, 255); stroke-opacity: 1; stroke-width: 1px;"/><path class="ygrid crisp" transform="translate(0,764.82)" d="M80,0h244.8" style="stroke: rgb(255, 255, 255); stroke-opacity: 1; stroke-width: 1px;"/><path class="ygrid crisp" transform="translate(0,679.8)" d="M80,0h244.8" style="stroke: rgb(255, 255, 255); stroke-opacity: 1; stroke-width: 1px;"/><path class="ygrid crisp" transform="translate(0,594.79)" d="M80,0h244.8" style="stroke: rgb(255, 255, 255); stroke-opacity: 1; stroke-width: 1px;"/><path class="ygrid crisp" transform="translate(0,509.78)" d="M80,0h244.8" style="stroke: rgb(255, 255, 255); stroke-opacity: 1; stroke-width: 1px;"/><path class="ygrid crisp" transform="translate(0,424.77)" d="M80,0h244.8" style="stroke: rgb(255, 255, 255); stroke-opacity: 1; stroke-width: 1px;"/><path class="ygrid crisp" transform="translate(0,339.76)" d="M80,0h244.8" style="stroke: rgb(255, 255, 255); stroke-opacity: 1; stroke-width: 1px;"/><path class="ygrid crisp" transform="translate(0,254.74)" d="M80,0h244.8" style="stroke: rgb(255, 255, 255); stroke-opacity: 1; stroke-width: 1px;"/><path class="ygrid crisp" transform="translate(0,169.73000000000002)" d="M80,0h244.8" style="stroke: rgb(255, 255, 255); stroke-opacity: 1; stroke-width: 1px;"/></g></g><g class="zerolinelayer"/><path class="xlines-below"/><path class="ylines-below"/><g class="overlines-below"/><g class="xaxislayer-below"/><g class="yaxislayer-below"/><g class="overaxes-below"/><g class="plot" transform="translate(80, 100)" clip-path="url('#clip7cafe3xyplot')"><g class="boxlayer mlayer"><g class="trace boxes" style="opacity: 1;"><path class="box" d="M62.42,464.05H182.38M62.42,610.22H182.38V353.7H62.42ZM122.4,610.22V779M122.4,353.7V41M92.41,779H152.39M92.41,41H152.39" style="vector-effect: non-scaling-stroke; stroke-width: 2px; stroke: rgb(99, 110, 250); stroke-opacity: 1; fill: rgb(99, 110, 250); fill-opacity: 0.5;"/><g class="points"/></g></g></g><g class="overplot"/><path class="xlines-above crisp" d="M0,0" style="fill: none;"/><path class="ylines-above crisp" d="M0,0" style="fill: none;"/><g class="overlines-above"/><g class="xaxislayer-above"><g class="xtick"><text text-anchor="middle" x="0" y="941" transform="translate(202.4,0)" style="font-family: 'Palatino Linotype'; font-size: 20px; fill: rgb(42, 63, 95); fill-opacity: 1; white-space: pre;">Water Saving (Mm3)</text></g></g><g class="yaxislayer-above"><g class="ytick"><text text-anchor="end" x="79" y="7" transform="translate(0,849.83)" style="font-family: 'Palatino Linotype'; font-size: 20px; fill: rgb(42, 63, 95); fill-opacity: 1; white-space: pre;">−580</text></g><g class="ytick"><text text-anchor="end" x="79" y="7" transform="translate(0,764.82)" style="font-family: 'Palatino Linotype'; font-size: 20px; fill: rgb(42, 63, 95); fill-opacity: 1; white-space: pre;">−560</text></g><g class="ytick"><text text-anchor="end" x="79" y="7" transform="translate(0,679.8)" style="font-family: 'Palatino Linotype'; font-size: 20px; fill: rgb(42, 63, 95); fill-opacity: 1; white-space: pre;">−540</text></g><g class="ytick"><text text-anchor="end" x="79" y="7" transform="translate(0,594.79)" style="font-family: 'Palatino Linotype'; font-size: 20px; fill: rgb(42, 63, 95); fill-opacity: 1; white-space: pre;">−520</text></g><g class="ytick"><text text-anchor="end" x="79" y="7" transform="translate(0,509.78)" style="font-family: 'Palatino Linotype'; font-size: 20px; fill: rgb(42, 63, 95); fill-opacity: 1; white-space: pre;">−500</text></g><g class="ytick"><text text-anchor="end" x="79" y="7" transform="translate(0,424.77)" style="font-family: 'Palatino Linotype'; font-size: 20px; fill: rgb(42, 63, 95); fill-opacity: 1; white-space: pre;">−480</text></g><g class="ytick"><text text-anchor="end" x="79" y="7" transform="translate(0,339.76)" style="font-family: 'Palatino Linotype'; font-size: 20px; fill: rgb(42, 63, 95); fill-opacity: 1; white-space: pre;">−460</text></g><g class="ytick"><text text-anchor="end" x="79" y="7" transform="translate(0,254.74)" style="font-family: 'Palatino Linotype'; font-size: 20px; fill: rgb(42, 63, 95); fill-opacity: 1; white-space: pre;">−440</text></g><g class="ytick"><text text-anchor="end" x="79" y="7" transform="translate(0,169.73000000000002)" style="font-family: 'Palatino Linotype'; font-size: 20px; fill: rgb(42, 63, 95); fill-opacity: 1; white-space: pre;">−420</text></g></g><g class="overaxes-above"/></g><g class="subplot x2y2"><g class="layer-subplot"><g class="shapelayer"/><g class="imagelayer"/></g><g class="gridlayer"><g class="x2"/><g class="y2"><path class="y2grid crisp" transform="translate(0,863.15)" d="M406.40000000000003,0h244.80000000000004" style="stroke: rgb(255, 255, 255); stroke-opacity: 1; stroke-width: 1px;"/><path class="y2grid crisp" transform="translate(0,733.91)" d="M406.40000000000003,0h244.80000000000004" style="stroke: rgb(255, 255, 255); stroke-opacity: 1; stroke-width: 1px;"/><path class="y2grid crisp" transform="translate(0,604.6700000000001)" d="M406.40000000000003,0h244.80000000000004" style="stroke: rgb(255, 255, 255); stroke-opacity: 1; stroke-width: 1px;"/><path class="y2grid crisp" transform="translate(0,475.43)" d="M406.40000000000003,0h244.80000000000004" style="stroke: rgb(255, 255, 255); stroke-opacity: 1; stroke-width: 1px;"/><path class="y2grid crisp" transform="translate(0,346.19)" d="M406.40000000000003,0h244.80000000000004" style="stroke: rgb(255, 255, 255); stroke-opacity: 1; stroke-width: 1px;"/></g></g><g class="zerolinelayer"><path class="y2zl zl crisp" transform="translate(0,216.95)" d="M406.40000000000003,0h244.80000000000004" style="stroke: rgb(255, 255, 255); stroke-opacity: 1; stroke-width: 2px;"/></g><path class="xlines-below"/><path class="ylines-below"/><g class="overlines-below"/><g class="xaxislayer-below"/><g class="yaxislayer-below"/><g class="overaxes-below"/><g class="plot" transform="translate(406.40000000000003, 100)" clip-path="url('#clip7cafe3x2y2plot')"><g class="boxlayer mlayer"><g class="trace boxes" style="opacity: 1;"><path class="box" d="M62.42,306.82H182.38M62.42,401.13H182.38V262.81H62.42ZM122.4,401.13V432.57M122.4,262.81V206.24M92.41,432.57H152.39M92.41,206.24H152.39" style="vector-effect: non-scaling-stroke; stroke-width: 2px; stroke: rgb(239, 85, 59); stroke-opacity: 1; fill: rgb(239, 85, 59); fill-opacity: 0.5;"/><g class="points"><path class="point" transform="translate(122.4,779)" d="M3,0A3,3 0 1,1 0,-3A3,3 0 0,1 3,0Z" style="opacity: 1; stroke-width: 0px; fill: rgb(239, 85, 59); fill-opacity: 1;"/><path class="point" transform="translate(122.4,41)" d="M3,0A3,3 0 1,1 0,-3A3,3 0 0,1 3,0Z" style="opacity: 1; stroke-width: 0px; fill: rgb(239, 85, 59); fill-opacity: 1;"/></g></g></g></g><g class="overplot"/><path class="xlines-above crisp" d="M0,0" style="fill: none;"/><path class="ylines-above crisp" d="M0,0" style="fill: none;"/><g class="overlines-above"/><g class="xaxislayer-above"><g class="x2tick"><text text-anchor="middle" x="0" y="941" transform="translate(528.8000000000001,0)" style="font-family: 'Palatino Linotype'; font-size: 20px; fill: rgb(42, 63, 95); fill-opacity: 1; white-space: pre;">Emission Saving (kton)</text></g></g><g class="yaxislayer-above"><g class="y2tick"><text text-anchor="end" x="405.40000000000003" y="7" transform="translate(0,863.15)" style="font-family: 'Palatino Linotype'; font-size: 20px; fill: rgb(42, 63, 95); fill-opacity: 1; white-space: pre;">−50</text></g><g class="y2tick"><text text-anchor="end" x="405.40000000000003" y="7" transform="translate(0,733.91)" style="font-family: 'Palatino Linotype'; font-size: 20px; fill: rgb(42, 63, 95); fill-opacity: 1; white-space: pre;">−40</text></g><g class="y2tick"><text text-anchor="end" x="405.40000000000003" y="7" transform="translate(0,604.6700000000001)" style="font-family: 'Palatino Linotype'; font-size: 20px; fill: rgb(42, 63, 95); fill-opacity: 1; white-space: pre;">−30</text></g><g class="y2tick"><text text-anchor="end" x="405.40000000000003" y="7" transform="translate(0,475.43)" style="font-family: 'Palatino Linotype'; font-size: 20px; fill: rgb(42, 63, 95); fill-opacity: 1; white-space: pre;">−20</text></g><g class="y2tick"><text text-anchor="end" x="405.40000000000003" y="7" transform="translate(0,346.19)" style="font-family: 'Palatino Linotype'; font-size: 20px; fill: rgb(42, 63, 95); fill-opacity: 1; white-space: pre;">−10</text></g><g class="y2tick"><text text-anchor="end" x="405.40000000000003" y="7" transform="translate(0,216.95)" style="font-family: 'Palatino Linotype'; font-size: 20px; fill: rgb(42, 63, 95); fill-opacity: 1; white-space: pre;">0</text></g></g><g class="overaxes-above"/></g><g class="subplot x3y3"><g class="layer-subplot"><g class="shapelayer"/><g class="imagelayer"/></g><g class="gridlayer"><g class="x3"/><g class="y3"><path class="y3grid crisp" transform="translate(0,872.99)" d="M732.8000000000001,0h244.79999999999998" style="stroke: rgb(255, 255, 255); stroke-opacity: 1; stroke-width: 1px;"/><path class="y3grid crisp" transform="translate(0,734.46)" d="M732.8000000000001,0h244.79999999999998" style="stroke: rgb(255, 255, 255); stroke-opacity: 1; stroke-width: 1px;"/><path class="y3grid crisp" transform="translate(0,595.94)" d="M732.8000000000001,0h244.79999999999998" style="stroke: rgb(255, 255, 255); stroke-opacity: 1; stroke-width: 1px;"/><path class="y3grid crisp" transform="translate(0,457.41)" d="M732.8000000000001,0h244.79999999999998" style="stroke: rgb(255, 255, 255); stroke-opacity: 1; stroke-width: 1px;"/><path class="y3grid crisp" transform="translate(0,318.89)" d="M732.8000000000001,0h244.79999999999998" style="stroke: rgb(255, 255, 255); stroke-opacity: 1; stroke-width: 1px;"/><path class="y3grid crisp" transform="translate(0,180.36)" d="M732.8000000000001,0h244.79999999999998" style="stroke: rgb(255, 255, 255); stroke-opacity: 1; stroke-width: 1px;"/></g></g><g class="zerolinelayer"/><path class="xlines-below"/><path class="ylines-below"/><g class="overlines-below"/><g class="xaxislayer-below"/><g class="yaxislayer-below"/><g class="overaxes-below"/><g class="plot" transform="translate(732.8000000000001, 100)" clip-path="url('#clip7cafe3x3y3plot')"><g class="boxlayer mlayer"><g class="trace boxes" style="opacity: 1;"><path class="box" d="M62.42,368.96H182.38M62.42,512.47H182.38V307.38H62.42ZM122.4,512.47V779M122.4,307.38V41M92.41,779H152.39M92.41,41H152.39" style="vector-effect: non-scaling-stroke; stroke-width: 2px; stroke: rgb(0, 204, 150); stroke-opacity: 1; fill: rgb(0, 204, 150); fill-opacity: 0.5;"/><g class="points"/></g></g></g><g class="overplot"/><path class="xlines-above crisp" d="M0,0" style="fill: none;"/><path class="ylines-above crisp" d="M0,0" style="fill: none;"/><g class="overlines-above"/><g class="xaxislayer-above"><g class="x3tick"><text text-anchor="middle" x="0" y="941" transform="translate(855.2,0)" style="font-family: 'Palatino Linotype'; font-size: 20px; fill: rgb(42, 63, 95); fill-opacity: 1; white-space: pre;">Land Saving (kha)</text></g></g><g class="yaxislayer-above"><g class="y3tick"><text text-anchor="end" x="731.8000000000001" y="7" transform="translate(0,872.99)" style="font-family: 'Palatino Linotype'; font-size: 20px; fill: rgb(42, 63, 95); fill-opacity: 1; white-space: pre;">30</text></g><g class="y3tick"><text text-anchor="end" x="731.8000000000001" y="7" transform="translate(0,734.46)" style="font-family: 'Palatino Linotype'; font-size: 20px; fill: rgb(42, 63, 95); fill-opacity: 1; white-space: pre;">40</text></g><g class="y3tick"><text text-anchor="end" x="731.8000000000001" y="7" transform="translate(0,595.94)" style="font-family: 'Palatino Linotype'; font-size: 20px; fill: rgb(42, 63, 95); fill-opacity: 1; white-space: pre;">50</text></g><g class="y3tick"><text text-anchor="end" x="731.8000000000001" y="7" transform="translate(0,457.41)" style="font-family: 'Palatino Linotype'; font-size: 20px; fill: rgb(42, 63, 95); fill-opacity: 1; white-space: pre;">60</text></g><g class="y3tick"><text text-anchor="end" x="731.8000000000001" y="7" transform="translate(0,318.89)" style="font-family: 'Palatino Linotype'; font-size: 20px; fill: rgb(42, 63, 95); fill-opacity: 1; white-space: pre;">70</text></g><g class="y3tick"><text text-anchor="end" x="731.8000000000001" y="7" transform="translate(0,180.36)" style="font-family: 'Palatino Linotype'; font-size: 20px; fill: rgb(42, 63, 95); fill-opacity: 1; white-space: pre;">80</text></g></g><g class="overaxes-above"/></g><g class="subplot x4y4"><g class="layer-subplot"><g class="shapelayer"/><g class="imagelayer"/></g><g class="gridlayer"><g class="x4"/><g class="y4"><path class="y4grid crisp" transform="translate(0,771.94)" d="M1059.2,0h244.8000000000001" style="stroke: rgb(255, 255, 255); stroke-opacity: 1; stroke-width: 1px;"/><path class="y4grid crisp" transform="translate(0,599.8)" d="M1059.2,0h244.8000000000001" style="stroke: rgb(255, 255, 255); stroke-opacity: 1; stroke-width: 1px;"/><path class="y4grid crisp" transform="translate(0,427.66)" d="M1059.2,0h244.8000000000001" style="stroke: rgb(255, 255, 255); stroke-opacity: 1; stroke-width: 1px;"/><path class="y4grid crisp" transform="translate(0,255.52)" d="M1059.2,0h244.8000000000001" style="stroke: rgb(255, 255, 255); stroke-opacity: 1; stroke-width: 1px;"/></g></g><g class="zerolinelayer"/><path class="xlines-below"/><path class="ylines-below"/><g class="overlines-below"/><g class="xaxislayer-below"/><g class="yaxislayer-below"/><g class="overaxes-below"/><g class="plot" transform="translate(1059.2, 100)" clip-path="url('#clip7cafe3x4y4plot')"><g class="boxlayer mlayer"><g class="trace boxes" style="opacity: 1;"><path class="box" d="M62.42,658.8H182.38M62.42,705.99H182.38V521.23H62.42ZM122.4,705.99V779M122.4,521.23V291.54M92.41,779H152.39M92.41,291.54H152.39" style="vector-effect: non-scaling-stroke; stroke-width: 2px; stroke: rgb(171, 99, 250); stroke-opacity: 1; fill: rgb(171, 99, 250); fill-opacity: 0.5;"/><g class="points"><path class="point" transform="translate(122.4,41)" d="M3,0A3,3 0 1,1 0,-3A3,3 0 0,1 3,0Z" style="opacity: 1; stroke-width: 0px; fill: rgb(171, 99, 250); fill-opacity: 1;"/></g></g></g></g><g class="overplot"/><path class="xlines-above crisp" d="M0,0" style="fill: none;"/><path class="ylines-above crisp" d="M0,0" style="fill: none;"/><g class="overlines-above"/><g class="xaxislayer-above"><g class="x4tick"><text text-anchor="middle" x="0" y="941" transform="translate(1181.6000000000001,0)" style="font-family: 'Palatino Linotype'; font-size: 20px; fill: rgb(42, 63, 95); fill-opacity: 1; white-space: pre;">PPBT (years)</text></g></g><g class="yaxislayer-above"><g class="y4tick"><text text-anchor="end" x="1058.2" y="7" transform="translate(0,771.94)" style="font-family: 'Palatino Linotype'; font-size: 20px; fill: rgb(42, 63, 95); fill-opacity: 1; white-space: pre;">1</text></g><g class="y4tick"><text text-anchor="end" x="1058.2" y="7" transform="translate(0,599.8)" style="font-family: 'Palatino Linotype'; font-size: 20px; fill: rgb(42, 63, 95); fill-opacity: 1; white-space: pre;">1.5</text></g><g class="y4tick"><text text-anchor="end" x="1058.2" y="7" transform="translate(0,427.66)" style="font-family: 'Palatino Linotype'; font-size: 20px; fill: rgb(42, 63, 95); fill-opacity: 1; white-space: pre;">2</text></g><g class="y4tick"><text text-anchor="end" x="1058.2" y="7" transform="translate(0,255.52)" style="font-family: 'Palatino Linotype'; font-size: 20px; fill: rgb(42, 63, 95); fill-opacity: 1; white-space: pre;">2.5</text></g></g><g class="overaxes-above"/></g><g class="subplot x5y5"><g class="layer-subplot"><g class="shapelayer"/><g class="imagelayer"/></g><g class="gridlayer"><g class="x5"/><g class="y5"><path class="y5grid crisp" transform="translate(0,612.83)" d="M1385.6000000000001,0h734.4" style="stroke: rgb(255, 255, 255); stroke-opacity: 1; stroke-width: 1px;"/><path class="y5grid crisp" transform="translate(0,433.17)" d="M1385.6000000000001,0h734.4" style="stroke: rgb(255, 255, 255); stroke-opacity: 1; stroke-width: 1px;"/><path class="y5grid crisp" transform="translate(0,253.5)" d="M1385.6000000000001,0h734.4" style="stroke: rgb(255, 255, 255); stroke-opacity: 1; stroke-width: 1px;"/></g></g><g class="zerolinelayer"><path class="y5zl zl crisp" transform="translate(0,792.49)" d="M1385.6000000000001,0h734.4" style="stroke: rgb(255, 255, 255); stroke-opacity: 1; stroke-width: 2px;"/></g><path class="xlines-below"/><path class="ylines-below"/><g class="overlines-below"/><g class="xaxislayer-below"/><g class="yaxislayer-below"/><g class="overaxes-below"/><g class="plot" transform="translate(1385.6000000000001, 100)" clip-path="url('#clip7cafe3x5y5plot')"><g class="boxlayer mlayer"><g class="trace boxes" style="opacity: 1;"><path class="box" d="M62.42,699.14H182.38M62.42,718.8H182.38V687.24H62.42ZM122.4,718.8V733.14M122.4,687.24V654.18M92.41,733.14H152.39M92.41,654.18H152.39" style="vector-effect: non-scaling-stroke; stroke-width: 2px; stroke: rgb(255, 161, 90); stroke-opacity: 1; fill: rgb(255, 161, 90); fill-opacity: 0.5;"/><g class="points"><path class="point" transform="translate(122.4,779)" d="M3,0A3,3 0 1,1 0,-3A3,3 0 0,1 3,0Z" style="opacity: 1; stroke-width: 0px; fill: rgb(255, 161, 90); fill-opacity: 1;"/></g></g><g class="trace boxes" style="opacity: 1;"><path class="box" d="M307.22,249.52H427.18M307.22,348.7H427.18V198.6H307.22ZM367.2,348.7V510.21M367.2,198.6V41M337.21,510.21H397.19M337.21,41H397.19" style="vector-effect: non-scaling-stroke; stroke-width: 2px; stroke: rgb(25, 211, 243); stroke-opacity: 1; fill: rgb(25, 211, 243); fill-opacity: 0.5;"/><g class="points"/></g><g class="trace boxes" style="opacity: 1;"><path class="box" d="M552.02,348.73H671.98M552.02,412.9H671.98V317.77H552.02ZM612,412.9V532.08M612,317.77V202.07M582.01,532.08H641.99M582.01,202.07H641.99" style="vector-effect: non-scaling-stroke; stroke-width: 2px; stroke: rgb(255, 102, 146); stroke-opacity: 1; fill: rgb(255, 102, 146); fill-opacity: 0.5;"/><g class="points"/></g></g></g><g class="overplot"/><path class="xlines-above crisp" d="M0,0" style="fill: none;"/><path class="ylines-above crisp" d="M0,0" style="fill: none;"/><g class="overlines-above"/><g class="xaxislayer-above"><g class="x5tick"><text text-anchor="middle" x="0" y="941" transform="translate(1508.0000000000002,0)" style="font-family: 'Palatino Linotype'; font-size: 20px; fill: rgb(42, 63, 95); fill-opacity: 1; white-space: pre;">Import Saving (M GHS)</text></g><g class="x5tick"><text text-anchor="middle" x="0" y="941" transform="translate(1752.8000000000002,0)" style="font-family: 'Palatino Linotype'; font-size: 20px; fill: rgb(42, 63, 95); fill-opacity: 1; white-space: pre;">Capital Saving (M GHS)</text></g><g class="x5tick"><text text-anchor="middle" x="0" y="941" transform="translate(1997.6000000000001,0)" style="font-family: 'Palatino Linotype'; font-size: 20px; fill: rgb(42, 63, 95); fill-opacity: 1; white-space: pre;">Workforce Saving (M GHS)</text></g></g><g class="yaxislayer-above"><g class="y5tick"><text text-anchor="end" x="1384.6000000000001" y="7" transform="translate(0,792.49)" style="font-family: 'Palatino Linotype'; font-size: 20px; fill: rgb(42, 63, 95); fill-opacity: 1; white-space: pre;">0</text></g><g class="y5tick"><text text-anchor="end" x="1384.6000000000001" y="7" transform="translate(0,612.83)" style="font-family: 'Palatino Linotype'; font-size: 20px; fill: rgb(42, 63, 95); fill-opacity: 1; white-space: pre;">50</text></g><g class="y5tick"><text text-anchor="end" x="1384.6000000000001" y="7" transform="translate(0,433.17)" style="font-family: 'Palatino Linotype'; font-size: 20px; fill: rgb(42, 63, 95); fill-opacity: 1; white-space: pre;">100</text></g><g class="y5tick"><text text-anchor="end" x="1384.6000000000001" y="7" transform="translate(0,253.5)" style="font-family: 'Palatino Linotype'; font-size: 20px; fill: rgb(42, 63, 95); fill-opacity: 1; white-space: pre;">150</text></g></g><g class="overaxes-above"/></g></g><g class="polarlayer"/><g class="ternarylayer"/><g class="geolayer"/><g class="funnelarealayer"/><g class="pielayer"/><g class="treemaplayer"/><g class="sunburstlayer"/><g class="glimages"/><defs id="topdefs-7cafe3"><g class="clips"/></defs><g class="layer-above"><g class="imagelayer"/><g class="shapelayer"/></g><g class="infolayer"><g class="g-gtitle"><text class="gtitle" x="110" y="50" text-anchor="start" dy="0em" style="font-family: 'Palatino Linotype'; font-size: 28px; fill: rgb(42, 63, 95); opacity: 1; font-weight: normal; white-space: pre;">Impact Assessment of Pump-fed Irrigation for Maize - Sensitivity on new maize productivity, electricity and blue water consumption</text></g><g class="g-xtitle"/><g class="g-x2title"/><g class="g-x3title"/><g class="g-x4title"/><g class="g-x5title"/><g class="g-ytitle"/><g class="g-y2title"/><g class="g-y3title"/><g class="g-y4title"/><g class="g-y5title"/><g class="annotation" data-index="0" style="opacity: 1;"><g class="annotation-text-g" transform="rotate(0,202.4,87)"><g class="cursor-pointer" transform="translate(153, 74)"><rect class="bg" x="0.5" y="0.5" width="97" height="25" style="stroke-width: 1px; stroke: rgb(0, 0, 0); stroke-opacity: 0; fill: rgb(0, 0, 0); fill-opacity: 0;"/><text class="annotation-text" text-anchor="middle" x="49.1875" y="19" style="font-family: 'Palatino Linotype'; font-size: 16px; fill: rgb(42, 63, 95); fill-opacity: 1; white-space: pre;">Water Saving</text></g></g></g><g class="annotation" data-index="1" style="opacity: 1;"><g class="annotation-text-g" transform="rotate(0,528.8000000000001,87)"><g class="cursor-pointer" transform="translate(468, 74)"><rect class="bg" x="0.5" y="0.5" width="120" height="25" style="stroke-width: 1px; stroke: rgb(0, 0, 0); stroke-opacity: 0; fill: rgb(0, 0, 0); fill-opacity: 0;"/><text class="annotation-text" text-anchor="middle" x="60.5625" y="19" style="font-family: 'Palatino Linotype'; font-size: 16px; fill: rgb(42, 63, 95); fill-opacity: 1; white-space: pre;">Emission Saving</text></g></g></g><g class="annotation" data-index="2" style="opacity: 1;"><g class="annotation-text-g" transform="rotate(0,855.2,87)"><g class="cursor-pointer" transform="translate(809, 74)"><rect class="bg" x="0.5" y="0.5" width="92" height="25" style="stroke-width: 1px; stroke: rgb(0, 0, 0); stroke-opacity: 0; fill: rgb(0, 0, 0); fill-opacity: 0;"/><text class="annotation-text" text-anchor="middle" x="46.59375" y="19" style="font-family: 'Palatino Linotype'; font-size: 16px; fill: rgb(42, 63, 95); fill-opacity: 1; white-space: pre;">Land Saving</text></g></g></g><g class="annotation" data-index="3" style="opacity: 1;"><g class="annotation-text-g" transform="rotate(0,1181.6000000000001,87)"><g class="cursor-pointer" transform="translate(1104, 74)"><rect class="bg" x="0.5" y="0.5" width="155" height="25" style="stroke-width: 1px; stroke: rgb(0, 0, 0); stroke-opacity: 0; fill: rgb(0, 0, 0); fill-opacity: 0;"/><text class="annotation-text" text-anchor="middle" x="77.90625" y="19" style="font-family: 'Palatino Linotype'; font-size: 16px; fill: rgb(42, 63, 95); fill-opacity: 1; white-space: pre;">Policy Pay Back Time</text></g></g></g><g class="annotation" data-index="4" style="opacity: 1;"><g class="annotation-text-g" transform="rotate(0,1752.8000000000002,87)"><g class="cursor-pointer" transform="translate(1636, 74)"><rect class="bg" x="0.5" y="0.5" width="233" height="25" style="stroke-width: 1px; stroke: rgb(0, 0, 0); stroke-opacity: 0; fill: rgb(0, 0, 0); fill-opacity: 0;"/><text class="annotation-text" text-anchor="middle" x="116.71875" y="19" style="font-family: 'Palatino Linotype'; font-size: 16px; fill: rgb(42, 63, 95); fill-opacity: 1; white-space: pre;">Savings of Factors of Production</text></g></g></g></g></svg>