<?xml version="1.0" encoding="utf-8" standalone="no"?>
<!DOCTYPE svg PUBLIC "-//W3C//DTD SVG 1.1//EN"
  "http://www.w3.org/Graphics/SVG/1.1/DTD/svg11.dtd">
<!-- Created with matplotlib (https://matplotlib.org/) -->
<svg height="387.385333pt" version="1.1" viewBox="0 0 700.26125 387.385333" width="700.26125pt" xmlns="http://www.w3.org/2000/svg" xmlns:xlink="http://www.w3.org/1999/xlink">
 <defs>
  <style type="text/css">
*{stroke-linecap:butt;stroke-linejoin:round;}
  </style>
 </defs>
 <g id="figure_1">
  <g id="patch_1">
   <path d="M 0 387.385333 
L 700.26125 387.385333 
L 700.26125 0 
L 0 0 
z
" style="fill:#ffffff;"/>
  </g>
  <g id="axes_1">
   <g id="patch_2">
    <path d="M 50.78125 348.478125 
L 497.18125 348.478125 
L 497.18125 22.318125 
L 50.78125 22.318125 
z
" style="fill:#ffffff;"/>
   </g>
   <g id="PolyCollection_1">
    <path clip-path="url(#p05f332baed)" d="M 50.78125 162.670776 
L 50.78125 348.478125 
L 59.534191 348.478125 
L 68.287132 348.478125 
L 77.040074 348.478125 
L 85.793015 348.478125 
L 94.545956 348.478125 
L 103.298897 348.478125 
L 112.051838 348.478125 
L 120.804779 348.478125 
L 129.557721 348.478125 
L 138.310662 348.478125 
L 147.063603 348.478125 
L 155.816544 348.478125 
L 164.569485 348.478125 
L 173.322426 348.478125 
L 182.075368 348.478125 
L 190.828309 348.478125 
L 199.58125 348.478125 
L 208.334191 348.478125 
L 217.087132 348.478125 
L 225.840074 348.478125 
L 234.593015 348.478125 
L 243.345956 348.478125 
L 252.098897 348.478125 
L 260.851838 348.478125 
L 269.604779 348.478125 
L 278.357721 348.478125 
L 287.110662 348.478125 
L 295.863603 348.478125 
L 304.616544 348.478125 
L 313.369485 348.478125 
L 322.122426 348.478125 
L 330.875368 348.478125 
L 339.628309 348.478125 
L 348.38125 348.478125 
L 357.134191 348.478125 
L 365.887132 348.478125 
L 374.640074 348.478125 
L 383.393015 348.478125 
L 392.145956 348.478125 
L 400.898897 348.478125 
L 409.651838 348.478125 
L 418.404779 348.478125 
L 427.157721 348.478125 
L 435.910662 348.478125 
L 444.663603 348.478125 
L 453.416544 348.478125 
L 462.169485 348.478125 
L 470.922426 348.478125 
L 479.675368 348.478125 
L 488.428309 348.478125 
L 497.18125 348.478125 
L 497.18125 162.704026 
L 497.18125 162.704026 
L 488.428309 162.632496 
L 479.675368 162.632496 
L 470.922426 162.632496 
L 462.169485 162.632496 
L 453.416544 162.632496 
L 444.663603 162.632496 
L 435.910662 162.632496 
L 427.157721 162.632496 
L 418.404779 162.632496 
L 409.651838 162.632496 
L 400.898897 162.632496 
L 392.145956 163.032637 
L 383.393015 162.632496 
L 374.640074 162.632496 
L 365.887132 162.632496 
L 357.134191 162.632496 
L 348.38125 162.632496 
L 339.628309 162.632496 
L 330.875368 162.632496 
L 322.122426 162.632496 
L 313.369485 162.632496 
L 304.616544 162.632496 
L 295.863603 162.632496 
L 287.110662 162.632496 
L 278.357721 162.632496 
L 269.604779 162.632496 
L 260.851838 162.632496 
L 252.098897 162.632496 
L 243.345956 162.632496 
L 234.593015 162.632496 
L 225.840074 162.632496 
L 217.087132 162.632496 
L 208.334191 162.632496 
L 199.58125 162.632496 
L 190.828309 162.648949 
L 182.075368 162.632496 
L 173.322426 162.632496 
L 164.569485 162.675064 
L 155.816544 162.632496 
L 147.063603 162.632496 
L 138.310662 162.632496 
L 129.557721 162.632496 
L 120.804779 162.632496 
L 112.051838 162.632496 
L 103.298897 162.632496 
L 94.545956 162.632496 
L 85.793015 162.632496 
L 77.040074 162.632496 
L 68.287132 164.601075 
L 59.534191 162.632496 
L 50.78125 162.670776 
z
" style="fill:#ffb30f;fill-opacity:0.6;"/>
   </g>
   <g id="PolyCollection_2">
    <path clip-path="url(#p05f332baed)" d="M 50.78125 162.670776 
L 50.78125 82.85537 
L 59.534191 69.305601 
L 68.287132 74.556518 
L 77.040074 72.315711 
L 85.793015 73.87233 
L 94.545956 73.211813 
L 103.298897 81.941786 
L 112.051838 76.827865 
L 120.804779 78.673849 
L 129.557721 82.212515 
L 138.310662 79.652902 
L 147.063603 78.060759 
L 155.816544 77.681306 
L 164.569485 85.237683 
L 173.322426 70.14845 
L 182.075368 69.00434 
L 190.828309 69.513503 
L 199.58125 69.381914 
L 208.334191 64.177789 
L 217.087132 63.462424 
L 225.840074 61.435748 
L 234.593015 65.138604 
L 243.345956 57.112849 
L 252.098897 58.300338 
L 260.851838 63.563228 
L 269.604779 64.937641 
L 278.357721 62.897211 
L 287.110662 66.506716 
L 295.863603 66.049878 
L 304.616544 65.063148 
L 313.369485 67.380011 
L 322.122426 64.249013 
L 330.875368 58.919495 
L 339.628309 59.148437 
L 348.38125 58.968852 
L 357.134191 55.46898 
L 365.887132 56.861241 
L 374.640074 59.776321 
L 383.393015 67.908614 
L 392.145956 68.244334 
L 400.898897 63.945439 
L 409.651838 67.650494 
L 418.404779 62.361738 
L 427.157721 62.186421 
L 435.910662 67.529564 
L 444.663603 68.451014 
L 453.416544 67.26169 
L 462.169485 70.867621 
L 470.922426 64.128865 
L 479.675368 72.190888 
L 488.428309 68.819247 
L 497.18125 92.355363 
L 497.18125 162.704026 
L 497.18125 162.704026 
L 488.428309 162.632496 
L 479.675368 162.632496 
L 470.922426 162.632496 
L 462.169485 162.632496 
L 453.416544 162.632496 
L 444.663603 162.632496 
L 435.910662 162.632496 
L 427.157721 162.632496 
L 418.404779 162.632496 
L 409.651838 162.632496 
L 400.898897 162.632496 
L 392.145956 163.032637 
L 383.393015 162.632496 
L 374.640074 162.632496 
L 365.887132 162.632496 
L 357.134191 162.632496 
L 348.38125 162.632496 
L 339.628309 162.632496 
L 330.875368 162.632496 
L 322.122426 162.632496 
L 313.369485 162.632496 
L 304.616544 162.632496 
L 295.863603 162.632496 
L 287.110662 162.632496 
L 278.357721 162.632496 
L 269.604779 162.632496 
L 260.851838 162.632496 
L 252.098897 162.632496 
L 243.345956 162.632496 
L 234.593015 162.632496 
L 225.840074 162.632496 
L 217.087132 162.632496 
L 208.334191 162.632496 
L 199.58125 162.632496 
L 190.828309 162.648949 
L 182.075368 162.632496 
L 173.322426 162.632496 
L 164.569485 162.675064 
L 155.816544 162.632496 
L 147.063603 162.632496 
L 138.310662 162.632496 
L 129.557721 162.632496 
L 120.804779 162.632496 
L 112.051838 162.632496 
L 103.298897 162.632496 
L 94.545956 162.632496 
L 85.793015 162.632496 
L 77.040074 162.632496 
L 68.287132 164.601075 
L 59.534191 162.632496 
L 50.78125 162.670776 
z
" style="fill:#2980b9;fill-opacity:0.6;"/>
   </g>
   <g id="PolyCollection_3">
    <path clip-path="url(#p05f332baed)" d="M 50.78125 82.85537 
L 50.78125 80.317312 
L 59.534191 67.040818 
L 68.287132 72.604848 
L 77.040074 70.519365 
L 85.793015 72.492023 
L 94.545956 71.968655 
L 103.298897 80.812473 
L 112.051838 75.8902 
L 120.804779 77.877325 
L 129.557721 81.353435 
L 138.310662 78.952857 
L 147.063603 77.140537 
L 155.816544 76.274645 
L 164.569485 83.761415 
L 173.322426 68.194887 
L 182.075368 67.542596 
L 190.828309 68.016089 
L 199.58125 67.867692 
L 208.334191 62.586582 
L 217.087132 61.799206 
L 225.840074 59.797712 
L 234.593015 62.732551 
L 243.345956 54.948006 
L 252.098897 55.964901 
L 260.851838 61.17584 
L 269.604779 62.709617 
L 278.357721 61.017543 
L 287.110662 64.135519 
L 295.863603 63.743653 
L 304.616544 62.842652 
L 313.369485 65.374959 
L 322.122426 62.258003 
L 330.875368 57.306332 
L 339.628309 57.556046 
L 348.38125 57.417249 
L 357.134191 53.691468 
L 365.887132 55.187469 
L 374.640074 58.49013 
L 383.393015 66.509681 
L 392.145956 66.722021 
L 400.898897 62.460372 
L 409.651838 65.792134 
L 418.404779 59.839963 
L 427.157721 59.715216 
L 435.910662 64.645456 
L 444.663603 65.77338 
L 453.416544 64.427557 
L 462.169485 68.299035 
L 470.922426 62.252328 
L 479.675368 70.397023 
L 488.428309 66.658647 
L 497.18125 89.777597 
L 497.18125 92.355363 
L 497.18125 92.355363 
L 488.428309 68.819247 
L 479.675368 72.190888 
L 470.922426 64.128865 
L 462.169485 70.867621 
L 453.416544 67.26169 
L 444.663603 68.451014 
L 435.910662 67.529564 
L 427.157721 62.186421 
L 418.404779 62.361738 
L 409.651838 67.650494 
L 400.898897 63.945439 
L 392.145956 68.244334 
L 383.393015 67.908614 
L 374.640074 59.776321 
L 365.887132 56.861241 
L 357.134191 55.46898 
L 348.38125 58.968852 
L 339.628309 59.148437 
L 330.875368 58.919495 
L 322.122426 64.249013 
L 313.369485 67.380011 
L 304.616544 65.063148 
L 295.863603 66.049878 
L 287.110662 66.506716 
L 278.357721 62.897211 
L 269.604779 64.937641 
L 260.851838 63.563228 
L 252.098897 58.300338 
L 243.345956 57.112849 
L 234.593015 65.138604 
L 225.840074 61.435748 
L 217.087132 63.462424 
L 208.334191 64.177789 
L 199.58125 69.381914 
L 190.828309 69.513503 
L 182.075368 69.00434 
L 173.322426 70.14845 
L 164.569485 85.237683 
L 155.816544 77.681306 
L 147.063603 78.060759 
L 138.310662 79.652902 
L 129.557721 82.212515 
L 120.804779 78.673849 
L 112.051838 76.827865 
L 103.298897 81.941786 
L 94.545956 73.211813 
L 85.793015 73.87233 
L 77.040074 72.315711 
L 68.287132 74.556518 
L 59.534191 69.305601 
L 50.78125 82.85537 
z
" style="fill:#3498db;fill-opacity:0.6;"/>
   </g>
   <g id="PolyCollection_4">
    <path clip-path="url(#p05f332baed)" d="M 50.78125 80.317312 
L 50.78125 78.654519 
L 59.534191 65.132139 
L 68.287132 71.464055 
L 77.040074 67.710416 
L 85.793015 69.820865 
L 94.545956 69.022092 
L 103.298897 79.85472 
L 112.051838 73.40944 
L 120.804779 74.928104 
L 129.557721 77.721421 
L 138.310662 75.441748 
L 147.063603 73.919679 
L 155.816544 74.331661 
L 164.569485 82.82467 
L 173.322426 66.813259 
L 182.075368 65.981695 
L 190.828309 67.313974 
L 199.58125 66.28401 
L 208.334191 61.719109 
L 217.087132 60.849298 
L 225.840074 59.165755 
L 234.593015 61.404551 
L 243.345956 54.73013 
L 252.098897 55.78514 
L 260.851838 60.464994 
L 269.604779 61.805891 
L 278.357721 59.293766 
L 287.110662 62.86314 
L 295.863603 62.881764 
L 304.616544 62.277529 
L 313.369485 64.276712 
L 322.122426 61.342443 
L 330.875368 56.31494 
L 339.628309 55.925783 
L 348.38125 56.270871 
L 357.134191 52.647247 
L 365.887132 53.452923 
L 374.640074 56.703995 
L 383.393015 64.793128 
L 392.145956 63.663063 
L 400.898897 60.200546 
L 409.651838 63.757719 
L 418.404779 58.412996 
L 427.157721 58.191145 
L 435.910662 62.958021 
L 444.663603 64.211637 
L 453.416544 62.606365 
L 462.169485 66.095938 
L 470.922426 60.867686 
L 479.675368 69.518869 
L 488.428309 64.12027 
L 497.18125 87.012009 
L 497.18125 89.777597 
L 497.18125 89.777597 
L 488.428309 66.658647 
L 479.675368 70.397023 
L 470.922426 62.252328 
L 462.169485 68.299035 
L 453.416544 64.427557 
L 444.663603 65.77338 
L 435.910662 64.645456 
L 427.157721 59.715216 
L 418.404779 59.839963 
L 409.651838 65.792134 
L 400.898897 62.460372 
L 392.145956 66.722021 
L 383.393015 66.509681 
L 374.640074 58.49013 
L 365.887132 55.187469 
L 357.134191 53.691468 
L 348.38125 57.417249 
L 339.628309 57.556046 
L 330.875368 57.306332 
L 322.122426 62.258003 
L 313.369485 65.374959 
L 304.616544 62.842652 
L 295.863603 63.743653 
L 287.110662 64.135519 
L 278.357721 61.017543 
L 269.604779 62.709617 
L 260.851838 61.17584 
L 252.098897 55.964901 
L 243.345956 54.948006 
L 234.593015 62.732551 
L 225.840074 59.797712 
L 217.087132 61.799206 
L 208.334191 62.586582 
L 199.58125 67.867692 
L 190.828309 68.016089 
L 182.075368 67.542596 
L 173.322426 68.194887 
L 164.569485 83.761415 
L 155.816544 76.274645 
L 147.063603 77.140537 
L 138.310662 78.952857 
L 129.557721 81.353435 
L 120.804779 77.877325 
L 112.051838 75.8902 
L 103.298897 80.812473 
L 94.545956 71.968655 
L 85.793015 72.492023 
L 77.040074 70.519365 
L 68.287132 72.604848 
L 59.534191 67.040818 
L 50.78125 80.317312 
z
" style="fill:#28b463;fill-opacity:0.6;"/>
   </g>
   <g id="PolyCollection_5">
    <path clip-path="url(#p05f332baed)" d="M 50.78125 78.654519 
L 50.78125 69.543098 
L 59.534191 48.34752 
L 68.287132 53.576401 
L 77.040074 49.544215 
L 85.793015 52.015754 
L 94.545956 49.618487 
L 103.298897 53.072877 
L 112.051838 57.578928 
L 120.804779 60.229402 
L 129.557721 64.58014 
L 138.310662 56.952305 
L 147.063603 57.933272 
L 155.816544 55.868126 
L 164.569485 75.496409 
L 173.322426 53.704024 
L 182.075368 47.616085 
L 190.828309 54.705783 
L 199.58125 55.030262 
L 208.334191 48.975368 
L 217.087132 43.956006 
L 225.840074 40.337196 
L 234.593015 51.782203 
L 243.345956 39.632378 
L 252.098897 40.1626 
L 260.851838 42.780698 
L 269.604779 47.782073 
L 278.357721 47.321534 
L 287.110662 41.113636 
L 295.863603 45.277719 
L 304.616544 48.440649 
L 313.369485 48.36941 
L 322.122426 41.760227 
L 330.875368 38.554258 
L 339.628309 36.880253 
L 348.38125 36.489375 
L 357.134191 34.333639 
L 365.887132 31.135929 
L 374.640074 32.877772 
L 383.393015 42.292583 
L 392.145956 45.77829 
L 400.898897 34.260039 
L 409.651838 48.35486 
L 418.404779 39.302538 
L 427.157721 31.334005 
L 435.910662 33.289791 
L 444.663603 38.64273 
L 453.416544 31.331466 
L 462.169485 38.231689 
L 470.922426 29.482067 
L 479.675368 44.060842 
L 488.428309 37.939063 
L 497.18125 73.574671 
L 497.18125 87.012009 
L 497.18125 87.012009 
L 488.428309 64.12027 
L 479.675368 69.518869 
L 470.922426 60.867686 
L 462.169485 66.095938 
L 453.416544 62.606365 
L 444.663603 64.211637 
L 435.910662 62.958021 
L 427.157721 58.191145 
L 418.404779 58.412996 
L 409.651838 63.757719 
L 400.898897 60.200546 
L 392.145956 63.663063 
L 383.393015 64.793128 
L 374.640074 56.703995 
L 365.887132 53.452923 
L 357.134191 52.647247 
L 348.38125 56.270871 
L 339.628309 55.925783 
L 330.875368 56.31494 
L 322.122426 61.342443 
L 313.369485 64.276712 
L 304.616544 62.277529 
L 295.863603 62.881764 
L 287.110662 62.86314 
L 278.357721 59.293766 
L 269.604779 61.805891 
L 260.851838 60.464994 
L 252.098897 55.78514 
L 243.345956 54.73013 
L 234.593015 61.404551 
L 225.840074 59.165755 
L 217.087132 60.849298 
L 208.334191 61.719109 
L 199.58125 66.28401 
L 190.828309 67.313974 
L 182.075368 65.981695 
L 173.322426 66.813259 
L 164.569485 82.82467 
L 155.816544 74.331661 
L 147.063603 73.919679 
L 138.310662 75.441748 
L 129.557721 77.721421 
L 120.804779 74.928104 
L 112.051838 73.40944 
L 103.298897 79.85472 
L 94.545956 69.022092 
L 85.793015 69.820865 
L 77.040074 67.710416 
L 68.287132 71.464055 
L 59.534191 65.132139 
L 50.78125 78.654519 
z
" style="fill:#494949;fill-opacity:0.6;"/>
   </g>
   <g id="PolyCollection_6">
    <path clip-path="url(#p05f332baed)" d="M 50.78125 69.543098 
L 50.78125 69.543098 
L 59.534191 48.34752 
L 68.287132 53.576401 
L 77.040074 49.544215 
L 85.793015 52.015754 
L 94.545956 49.618487 
L 103.298897 53.072877 
L 112.051838 57.578928 
L 120.804779 60.229402 
L 129.557721 64.58014 
L 138.310662 56.952305 
L 147.063603 57.933272 
L 155.816544 55.868126 
L 164.569485 75.496409 
L 173.322426 53.704024 
L 182.075368 47.616085 
L 190.828309 54.705783 
L 199.58125 55.030262 
L 208.334191 48.975368 
L 217.087132 43.956006 
L 225.840074 40.337196 
L 234.593015 51.782203 
L 243.345956 39.632378 
L 252.098897 40.1626 
L 260.851838 42.780698 
L 269.604779 47.782073 
L 278.357721 47.321534 
L 287.110662 41.113636 
L 295.863603 45.277719 
L 304.616544 48.440649 
L 313.369485 48.36941 
L 322.122426 41.760227 
L 330.875368 38.554258 
L 339.628309 36.880253 
L 348.38125 36.489375 
L 357.134191 34.333639 
L 365.887132 31.135929 
L 374.640074 32.877772 
L 383.393015 42.292583 
L 392.145956 45.77829 
L 400.898897 34.260039 
L 409.651838 48.35486 
L 418.404779 39.302538 
L 427.157721 31.334005 
L 435.910662 33.289791 
L 444.663603 38.64273 
L 453.416544 31.331466 
L 462.169485 38.231689 
L 470.922426 29.482067 
L 479.675368 44.060842 
L 488.428309 37.939063 
L 497.18125 73.574671 
L 497.18125 73.574671 
L 497.18125 73.574671 
L 488.428309 37.939063 
L 479.675368 44.060842 
L 470.922426 29.482067 
L 462.169485 38.231689 
L 453.416544 31.331466 
L 444.663603 38.64273 
L 435.910662 33.289791 
L 427.157721 31.334005 
L 418.404779 39.302538 
L 409.651838 48.35486 
L 400.898897 34.260039 
L 392.145956 45.77829 
L 383.393015 42.292583 
L 374.640074 32.877772 
L 365.887132 31.135929 
L 357.134191 34.333639 
L 348.38125 36.489375 
L 339.628309 36.880253 
L 330.875368 38.554258 
L 322.122426 41.760227 
L 313.369485 48.36941 
L 304.616544 48.440649 
L 295.863603 45.277719 
L 287.110662 41.113636 
L 278.357721 47.321534 
L 269.604779 47.782073 
L 260.851838 42.780698 
L 252.098897 40.1626 
L 243.345956 39.632378 
L 234.593015 51.782203 
L 225.840074 40.337196 
L 217.087132 43.956006 
L 208.334191 48.975368 
L 199.58125 55.030262 
L 190.828309 54.705783 
L 182.075368 47.616085 
L 173.322426 53.704024 
L 164.569485 75.496409 
L 155.816544 55.868126 
L 147.063603 57.933272 
L 138.310662 56.952305 
L 129.557721 64.58014 
L 120.804779 60.229402 
L 112.051838 57.578928 
L 103.298897 53.072877 
L 94.545956 49.618487 
L 85.793015 52.015754 
L 77.040074 49.544215 
L 68.287132 53.576401 
L 59.534191 48.34752 
L 50.78125 69.543098 
z
" style="fill:#7c7c7c;fill-opacity:0.6;"/>
   </g>
   <g id="PolyCollection_7">
    <path clip-path="url(#p05f332baed)" d="M 50.78125 69.543098 
L 50.78125 65.420486 
L 59.534191 41.523156 
L 68.287132 47.13499 
L 77.040074 42.99012 
L 85.793015 44.958467 
L 94.545956 42.621917 
L 103.298897 44.971814 
L 112.051838 50.449945 
L 120.804779 53.517381 
L 129.557721 58.020657 
L 138.310662 50.332083 
L 147.063603 51.444502 
L 155.816544 49.150845 
L 164.569485 71.579153 
L 173.322426 47.87066 
L 182.075368 40.144855 
L 190.828309 47.800448 
L 199.58125 49.042979 
L 208.334191 42.343614 
L 217.087132 37.556784 
L 225.840074 33.730312 
L 234.593015 46.527993 
L 243.345956 33.247356 
L 252.098897 33.572876 
L 260.851838 35.85385 
L 269.604779 41.329497 
L 278.357721 41.135526 
L 287.110662 32.80181 
L 295.863603 39.238128 
L 304.616544 42.044238 
L 313.369485 41.584458 
L 322.122426 34.234564 
L 330.875368 32.313004 
L 339.628309 30.325102 
L 348.38125 30.224453 
L 357.134191 27.506422 
L 365.887132 22.318125 
L 374.640074 24.319108 
L 383.393015 33.584652 
L 392.145956 39.082734 
L 400.898897 25.261981 
L 409.651838 42.494679 
L 418.404779 32.788535 
L 427.157721 22.866407 
L 435.910662 25.186305 
L 444.663603 31.727879 
L 453.416544 23.747736 
L 462.169485 31.604854 
L 470.922426 22.538873 
L 479.675368 37.200407 
L 488.428309 30.871694 
L 497.18125 68.695133 
L 497.18125 73.574671 
L 497.18125 73.574671 
L 488.428309 37.939063 
L 479.675368 44.060842 
L 470.922426 29.482067 
L 462.169485 38.231689 
L 453.416544 31.331466 
L 444.663603 38.64273 
L 435.910662 33.289791 
L 427.157721 31.334005 
L 418.404779 39.302538 
L 409.651838 48.35486 
L 400.898897 34.260039 
L 392.145956 45.77829 
L 383.393015 42.292583 
L 374.640074 32.877772 
L 365.887132 31.135929 
L 357.134191 34.333639 
L 348.38125 36.489375 
L 339.628309 36.880253 
L 330.875368 38.554258 
L 322.122426 41.760227 
L 313.369485 48.36941 
L 304.616544 48.440649 
L 295.863603 45.277719 
L 287.110662 41.113636 
L 278.357721 47.321534 
L 269.604779 47.782073 
L 260.851838 42.780698 
L 252.098897 40.1626 
L 243.345956 39.632378 
L 234.593015 51.782203 
L 225.840074 40.337196 
L 217.087132 43.956006 
L 208.334191 48.975368 
L 199.58125 55.030262 
L 190.828309 54.705783 
L 182.075368 47.616085 
L 173.322426 53.704024 
L 164.569485 75.496409 
L 155.816544 55.868126 
L 147.063603 57.933272 
L 138.310662 56.952305 
L 129.557721 64.58014 
L 120.804779 60.229402 
L 112.051838 57.578928 
L 103.298897 53.072877 
L 94.545956 49.618487 
L 85.793015 52.015754 
L 77.040074 49.544215 
L 68.287132 53.576401 
L 59.534191 48.34752 
L 50.78125 69.543098 
z
" style="fill:#ba4a00;fill-opacity:0.6;"/>
   </g>
   <g id="matplotlib.axis_1">
    <g id="xtick_1">
     <g id="line2d_1">
      <defs>
       <path d="M 0 0 
L 0 3.5 
" id="m6b429c9ac6" style="stroke:#000000;stroke-width:0.8;"/>
      </defs>
      <g>
       <use style="stroke:#000000;stroke-width:0.8;" x="50.78125" xlink:href="#m6b429c9ac6" y="348.478125"/>
      </g>
     </g>
     <g id="text_1">
      <!-- Jan -->
      <defs>
       <path d="M 9.8125 72.90625 
L 19.671875 72.90625 
L 19.671875 5.078125 
Q 19.671875 -8.109375 14.671875 -14.0625 
Q 9.671875 -20.015625 -1.421875 -20.015625 
L -5.171875 -20.015625 
L -5.171875 -11.71875 
L -2.09375 -11.71875 
Q 4.4375 -11.71875 7.125 -8.046875 
Q 9.8125 -4.390625 9.8125 5.078125 
z
" id="DejaVuSans-74"/>
       <path d="M 34.28125 27.484375 
Q 23.390625 27.484375 19.1875 25 
Q 14.984375 22.515625 14.984375 16.5 
Q 14.984375 11.71875 18.140625 8.90625 
Q 21.296875 6.109375 26.703125 6.109375 
Q 34.1875 6.109375 38.703125 11.40625 
Q 43.21875 16.703125 43.21875 25.484375 
L 43.21875 27.484375 
z
M 52.203125 31.203125 
L 52.203125 0 
L 43.21875 0 
L 43.21875 8.296875 
Q 40.140625 3.328125 35.546875 0.953125 
Q 30.953125 -1.421875 24.3125 -1.421875 
Q 15.921875 -1.421875 10.953125 3.296875 
Q 6 8.015625 6 15.921875 
Q 6 25.140625 12.171875 29.828125 
Q 18.359375 34.515625 30.609375 34.515625 
L 43.21875 34.515625 
L 43.21875 35.40625 
Q 43.21875 41.609375 39.140625 45 
Q 35.0625 48.390625 27.6875 48.390625 
Q 23 48.390625 18.546875 47.265625 
Q 14.109375 46.140625 10.015625 43.890625 
L 10.015625 52.203125 
Q 14.9375 54.109375 19.578125 55.046875 
Q 24.21875 56 28.609375 56 
Q 40.484375 56 46.34375 49.84375 
Q 52.203125 43.703125 52.203125 31.203125 
z
" id="DejaVuSans-97"/>
       <path d="M 54.890625 33.015625 
L 54.890625 0 
L 45.90625 0 
L 45.90625 32.71875 
Q 45.90625 40.484375 42.875 44.328125 
Q 39.84375 48.1875 33.796875 48.1875 
Q 26.515625 48.1875 22.3125 43.546875 
Q 18.109375 38.921875 18.109375 30.90625 
L 18.109375 0 
L 9.078125 0 
L 9.078125 54.6875 
L 18.109375 54.6875 
L 18.109375 46.1875 
Q 21.34375 51.125 25.703125 53.5625 
Q 30.078125 56 35.796875 56 
Q 45.21875 56 50.046875 50.171875 
Q 54.890625 44.34375 54.890625 33.015625 
z
" id="DejaVuSans-110"/>
      </defs>
      <g transform="translate(50.737987 372.562893)rotate(-70)scale(0.1 -0.1)">
       <use xlink:href="#DejaVuSans-74"/>
       <use x="29.492188" xlink:href="#DejaVuSans-97"/>
       <use x="90.771484" xlink:href="#DejaVuSans-110"/>
      </g>
     </g>
    </g>
    <g id="xtick_2">
     <g id="line2d_2">
      <g>
       <use style="stroke:#000000;stroke-width:0.8;" x="94.545956" xlink:href="#m6b429c9ac6" y="348.478125"/>
      </g>
     </g>
     <g id="text_2">
      <!-- Feb -->
      <defs>
       <path d="M 9.8125 72.90625 
L 51.703125 72.90625 
L 51.703125 64.59375 
L 19.671875 64.59375 
L 19.671875 43.109375 
L 48.578125 43.109375 
L 48.578125 34.8125 
L 19.671875 34.8125 
L 19.671875 0 
L 9.8125 0 
z
" id="DejaVuSans-70"/>
       <path d="M 56.203125 29.59375 
L 56.203125 25.203125 
L 14.890625 25.203125 
Q 15.484375 15.921875 20.484375 11.0625 
Q 25.484375 6.203125 34.421875 6.203125 
Q 39.59375 6.203125 44.453125 7.46875 
Q 49.3125 8.734375 54.109375 11.28125 
L 54.109375 2.78125 
Q 49.265625 0.734375 44.1875 -0.34375 
Q 39.109375 -1.421875 33.890625 -1.421875 
Q 20.796875 -1.421875 13.15625 6.1875 
Q 5.515625 13.8125 5.515625 26.8125 
Q 5.515625 40.234375 12.765625 48.109375 
Q 20.015625 56 32.328125 56 
Q 43.359375 56 49.78125 48.890625 
Q 56.203125 41.796875 56.203125 29.59375 
z
M 47.21875 32.234375 
Q 47.125 39.59375 43.09375 43.984375 
Q 39.0625 48.390625 32.421875 48.390625 
Q 24.90625 48.390625 20.390625 44.140625 
Q 15.875 39.890625 15.1875 32.171875 
z
" id="DejaVuSans-101"/>
       <path d="M 48.6875 27.296875 
Q 48.6875 37.203125 44.609375 42.84375 
Q 40.53125 48.484375 33.40625 48.484375 
Q 26.265625 48.484375 22.1875 42.84375 
Q 18.109375 37.203125 18.109375 27.296875 
Q 18.109375 17.390625 22.1875 11.75 
Q 26.265625 6.109375 33.40625 6.109375 
Q 40.53125 6.109375 44.609375 11.75 
Q 48.6875 17.390625 48.6875 27.296875 
z
M 18.109375 46.390625 
Q 20.953125 51.265625 25.265625 53.625 
Q 29.59375 56 35.59375 56 
Q 45.5625 56 51.78125 48.09375 
Q 58.015625 40.1875 58.015625 27.296875 
Q 58.015625 14.40625 51.78125 6.484375 
Q 45.5625 -1.421875 35.59375 -1.421875 
Q 29.59375 -1.421875 25.265625 0.953125 
Q 20.953125 3.328125 18.109375 8.203125 
L 18.109375 0 
L 9.078125 0 
L 9.078125 75.984375 
L 18.109375 75.984375 
z
" id="DejaVuSans-98"/>
      </defs>
      <g transform="translate(94.111508 374.71244)rotate(-70)scale(0.1 -0.1)">
       <use xlink:href="#DejaVuSans-70"/>
       <use x="52.019531" xlink:href="#DejaVuSans-101"/>
       <use x="113.542969" xlink:href="#DejaVuSans-98"/>
      </g>
     </g>
    </g>
    <g id="xtick_3">
     <g id="line2d_3">
      <g>
       <use style="stroke:#000000;stroke-width:0.8;" x="129.557721" xlink:href="#m6b429c9ac6" y="348.478125"/>
      </g>
     </g>
     <g id="text_3">
      <!-- Mar -->
      <defs>
       <path d="M 9.8125 72.90625 
L 24.515625 72.90625 
L 43.109375 23.296875 
L 61.8125 72.90625 
L 76.515625 72.90625 
L 76.515625 0 
L 66.890625 0 
L 66.890625 64.015625 
L 48.09375 14.015625 
L 38.1875 14.015625 
L 19.390625 64.015625 
L 19.390625 0 
L 9.8125 0 
z
" id="DejaVuSans-77"/>
       <path d="M 41.109375 46.296875 
Q 39.59375 47.171875 37.8125 47.578125 
Q 36.03125 48 33.890625 48 
Q 26.265625 48 22.1875 43.046875 
Q 18.109375 38.09375 18.109375 28.8125 
L 18.109375 0 
L 9.078125 0 
L 9.078125 54.6875 
L 18.109375 54.6875 
L 18.109375 46.1875 
Q 20.953125 51.171875 25.484375 53.578125 
Q 30.03125 56 36.53125 56 
Q 37.453125 56 38.578125 55.875 
Q 39.703125 55.765625 41.0625 55.515625 
z
" id="DejaVuSans-114"/>
      </defs>
      <g transform="translate(128.924206 375.806301)rotate(-70)scale(0.1 -0.1)">
       <use xlink:href="#DejaVuSans-77"/>
       <use x="86.279297" xlink:href="#DejaVuSans-97"/>
       <use x="147.558594" xlink:href="#DejaVuSans-114"/>
      </g>
     </g>
    </g>
    <g id="xtick_4">
     <g id="line2d_4">
      <g>
       <use style="stroke:#000000;stroke-width:0.8;" x="164.569485" xlink:href="#m6b429c9ac6" y="348.478125"/>
      </g>
     </g>
     <g id="text_4">
      <!-- Apr -->
      <defs>
       <path d="M 34.1875 63.1875 
L 20.796875 26.90625 
L 47.609375 26.90625 
z
M 28.609375 72.90625 
L 39.796875 72.90625 
L 67.578125 0 
L 57.328125 0 
L 50.6875 18.703125 
L 17.828125 18.703125 
L 11.1875 0 
L 0.78125 0 
z
" id="DejaVuSans-65"/>
       <path d="M 18.109375 8.203125 
L 18.109375 -20.796875 
L 9.078125 -20.796875 
L 9.078125 54.6875 
L 18.109375 54.6875 
L 18.109375 46.390625 
Q 20.953125 51.265625 25.265625 53.625 
Q 29.59375 56 35.59375 56 
Q 45.5625 56 51.78125 48.09375 
Q 58.015625 40.1875 58.015625 27.296875 
Q 58.015625 14.40625 51.78125 6.484375 
Q 45.5625 -1.421875 35.59375 -1.421875 
Q 29.59375 -1.421875 25.265625 0.953125 
Q 20.953125 3.328125 18.109375 8.203125 
z
M 48.6875 27.296875 
Q 48.6875 37.203125 44.609375 42.84375 
Q 40.53125 48.484375 33.40625 48.484375 
Q 26.265625 48.484375 22.1875 42.84375 
Q 18.109375 37.203125 18.109375 27.296875 
Q 18.109375 17.390625 22.1875 11.75 
Q 26.265625 6.109375 33.40625 6.109375 
Q 40.53125 6.109375 44.609375 11.75 
Q 48.6875 17.390625 48.6875 27.296875 
z
" id="DejaVuSans-112"/>
      </defs>
      <g transform="translate(164.203975 374.333626)rotate(-70)scale(0.1 -0.1)">
       <use xlink:href="#DejaVuSans-65"/>
       <use x="68.408203" xlink:href="#DejaVuSans-112"/>
       <use x="131.884766" xlink:href="#DejaVuSans-114"/>
      </g>
     </g>
    </g>
    <g id="xtick_5">
     <g id="line2d_5">
      <g>
       <use style="stroke:#000000;stroke-width:0.8;" x="199.58125" xlink:href="#m6b429c9ac6" y="348.478125"/>
      </g>
     </g>
     <g id="text_5">
      <!-- May -->
      <defs>
       <path d="M 32.171875 -5.078125 
Q 28.375 -14.84375 24.75 -17.8125 
Q 21.140625 -20.796875 15.09375 -20.796875 
L 7.90625 -20.796875 
L 7.90625 -13.28125 
L 13.1875 -13.28125 
Q 16.890625 -13.28125 18.9375 -11.515625 
Q 21 -9.765625 23.484375 -3.21875 
L 25.09375 0.875 
L 2.984375 54.6875 
L 12.5 54.6875 
L 29.59375 11.921875 
L 46.6875 54.6875 
L 56.203125 54.6875 
z
" id="DejaVuSans-121"/>
      </defs>
      <g transform="translate(198.638581 377.505089)rotate(-70)scale(0.1 -0.1)">
       <use xlink:href="#DejaVuSans-77"/>
       <use x="86.279297" xlink:href="#DejaVuSans-97"/>
       <use x="147.558594" xlink:href="#DejaVuSans-121"/>
      </g>
     </g>
    </g>
    <g id="xtick_6">
     <g id="line2d_6">
      <g>
       <use style="stroke:#000000;stroke-width:0.8;" x="243.345956" xlink:href="#m6b429c9ac6" y="348.478125"/>
      </g>
     </g>
     <g id="text_6">
      <!-- Jun -->
      <defs>
       <path d="M 8.5 21.578125 
L 8.5 54.6875 
L 17.484375 54.6875 
L 17.484375 21.921875 
Q 17.484375 14.15625 20.5 10.265625 
Q 23.53125 6.390625 29.59375 6.390625 
Q 36.859375 6.390625 41.078125 11.03125 
Q 45.3125 15.671875 45.3125 23.6875 
L 45.3125 54.6875 
L 54.296875 54.6875 
L 54.296875 0 
L 45.3125 0 
L 45.3125 8.40625 
Q 42.046875 3.421875 37.71875 1 
Q 33.40625 -1.421875 27.6875 -1.421875 
Q 18.265625 -1.421875 13.375 4.4375 
Q 8.5 10.296875 8.5 21.578125 
z
M 31.109375 56 
z
" id="DejaVuSans-117"/>
      </defs>
      <g transform="translate(243.266888 372.759641)rotate(-70)scale(0.1 -0.1)">
       <use xlink:href="#DejaVuSans-74"/>
       <use x="29.492188" xlink:href="#DejaVuSans-117"/>
       <use x="92.871094" xlink:href="#DejaVuSans-110"/>
      </g>
     </g>
    </g>
    <g id="xtick_7">
     <g id="line2d_7">
      <g>
       <use style="stroke:#000000;stroke-width:0.8;" x="278.357721" xlink:href="#m6b429c9ac6" y="348.478125"/>
      </g>
     </g>
     <g id="text_7">
      <!-- Jul -->
      <defs>
       <path d="M 9.421875 75.984375 
L 18.40625 75.984375 
L 18.40625 0 
L 9.421875 0 
z
" id="DejaVuSans-108"/>
      </defs>
      <g transform="translate(278.887342 369.414922)rotate(-70)scale(0.1 -0.1)">
       <use xlink:href="#DejaVuSans-74"/>
       <use x="29.492188" xlink:href="#DejaVuSans-117"/>
       <use x="92.871094" xlink:href="#DejaVuSans-108"/>
      </g>
     </g>
    </g>
    <g id="xtick_8">
     <g id="line2d_8">
      <g>
       <use style="stroke:#000000;stroke-width:0.8;" x="313.369485" xlink:href="#m6b429c9ac6" y="348.478125"/>
      </g>
     </g>
     <g id="text_8">
      <!-- Aug -->
      <defs>
       <path d="M 45.40625 27.984375 
Q 45.40625 37.75 41.375 43.109375 
Q 37.359375 48.484375 30.078125 48.484375 
Q 22.859375 48.484375 18.828125 43.109375 
Q 14.796875 37.75 14.796875 27.984375 
Q 14.796875 18.265625 18.828125 12.890625 
Q 22.859375 7.515625 30.078125 7.515625 
Q 37.359375 7.515625 41.375 12.890625 
Q 45.40625 18.265625 45.40625 27.984375 
z
M 54.390625 6.78125 
Q 54.390625 -7.171875 48.1875 -13.984375 
Q 42 -20.796875 29.203125 -20.796875 
Q 24.46875 -20.796875 20.265625 -20.09375 
Q 16.0625 -19.390625 12.109375 -17.921875 
L 12.109375 -9.1875 
Q 16.0625 -11.328125 19.921875 -12.34375 
Q 23.78125 -13.375 27.78125 -13.375 
Q 36.625 -13.375 41.015625 -8.765625 
Q 45.40625 -4.15625 45.40625 5.171875 
L 45.40625 9.625 
Q 42.625 4.78125 38.28125 2.390625 
Q 33.9375 0 27.875 0 
Q 17.828125 0 11.671875 7.65625 
Q 5.515625 15.328125 5.515625 27.984375 
Q 5.515625 40.671875 11.671875 48.328125 
Q 17.828125 56 27.875 56 
Q 33.9375 56 38.28125 53.609375 
Q 42.625 51.21875 45.40625 46.390625 
L 45.40625 54.6875 
L 54.390625 54.6875 
z
" id="DejaVuSans-103"/>
      </defs>
      <g transform="translate(312.623211 376.42591)rotate(-70)scale(0.1 -0.1)">
       <use xlink:href="#DejaVuSans-65"/>
       <use x="68.408203" xlink:href="#DejaVuSans-117"/>
       <use x="131.787109" xlink:href="#DejaVuSans-103"/>
      </g>
     </g>
    </g>
    <g id="xtick_9">
     <g id="line2d_9">
      <g>
       <use style="stroke:#000000;stroke-width:0.8;" x="357.134191" xlink:href="#m6b429c9ac6" y="348.478125"/>
      </g>
     </g>
     <g id="text_9">
      <!-- Sept -->
      <defs>
       <path d="M 53.515625 70.515625 
L 53.515625 60.890625 
Q 47.90625 63.578125 42.921875 64.890625 
Q 37.9375 66.21875 33.296875 66.21875 
Q 25.25 66.21875 20.875 63.09375 
Q 16.5 59.96875 16.5 54.203125 
Q 16.5 49.359375 19.40625 46.890625 
Q 22.3125 44.4375 30.421875 42.921875 
L 36.375 41.703125 
Q 47.40625 39.59375 52.65625 34.296875 
Q 57.90625 29 57.90625 20.125 
Q 57.90625 9.515625 50.796875 4.046875 
Q 43.703125 -1.421875 29.984375 -1.421875 
Q 24.8125 -1.421875 18.96875 -0.25 
Q 13.140625 0.921875 6.890625 3.21875 
L 6.890625 13.375 
Q 12.890625 10.015625 18.65625 8.296875 
Q 24.421875 6.59375 29.984375 6.59375 
Q 38.421875 6.59375 43.015625 9.90625 
Q 47.609375 13.234375 47.609375 19.390625 
Q 47.609375 24.75 44.3125 27.78125 
Q 41.015625 30.8125 33.5 32.328125 
L 27.484375 33.5 
Q 16.453125 35.6875 11.515625 40.375 
Q 6.59375 45.0625 6.59375 53.421875 
Q 6.59375 63.09375 13.40625 68.65625 
Q 20.21875 74.21875 32.171875 74.21875 
Q 37.3125 74.21875 42.625 73.28125 
Q 47.953125 72.359375 53.515625 70.515625 
z
" id="DejaVuSans-83"/>
       <path d="M 18.3125 70.21875 
L 18.3125 54.6875 
L 36.8125 54.6875 
L 36.8125 47.703125 
L 18.3125 47.703125 
L 18.3125 18.015625 
Q 18.3125 11.328125 20.140625 9.421875 
Q 21.96875 7.515625 27.59375 7.515625 
L 36.8125 7.515625 
L 36.8125 0 
L 27.59375 0 
Q 17.1875 0 13.234375 3.875 
Q 9.28125 7.765625 9.28125 18.015625 
L 9.28125 47.703125 
L 2.6875 47.703125 
L 2.6875 54.6875 
L 9.28125 54.6875 
L 9.28125 70.21875 
z
" id="DejaVuSans-116"/>
      </defs>
      <g transform="translate(355.833203 379.474038)rotate(-70)scale(0.1 -0.1)">
       <use xlink:href="#DejaVuSans-83"/>
       <use x="63.476562" xlink:href="#DejaVuSans-101"/>
       <use x="125" xlink:href="#DejaVuSans-112"/>
       <use x="188.476562" xlink:href="#DejaVuSans-116"/>
      </g>
     </g>
    </g>
    <g id="xtick_10">
     <g id="line2d_10">
      <g>
       <use style="stroke:#000000;stroke-width:0.8;" x="392.145956" xlink:href="#m6b429c9ac6" y="348.478125"/>
      </g>
     </g>
     <g id="text_10">
      <!-- Oct -->
      <defs>
       <path d="M 39.40625 66.21875 
Q 28.65625 66.21875 22.328125 58.203125 
Q 16.015625 50.203125 16.015625 36.375 
Q 16.015625 22.609375 22.328125 14.59375 
Q 28.65625 6.59375 39.40625 6.59375 
Q 50.140625 6.59375 56.421875 14.59375 
Q 62.703125 22.609375 62.703125 36.375 
Q 62.703125 50.203125 56.421875 58.203125 
Q 50.140625 66.21875 39.40625 66.21875 
z
M 39.40625 74.21875 
Q 54.734375 74.21875 63.90625 63.9375 
Q 73.09375 53.65625 73.09375 36.375 
Q 73.09375 19.140625 63.90625 8.859375 
Q 54.734375 -1.421875 39.40625 -1.421875 
Q 24.03125 -1.421875 14.8125 8.828125 
Q 5.609375 19.09375 5.609375 36.375 
Q 5.609375 53.65625 14.8125 63.9375 
Q 24.03125 74.21875 39.40625 74.21875 
z
" id="DejaVuSans-79"/>
       <path d="M 48.78125 52.59375 
L 48.78125 44.1875 
Q 44.96875 46.296875 41.140625 47.34375 
Q 37.3125 48.390625 33.40625 48.390625 
Q 24.65625 48.390625 19.8125 42.84375 
Q 14.984375 37.3125 14.984375 27.296875 
Q 14.984375 17.28125 19.8125 11.734375 
Q 24.65625 6.203125 33.40625 6.203125 
Q 37.3125 6.203125 41.140625 7.25 
Q 44.96875 8.296875 48.78125 10.40625 
L 48.78125 2.09375 
Q 45.015625 0.34375 40.984375 -0.53125 
Q 36.96875 -1.421875 32.421875 -1.421875 
Q 20.0625 -1.421875 12.78125 6.34375 
Q 5.515625 14.109375 5.515625 27.296875 
Q 5.515625 40.671875 12.859375 48.328125 
Q 20.21875 56 33.015625 56 
Q 37.15625 56 41.109375 55.140625 
Q 45.0625 54.296875 48.78125 52.59375 
z
" id="DejaVuSans-99"/>
      </defs>
      <g transform="translate(391.782049 374.324816)rotate(-70)scale(0.1 -0.1)">
       <use xlink:href="#DejaVuSans-79"/>
       <use x="78.710938" xlink:href="#DejaVuSans-99"/>
       <use x="133.691406" xlink:href="#DejaVuSans-116"/>
      </g>
     </g>
    </g>
    <g id="xtick_11">
     <g id="line2d_11">
      <g>
       <use style="stroke:#000000;stroke-width:0.8;" x="427.157721" xlink:href="#m6b429c9ac6" y="348.478125"/>
      </g>
     </g>
     <g id="text_11">
      <!-- Nov -->
      <defs>
       <path d="M 9.8125 72.90625 
L 23.09375 72.90625 
L 55.421875 11.921875 
L 55.421875 72.90625 
L 64.984375 72.90625 
L 64.984375 0 
L 51.703125 0 
L 19.390625 60.984375 
L 19.390625 0 
L 9.8125 0 
z
" id="DejaVuSans-78"/>
       <path d="M 30.609375 48.390625 
Q 23.390625 48.390625 19.1875 42.75 
Q 14.984375 37.109375 14.984375 27.296875 
Q 14.984375 17.484375 19.15625 11.84375 
Q 23.34375 6.203125 30.609375 6.203125 
Q 37.796875 6.203125 41.984375 11.859375 
Q 46.1875 17.53125 46.1875 27.296875 
Q 46.1875 37.015625 41.984375 42.703125 
Q 37.796875 48.390625 30.609375 48.390625 
z
M 30.609375 56 
Q 42.328125 56 49.015625 48.375 
Q 55.71875 40.765625 55.71875 27.296875 
Q 55.71875 13.875 49.015625 6.21875 
Q 42.328125 -1.421875 30.609375 -1.421875 
Q 18.84375 -1.421875 12.171875 6.21875 
Q 5.515625 13.875 5.515625 27.296875 
Q 5.515625 40.765625 12.171875 48.375 
Q 18.84375 56 30.609375 56 
z
" id="DejaVuSans-111"/>
       <path d="M 2.984375 54.6875 
L 12.5 54.6875 
L 29.59375 8.796875 
L 46.6875 54.6875 
L 56.203125 54.6875 
L 35.6875 0 
L 23.484375 0 
z
" id="DejaVuSans-118"/>
      </defs>
      <g transform="translate(426.412782 376.418569)rotate(-70)scale(0.1 -0.1)">
       <use xlink:href="#DejaVuSans-78"/>
       <use x="74.804688" xlink:href="#DejaVuSans-111"/>
       <use x="135.986328" xlink:href="#DejaVuSans-118"/>
      </g>
     </g>
    </g>
    <g id="xtick_12">
     <g id="line2d_12">
      <g>
       <use style="stroke:#000000;stroke-width:0.8;" x="462.169485" xlink:href="#m6b429c9ac6" y="348.478125"/>
      </g>
     </g>
     <g id="text_12">
      <!-- Dec -->
      <defs>
       <path d="M 19.671875 64.796875 
L 19.671875 8.109375 
L 31.59375 8.109375 
Q 46.6875 8.109375 53.6875 14.9375 
Q 60.6875 21.78125 60.6875 36.53125 
Q 60.6875 51.171875 53.6875 57.984375 
Q 46.6875 64.796875 31.59375 64.796875 
z
M 9.8125 72.90625 
L 30.078125 72.90625 
Q 51.265625 72.90625 61.171875 64.09375 
Q 71.09375 55.28125 71.09375 36.53125 
Q 71.09375 17.671875 61.125 8.828125 
Q 51.171875 0 30.078125 0 
L 9.8125 0 
z
" id="DejaVuSans-68"/>
      </defs>
      <g transform="translate(461.453138 376.261464)rotate(-70)scale(0.1 -0.1)">
       <use xlink:href="#DejaVuSans-68"/>
       <use x="77.001953" xlink:href="#DejaVuSans-101"/>
       <use x="138.525391" xlink:href="#DejaVuSans-99"/>
      </g>
     </g>
    </g>
   </g>
   <g id="matplotlib.axis_2">
    <g id="ytick_1">
     <g id="line2d_13">
      <defs>
       <path d="M 0 0 
L -3.5 0 
" id="m8020a73c9d" style="stroke:#000000;stroke-width:0.8;"/>
      </defs>
      <g>
       <use style="stroke:#000000;stroke-width:0.8;" x="50.78125" xlink:href="#m8020a73c9d" y="348.478125"/>
      </g>
     </g>
     <g id="text_13">
      <!-- 0.0 -->
      <defs>
       <path d="M 31.78125 66.40625 
Q 24.171875 66.40625 20.328125 58.90625 
Q 16.5 51.421875 16.5 36.375 
Q 16.5 21.390625 20.328125 13.890625 
Q 24.171875 6.390625 31.78125 6.390625 
Q 39.453125 6.390625 43.28125 13.890625 
Q 47.125 21.390625 47.125 36.375 
Q 47.125 51.421875 43.28125 58.90625 
Q 39.453125 66.40625 31.78125 66.40625 
z
M 31.78125 74.21875 
Q 44.046875 74.21875 50.515625 64.515625 
Q 56.984375 54.828125 56.984375 36.375 
Q 56.984375 17.96875 50.515625 8.265625 
Q 44.046875 -1.421875 31.78125 -1.421875 
Q 19.53125 -1.421875 13.0625 8.265625 
Q 6.59375 17.96875 6.59375 36.375 
Q 6.59375 54.828125 13.0625 64.515625 
Q 19.53125 74.21875 31.78125 74.21875 
z
" id="DejaVuSans-48"/>
       <path d="M 10.6875 12.40625 
L 21 12.40625 
L 21 0 
L 10.6875 0 
z
" id="DejaVuSans-46"/>
      </defs>
      <g transform="translate(27.878125 352.277344)scale(0.1 -0.1)">
       <use xlink:href="#DejaVuSans-48"/>
       <use x="63.623047" xlink:href="#DejaVuSans-46"/>
       <use x="95.410156" xlink:href="#DejaVuSans-48"/>
      </g>
     </g>
    </g>
    <g id="ytick_2">
     <g id="line2d_14">
      <g>
       <use style="stroke:#000000;stroke-width:0.8;" x="50.78125" xlink:href="#m8020a73c9d" y="288.912218"/>
      </g>
     </g>
     <g id="text_14">
      <!-- 0.2 -->
      <defs>
       <path d="M 19.1875 8.296875 
L 53.609375 8.296875 
L 53.609375 0 
L 7.328125 0 
L 7.328125 8.296875 
Q 12.9375 14.109375 22.625 23.890625 
Q 32.328125 33.6875 34.8125 36.53125 
Q 39.546875 41.84375 41.421875 45.53125 
Q 43.3125 49.21875 43.3125 52.78125 
Q 43.3125 58.59375 39.234375 62.25 
Q 35.15625 65.921875 28.609375 65.921875 
Q 23.96875 65.921875 18.8125 64.3125 
Q 13.671875 62.703125 7.8125 59.421875 
L 7.8125 69.390625 
Q 13.765625 71.78125 18.9375 73 
Q 24.125 74.21875 28.421875 74.21875 
Q 39.75 74.21875 46.484375 68.546875 
Q 53.21875 62.890625 53.21875 53.421875 
Q 53.21875 48.921875 51.53125 44.890625 
Q 49.859375 40.875 45.40625 35.40625 
Q 44.1875 33.984375 37.640625 27.21875 
Q 31.109375 20.453125 19.1875 8.296875 
z
" id="DejaVuSans-50"/>
      </defs>
      <g transform="translate(27.878125 292.711437)scale(0.1 -0.1)">
       <use xlink:href="#DejaVuSans-48"/>
       <use x="63.623047" xlink:href="#DejaVuSans-46"/>
       <use x="95.410156" xlink:href="#DejaVuSans-50"/>
      </g>
     </g>
    </g>
    <g id="ytick_3">
     <g id="line2d_15">
      <g>
       <use style="stroke:#000000;stroke-width:0.8;" x="50.78125" xlink:href="#m8020a73c9d" y="229.346311"/>
      </g>
     </g>
     <g id="text_15">
      <!-- 0.4 -->
      <defs>
       <path d="M 37.796875 64.3125 
L 12.890625 25.390625 
L 37.796875 25.390625 
z
M 35.203125 72.90625 
L 47.609375 72.90625 
L 47.609375 25.390625 
L 58.015625 25.390625 
L 58.015625 17.1875 
L 47.609375 17.1875 
L 47.609375 0 
L 37.796875 0 
L 37.796875 17.1875 
L 4.890625 17.1875 
L 4.890625 26.703125 
z
" id="DejaVuSans-52"/>
      </defs>
      <g transform="translate(27.878125 233.14553)scale(0.1 -0.1)">
       <use xlink:href="#DejaVuSans-48"/>
       <use x="63.623047" xlink:href="#DejaVuSans-46"/>
       <use x="95.410156" xlink:href="#DejaVuSans-52"/>
      </g>
     </g>
    </g>
    <g id="ytick_4">
     <g id="line2d_16">
      <g>
       <use style="stroke:#000000;stroke-width:0.8;" x="50.78125" xlink:href="#m8020a73c9d" y="169.780405"/>
      </g>
     </g>
     <g id="text_16">
      <!-- 0.6 -->
      <defs>
       <path d="M 33.015625 40.375 
Q 26.375 40.375 22.484375 35.828125 
Q 18.609375 31.296875 18.609375 23.390625 
Q 18.609375 15.53125 22.484375 10.953125 
Q 26.375 6.390625 33.015625 6.390625 
Q 39.65625 6.390625 43.53125 10.953125 
Q 47.40625 15.53125 47.40625 23.390625 
Q 47.40625 31.296875 43.53125 35.828125 
Q 39.65625 40.375 33.015625 40.375 
z
M 52.59375 71.296875 
L 52.59375 62.3125 
Q 48.875 64.0625 45.09375 64.984375 
Q 41.3125 65.921875 37.59375 65.921875 
Q 27.828125 65.921875 22.671875 59.328125 
Q 17.53125 52.734375 16.796875 39.40625 
Q 19.671875 43.65625 24.015625 45.921875 
Q 28.375 48.1875 33.59375 48.1875 
Q 44.578125 48.1875 50.953125 41.515625 
Q 57.328125 34.859375 57.328125 23.390625 
Q 57.328125 12.15625 50.6875 5.359375 
Q 44.046875 -1.421875 33.015625 -1.421875 
Q 20.359375 -1.421875 13.671875 8.265625 
Q 6.984375 17.96875 6.984375 36.375 
Q 6.984375 53.65625 15.1875 63.9375 
Q 23.390625 74.21875 37.203125 74.21875 
Q 40.921875 74.21875 44.703125 73.484375 
Q 48.484375 72.75 52.59375 71.296875 
z
" id="DejaVuSans-54"/>
      </defs>
      <g transform="translate(27.878125 173.579623)scale(0.1 -0.1)">
       <use xlink:href="#DejaVuSans-48"/>
       <use x="63.623047" xlink:href="#DejaVuSans-46"/>
       <use x="95.410156" xlink:href="#DejaVuSans-54"/>
      </g>
     </g>
    </g>
    <g id="ytick_5">
     <g id="line2d_17">
      <g>
       <use style="stroke:#000000;stroke-width:0.8;" x="50.78125" xlink:href="#m8020a73c9d" y="110.214498"/>
      </g>
     </g>
     <g id="text_17">
      <!-- 0.8 -->
      <defs>
       <path d="M 31.78125 34.625 
Q 24.75 34.625 20.71875 30.859375 
Q 16.703125 27.09375 16.703125 20.515625 
Q 16.703125 13.921875 20.71875 10.15625 
Q 24.75 6.390625 31.78125 6.390625 
Q 38.8125 6.390625 42.859375 10.171875 
Q 46.921875 13.96875 46.921875 20.515625 
Q 46.921875 27.09375 42.890625 30.859375 
Q 38.875 34.625 31.78125 34.625 
z
M 21.921875 38.8125 
Q 15.578125 40.375 12.03125 44.71875 
Q 8.5 49.078125 8.5 55.328125 
Q 8.5 64.0625 14.71875 69.140625 
Q 20.953125 74.21875 31.78125 74.21875 
Q 42.671875 74.21875 48.875 69.140625 
Q 55.078125 64.0625 55.078125 55.328125 
Q 55.078125 49.078125 51.53125 44.71875 
Q 48 40.375 41.703125 38.8125 
Q 48.828125 37.15625 52.796875 32.3125 
Q 56.78125 27.484375 56.78125 20.515625 
Q 56.78125 9.90625 50.3125 4.234375 
Q 43.84375 -1.421875 31.78125 -1.421875 
Q 19.734375 -1.421875 13.25 4.234375 
Q 6.78125 9.90625 6.78125 20.515625 
Q 6.78125 27.484375 10.78125 32.3125 
Q 14.796875 37.15625 21.921875 38.8125 
z
M 18.3125 54.390625 
Q 18.3125 48.734375 21.84375 45.5625 
Q 25.390625 42.390625 31.78125 42.390625 
Q 38.140625 42.390625 41.71875 45.5625 
Q 45.3125 48.734375 45.3125 54.390625 
Q 45.3125 60.0625 41.71875 63.234375 
Q 38.140625 66.40625 31.78125 66.40625 
Q 25.390625 66.40625 21.84375 63.234375 
Q 18.3125 60.0625 18.3125 54.390625 
z
" id="DejaVuSans-56"/>
      </defs>
      <g transform="translate(27.878125 114.013717)scale(0.1 -0.1)">
       <use xlink:href="#DejaVuSans-48"/>
       <use x="63.623047" xlink:href="#DejaVuSans-46"/>
       <use x="95.410156" xlink:href="#DejaVuSans-56"/>
      </g>
     </g>
    </g>
    <g id="ytick_6">
     <g id="line2d_18">
      <g>
       <use style="stroke:#000000;stroke-width:0.8;" x="50.78125" xlink:href="#m8020a73c9d" y="50.648591"/>
      </g>
     </g>
     <g id="text_18">
      <!-- 1.0 -->
      <defs>
       <path d="M 12.40625 8.296875 
L 28.515625 8.296875 
L 28.515625 63.921875 
L 10.984375 60.40625 
L 10.984375 69.390625 
L 28.421875 72.90625 
L 38.28125 72.90625 
L 38.28125 8.296875 
L 54.390625 8.296875 
L 54.390625 0 
L 12.40625 0 
z
" id="DejaVuSans-49"/>
      </defs>
      <g transform="translate(27.878125 54.44781)scale(0.1 -0.1)">
       <use xlink:href="#DejaVuSans-49"/>
       <use x="63.623047" xlink:href="#DejaVuSans-46"/>
       <use x="95.410156" xlink:href="#DejaVuSans-48"/>
      </g>
     </g>
    </g>
    <g id="text_19">
     <!-- Power (GW) -->
     <defs>
      <path d="M 19.671875 64.796875 
L 19.671875 37.40625 
L 32.078125 37.40625 
Q 38.96875 37.40625 42.71875 40.96875 
Q 46.484375 44.53125 46.484375 51.125 
Q 46.484375 57.671875 42.71875 61.234375 
Q 38.96875 64.796875 32.078125 64.796875 
z
M 9.8125 72.90625 
L 32.078125 72.90625 
Q 44.34375 72.90625 50.609375 67.359375 
Q 56.890625 61.8125 56.890625 51.125 
Q 56.890625 40.328125 50.609375 34.8125 
Q 44.34375 29.296875 32.078125 29.296875 
L 19.671875 29.296875 
L 19.671875 0 
L 9.8125 0 
z
" id="DejaVuSans-80"/>
      <path d="M 4.203125 54.6875 
L 13.1875 54.6875 
L 24.421875 12.015625 
L 35.59375 54.6875 
L 46.1875 54.6875 
L 57.421875 12.015625 
L 68.609375 54.6875 
L 77.59375 54.6875 
L 63.28125 0 
L 52.6875 0 
L 40.921875 44.828125 
L 29.109375 0 
L 18.5 0 
z
" id="DejaVuSans-119"/>
      <path id="DejaVuSans-32"/>
      <path d="M 31 75.875 
Q 24.46875 64.65625 21.28125 53.65625 
Q 18.109375 42.671875 18.109375 31.390625 
Q 18.109375 20.125 21.3125 9.0625 
Q 24.515625 -2 31 -13.1875 
L 23.1875 -13.1875 
Q 15.875 -1.703125 12.234375 9.375 
Q 8.59375 20.453125 8.59375 31.390625 
Q 8.59375 42.28125 12.203125 53.3125 
Q 15.828125 64.359375 23.1875 75.875 
z
" id="DejaVuSans-40"/>
      <path d="M 59.515625 10.40625 
L 59.515625 29.984375 
L 43.40625 29.984375 
L 43.40625 38.09375 
L 69.28125 38.09375 
L 69.28125 6.78125 
Q 63.578125 2.734375 56.6875 0.65625 
Q 49.8125 -1.421875 42 -1.421875 
Q 24.90625 -1.421875 15.25 8.5625 
Q 5.609375 18.5625 5.609375 36.375 
Q 5.609375 54.25 15.25 64.234375 
Q 24.90625 74.21875 42 74.21875 
Q 49.125 74.21875 55.546875 72.453125 
Q 61.96875 70.703125 67.390625 67.28125 
L 67.390625 56.78125 
Q 61.921875 61.421875 55.765625 63.765625 
Q 49.609375 66.109375 42.828125 66.109375 
Q 29.4375 66.109375 22.71875 58.640625 
Q 16.015625 51.171875 16.015625 36.375 
Q 16.015625 21.625 22.71875 14.15625 
Q 29.4375 6.6875 42.828125 6.6875 
Q 48.046875 6.6875 52.140625 7.59375 
Q 56.25 8.5 59.515625 10.40625 
z
" id="DejaVuSans-71"/>
      <path d="M 3.328125 72.90625 
L 13.28125 72.90625 
L 28.609375 11.28125 
L 43.890625 72.90625 
L 54.984375 72.90625 
L 70.3125 11.28125 
L 85.59375 72.90625 
L 95.609375 72.90625 
L 77.296875 0 
L 64.890625 0 
L 49.515625 63.28125 
L 33.984375 0 
L 21.578125 0 
z
" id="DejaVuSans-87"/>
      <path d="M 8.015625 75.875 
L 15.828125 75.875 
Q 23.140625 64.359375 26.78125 53.3125 
Q 30.421875 42.28125 30.421875 31.390625 
Q 30.421875 20.453125 26.78125 9.375 
Q 23.140625 -1.703125 15.828125 -13.1875 
L 8.015625 -13.1875 
Q 14.5 -2 17.703125 9.0625 
Q 20.90625 20.125 20.90625 31.390625 
Q 20.90625 42.671875 17.703125 53.65625 
Q 14.5 64.65625 8.015625 75.875 
z
" id="DejaVuSans-41"/>
     </defs>
     <g transform="translate(14.798437 214.820781)rotate(-90)scale(0.1 -0.1)">
      <use xlink:href="#DejaVuSans-80"/>
      <use x="56.677734" xlink:href="#DejaVuSans-111"/>
      <use x="117.859375" xlink:href="#DejaVuSans-119"/>
      <use x="199.646484" xlink:href="#DejaVuSans-101"/>
      <use x="261.169922" xlink:href="#DejaVuSans-114"/>
      <use x="302.283203" xlink:href="#DejaVuSans-32"/>
      <use x="334.070312" xlink:href="#DejaVuSans-40"/>
      <use x="373.083984" xlink:href="#DejaVuSans-71"/>
      <use x="450.574219" xlink:href="#DejaVuSans-87"/>
      <use x="549.451172" xlink:href="#DejaVuSans-41"/>
     </g>
    </g>
   </g>
   <g id="line2d_19">
    <path clip-path="url(#p05f332baed)" d="M 50.78125 66.197263 
L 59.534191 42.239256 
L 68.287132 47.829579 
L 77.040074 43.696956 
L 85.793015 45.644332 
L 94.545956 43.322473 
L 103.298897 45.616453 
L 112.051838 51.156393 
L 120.804779 54.242118 
L 129.557721 58.735163 
L 138.310662 51.05061 
L 147.063603 52.160385 
L 155.816544 49.884673 
L 164.569485 72.437737 
L 173.322426 48.666808 
L 182.075368 40.852158 
L 190.828309 48.514351 
L 199.58125 49.752412 
L 208.334191 43.053546 
L 217.087132 38.31086 
L 225.840074 34.489979 
L 234.593015 47.308831 
L 243.345956 34.01227 
L 252.098897 34.314114 
L 260.851838 36.558888 
L 269.604779 42.049796 
L 278.357721 41.851012 
L 287.110662 33.429854 
L 295.863603 39.977162 
L 304.616544 42.760836 
L 313.369485 42.289462 
L 322.122426 34.885727 
L 330.875368 33.050186 
L 339.628309 31.055167 
L 348.38125 30.980059 
L 357.134191 28.231874 
L 365.887132 22.954369 
L 374.640074 24.9587 
L 383.393015 34.218859 
L 392.145956 39.778736 
L 400.898897 25.884206 
L 409.651838 43.203685 
L 418.404779 33.547291 
L 427.157721 23.522704 
L 435.910662 25.817194 
L 444.663603 32.423782 
L 453.416544 24.401811 
L 462.169485 32.299382 
L 470.922426 23.243462 
L 479.675368 37.870223 
L 488.428309 31.554193 
L 497.18125 69.452421 
" style="fill:none;stroke:#000000;stroke-linecap:square;stroke-opacity:0.5;stroke-width:1.5;"/>
   </g>
   <g id="line2d_20">
    <path clip-path="url(#p05f332baed)" d="M 50.78125 162.670776 
L 59.534191 162.632496 
L 68.287132 164.601075 
L 77.040074 162.632496 
L 85.793015 162.632496 
L 94.545956 162.632496 
L 103.298897 162.632496 
L 112.051838 162.632496 
L 120.804779 162.632496 
L 129.557721 162.632496 
L 138.310662 162.632496 
L 147.063603 162.632496 
L 155.816544 162.632496 
L 164.569485 162.675064 
L 173.322426 162.632496 
L 182.075368 162.632496 
L 190.828309 162.648949 
L 199.58125 162.632496 
L 208.334191 162.632496 
L 217.087132 162.632496 
L 225.840074 162.632496 
L 234.593015 162.632496 
L 243.345956 162.632496 
L 252.098897 162.632496 
L 260.851838 162.632496 
L 269.604779 162.632496 
L 278.357721 162.632496 
L 287.110662 162.632496 
L 295.863603 162.632496 
L 304.616544 162.632496 
L 313.369485 162.632496 
L 322.122426 162.632496 
L 330.875368 162.632496 
L 339.628309 162.632496 
L 348.38125 162.632496 
L 357.134191 162.632496 
L 365.887132 162.632496 
L 374.640074 162.632496 
L 383.393015 162.632496 
L 392.145956 163.032637 
L 400.898897 162.632496 
L 409.651838 162.632496 
L 418.404779 162.632496 
L 427.157721 162.632496 
L 435.910662 162.632496 
L 444.663603 162.632496 
L 453.416544 162.632496 
L 462.169485 162.632496 
L 470.922426 162.632496 
L 479.675368 162.632496 
L 488.428309 162.632496 
L 497.18125 162.704026 
" style="fill:none;stroke:#ffb30f;stroke-linecap:square;stroke-opacity:0.2;stroke-width:1.5;"/>
   </g>
   <g id="line2d_21">
    <path clip-path="url(#p05f332baed)" d="M 50.78125 82.85537 
L 59.534191 69.305601 
L 68.287132 74.556518 
L 77.040074 72.315711 
L 85.793015 73.87233 
L 94.545956 73.211813 
L 103.298897 81.941786 
L 112.051838 76.827865 
L 120.804779 78.673849 
L 129.557721 82.212515 
L 138.310662 79.652902 
L 147.063603 78.060759 
L 155.816544 77.681306 
L 164.569485 85.237683 
L 173.322426 70.14845 
L 182.075368 69.00434 
L 190.828309 69.513503 
L 199.58125 69.381914 
L 208.334191 64.177789 
L 217.087132 63.462424 
L 225.840074 61.435748 
L 234.593015 65.138604 
L 243.345956 57.112849 
L 252.098897 58.300338 
L 260.851838 63.563228 
L 269.604779 64.937641 
L 278.357721 62.897211 
L 287.110662 66.506716 
L 295.863603 66.049878 
L 304.616544 65.063148 
L 313.369485 67.380011 
L 322.122426 64.249013 
L 330.875368 58.919495 
L 339.628309 59.148437 
L 348.38125 58.968852 
L 357.134191 55.46898 
L 365.887132 56.861241 
L 374.640074 59.776321 
L 383.393015 67.908614 
L 392.145956 68.244334 
L 400.898897 63.945439 
L 409.651838 67.650494 
L 418.404779 62.361738 
L 427.157721 62.186421 
L 435.910662 67.529564 
L 444.663603 68.451014 
L 453.416544 67.26169 
L 462.169485 70.867621 
L 470.922426 64.128865 
L 479.675368 72.190888 
L 488.428309 68.819247 
L 497.18125 92.355363 
" style="fill:none;stroke:#2980b9;stroke-linecap:square;stroke-opacity:0.2;stroke-width:1.5;"/>
   </g>
   <g id="line2d_22">
    <path clip-path="url(#p05f332baed)" d="M 50.78125 80.317312 
L 59.534191 67.040818 
L 68.287132 72.604848 
L 77.040074 70.519365 
L 85.793015 72.492023 
L 94.545956 71.968655 
L 103.298897 80.812473 
L 112.051838 75.8902 
L 120.804779 77.877325 
L 129.557721 81.353435 
L 138.310662 78.952857 
L 147.063603 77.140537 
L 155.816544 76.274645 
L 164.569485 83.761415 
L 173.322426 68.194887 
L 182.075368 67.542596 
L 190.828309 68.016089 
L 199.58125 67.867692 
L 208.334191 62.586582 
L 217.087132 61.799206 
L 225.840074 59.797712 
L 234.593015 62.732551 
L 243.345956 54.948006 
L 252.098897 55.964901 
L 260.851838 61.17584 
L 269.604779 62.709617 
L 278.357721 61.017543 
L 287.110662 64.135519 
L 295.863603 63.743653 
L 304.616544 62.842652 
L 313.369485 65.374959 
L 322.122426 62.258003 
L 330.875368 57.306332 
L 339.628309 57.556046 
L 348.38125 57.417249 
L 357.134191 53.691468 
L 365.887132 55.187469 
L 374.640074 58.49013 
L 383.393015 66.509681 
L 392.145956 66.722021 
L 400.898897 62.460372 
L 409.651838 65.792134 
L 418.404779 59.839963 
L 427.157721 59.715216 
L 435.910662 64.645456 
L 444.663603 65.77338 
L 453.416544 64.427557 
L 462.169485 68.299035 
L 470.922426 62.252328 
L 479.675368 70.397023 
L 488.428309 66.658647 
L 497.18125 89.777597 
" style="fill:none;stroke:#3498db;stroke-linecap:square;stroke-opacity:0.2;stroke-width:1.5;"/>
   </g>
   <g id="line2d_23">
    <path clip-path="url(#p05f332baed)" d="M 50.78125 78.654519 
L 59.534191 65.132139 
L 68.287132 71.464055 
L 77.040074 67.710416 
L 85.793015 69.820865 
L 94.545956 69.022092 
L 103.298897 79.85472 
L 112.051838 73.40944 
L 120.804779 74.928104 
L 129.557721 77.721421 
L 138.310662 75.441748 
L 147.063603 73.919679 
L 155.816544 74.331661 
L 164.569485 82.82467 
L 173.322426 66.813259 
L 182.075368 65.981695 
L 190.828309 67.313974 
L 199.58125 66.28401 
L 208.334191 61.719109 
L 217.087132 60.849298 
L 225.840074 59.165755 
L 234.593015 61.404551 
L 243.345956 54.73013 
L 252.098897 55.78514 
L 260.851838 60.464994 
L 269.604779 61.805891 
L 278.357721 59.293766 
L 287.110662 62.86314 
L 295.863603 62.881764 
L 304.616544 62.277529 
L 313.369485 64.276712 
L 322.122426 61.342443 
L 330.875368 56.31494 
L 339.628309 55.925783 
L 348.38125 56.270871 
L 357.134191 52.647247 
L 365.887132 53.452923 
L 374.640074 56.703995 
L 383.393015 64.793128 
L 392.145956 63.663063 
L 400.898897 60.200546 
L 409.651838 63.757719 
L 418.404779 58.412996 
L 427.157721 58.191145 
L 435.910662 62.958021 
L 444.663603 64.211637 
L 453.416544 62.606365 
L 462.169485 66.095938 
L 470.922426 60.867686 
L 479.675368 69.518869 
L 488.428309 64.12027 
L 497.18125 87.012009 
" style="fill:none;stroke:#28b463;stroke-linecap:square;stroke-opacity:0.2;stroke-width:1.5;"/>
   </g>
   <g id="line2d_24">
    <path clip-path="url(#p05f332baed)" d="M 50.78125 69.543098 
L 59.534191 48.34752 
L 68.287132 53.576401 
L 77.040074 49.544215 
L 85.793015 52.015754 
L 94.545956 49.618487 
L 103.298897 53.072877 
L 112.051838 57.578928 
L 120.804779 60.229402 
L 129.557721 64.58014 
L 138.310662 56.952305 
L 147.063603 57.933272 
L 155.816544 55.868126 
L 164.569485 75.496409 
L 173.322426 53.704024 
L 182.075368 47.616085 
L 190.828309 54.705783 
L 199.58125 55.030262 
L 208.334191 48.975368 
L 217.087132 43.956006 
L 225.840074 40.337196 
L 234.593015 51.782203 
L 243.345956 39.632378 
L 252.098897 40.1626 
L 260.851838 42.780698 
L 269.604779 47.782073 
L 278.357721 47.321534 
L 287.110662 41.113636 
L 295.863603 45.277719 
L 304.616544 48.440649 
L 313.369485 48.36941 
L 322.122426 41.760227 
L 330.875368 38.554258 
L 339.628309 36.880253 
L 348.38125 36.489375 
L 357.134191 34.333639 
L 365.887132 31.135929 
L 374.640074 32.877772 
L 383.393015 42.292583 
L 392.145956 45.77829 
L 400.898897 34.260039 
L 409.651838 48.35486 
L 418.404779 39.302538 
L 427.157721 31.334005 
L 435.910662 33.289791 
L 444.663603 38.64273 
L 453.416544 31.331466 
L 462.169485 38.231689 
L 470.922426 29.482067 
L 479.675368 44.060842 
L 488.428309 37.939063 
L 497.18125 73.574671 
" style="fill:none;stroke:#494949;stroke-linecap:square;stroke-opacity:0.2;stroke-width:1.5;"/>
   </g>
   <g id="line2d_25">
    <path clip-path="url(#p05f332baed)" d="M 50.78125 69.543098 
L 59.534191 48.34752 
L 68.287132 53.576401 
L 77.040074 49.544215 
L 85.793015 52.015754 
L 94.545956 49.618487 
L 103.298897 53.072877 
L 112.051838 57.578928 
L 120.804779 60.229402 
L 129.557721 64.58014 
L 138.310662 56.952305 
L 147.063603 57.933272 
L 155.816544 55.868126 
L 164.569485 75.496409 
L 173.322426 53.704024 
L 182.075368 47.616085 
L 190.828309 54.705783 
L 199.58125 55.030262 
L 208.334191 48.975368 
L 217.087132 43.956006 
L 225.840074 40.337196 
L 234.593015 51.782203 
L 243.345956 39.632378 
L 252.098897 40.1626 
L 260.851838 42.780698 
L 269.604779 47.782073 
L 278.357721 47.321534 
L 287.110662 41.113636 
L 295.863603 45.277719 
L 304.616544 48.440649 
L 313.369485 48.36941 
L 322.122426 41.760227 
L 330.875368 38.554258 
L 339.628309 36.880253 
L 348.38125 36.489375 
L 357.134191 34.333639 
L 365.887132 31.135929 
L 374.640074 32.877772 
L 383.393015 42.292583 
L 392.145956 45.77829 
L 400.898897 34.260039 
L 409.651838 48.35486 
L 418.404779 39.302538 
L 427.157721 31.334005 
L 435.910662 33.289791 
L 444.663603 38.64273 
L 453.416544 31.331466 
L 462.169485 38.231689 
L 470.922426 29.482067 
L 479.675368 44.060842 
L 488.428309 37.939063 
L 497.18125 73.574671 
" style="fill:none;stroke:#7c7c7c;stroke-linecap:square;stroke-opacity:0.2;stroke-width:1.5;"/>
   </g>
   <g id="line2d_26">
    <path clip-path="url(#p05f332baed)" d="M 50.78125 65.420486 
L 59.534191 41.523156 
L 68.287132 47.13499 
L 77.040074 42.99012 
L 85.793015 44.958467 
L 94.545956 42.621917 
L 103.298897 44.971814 
L 112.051838 50.449945 
L 120.804779 53.517381 
L 129.557721 58.020657 
L 138.310662 50.332083 
L 147.063603 51.444502 
L 155.816544 49.150845 
L 164.569485 71.579153 
L 173.322426 47.87066 
L 182.075368 40.144855 
L 190.828309 47.800448 
L 199.58125 49.042979 
L 208.334191 42.343614 
L 217.087132 37.556784 
L 225.840074 33.730312 
L 234.593015 46.527993 
L 243.345956 33.247356 
L 252.098897 33.572876 
L 260.851838 35.85385 
L 269.604779 41.329497 
L 278.357721 41.135526 
L 287.110662 32.80181 
L 295.863603 39.238128 
L 304.616544 42.044238 
L 313.369485 41.584458 
L 322.122426 34.234564 
L 330.875368 32.313004 
L 339.628309 30.325102 
L 348.38125 30.224453 
L 357.134191 27.506422 
L 365.887132 22.318125 
L 374.640074 24.319108 
L 383.393015 33.584652 
L 392.145956 39.082734 
L 400.898897 25.261981 
L 409.651838 42.494679 
L 418.404779 32.788535 
L 427.157721 22.866407 
L 435.910662 25.186305 
L 444.663603 31.727879 
L 453.416544 23.747736 
L 462.169485 31.604854 
L 470.922426 22.538873 
L 479.675368 37.200407 
L 488.428309 30.871694 
L 497.18125 68.695133 
" style="fill:none;stroke:#ba4a00;stroke-linecap:square;stroke-opacity:0.2;stroke-width:1.5;"/>
   </g>
   <g id="patch_3">
    <path d="M 50.78125 348.478125 
L 50.78125 22.318125 
" style="fill:none;stroke:#000000;stroke-linecap:square;stroke-linejoin:miter;stroke-width:0.8;"/>
   </g>
   <g id="patch_4">
    <path d="M 497.18125 348.478125 
L 497.18125 22.318125 
" style="fill:none;stroke:#000000;stroke-linecap:square;stroke-linejoin:miter;stroke-width:0.8;"/>
   </g>
   <g id="patch_5">
    <path d="M 50.78125 348.478125 
L 497.18125 348.478125 
" style="fill:none;stroke:#000000;stroke-linecap:square;stroke-linejoin:miter;stroke-width:0.8;"/>
   </g>
   <g id="patch_6">
    <path d="M 50.78125 22.318125 
L 497.18125 22.318125 
" style="fill:none;stroke:#000000;stroke-linecap:square;stroke-linejoin:miter;stroke-width:0.8;"/>
   </g>
   <g id="text_20">
    <!-- System Energy Dispatch -->
    <defs>
     <path d="M 44.28125 53.078125 
L 44.28125 44.578125 
Q 40.484375 46.53125 36.375 47.5 
Q 32.28125 48.484375 27.875 48.484375 
Q 21.1875 48.484375 17.84375 46.4375 
Q 14.5 44.390625 14.5 40.28125 
Q 14.5 37.15625 16.890625 35.375 
Q 19.28125 33.59375 26.515625 31.984375 
L 29.59375 31.296875 
Q 39.15625 29.25 43.1875 25.515625 
Q 47.21875 21.78125 47.21875 15.09375 
Q 47.21875 7.46875 41.1875 3.015625 
Q 35.15625 -1.421875 24.609375 -1.421875 
Q 20.21875 -1.421875 15.453125 -0.5625 
Q 10.6875 0.296875 5.421875 2 
L 5.421875 11.28125 
Q 10.40625 8.6875 15.234375 7.390625 
Q 20.0625 6.109375 24.8125 6.109375 
Q 31.15625 6.109375 34.5625 8.28125 
Q 37.984375 10.453125 37.984375 14.40625 
Q 37.984375 18.0625 35.515625 20.015625 
Q 33.0625 21.96875 24.703125 23.78125 
L 21.578125 24.515625 
Q 13.234375 26.265625 9.515625 29.90625 
Q 5.8125 33.546875 5.8125 39.890625 
Q 5.8125 47.609375 11.28125 51.796875 
Q 16.75 56 26.8125 56 
Q 31.78125 56 36.171875 55.265625 
Q 40.578125 54.546875 44.28125 53.078125 
z
" id="DejaVuSans-115"/>
     <path d="M 52 44.1875 
Q 55.375 50.25 60.0625 53.125 
Q 64.75 56 71.09375 56 
Q 79.640625 56 84.28125 50.015625 
Q 88.921875 44.046875 88.921875 33.015625 
L 88.921875 0 
L 79.890625 0 
L 79.890625 32.71875 
Q 79.890625 40.578125 77.09375 44.375 
Q 74.3125 48.1875 68.609375 48.1875 
Q 61.625 48.1875 57.5625 43.546875 
Q 53.515625 38.921875 53.515625 30.90625 
L 53.515625 0 
L 44.484375 0 
L 44.484375 32.71875 
Q 44.484375 40.625 41.703125 44.40625 
Q 38.921875 48.1875 33.109375 48.1875 
Q 26.21875 48.1875 22.15625 43.53125 
Q 18.109375 38.875 18.109375 30.90625 
L 18.109375 0 
L 9.078125 0 
L 9.078125 54.6875 
L 18.109375 54.6875 
L 18.109375 46.1875 
Q 21.1875 51.21875 25.484375 53.609375 
Q 29.78125 56 35.6875 56 
Q 41.65625 56 45.828125 52.96875 
Q 50 49.953125 52 44.1875 
z
" id="DejaVuSans-109"/>
     <path d="M 9.8125 72.90625 
L 55.90625 72.90625 
L 55.90625 64.59375 
L 19.671875 64.59375 
L 19.671875 43.015625 
L 54.390625 43.015625 
L 54.390625 34.71875 
L 19.671875 34.71875 
L 19.671875 8.296875 
L 56.78125 8.296875 
L 56.78125 0 
L 9.8125 0 
z
" id="DejaVuSans-69"/>
     <path d="M 9.421875 54.6875 
L 18.40625 54.6875 
L 18.40625 0 
L 9.421875 0 
z
M 9.421875 75.984375 
L 18.40625 75.984375 
L 18.40625 64.59375 
L 9.421875 64.59375 
z
" id="DejaVuSans-105"/>
     <path d="M 54.890625 33.015625 
L 54.890625 0 
L 45.90625 0 
L 45.90625 32.71875 
Q 45.90625 40.484375 42.875 44.328125 
Q 39.84375 48.1875 33.796875 48.1875 
Q 26.515625 48.1875 22.3125 43.546875 
Q 18.109375 38.921875 18.109375 30.90625 
L 18.109375 0 
L 9.078125 0 
L 9.078125 75.984375 
L 18.109375 75.984375 
L 18.109375 46.1875 
Q 21.34375 51.125 25.703125 53.5625 
Q 30.078125 56 35.796875 56 
Q 45.21875 56 50.046875 50.171875 
Q 54.890625 44.34375 54.890625 33.015625 
z
" id="DejaVuSans-104"/>
    </defs>
    <g transform="translate(200.433437 16.318125)scale(0.12 -0.12)">
     <use xlink:href="#DejaVuSans-83"/>
     <use x="63.476562" xlink:href="#DejaVuSans-121"/>
     <use x="122.65625" xlink:href="#DejaVuSans-115"/>
     <use x="174.755859" xlink:href="#DejaVuSans-116"/>
     <use x="213.964844" xlink:href="#DejaVuSans-101"/>
     <use x="275.488281" xlink:href="#DejaVuSans-109"/>
     <use x="372.900391" xlink:href="#DejaVuSans-32"/>
     <use x="404.6875" xlink:href="#DejaVuSans-69"/>
     <use x="467.871094" xlink:href="#DejaVuSans-110"/>
     <use x="531.25" xlink:href="#DejaVuSans-101"/>
     <use x="592.773438" xlink:href="#DejaVuSans-114"/>
     <use x="632.136719" xlink:href="#DejaVuSans-103"/>
     <use x="695.613281" xlink:href="#DejaVuSans-121"/>
     <use x="754.792969" xlink:href="#DejaVuSans-32"/>
     <use x="786.580078" xlink:href="#DejaVuSans-68"/>
     <use x="863.582031" xlink:href="#DejaVuSans-105"/>
     <use x="891.365234" xlink:href="#DejaVuSans-115"/>
     <use x="943.464844" xlink:href="#DejaVuSans-112"/>
     <use x="1006.941406" xlink:href="#DejaVuSans-97"/>
     <use x="1068.220703" xlink:href="#DejaVuSans-116"/>
     <use x="1107.429688" xlink:href="#DejaVuSans-99"/>
     <use x="1162.410156" xlink:href="#DejaVuSans-104"/>
    </g>
   </g>
   <g id="legend_1">
    <g id="patch_7">
     <path d="M 587.1675 147.743125 
L 691.06125 147.743125 
Q 693.06125 147.743125 693.06125 145.743125 
L 693.06125 29.318125 
Q 693.06125 27.318125 691.06125 27.318125 
L 587.1675 27.318125 
Q 585.1675 27.318125 585.1675 29.318125 
L 585.1675 145.743125 
Q 585.1675 147.743125 587.1675 147.743125 
z
" style="fill:#ffffff;opacity:0.8;stroke:#cccccc;stroke-linejoin:miter;"/>
    </g>
    <g id="line2d_27">
     <path d="M 589.1675 35.416562 
L 609.1675 35.416562 
" style="fill:none;stroke:#000000;stroke-linecap:square;stroke-opacity:0.5;stroke-width:1.5;"/>
    </g>
    <g id="line2d_28"/>
    <g id="text_21">
     <!-- Demand -->
     <defs>
      <path d="M 45.40625 46.390625 
L 45.40625 75.984375 
L 54.390625 75.984375 
L 54.390625 0 
L 45.40625 0 
L 45.40625 8.203125 
Q 42.578125 3.328125 38.25 0.953125 
Q 33.9375 -1.421875 27.875 -1.421875 
Q 17.96875 -1.421875 11.734375 6.484375 
Q 5.515625 14.40625 5.515625 27.296875 
Q 5.515625 40.1875 11.734375 48.09375 
Q 17.96875 56 27.875 56 
Q 33.9375 56 38.25 53.625 
Q 42.578125 51.265625 45.40625 46.390625 
z
M 14.796875 27.296875 
Q 14.796875 17.390625 18.875 11.75 
Q 22.953125 6.109375 30.078125 6.109375 
Q 37.203125 6.109375 41.296875 11.75 
Q 45.40625 17.390625 45.40625 27.296875 
Q 45.40625 37.203125 41.296875 42.84375 
Q 37.203125 48.484375 30.078125 48.484375 
Q 22.953125 48.484375 18.875 42.84375 
Q 14.796875 37.203125 14.796875 27.296875 
z
" id="DejaVuSans-100"/>
     </defs>
     <g transform="translate(617.1675 38.916562)scale(0.1 -0.1)">
      <use xlink:href="#DejaVuSans-68"/>
      <use x="77.001953" xlink:href="#DejaVuSans-101"/>
      <use x="138.525391" xlink:href="#DejaVuSans-109"/>
      <use x="235.9375" xlink:href="#DejaVuSans-97"/>
      <use x="297.216797" xlink:href="#DejaVuSans-110"/>
      <use x="360.595703" xlink:href="#DejaVuSans-100"/>
     </g>
    </g>
    <g id="patch_8">
     <path d="M 589.1675 53.594688 
L 609.1675 53.594688 
L 609.1675 46.594688 
L 589.1675 46.594688 
z
" style="fill:#ffb30f;opacity:0.6;"/>
    </g>
    <g id="text_22">
     <!-- Geothermal -->
     <g transform="translate(617.1675 53.594688)scale(0.1 -0.1)">
      <use xlink:href="#DejaVuSans-71"/>
      <use x="77.490234" xlink:href="#DejaVuSans-101"/>
      <use x="139.013672" xlink:href="#DejaVuSans-111"/>
      <use x="200.195312" xlink:href="#DejaVuSans-116"/>
      <use x="239.404297" xlink:href="#DejaVuSans-104"/>
      <use x="302.783203" xlink:href="#DejaVuSans-101"/>
      <use x="364.306641" xlink:href="#DejaVuSans-114"/>
      <use x="403.669922" xlink:href="#DejaVuSans-109"/>
      <use x="501.082031" xlink:href="#DejaVuSans-97"/>
      <use x="562.361328" xlink:href="#DejaVuSans-108"/>
     </g>
    </g>
    <g id="patch_9">
     <path d="M 589.1675 68.272812 
L 609.1675 68.272812 
L 609.1675 61.272812 
L 589.1675 61.272812 
z
" style="fill:#2980b9;opacity:0.6;"/>
    </g>
    <g id="text_23">
     <!-- Large Hydro -->
     <defs>
      <path d="M 9.8125 72.90625 
L 19.671875 72.90625 
L 19.671875 8.296875 
L 55.171875 8.296875 
L 55.171875 0 
L 9.8125 0 
z
" id="DejaVuSans-76"/>
      <path d="M 9.8125 72.90625 
L 19.671875 72.90625 
L 19.671875 43.015625 
L 55.515625 43.015625 
L 55.515625 72.90625 
L 65.375 72.90625 
L 65.375 0 
L 55.515625 0 
L 55.515625 34.71875 
L 19.671875 34.71875 
L 19.671875 0 
L 9.8125 0 
z
" id="DejaVuSans-72"/>
     </defs>
     <g transform="translate(617.1675 68.272812)scale(0.1 -0.1)">
      <use xlink:href="#DejaVuSans-76"/>
      <use x="55.712891" xlink:href="#DejaVuSans-97"/>
      <use x="116.992188" xlink:href="#DejaVuSans-114"/>
      <use x="156.355469" xlink:href="#DejaVuSans-103"/>
      <use x="219.832031" xlink:href="#DejaVuSans-101"/>
      <use x="281.355469" xlink:href="#DejaVuSans-32"/>
      <use x="313.142578" xlink:href="#DejaVuSans-72"/>
      <use x="388.337891" xlink:href="#DejaVuSans-121"/>
      <use x="447.517578" xlink:href="#DejaVuSans-100"/>
      <use x="510.994141" xlink:href="#DejaVuSans-114"/>
      <use x="549.857422" xlink:href="#DejaVuSans-111"/>
     </g>
    </g>
    <g id="patch_10">
     <path d="M 589.1675 82.950938 
L 609.1675 82.950938 
L 609.1675 75.950938 
L 589.1675 75.950938 
z
" style="fill:#3498db;opacity:0.6;"/>
    </g>
    <g id="text_24">
     <!-- Small Hydro -->
     <g transform="translate(617.1675 82.950938)scale(0.1 -0.1)">
      <use xlink:href="#DejaVuSans-83"/>
      <use x="63.476562" xlink:href="#DejaVuSans-109"/>
      <use x="160.888672" xlink:href="#DejaVuSans-97"/>
      <use x="222.167969" xlink:href="#DejaVuSans-108"/>
      <use x="249.951172" xlink:href="#DejaVuSans-108"/>
      <use x="277.734375" xlink:href="#DejaVuSans-32"/>
      <use x="309.521484" xlink:href="#DejaVuSans-72"/>
      <use x="384.716797" xlink:href="#DejaVuSans-121"/>
      <use x="443.896484" xlink:href="#DejaVuSans-100"/>
      <use x="507.373047" xlink:href="#DejaVuSans-114"/>
      <use x="546.236328" xlink:href="#DejaVuSans-111"/>
     </g>
    </g>
    <g id="patch_11">
     <path d="M 589.1675 97.629063 
L 609.1675 97.629063 
L 609.1675 90.629063 
L 589.1675 90.629063 
z
" style="fill:#28b463;opacity:0.6;"/>
    </g>
    <g id="text_25">
     <!-- Onshore Wind -->
     <g transform="translate(617.1675 97.629063)scale(0.1 -0.1)">
      <use xlink:href="#DejaVuSans-79"/>
      <use x="78.710938" xlink:href="#DejaVuSans-110"/>
      <use x="142.089844" xlink:href="#DejaVuSans-115"/>
      <use x="194.189453" xlink:href="#DejaVuSans-104"/>
      <use x="257.568359" xlink:href="#DejaVuSans-111"/>
      <use x="318.75" xlink:href="#DejaVuSans-114"/>
      <use x="357.613281" xlink:href="#DejaVuSans-101"/>
      <use x="419.136719" xlink:href="#DejaVuSans-32"/>
      <use x="450.923828" xlink:href="#DejaVuSans-87"/>
      <use x="547.550781" xlink:href="#DejaVuSans-105"/>
      <use x="575.333984" xlink:href="#DejaVuSans-110"/>
      <use x="638.712891" xlink:href="#DejaVuSans-100"/>
     </g>
    </g>
    <g id="patch_12">
     <path d="M 589.1675 112.307187 
L 609.1675 112.307187 
L 609.1675 105.307187 
L 589.1675 105.307187 
z
" style="fill:#494949;opacity:0.6;"/>
    </g>
    <g id="text_26">
     <!-- Heavy Fuel Oil -->
     <g transform="translate(617.1675 112.307187)scale(0.1 -0.1)">
      <use xlink:href="#DejaVuSans-72"/>
      <use x="75.195312" xlink:href="#DejaVuSans-101"/>
      <use x="136.71875" xlink:href="#DejaVuSans-97"/>
      <use x="197.998047" xlink:href="#DejaVuSans-118"/>
      <use x="257.177734" xlink:href="#DejaVuSans-121"/>
      <use x="316.357422" xlink:href="#DejaVuSans-32"/>
      <use x="348.144531" xlink:href="#DejaVuSans-70"/>
      <use x="400.164062" xlink:href="#DejaVuSans-117"/>
      <use x="463.542969" xlink:href="#DejaVuSans-101"/>
      <use x="525.066406" xlink:href="#DejaVuSans-108"/>
      <use x="552.849609" xlink:href="#DejaVuSans-32"/>
      <use x="584.636719" xlink:href="#DejaVuSans-79"/>
      <use x="663.347656" xlink:href="#DejaVuSans-105"/>
      <use x="691.130859" xlink:href="#DejaVuSans-108"/>
     </g>
    </g>
    <g id="patch_13">
     <path d="M 589.1675 126.985312 
L 609.1675 126.985312 
L 609.1675 119.985312 
L 589.1675 119.985312 
z
" style="fill:#7c7c7c;opacity:0.6;"/>
    </g>
    <g id="text_27">
     <!-- Gast Turbine  -->
     <defs>
      <path d="M -0.296875 72.90625 
L 61.375 72.90625 
L 61.375 64.59375 
L 35.5 64.59375 
L 35.5 0 
L 25.59375 0 
L 25.59375 64.59375 
L -0.296875 64.59375 
z
" id="DejaVuSans-84"/>
     </defs>
     <g transform="translate(617.1675 126.985312)scale(0.1 -0.1)">
      <use xlink:href="#DejaVuSans-71"/>
      <use x="77.490234" xlink:href="#DejaVuSans-97"/>
      <use x="138.769531" xlink:href="#DejaVuSans-115"/>
      <use x="190.869141" xlink:href="#DejaVuSans-116"/>
      <use x="230.078125" xlink:href="#DejaVuSans-32"/>
      <use x="261.865234" xlink:href="#DejaVuSans-84"/>
      <use x="307.824219" xlink:href="#DejaVuSans-117"/>
      <use x="371.203125" xlink:href="#DejaVuSans-114"/>
      <use x="412.316406" xlink:href="#DejaVuSans-98"/>
      <use x="475.792969" xlink:href="#DejaVuSans-105"/>
      <use x="503.576172" xlink:href="#DejaVuSans-110"/>
      <use x="566.955078" xlink:href="#DejaVuSans-101"/>
      <use x="628.478516" xlink:href="#DejaVuSans-32"/>
     </g>
    </g>
    <g id="patch_14">
     <path d="M 589.1675 141.663437 
L 609.1675 141.663437 
L 609.1675 134.663437 
L 589.1675 134.663437 
z
" style="fill:#ba4a00;opacity:0.6;"/>
    </g>
    <g id="text_28">
     <!-- Biomass -->
     <defs>
      <path d="M 19.671875 34.8125 
L 19.671875 8.109375 
L 35.5 8.109375 
Q 43.453125 8.109375 47.28125 11.40625 
Q 51.125 14.703125 51.125 21.484375 
Q 51.125 28.328125 47.28125 31.5625 
Q 43.453125 34.8125 35.5 34.8125 
z
M 19.671875 64.796875 
L 19.671875 42.828125 
L 34.28125 42.828125 
Q 41.5 42.828125 45.03125 45.53125 
Q 48.578125 48.25 48.578125 53.8125 
Q 48.578125 59.328125 45.03125 62.0625 
Q 41.5 64.796875 34.28125 64.796875 
z
M 9.8125 72.90625 
L 35.015625 72.90625 
Q 46.296875 72.90625 52.390625 68.21875 
Q 58.5 63.53125 58.5 54.890625 
Q 58.5 48.1875 55.375 44.234375 
Q 52.25 40.28125 46.1875 39.3125 
Q 53.46875 37.75 57.5 32.78125 
Q 61.53125 27.828125 61.53125 20.40625 
Q 61.53125 10.640625 54.890625 5.3125 
Q 48.25 0 35.984375 0 
L 9.8125 0 
z
" id="DejaVuSans-66"/>
     </defs>
     <g transform="translate(617.1675 141.663437)scale(0.1 -0.1)">
      <use xlink:href="#DejaVuSans-66"/>
      <use x="68.603516" xlink:href="#DejaVuSans-105"/>
      <use x="96.386719" xlink:href="#DejaVuSans-111"/>
      <use x="157.568359" xlink:href="#DejaVuSans-109"/>
      <use x="254.980469" xlink:href="#DejaVuSans-97"/>
      <use x="316.259766" xlink:href="#DejaVuSans-115"/>
      <use x="368.359375" xlink:href="#DejaVuSans-115"/>
     </g>
    </g>
   </g>
  </g>
 </g>
 <defs>
  <clipPath id="p05f332baed">
   <rect height="326.16" width="446.4" x="50.78125" y="22.318125"/>
  </clipPath>
 </defs>
</svg>
