<?xml version="1.0" encoding="utf-8" standalone="no"?>
<!DOCTYPE svg PUBLIC "-//W3C//DTD SVG 1.1//EN"
  "http://www.w3.org/Graphics/SVG/1.1/DTD/svg11.dtd">
<!-- Created with matplotlib (https://matplotlib.org/) -->
<svg height="387.385333pt" version="1.1" viewBox="0 0 700.26125 387.385333" width="700.26125pt" xmlns="http://www.w3.org/2000/svg" xmlns:xlink="http://www.w3.org/1999/xlink">
 <defs>
  <style type="text/css">
*{stroke-linecap:butt;stroke-linejoin:round;}
  </style>
 </defs>
 <g id="figure_1">
  <g id="patch_1">
   <path d="M 0 387.385333 
L 700.26125 387.385333 
L 700.26125 0 
L 0 0 
z
" style="fill:#ffffff;"/>
  </g>
  <g id="axes_1">
   <g id="patch_2">
    <path d="M 50.78125 348.478125 
L 497.18125 348.478125 
L 497.18125 22.318125 
L 50.78125 22.318125 
z
" style="fill:#ffffff;"/>
   </g>
   <g id="PolyCollection_1">
    <path clip-path="url(#pc450952456)" d="M 50.78125 162.291096 
L 50.78125 348.478125 
L 59.534191 348.478125 
L 68.287132 348.478125 
L 77.040074 348.478125 
L 85.793015 348.478125 
L 94.545956 348.478125 
L 103.298897 348.478125 
L 112.051838 348.478125 
L 120.804779 348.478125 
L 129.557721 348.478125 
L 138.310662 348.478125 
L 147.063603 348.478125 
L 155.816544 348.478125 
L 164.569485 348.478125 
L 173.322426 348.478125 
L 182.075368 348.478125 
L 190.828309 348.478125 
L 199.58125 348.478125 
L 208.334191 348.478125 
L 217.087132 348.478125 
L 225.840074 348.478125 
L 234.593015 348.478125 
L 243.345956 348.478125 
L 252.098897 348.478125 
L 260.851838 348.478125 
L 269.604779 348.478125 
L 278.357721 348.478125 
L 287.110662 348.478125 
L 295.863603 348.478125 
L 304.616544 348.478125 
L 313.369485 348.478125 
L 322.122426 348.478125 
L 330.875368 348.478125 
L 339.628309 348.478125 
L 348.38125 348.478125 
L 357.134191 348.478125 
L 365.887132 348.478125 
L 374.640074 348.478125 
L 383.393015 348.478125 
L 392.145956 348.478125 
L 400.898897 348.478125 
L 409.651838 348.478125 
L 418.404779 348.478125 
L 427.157721 348.478125 
L 435.910662 348.478125 
L 444.663603 348.478125 
L 453.416544 348.478125 
L 462.169485 348.478125 
L 470.922426 348.478125 
L 479.675368 348.478125 
L 488.428309 348.478125 
L 497.18125 348.478125 
L 497.18125 162.336806 
L 497.18125 162.336806 
L 488.428309 162.269256 
L 479.675368 162.269256 
L 470.922426 162.269256 
L 462.169485 162.269256 
L 453.416544 162.269256 
L 444.663603 162.269256 
L 435.910662 162.269256 
L 427.157721 162.269256 
L 418.404779 162.269256 
L 409.651838 162.269256 
L 400.898897 162.269256 
L 392.145956 162.634155 
L 383.393015 162.269256 
L 374.640074 162.269256 
L 365.887132 162.269256 
L 357.134191 162.269256 
L 348.38125 162.269256 
L 339.628309 162.269256 
L 330.875368 162.269256 
L 322.122426 162.269256 
L 313.369485 162.269256 
L 304.616544 162.269256 
L 295.863603 162.269256 
L 287.110662 162.269256 
L 278.357721 162.269256 
L 269.604779 162.269256 
L 260.851838 162.269256 
L 252.098897 162.269256 
L 243.345956 162.269256 
L 234.593015 162.269256 
L 225.840074 162.269256 
L 217.087132 162.269256 
L 208.334191 162.269256 
L 199.58125 162.269256 
L 190.828309 162.289383 
L 182.075368 162.269256 
L 173.322426 162.269256 
L 164.569485 162.314813 
L 155.816544 162.269256 
L 147.063603 162.269256 
L 138.310662 162.269256 
L 129.557721 162.269256 
L 120.804779 162.269256 
L 112.051838 162.269256 
L 103.298897 162.269256 
L 94.545956 162.269256 
L 85.793015 162.269256 
L 77.040074 162.269256 
L 68.287132 164.232135 
L 59.534191 162.269256 
L 50.78125 162.291096 
z
" style="fill:#ffb30f;fill-opacity:0.6;"/>
   </g>
   <g id="PolyCollection_2">
    <path clip-path="url(#pc450952456)" d="M 50.78125 162.291096 
L 50.78125 73.973708 
L 59.534191 55.665602 
L 68.287132 57.907426 
L 77.040074 57.343314 
L 85.793015 61.556923 
L 94.545956 59.934219 
L 103.298897 69.165061 
L 112.051838 67.221372 
L 120.804779 67.347673 
L 129.557721 73.567084 
L 138.310662 69.826952 
L 147.063603 66.793757 
L 155.816544 67.2425 
L 164.569485 77.030088 
L 173.322426 58.980212 
L 182.075368 59.387619 
L 190.828309 62.977902 
L 199.58125 61.646471 
L 208.334191 55.348162 
L 217.087132 45.519882 
L 225.840074 41.372928 
L 234.593015 53.775356 
L 243.345956 40.482316 
L 252.098897 44.382675 
L 260.851838 49.221261 
L 269.604779 52.786272 
L 278.357721 49.886871 
L 287.110662 53.465953 
L 295.863603 52.920834 
L 304.616544 50.697185 
L 313.369485 53.885983 
L 322.122426 48.98452 
L 330.875368 40.809916 
L 339.628309 38.368068 
L 348.38125 37.128278 
L 357.134191 36.233845 
L 365.887132 38.926527 
L 374.640074 40.493946 
L 383.393015 51.271111 
L 392.145956 53.623859 
L 400.898897 46.975869 
L 409.651838 52.297209 
L 418.404779 43.488735 
L 427.157721 41.34301 
L 435.910662 47.338694 
L 444.663603 42.944404 
L 453.416544 39.478784 
L 462.169485 43.889438 
L 470.922426 36.967886 
L 479.675368 50.077626 
L 488.428309 49.948893 
L 497.18125 75.941552 
L 497.18125 162.336806 
L 497.18125 162.336806 
L 488.428309 162.269256 
L 479.675368 162.269256 
L 470.922426 162.269256 
L 462.169485 162.269256 
L 453.416544 162.269256 
L 444.663603 162.269256 
L 435.910662 162.269256 
L 427.157721 162.269256 
L 418.404779 162.269256 
L 409.651838 162.269256 
L 400.898897 162.269256 
L 392.145956 162.634155 
L 383.393015 162.269256 
L 374.640074 162.269256 
L 365.887132 162.269256 
L 357.134191 162.269256 
L 348.38125 162.269256 
L 339.628309 162.269256 
L 330.875368 162.269256 
L 322.122426 162.269256 
L 313.369485 162.269256 
L 304.616544 162.269256 
L 295.863603 162.269256 
L 287.110662 162.269256 
L 278.357721 162.269256 
L 269.604779 162.269256 
L 260.851838 162.269256 
L 252.098897 162.269256 
L 243.345956 162.269256 
L 234.593015 162.269256 
L 225.840074 162.269256 
L 217.087132 162.269256 
L 208.334191 162.269256 
L 199.58125 162.269256 
L 190.828309 162.289383 
L 182.075368 162.269256 
L 173.322426 162.269256 
L 164.569485 162.314813 
L 155.816544 162.269256 
L 147.063603 162.269256 
L 138.310662 162.269256 
L 129.557721 162.269256 
L 120.804779 162.269256 
L 112.051838 162.269256 
L 103.298897 162.269256 
L 94.545956 162.269256 
L 85.793015 162.269256 
L 77.040074 162.269256 
L 68.287132 164.232135 
L 59.534191 162.269256 
L 50.78125 162.291096 
z
" style="fill:#2980b9;fill-opacity:0.6;"/>
   </g>
   <g id="PolyCollection_3">
    <path clip-path="url(#pc450952456)" d="M 50.78125 73.973708 
L 50.78125 71.43069 
L 59.534191 53.396393 
L 68.287132 55.951941 
L 77.040074 55.543456 
L 85.793015 60.173918 
L 94.545956 58.688631 
L 103.298897 68.03354 
L 112.051838 66.281874 
L 120.804779 66.549593 
L 129.557721 72.706325 
L 138.310662 69.125539 
L 147.063603 65.871736 
L 155.816544 65.833089 
L 164.569485 75.550934 
L 173.322426 57.02283 
L 182.075368 57.923019 
L 190.828309 61.477561 
L 199.58125 60.129289 
L 208.334191 53.753845 
L 217.087132 43.853413 
L 225.840074 39.731691 
L 234.593015 51.3646 
L 243.345956 38.313241 
L 252.098897 42.042673 
L 260.851838 46.829207 
L 269.604779 50.553894 
L 278.357721 48.003529 
L 287.110662 51.090122 
L 295.863603 50.610101 
L 304.616544 48.472349 
L 313.369485 51.877012 
L 322.122426 46.989619 
L 330.875368 39.193599 
L 339.628309 36.772564 
L 348.38125 35.573643 
L 357.134191 34.452859 
L 365.887132 37.249484 
L 374.640074 39.205241 
L 383.393015 49.869443 
L 392.145956 52.094177 
L 400.898897 45.4879 
L 409.651838 50.435216 
L 418.404779 40.960661 
L 427.157721 38.866974 
L 435.910662 44.431614 
L 444.663603 40.249498 
L 453.416544 36.604742 
L 462.169485 41.311416 
L 470.922426 35.087681 
L 479.675368 48.280256 
L 488.428309 47.784069 
L 497.18125 73.358748 
L 497.18125 75.941552 
L 497.18125 75.941552 
L 488.428309 49.948893 
L 479.675368 50.077626 
L 470.922426 36.967886 
L 462.169485 43.889438 
L 453.416544 39.478784 
L 444.663603 42.944404 
L 435.910662 47.338694 
L 427.157721 41.34301 
L 418.404779 43.488735 
L 409.651838 52.297209 
L 400.898897 46.975869 
L 392.145956 53.623859 
L 383.393015 51.271111 
L 374.640074 40.493946 
L 365.887132 38.926527 
L 357.134191 36.233845 
L 348.38125 37.128278 
L 339.628309 38.368068 
L 330.875368 40.809916 
L 322.122426 48.98452 
L 313.369485 53.885983 
L 304.616544 50.697185 
L 295.863603 52.920834 
L 287.110662 53.465953 
L 278.357721 49.886871 
L 269.604779 52.786272 
L 260.851838 49.221261 
L 252.098897 44.382675 
L 243.345956 40.482316 
L 234.593015 53.775356 
L 225.840074 41.372928 
L 217.087132 45.519882 
L 208.334191 55.348162 
L 199.58125 61.646471 
L 190.828309 62.977902 
L 182.075368 59.387619 
L 173.322426 58.980212 
L 164.569485 77.030088 
L 155.816544 67.2425 
L 147.063603 66.793757 
L 138.310662 69.826952 
L 129.557721 73.567084 
L 120.804779 67.347673 
L 112.051838 67.221372 
L 103.298897 69.165061 
L 94.545956 59.934219 
L 85.793015 61.556923 
L 77.040074 57.343314 
L 68.287132 57.907426 
L 59.534191 55.665602 
L 50.78125 73.973708 
z
" style="fill:#3498db;fill-opacity:0.6;"/>
   </g>
   <g id="PolyCollection_4">
    <path clip-path="url(#pc450952456)" d="M 50.78125 71.43069 
L 50.78125 69.790536 
L 59.534191 51.483982 
L 68.287132 54.824505 
L 77.040074 52.729017 
L 85.793015 57.497538 
L 94.545956 55.736309 
L 103.298897 67.073916 
L 112.051838 63.796265 
L 120.804779 63.594607 
L 129.557721 69.067213 
L 138.310662 65.607568 
L 147.063603 62.644583 
L 155.816544 63.886308 
L 164.569485 74.613069 
L 173.322426 55.638502 
L 182.075368 56.359066 
L 190.828309 60.774606 
L 199.58125 58.542512 
L 208.334191 52.884676 
L 217.087132 42.901649 
L 225.840074 39.098499 
L 234.593015 50.034004 
L 243.345956 38.094939 
L 252.098897 41.86256 
L 260.851838 46.116971 
L 269.604779 49.648401 
L 278.357721 46.276383 
L 287.110662 49.815256 
L 295.863603 49.746528 
L 304.616544 47.906121 
L 313.369485 50.776619 
L 322.122426 46.072269 
L 330.875368 38.20027 
L 339.628309 35.139116 
L 348.38125 34.425024 
L 357.134191 33.406597 
L 365.887132 35.511547 
L 374.640074 37.415615 
L 383.393015 48.149535 
L 392.145956 49.068896 
L 400.898897 43.223657 
L 409.651838 48.396825 
L 418.404779 39.530905 
L 427.157721 37.339924 
L 435.910662 42.740881 
L 444.663603 38.684702 
L 453.416544 34.779991 
L 462.169485 39.104014 
L 470.922426 33.700334 
L 479.675368 47.400385 
L 488.428309 45.240732 
L 497.18125 70.605862 
L 497.18125 73.358748 
L 497.18125 73.358748 
L 488.428309 47.784069 
L 479.675368 48.280256 
L 470.922426 35.087681 
L 462.169485 41.311416 
L 453.416544 36.604742 
L 444.663603 40.249498 
L 435.910662 44.431614 
L 427.157721 38.866974 
L 418.404779 40.960661 
L 409.651838 50.435216 
L 400.898897 45.4879 
L 392.145956 52.094177 
L 383.393015 49.869443 
L 374.640074 39.205241 
L 365.887132 37.249484 
L 357.134191 34.452859 
L 348.38125 35.573643 
L 339.628309 36.772564 
L 330.875368 39.193599 
L 322.122426 46.989619 
L 313.369485 51.877012 
L 304.616544 48.472349 
L 295.863603 50.610101 
L 287.110662 51.090122 
L 278.357721 48.003529 
L 269.604779 50.553894 
L 260.851838 46.829207 
L 252.098897 42.042673 
L 243.345956 38.313241 
L 234.593015 51.3646 
L 225.840074 39.731691 
L 217.087132 43.853413 
L 208.334191 53.753845 
L 199.58125 60.129289 
L 190.828309 61.477561 
L 182.075368 57.923019 
L 173.322426 57.02283 
L 164.569485 75.550934 
L 155.816544 65.833089 
L 147.063603 65.871736 
L 138.310662 69.125539 
L 129.557721 72.706325 
L 120.804779 66.549593 
L 112.051838 66.281874 
L 103.298897 68.03354 
L 94.545956 58.688631 
L 85.793015 60.173918 
L 77.040074 55.543456 
L 68.287132 55.951941 
L 59.534191 53.396393 
L 50.78125 71.43069 
z
" style="fill:#28b463;fill-opacity:0.6;"/>
   </g>
   <g id="PolyCollection_5">
    <path clip-path="url(#pc450952456)" d="M 50.78125 69.790536 
L 50.78125 67.85886 
L 59.534191 46.203077 
L 68.287132 50.515812 
L 77.040074 47.61324 
L 85.793015 50.698957 
L 94.545956 48.644245 
L 103.298897 52.805065 
L 112.051838 56.920073 
L 120.804779 59.128741 
L 129.557721 63.70198 
L 138.310662 56.65591 
L 147.063603 56.879234 
L 155.816544 55.617212 
L 164.569485 73.514083 
L 173.322426 51.920717 
L 182.075368 46.966025 
L 190.828309 54.431875 
L 199.58125 53.879552 
L 208.334191 47.983296 
L 217.087132 40.765979 
L 225.840074 36.898897 
L 234.593015 48.679323 
L 243.345956 36.225254 
L 252.098897 37.810131 
L 260.851838 41.145246 
L 269.604779 45.601691 
L 278.357721 44.39567 
L 287.110662 40.458878 
L 295.863603 43.852428 
L 304.616544 45.374076 
L 313.369485 45.120723 
L 322.122426 39.496818 
L 330.875368 35.639873 
L 339.628309 33.276633 
L 348.38125 32.55582 
L 357.134191 30.290473 
L 365.887132 29.657658 
L 374.640074 30.753586 
L 383.393015 40.821925 
L 392.145956 43.186385 
L 400.898897 33.38349 
L 409.651838 45.517949 
L 418.404779 35.81242 
L 427.157721 29.873858 
L 435.910662 32.344965 
L 444.663603 35.1357 
L 453.416544 28.845689 
L 462.169485 35.011264 
L 470.922426 27.249851 
L 479.675368 41.521306 
L 488.428309 36.70375 
L 497.18125 69.996157 
L 497.18125 70.605862 
L 497.18125 70.605862 
L 488.428309 45.240732 
L 479.675368 47.400385 
L 470.922426 33.700334 
L 462.169485 39.104014 
L 453.416544 34.779991 
L 444.663603 38.684702 
L 435.910662 42.740881 
L 427.157721 37.339924 
L 418.404779 39.530905 
L 409.651838 48.396825 
L 400.898897 43.223657 
L 392.145956 49.068896 
L 383.393015 48.149535 
L 374.640074 37.415615 
L 365.887132 35.511547 
L 357.134191 33.406597 
L 348.38125 34.425024 
L 339.628309 35.139116 
L 330.875368 38.20027 
L 322.122426 46.072269 
L 313.369485 50.776619 
L 304.616544 47.906121 
L 295.863603 49.746528 
L 287.110662 49.815256 
L 278.357721 46.276383 
L 269.604779 49.648401 
L 260.851838 46.116971 
L 252.098897 41.86256 
L 243.345956 38.094939 
L 234.593015 50.034004 
L 225.840074 39.098499 
L 217.087132 42.901649 
L 208.334191 52.884676 
L 199.58125 58.542512 
L 190.828309 60.774606 
L 182.075368 56.359066 
L 173.322426 55.638502 
L 164.569485 74.613069 
L 155.816544 63.886308 
L 147.063603 62.644583 
L 138.310662 65.607568 
L 129.557721 69.067213 
L 120.804779 63.594607 
L 112.051838 63.796265 
L 103.298897 67.073916 
L 94.545956 55.736309 
L 85.793015 57.497538 
L 77.040074 52.729017 
L 68.287132 54.824505 
L 59.534191 51.483982 
L 50.78125 69.790536 
z
" style="fill:#494949;fill-opacity:0.6;"/>
   </g>
   <g id="PolyCollection_6">
    <path clip-path="url(#pc450952456)" d="M 50.78125 67.85886 
L 50.78125 67.85886 
L 59.534191 46.203077 
L 68.287132 50.515812 
L 77.040074 47.61324 
L 85.793015 50.698957 
L 94.545956 48.644245 
L 103.298897 52.805065 
L 112.051838 56.920073 
L 120.804779 59.128741 
L 129.557721 63.70198 
L 138.310662 56.65591 
L 147.063603 56.879234 
L 155.816544 55.617212 
L 164.569485 73.514083 
L 173.322426 51.920717 
L 182.075368 46.966025 
L 190.828309 54.431875 
L 199.58125 53.879552 
L 208.334191 47.983296 
L 217.087132 40.765979 
L 225.840074 36.898897 
L 234.593015 48.679323 
L 243.345956 36.225254 
L 252.098897 37.810131 
L 260.851838 41.145246 
L 269.604779 45.601691 
L 278.357721 44.39567 
L 287.110662 40.458878 
L 295.863603 43.852428 
L 304.616544 45.374076 
L 313.369485 45.120723 
L 322.122426 39.496818 
L 330.875368 35.639873 
L 339.628309 33.276633 
L 348.38125 32.55582 
L 357.134191 30.290473 
L 365.887132 29.657658 
L 374.640074 30.753586 
L 383.393015 40.821925 
L 392.145956 43.186385 
L 400.898897 33.38349 
L 409.651838 45.517949 
L 418.404779 35.81242 
L 427.157721 29.873858 
L 435.910662 32.344965 
L 444.663603 35.1357 
L 453.416544 28.845689 
L 462.169485 35.011264 
L 470.922426 27.249851 
L 479.675368 41.521306 
L 488.428309 36.70375 
L 497.18125 69.996157 
L 497.18125 69.996157 
L 497.18125 69.996157 
L 488.428309 36.70375 
L 479.675368 41.521306 
L 470.922426 27.249851 
L 462.169485 35.011264 
L 453.416544 28.845689 
L 444.663603 35.1357 
L 435.910662 32.344965 
L 427.157721 29.873858 
L 418.404779 35.81242 
L 409.651838 45.517949 
L 400.898897 33.38349 
L 392.145956 43.186385 
L 383.393015 40.821925 
L 374.640074 30.753586 
L 365.887132 29.657658 
L 357.134191 30.290473 
L 348.38125 32.55582 
L 339.628309 33.276633 
L 330.875368 35.639873 
L 322.122426 39.496818 
L 313.369485 45.120723 
L 304.616544 45.374076 
L 295.863603 43.852428 
L 287.110662 40.458878 
L 278.357721 44.39567 
L 269.604779 45.601691 
L 260.851838 41.145246 
L 252.098897 37.810131 
L 243.345956 36.225254 
L 234.593015 48.679323 
L 225.840074 36.898897 
L 217.087132 40.765979 
L 208.334191 47.983296 
L 199.58125 53.879552 
L 190.828309 54.431875 
L 182.075368 46.966025 
L 173.322426 51.920717 
L 164.569485 73.514083 
L 155.816544 55.617212 
L 147.063603 56.879234 
L 138.310662 56.65591 
L 129.557721 63.70198 
L 120.804779 59.128741 
L 112.051838 56.920073 
L 103.298897 52.805065 
L 94.545956 48.644245 
L 85.793015 50.698957 
L 77.040074 47.61324 
L 68.287132 50.515812 
L 59.534191 46.203077 
L 50.78125 67.85886 
z
" style="fill:#7c7c7c;fill-opacity:0.6;"/>
   </g>
   <g id="PolyCollection_7">
    <path clip-path="url(#pc450952456)" d="M 50.78125 67.85886 
L 50.78125 65.645538 
L 59.534191 41.640705 
L 68.287132 47.241954 
L 77.040074 43.101255 
L 85.793015 45.052437 
L 94.545956 42.726039 
L 103.298897 45.024503 
L 112.051838 50.575271 
L 120.804779 53.667027 
L 129.557721 58.168854 
L 138.310662 50.469281 
L 147.063603 51.581226 
L 155.816544 49.301065 
L 164.569485 71.89821 
L 173.322426 48.08082 
L 182.075368 40.250896 
L 190.828309 47.928065 
L 199.58125 49.168546 
L 208.334191 42.456586 
L 217.087132 37.704631 
L 225.840074 33.876282 
L 234.593015 46.720189 
L 243.345956 33.39764 
L 252.098897 33.700073 
L 260.851838 35.949235 
L 269.604779 41.450875 
L 278.357721 41.251702 
L 287.110662 32.814085 
L 295.863603 39.37419 
L 304.616544 42.163304 
L 313.369485 41.691009 
L 322.122426 34.272804 
L 330.875368 32.433675 
L 339.628309 30.434757 
L 348.38125 30.359501 
L 357.134191 27.605945 
L 365.887132 22.318125 
L 374.640074 24.326374 
L 383.393015 33.604632 
L 392.145956 39.175376 
L 400.898897 25.253689 
L 409.651838 42.607019 
L 418.404779 32.931752 
L 427.157721 22.887571 
L 435.910662 25.186546 
L 444.663603 31.806046 
L 453.416544 23.768396 
L 462.169485 31.681403 
L 470.922426 22.607783 
L 479.675368 37.263133 
L 488.428309 30.934758 
L 497.18125 68.907059 
L 497.18125 69.996157 
L 497.18125 69.996157 
L 488.428309 36.70375 
L 479.675368 41.521306 
L 470.922426 27.249851 
L 462.169485 35.011264 
L 453.416544 28.845689 
L 444.663603 35.1357 
L 435.910662 32.344965 
L 427.157721 29.873858 
L 418.404779 35.81242 
L 409.651838 45.517949 
L 400.898897 33.38349 
L 392.145956 43.186385 
L 383.393015 40.821925 
L 374.640074 30.753586 
L 365.887132 29.657658 
L 357.134191 30.290473 
L 348.38125 32.55582 
L 339.628309 33.276633 
L 330.875368 35.639873 
L 322.122426 39.496818 
L 313.369485 45.120723 
L 304.616544 45.374076 
L 295.863603 43.852428 
L 287.110662 40.458878 
L 278.357721 44.39567 
L 269.604779 45.601691 
L 260.851838 41.145246 
L 252.098897 37.810131 
L 243.345956 36.225254 
L 234.593015 48.679323 
L 225.840074 36.898897 
L 217.087132 40.765979 
L 208.334191 47.983296 
L 199.58125 53.879552 
L 190.828309 54.431875 
L 182.075368 46.966025 
L 173.322426 51.920717 
L 164.569485 73.514083 
L 155.816544 55.617212 
L 147.063603 56.879234 
L 138.310662 56.65591 
L 129.557721 63.70198 
L 120.804779 59.128741 
L 112.051838 56.920073 
L 103.298897 52.805065 
L 94.545956 48.644245 
L 85.793015 50.698957 
L 77.040074 47.61324 
L 68.287132 50.515812 
L 59.534191 46.203077 
L 50.78125 67.85886 
z
" style="fill:#ba4a00;fill-opacity:0.6;"/>
   </g>
   <g id="matplotlib.axis_1">
    <g id="xtick_1">
     <g id="line2d_1">
      <defs>
       <path d="M 0 0 
L 0 3.5 
" id="me278e06b0e" style="stroke:#000000;stroke-width:0.8;"/>
      </defs>
      <g>
       <use style="stroke:#000000;stroke-width:0.8;" x="50.78125" xlink:href="#me278e06b0e" y="348.478125"/>
      </g>
     </g>
     <g id="text_1">
      <!-- Jan -->
      <defs>
       <path d="M 9.8125 72.90625 
L 19.671875 72.90625 
L 19.671875 5.078125 
Q 19.671875 -8.109375 14.671875 -14.0625 
Q 9.671875 -20.015625 -1.421875 -20.015625 
L -5.171875 -20.015625 
L -5.171875 -11.71875 
L -2.09375 -11.71875 
Q 4.4375 -11.71875 7.125 -8.046875 
Q 9.8125 -4.390625 9.8125 5.078125 
z
" id="DejaVuSans-74"/>
       <path d="M 34.28125 27.484375 
Q 23.390625 27.484375 19.1875 25 
Q 14.984375 22.515625 14.984375 16.5 
Q 14.984375 11.71875 18.140625 8.90625 
Q 21.296875 6.109375 26.703125 6.109375 
Q 34.1875 6.109375 38.703125 11.40625 
Q 43.21875 16.703125 43.21875 25.484375 
L 43.21875 27.484375 
z
M 52.203125 31.203125 
L 52.203125 0 
L 43.21875 0 
L 43.21875 8.296875 
Q 40.140625 3.328125 35.546875 0.953125 
Q 30.953125 -1.421875 24.3125 -1.421875 
Q 15.921875 -1.421875 10.953125 3.296875 
Q 6 8.015625 6 15.921875 
Q 6 25.140625 12.171875 29.828125 
Q 18.359375 34.515625 30.609375 34.515625 
L 43.21875 34.515625 
L 43.21875 35.40625 
Q 43.21875 41.609375 39.140625 45 
Q 35.0625 48.390625 27.6875 48.390625 
Q 23 48.390625 18.546875 47.265625 
Q 14.109375 46.140625 10.015625 43.890625 
L 10.015625 52.203125 
Q 14.9375 54.109375 19.578125 55.046875 
Q 24.21875 56 28.609375 56 
Q 40.484375 56 46.34375 49.84375 
Q 52.203125 43.703125 52.203125 31.203125 
z
" id="DejaVuSans-97"/>
       <path d="M 54.890625 33.015625 
L 54.890625 0 
L 45.90625 0 
L 45.90625 32.71875 
Q 45.90625 40.484375 42.875 44.328125 
Q 39.84375 48.1875 33.796875 48.1875 
Q 26.515625 48.1875 22.3125 43.546875 
Q 18.109375 38.921875 18.109375 30.90625 
L 18.109375 0 
L 9.078125 0 
L 9.078125 54.6875 
L 18.109375 54.6875 
L 18.109375 46.1875 
Q 21.34375 51.125 25.703125 53.5625 
Q 30.078125 56 35.796875 56 
Q 45.21875 56 50.046875 50.171875 
Q 54.890625 44.34375 54.890625 33.015625 
z
" id="DejaVuSans-110"/>
      </defs>
      <g transform="translate(50.737987 372.562893)rotate(-70)scale(0.1 -0.1)">
       <use xlink:href="#DejaVuSans-74"/>
       <use x="29.492188" xlink:href="#DejaVuSans-97"/>
       <use x="90.771484" xlink:href="#DejaVuSans-110"/>
      </g>
     </g>
    </g>
    <g id="xtick_2">
     <g id="line2d_2">
      <g>
       <use style="stroke:#000000;stroke-width:0.8;" x="94.545956" xlink:href="#me278e06b0e" y="348.478125"/>
      </g>
     </g>
     <g id="text_2">
      <!-- Feb -->
      <defs>
       <path d="M 9.8125 72.90625 
L 51.703125 72.90625 
L 51.703125 64.59375 
L 19.671875 64.59375 
L 19.671875 43.109375 
L 48.578125 43.109375 
L 48.578125 34.8125 
L 19.671875 34.8125 
L 19.671875 0 
L 9.8125 0 
z
" id="DejaVuSans-70"/>
       <path d="M 56.203125 29.59375 
L 56.203125 25.203125 
L 14.890625 25.203125 
Q 15.484375 15.921875 20.484375 11.0625 
Q 25.484375 6.203125 34.421875 6.203125 
Q 39.59375 6.203125 44.453125 7.46875 
Q 49.3125 8.734375 54.109375 11.28125 
L 54.109375 2.78125 
Q 49.265625 0.734375 44.1875 -0.34375 
Q 39.109375 -1.421875 33.890625 -1.421875 
Q 20.796875 -1.421875 13.15625 6.1875 
Q 5.515625 13.8125 5.515625 26.8125 
Q 5.515625 40.234375 12.765625 48.109375 
Q 20.015625 56 32.328125 56 
Q 43.359375 56 49.78125 48.890625 
Q 56.203125 41.796875 56.203125 29.59375 
z
M 47.21875 32.234375 
Q 47.125 39.59375 43.09375 43.984375 
Q 39.0625 48.390625 32.421875 48.390625 
Q 24.90625 48.390625 20.390625 44.140625 
Q 15.875 39.890625 15.1875 32.171875 
z
" id="DejaVuSans-101"/>
       <path d="M 48.6875 27.296875 
Q 48.6875 37.203125 44.609375 42.84375 
Q 40.53125 48.484375 33.40625 48.484375 
Q 26.265625 48.484375 22.1875 42.84375 
Q 18.109375 37.203125 18.109375 27.296875 
Q 18.109375 17.390625 22.1875 11.75 
Q 26.265625 6.109375 33.40625 6.109375 
Q 40.53125 6.109375 44.609375 11.75 
Q 48.6875 17.390625 48.6875 27.296875 
z
M 18.109375 46.390625 
Q 20.953125 51.265625 25.265625 53.625 
Q 29.59375 56 35.59375 56 
Q 45.5625 56 51.78125 48.09375 
Q 58.015625 40.1875 58.015625 27.296875 
Q 58.015625 14.40625 51.78125 6.484375 
Q 45.5625 -1.421875 35.59375 -1.421875 
Q 29.59375 -1.421875 25.265625 0.953125 
Q 20.953125 3.328125 18.109375 8.203125 
L 18.109375 0 
L 9.078125 0 
L 9.078125 75.984375 
L 18.109375 75.984375 
z
" id="DejaVuSans-98"/>
      </defs>
      <g transform="translate(94.111508 374.71244)rotate(-70)scale(0.1 -0.1)">
       <use xlink:href="#DejaVuSans-70"/>
       <use x="52.019531" xlink:href="#DejaVuSans-101"/>
       <use x="113.542969" xlink:href="#DejaVuSans-98"/>
      </g>
     </g>
    </g>
    <g id="xtick_3">
     <g id="line2d_3">
      <g>
       <use style="stroke:#000000;stroke-width:0.8;" x="129.557721" xlink:href="#me278e06b0e" y="348.478125"/>
      </g>
     </g>
     <g id="text_3">
      <!-- Mar -->
      <defs>
       <path d="M 9.8125 72.90625 
L 24.515625 72.90625 
L 43.109375 23.296875 
L 61.8125 72.90625 
L 76.515625 72.90625 
L 76.515625 0 
L 66.890625 0 
L 66.890625 64.015625 
L 48.09375 14.015625 
L 38.1875 14.015625 
L 19.390625 64.015625 
L 19.390625 0 
L 9.8125 0 
z
" id="DejaVuSans-77"/>
       <path d="M 41.109375 46.296875 
Q 39.59375 47.171875 37.8125 47.578125 
Q 36.03125 48 33.890625 48 
Q 26.265625 48 22.1875 43.046875 
Q 18.109375 38.09375 18.109375 28.8125 
L 18.109375 0 
L 9.078125 0 
L 9.078125 54.6875 
L 18.109375 54.6875 
L 18.109375 46.1875 
Q 20.953125 51.171875 25.484375 53.578125 
Q 30.03125 56 36.53125 56 
Q 37.453125 56 38.578125 55.875 
Q 39.703125 55.765625 41.0625 55.515625 
z
" id="DejaVuSans-114"/>
      </defs>
      <g transform="translate(128.924206 375.806301)rotate(-70)scale(0.1 -0.1)">
       <use xlink:href="#DejaVuSans-77"/>
       <use x="86.279297" xlink:href="#DejaVuSans-97"/>
       <use x="147.558594" xlink:href="#DejaVuSans-114"/>
      </g>
     </g>
    </g>
    <g id="xtick_4">
     <g id="line2d_4">
      <g>
       <use style="stroke:#000000;stroke-width:0.8;" x="164.569485" xlink:href="#me278e06b0e" y="348.478125"/>
      </g>
     </g>
     <g id="text_4">
      <!-- Apr -->
      <defs>
       <path d="M 34.1875 63.1875 
L 20.796875 26.90625 
L 47.609375 26.90625 
z
M 28.609375 72.90625 
L 39.796875 72.90625 
L 67.578125 0 
L 57.328125 0 
L 50.6875 18.703125 
L 17.828125 18.703125 
L 11.1875 0 
L 0.78125 0 
z
" id="DejaVuSans-65"/>
       <path d="M 18.109375 8.203125 
L 18.109375 -20.796875 
L 9.078125 -20.796875 
L 9.078125 54.6875 
L 18.109375 54.6875 
L 18.109375 46.390625 
Q 20.953125 51.265625 25.265625 53.625 
Q 29.59375 56 35.59375 56 
Q 45.5625 56 51.78125 48.09375 
Q 58.015625 40.1875 58.015625 27.296875 
Q 58.015625 14.40625 51.78125 6.484375 
Q 45.5625 -1.421875 35.59375 -1.421875 
Q 29.59375 -1.421875 25.265625 0.953125 
Q 20.953125 3.328125 18.109375 8.203125 
z
M 48.6875 27.296875 
Q 48.6875 37.203125 44.609375 42.84375 
Q 40.53125 48.484375 33.40625 48.484375 
Q 26.265625 48.484375 22.1875 42.84375 
Q 18.109375 37.203125 18.109375 27.296875 
Q 18.109375 17.390625 22.1875 11.75 
Q 26.265625 6.109375 33.40625 6.109375 
Q 40.53125 6.109375 44.609375 11.75 
Q 48.6875 17.390625 48.6875 27.296875 
z
" id="DejaVuSans-112"/>
      </defs>
      <g transform="translate(164.203975 374.333626)rotate(-70)scale(0.1 -0.1)">
       <use xlink:href="#DejaVuSans-65"/>
       <use x="68.408203" xlink:href="#DejaVuSans-112"/>
       <use x="131.884766" xlink:href="#DejaVuSans-114"/>
      </g>
     </g>
    </g>
    <g id="xtick_5">
     <g id="line2d_5">
      <g>
       <use style="stroke:#000000;stroke-width:0.8;" x="199.58125" xlink:href="#me278e06b0e" y="348.478125"/>
      </g>
     </g>
     <g id="text_5">
      <!-- May -->
      <defs>
       <path d="M 32.171875 -5.078125 
Q 28.375 -14.84375 24.75 -17.8125 
Q 21.140625 -20.796875 15.09375 -20.796875 
L 7.90625 -20.796875 
L 7.90625 -13.28125 
L 13.1875 -13.28125 
Q 16.890625 -13.28125 18.9375 -11.515625 
Q 21 -9.765625 23.484375 -3.21875 
L 25.09375 0.875 
L 2.984375 54.6875 
L 12.5 54.6875 
L 29.59375 11.921875 
L 46.6875 54.6875 
L 56.203125 54.6875 
z
" id="DejaVuSans-121"/>
      </defs>
      <g transform="translate(198.638581 377.505089)rotate(-70)scale(0.1 -0.1)">
       <use xlink:href="#DejaVuSans-77"/>
       <use x="86.279297" xlink:href="#DejaVuSans-97"/>
       <use x="147.558594" xlink:href="#DejaVuSans-121"/>
      </g>
     </g>
    </g>
    <g id="xtick_6">
     <g id="line2d_6">
      <g>
       <use style="stroke:#000000;stroke-width:0.8;" x="243.345956" xlink:href="#me278e06b0e" y="348.478125"/>
      </g>
     </g>
     <g id="text_6">
      <!-- Jun -->
      <defs>
       <path d="M 8.5 21.578125 
L 8.5 54.6875 
L 17.484375 54.6875 
L 17.484375 21.921875 
Q 17.484375 14.15625 20.5 10.265625 
Q 23.53125 6.390625 29.59375 6.390625 
Q 36.859375 6.390625 41.078125 11.03125 
Q 45.3125 15.671875 45.3125 23.6875 
L 45.3125 54.6875 
L 54.296875 54.6875 
L 54.296875 0 
L 45.3125 0 
L 45.3125 8.40625 
Q 42.046875 3.421875 37.71875 1 
Q 33.40625 -1.421875 27.6875 -1.421875 
Q 18.265625 -1.421875 13.375 4.4375 
Q 8.5 10.296875 8.5 21.578125 
z
M 31.109375 56 
z
" id="DejaVuSans-117"/>
      </defs>
      <g transform="translate(243.266888 372.759641)rotate(-70)scale(0.1 -0.1)">
       <use xlink:href="#DejaVuSans-74"/>
       <use x="29.492188" xlink:href="#DejaVuSans-117"/>
       <use x="92.871094" xlink:href="#DejaVuSans-110"/>
      </g>
     </g>
    </g>
    <g id="xtick_7">
     <g id="line2d_7">
      <g>
       <use style="stroke:#000000;stroke-width:0.8;" x="278.357721" xlink:href="#me278e06b0e" y="348.478125"/>
      </g>
     </g>
     <g id="text_7">
      <!-- Jul -->
      <defs>
       <path d="M 9.421875 75.984375 
L 18.40625 75.984375 
L 18.40625 0 
L 9.421875 0 
z
" id="DejaVuSans-108"/>
      </defs>
      <g transform="translate(278.887342 369.414922)rotate(-70)scale(0.1 -0.1)">
       <use xlink:href="#DejaVuSans-74"/>
       <use x="29.492188" xlink:href="#DejaVuSans-117"/>
       <use x="92.871094" xlink:href="#DejaVuSans-108"/>
      </g>
     </g>
    </g>
    <g id="xtick_8">
     <g id="line2d_8">
      <g>
       <use style="stroke:#000000;stroke-width:0.8;" x="313.369485" xlink:href="#me278e06b0e" y="348.478125"/>
      </g>
     </g>
     <g id="text_8">
      <!-- Aug -->
      <defs>
       <path d="M 45.40625 27.984375 
Q 45.40625 37.75 41.375 43.109375 
Q 37.359375 48.484375 30.078125 48.484375 
Q 22.859375 48.484375 18.828125 43.109375 
Q 14.796875 37.75 14.796875 27.984375 
Q 14.796875 18.265625 18.828125 12.890625 
Q 22.859375 7.515625 30.078125 7.515625 
Q 37.359375 7.515625 41.375 12.890625 
Q 45.40625 18.265625 45.40625 27.984375 
z
M 54.390625 6.78125 
Q 54.390625 -7.171875 48.1875 -13.984375 
Q 42 -20.796875 29.203125 -20.796875 
Q 24.46875 -20.796875 20.265625 -20.09375 
Q 16.0625 -19.390625 12.109375 -17.921875 
L 12.109375 -9.1875 
Q 16.0625 -11.328125 19.921875 -12.34375 
Q 23.78125 -13.375 27.78125 -13.375 
Q 36.625 -13.375 41.015625 -8.765625 
Q 45.40625 -4.15625 45.40625 5.171875 
L 45.40625 9.625 
Q 42.625 4.78125 38.28125 2.390625 
Q 33.9375 0 27.875 0 
Q 17.828125 0 11.671875 7.65625 
Q 5.515625 15.328125 5.515625 27.984375 
Q 5.515625 40.671875 11.671875 48.328125 
Q 17.828125 56 27.875 56 
Q 33.9375 56 38.28125 53.609375 
Q 42.625 51.21875 45.40625 46.390625 
L 45.40625 54.6875 
L 54.390625 54.6875 
z
" id="DejaVuSans-103"/>
      </defs>
      <g transform="translate(312.623211 376.42591)rotate(-70)scale(0.1 -0.1)">
       <use xlink:href="#DejaVuSans-65"/>
       <use x="68.408203" xlink:href="#DejaVuSans-117"/>
       <use x="131.787109" xlink:href="#DejaVuSans-103"/>
      </g>
     </g>
    </g>
    <g id="xtick_9">
     <g id="line2d_9">
      <g>
       <use style="stroke:#000000;stroke-width:0.8;" x="357.134191" xlink:href="#me278e06b0e" y="348.478125"/>
      </g>
     </g>
     <g id="text_9">
      <!-- Sept -->
      <defs>
       <path d="M 53.515625 70.515625 
L 53.515625 60.890625 
Q 47.90625 63.578125 42.921875 64.890625 
Q 37.9375 66.21875 33.296875 66.21875 
Q 25.25 66.21875 20.875 63.09375 
Q 16.5 59.96875 16.5 54.203125 
Q 16.5 49.359375 19.40625 46.890625 
Q 22.3125 44.4375 30.421875 42.921875 
L 36.375 41.703125 
Q 47.40625 39.59375 52.65625 34.296875 
Q 57.90625 29 57.90625 20.125 
Q 57.90625 9.515625 50.796875 4.046875 
Q 43.703125 -1.421875 29.984375 -1.421875 
Q 24.8125 -1.421875 18.96875 -0.25 
Q 13.140625 0.921875 6.890625 3.21875 
L 6.890625 13.375 
Q 12.890625 10.015625 18.65625 8.296875 
Q 24.421875 6.59375 29.984375 6.59375 
Q 38.421875 6.59375 43.015625 9.90625 
Q 47.609375 13.234375 47.609375 19.390625 
Q 47.609375 24.75 44.3125 27.78125 
Q 41.015625 30.8125 33.5 32.328125 
L 27.484375 33.5 
Q 16.453125 35.6875 11.515625 40.375 
Q 6.59375 45.0625 6.59375 53.421875 
Q 6.59375 63.09375 13.40625 68.65625 
Q 20.21875 74.21875 32.171875 74.21875 
Q 37.3125 74.21875 42.625 73.28125 
Q 47.953125 72.359375 53.515625 70.515625 
z
" id="DejaVuSans-83"/>
       <path d="M 18.3125 70.21875 
L 18.3125 54.6875 
L 36.8125 54.6875 
L 36.8125 47.703125 
L 18.3125 47.703125 
L 18.3125 18.015625 
Q 18.3125 11.328125 20.140625 9.421875 
Q 21.96875 7.515625 27.59375 7.515625 
L 36.8125 7.515625 
L 36.8125 0 
L 27.59375 0 
Q 17.1875 0 13.234375 3.875 
Q 9.28125 7.765625 9.28125 18.015625 
L 9.28125 47.703125 
L 2.6875 47.703125 
L 2.6875 54.6875 
L 9.28125 54.6875 
L 9.28125 70.21875 
z
" id="DejaVuSans-116"/>
      </defs>
      <g transform="translate(355.833203 379.474038)rotate(-70)scale(0.1 -0.1)">
       <use xlink:href="#DejaVuSans-83"/>
       <use x="63.476562" xlink:href="#DejaVuSans-101"/>
       <use x="125" xlink:href="#DejaVuSans-112"/>
       <use x="188.476562" xlink:href="#DejaVuSans-116"/>
      </g>
     </g>
    </g>
    <g id="xtick_10">
     <g id="line2d_10">
      <g>
       <use style="stroke:#000000;stroke-width:0.8;" x="392.145956" xlink:href="#me278e06b0e" y="348.478125"/>
      </g>
     </g>
     <g id="text_10">
      <!-- Oct -->
      <defs>
       <path d="M 39.40625 66.21875 
Q 28.65625 66.21875 22.328125 58.203125 
Q 16.015625 50.203125 16.015625 36.375 
Q 16.015625 22.609375 22.328125 14.59375 
Q 28.65625 6.59375 39.40625 6.59375 
Q 50.140625 6.59375 56.421875 14.59375 
Q 62.703125 22.609375 62.703125 36.375 
Q 62.703125 50.203125 56.421875 58.203125 
Q 50.140625 66.21875 39.40625 66.21875 
z
M 39.40625 74.21875 
Q 54.734375 74.21875 63.90625 63.9375 
Q 73.09375 53.65625 73.09375 36.375 
Q 73.09375 19.140625 63.90625 8.859375 
Q 54.734375 -1.421875 39.40625 -1.421875 
Q 24.03125 -1.421875 14.8125 8.828125 
Q 5.609375 19.09375 5.609375 36.375 
Q 5.609375 53.65625 14.8125 63.9375 
Q 24.03125 74.21875 39.40625 74.21875 
z
" id="DejaVuSans-79"/>
       <path d="M 48.78125 52.59375 
L 48.78125 44.1875 
Q 44.96875 46.296875 41.140625 47.34375 
Q 37.3125 48.390625 33.40625 48.390625 
Q 24.65625 48.390625 19.8125 42.84375 
Q 14.984375 37.3125 14.984375 27.296875 
Q 14.984375 17.28125 19.8125 11.734375 
Q 24.65625 6.203125 33.40625 6.203125 
Q 37.3125 6.203125 41.140625 7.25 
Q 44.96875 8.296875 48.78125 10.40625 
L 48.78125 2.09375 
Q 45.015625 0.34375 40.984375 -0.53125 
Q 36.96875 -1.421875 32.421875 -1.421875 
Q 20.0625 -1.421875 12.78125 6.34375 
Q 5.515625 14.109375 5.515625 27.296875 
Q 5.515625 40.671875 12.859375 48.328125 
Q 20.21875 56 33.015625 56 
Q 37.15625 56 41.109375 55.140625 
Q 45.0625 54.296875 48.78125 52.59375 
z
" id="DejaVuSans-99"/>
      </defs>
      <g transform="translate(391.782049 374.324816)rotate(-70)scale(0.1 -0.1)">
       <use xlink:href="#DejaVuSans-79"/>
       <use x="78.710938" xlink:href="#DejaVuSans-99"/>
       <use x="133.691406" xlink:href="#DejaVuSans-116"/>
      </g>
     </g>
    </g>
    <g id="xtick_11">
     <g id="line2d_11">
      <g>
       <use style="stroke:#000000;stroke-width:0.8;" x="427.157721" xlink:href="#me278e06b0e" y="348.478125"/>
      </g>
     </g>
     <g id="text_11">
      <!-- Nov -->
      <defs>
       <path d="M 9.8125 72.90625 
L 23.09375 72.90625 
L 55.421875 11.921875 
L 55.421875 72.90625 
L 64.984375 72.90625 
L 64.984375 0 
L 51.703125 0 
L 19.390625 60.984375 
L 19.390625 0 
L 9.8125 0 
z
" id="DejaVuSans-78"/>
       <path d="M 30.609375 48.390625 
Q 23.390625 48.390625 19.1875 42.75 
Q 14.984375 37.109375 14.984375 27.296875 
Q 14.984375 17.484375 19.15625 11.84375 
Q 23.34375 6.203125 30.609375 6.203125 
Q 37.796875 6.203125 41.984375 11.859375 
Q 46.1875 17.53125 46.1875 27.296875 
Q 46.1875 37.015625 41.984375 42.703125 
Q 37.796875 48.390625 30.609375 48.390625 
z
M 30.609375 56 
Q 42.328125 56 49.015625 48.375 
Q 55.71875 40.765625 55.71875 27.296875 
Q 55.71875 13.875 49.015625 6.21875 
Q 42.328125 -1.421875 30.609375 -1.421875 
Q 18.84375 -1.421875 12.171875 6.21875 
Q 5.515625 13.875 5.515625 27.296875 
Q 5.515625 40.765625 12.171875 48.375 
Q 18.84375 56 30.609375 56 
z
" id="DejaVuSans-111"/>
       <path d="M 2.984375 54.6875 
L 12.5 54.6875 
L 29.59375 8.796875 
L 46.6875 54.6875 
L 56.203125 54.6875 
L 35.6875 0 
L 23.484375 0 
z
" id="DejaVuSans-118"/>
      </defs>
      <g transform="translate(426.412782 376.418569)rotate(-70)scale(0.1 -0.1)">
       <use xlink:href="#DejaVuSans-78"/>
       <use x="74.804688" xlink:href="#DejaVuSans-111"/>
       <use x="135.986328" xlink:href="#DejaVuSans-118"/>
      </g>
     </g>
    </g>
    <g id="xtick_12">
     <g id="line2d_12">
      <g>
       <use style="stroke:#000000;stroke-width:0.8;" x="462.169485" xlink:href="#me278e06b0e" y="348.478125"/>
      </g>
     </g>
     <g id="text_12">
      <!-- Dec -->
      <defs>
       <path d="M 19.671875 64.796875 
L 19.671875 8.109375 
L 31.59375 8.109375 
Q 46.6875 8.109375 53.6875 14.9375 
Q 60.6875 21.78125 60.6875 36.53125 
Q 60.6875 51.171875 53.6875 57.984375 
Q 46.6875 64.796875 31.59375 64.796875 
z
M 9.8125 72.90625 
L 30.078125 72.90625 
Q 51.265625 72.90625 61.171875 64.09375 
Q 71.09375 55.28125 71.09375 36.53125 
Q 71.09375 17.671875 61.125 8.828125 
Q 51.171875 0 30.078125 0 
L 9.8125 0 
z
" id="DejaVuSans-68"/>
      </defs>
      <g transform="translate(461.453138 376.261464)rotate(-70)scale(0.1 -0.1)">
       <use xlink:href="#DejaVuSans-68"/>
       <use x="77.001953" xlink:href="#DejaVuSans-101"/>
       <use x="138.525391" xlink:href="#DejaVuSans-99"/>
      </g>
     </g>
    </g>
   </g>
   <g id="matplotlib.axis_2">
    <g id="ytick_1">
     <g id="line2d_13">
      <defs>
       <path d="M 0 0 
L -3.5 0 
" id="mf8158c18a6" style="stroke:#000000;stroke-width:0.8;"/>
      </defs>
      <g>
       <use style="stroke:#000000;stroke-width:0.8;" x="50.78125" xlink:href="#mf8158c18a6" y="348.478125"/>
      </g>
     </g>
     <g id="text_13">
      <!-- 0.0 -->
      <defs>
       <path d="M 31.78125 66.40625 
Q 24.171875 66.40625 20.328125 58.90625 
Q 16.5 51.421875 16.5 36.375 
Q 16.5 21.390625 20.328125 13.890625 
Q 24.171875 6.390625 31.78125 6.390625 
Q 39.453125 6.390625 43.28125 13.890625 
Q 47.125 21.390625 47.125 36.375 
Q 47.125 51.421875 43.28125 58.90625 
Q 39.453125 66.40625 31.78125 66.40625 
z
M 31.78125 74.21875 
Q 44.046875 74.21875 50.515625 64.515625 
Q 56.984375 54.828125 56.984375 36.375 
Q 56.984375 17.96875 50.515625 8.265625 
Q 44.046875 -1.421875 31.78125 -1.421875 
Q 19.53125 -1.421875 13.0625 8.265625 
Q 6.59375 17.96875 6.59375 36.375 
Q 6.59375 54.828125 13.0625 64.515625 
Q 19.53125 74.21875 31.78125 74.21875 
z
" id="DejaVuSans-48"/>
       <path d="M 10.6875 12.40625 
L 21 12.40625 
L 21 0 
L 10.6875 0 
z
" id="DejaVuSans-46"/>
      </defs>
      <g transform="translate(27.878125 352.277344)scale(0.1 -0.1)">
       <use xlink:href="#DejaVuSans-48"/>
       <use x="63.623047" xlink:href="#DejaVuSans-46"/>
       <use x="95.410156" xlink:href="#DejaVuSans-48"/>
      </g>
     </g>
    </g>
    <g id="ytick_2">
     <g id="line2d_14">
      <g>
       <use style="stroke:#000000;stroke-width:0.8;" x="50.78125" xlink:href="#mf8158c18a6" y="288.795795"/>
      </g>
     </g>
     <g id="text_14">
      <!-- 0.2 -->
      <defs>
       <path d="M 19.1875 8.296875 
L 53.609375 8.296875 
L 53.609375 0 
L 7.328125 0 
L 7.328125 8.296875 
Q 12.9375 14.109375 22.625 23.890625 
Q 32.328125 33.6875 34.8125 36.53125 
Q 39.546875 41.84375 41.421875 45.53125 
Q 43.3125 49.21875 43.3125 52.78125 
Q 43.3125 58.59375 39.234375 62.25 
Q 35.15625 65.921875 28.609375 65.921875 
Q 23.96875 65.921875 18.8125 64.3125 
Q 13.671875 62.703125 7.8125 59.421875 
L 7.8125 69.390625 
Q 13.765625 71.78125 18.9375 73 
Q 24.125 74.21875 28.421875 74.21875 
Q 39.75 74.21875 46.484375 68.546875 
Q 53.21875 62.890625 53.21875 53.421875 
Q 53.21875 48.921875 51.53125 44.890625 
Q 49.859375 40.875 45.40625 35.40625 
Q 44.1875 33.984375 37.640625 27.21875 
Q 31.109375 20.453125 19.1875 8.296875 
z
" id="DejaVuSans-50"/>
      </defs>
      <g transform="translate(27.878125 292.595014)scale(0.1 -0.1)">
       <use xlink:href="#DejaVuSans-48"/>
       <use x="63.623047" xlink:href="#DejaVuSans-46"/>
       <use x="95.410156" xlink:href="#DejaVuSans-50"/>
      </g>
     </g>
    </g>
    <g id="ytick_3">
     <g id="line2d_15">
      <g>
       <use style="stroke:#000000;stroke-width:0.8;" x="50.78125" xlink:href="#mf8158c18a6" y="229.113466"/>
      </g>
     </g>
     <g id="text_15">
      <!-- 0.4 -->
      <defs>
       <path d="M 37.796875 64.3125 
L 12.890625 25.390625 
L 37.796875 25.390625 
z
M 35.203125 72.90625 
L 47.609375 72.90625 
L 47.609375 25.390625 
L 58.015625 25.390625 
L 58.015625 17.1875 
L 47.609375 17.1875 
L 47.609375 0 
L 37.796875 0 
L 37.796875 17.1875 
L 4.890625 17.1875 
L 4.890625 26.703125 
z
" id="DejaVuSans-52"/>
      </defs>
      <g transform="translate(27.878125 232.912684)scale(0.1 -0.1)">
       <use xlink:href="#DejaVuSans-48"/>
       <use x="63.623047" xlink:href="#DejaVuSans-46"/>
       <use x="95.410156" xlink:href="#DejaVuSans-52"/>
      </g>
     </g>
    </g>
    <g id="ytick_4">
     <g id="line2d_16">
      <g>
       <use style="stroke:#000000;stroke-width:0.8;" x="50.78125" xlink:href="#mf8158c18a6" y="169.431136"/>
      </g>
     </g>
     <g id="text_16">
      <!-- 0.6 -->
      <defs>
       <path d="M 33.015625 40.375 
Q 26.375 40.375 22.484375 35.828125 
Q 18.609375 31.296875 18.609375 23.390625 
Q 18.609375 15.53125 22.484375 10.953125 
Q 26.375 6.390625 33.015625 6.390625 
Q 39.65625 6.390625 43.53125 10.953125 
Q 47.40625 15.53125 47.40625 23.390625 
Q 47.40625 31.296875 43.53125 35.828125 
Q 39.65625 40.375 33.015625 40.375 
z
M 52.59375 71.296875 
L 52.59375 62.3125 
Q 48.875 64.0625 45.09375 64.984375 
Q 41.3125 65.921875 37.59375 65.921875 
Q 27.828125 65.921875 22.671875 59.328125 
Q 17.53125 52.734375 16.796875 39.40625 
Q 19.671875 43.65625 24.015625 45.921875 
Q 28.375 48.1875 33.59375 48.1875 
Q 44.578125 48.1875 50.953125 41.515625 
Q 57.328125 34.859375 57.328125 23.390625 
Q 57.328125 12.15625 50.6875 5.359375 
Q 44.046875 -1.421875 33.015625 -1.421875 
Q 20.359375 -1.421875 13.671875 8.265625 
Q 6.984375 17.96875 6.984375 36.375 
Q 6.984375 53.65625 15.1875 63.9375 
Q 23.390625 74.21875 37.203125 74.21875 
Q 40.921875 74.21875 44.703125 73.484375 
Q 48.484375 72.75 52.59375 71.296875 
z
" id="DejaVuSans-54"/>
      </defs>
      <g transform="translate(27.878125 173.230355)scale(0.1 -0.1)">
       <use xlink:href="#DejaVuSans-48"/>
       <use x="63.623047" xlink:href="#DejaVuSans-46"/>
       <use x="95.410156" xlink:href="#DejaVuSans-54"/>
      </g>
     </g>
    </g>
    <g id="ytick_5">
     <g id="line2d_17">
      <g>
       <use style="stroke:#000000;stroke-width:0.8;" x="50.78125" xlink:href="#mf8158c18a6" y="109.748806"/>
      </g>
     </g>
     <g id="text_17">
      <!-- 0.8 -->
      <defs>
       <path d="M 31.78125 34.625 
Q 24.75 34.625 20.71875 30.859375 
Q 16.703125 27.09375 16.703125 20.515625 
Q 16.703125 13.921875 20.71875 10.15625 
Q 24.75 6.390625 31.78125 6.390625 
Q 38.8125 6.390625 42.859375 10.171875 
Q 46.921875 13.96875 46.921875 20.515625 
Q 46.921875 27.09375 42.890625 30.859375 
Q 38.875 34.625 31.78125 34.625 
z
M 21.921875 38.8125 
Q 15.578125 40.375 12.03125 44.71875 
Q 8.5 49.078125 8.5 55.328125 
Q 8.5 64.0625 14.71875 69.140625 
Q 20.953125 74.21875 31.78125 74.21875 
Q 42.671875 74.21875 48.875 69.140625 
Q 55.078125 64.0625 55.078125 55.328125 
Q 55.078125 49.078125 51.53125 44.71875 
Q 48 40.375 41.703125 38.8125 
Q 48.828125 37.15625 52.796875 32.3125 
Q 56.78125 27.484375 56.78125 20.515625 
Q 56.78125 9.90625 50.3125 4.234375 
Q 43.84375 -1.421875 31.78125 -1.421875 
Q 19.734375 -1.421875 13.25 4.234375 
Q 6.78125 9.90625 6.78125 20.515625 
Q 6.78125 27.484375 10.78125 32.3125 
Q 14.796875 37.15625 21.921875 38.8125 
z
M 18.3125 54.390625 
Q 18.3125 48.734375 21.84375 45.5625 
Q 25.390625 42.390625 31.78125 42.390625 
Q 38.140625 42.390625 41.71875 45.5625 
Q 45.3125 48.734375 45.3125 54.390625 
Q 45.3125 60.0625 41.71875 63.234375 
Q 38.140625 66.40625 31.78125 66.40625 
Q 25.390625 66.40625 21.84375 63.234375 
Q 18.3125 60.0625 18.3125 54.390625 
z
" id="DejaVuSans-56"/>
      </defs>
      <g transform="translate(27.878125 113.548025)scale(0.1 -0.1)">
       <use xlink:href="#DejaVuSans-48"/>
       <use x="63.623047" xlink:href="#DejaVuSans-46"/>
       <use x="95.410156" xlink:href="#DejaVuSans-56"/>
      </g>
     </g>
    </g>
    <g id="ytick_6">
     <g id="line2d_18">
      <g>
       <use style="stroke:#000000;stroke-width:0.8;" x="50.78125" xlink:href="#mf8158c18a6" y="50.066477"/>
      </g>
     </g>
     <g id="text_18">
      <!-- 1.0 -->
      <defs>
       <path d="M 12.40625 8.296875 
L 28.515625 8.296875 
L 28.515625 63.921875 
L 10.984375 60.40625 
L 10.984375 69.390625 
L 28.421875 72.90625 
L 38.28125 72.90625 
L 38.28125 8.296875 
L 54.390625 8.296875 
L 54.390625 0 
L 12.40625 0 
z
" id="DejaVuSans-49"/>
      </defs>
      <g transform="translate(27.878125 53.865695)scale(0.1 -0.1)">
       <use xlink:href="#DejaVuSans-49"/>
       <use x="63.623047" xlink:href="#DejaVuSans-46"/>
       <use x="95.410156" xlink:href="#DejaVuSans-48"/>
      </g>
     </g>
    </g>
    <g id="text_19">
     <!-- Power (GW) -->
     <defs>
      <path d="M 19.671875 64.796875 
L 19.671875 37.40625 
L 32.078125 37.40625 
Q 38.96875 37.40625 42.71875 40.96875 
Q 46.484375 44.53125 46.484375 51.125 
Q 46.484375 57.671875 42.71875 61.234375 
Q 38.96875 64.796875 32.078125 64.796875 
z
M 9.8125 72.90625 
L 32.078125 72.90625 
Q 44.34375 72.90625 50.609375 67.359375 
Q 56.890625 61.8125 56.890625 51.125 
Q 56.890625 40.328125 50.609375 34.8125 
Q 44.34375 29.296875 32.078125 29.296875 
L 19.671875 29.296875 
L 19.671875 0 
L 9.8125 0 
z
" id="DejaVuSans-80"/>
      <path d="M 4.203125 54.6875 
L 13.1875 54.6875 
L 24.421875 12.015625 
L 35.59375 54.6875 
L 46.1875 54.6875 
L 57.421875 12.015625 
L 68.609375 54.6875 
L 77.59375 54.6875 
L 63.28125 0 
L 52.6875 0 
L 40.921875 44.828125 
L 29.109375 0 
L 18.5 0 
z
" id="DejaVuSans-119"/>
      <path id="DejaVuSans-32"/>
      <path d="M 31 75.875 
Q 24.46875 64.65625 21.28125 53.65625 
Q 18.109375 42.671875 18.109375 31.390625 
Q 18.109375 20.125 21.3125 9.0625 
Q 24.515625 -2 31 -13.1875 
L 23.1875 -13.1875 
Q 15.875 -1.703125 12.234375 9.375 
Q 8.59375 20.453125 8.59375 31.390625 
Q 8.59375 42.28125 12.203125 53.3125 
Q 15.828125 64.359375 23.1875 75.875 
z
" id="DejaVuSans-40"/>
      <path d="M 59.515625 10.40625 
L 59.515625 29.984375 
L 43.40625 29.984375 
L 43.40625 38.09375 
L 69.28125 38.09375 
L 69.28125 6.78125 
Q 63.578125 2.734375 56.6875 0.65625 
Q 49.8125 -1.421875 42 -1.421875 
Q 24.90625 -1.421875 15.25 8.5625 
Q 5.609375 18.5625 5.609375 36.375 
Q 5.609375 54.25 15.25 64.234375 
Q 24.90625 74.21875 42 74.21875 
Q 49.125 74.21875 55.546875 72.453125 
Q 61.96875 70.703125 67.390625 67.28125 
L 67.390625 56.78125 
Q 61.921875 61.421875 55.765625 63.765625 
Q 49.609375 66.109375 42.828125 66.109375 
Q 29.4375 66.109375 22.71875 58.640625 
Q 16.015625 51.171875 16.015625 36.375 
Q 16.015625 21.625 22.71875 14.15625 
Q 29.4375 6.6875 42.828125 6.6875 
Q 48.046875 6.6875 52.140625 7.59375 
Q 56.25 8.5 59.515625 10.40625 
z
" id="DejaVuSans-71"/>
      <path d="M 3.328125 72.90625 
L 13.28125 72.90625 
L 28.609375 11.28125 
L 43.890625 72.90625 
L 54.984375 72.90625 
L 70.3125 11.28125 
L 85.59375 72.90625 
L 95.609375 72.90625 
L 77.296875 0 
L 64.890625 0 
L 49.515625 63.28125 
L 33.984375 0 
L 21.578125 0 
z
" id="DejaVuSans-87"/>
      <path d="M 8.015625 75.875 
L 15.828125 75.875 
Q 23.140625 64.359375 26.78125 53.3125 
Q 30.421875 42.28125 30.421875 31.390625 
Q 30.421875 20.453125 26.78125 9.375 
Q 23.140625 -1.703125 15.828125 -13.1875 
L 8.015625 -13.1875 
Q 14.5 -2 17.703125 9.0625 
Q 20.90625 20.125 20.90625 31.390625 
Q 20.90625 42.671875 17.703125 53.65625 
Q 14.5 64.65625 8.015625 75.875 
z
" id="DejaVuSans-41"/>
     </defs>
     <g transform="translate(14.798437 214.820781)rotate(-90)scale(0.1 -0.1)">
      <use xlink:href="#DejaVuSans-80"/>
      <use x="56.677734" xlink:href="#DejaVuSans-111"/>
      <use x="117.859375" xlink:href="#DejaVuSans-119"/>
      <use x="199.646484" xlink:href="#DejaVuSans-101"/>
      <use x="261.169922" xlink:href="#DejaVuSans-114"/>
      <use x="302.283203" xlink:href="#DejaVuSans-32"/>
      <use x="334.070312" xlink:href="#DejaVuSans-40"/>
      <use x="373.083984" xlink:href="#DejaVuSans-71"/>
      <use x="450.574219" xlink:href="#DejaVuSans-87"/>
      <use x="549.451172" xlink:href="#DejaVuSans-41"/>
     </g>
    </g>
   </g>
   <g id="line2d_19">
    <path clip-path="url(#pc450952456)" d="M 50.78125 65.645538 
L 59.534191 41.640705 
L 68.287132 47.241954 
L 77.040074 43.101255 
L 85.793015 45.052437 
L 94.545956 42.726039 
L 103.298897 45.024503 
L 112.051838 50.575271 
L 120.804779 53.667027 
L 129.557721 58.168854 
L 138.310662 50.469281 
L 147.063603 51.581226 
L 155.816544 49.301065 
L 164.569485 71.89821 
L 173.322426 48.08082 
L 182.075368 40.250896 
L 190.828309 47.928065 
L 199.58125 49.168546 
L 208.334191 42.456586 
L 217.087132 37.704631 
L 225.840074 33.876282 
L 234.593015 46.720189 
L 243.345956 33.39764 
L 252.098897 33.700073 
L 260.851838 35.949235 
L 269.604779 41.450875 
L 278.357721 41.251702 
L 287.110662 32.814085 
L 295.863603 39.37419 
L 304.616544 42.163304 
L 313.369485 41.691009 
L 322.122426 34.272804 
L 330.875368 32.433675 
L 339.628309 30.434757 
L 348.38125 30.359501 
L 357.134191 27.605945 
L 365.887132 22.318125 
L 374.640074 24.326374 
L 383.393015 33.604632 
L 392.145956 39.175376 
L 400.898897 25.253689 
L 409.651838 42.607019 
L 418.404779 32.931752 
L 427.157721 22.887571 
L 435.910662 25.186546 
L 444.663603 31.806046 
L 453.416544 23.768396 
L 462.169485 31.681403 
L 470.922426 22.607783 
L 479.675368 37.263133 
L 488.428309 30.934758 
L 497.18125 68.907059 
" style="fill:none;stroke:#000000;stroke-linecap:square;stroke-opacity:0.5;stroke-width:1.5;"/>
   </g>
   <g id="line2d_20">
    <path clip-path="url(#pc450952456)" d="M 50.78125 162.291096 
L 59.534191 162.269256 
L 68.287132 164.232135 
L 77.040074 162.269256 
L 85.793015 162.269256 
L 94.545956 162.269256 
L 103.298897 162.269256 
L 112.051838 162.269256 
L 120.804779 162.269256 
L 129.557721 162.269256 
L 138.310662 162.269256 
L 147.063603 162.269256 
L 155.816544 162.269256 
L 164.569485 162.314813 
L 173.322426 162.269256 
L 182.075368 162.269256 
L 190.828309 162.289383 
L 199.58125 162.269256 
L 208.334191 162.269256 
L 217.087132 162.269256 
L 225.840074 162.269256 
L 234.593015 162.269256 
L 243.345956 162.269256 
L 252.098897 162.269256 
L 260.851838 162.269256 
L 269.604779 162.269256 
L 278.357721 162.269256 
L 287.110662 162.269256 
L 295.863603 162.269256 
L 304.616544 162.269256 
L 313.369485 162.269256 
L 322.122426 162.269256 
L 330.875368 162.269256 
L 339.628309 162.269256 
L 348.38125 162.269256 
L 357.134191 162.269256 
L 365.887132 162.269256 
L 374.640074 162.269256 
L 383.393015 162.269256 
L 392.145956 162.634155 
L 400.898897 162.269256 
L 409.651838 162.269256 
L 418.404779 162.269256 
L 427.157721 162.269256 
L 435.910662 162.269256 
L 444.663603 162.269256 
L 453.416544 162.269256 
L 462.169485 162.269256 
L 470.922426 162.269256 
L 479.675368 162.269256 
L 488.428309 162.269256 
L 497.18125 162.336806 
" style="fill:none;stroke:#ffb30f;stroke-linecap:square;stroke-opacity:0.2;stroke-width:1.5;"/>
   </g>
   <g id="line2d_21">
    <path clip-path="url(#pc450952456)" d="M 50.78125 73.973708 
L 59.534191 55.665602 
L 68.287132 57.907426 
L 77.040074 57.343314 
L 85.793015 61.556923 
L 94.545956 59.934219 
L 103.298897 69.165061 
L 112.051838 67.221372 
L 120.804779 67.347673 
L 129.557721 73.567084 
L 138.310662 69.826952 
L 147.063603 66.793757 
L 155.816544 67.2425 
L 164.569485 77.030088 
L 173.322426 58.980212 
L 182.075368 59.387619 
L 190.828309 62.977902 
L 199.58125 61.646471 
L 208.334191 55.348162 
L 217.087132 45.519882 
L 225.840074 41.372928 
L 234.593015 53.775356 
L 243.345956 40.482316 
L 252.098897 44.382675 
L 260.851838 49.221261 
L 269.604779 52.786272 
L 278.357721 49.886871 
L 287.110662 53.465953 
L 295.863603 52.920834 
L 304.616544 50.697185 
L 313.369485 53.885983 
L 322.122426 48.98452 
L 330.875368 40.809916 
L 339.628309 38.368068 
L 348.38125 37.128278 
L 357.134191 36.233845 
L 365.887132 38.926527 
L 374.640074 40.493946 
L 383.393015 51.271111 
L 392.145956 53.623859 
L 400.898897 46.975869 
L 409.651838 52.297209 
L 418.404779 43.488735 
L 427.157721 41.34301 
L 435.910662 47.338694 
L 444.663603 42.944404 
L 453.416544 39.478784 
L 462.169485 43.889438 
L 470.922426 36.967886 
L 479.675368 50.077626 
L 488.428309 49.948893 
L 497.18125 75.941552 
" style="fill:none;stroke:#2980b9;stroke-linecap:square;stroke-opacity:0.2;stroke-width:1.5;"/>
   </g>
   <g id="line2d_22">
    <path clip-path="url(#pc450952456)" d="M 50.78125 71.43069 
L 59.534191 53.396393 
L 68.287132 55.951941 
L 77.040074 55.543456 
L 85.793015 60.173918 
L 94.545956 58.688631 
L 103.298897 68.03354 
L 112.051838 66.281874 
L 120.804779 66.549593 
L 129.557721 72.706325 
L 138.310662 69.125539 
L 147.063603 65.871736 
L 155.816544 65.833089 
L 164.569485 75.550934 
L 173.322426 57.02283 
L 182.075368 57.923019 
L 190.828309 61.477561 
L 199.58125 60.129289 
L 208.334191 53.753845 
L 217.087132 43.853413 
L 225.840074 39.731691 
L 234.593015 51.3646 
L 243.345956 38.313241 
L 252.098897 42.042673 
L 260.851838 46.829207 
L 269.604779 50.553894 
L 278.357721 48.003529 
L 287.110662 51.090122 
L 295.863603 50.610101 
L 304.616544 48.472349 
L 313.369485 51.877012 
L 322.122426 46.989619 
L 330.875368 39.193599 
L 339.628309 36.772564 
L 348.38125 35.573643 
L 357.134191 34.452859 
L 365.887132 37.249484 
L 374.640074 39.205241 
L 383.393015 49.869443 
L 392.145956 52.094177 
L 400.898897 45.4879 
L 409.651838 50.435216 
L 418.404779 40.960661 
L 427.157721 38.866974 
L 435.910662 44.431614 
L 444.663603 40.249498 
L 453.416544 36.604742 
L 462.169485 41.311416 
L 470.922426 35.087681 
L 479.675368 48.280256 
L 488.428309 47.784069 
L 497.18125 73.358748 
" style="fill:none;stroke:#3498db;stroke-linecap:square;stroke-opacity:0.2;stroke-width:1.5;"/>
   </g>
   <g id="line2d_23">
    <path clip-path="url(#pc450952456)" d="M 50.78125 69.790536 
L 59.534191 51.483982 
L 68.287132 54.824505 
L 77.040074 52.729017 
L 85.793015 57.497538 
L 94.545956 55.736309 
L 103.298897 67.073916 
L 112.051838 63.796265 
L 120.804779 63.594607 
L 129.557721 69.067213 
L 138.310662 65.607568 
L 147.063603 62.644583 
L 155.816544 63.886308 
L 164.569485 74.613069 
L 173.322426 55.638502 
L 182.075368 56.359066 
L 190.828309 60.774606 
L 199.58125 58.542512 
L 208.334191 52.884676 
L 217.087132 42.901649 
L 225.840074 39.098499 
L 234.593015 50.034004 
L 243.345956 38.094939 
L 252.098897 41.86256 
L 260.851838 46.116971 
L 269.604779 49.648401 
L 278.357721 46.276383 
L 287.110662 49.815256 
L 295.863603 49.746528 
L 304.616544 47.906121 
L 313.369485 50.776619 
L 322.122426 46.072269 
L 330.875368 38.20027 
L 339.628309 35.139116 
L 348.38125 34.425024 
L 357.134191 33.406597 
L 365.887132 35.511547 
L 374.640074 37.415615 
L 383.393015 48.149535 
L 392.145956 49.068896 
L 400.898897 43.223657 
L 409.651838 48.396825 
L 418.404779 39.530905 
L 427.157721 37.339924 
L 435.910662 42.740881 
L 444.663603 38.684702 
L 453.416544 34.779991 
L 462.169485 39.104014 
L 470.922426 33.700334 
L 479.675368 47.400385 
L 488.428309 45.240732 
L 497.18125 70.605862 
" style="fill:none;stroke:#28b463;stroke-linecap:square;stroke-opacity:0.2;stroke-width:1.5;"/>
   </g>
   <g id="line2d_24">
    <path clip-path="url(#pc450952456)" d="M 50.78125 67.85886 
L 59.534191 46.203077 
L 68.287132 50.515812 
L 77.040074 47.61324 
L 85.793015 50.698957 
L 94.545956 48.644245 
L 103.298897 52.805065 
L 112.051838 56.920073 
L 120.804779 59.128741 
L 129.557721 63.70198 
L 138.310662 56.65591 
L 147.063603 56.879234 
L 155.816544 55.617212 
L 164.569485 73.514083 
L 173.322426 51.920717 
L 182.075368 46.966025 
L 190.828309 54.431875 
L 199.58125 53.879552 
L 208.334191 47.983296 
L 217.087132 40.765979 
L 225.840074 36.898897 
L 234.593015 48.679323 
L 243.345956 36.225254 
L 252.098897 37.810131 
L 260.851838 41.145246 
L 269.604779 45.601691 
L 278.357721 44.39567 
L 287.110662 40.458878 
L 295.863603 43.852428 
L 304.616544 45.374076 
L 313.369485 45.120723 
L 322.122426 39.496818 
L 330.875368 35.639873 
L 339.628309 33.276633 
L 348.38125 32.55582 
L 357.134191 30.290473 
L 365.887132 29.657658 
L 374.640074 30.753586 
L 383.393015 40.821925 
L 392.145956 43.186385 
L 400.898897 33.38349 
L 409.651838 45.517949 
L 418.404779 35.81242 
L 427.157721 29.873858 
L 435.910662 32.344965 
L 444.663603 35.1357 
L 453.416544 28.845689 
L 462.169485 35.011264 
L 470.922426 27.249851 
L 479.675368 41.521306 
L 488.428309 36.70375 
L 497.18125 69.996157 
" style="fill:none;stroke:#494949;stroke-linecap:square;stroke-opacity:0.2;stroke-width:1.5;"/>
   </g>
   <g id="line2d_25">
    <path clip-path="url(#pc450952456)" d="M 50.78125 67.85886 
L 59.534191 46.203077 
L 68.287132 50.515812 
L 77.040074 47.61324 
L 85.793015 50.698957 
L 94.545956 48.644245 
L 103.298897 52.805065 
L 112.051838 56.920073 
L 120.804779 59.128741 
L 129.557721 63.70198 
L 138.310662 56.65591 
L 147.063603 56.879234 
L 155.816544 55.617212 
L 164.569485 73.514083 
L 173.322426 51.920717 
L 182.075368 46.966025 
L 190.828309 54.431875 
L 199.58125 53.879552 
L 208.334191 47.983296 
L 217.087132 40.765979 
L 225.840074 36.898897 
L 234.593015 48.679323 
L 243.345956 36.225254 
L 252.098897 37.810131 
L 260.851838 41.145246 
L 269.604779 45.601691 
L 278.357721 44.39567 
L 287.110662 40.458878 
L 295.863603 43.852428 
L 304.616544 45.374076 
L 313.369485 45.120723 
L 322.122426 39.496818 
L 330.875368 35.639873 
L 339.628309 33.276633 
L 348.38125 32.55582 
L 357.134191 30.290473 
L 365.887132 29.657658 
L 374.640074 30.753586 
L 383.393015 40.821925 
L 392.145956 43.186385 
L 400.898897 33.38349 
L 409.651838 45.517949 
L 418.404779 35.81242 
L 427.157721 29.873858 
L 435.910662 32.344965 
L 444.663603 35.1357 
L 453.416544 28.845689 
L 462.169485 35.011264 
L 470.922426 27.249851 
L 479.675368 41.521306 
L 488.428309 36.70375 
L 497.18125 69.996157 
" style="fill:none;stroke:#7c7c7c;stroke-linecap:square;stroke-opacity:0.2;stroke-width:1.5;"/>
   </g>
   <g id="line2d_26">
    <path clip-path="url(#pc450952456)" d="M 50.78125 65.645538 
L 59.534191 41.640705 
L 68.287132 47.241954 
L 77.040074 43.101255 
L 85.793015 45.052437 
L 94.545956 42.726039 
L 103.298897 45.024503 
L 112.051838 50.575271 
L 120.804779 53.667027 
L 129.557721 58.168854 
L 138.310662 50.469281 
L 147.063603 51.581226 
L 155.816544 49.301065 
L 164.569485 71.89821 
L 173.322426 48.08082 
L 182.075368 40.250896 
L 190.828309 47.928065 
L 199.58125 49.168546 
L 208.334191 42.456586 
L 217.087132 37.704631 
L 225.840074 33.876282 
L 234.593015 46.720189 
L 243.345956 33.39764 
L 252.098897 33.700073 
L 260.851838 35.949235 
L 269.604779 41.450875 
L 278.357721 41.251702 
L 287.110662 32.814085 
L 295.863603 39.37419 
L 304.616544 42.163304 
L 313.369485 41.691009 
L 322.122426 34.272804 
L 330.875368 32.433675 
L 339.628309 30.434757 
L 348.38125 30.359501 
L 357.134191 27.605945 
L 365.887132 22.318125 
L 374.640074 24.326374 
L 383.393015 33.604632 
L 392.145956 39.175376 
L 400.898897 25.253689 
L 409.651838 42.607019 
L 418.404779 32.931752 
L 427.157721 22.887571 
L 435.910662 25.186546 
L 444.663603 31.806046 
L 453.416544 23.768396 
L 462.169485 31.681403 
L 470.922426 22.607783 
L 479.675368 37.263133 
L 488.428309 30.934758 
L 497.18125 68.907059 
" style="fill:none;stroke:#ba4a00;stroke-linecap:square;stroke-opacity:0.2;stroke-width:1.5;"/>
   </g>
   <g id="patch_3">
    <path d="M 50.78125 348.478125 
L 50.78125 22.318125 
" style="fill:none;stroke:#000000;stroke-linecap:square;stroke-linejoin:miter;stroke-width:0.8;"/>
   </g>
   <g id="patch_4">
    <path d="M 497.18125 348.478125 
L 497.18125 22.318125 
" style="fill:none;stroke:#000000;stroke-linecap:square;stroke-linejoin:miter;stroke-width:0.8;"/>
   </g>
   <g id="patch_5">
    <path d="M 50.78125 348.478125 
L 497.18125 348.478125 
" style="fill:none;stroke:#000000;stroke-linecap:square;stroke-linejoin:miter;stroke-width:0.8;"/>
   </g>
   <g id="patch_6">
    <path d="M 50.78125 22.318125 
L 497.18125 22.318125 
" style="fill:none;stroke:#000000;stroke-linecap:square;stroke-linejoin:miter;stroke-width:0.8;"/>
   </g>
   <g id="text_20">
    <!-- System Energy Dispatch -->
    <defs>
     <path d="M 44.28125 53.078125 
L 44.28125 44.578125 
Q 40.484375 46.53125 36.375 47.5 
Q 32.28125 48.484375 27.875 48.484375 
Q 21.1875 48.484375 17.84375 46.4375 
Q 14.5 44.390625 14.5 40.28125 
Q 14.5 37.15625 16.890625 35.375 
Q 19.28125 33.59375 26.515625 31.984375 
L 29.59375 31.296875 
Q 39.15625 29.25 43.1875 25.515625 
Q 47.21875 21.78125 47.21875 15.09375 
Q 47.21875 7.46875 41.1875 3.015625 
Q 35.15625 -1.421875 24.609375 -1.421875 
Q 20.21875 -1.421875 15.453125 -0.5625 
Q 10.6875 0.296875 5.421875 2 
L 5.421875 11.28125 
Q 10.40625 8.6875 15.234375 7.390625 
Q 20.0625 6.109375 24.8125 6.109375 
Q 31.15625 6.109375 34.5625 8.28125 
Q 37.984375 10.453125 37.984375 14.40625 
Q 37.984375 18.0625 35.515625 20.015625 
Q 33.0625 21.96875 24.703125 23.78125 
L 21.578125 24.515625 
Q 13.234375 26.265625 9.515625 29.90625 
Q 5.8125 33.546875 5.8125 39.890625 
Q 5.8125 47.609375 11.28125 51.796875 
Q 16.75 56 26.8125 56 
Q 31.78125 56 36.171875 55.265625 
Q 40.578125 54.546875 44.28125 53.078125 
z
" id="DejaVuSans-115"/>
     <path d="M 52 44.1875 
Q 55.375 50.25 60.0625 53.125 
Q 64.75 56 71.09375 56 
Q 79.640625 56 84.28125 50.015625 
Q 88.921875 44.046875 88.921875 33.015625 
L 88.921875 0 
L 79.890625 0 
L 79.890625 32.71875 
Q 79.890625 40.578125 77.09375 44.375 
Q 74.3125 48.1875 68.609375 48.1875 
Q 61.625 48.1875 57.5625 43.546875 
Q 53.515625 38.921875 53.515625 30.90625 
L 53.515625 0 
L 44.484375 0 
L 44.484375 32.71875 
Q 44.484375 40.625 41.703125 44.40625 
Q 38.921875 48.1875 33.109375 48.1875 
Q 26.21875 48.1875 22.15625 43.53125 
Q 18.109375 38.875 18.109375 30.90625 
L 18.109375 0 
L 9.078125 0 
L 9.078125 54.6875 
L 18.109375 54.6875 
L 18.109375 46.1875 
Q 21.1875 51.21875 25.484375 53.609375 
Q 29.78125 56 35.6875 56 
Q 41.65625 56 45.828125 52.96875 
Q 50 49.953125 52 44.1875 
z
" id="DejaVuSans-109"/>
     <path d="M 9.8125 72.90625 
L 55.90625 72.90625 
L 55.90625 64.59375 
L 19.671875 64.59375 
L 19.671875 43.015625 
L 54.390625 43.015625 
L 54.390625 34.71875 
L 19.671875 34.71875 
L 19.671875 8.296875 
L 56.78125 8.296875 
L 56.78125 0 
L 9.8125 0 
z
" id="DejaVuSans-69"/>
     <path d="M 9.421875 54.6875 
L 18.40625 54.6875 
L 18.40625 0 
L 9.421875 0 
z
M 9.421875 75.984375 
L 18.40625 75.984375 
L 18.40625 64.59375 
L 9.421875 64.59375 
z
" id="DejaVuSans-105"/>
     <path d="M 54.890625 33.015625 
L 54.890625 0 
L 45.90625 0 
L 45.90625 32.71875 
Q 45.90625 40.484375 42.875 44.328125 
Q 39.84375 48.1875 33.796875 48.1875 
Q 26.515625 48.1875 22.3125 43.546875 
Q 18.109375 38.921875 18.109375 30.90625 
L 18.109375 0 
L 9.078125 0 
L 9.078125 75.984375 
L 18.109375 75.984375 
L 18.109375 46.1875 
Q 21.34375 51.125 25.703125 53.5625 
Q 30.078125 56 35.796875 56 
Q 45.21875 56 50.046875 50.171875 
Q 54.890625 44.34375 54.890625 33.015625 
z
" id="DejaVuSans-104"/>
    </defs>
    <g transform="translate(200.433437 16.318125)scale(0.12 -0.12)">
     <use xlink:href="#DejaVuSans-83"/>
     <use x="63.476562" xlink:href="#DejaVuSans-121"/>
     <use x="122.65625" xlink:href="#DejaVuSans-115"/>
     <use x="174.755859" xlink:href="#DejaVuSans-116"/>
     <use x="213.964844" xlink:href="#DejaVuSans-101"/>
     <use x="275.488281" xlink:href="#DejaVuSans-109"/>
     <use x="372.900391" xlink:href="#DejaVuSans-32"/>
     <use x="404.6875" xlink:href="#DejaVuSans-69"/>
     <use x="467.871094" xlink:href="#DejaVuSans-110"/>
     <use x="531.25" xlink:href="#DejaVuSans-101"/>
     <use x="592.773438" xlink:href="#DejaVuSans-114"/>
     <use x="632.136719" xlink:href="#DejaVuSans-103"/>
     <use x="695.613281" xlink:href="#DejaVuSans-121"/>
     <use x="754.792969" xlink:href="#DejaVuSans-32"/>
     <use x="786.580078" xlink:href="#DejaVuSans-68"/>
     <use x="863.582031" xlink:href="#DejaVuSans-105"/>
     <use x="891.365234" xlink:href="#DejaVuSans-115"/>
     <use x="943.464844" xlink:href="#DejaVuSans-112"/>
     <use x="1006.941406" xlink:href="#DejaVuSans-97"/>
     <use x="1068.220703" xlink:href="#DejaVuSans-116"/>
     <use x="1107.429688" xlink:href="#DejaVuSans-99"/>
     <use x="1162.410156" xlink:href="#DejaVuSans-104"/>
    </g>
   </g>
   <g id="legend_1">
    <g id="patch_7">
     <path d="M 587.1675 147.743125 
L 691.06125 147.743125 
Q 693.06125 147.743125 693.06125 145.743125 
L 693.06125 29.318125 
Q 693.06125 27.318125 691.06125 27.318125 
L 587.1675 27.318125 
Q 585.1675 27.318125 585.1675 29.318125 
L 585.1675 145.743125 
Q 585.1675 147.743125 587.1675 147.743125 
z
" style="fill:#ffffff;opacity:0.8;stroke:#cccccc;stroke-linejoin:miter;"/>
    </g>
    <g id="line2d_27">
     <path d="M 589.1675 35.416562 
L 609.1675 35.416562 
" style="fill:none;stroke:#000000;stroke-linecap:square;stroke-opacity:0.5;stroke-width:1.5;"/>
    </g>
    <g id="line2d_28"/>
    <g id="text_21">
     <!-- Demand -->
     <defs>
      <path d="M 45.40625 46.390625 
L 45.40625 75.984375 
L 54.390625 75.984375 
L 54.390625 0 
L 45.40625 0 
L 45.40625 8.203125 
Q 42.578125 3.328125 38.25 0.953125 
Q 33.9375 -1.421875 27.875 -1.421875 
Q 17.96875 -1.421875 11.734375 6.484375 
Q 5.515625 14.40625 5.515625 27.296875 
Q 5.515625 40.1875 11.734375 48.09375 
Q 17.96875 56 27.875 56 
Q 33.9375 56 38.25 53.625 
Q 42.578125 51.265625 45.40625 46.390625 
z
M 14.796875 27.296875 
Q 14.796875 17.390625 18.875 11.75 
Q 22.953125 6.109375 30.078125 6.109375 
Q 37.203125 6.109375 41.296875 11.75 
Q 45.40625 17.390625 45.40625 27.296875 
Q 45.40625 37.203125 41.296875 42.84375 
Q 37.203125 48.484375 30.078125 48.484375 
Q 22.953125 48.484375 18.875 42.84375 
Q 14.796875 37.203125 14.796875 27.296875 
z
" id="DejaVuSans-100"/>
     </defs>
     <g transform="translate(617.1675 38.916562)scale(0.1 -0.1)">
      <use xlink:href="#DejaVuSans-68"/>
      <use x="77.001953" xlink:href="#DejaVuSans-101"/>
      <use x="138.525391" xlink:href="#DejaVuSans-109"/>
      <use x="235.9375" xlink:href="#DejaVuSans-97"/>
      <use x="297.216797" xlink:href="#DejaVuSans-110"/>
      <use x="360.595703" xlink:href="#DejaVuSans-100"/>
     </g>
    </g>
    <g id="patch_8">
     <path d="M 589.1675 53.594688 
L 609.1675 53.594688 
L 609.1675 46.594688 
L 589.1675 46.594688 
z
" style="fill:#ffb30f;opacity:0.6;"/>
    </g>
    <g id="text_22">
     <!-- Geothermal -->
     <g transform="translate(617.1675 53.594688)scale(0.1 -0.1)">
      <use xlink:href="#DejaVuSans-71"/>
      <use x="77.490234" xlink:href="#DejaVuSans-101"/>
      <use x="139.013672" xlink:href="#DejaVuSans-111"/>
      <use x="200.195312" xlink:href="#DejaVuSans-116"/>
      <use x="239.404297" xlink:href="#DejaVuSans-104"/>
      <use x="302.783203" xlink:href="#DejaVuSans-101"/>
      <use x="364.306641" xlink:href="#DejaVuSans-114"/>
      <use x="403.669922" xlink:href="#DejaVuSans-109"/>
      <use x="501.082031" xlink:href="#DejaVuSans-97"/>
      <use x="562.361328" xlink:href="#DejaVuSans-108"/>
     </g>
    </g>
    <g id="patch_9">
     <path d="M 589.1675 68.272812 
L 609.1675 68.272812 
L 609.1675 61.272812 
L 589.1675 61.272812 
z
" style="fill:#2980b9;opacity:0.6;"/>
    </g>
    <g id="text_23">
     <!-- Large Hydro -->
     <defs>
      <path d="M 9.8125 72.90625 
L 19.671875 72.90625 
L 19.671875 8.296875 
L 55.171875 8.296875 
L 55.171875 0 
L 9.8125 0 
z
" id="DejaVuSans-76"/>
      <path d="M 9.8125 72.90625 
L 19.671875 72.90625 
L 19.671875 43.015625 
L 55.515625 43.015625 
L 55.515625 72.90625 
L 65.375 72.90625 
L 65.375 0 
L 55.515625 0 
L 55.515625 34.71875 
L 19.671875 34.71875 
L 19.671875 0 
L 9.8125 0 
z
" id="DejaVuSans-72"/>
     </defs>
     <g transform="translate(617.1675 68.272812)scale(0.1 -0.1)">
      <use xlink:href="#DejaVuSans-76"/>
      <use x="55.712891" xlink:href="#DejaVuSans-97"/>
      <use x="116.992188" xlink:href="#DejaVuSans-114"/>
      <use x="156.355469" xlink:href="#DejaVuSans-103"/>
      <use x="219.832031" xlink:href="#DejaVuSans-101"/>
      <use x="281.355469" xlink:href="#DejaVuSans-32"/>
      <use x="313.142578" xlink:href="#DejaVuSans-72"/>
      <use x="388.337891" xlink:href="#DejaVuSans-121"/>
      <use x="447.517578" xlink:href="#DejaVuSans-100"/>
      <use x="510.994141" xlink:href="#DejaVuSans-114"/>
      <use x="549.857422" xlink:href="#DejaVuSans-111"/>
     </g>
    </g>
    <g id="patch_10">
     <path d="M 589.1675 82.950938 
L 609.1675 82.950938 
L 609.1675 75.950938 
L 589.1675 75.950938 
z
" style="fill:#3498db;opacity:0.6;"/>
    </g>
    <g id="text_24">
     <!-- Small Hydro -->
     <g transform="translate(617.1675 82.950938)scale(0.1 -0.1)">
      <use xlink:href="#DejaVuSans-83"/>
      <use x="63.476562" xlink:href="#DejaVuSans-109"/>
      <use x="160.888672" xlink:href="#DejaVuSans-97"/>
      <use x="222.167969" xlink:href="#DejaVuSans-108"/>
      <use x="249.951172" xlink:href="#DejaVuSans-108"/>
      <use x="277.734375" xlink:href="#DejaVuSans-32"/>
      <use x="309.521484" xlink:href="#DejaVuSans-72"/>
      <use x="384.716797" xlink:href="#DejaVuSans-121"/>
      <use x="443.896484" xlink:href="#DejaVuSans-100"/>
      <use x="507.373047" xlink:href="#DejaVuSans-114"/>
      <use x="546.236328" xlink:href="#DejaVuSans-111"/>
     </g>
    </g>
    <g id="patch_11">
     <path d="M 589.1675 97.629063 
L 609.1675 97.629063 
L 609.1675 90.629063 
L 589.1675 90.629063 
z
" style="fill:#28b463;opacity:0.6;"/>
    </g>
    <g id="text_25">
     <!-- Onshore Wind -->
     <g transform="translate(617.1675 97.629063)scale(0.1 -0.1)">
      <use xlink:href="#DejaVuSans-79"/>
      <use x="78.710938" xlink:href="#DejaVuSans-110"/>
      <use x="142.089844" xlink:href="#DejaVuSans-115"/>
      <use x="194.189453" xlink:href="#DejaVuSans-104"/>
      <use x="257.568359" xlink:href="#DejaVuSans-111"/>
      <use x="318.75" xlink:href="#DejaVuSans-114"/>
      <use x="357.613281" xlink:href="#DejaVuSans-101"/>
      <use x="419.136719" xlink:href="#DejaVuSans-32"/>
      <use x="450.923828" xlink:href="#DejaVuSans-87"/>
      <use x="547.550781" xlink:href="#DejaVuSans-105"/>
      <use x="575.333984" xlink:href="#DejaVuSans-110"/>
      <use x="638.712891" xlink:href="#DejaVuSans-100"/>
     </g>
    </g>
    <g id="patch_12">
     <path d="M 589.1675 112.307187 
L 609.1675 112.307187 
L 609.1675 105.307187 
L 589.1675 105.307187 
z
" style="fill:#494949;opacity:0.6;"/>
    </g>
    <g id="text_26">
     <!-- Heavy Fuel Oil -->
     <g transform="translate(617.1675 112.307187)scale(0.1 -0.1)">
      <use xlink:href="#DejaVuSans-72"/>
      <use x="75.195312" xlink:href="#DejaVuSans-101"/>
      <use x="136.71875" xlink:href="#DejaVuSans-97"/>
      <use x="197.998047" xlink:href="#DejaVuSans-118"/>
      <use x="257.177734" xlink:href="#DejaVuSans-121"/>
      <use x="316.357422" xlink:href="#DejaVuSans-32"/>
      <use x="348.144531" xlink:href="#DejaVuSans-70"/>
      <use x="400.164062" xlink:href="#DejaVuSans-117"/>
      <use x="463.542969" xlink:href="#DejaVuSans-101"/>
      <use x="525.066406" xlink:href="#DejaVuSans-108"/>
      <use x="552.849609" xlink:href="#DejaVuSans-32"/>
      <use x="584.636719" xlink:href="#DejaVuSans-79"/>
      <use x="663.347656" xlink:href="#DejaVuSans-105"/>
      <use x="691.130859" xlink:href="#DejaVuSans-108"/>
     </g>
    </g>
    <g id="patch_13">
     <path d="M 589.1675 126.985312 
L 609.1675 126.985312 
L 609.1675 119.985312 
L 589.1675 119.985312 
z
" style="fill:#7c7c7c;opacity:0.6;"/>
    </g>
    <g id="text_27">
     <!-- Gast Turbine  -->
     <defs>
      <path d="M -0.296875 72.90625 
L 61.375 72.90625 
L 61.375 64.59375 
L 35.5 64.59375 
L 35.5 0 
L 25.59375 0 
L 25.59375 64.59375 
L -0.296875 64.59375 
z
" id="DejaVuSans-84"/>
     </defs>
     <g transform="translate(617.1675 126.985312)scale(0.1 -0.1)">
      <use xlink:href="#DejaVuSans-71"/>
      <use x="77.490234" xlink:href="#DejaVuSans-97"/>
      <use x="138.769531" xlink:href="#DejaVuSans-115"/>
      <use x="190.869141" xlink:href="#DejaVuSans-116"/>
      <use x="230.078125" xlink:href="#DejaVuSans-32"/>
      <use x="261.865234" xlink:href="#DejaVuSans-84"/>
      <use x="307.824219" xlink:href="#DejaVuSans-117"/>
      <use x="371.203125" xlink:href="#DejaVuSans-114"/>
      <use x="412.316406" xlink:href="#DejaVuSans-98"/>
      <use x="475.792969" xlink:href="#DejaVuSans-105"/>
      <use x="503.576172" xlink:href="#DejaVuSans-110"/>
      <use x="566.955078" xlink:href="#DejaVuSans-101"/>
      <use x="628.478516" xlink:href="#DejaVuSans-32"/>
     </g>
    </g>
    <g id="patch_14">
     <path d="M 589.1675 141.663437 
L 609.1675 141.663437 
L 609.1675 134.663437 
L 589.1675 134.663437 
z
" style="fill:#ba4a00;opacity:0.6;"/>
    </g>
    <g id="text_28">
     <!-- Biomass -->
     <defs>
      <path d="M 19.671875 34.8125 
L 19.671875 8.109375 
L 35.5 8.109375 
Q 43.453125 8.109375 47.28125 11.40625 
Q 51.125 14.703125 51.125 21.484375 
Q 51.125 28.328125 47.28125 31.5625 
Q 43.453125 34.8125 35.5 34.8125 
z
M 19.671875 64.796875 
L 19.671875 42.828125 
L 34.28125 42.828125 
Q 41.5 42.828125 45.03125 45.53125 
Q 48.578125 48.25 48.578125 53.8125 
Q 48.578125 59.328125 45.03125 62.0625 
Q 41.5 64.796875 34.28125 64.796875 
z
M 9.8125 72.90625 
L 35.015625 72.90625 
Q 46.296875 72.90625 52.390625 68.21875 
Q 58.5 63.53125 58.5 54.890625 
Q 58.5 48.1875 55.375 44.234375 
Q 52.25 40.28125 46.1875 39.3125 
Q 53.46875 37.75 57.5 32.78125 
Q 61.53125 27.828125 61.53125 20.40625 
Q 61.53125 10.640625 54.890625 5.3125 
Q 48.25 0 35.984375 0 
L 9.8125 0 
z
" id="DejaVuSans-66"/>
     </defs>
     <g transform="translate(617.1675 141.663437)scale(0.1 -0.1)">
      <use xlink:href="#DejaVuSans-66"/>
      <use x="68.603516" xlink:href="#DejaVuSans-105"/>
      <use x="96.386719" xlink:href="#DejaVuSans-111"/>
      <use x="157.568359" xlink:href="#DejaVuSans-109"/>
      <use x="254.980469" xlink:href="#DejaVuSans-97"/>
      <use x="316.259766" xlink:href="#DejaVuSans-115"/>
      <use x="368.359375" xlink:href="#DejaVuSans-115"/>
     </g>
    </g>
   </g>
  </g>
 </g>
 <defs>
  <clipPath id="pc450952456">
   <rect height="326.16" width="446.4" x="50.78125" y="22.318125"/>
  </clipPath>
 </defs>
</svg>
