<?xml version="1.0" encoding="utf-8" standalone="no"?>
<!DOCTYPE svg PUBLIC "-//W3C//DTD SVG 1.1//EN"
  "http://www.w3.org/Graphics/SVG/1.1/DTD/svg11.dtd">
<!-- Created with matplotlib (https://matplotlib.org/) -->
<svg height="589.79625pt" version="1.1" viewBox="0 0 719.34875 589.79625" width="719.34875pt" xmlns="http://www.w3.org/2000/svg" xmlns:xlink="http://www.w3.org/1999/xlink">
 <defs>
  <style type="text/css">
*{stroke-linecap:butt;stroke-linejoin:round;}
  </style>
 </defs>
 <g id="figure_1">
  <g id="patch_1">
   <path d="M 0 589.79625 
L 719.34875 589.79625 
L 719.34875 0 
L 0 0 
z
" style="fill:#ffffff;"/>
  </g>
  <g id="axes_1">
   <g id="patch_2">
    <path d="M 69.86875 565.918125 
L 516.26875 565.918125 
L 516.26875 442.37267 
L 69.86875 442.37267 
z
" style="fill:#ffffff;"/>
   </g>
   <g id="PolyCollection_1">
    <path clip-path="url(#p05d71a7852)" d="M 69.86875 523.883237 
L 69.86875 565.918125 
L 78.621691 565.918125 
L 87.374632 565.918125 
L 96.127574 565.918125 
L 104.880515 565.918125 
L 113.633456 565.918125 
L 122.386397 565.918125 
L 131.139338 565.918125 
L 139.892279 565.918125 
L 148.645221 565.918125 
L 157.398162 565.918125 
L 166.151103 565.918125 
L 174.904044 565.918125 
L 183.656985 565.918125 
L 192.409926 565.918125 
L 201.162868 565.918125 
L 209.915809 565.918125 
L 218.66875 565.918125 
L 227.421691 565.918125 
L 236.174632 565.918125 
L 244.927574 565.918125 
L 253.680515 565.918125 
L 262.433456 565.918125 
L 271.186397 565.918125 
L 279.939338 565.918125 
L 288.692279 565.918125 
L 297.445221 565.918125 
L 306.198162 565.918125 
L 314.951103 565.918125 
L 323.704044 565.918125 
L 332.456985 565.918125 
L 341.209926 565.918125 
L 349.962868 565.918125 
L 358.715809 565.918125 
L 367.46875 565.918125 
L 376.221691 565.918125 
L 384.974632 565.918125 
L 393.727574 565.918125 
L 402.480515 565.918125 
L 411.233456 565.918125 
L 419.986397 565.918125 
L 428.739338 565.918125 
L 437.492279 565.918125 
L 446.245221 565.918125 
L 454.998162 565.918125 
L 463.751103 565.918125 
L 472.504044 565.918125 
L 481.256985 565.918125 
L 490.009926 565.918125 
L 498.762868 565.918125 
L 507.515809 565.918125 
L 516.26875 565.918125 
L 516.26875 510.06053 
L 516.26875 510.06053 
L 507.515809 472.567981 
L 498.762868 478.963809 
L 490.009926 470.489956 
L 481.256985 475.505016 
L 472.504044 471.245434 
L 463.751103 475.353356 
L 454.998162 464.8777 
L 446.245221 467.829126 
L 437.492279 479.245972 
L 428.739338 493.518252 
L 419.986397 453.604075 
L 411.233456 484.45072 
L 402.480515 465.018303 
L 393.727574 472.721124 
L 384.974632 475.423701 
L 376.221691 479.760369 
L 367.46875 484.430872 
L 358.715809 481.382105 
L 349.962868 481.627563 
L 341.209926 475.599508 
L 332.456985 485.399008 
L 323.704044 490.817533 
L 314.951103 488.661739 
L 306.198162 471.75971 
L 297.445221 496.625799 
L 288.692279 486.950069 
L 279.939338 478.192312 
L 271.186397 480.071354 
L 262.433456 482.285798 
L 253.680515 504.941205 
L 244.927574 475.739071 
L 236.174632 482.648361 
L 227.421691 486.224886 
L 218.66875 496.928605 
L 209.915809 483.959448 
L 201.162868 476.742104 
L 192.409926 492.930048 
L 183.656985 523.393672 
L 174.904044 479.265257 
L 166.151103 493.683521 
L 157.398162 487.733901 
L 148.645221 489.493592 
L 139.892279 487.278055 
L 131.139338 490.011071 
L 122.386397 468.975799 
L 113.633456 483.643781 
L 104.880515 487.724675 
L 96.127574 487.65381 
L 87.374632 489.901362 
L 78.621691 487.465664 
L 69.86875 523.883237 
z
" style="fill:#592400;fill-opacity:0.6;"/>
   </g>
   <g id="matplotlib.axis_1">
    <g id="xtick_1">
     <g id="line2d_1">
      <defs>
       <path d="M 0 0 
L 0 3.5 
" id="mc59393201e" style="stroke:#000000;stroke-width:0.8;"/>
      </defs>
      <g>
       <use style="stroke:#000000;stroke-width:0.8;" x="69.86875" xlink:href="#mc59393201e" y="565.918125"/>
      </g>
     </g>
     <g id="text_1">
      <!-- Jan -->
      <defs>
       <path d="M 9.8125 72.90625 
L 19.671875 72.90625 
L 19.671875 5.078125 
Q 19.671875 -8.109375 14.671875 -14.0625 
Q 9.671875 -20.015625 -1.421875 -20.015625 
L -5.171875 -20.015625 
L -5.171875 -11.71875 
L -2.09375 -11.71875 
Q 4.4375 -11.71875 7.125 -8.046875 
Q 9.8125 -4.390625 9.8125 5.078125 
z
" id="DejaVuSans-74"/>
       <path d="M 34.28125 27.484375 
Q 23.390625 27.484375 19.1875 25 
Q 14.984375 22.515625 14.984375 16.5 
Q 14.984375 11.71875 18.140625 8.90625 
Q 21.296875 6.109375 26.703125 6.109375 
Q 34.1875 6.109375 38.703125 11.40625 
Q 43.21875 16.703125 43.21875 25.484375 
L 43.21875 27.484375 
z
M 52.203125 31.203125 
L 52.203125 0 
L 43.21875 0 
L 43.21875 8.296875 
Q 40.140625 3.328125 35.546875 0.953125 
Q 30.953125 -1.421875 24.3125 -1.421875 
Q 15.921875 -1.421875 10.953125 3.296875 
Q 6 8.015625 6 15.921875 
Q 6 25.140625 12.171875 29.828125 
Q 18.359375 34.515625 30.609375 34.515625 
L 43.21875 34.515625 
L 43.21875 35.40625 
Q 43.21875 41.609375 39.140625 45 
Q 35.0625 48.390625 27.6875 48.390625 
Q 23 48.390625 18.546875 47.265625 
Q 14.109375 46.140625 10.015625 43.890625 
L 10.015625 52.203125 
Q 14.9375 54.109375 19.578125 55.046875 
Q 24.21875 56 28.609375 56 
Q 40.484375 56 46.34375 49.84375 
Q 52.203125 43.703125 52.203125 31.203125 
z
" id="DejaVuSans-97"/>
       <path d="M 54.890625 33.015625 
L 54.890625 0 
L 45.90625 0 
L 45.90625 32.71875 
Q 45.90625 40.484375 42.875 44.328125 
Q 39.84375 48.1875 33.796875 48.1875 
Q 26.515625 48.1875 22.3125 43.546875 
Q 18.109375 38.921875 18.109375 30.90625 
L 18.109375 0 
L 9.078125 0 
L 9.078125 54.6875 
L 18.109375 54.6875 
L 18.109375 46.1875 
Q 21.34375 51.125 25.703125 53.5625 
Q 30.078125 56 35.796875 56 
Q 45.21875 56 50.046875 50.171875 
Q 54.890625 44.34375 54.890625 33.015625 
z
" id="DejaVuSans-110"/>
      </defs>
      <g transform="translate(62.160938 580.516562)scale(0.1 -0.1)">
       <use xlink:href="#DejaVuSans-74"/>
       <use x="29.492188" xlink:href="#DejaVuSans-97"/>
       <use x="90.771484" xlink:href="#DejaVuSans-110"/>
      </g>
     </g>
    </g>
    <g id="xtick_2">
     <g id="line2d_2">
      <g>
       <use style="stroke:#000000;stroke-width:0.8;" x="113.633456" xlink:href="#mc59393201e" y="565.918125"/>
      </g>
     </g>
     <g id="text_2">
      <!-- Feb -->
      <defs>
       <path d="M 9.8125 72.90625 
L 51.703125 72.90625 
L 51.703125 64.59375 
L 19.671875 64.59375 
L 19.671875 43.109375 
L 48.578125 43.109375 
L 48.578125 34.8125 
L 19.671875 34.8125 
L 19.671875 0 
L 9.8125 0 
z
" id="DejaVuSans-70"/>
       <path d="M 56.203125 29.59375 
L 56.203125 25.203125 
L 14.890625 25.203125 
Q 15.484375 15.921875 20.484375 11.0625 
Q 25.484375 6.203125 34.421875 6.203125 
Q 39.59375 6.203125 44.453125 7.46875 
Q 49.3125 8.734375 54.109375 11.28125 
L 54.109375 2.78125 
Q 49.265625 0.734375 44.1875 -0.34375 
Q 39.109375 -1.421875 33.890625 -1.421875 
Q 20.796875 -1.421875 13.15625 6.1875 
Q 5.515625 13.8125 5.515625 26.8125 
Q 5.515625 40.234375 12.765625 48.109375 
Q 20.015625 56 32.328125 56 
Q 43.359375 56 49.78125 48.890625 
Q 56.203125 41.796875 56.203125 29.59375 
z
M 47.21875 32.234375 
Q 47.125 39.59375 43.09375 43.984375 
Q 39.0625 48.390625 32.421875 48.390625 
Q 24.90625 48.390625 20.390625 44.140625 
Q 15.875 39.890625 15.1875 32.171875 
z
" id="DejaVuSans-101"/>
       <path d="M 48.6875 27.296875 
Q 48.6875 37.203125 44.609375 42.84375 
Q 40.53125 48.484375 33.40625 48.484375 
Q 26.265625 48.484375 22.1875 42.84375 
Q 18.109375 37.203125 18.109375 27.296875 
Q 18.109375 17.390625 22.1875 11.75 
Q 26.265625 6.109375 33.40625 6.109375 
Q 40.53125 6.109375 44.609375 11.75 
Q 48.6875 17.390625 48.6875 27.296875 
z
M 18.109375 46.390625 
Q 20.953125 51.265625 25.265625 53.625 
Q 29.59375 56 35.59375 56 
Q 45.5625 56 51.78125 48.09375 
Q 58.015625 40.1875 58.015625 27.296875 
Q 58.015625 14.40625 51.78125 6.484375 
Q 45.5625 -1.421875 35.59375 -1.421875 
Q 29.59375 -1.421875 25.265625 0.953125 
Q 20.953125 3.328125 18.109375 8.203125 
L 18.109375 0 
L 9.078125 0 
L 9.078125 75.984375 
L 18.109375 75.984375 
z
" id="DejaVuSans-98"/>
      </defs>
      <g transform="translate(104.781893 580.516562)scale(0.1 -0.1)">
       <use xlink:href="#DejaVuSans-70"/>
       <use x="52.019531" xlink:href="#DejaVuSans-101"/>
       <use x="113.542969" xlink:href="#DejaVuSans-98"/>
      </g>
     </g>
    </g>
    <g id="xtick_3">
     <g id="line2d_3">
      <g>
       <use style="stroke:#000000;stroke-width:0.8;" x="148.645221" xlink:href="#mc59393201e" y="565.918125"/>
      </g>
     </g>
     <g id="text_3">
      <!-- Mar -->
      <defs>
       <path d="M 9.8125 72.90625 
L 24.515625 72.90625 
L 43.109375 23.296875 
L 61.8125 72.90625 
L 76.515625 72.90625 
L 76.515625 0 
L 66.890625 0 
L 66.890625 64.015625 
L 48.09375 14.015625 
L 38.1875 14.015625 
L 19.390625 64.015625 
L 19.390625 0 
L 9.8125 0 
z
" id="DejaVuSans-77"/>
       <path d="M 41.109375 46.296875 
Q 39.59375 47.171875 37.8125 47.578125 
Q 36.03125 48 33.890625 48 
Q 26.265625 48 22.1875 43.046875 
Q 18.109375 38.09375 18.109375 28.8125 
L 18.109375 0 
L 9.078125 0 
L 9.078125 54.6875 
L 18.109375 54.6875 
L 18.109375 46.1875 
Q 20.953125 51.171875 25.484375 53.578125 
Q 30.03125 56 36.53125 56 
Q 37.453125 56 38.578125 55.875 
Q 39.703125 55.765625 41.0625 55.515625 
z
" id="DejaVuSans-114"/>
      </defs>
      <g transform="translate(139.211627 580.516562)scale(0.1 -0.1)">
       <use xlink:href="#DejaVuSans-77"/>
       <use x="86.279297" xlink:href="#DejaVuSans-97"/>
       <use x="147.558594" xlink:href="#DejaVuSans-114"/>
      </g>
     </g>
    </g>
    <g id="xtick_4">
     <g id="line2d_4">
      <g>
       <use style="stroke:#000000;stroke-width:0.8;" x="183.656985" xlink:href="#mc59393201e" y="565.918125"/>
      </g>
     </g>
     <g id="text_4">
      <!-- Apr -->
      <defs>
       <path d="M 34.1875 63.1875 
L 20.796875 26.90625 
L 47.609375 26.90625 
z
M 28.609375 72.90625 
L 39.796875 72.90625 
L 67.578125 0 
L 57.328125 0 
L 50.6875 18.703125 
L 17.828125 18.703125 
L 11.1875 0 
L 0.78125 0 
z
" id="DejaVuSans-65"/>
       <path d="M 18.109375 8.203125 
L 18.109375 -20.796875 
L 9.078125 -20.796875 
L 9.078125 54.6875 
L 18.109375 54.6875 
L 18.109375 46.390625 
Q 20.953125 51.265625 25.265625 53.625 
Q 29.59375 56 35.59375 56 
Q 45.5625 56 51.78125 48.09375 
Q 58.015625 40.1875 58.015625 27.296875 
Q 58.015625 14.40625 51.78125 6.484375 
Q 45.5625 -1.421875 35.59375 -1.421875 
Q 29.59375 -1.421875 25.265625 0.953125 
Q 20.953125 3.328125 18.109375 8.203125 
z
M 48.6875 27.296875 
Q 48.6875 37.203125 44.609375 42.84375 
Q 40.53125 48.484375 33.40625 48.484375 
Q 26.265625 48.484375 22.1875 42.84375 
Q 18.109375 37.203125 18.109375 27.296875 
Q 18.109375 17.390625 22.1875 11.75 
Q 26.265625 6.109375 33.40625 6.109375 
Q 40.53125 6.109375 44.609375 11.75 
Q 48.6875 17.390625 48.6875 27.296875 
z
" id="DejaVuSans-112"/>
      </defs>
      <g transform="translate(175.006985 580.516562)scale(0.1 -0.1)">
       <use xlink:href="#DejaVuSans-65"/>
       <use x="68.408203" xlink:href="#DejaVuSans-112"/>
       <use x="131.884766" xlink:href="#DejaVuSans-114"/>
      </g>
     </g>
    </g>
    <g id="xtick_5">
     <g id="line2d_5">
      <g>
       <use style="stroke:#000000;stroke-width:0.8;" x="218.66875" xlink:href="#mc59393201e" y="565.918125"/>
      </g>
     </g>
     <g id="text_5">
      <!-- May -->
      <defs>
       <path d="M 32.171875 -5.078125 
Q 28.375 -14.84375 24.75 -17.8125 
Q 21.140625 -20.796875 15.09375 -20.796875 
L 7.90625 -20.796875 
L 7.90625 -13.28125 
L 13.1875 -13.28125 
Q 16.890625 -13.28125 18.9375 -11.515625 
Q 21 -9.765625 23.484375 -3.21875 
L 25.09375 0.875 
L 2.984375 54.6875 
L 12.5 54.6875 
L 29.59375 11.921875 
L 46.6875 54.6875 
L 56.203125 54.6875 
z
" id="DejaVuSans-121"/>
      </defs>
      <g transform="translate(208.33125 580.516562)scale(0.1 -0.1)">
       <use xlink:href="#DejaVuSans-77"/>
       <use x="86.279297" xlink:href="#DejaVuSans-97"/>
       <use x="147.558594" xlink:href="#DejaVuSans-121"/>
      </g>
     </g>
    </g>
    <g id="xtick_6">
     <g id="line2d_6">
      <g>
       <use style="stroke:#000000;stroke-width:0.8;" x="262.433456" xlink:href="#mc59393201e" y="565.918125"/>
      </g>
     </g>
     <g id="text_6">
      <!-- Jun -->
      <defs>
       <path d="M 8.5 21.578125 
L 8.5 54.6875 
L 17.484375 54.6875 
L 17.484375 21.921875 
Q 17.484375 14.15625 20.5 10.265625 
Q 23.53125 6.390625 29.59375 6.390625 
Q 36.859375 6.390625 41.078125 11.03125 
Q 45.3125 15.671875 45.3125 23.6875 
L 45.3125 54.6875 
L 54.296875 54.6875 
L 54.296875 0 
L 45.3125 0 
L 45.3125 8.40625 
Q 42.046875 3.421875 37.71875 1 
Q 33.40625 -1.421875 27.6875 -1.421875 
Q 18.265625 -1.421875 13.375 4.4375 
Q 8.5 10.296875 8.5 21.578125 
z
M 31.109375 56 
z
" id="DejaVuSans-117"/>
      </defs>
      <g transform="translate(254.620956 580.516562)scale(0.1 -0.1)">
       <use xlink:href="#DejaVuSans-74"/>
       <use x="29.492188" xlink:href="#DejaVuSans-117"/>
       <use x="92.871094" xlink:href="#DejaVuSans-110"/>
      </g>
     </g>
    </g>
    <g id="xtick_7">
     <g id="line2d_7">
      <g>
       <use style="stroke:#000000;stroke-width:0.8;" x="297.445221" xlink:href="#mc59393201e" y="565.918125"/>
      </g>
     </g>
     <g id="text_7">
      <!-- Jul -->
      <defs>
       <path d="M 9.421875 75.984375 
L 18.40625 75.984375 
L 18.40625 0 
L 9.421875 0 
z
" id="DejaVuSans-108"/>
      </defs>
      <g transform="translate(291.412408 580.516562)scale(0.1 -0.1)">
       <use xlink:href="#DejaVuSans-74"/>
       <use x="29.492188" xlink:href="#DejaVuSans-117"/>
       <use x="92.871094" xlink:href="#DejaVuSans-108"/>
      </g>
     </g>
    </g>
    <g id="xtick_8">
     <g id="line2d_8">
      <g>
       <use style="stroke:#000000;stroke-width:0.8;" x="332.456985" xlink:href="#mc59393201e" y="565.918125"/>
      </g>
     </g>
     <g id="text_8">
      <!-- Aug -->
      <defs>
       <path d="M 45.40625 27.984375 
Q 45.40625 37.75 41.375 43.109375 
Q 37.359375 48.484375 30.078125 48.484375 
Q 22.859375 48.484375 18.828125 43.109375 
Q 14.796875 37.75 14.796875 27.984375 
Q 14.796875 18.265625 18.828125 12.890625 
Q 22.859375 7.515625 30.078125 7.515625 
Q 37.359375 7.515625 41.375 12.890625 
Q 45.40625 18.265625 45.40625 27.984375 
z
M 54.390625 6.78125 
Q 54.390625 -7.171875 48.1875 -13.984375 
Q 42 -20.796875 29.203125 -20.796875 
Q 24.46875 -20.796875 20.265625 -20.09375 
Q 16.0625 -19.390625 12.109375 -17.921875 
L 12.109375 -9.1875 
Q 16.0625 -11.328125 19.921875 -12.34375 
Q 23.78125 -13.375 27.78125 -13.375 
Q 36.625 -13.375 41.015625 -8.765625 
Q 45.40625 -4.15625 45.40625 5.171875 
L 45.40625 9.625 
Q 42.625 4.78125 38.28125 2.390625 
Q 33.9375 0 27.875 0 
Q 17.828125 0 11.671875 7.65625 
Q 5.515625 15.328125 5.515625 27.984375 
Q 5.515625 40.671875 11.671875 48.328125 
Q 17.828125 56 27.875 56 
Q 33.9375 56 38.28125 53.609375 
Q 42.625 51.21875 45.40625 46.390625 
L 45.40625 54.6875 
L 54.390625 54.6875 
z
" id="DejaVuSans-103"/>
      </defs>
      <g transform="translate(322.693704 580.516562)scale(0.1 -0.1)">
       <use xlink:href="#DejaVuSans-65"/>
       <use x="68.408203" xlink:href="#DejaVuSans-117"/>
       <use x="131.787109" xlink:href="#DejaVuSans-103"/>
      </g>
     </g>
    </g>
    <g id="xtick_9">
     <g id="line2d_9">
      <g>
       <use style="stroke:#000000;stroke-width:0.8;" x="376.221691" xlink:href="#mc59393201e" y="565.918125"/>
      </g>
     </g>
     <g id="text_9">
      <!-- Sept -->
      <defs>
       <path d="M 53.515625 70.515625 
L 53.515625 60.890625 
Q 47.90625 63.578125 42.921875 64.890625 
Q 37.9375 66.21875 33.296875 66.21875 
Q 25.25 66.21875 20.875 63.09375 
Q 16.5 59.96875 16.5 54.203125 
Q 16.5 49.359375 19.40625 46.890625 
Q 22.3125 44.4375 30.421875 42.921875 
L 36.375 41.703125 
Q 47.40625 39.59375 52.65625 34.296875 
Q 57.90625 29 57.90625 20.125 
Q 57.90625 9.515625 50.796875 4.046875 
Q 43.703125 -1.421875 29.984375 -1.421875 
Q 24.8125 -1.421875 18.96875 -0.25 
Q 13.140625 0.921875 6.890625 3.21875 
L 6.890625 13.375 
Q 12.890625 10.015625 18.65625 8.296875 
Q 24.421875 6.59375 29.984375 6.59375 
Q 38.421875 6.59375 43.015625 9.90625 
Q 47.609375 13.234375 47.609375 19.390625 
Q 47.609375 24.75 44.3125 27.78125 
Q 41.015625 30.8125 33.5 32.328125 
L 27.484375 33.5 
Q 16.453125 35.6875 11.515625 40.375 
Q 6.59375 45.0625 6.59375 53.421875 
Q 6.59375 63.09375 13.40625 68.65625 
Q 20.21875 74.21875 32.171875 74.21875 
Q 37.3125 74.21875 42.625 73.28125 
Q 47.953125 72.359375 53.515625 70.515625 
z
" id="DejaVuSans-83"/>
       <path d="M 18.3125 70.21875 
L 18.3125 54.6875 
L 36.8125 54.6875 
L 36.8125 47.703125 
L 18.3125 47.703125 
L 18.3125 18.015625 
Q 18.3125 11.328125 20.140625 9.421875 
Q 21.96875 7.515625 27.59375 7.515625 
L 36.8125 7.515625 
L 36.8125 0 
L 27.59375 0 
Q 17.1875 0 13.234375 3.875 
Q 9.28125 7.765625 9.28125 18.015625 
L 9.28125 47.703125 
L 2.6875 47.703125 
L 2.6875 54.6875 
L 9.28125 54.6875 
L 9.28125 70.21875 
z
" id="DejaVuSans-116"/>
      </defs>
      <g transform="translate(364.836535 580.516562)scale(0.1 -0.1)">
       <use xlink:href="#DejaVuSans-83"/>
       <use x="63.476562" xlink:href="#DejaVuSans-101"/>
       <use x="125" xlink:href="#DejaVuSans-112"/>
       <use x="188.476562" xlink:href="#DejaVuSans-116"/>
      </g>
     </g>
    </g>
    <g id="xtick_10">
     <g id="line2d_10">
      <g>
       <use style="stroke:#000000;stroke-width:0.8;" x="411.233456" xlink:href="#mc59393201e" y="565.918125"/>
      </g>
     </g>
     <g id="text_10">
      <!-- Oct -->
      <defs>
       <path d="M 39.40625 66.21875 
Q 28.65625 66.21875 22.328125 58.203125 
Q 16.015625 50.203125 16.015625 36.375 
Q 16.015625 22.609375 22.328125 14.59375 
Q 28.65625 6.59375 39.40625 6.59375 
Q 50.140625 6.59375 56.421875 14.59375 
Q 62.703125 22.609375 62.703125 36.375 
Q 62.703125 50.203125 56.421875 58.203125 
Q 50.140625 66.21875 39.40625 66.21875 
z
M 39.40625 74.21875 
Q 54.734375 74.21875 63.90625 63.9375 
Q 73.09375 53.65625 73.09375 36.375 
Q 73.09375 19.140625 63.90625 8.859375 
Q 54.734375 -1.421875 39.40625 -1.421875 
Q 24.03125 -1.421875 14.8125 8.828125 
Q 5.609375 19.09375 5.609375 36.375 
Q 5.609375 53.65625 14.8125 63.9375 
Q 24.03125 74.21875 39.40625 74.21875 
z
" id="DejaVuSans-79"/>
       <path d="M 48.78125 52.59375 
L 48.78125 44.1875 
Q 44.96875 46.296875 41.140625 47.34375 
Q 37.3125 48.390625 33.40625 48.390625 
Q 24.65625 48.390625 19.8125 42.84375 
Q 14.984375 37.3125 14.984375 27.296875 
Q 14.984375 17.28125 19.8125 11.734375 
Q 24.65625 6.203125 33.40625 6.203125 
Q 37.3125 6.203125 41.140625 7.25 
Q 44.96875 8.296875 48.78125 10.40625 
L 48.78125 2.09375 
Q 45.015625 0.34375 40.984375 -0.53125 
Q 36.96875 -1.421875 32.421875 -1.421875 
Q 20.0625 -1.421875 12.78125 6.34375 
Q 5.515625 14.109375 5.515625 27.296875 
Q 5.515625 40.671875 12.859375 48.328125 
Q 20.21875 56 33.015625 56 
Q 37.15625 56 41.109375 55.140625 
Q 45.0625 54.296875 48.78125 52.59375 
z
" id="DejaVuSans-99"/>
      </defs>
      <g transform="translate(402.588143 580.516562)scale(0.1 -0.1)">
       <use xlink:href="#DejaVuSans-79"/>
       <use x="78.710938" xlink:href="#DejaVuSans-99"/>
       <use x="133.691406" xlink:href="#DejaVuSans-116"/>
      </g>
     </g>
    </g>
    <g id="xtick_11">
     <g id="line2d_11">
      <g>
       <use style="stroke:#000000;stroke-width:0.8;" x="446.245221" xlink:href="#mc59393201e" y="565.918125"/>
      </g>
     </g>
     <g id="text_11">
      <!-- Nov -->
      <defs>
       <path d="M 9.8125 72.90625 
L 23.09375 72.90625 
L 55.421875 11.921875 
L 55.421875 72.90625 
L 64.984375 72.90625 
L 64.984375 0 
L 51.703125 0 
L 19.390625 60.984375 
L 19.390625 0 
L 9.8125 0 
z
" id="DejaVuSans-78"/>
       <path d="M 30.609375 48.390625 
Q 23.390625 48.390625 19.1875 42.75 
Q 14.984375 37.109375 14.984375 27.296875 
Q 14.984375 17.484375 19.15625 11.84375 
Q 23.34375 6.203125 30.609375 6.203125 
Q 37.796875 6.203125 41.984375 11.859375 
Q 46.1875 17.53125 46.1875 27.296875 
Q 46.1875 37.015625 41.984375 42.703125 
Q 37.796875 48.390625 30.609375 48.390625 
z
M 30.609375 56 
Q 42.328125 56 49.015625 48.375 
Q 55.71875 40.765625 55.71875 27.296875 
Q 55.71875 13.875 49.015625 6.21875 
Q 42.328125 -1.421875 30.609375 -1.421875 
Q 18.84375 -1.421875 12.171875 6.21875 
Q 5.515625 13.875 5.515625 27.296875 
Q 5.515625 40.765625 12.171875 48.375 
Q 18.84375 56 30.609375 56 
z
" id="DejaVuSans-111"/>
       <path d="M 2.984375 54.6875 
L 12.5 54.6875 
L 29.59375 8.796875 
L 46.6875 54.6875 
L 56.203125 54.6875 
L 35.6875 0 
L 23.484375 0 
z
" id="DejaVuSans-118"/>
      </defs>
      <g transform="translate(436.485846 580.516562)scale(0.1 -0.1)">
       <use xlink:href="#DejaVuSans-78"/>
       <use x="74.804688" xlink:href="#DejaVuSans-111"/>
       <use x="135.986328" xlink:href="#DejaVuSans-118"/>
      </g>
     </g>
    </g>
    <g id="xtick_12">
     <g id="line2d_12">
      <g>
       <use style="stroke:#000000;stroke-width:0.8;" x="481.256985" xlink:href="#mc59393201e" y="565.918125"/>
      </g>
     </g>
     <g id="text_12">
      <!-- Dec -->
      <defs>
       <path d="M 19.671875 64.796875 
L 19.671875 8.109375 
L 31.59375 8.109375 
Q 46.6875 8.109375 53.6875 14.9375 
Q 60.6875 21.78125 60.6875 36.53125 
Q 60.6875 51.171875 53.6875 57.984375 
Q 46.6875 64.796875 31.59375 64.796875 
z
M 9.8125 72.90625 
L 30.078125 72.90625 
Q 51.265625 72.90625 61.171875 64.09375 
Q 71.09375 55.28125 71.09375 36.53125 
Q 71.09375 17.671875 61.125 8.828125 
Q 51.171875 0 30.078125 0 
L 9.8125 0 
z
" id="DejaVuSans-68"/>
      </defs>
      <g transform="translate(471.581204 580.516562)scale(0.1 -0.1)">
       <use xlink:href="#DejaVuSans-68"/>
       <use x="77.001953" xlink:href="#DejaVuSans-101"/>
       <use x="138.525391" xlink:href="#DejaVuSans-99"/>
      </g>
     </g>
    </g>
   </g>
   <g id="matplotlib.axis_2">
    <g id="ytick_1">
     <g id="line2d_13">
      <defs>
       <path d="M 0 0 
L -3.5 0 
" id="m9c89ea416b" style="stroke:#000000;stroke-width:0.8;"/>
      </defs>
      <g>
       <use style="stroke:#000000;stroke-width:0.8;" x="69.86875" xlink:href="#m9c89ea416b" y="565.918125"/>
      </g>
     </g>
     <g id="text_13">
      <!-- 0.0000 -->
      <defs>
       <path d="M 31.78125 66.40625 
Q 24.171875 66.40625 20.328125 58.90625 
Q 16.5 51.421875 16.5 36.375 
Q 16.5 21.390625 20.328125 13.890625 
Q 24.171875 6.390625 31.78125 6.390625 
Q 39.453125 6.390625 43.28125 13.890625 
Q 47.125 21.390625 47.125 36.375 
Q 47.125 51.421875 43.28125 58.90625 
Q 39.453125 66.40625 31.78125 66.40625 
z
M 31.78125 74.21875 
Q 44.046875 74.21875 50.515625 64.515625 
Q 56.984375 54.828125 56.984375 36.375 
Q 56.984375 17.96875 50.515625 8.265625 
Q 44.046875 -1.421875 31.78125 -1.421875 
Q 19.53125 -1.421875 13.0625 8.265625 
Q 6.59375 17.96875 6.59375 36.375 
Q 6.59375 54.828125 13.0625 64.515625 
Q 19.53125 74.21875 31.78125 74.21875 
z
" id="DejaVuSans-48"/>
       <path d="M 10.6875 12.40625 
L 21 12.40625 
L 21 0 
L 10.6875 0 
z
" id="DejaVuSans-46"/>
      </defs>
      <g transform="translate(27.878125 569.717344)scale(0.1 -0.1)">
       <use xlink:href="#DejaVuSans-48"/>
       <use x="63.623047" xlink:href="#DejaVuSans-46"/>
       <use x="95.410156" xlink:href="#DejaVuSans-48"/>
       <use x="159.033203" xlink:href="#DejaVuSans-48"/>
       <use x="222.65625" xlink:href="#DejaVuSans-48"/>
       <use x="286.279297" xlink:href="#DejaVuSans-48"/>
      </g>
     </g>
    </g>
    <g id="ytick_2">
     <g id="line2d_14">
      <g>
       <use style="stroke:#000000;stroke-width:0.8;" x="69.86875" xlink:href="#m9c89ea416b" y="543.242197"/>
      </g>
     </g>
     <g id="text_14">
      <!-- 0.0025 -->
      <defs>
       <path d="M 19.1875 8.296875 
L 53.609375 8.296875 
L 53.609375 0 
L 7.328125 0 
L 7.328125 8.296875 
Q 12.9375 14.109375 22.625 23.890625 
Q 32.328125 33.6875 34.8125 36.53125 
Q 39.546875 41.84375 41.421875 45.53125 
Q 43.3125 49.21875 43.3125 52.78125 
Q 43.3125 58.59375 39.234375 62.25 
Q 35.15625 65.921875 28.609375 65.921875 
Q 23.96875 65.921875 18.8125 64.3125 
Q 13.671875 62.703125 7.8125 59.421875 
L 7.8125 69.390625 
Q 13.765625 71.78125 18.9375 73 
Q 24.125 74.21875 28.421875 74.21875 
Q 39.75 74.21875 46.484375 68.546875 
Q 53.21875 62.890625 53.21875 53.421875 
Q 53.21875 48.921875 51.53125 44.890625 
Q 49.859375 40.875 45.40625 35.40625 
Q 44.1875 33.984375 37.640625 27.21875 
Q 31.109375 20.453125 19.1875 8.296875 
z
" id="DejaVuSans-50"/>
       <path d="M 10.796875 72.90625 
L 49.515625 72.90625 
L 49.515625 64.59375 
L 19.828125 64.59375 
L 19.828125 46.734375 
Q 21.96875 47.46875 24.109375 47.828125 
Q 26.265625 48.1875 28.421875 48.1875 
Q 40.625 48.1875 47.75 41.5 
Q 54.890625 34.8125 54.890625 23.390625 
Q 54.890625 11.625 47.5625 5.09375 
Q 40.234375 -1.421875 26.90625 -1.421875 
Q 22.3125 -1.421875 17.546875 -0.640625 
Q 12.796875 0.140625 7.71875 1.703125 
L 7.71875 11.625 
Q 12.109375 9.234375 16.796875 8.0625 
Q 21.484375 6.890625 26.703125 6.890625 
Q 35.15625 6.890625 40.078125 11.328125 
Q 45.015625 15.765625 45.015625 23.390625 
Q 45.015625 31 40.078125 35.4375 
Q 35.15625 39.890625 26.703125 39.890625 
Q 22.75 39.890625 18.8125 39.015625 
Q 14.890625 38.140625 10.796875 36.28125 
z
" id="DejaVuSans-53"/>
      </defs>
      <g transform="translate(27.878125 547.041416)scale(0.1 -0.1)">
       <use xlink:href="#DejaVuSans-48"/>
       <use x="63.623047" xlink:href="#DejaVuSans-46"/>
       <use x="95.410156" xlink:href="#DejaVuSans-48"/>
       <use x="159.033203" xlink:href="#DejaVuSans-48"/>
       <use x="222.65625" xlink:href="#DejaVuSans-50"/>
       <use x="286.279297" xlink:href="#DejaVuSans-53"/>
      </g>
     </g>
    </g>
    <g id="ytick_3">
     <g id="line2d_15">
      <g>
       <use style="stroke:#000000;stroke-width:0.8;" x="69.86875" xlink:href="#m9c89ea416b" y="520.56627"/>
      </g>
     </g>
     <g id="text_15">
      <!-- 0.0050 -->
      <g transform="translate(27.878125 524.365488)scale(0.1 -0.1)">
       <use xlink:href="#DejaVuSans-48"/>
       <use x="63.623047" xlink:href="#DejaVuSans-46"/>
       <use x="95.410156" xlink:href="#DejaVuSans-48"/>
       <use x="159.033203" xlink:href="#DejaVuSans-48"/>
       <use x="222.65625" xlink:href="#DejaVuSans-53"/>
       <use x="286.279297" xlink:href="#DejaVuSans-48"/>
      </g>
     </g>
    </g>
    <g id="ytick_4">
     <g id="line2d_16">
      <g>
       <use style="stroke:#000000;stroke-width:0.8;" x="69.86875" xlink:href="#m9c89ea416b" y="497.890342"/>
      </g>
     </g>
     <g id="text_16">
      <!-- 0.0075 -->
      <defs>
       <path d="M 8.203125 72.90625 
L 55.078125 72.90625 
L 55.078125 68.703125 
L 28.609375 0 
L 18.3125 0 
L 43.21875 64.59375 
L 8.203125 64.59375 
z
" id="DejaVuSans-55"/>
      </defs>
      <g transform="translate(27.878125 501.689561)scale(0.1 -0.1)">
       <use xlink:href="#DejaVuSans-48"/>
       <use x="63.623047" xlink:href="#DejaVuSans-46"/>
       <use x="95.410156" xlink:href="#DejaVuSans-48"/>
       <use x="159.033203" xlink:href="#DejaVuSans-48"/>
       <use x="222.65625" xlink:href="#DejaVuSans-55"/>
       <use x="286.279297" xlink:href="#DejaVuSans-53"/>
      </g>
     </g>
    </g>
    <g id="ytick_5">
     <g id="line2d_17">
      <g>
       <use style="stroke:#000000;stroke-width:0.8;" x="69.86875" xlink:href="#m9c89ea416b" y="475.214414"/>
      </g>
     </g>
     <g id="text_17">
      <!-- 0.0100 -->
      <defs>
       <path d="M 12.40625 8.296875 
L 28.515625 8.296875 
L 28.515625 63.921875 
L 10.984375 60.40625 
L 10.984375 69.390625 
L 28.421875 72.90625 
L 38.28125 72.90625 
L 38.28125 8.296875 
L 54.390625 8.296875 
L 54.390625 0 
L 12.40625 0 
z
" id="DejaVuSans-49"/>
      </defs>
      <g transform="translate(27.878125 479.013633)scale(0.1 -0.1)">
       <use xlink:href="#DejaVuSans-48"/>
       <use x="63.623047" xlink:href="#DejaVuSans-46"/>
       <use x="95.410156" xlink:href="#DejaVuSans-48"/>
       <use x="159.033203" xlink:href="#DejaVuSans-49"/>
       <use x="222.65625" xlink:href="#DejaVuSans-48"/>
       <use x="286.279297" xlink:href="#DejaVuSans-48"/>
      </g>
     </g>
    </g>
    <g id="ytick_6">
     <g id="line2d_18">
      <g>
       <use style="stroke:#000000;stroke-width:0.8;" x="69.86875" xlink:href="#m9c89ea416b" y="452.538487"/>
      </g>
     </g>
     <g id="text_18">
      <!-- 0.0125 -->
      <g transform="translate(27.878125 456.337706)scale(0.1 -0.1)">
       <use xlink:href="#DejaVuSans-48"/>
       <use x="63.623047" xlink:href="#DejaVuSans-46"/>
       <use x="95.410156" xlink:href="#DejaVuSans-48"/>
       <use x="159.033203" xlink:href="#DejaVuSans-49"/>
       <use x="222.65625" xlink:href="#DejaVuSans-50"/>
       <use x="286.279297" xlink:href="#DejaVuSans-53"/>
      </g>
     </g>
    </g>
    <g id="text_19">
     <!-- Power (GW) -->
     <defs>
      <path d="M 19.671875 64.796875 
L 19.671875 37.40625 
L 32.078125 37.40625 
Q 38.96875 37.40625 42.71875 40.96875 
Q 46.484375 44.53125 46.484375 51.125 
Q 46.484375 57.671875 42.71875 61.234375 
Q 38.96875 64.796875 32.078125 64.796875 
z
M 9.8125 72.90625 
L 32.078125 72.90625 
Q 44.34375 72.90625 50.609375 67.359375 
Q 56.890625 61.8125 56.890625 51.125 
Q 56.890625 40.328125 50.609375 34.8125 
Q 44.34375 29.296875 32.078125 29.296875 
L 19.671875 29.296875 
L 19.671875 0 
L 9.8125 0 
z
" id="DejaVuSans-80"/>
      <path d="M 4.203125 54.6875 
L 13.1875 54.6875 
L 24.421875 12.015625 
L 35.59375 54.6875 
L 46.1875 54.6875 
L 57.421875 12.015625 
L 68.609375 54.6875 
L 77.59375 54.6875 
L 63.28125 0 
L 52.6875 0 
L 40.921875 44.828125 
L 29.109375 0 
L 18.5 0 
z
" id="DejaVuSans-119"/>
      <path id="DejaVuSans-32"/>
      <path d="M 31 75.875 
Q 24.46875 64.65625 21.28125 53.65625 
Q 18.109375 42.671875 18.109375 31.390625 
Q 18.109375 20.125 21.3125 9.0625 
Q 24.515625 -2 31 -13.1875 
L 23.1875 -13.1875 
Q 15.875 -1.703125 12.234375 9.375 
Q 8.59375 20.453125 8.59375 31.390625 
Q 8.59375 42.28125 12.203125 53.3125 
Q 15.828125 64.359375 23.1875 75.875 
z
" id="DejaVuSans-40"/>
      <path d="M 59.515625 10.40625 
L 59.515625 29.984375 
L 43.40625 29.984375 
L 43.40625 38.09375 
L 69.28125 38.09375 
L 69.28125 6.78125 
Q 63.578125 2.734375 56.6875 0.65625 
Q 49.8125 -1.421875 42 -1.421875 
Q 24.90625 -1.421875 15.25 8.5625 
Q 5.609375 18.5625 5.609375 36.375 
Q 5.609375 54.25 15.25 64.234375 
Q 24.90625 74.21875 42 74.21875 
Q 49.125 74.21875 55.546875 72.453125 
Q 61.96875 70.703125 67.390625 67.28125 
L 67.390625 56.78125 
Q 61.921875 61.421875 55.765625 63.765625 
Q 49.609375 66.109375 42.828125 66.109375 
Q 29.4375 66.109375 22.71875 58.640625 
Q 16.015625 51.171875 16.015625 36.375 
Q 16.015625 21.625 22.71875 14.15625 
Q 29.4375 6.6875 42.828125 6.6875 
Q 48.046875 6.6875 52.140625 7.59375 
Q 56.25 8.5 59.515625 10.40625 
z
" id="DejaVuSans-71"/>
      <path d="M 3.328125 72.90625 
L 13.28125 72.90625 
L 28.609375 11.28125 
L 43.890625 72.90625 
L 54.984375 72.90625 
L 70.3125 11.28125 
L 85.59375 72.90625 
L 95.609375 72.90625 
L 77.296875 0 
L 64.890625 0 
L 49.515625 63.28125 
L 33.984375 0 
L 21.578125 0 
z
" id="DejaVuSans-87"/>
      <path d="M 8.015625 75.875 
L 15.828125 75.875 
Q 23.140625 64.359375 26.78125 53.3125 
Q 30.421875 42.28125 30.421875 31.390625 
Q 30.421875 20.453125 26.78125 9.375 
Q 23.140625 -1.703125 15.828125 -13.1875 
L 8.015625 -13.1875 
Q 14.5 -2 17.703125 9.0625 
Q 20.90625 20.125 20.90625 31.390625 
Q 20.90625 42.671875 17.703125 53.65625 
Q 14.5 64.65625 8.015625 75.875 
z
" id="DejaVuSans-41"/>
     </defs>
     <g transform="translate(14.798438 533.568054)rotate(-90)scale(0.1 -0.1)">
      <use xlink:href="#DejaVuSans-80"/>
      <use x="56.677734" xlink:href="#DejaVuSans-111"/>
      <use x="117.859375" xlink:href="#DejaVuSans-119"/>
      <use x="199.646484" xlink:href="#DejaVuSans-101"/>
      <use x="261.169922" xlink:href="#DejaVuSans-114"/>
      <use x="302.283203" xlink:href="#DejaVuSans-32"/>
      <use x="334.070312" xlink:href="#DejaVuSans-40"/>
      <use x="373.083984" xlink:href="#DejaVuSans-71"/>
      <use x="450.574219" xlink:href="#DejaVuSans-87"/>
      <use x="549.451172" xlink:href="#DejaVuSans-41"/>
     </g>
    </g>
   </g>
   <g id="line2d_19">
    <path clip-path="url(#p05d71a7852)" d="M 69.86875 523.883237 
L 78.621691 487.465664 
L 87.374632 489.901362 
L 96.127574 487.65381 
L 104.880515 487.724675 
L 113.633456 483.643781 
L 122.386397 468.975799 
L 131.139338 490.011071 
L 139.892279 487.278055 
L 148.645221 489.493592 
L 157.398162 487.733901 
L 166.151103 493.683521 
L 174.904044 479.265257 
L 183.656985 523.393672 
L 192.409926 492.930048 
L 201.162868 476.742104 
L 209.915809 483.959448 
L 218.66875 496.928605 
L 227.421691 486.224886 
L 236.174632 482.648361 
L 244.927574 475.739071 
L 253.680515 504.941205 
L 262.433456 482.285798 
L 271.186397 480.071354 
L 279.939338 478.192312 
L 288.692279 486.950069 
L 297.445221 496.625799 
L 306.198162 471.75971 
L 314.951103 488.661739 
L 323.704044 490.817533 
L 332.456985 485.399008 
L 341.209926 475.599508 
L 349.962868 481.627563 
L 358.715809 481.382105 
L 367.46875 484.430872 
L 376.221691 479.760369 
L 384.974632 475.423701 
L 393.727574 472.721124 
L 402.480515 465.018303 
L 411.233456 484.45072 
L 419.986397 453.604075 
L 428.739338 493.518252 
L 437.492279 479.245972 
L 446.245221 467.829126 
L 454.998162 464.8777 
L 463.751103 475.353356 
L 472.504044 471.245434 
L 481.256985 475.505016 
L 490.009926 470.489956 
L 498.762868 478.963809 
L 507.515809 472.567981 
L 516.26875 510.06053 
" style="fill:none;stroke:#000000;stroke-linecap:square;stroke-opacity:0.5;stroke-width:1.5;"/>
   </g>
   <g id="patch_3">
    <path d="M 69.86875 565.918125 
L 69.86875 442.37267 
" style="fill:none;stroke:#000000;stroke-linecap:square;stroke-linejoin:miter;stroke-width:0.8;"/>
   </g>
   <g id="patch_4">
    <path d="M 516.26875 565.918125 
L 516.26875 442.37267 
" style="fill:none;stroke:#000000;stroke-linecap:square;stroke-linejoin:miter;stroke-width:0.8;"/>
   </g>
   <g id="patch_5">
    <path d="M 69.86875 565.918125 
L 516.26875 565.918125 
" style="fill:none;stroke:#000000;stroke-linecap:square;stroke-linejoin:miter;stroke-width:0.8;"/>
   </g>
   <g id="patch_6">
    <path d="M 69.86875 442.37267 
L 516.26875 442.37267 
" style="fill:none;stroke:#000000;stroke-linecap:square;stroke-linejoin:miter;stroke-width:0.8;"/>
   </g>
   <g id="legend_1">
    <g id="patch_7">
     <path d="M 600.476875 465.050795 
L 710.14875 465.050795 
Q 712.14875 465.050795 712.14875 463.050795 
L 712.14875 449.37267 
Q 712.14875 447.37267 710.14875 447.37267 
L 600.476875 447.37267 
Q 598.476875 447.37267 598.476875 449.37267 
L 598.476875 463.050795 
Q 598.476875 465.050795 600.476875 465.050795 
z
" style="fill:#ffffff;opacity:0.8;stroke:#cccccc;stroke-linejoin:miter;"/>
    </g>
    <g id="patch_8">
     <path d="M 602.476875 458.971108 
L 622.476875 458.971108 
L 622.476875 451.971108 
L 602.476875 451.971108 
z
" style="fill:#592400;opacity:0.6;"/>
    </g>
    <g id="text_20">
     <!-- Coffee Biomass -->
     <defs>
      <path d="M 64.40625 67.28125 
L 64.40625 56.890625 
Q 59.421875 61.53125 53.78125 63.8125 
Q 48.140625 66.109375 41.796875 66.109375 
Q 29.296875 66.109375 22.65625 58.46875 
Q 16.015625 50.828125 16.015625 36.375 
Q 16.015625 21.96875 22.65625 14.328125 
Q 29.296875 6.6875 41.796875 6.6875 
Q 48.140625 6.6875 53.78125 8.984375 
Q 59.421875 11.28125 64.40625 15.921875 
L 64.40625 5.609375 
Q 59.234375 2.09375 53.4375 0.328125 
Q 47.65625 -1.421875 41.21875 -1.421875 
Q 24.65625 -1.421875 15.125 8.703125 
Q 5.609375 18.84375 5.609375 36.375 
Q 5.609375 53.953125 15.125 64.078125 
Q 24.65625 74.21875 41.21875 74.21875 
Q 47.75 74.21875 53.53125 72.484375 
Q 59.328125 70.75 64.40625 67.28125 
z
" id="DejaVuSans-67"/>
      <path d="M 37.109375 75.984375 
L 37.109375 68.5 
L 28.515625 68.5 
Q 23.6875 68.5 21.796875 66.546875 
Q 19.921875 64.59375 19.921875 59.515625 
L 19.921875 54.6875 
L 34.71875 54.6875 
L 34.71875 47.703125 
L 19.921875 47.703125 
L 19.921875 0 
L 10.890625 0 
L 10.890625 47.703125 
L 2.296875 47.703125 
L 2.296875 54.6875 
L 10.890625 54.6875 
L 10.890625 58.5 
Q 10.890625 67.625 15.140625 71.796875 
Q 19.390625 75.984375 28.609375 75.984375 
z
" id="DejaVuSans-102"/>
      <path d="M 19.671875 34.8125 
L 19.671875 8.109375 
L 35.5 8.109375 
Q 43.453125 8.109375 47.28125 11.40625 
Q 51.125 14.703125 51.125 21.484375 
Q 51.125 28.328125 47.28125 31.5625 
Q 43.453125 34.8125 35.5 34.8125 
z
M 19.671875 64.796875 
L 19.671875 42.828125 
L 34.28125 42.828125 
Q 41.5 42.828125 45.03125 45.53125 
Q 48.578125 48.25 48.578125 53.8125 
Q 48.578125 59.328125 45.03125 62.0625 
Q 41.5 64.796875 34.28125 64.796875 
z
M 9.8125 72.90625 
L 35.015625 72.90625 
Q 46.296875 72.90625 52.390625 68.21875 
Q 58.5 63.53125 58.5 54.890625 
Q 58.5 48.1875 55.375 44.234375 
Q 52.25 40.28125 46.1875 39.3125 
Q 53.46875 37.75 57.5 32.78125 
Q 61.53125 27.828125 61.53125 20.40625 
Q 61.53125 10.640625 54.890625 5.3125 
Q 48.25 0 35.984375 0 
L 9.8125 0 
z
" id="DejaVuSans-66"/>
      <path d="M 9.421875 54.6875 
L 18.40625 54.6875 
L 18.40625 0 
L 9.421875 0 
z
M 9.421875 75.984375 
L 18.40625 75.984375 
L 18.40625 64.59375 
L 9.421875 64.59375 
z
" id="DejaVuSans-105"/>
      <path d="M 52 44.1875 
Q 55.375 50.25 60.0625 53.125 
Q 64.75 56 71.09375 56 
Q 79.640625 56 84.28125 50.015625 
Q 88.921875 44.046875 88.921875 33.015625 
L 88.921875 0 
L 79.890625 0 
L 79.890625 32.71875 
Q 79.890625 40.578125 77.09375 44.375 
Q 74.3125 48.1875 68.609375 48.1875 
Q 61.625 48.1875 57.5625 43.546875 
Q 53.515625 38.921875 53.515625 30.90625 
L 53.515625 0 
L 44.484375 0 
L 44.484375 32.71875 
Q 44.484375 40.625 41.703125 44.40625 
Q 38.921875 48.1875 33.109375 48.1875 
Q 26.21875 48.1875 22.15625 43.53125 
Q 18.109375 38.875 18.109375 30.90625 
L 18.109375 0 
L 9.078125 0 
L 9.078125 54.6875 
L 18.109375 54.6875 
L 18.109375 46.1875 
Q 21.1875 51.21875 25.484375 53.609375 
Q 29.78125 56 35.6875 56 
Q 41.65625 56 45.828125 52.96875 
Q 50 49.953125 52 44.1875 
z
" id="DejaVuSans-109"/>
      <path d="M 44.28125 53.078125 
L 44.28125 44.578125 
Q 40.484375 46.53125 36.375 47.5 
Q 32.28125 48.484375 27.875 48.484375 
Q 21.1875 48.484375 17.84375 46.4375 
Q 14.5 44.390625 14.5 40.28125 
Q 14.5 37.15625 16.890625 35.375 
Q 19.28125 33.59375 26.515625 31.984375 
L 29.59375 31.296875 
Q 39.15625 29.25 43.1875 25.515625 
Q 47.21875 21.78125 47.21875 15.09375 
Q 47.21875 7.46875 41.1875 3.015625 
Q 35.15625 -1.421875 24.609375 -1.421875 
Q 20.21875 -1.421875 15.453125 -0.5625 
Q 10.6875 0.296875 5.421875 2 
L 5.421875 11.28125 
Q 10.40625 8.6875 15.234375 7.390625 
Q 20.0625 6.109375 24.8125 6.109375 
Q 31.15625 6.109375 34.5625 8.28125 
Q 37.984375 10.453125 37.984375 14.40625 
Q 37.984375 18.0625 35.515625 20.015625 
Q 33.0625 21.96875 24.703125 23.78125 
L 21.578125 24.515625 
Q 13.234375 26.265625 9.515625 29.90625 
Q 5.8125 33.546875 5.8125 39.890625 
Q 5.8125 47.609375 11.28125 51.796875 
Q 16.75 56 26.8125 56 
Q 31.78125 56 36.171875 55.265625 
Q 40.578125 54.546875 44.28125 53.078125 
z
" id="DejaVuSans-115"/>
     </defs>
     <g transform="translate(630.476875 458.971108)scale(0.1 -0.1)">
      <use xlink:href="#DejaVuSans-67"/>
      <use x="69.824219" xlink:href="#DejaVuSans-111"/>
      <use x="131.005859" xlink:href="#DejaVuSans-102"/>
      <use x="166.210938" xlink:href="#DejaVuSans-102"/>
      <use x="201.416016" xlink:href="#DejaVuSans-101"/>
      <use x="262.939453" xlink:href="#DejaVuSans-101"/>
      <use x="324.462891" xlink:href="#DejaVuSans-32"/>
      <use x="356.25" xlink:href="#DejaVuSans-66"/>
      <use x="424.853516" xlink:href="#DejaVuSans-105"/>
      <use x="452.636719" xlink:href="#DejaVuSans-111"/>
      <use x="513.818359" xlink:href="#DejaVuSans-109"/>
      <use x="611.230469" xlink:href="#DejaVuSans-97"/>
      <use x="672.509766" xlink:href="#DejaVuSans-115"/>
      <use x="724.609375" xlink:href="#DejaVuSans-115"/>
     </g>
    </g>
   </g>
  </g>
  <g id="axes_2">
   <g id="patch_9">
    <path d="M 69.86875 392.954489 
L 516.26875 392.954489 
L 516.26875 22.318125 
L 69.86875 22.318125 
z
" style="fill:#ffffff;"/>
   </g>
   <g id="PolyCollection_2">
    <path clip-path="url(#p4e353e5448)" d="M 69.86875 181.813931 
L 69.86875 392.954489 
L 78.621691 392.954489 
L 87.374632 392.954489 
L 96.127574 392.954489 
L 104.880515 392.954489 
L 113.633456 392.954489 
L 122.386397 392.954489 
L 131.139338 392.954489 
L 139.892279 392.954489 
L 148.645221 392.954489 
L 157.398162 392.954489 
L 166.151103 392.954489 
L 174.904044 392.954489 
L 183.656985 392.954489 
L 192.409926 392.954489 
L 201.162868 392.954489 
L 209.915809 392.954489 
L 218.66875 392.954489 
L 227.421691 392.954489 
L 236.174632 392.954489 
L 244.927574 392.954489 
L 253.680515 392.954489 
L 262.433456 392.954489 
L 271.186397 392.954489 
L 279.939338 392.954489 
L 288.692279 392.954489 
L 297.445221 392.954489 
L 306.198162 392.954489 
L 314.951103 392.954489 
L 323.704044 392.954489 
L 332.456985 392.954489 
L 341.209926 392.954489 
L 349.962868 392.954489 
L 358.715809 392.954489 
L 367.46875 392.954489 
L 376.221691 392.954489 
L 384.974632 392.954489 
L 393.727574 392.954489 
L 402.480515 392.954489 
L 411.233456 392.954489 
L 419.986397 392.954489 
L 428.739338 392.954489 
L 437.492279 392.954489 
L 446.245221 392.954489 
L 454.998162 392.954489 
L 463.751103 392.954489 
L 472.504044 392.954489 
L 481.256985 392.954489 
L 490.009926 392.954489 
L 498.762868 392.954489 
L 507.515809 392.954489 
L 516.26875 392.954489 
L 516.26875 181.84801 
L 516.26875 181.84801 
L 507.515809 181.773807 
L 498.762868 181.773807 
L 490.009926 181.773807 
L 481.256985 181.773807 
L 472.504044 181.773807 
L 463.751103 181.773807 
L 454.998162 181.773807 
L 446.245221 181.773807 
L 437.492279 181.773807 
L 428.739338 181.773807 
L 419.986397 181.773807 
L 411.233456 182.224688 
L 402.480515 181.773807 
L 393.727574 181.773807 
L 384.974632 181.773807 
L 376.221691 181.773807 
L 367.46875 181.773807 
L 358.715809 181.773807 
L 349.962868 181.773807 
L 341.209926 181.773807 
L 332.456985 181.773807 
L 323.704044 181.773807 
L 314.951103 181.773807 
L 306.198162 181.773807 
L 297.445221 181.773807 
L 288.692279 181.773807 
L 279.939338 181.773807 
L 271.186397 181.773807 
L 262.433456 181.773807 
L 253.680515 181.773807 
L 244.927574 181.773807 
L 236.174632 181.773807 
L 227.421691 181.773807 
L 218.66875 181.773807 
L 209.915809 181.792155 
L 201.162868 181.773807 
L 192.409926 181.773807 
L 183.656985 181.821786 
L 174.904044 181.773807 
L 166.151103 181.773807 
L 157.398162 181.773807 
L 148.645221 181.773807 
L 139.892279 181.773807 
L 131.139338 181.773807 
L 122.386397 181.773807 
L 113.633456 181.773807 
L 104.880515 181.773807 
L 96.127574 181.773807 
L 87.374632 184.002948 
L 78.621691 181.773807 
L 69.86875 181.813931 
z
" style="fill:#ffb30f;fill-opacity:0.6;"/>
   </g>
   <g id="PolyCollection_3">
    <path clip-path="url(#p4e353e5448)" d="M 69.86875 181.813931 
L 69.86875 91.117841 
L 78.621691 75.7243 
L 87.374632 81.683239 
L 96.127574 79.144758 
L 104.880515 80.91358 
L 113.633456 80.163019 
L 122.386397 90.083089 
L 131.139338 84.272023 
L 139.892279 86.369657 
L 148.645221 90.390725 
L 157.398162 87.482177 
L 166.151103 85.672988 
L 174.904044 85.241807 
L 183.656985 93.827901 
L 192.409926 76.682049 
L 201.162868 75.38197 
L 209.915809 75.960197 
L 218.66875 75.811016 
L 227.421691 69.897449 
L 236.174632 69.084563 
L 244.927574 66.781604 
L 253.680515 70.989246 
L 262.433456 61.869395 
L 271.186397 63.218766 
L 279.939338 69.199109 
L 288.692279 70.760886 
L 297.445221 68.442298 
L 306.198162 72.543862 
L 314.951103 72.024747 
L 323.704044 70.903503 
L 332.456985 73.536207 
L 341.209926 69.978382 
L 349.962868 63.922328 
L 358.715809 64.18248 
L 367.46875 63.978413 
L 376.221691 60.001428 
L 384.974632 61.583487 
L 393.727574 64.895959 
L 402.480515 74.136872 
L 411.233456 74.51455 
L 419.986397 69.633424 
L 428.739338 73.843564 
L 437.492279 67.833829 
L 446.245221 67.634612 
L 454.998162 73.706148 
L 463.751103 74.753213 
L 472.504044 73.401757 
L 481.256985 77.499259 
L 490.009926 69.841855 
L 498.762868 79.002918 
L 507.515809 75.171645 
L 516.26875 101.909199 
L 516.26875 181.84801 
L 516.26875 181.84801 
L 507.515809 181.773807 
L 498.762868 181.773807 
L 490.009926 181.773807 
L 481.256985 181.773807 
L 472.504044 181.773807 
L 463.751103 181.773807 
L 454.998162 181.773807 
L 446.245221 181.773807 
L 437.492279 181.773807 
L 428.739338 181.773807 
L 419.986397 181.773807 
L 411.233456 182.224688 
L 402.480515 181.773807 
L 393.727574 181.773807 
L 384.974632 181.773807 
L 376.221691 181.773807 
L 367.46875 181.773807 
L 358.715809 181.773807 
L 349.962868 181.773807 
L 341.209926 181.773807 
L 332.456985 181.773807 
L 323.704044 181.773807 
L 314.951103 181.773807 
L 306.198162 181.773807 
L 297.445221 181.773807 
L 288.692279 181.773807 
L 279.939338 181.773807 
L 271.186397 181.773807 
L 262.433456 181.773807 
L 253.680515 181.773807 
L 244.927574 181.773807 
L 236.174632 181.773807 
L 227.421691 181.773807 
L 218.66875 181.773807 
L 209.915809 181.792155 
L 201.162868 181.773807 
L 192.409926 181.773807 
L 183.656985 181.821786 
L 174.904044 181.773807 
L 166.151103 181.773807 
L 157.398162 181.773807 
L 148.645221 181.773807 
L 139.892279 181.773807 
L 131.139338 181.773807 
L 122.386397 181.773807 
L 113.633456 181.773807 
L 104.880515 181.773807 
L 96.127574 181.773807 
L 87.374632 184.002948 
L 78.621691 181.773807 
L 69.86875 181.813931 
z
" style="fill:#2980b9;fill-opacity:0.6;"/>
   </g>
   <g id="PolyCollection_4">
    <path clip-path="url(#p4e353e5448)" d="M 69.86875 91.117841 
L 69.86875 88.237162 
L 78.621691 73.150775 
L 87.374632 79.473311 
L 96.127574 77.103528 
L 104.880515 79.345105 
L 113.633456 78.750389 
L 122.386397 88.799824 
L 131.139338 83.206532 
L 139.892279 85.464548 
L 148.645221 89.414532 
L 157.398162 86.6867 
L 166.151103 84.627318 
L 174.904044 83.643385 
L 183.656985 92.150775 
L 192.409926 74.46217 
L 201.162868 73.720957 
L 209.915809 74.258998 
L 218.66875 74.090371 
L 227.421691 68.089324 
L 236.174632 67.19461 
L 244.927574 64.920266 
L 253.680515 68.255192 
L 262.433456 59.409433 
L 271.186397 60.564954 
L 279.939338 66.486265 
L 288.692279 68.229131 
L 297.445221 66.306388 
L 306.198162 69.849417 
L 314.951103 69.40413 
L 323.704044 68.380301 
L 332.456985 71.25782 
L 341.209926 67.715951 
L 349.962868 62.089253 
L 358.715809 62.373009 
L 367.46875 62.215291 
L 376.221691 57.9816 
L 384.974632 59.681541 
L 393.727574 63.434431 
L 402.480515 72.547231 
L 411.233456 72.788518 
L 419.986397 67.945909 
L 428.739338 71.731866 
L 437.492279 64.968277 
L 446.245221 64.826524 
L 454.998162 70.42887 
L 463.751103 71.710556 
L 472.504044 70.181266 
L 481.256985 74.580516 
L 490.009926 67.709503 
L 498.762868 76.964509 
L 507.515809 72.716505 
L 516.26875 98.987102 
L 516.26875 101.909199 
L 516.26875 101.909199 
L 507.515809 75.171645 
L 498.762868 79.002918 
L 490.009926 69.841855 
L 481.256985 77.499259 
L 472.504044 73.401757 
L 463.751103 74.753213 
L 454.998162 73.706148 
L 446.245221 67.634612 
L 437.492279 67.833829 
L 428.739338 73.843564 
L 419.986397 69.633424 
L 411.233456 74.51455 
L 402.480515 74.136872 
L 393.727574 64.895959 
L 384.974632 61.583487 
L 376.221691 60.001428 
L 367.46875 63.978413 
L 358.715809 64.18248 
L 349.962868 63.922328 
L 341.209926 69.978382 
L 332.456985 73.536207 
L 323.704044 70.903503 
L 314.951103 72.024747 
L 306.198162 72.543862 
L 297.445221 68.442298 
L 288.692279 70.760886 
L 279.939338 69.199109 
L 271.186397 63.218766 
L 262.433456 61.869395 
L 253.680515 70.989246 
L 244.927574 66.781604 
L 236.174632 69.084563 
L 227.421691 69.897449 
L 218.66875 75.811016 
L 209.915809 75.960197 
L 201.162868 75.38197 
L 192.409926 76.682049 
L 183.656985 93.827901 
L 174.904044 85.241807 
L 166.151103 85.672988 
L 157.398162 87.482177 
L 148.645221 90.390725 
L 139.892279 86.369657 
L 131.139338 84.272023 
L 122.386397 90.083089 
L 113.633456 80.163019 
L 104.880515 80.91358 
L 96.127574 79.144758 
L 87.374632 81.683239 
L 78.621691 75.7243 
L 69.86875 91.117841 
z
" style="fill:#3498db;fill-opacity:0.6;"/>
   </g>
   <g id="PolyCollection_5">
    <path clip-path="url(#p4e353e5448)" d="M 69.86875 88.237162 
L 69.86875 86.347692 
L 78.621691 70.981898 
L 87.374632 78.177001 
L 96.127574 73.911654 
L 104.880515 76.309806 
L 113.633456 75.402143 
L 122.386397 87.711508 
L 131.139338 80.387587 
L 139.892279 82.11328 
L 148.645221 85.287391 
L 157.398162 82.696946 
L 166.151103 80.967383 
L 174.904044 81.435529 
L 183.656985 91.086331 
L 192.409926 72.892195 
L 201.162868 71.947268 
L 209.915809 73.461168 
L 218.66875 72.290796 
L 227.421691 67.103594 
L 236.174632 66.115208 
L 244.927574 64.202159 
L 253.680515 66.746154 
L 262.433456 59.161855 
L 271.186397 60.360687 
L 279.939338 65.678514 
L 288.692279 67.202206 
L 297.445221 64.347621 
L 306.198162 68.403583 
L 314.951103 68.424746 
L 323.704044 67.738139 
L 332.456985 70.009857 
L 341.209926 66.675579 
L 349.962868 60.962712 
L 358.715809 60.520504 
L 367.46875 60.912635 
L 376.221691 56.795028 
L 384.974632 57.710535 
L 393.727574 61.404804 
L 402.480515 70.596672 
L 411.233456 69.312554 
L 419.986397 65.378016 
L 428.739338 69.420113 
L 437.492279 63.346781 
L 446.245221 63.094686 
L 454.998162 68.511398 
L 463.751103 69.935911 
L 472.504044 68.111804 
L 481.256985 72.077086 
L 490.009926 66.136103 
L 498.762868 75.966642 
L 507.515809 69.832089 
L 516.26875 95.844501 
L 516.26875 98.987102 
L 516.26875 98.987102 
L 507.515809 72.716505 
L 498.762868 76.964509 
L 490.009926 67.709503 
L 481.256985 74.580516 
L 472.504044 70.181266 
L 463.751103 71.710556 
L 454.998162 70.42887 
L 446.245221 64.826524 
L 437.492279 64.968277 
L 428.739338 71.731866 
L 419.986397 67.945909 
L 411.233456 72.788518 
L 402.480515 72.547231 
L 393.727574 63.434431 
L 384.974632 59.681541 
L 376.221691 57.9816 
L 367.46875 62.215291 
L 358.715809 62.373009 
L 349.962868 62.089253 
L 341.209926 67.715951 
L 332.456985 71.25782 
L 323.704044 68.380301 
L 314.951103 69.40413 
L 306.198162 69.849417 
L 297.445221 66.306388 
L 288.692279 68.229131 
L 279.939338 66.486265 
L 271.186397 60.564954 
L 262.433456 59.409433 
L 253.680515 68.255192 
L 244.927574 64.920266 
L 236.174632 67.19461 
L 227.421691 68.089324 
L 218.66875 74.090371 
L 209.915809 74.258998 
L 201.162868 73.720957 
L 192.409926 74.46217 
L 183.656985 92.150775 
L 174.904044 83.643385 
L 166.151103 84.627318 
L 157.398162 86.6867 
L 148.645221 89.414532 
L 139.892279 85.464548 
L 131.139338 83.206532 
L 122.386397 88.799824 
L 113.633456 78.750389 
L 104.880515 79.345105 
L 96.127574 77.103528 
L 87.374632 79.473311 
L 78.621691 73.150775 
L 69.86875 88.237162 
z
" style="fill:#28b463;fill-opacity:0.6;"/>
   </g>
   <g id="PolyCollection_6">
    <path clip-path="url(#p4e353e5448)" d="M 69.86875 86.347692 
L 69.86875 77.556463 
L 78.621691 54.824136 
L 87.374632 60.675956 
L 96.127574 56.176898 
L 104.880515 58.982967 
L 113.633456 56.410565 
L 122.386397 60.882343 
L 131.139338 65.218876 
L 139.892279 68.332477 
L 148.645221 73.19424 
L 157.398162 64.592067 
L 166.151103 65.48544 
L 174.904044 63.674084 
L 183.656985 84.338402 
L 192.409926 60.706739 
L 201.162868 54.390931 
L 209.915809 62.178667 
L 218.66875 62.066258 
L 227.421691 55.583297 
L 236.174632 50.012245 
L 244.927574 46.156958 
L 253.680515 58.07692 
L 262.433456 45.112321 
L 271.186397 45.797048 
L 279.939338 48.842332 
L 288.692279 54.199503 
L 297.445221 53.317284 
L 306.198162 47.188269 
L 314.951103 51.291413 
L 323.704044 54.805006 
L 332.456985 54.926126 
L 341.209926 47.781286 
L 349.962868 43.911904 
L 358.715809 42.019341 
L 367.46875 41.462156 
L 376.221691 39.186913 
L 384.974632 35.714496 
L 393.727574 37.794549 
L 402.480515 48.779539 
L 411.233456 52.017073 
L 419.986397 40.075492 
L 428.739338 54.608308 
L 437.492279 44.850127 
L 446.245221 36.221647 
L 454.998162 38.557617 
L 463.751103 44.249114 
L 472.504044 36.094479 
L 481.256985 43.776418 
L 490.009926 34.0219 
L 498.762868 50.272019 
L 507.515809 43.552768 
L 516.26875 82.651579 
L 516.26875 95.844501 
L 516.26875 95.844501 
L 507.515809 69.832089 
L 498.762868 75.966642 
L 490.009926 66.136103 
L 481.256985 72.077086 
L 472.504044 68.111804 
L 463.751103 69.935911 
L 454.998162 68.511398 
L 446.245221 63.094686 
L 437.492279 63.346781 
L 428.739338 69.420113 
L 419.986397 65.378016 
L 411.233456 69.312554 
L 402.480515 70.596672 
L 393.727574 61.404804 
L 384.974632 57.710535 
L 376.221691 56.795028 
L 367.46875 60.912635 
L 358.715809 60.520504 
L 349.962868 60.962712 
L 341.209926 66.675579 
L 332.456985 70.009857 
L 323.704044 67.738139 
L 314.951103 68.424746 
L 306.198162 68.403583 
L 297.445221 64.347621 
L 288.692279 67.202206 
L 279.939338 65.678514 
L 271.186397 60.360687 
L 262.433456 59.161855 
L 253.680515 66.746154 
L 244.927574 64.202159 
L 236.174632 66.115208 
L 227.421691 67.103594 
L 218.66875 72.290796 
L 209.915809 73.461168 
L 201.162868 71.947268 
L 192.409926 72.892195 
L 183.656985 91.086331 
L 174.904044 81.435529 
L 166.151103 80.967383 
L 157.398162 82.696946 
L 148.645221 85.287391 
L 139.892279 82.11328 
L 131.139338 80.387587 
L 122.386397 87.711508 
L 113.633456 75.402143 
L 104.880515 76.309806 
L 96.127574 73.911654 
L 87.374632 78.177001 
L 78.621691 70.981898 
L 69.86875 86.347692 
z
" style="fill:#494949;fill-opacity:0.6;"/>
   </g>
   <g id="PolyCollection_7">
    <path clip-path="url(#p4e353e5448)" d="M 69.86875 77.556463 
L 69.86875 77.556463 
L 78.621691 54.824136 
L 87.374632 60.675956 
L 96.127574 56.176898 
L 104.880515 58.982967 
L 113.633456 56.410565 
L 122.386397 60.882343 
L 131.139338 65.218876 
L 139.892279 68.332477 
L 148.645221 73.19424 
L 157.398162 64.592067 
L 166.151103 65.48544 
L 174.904044 63.674084 
L 183.656985 84.338402 
L 192.409926 60.706739 
L 201.162868 54.390931 
L 209.915809 62.178667 
L 218.66875 62.066258 
L 227.421691 55.583297 
L 236.174632 50.012245 
L 244.927574 46.156958 
L 253.680515 58.07692 
L 262.433456 45.112321 
L 271.186397 45.797048 
L 279.939338 48.842332 
L 288.692279 54.199503 
L 297.445221 53.317284 
L 306.198162 47.188269 
L 314.951103 51.291413 
L 323.704044 54.805006 
L 332.456985 54.926126 
L 341.209926 47.781286 
L 349.962868 43.911904 
L 358.715809 42.019341 
L 367.46875 41.462156 
L 376.221691 39.186913 
L 384.974632 35.714496 
L 393.727574 37.794549 
L 402.480515 48.779539 
L 411.233456 52.017073 
L 419.986397 40.075492 
L 428.739338 54.608308 
L 437.492279 44.850127 
L 446.245221 36.221647 
L 454.998162 38.557617 
L 463.751103 44.249114 
L 472.504044 36.094479 
L 481.256985 43.776418 
L 490.009926 34.0219 
L 498.762868 50.272019 
L 507.515809 43.552768 
L 516.26875 82.651579 
L 516.26875 82.651579 
L 516.26875 82.651579 
L 507.515809 43.552768 
L 498.762868 50.272019 
L 490.009926 34.0219 
L 481.256985 43.776418 
L 472.504044 36.094479 
L 463.751103 44.249114 
L 454.998162 38.557617 
L 446.245221 36.221647 
L 437.492279 44.850127 
L 428.739338 54.608308 
L 419.986397 40.075492 
L 411.233456 52.017073 
L 402.480515 48.779539 
L 393.727574 37.794549 
L 384.974632 35.714496 
L 376.221691 39.186913 
L 367.46875 41.462156 
L 358.715809 42.019341 
L 349.962868 43.911904 
L 341.209926 47.781286 
L 332.456985 54.926126 
L 323.704044 54.805006 
L 314.951103 51.291413 
L 306.198162 47.188269 
L 297.445221 53.317284 
L 288.692279 54.199503 
L 279.939338 48.842332 
L 271.186397 45.797048 
L 262.433456 45.112321 
L 253.680515 58.07692 
L 244.927574 46.156958 
L 236.174632 50.012245 
L 227.421691 55.583297 
L 218.66875 62.066258 
L 209.915809 62.178667 
L 201.162868 54.390931 
L 192.409926 60.706739 
L 183.656985 84.338402 
L 174.904044 63.674084 
L 166.151103 65.48544 
L 157.398162 64.592067 
L 148.645221 73.19424 
L 139.892279 68.332477 
L 131.139338 65.218876 
L 122.386397 60.882343 
L 113.633456 56.410565 
L 104.880515 58.982967 
L 96.127574 56.176898 
L 87.374632 60.675956 
L 78.621691 54.824136 
L 69.86875 77.556463 
z
" style="fill:#7c7c7c;fill-opacity:0.6;"/>
   </g>
   <g id="PolyCollection_8">
    <path clip-path="url(#p4e353e5448)" d="M 69.86875 77.556463 
L 69.86875 72.871843 
L 78.621691 47.069454 
L 87.374632 53.356432 
L 96.127574 48.729329 
L 104.880515 50.963609 
L 113.633456 48.4602 
L 122.386397 51.676919 
L 131.139338 57.118049 
L 139.892279 60.705453 
L 148.645221 65.740548 
L 157.398162 57.069356 
L 166.151103 58.1121 
L 174.904044 56.041082 
L 183.656985 79.887133 
L 192.409926 54.078153 
L 201.162868 45.9012 
L 209.915809 54.331976 
L 218.66875 55.262769 
L 227.421691 48.04748 
L 236.174632 42.740661 
L 244.927574 38.649404 
L 253.680515 52.10644 
L 262.433456 37.856873 
L 271.186397 38.308992 
L 279.939338 40.971195 
L 288.692279 46.867292 
L 297.445221 46.28798 
L 306.198162 37.74335 
L 314.951103 44.428486 
L 323.704044 47.536616 
L 332.456985 47.216228 
L 341.209926 39.229701 
L 349.962868 36.819823 
L 358.715809 34.570571 
L 367.46875 34.34318 
L 376.221691 31.428988 
L 384.974632 25.694622 
L 393.727574 28.069141 
L 402.480515 38.884516 
L 411.233456 44.408758 
L 419.986397 29.850791 
L 428.739338 47.949249 
L 437.492279 37.448115 
L 446.245221 26.599718 
L 454.998162 29.349439 
L 463.751103 36.391609 
L 472.504044 27.476911 
L 481.256985 36.246193 
L 490.009926 26.132189 
L 498.762868 42.476349 
L 507.515809 35.521954 
L 516.26875 77.106848 
L 516.26875 82.651579 
L 516.26875 82.651579 
L 507.515809 43.552768 
L 498.762868 50.272019 
L 490.009926 34.0219 
L 481.256985 43.776418 
L 472.504044 36.094479 
L 463.751103 44.249114 
L 454.998162 38.557617 
L 446.245221 36.221647 
L 437.492279 44.850127 
L 428.739338 54.608308 
L 419.986397 40.075492 
L 411.233456 52.017073 
L 402.480515 48.779539 
L 393.727574 37.794549 
L 384.974632 35.714496 
L 376.221691 39.186913 
L 367.46875 41.462156 
L 358.715809 42.019341 
L 349.962868 43.911904 
L 341.209926 47.781286 
L 332.456985 54.926126 
L 323.704044 54.805006 
L 314.951103 51.291413 
L 306.198162 47.188269 
L 297.445221 53.317284 
L 288.692279 54.199503 
L 279.939338 48.842332 
L 271.186397 45.797048 
L 262.433456 45.112321 
L 253.680515 58.07692 
L 244.927574 46.156958 
L 236.174632 50.012245 
L 227.421691 55.583297 
L 218.66875 62.066258 
L 209.915809 62.178667 
L 201.162868 54.390931 
L 192.409926 60.706739 
L 183.656985 84.338402 
L 174.904044 63.674084 
L 166.151103 65.48544 
L 157.398162 64.592067 
L 148.645221 73.19424 
L 139.892279 68.332477 
L 131.139338 65.218876 
L 122.386397 60.882343 
L 113.633456 56.410565 
L 104.880515 58.982967 
L 96.127574 56.176898 
L 87.374632 60.675956 
L 78.621691 54.824136 
L 69.86875 77.556463 
z
" style="fill:#ba4a00;fill-opacity:0.6;"/>
   </g>
   <g id="PolyCollection_9">
    <path clip-path="url(#p4e353e5448)" d="M 69.86875 72.871843 
L 69.86875 71.303451 
L 78.621691 44.142263 
L 87.374632 50.520121 
L 96.127574 45.809157 
L 104.880515 48.046082 
L 113.633456 45.390408 
L 122.386397 48.05984 
L 131.139338 54.285831 
L 139.892279 57.771261 
L 148.645221 62.889022 
L 157.398162 54.152173 
L 166.151103 55.416908 
L 174.904044 52.80792 
L 183.656985 78.300475 
L 192.409926 51.354847 
L 201.162868 42.573895 
L 209.915809 51.273962 
L 218.66875 52.688656 
L 227.421691 45.073994 
L 236.174632 39.633728 
L 244.927574 35.284674 
L 253.680515 49.83129 
L 262.433456 34.736412 
L 271.186397 35.105907 
L 279.939338 37.698 
L 288.692279 43.920863 
L 297.445221 43.702569 
L 306.198162 34.230143 
L 314.951103 41.545922 
L 323.704044 44.734488 
L 332.456985 44.211926 
L 341.209926 35.859764 
L 349.962868 33.674803 
L 358.715809 31.416392 
L 367.46875 31.302756 
L 376.221691 28.2143 
L 384.974632 22.318125 
L 393.727574 24.591806 
L 402.480515 35.119777 
L 411.233456 41.369074 
L 419.986397 25.660168 
L 428.739338 45.24789 
L 437.492279 34.214233 
L 446.245221 22.939855 
L 454.998162 25.579453 
L 463.751103 33.012488 
L 472.504044 23.944516 
L 481.256985 32.87273 
L 490.009926 22.571605 
L 498.762868 39.231939 
L 507.515809 32.038905 
L 516.26875 75.022708 
L 516.26875 77.106848 
L 516.26875 77.106848 
L 507.515809 35.521954 
L 498.762868 42.476349 
L 490.009926 26.132189 
L 481.256985 36.246193 
L 472.504044 27.476911 
L 463.751103 36.391609 
L 454.998162 29.349439 
L 446.245221 26.599718 
L 437.492279 37.448115 
L 428.739338 47.949249 
L 419.986397 29.850791 
L 411.233456 44.408758 
L 402.480515 38.884516 
L 393.727574 28.069141 
L 384.974632 25.694622 
L 376.221691 31.428988 
L 367.46875 34.34318 
L 358.715809 34.570571 
L 349.962868 36.819823 
L 341.209926 39.229701 
L 332.456985 47.216228 
L 323.704044 47.536616 
L 314.951103 44.428486 
L 306.198162 37.74335 
L 297.445221 46.28798 
L 288.692279 46.867292 
L 279.939338 40.971195 
L 271.186397 38.308992 
L 262.433456 37.856873 
L 253.680515 52.10644 
L 244.927574 38.649404 
L 236.174632 42.740661 
L 227.421691 48.04748 
L 218.66875 55.262769 
L 209.915809 54.331976 
L 201.162868 45.9012 
L 192.409926 54.078153 
L 183.656985 79.887133 
L 174.904044 56.041082 
L 166.151103 58.1121 
L 157.398162 57.069356 
L 148.645221 65.740548 
L 139.892279 60.705453 
L 131.139338 57.118049 
L 122.386397 51.676919 
L 113.633456 48.4602 
L 104.880515 50.963609 
L 96.127574 48.729329 
L 87.374632 53.356432 
L 78.621691 47.069454 
L 69.86875 72.871843 
z
" style="fill:#592400;fill-opacity:0.6;"/>
   </g>
   <g id="matplotlib.axis_3">
    <g id="xtick_13">
     <g id="line2d_20">
      <g>
       <use style="stroke:#000000;stroke-width:0.8;" x="69.86875" xlink:href="#mc59393201e" y="392.954489"/>
      </g>
     </g>
    </g>
    <g id="xtick_14">
     <g id="line2d_21">
      <g>
       <use style="stroke:#000000;stroke-width:0.8;" x="113.633456" xlink:href="#mc59393201e" y="392.954489"/>
      </g>
     </g>
    </g>
    <g id="xtick_15">
     <g id="line2d_22">
      <g>
       <use style="stroke:#000000;stroke-width:0.8;" x="148.645221" xlink:href="#mc59393201e" y="392.954489"/>
      </g>
     </g>
    </g>
    <g id="xtick_16">
     <g id="line2d_23">
      <g>
       <use style="stroke:#000000;stroke-width:0.8;" x="183.656985" xlink:href="#mc59393201e" y="392.954489"/>
      </g>
     </g>
    </g>
    <g id="xtick_17">
     <g id="line2d_24">
      <g>
       <use style="stroke:#000000;stroke-width:0.8;" x="218.66875" xlink:href="#mc59393201e" y="392.954489"/>
      </g>
     </g>
    </g>
    <g id="xtick_18">
     <g id="line2d_25">
      <g>
       <use style="stroke:#000000;stroke-width:0.8;" x="262.433456" xlink:href="#mc59393201e" y="392.954489"/>
      </g>
     </g>
    </g>
    <g id="xtick_19">
     <g id="line2d_26">
      <g>
       <use style="stroke:#000000;stroke-width:0.8;" x="297.445221" xlink:href="#mc59393201e" y="392.954489"/>
      </g>
     </g>
    </g>
    <g id="xtick_20">
     <g id="line2d_27">
      <g>
       <use style="stroke:#000000;stroke-width:0.8;" x="332.456985" xlink:href="#mc59393201e" y="392.954489"/>
      </g>
     </g>
    </g>
    <g id="xtick_21">
     <g id="line2d_28">
      <g>
       <use style="stroke:#000000;stroke-width:0.8;" x="376.221691" xlink:href="#mc59393201e" y="392.954489"/>
      </g>
     </g>
    </g>
    <g id="xtick_22">
     <g id="line2d_29">
      <g>
       <use style="stroke:#000000;stroke-width:0.8;" x="411.233456" xlink:href="#mc59393201e" y="392.954489"/>
      </g>
     </g>
    </g>
    <g id="xtick_23">
     <g id="line2d_30">
      <g>
       <use style="stroke:#000000;stroke-width:0.8;" x="446.245221" xlink:href="#mc59393201e" y="392.954489"/>
      </g>
     </g>
    </g>
    <g id="xtick_24">
     <g id="line2d_31">
      <g>
       <use style="stroke:#000000;stroke-width:0.8;" x="481.256985" xlink:href="#mc59393201e" y="392.954489"/>
      </g>
     </g>
    </g>
   </g>
   <g id="matplotlib.axis_4">
    <g id="ytick_7">
     <g id="line2d_32">
      <g>
       <use style="stroke:#000000;stroke-width:0.8;" x="69.86875" xlink:href="#m9c89ea416b" y="392.954489"/>
      </g>
     </g>
     <g id="text_21">
      <!-- 0.0 -->
      <g transform="translate(46.965625 396.753707)scale(0.1 -0.1)">
       <use xlink:href="#DejaVuSans-48"/>
       <use x="63.623047" xlink:href="#DejaVuSans-46"/>
       <use x="95.410156" xlink:href="#DejaVuSans-48"/>
      </g>
     </g>
    </g>
    <g id="ytick_8">
     <g id="line2d_33">
      <g>
       <use style="stroke:#000000;stroke-width:0.8;" x="69.86875" xlink:href="#m9c89ea416b" y="325.268373"/>
      </g>
     </g>
     <g id="text_22">
      <!-- 0.2 -->
      <g transform="translate(46.965625 329.067591)scale(0.1 -0.1)">
       <use xlink:href="#DejaVuSans-48"/>
       <use x="63.623047" xlink:href="#DejaVuSans-46"/>
       <use x="95.410156" xlink:href="#DejaVuSans-50"/>
      </g>
     </g>
    </g>
    <g id="ytick_9">
     <g id="line2d_34">
      <g>
       <use style="stroke:#000000;stroke-width:0.8;" x="69.86875" xlink:href="#m9c89ea416b" y="257.582257"/>
      </g>
     </g>
     <g id="text_23">
      <!-- 0.4 -->
      <defs>
       <path d="M 37.796875 64.3125 
L 12.890625 25.390625 
L 37.796875 25.390625 
z
M 35.203125 72.90625 
L 47.609375 72.90625 
L 47.609375 25.390625 
L 58.015625 25.390625 
L 58.015625 17.1875 
L 47.609375 17.1875 
L 47.609375 0 
L 37.796875 0 
L 37.796875 17.1875 
L 4.890625 17.1875 
L 4.890625 26.703125 
z
" id="DejaVuSans-52"/>
      </defs>
      <g transform="translate(46.965625 261.381475)scale(0.1 -0.1)">
       <use xlink:href="#DejaVuSans-48"/>
       <use x="63.623047" xlink:href="#DejaVuSans-46"/>
       <use x="95.410156" xlink:href="#DejaVuSans-52"/>
      </g>
     </g>
    </g>
    <g id="ytick_10">
     <g id="line2d_35">
      <g>
       <use style="stroke:#000000;stroke-width:0.8;" x="69.86875" xlink:href="#m9c89ea416b" y="189.896141"/>
      </g>
     </g>
     <g id="text_24">
      <!-- 0.6 -->
      <defs>
       <path d="M 33.015625 40.375 
Q 26.375 40.375 22.484375 35.828125 
Q 18.609375 31.296875 18.609375 23.390625 
Q 18.609375 15.53125 22.484375 10.953125 
Q 26.375 6.390625 33.015625 6.390625 
Q 39.65625 6.390625 43.53125 10.953125 
Q 47.40625 15.53125 47.40625 23.390625 
Q 47.40625 31.296875 43.53125 35.828125 
Q 39.65625 40.375 33.015625 40.375 
z
M 52.59375 71.296875 
L 52.59375 62.3125 
Q 48.875 64.0625 45.09375 64.984375 
Q 41.3125 65.921875 37.59375 65.921875 
Q 27.828125 65.921875 22.671875 59.328125 
Q 17.53125 52.734375 16.796875 39.40625 
Q 19.671875 43.65625 24.015625 45.921875 
Q 28.375 48.1875 33.59375 48.1875 
Q 44.578125 48.1875 50.953125 41.515625 
Q 57.328125 34.859375 57.328125 23.390625 
Q 57.328125 12.15625 50.6875 5.359375 
Q 44.046875 -1.421875 33.015625 -1.421875 
Q 20.359375 -1.421875 13.671875 8.265625 
Q 6.984375 17.96875 6.984375 36.375 
Q 6.984375 53.65625 15.1875 63.9375 
Q 23.390625 74.21875 37.203125 74.21875 
Q 40.921875 74.21875 44.703125 73.484375 
Q 48.484375 72.75 52.59375 71.296875 
z
" id="DejaVuSans-54"/>
      </defs>
      <g transform="translate(46.965625 193.695359)scale(0.1 -0.1)">
       <use xlink:href="#DejaVuSans-48"/>
       <use x="63.623047" xlink:href="#DejaVuSans-46"/>
       <use x="95.410156" xlink:href="#DejaVuSans-54"/>
      </g>
     </g>
    </g>
    <g id="ytick_11">
     <g id="line2d_36">
      <g>
       <use style="stroke:#000000;stroke-width:0.8;" x="69.86875" xlink:href="#m9c89ea416b" y="122.210025"/>
      </g>
     </g>
     <g id="text_25">
      <!-- 0.8 -->
      <defs>
       <path d="M 31.78125 34.625 
Q 24.75 34.625 20.71875 30.859375 
Q 16.703125 27.09375 16.703125 20.515625 
Q 16.703125 13.921875 20.71875 10.15625 
Q 24.75 6.390625 31.78125 6.390625 
Q 38.8125 6.390625 42.859375 10.171875 
Q 46.921875 13.96875 46.921875 20.515625 
Q 46.921875 27.09375 42.890625 30.859375 
Q 38.875 34.625 31.78125 34.625 
z
M 21.921875 38.8125 
Q 15.578125 40.375 12.03125 44.71875 
Q 8.5 49.078125 8.5 55.328125 
Q 8.5 64.0625 14.71875 69.140625 
Q 20.953125 74.21875 31.78125 74.21875 
Q 42.671875 74.21875 48.875 69.140625 
Q 55.078125 64.0625 55.078125 55.328125 
Q 55.078125 49.078125 51.53125 44.71875 
Q 48 40.375 41.703125 38.8125 
Q 48.828125 37.15625 52.796875 32.3125 
Q 56.78125 27.484375 56.78125 20.515625 
Q 56.78125 9.90625 50.3125 4.234375 
Q 43.84375 -1.421875 31.78125 -1.421875 
Q 19.734375 -1.421875 13.25 4.234375 
Q 6.78125 9.90625 6.78125 20.515625 
Q 6.78125 27.484375 10.78125 32.3125 
Q 14.796875 37.15625 21.921875 38.8125 
z
M 18.3125 54.390625 
Q 18.3125 48.734375 21.84375 45.5625 
Q 25.390625 42.390625 31.78125 42.390625 
Q 38.140625 42.390625 41.71875 45.5625 
Q 45.3125 48.734375 45.3125 54.390625 
Q 45.3125 60.0625 41.71875 63.234375 
Q 38.140625 66.40625 31.78125 66.40625 
Q 25.390625 66.40625 21.84375 63.234375 
Q 18.3125 60.0625 18.3125 54.390625 
z
" id="DejaVuSans-56"/>
      </defs>
      <g transform="translate(46.965625 126.009243)scale(0.1 -0.1)">
       <use xlink:href="#DejaVuSans-48"/>
       <use x="63.623047" xlink:href="#DejaVuSans-46"/>
       <use x="95.410156" xlink:href="#DejaVuSans-56"/>
      </g>
     </g>
    </g>
    <g id="ytick_12">
     <g id="line2d_37">
      <g>
       <use style="stroke:#000000;stroke-width:0.8;" x="69.86875" xlink:href="#m9c89ea416b" y="54.523909"/>
      </g>
     </g>
     <g id="text_26">
      <!-- 1.0 -->
      <g transform="translate(46.965625 58.323128)scale(0.1 -0.1)">
       <use xlink:href="#DejaVuSans-49"/>
       <use x="63.623047" xlink:href="#DejaVuSans-46"/>
       <use x="95.410156" xlink:href="#DejaVuSans-48"/>
      </g>
     </g>
    </g>
    <g id="text_27">
     <!-- Power (GW) -->
     <g transform="translate(33.885937 237.058963)rotate(-90)scale(0.1 -0.1)">
      <use xlink:href="#DejaVuSans-80"/>
      <use x="56.677734" xlink:href="#DejaVuSans-111"/>
      <use x="117.859375" xlink:href="#DejaVuSans-119"/>
      <use x="199.646484" xlink:href="#DejaVuSans-101"/>
      <use x="261.169922" xlink:href="#DejaVuSans-114"/>
      <use x="302.283203" xlink:href="#DejaVuSans-32"/>
      <use x="334.070312" xlink:href="#DejaVuSans-40"/>
      <use x="373.083984" xlink:href="#DejaVuSans-71"/>
      <use x="450.574219" xlink:href="#DejaVuSans-87"/>
      <use x="549.451172" xlink:href="#DejaVuSans-41"/>
     </g>
    </g>
   </g>
   <g id="line2d_38">
    <path clip-path="url(#p4e353e5448)" d="M 69.86875 72.192223 
L 78.621691 44.968187 
L 87.374632 51.3206 
L 96.127574 46.624606 
L 104.880515 48.837454 
L 113.633456 46.199071 
L 122.386397 48.805773 
L 131.139338 55.100936 
L 139.892279 58.607316 
L 148.645221 63.712867 
L 157.398162 54.980731 
L 166.151103 56.241795 
L 174.904044 53.655851 
L 183.656985 79.283419 
L 192.409926 52.271962 
L 201.162868 43.391995 
L 209.915809 52.098722 
L 218.66875 53.505559 
L 227.421691 45.893483 
L 236.174632 40.50426 
L 244.927574 36.162504 
L 253.680515 50.728862 
L 262.433456 35.619673 
L 271.186397 35.962665 
L 279.939338 38.513454 
L 288.692279 44.7529 
L 297.445221 44.527016 
L 306.198162 34.95786 
L 314.951103 42.397717 
L 323.704044 45.56087 
L 332.456985 45.025237 
L 341.209926 36.612202 
L 349.962868 34.526434 
L 358.715809 32.259448 
L 367.46875 32.174101 
L 376.221691 29.051275 
L 384.974632 23.054324 
L 393.727574 25.331892 
L 402.480515 35.854424 
L 411.233456 42.172242 
L 419.986397 26.383566 
L 428.739338 46.06409 
L 437.492279 35.091307 
L 446.245221 23.700136 
L 454.998162 26.307419 
L 463.751103 33.814637 
L 472.504044 24.699086 
L 481.256985 33.673278 
L 490.009926 23.382827 
L 498.762868 40.003554 
L 507.515809 32.826503 
L 516.26875 75.891135 
" style="fill:none;stroke:#000000;stroke-linecap:square;stroke-opacity:0.5;stroke-width:1.5;"/>
   </g>
   <g id="line2d_39">
    <path clip-path="url(#p4e353e5448)" d="M 69.86875 181.813931 
L 78.621691 181.773807 
L 87.374632 184.002948 
L 96.127574 181.773807 
L 104.880515 181.773807 
L 113.633456 181.773807 
L 122.386397 181.773807 
L 131.139338 181.773807 
L 139.892279 181.773807 
L 148.645221 181.773807 
L 157.398162 181.773807 
L 166.151103 181.773807 
L 174.904044 181.773807 
L 183.656985 181.821786 
L 192.409926 181.773807 
L 201.162868 181.773807 
L 209.915809 181.792155 
L 218.66875 181.773807 
L 227.421691 181.773807 
L 236.174632 181.773807 
L 244.927574 181.773807 
L 253.680515 181.773807 
L 262.433456 181.773807 
L 271.186397 181.773807 
L 279.939338 181.773807 
L 288.692279 181.773807 
L 297.445221 181.773807 
L 306.198162 181.773807 
L 314.951103 181.773807 
L 323.704044 181.773807 
L 332.456985 181.773807 
L 341.209926 181.773807 
L 349.962868 181.773807 
L 358.715809 181.773807 
L 367.46875 181.773807 
L 376.221691 181.773807 
L 384.974632 181.773807 
L 393.727574 181.773807 
L 402.480515 181.773807 
L 411.233456 182.224688 
L 419.986397 181.773807 
L 428.739338 181.773807 
L 437.492279 181.773807 
L 446.245221 181.773807 
L 454.998162 181.773807 
L 463.751103 181.773807 
L 472.504044 181.773807 
L 481.256985 181.773807 
L 490.009926 181.773807 
L 498.762868 181.773807 
L 507.515809 181.773807 
L 516.26875 181.84801 
" style="fill:none;stroke:#ffb30f;stroke-linecap:square;stroke-opacity:0.2;stroke-width:1.5;"/>
   </g>
   <g id="line2d_40">
    <path clip-path="url(#p4e353e5448)" d="M 69.86875 91.117841 
L 78.621691 75.7243 
L 87.374632 81.683239 
L 96.127574 79.144758 
L 104.880515 80.91358 
L 113.633456 80.163019 
L 122.386397 90.083089 
L 131.139338 84.272023 
L 139.892279 86.369657 
L 148.645221 90.390725 
L 157.398162 87.482177 
L 166.151103 85.672988 
L 174.904044 85.241807 
L 183.656985 93.827901 
L 192.409926 76.682049 
L 201.162868 75.38197 
L 209.915809 75.960197 
L 218.66875 75.811016 
L 227.421691 69.897449 
L 236.174632 69.084563 
L 244.927574 66.781604 
L 253.680515 70.989246 
L 262.433456 61.869395 
L 271.186397 63.218766 
L 279.939338 69.199109 
L 288.692279 70.760886 
L 297.445221 68.442298 
L 306.198162 72.543862 
L 314.951103 72.024747 
L 323.704044 70.903503 
L 332.456985 73.536207 
L 341.209926 69.978382 
L 349.962868 63.922328 
L 358.715809 64.18248 
L 367.46875 63.978413 
L 376.221691 60.001428 
L 384.974632 61.583487 
L 393.727574 64.895959 
L 402.480515 74.136872 
L 411.233456 74.51455 
L 419.986397 69.633424 
L 428.739338 73.843564 
L 437.492279 67.833829 
L 446.245221 67.634612 
L 454.998162 73.706148 
L 463.751103 74.753213 
L 472.504044 73.401757 
L 481.256985 77.499259 
L 490.009926 69.841855 
L 498.762868 79.002918 
L 507.515809 75.171645 
L 516.26875 101.909199 
" style="fill:none;stroke:#2980b9;stroke-linecap:square;stroke-opacity:0.2;stroke-width:1.5;"/>
   </g>
   <g id="line2d_41">
    <path clip-path="url(#p4e353e5448)" d="M 69.86875 88.237162 
L 78.621691 73.150775 
L 87.374632 79.473311 
L 96.127574 77.103528 
L 104.880515 79.345105 
L 113.633456 78.750389 
L 122.386397 88.799824 
L 131.139338 83.206532 
L 139.892279 85.464548 
L 148.645221 89.414532 
L 157.398162 86.6867 
L 166.151103 84.627318 
L 174.904044 83.643385 
L 183.656985 92.150775 
L 192.409926 74.46217 
L 201.162868 73.720957 
L 209.915809 74.258998 
L 218.66875 74.090371 
L 227.421691 68.089324 
L 236.174632 67.19461 
L 244.927574 64.920266 
L 253.680515 68.255192 
L 262.433456 59.409433 
L 271.186397 60.564954 
L 279.939338 66.486265 
L 288.692279 68.229131 
L 297.445221 66.306388 
L 306.198162 69.849417 
L 314.951103 69.40413 
L 323.704044 68.380301 
L 332.456985 71.25782 
L 341.209926 67.715951 
L 349.962868 62.089253 
L 358.715809 62.373009 
L 367.46875 62.215291 
L 376.221691 57.9816 
L 384.974632 59.681541 
L 393.727574 63.434431 
L 402.480515 72.547231 
L 411.233456 72.788518 
L 419.986397 67.945909 
L 428.739338 71.731866 
L 437.492279 64.968277 
L 446.245221 64.826524 
L 454.998162 70.42887 
L 463.751103 71.710556 
L 472.504044 70.181266 
L 481.256985 74.580516 
L 490.009926 67.709503 
L 498.762868 76.964509 
L 507.515809 72.716505 
L 516.26875 98.987102 
" style="fill:none;stroke:#3498db;stroke-linecap:square;stroke-opacity:0.2;stroke-width:1.5;"/>
   </g>
   <g id="line2d_42">
    <path clip-path="url(#p4e353e5448)" d="M 69.86875 86.347692 
L 78.621691 70.981898 
L 87.374632 78.177001 
L 96.127574 73.911654 
L 104.880515 76.309806 
L 113.633456 75.402143 
L 122.386397 87.711508 
L 131.139338 80.387587 
L 139.892279 82.11328 
L 148.645221 85.287391 
L 157.398162 82.696946 
L 166.151103 80.967383 
L 174.904044 81.435529 
L 183.656985 91.086331 
L 192.409926 72.892195 
L 201.162868 71.947268 
L 209.915809 73.461168 
L 218.66875 72.290796 
L 227.421691 67.103594 
L 236.174632 66.115208 
L 244.927574 64.202159 
L 253.680515 66.746154 
L 262.433456 59.161855 
L 271.186397 60.360687 
L 279.939338 65.678514 
L 288.692279 67.202206 
L 297.445221 64.347621 
L 306.198162 68.403583 
L 314.951103 68.424746 
L 323.704044 67.738139 
L 332.456985 70.009857 
L 341.209926 66.675579 
L 349.962868 60.962712 
L 358.715809 60.520504 
L 367.46875 60.912635 
L 376.221691 56.795028 
L 384.974632 57.710535 
L 393.727574 61.404804 
L 402.480515 70.596672 
L 411.233456 69.312554 
L 419.986397 65.378016 
L 428.739338 69.420113 
L 437.492279 63.346781 
L 446.245221 63.094686 
L 454.998162 68.511398 
L 463.751103 69.935911 
L 472.504044 68.111804 
L 481.256985 72.077086 
L 490.009926 66.136103 
L 498.762868 75.966642 
L 507.515809 69.832089 
L 516.26875 95.844501 
" style="fill:none;stroke:#28b463;stroke-linecap:square;stroke-opacity:0.2;stroke-width:1.5;"/>
   </g>
   <g id="line2d_43">
    <path clip-path="url(#p4e353e5448)" d="M 69.86875 77.556463 
L 78.621691 54.824136 
L 87.374632 60.675956 
L 96.127574 56.176898 
L 104.880515 58.982967 
L 113.633456 56.410565 
L 122.386397 60.882343 
L 131.139338 65.218876 
L 139.892279 68.332477 
L 148.645221 73.19424 
L 157.398162 64.592067 
L 166.151103 65.48544 
L 174.904044 63.674084 
L 183.656985 84.338402 
L 192.409926 60.706739 
L 201.162868 54.390931 
L 209.915809 62.178667 
L 218.66875 62.066258 
L 227.421691 55.583297 
L 236.174632 50.012245 
L 244.927574 46.156958 
L 253.680515 58.07692 
L 262.433456 45.112321 
L 271.186397 45.797048 
L 279.939338 48.842332 
L 288.692279 54.199503 
L 297.445221 53.317284 
L 306.198162 47.188269 
L 314.951103 51.291413 
L 323.704044 54.805006 
L 332.456985 54.926126 
L 341.209926 47.781286 
L 349.962868 43.911904 
L 358.715809 42.019341 
L 367.46875 41.462156 
L 376.221691 39.186913 
L 384.974632 35.714496 
L 393.727574 37.794549 
L 402.480515 48.779539 
L 411.233456 52.017073 
L 419.986397 40.075492 
L 428.739338 54.608308 
L 437.492279 44.850127 
L 446.245221 36.221647 
L 454.998162 38.557617 
L 463.751103 44.249114 
L 472.504044 36.094479 
L 481.256985 43.776418 
L 490.009926 34.0219 
L 498.762868 50.272019 
L 507.515809 43.552768 
L 516.26875 82.651579 
" style="fill:none;stroke:#494949;stroke-linecap:square;stroke-opacity:0.2;stroke-width:1.5;"/>
   </g>
   <g id="line2d_44">
    <path clip-path="url(#p4e353e5448)" d="M 69.86875 77.556463 
L 78.621691 54.824136 
L 87.374632 60.675956 
L 96.127574 56.176898 
L 104.880515 58.982967 
L 113.633456 56.410565 
L 122.386397 60.882343 
L 131.139338 65.218876 
L 139.892279 68.332477 
L 148.645221 73.19424 
L 157.398162 64.592067 
L 166.151103 65.48544 
L 174.904044 63.674084 
L 183.656985 84.338402 
L 192.409926 60.706739 
L 201.162868 54.390931 
L 209.915809 62.178667 
L 218.66875 62.066258 
L 227.421691 55.583297 
L 236.174632 50.012245 
L 244.927574 46.156958 
L 253.680515 58.07692 
L 262.433456 45.112321 
L 271.186397 45.797048 
L 279.939338 48.842332 
L 288.692279 54.199503 
L 297.445221 53.317284 
L 306.198162 47.188269 
L 314.951103 51.291413 
L 323.704044 54.805006 
L 332.456985 54.926126 
L 341.209926 47.781286 
L 349.962868 43.911904 
L 358.715809 42.019341 
L 367.46875 41.462156 
L 376.221691 39.186913 
L 384.974632 35.714496 
L 393.727574 37.794549 
L 402.480515 48.779539 
L 411.233456 52.017073 
L 419.986397 40.075492 
L 428.739338 54.608308 
L 437.492279 44.850127 
L 446.245221 36.221647 
L 454.998162 38.557617 
L 463.751103 44.249114 
L 472.504044 36.094479 
L 481.256985 43.776418 
L 490.009926 34.0219 
L 498.762868 50.272019 
L 507.515809 43.552768 
L 516.26875 82.651579 
" style="fill:none;stroke:#7c7c7c;stroke-linecap:square;stroke-opacity:0.2;stroke-width:1.5;"/>
   </g>
   <g id="line2d_45">
    <path clip-path="url(#p4e353e5448)" d="M 69.86875 72.871843 
L 78.621691 47.069454 
L 87.374632 53.356432 
L 96.127574 48.729329 
L 104.880515 50.963609 
L 113.633456 48.4602 
L 122.386397 51.676919 
L 131.139338 57.118049 
L 139.892279 60.705453 
L 148.645221 65.740548 
L 157.398162 57.069356 
L 166.151103 58.1121 
L 174.904044 56.041082 
L 183.656985 79.887133 
L 192.409926 54.078153 
L 201.162868 45.9012 
L 209.915809 54.331976 
L 218.66875 55.262769 
L 227.421691 48.04748 
L 236.174632 42.740661 
L 244.927574 38.649404 
L 253.680515 52.10644 
L 262.433456 37.856873 
L 271.186397 38.308992 
L 279.939338 40.971195 
L 288.692279 46.867292 
L 297.445221 46.28798 
L 306.198162 37.74335 
L 314.951103 44.428486 
L 323.704044 47.536616 
L 332.456985 47.216228 
L 341.209926 39.229701 
L 349.962868 36.819823 
L 358.715809 34.570571 
L 367.46875 34.34318 
L 376.221691 31.428988 
L 384.974632 25.694622 
L 393.727574 28.069141 
L 402.480515 38.884516 
L 411.233456 44.408758 
L 419.986397 29.850791 
L 428.739338 47.949249 
L 437.492279 37.448115 
L 446.245221 26.599718 
L 454.998162 29.349439 
L 463.751103 36.391609 
L 472.504044 27.476911 
L 481.256985 36.246193 
L 490.009926 26.132189 
L 498.762868 42.476349 
L 507.515809 35.521954 
L 516.26875 77.106848 
" style="fill:none;stroke:#ba4a00;stroke-linecap:square;stroke-opacity:0.2;stroke-width:1.5;"/>
   </g>
   <g id="line2d_46">
    <path clip-path="url(#p4e353e5448)" d="M 69.86875 71.303451 
L 78.621691 44.142263 
L 87.374632 50.520121 
L 96.127574 45.809157 
L 104.880515 48.046082 
L 113.633456 45.390408 
L 122.386397 48.05984 
L 131.139338 54.285831 
L 139.892279 57.771261 
L 148.645221 62.889022 
L 157.398162 54.152173 
L 166.151103 55.416908 
L 174.904044 52.80792 
L 183.656985 78.300475 
L 192.409926 51.354847 
L 201.162868 42.573895 
L 209.915809 51.273962 
L 218.66875 52.688656 
L 227.421691 45.073994 
L 236.174632 39.633728 
L 244.927574 35.284674 
L 253.680515 49.83129 
L 262.433456 34.736412 
L 271.186397 35.105907 
L 279.939338 37.698 
L 288.692279 43.920863 
L 297.445221 43.702569 
L 306.198162 34.230143 
L 314.951103 41.545922 
L 323.704044 44.734488 
L 332.456985 44.211926 
L 341.209926 35.859764 
L 349.962868 33.674803 
L 358.715809 31.416392 
L 367.46875 31.302756 
L 376.221691 28.2143 
L 384.974632 22.318125 
L 393.727574 24.591806 
L 402.480515 35.119777 
L 411.233456 41.369074 
L 419.986397 25.660168 
L 428.739338 45.24789 
L 437.492279 34.214233 
L 446.245221 22.939855 
L 454.998162 25.579453 
L 463.751103 33.012488 
L 472.504044 23.944516 
L 481.256985 32.87273 
L 490.009926 22.571605 
L 498.762868 39.231939 
L 507.515809 32.038905 
L 516.26875 75.022708 
" style="fill:none;stroke:#592400;stroke-linecap:square;stroke-opacity:0.2;stroke-width:1.5;"/>
   </g>
   <g id="patch_10">
    <path d="M 69.86875 392.954489 
L 69.86875 22.318125 
" style="fill:none;stroke:#000000;stroke-linecap:square;stroke-linejoin:miter;stroke-width:0.8;"/>
   </g>
   <g id="patch_11">
    <path d="M 516.26875 392.954489 
L 516.26875 22.318125 
" style="fill:none;stroke:#000000;stroke-linecap:square;stroke-linejoin:miter;stroke-width:0.8;"/>
   </g>
   <g id="patch_12">
    <path d="M 69.86875 392.954489 
L 516.26875 392.954489 
" style="fill:none;stroke:#000000;stroke-linecap:square;stroke-linejoin:miter;stroke-width:0.8;"/>
   </g>
   <g id="patch_13">
    <path d="M 69.86875 22.318125 
L 516.26875 22.318125 
" style="fill:none;stroke:#000000;stroke-linecap:square;stroke-linejoin:miter;stroke-width:0.8;"/>
   </g>
   <g id="text_28">
    <!-- System Energy Dispatch -->
    <defs>
     <path d="M 9.8125 72.90625 
L 55.90625 72.90625 
L 55.90625 64.59375 
L 19.671875 64.59375 
L 19.671875 43.015625 
L 54.390625 43.015625 
L 54.390625 34.71875 
L 19.671875 34.71875 
L 19.671875 8.296875 
L 56.78125 8.296875 
L 56.78125 0 
L 9.8125 0 
z
" id="DejaVuSans-69"/>
     <path d="M 54.890625 33.015625 
L 54.890625 0 
L 45.90625 0 
L 45.90625 32.71875 
Q 45.90625 40.484375 42.875 44.328125 
Q 39.84375 48.1875 33.796875 48.1875 
Q 26.515625 48.1875 22.3125 43.546875 
Q 18.109375 38.921875 18.109375 30.90625 
L 18.109375 0 
L 9.078125 0 
L 9.078125 75.984375 
L 18.109375 75.984375 
L 18.109375 46.1875 
Q 21.34375 51.125 25.703125 53.5625 
Q 30.078125 56 35.796875 56 
Q 45.21875 56 50.046875 50.171875 
Q 54.890625 44.34375 54.890625 33.015625 
z
" id="DejaVuSans-104"/>
    </defs>
    <g transform="translate(219.520938 16.318125)scale(0.12 -0.12)">
     <use xlink:href="#DejaVuSans-83"/>
     <use x="63.476562" xlink:href="#DejaVuSans-121"/>
     <use x="122.65625" xlink:href="#DejaVuSans-115"/>
     <use x="174.755859" xlink:href="#DejaVuSans-116"/>
     <use x="213.964844" xlink:href="#DejaVuSans-101"/>
     <use x="275.488281" xlink:href="#DejaVuSans-109"/>
     <use x="372.900391" xlink:href="#DejaVuSans-32"/>
     <use x="404.6875" xlink:href="#DejaVuSans-69"/>
     <use x="467.871094" xlink:href="#DejaVuSans-110"/>
     <use x="531.25" xlink:href="#DejaVuSans-101"/>
     <use x="592.773438" xlink:href="#DejaVuSans-114"/>
     <use x="632.136719" xlink:href="#DejaVuSans-103"/>
     <use x="695.613281" xlink:href="#DejaVuSans-121"/>
     <use x="754.792969" xlink:href="#DejaVuSans-32"/>
     <use x="786.580078" xlink:href="#DejaVuSans-68"/>
     <use x="863.582031" xlink:href="#DejaVuSans-105"/>
     <use x="891.365234" xlink:href="#DejaVuSans-115"/>
     <use x="943.464844" xlink:href="#DejaVuSans-112"/>
     <use x="1006.941406" xlink:href="#DejaVuSans-97"/>
     <use x="1068.220703" xlink:href="#DejaVuSans-116"/>
     <use x="1107.429688" xlink:href="#DejaVuSans-99"/>
     <use x="1162.410156" xlink:href="#DejaVuSans-104"/>
    </g>
   </g>
   <g id="legend_2">
    <g id="patch_14">
     <path d="M 600.476875 162.42125 
L 710.14875 162.42125 
Q 712.14875 162.42125 712.14875 160.42125 
L 712.14875 29.318125 
Q 712.14875 27.318125 710.14875 27.318125 
L 600.476875 27.318125 
Q 598.476875 27.318125 598.476875 29.318125 
L 598.476875 160.42125 
Q 598.476875 162.42125 600.476875 162.42125 
z
" style="fill:#ffffff;opacity:0.8;stroke:#cccccc;stroke-linejoin:miter;"/>
    </g>
    <g id="line2d_47">
     <path d="M 602.476875 35.416562 
L 622.476875 35.416562 
" style="fill:none;stroke:#000000;stroke-linecap:square;stroke-opacity:0.5;stroke-width:1.5;"/>
    </g>
    <g id="line2d_48"/>
    <g id="text_29">
     <!-- Demand -->
     <defs>
      <path d="M 45.40625 46.390625 
L 45.40625 75.984375 
L 54.390625 75.984375 
L 54.390625 0 
L 45.40625 0 
L 45.40625 8.203125 
Q 42.578125 3.328125 38.25 0.953125 
Q 33.9375 -1.421875 27.875 -1.421875 
Q 17.96875 -1.421875 11.734375 6.484375 
Q 5.515625 14.40625 5.515625 27.296875 
Q 5.515625 40.1875 11.734375 48.09375 
Q 17.96875 56 27.875 56 
Q 33.9375 56 38.25 53.625 
Q 42.578125 51.265625 45.40625 46.390625 
z
M 14.796875 27.296875 
Q 14.796875 17.390625 18.875 11.75 
Q 22.953125 6.109375 30.078125 6.109375 
Q 37.203125 6.109375 41.296875 11.75 
Q 45.40625 17.390625 45.40625 27.296875 
Q 45.40625 37.203125 41.296875 42.84375 
Q 37.203125 48.484375 30.078125 48.484375 
Q 22.953125 48.484375 18.875 42.84375 
Q 14.796875 37.203125 14.796875 27.296875 
z
" id="DejaVuSans-100"/>
     </defs>
     <g transform="translate(630.476875 38.916562)scale(0.1 -0.1)">
      <use xlink:href="#DejaVuSans-68"/>
      <use x="77.001953" xlink:href="#DejaVuSans-101"/>
      <use x="138.525391" xlink:href="#DejaVuSans-109"/>
      <use x="235.9375" xlink:href="#DejaVuSans-97"/>
      <use x="297.216797" xlink:href="#DejaVuSans-110"/>
      <use x="360.595703" xlink:href="#DejaVuSans-100"/>
     </g>
    </g>
    <g id="patch_15">
     <path d="M 602.476875 53.594687 
L 622.476875 53.594687 
L 622.476875 46.594687 
L 602.476875 46.594687 
z
" style="fill:#ffb30f;opacity:0.6;"/>
    </g>
    <g id="text_30">
     <!-- Geothermal -->
     <g transform="translate(630.476875 53.594687)scale(0.1 -0.1)">
      <use xlink:href="#DejaVuSans-71"/>
      <use x="77.490234" xlink:href="#DejaVuSans-101"/>
      <use x="139.013672" xlink:href="#DejaVuSans-111"/>
      <use x="200.195312" xlink:href="#DejaVuSans-116"/>
      <use x="239.404297" xlink:href="#DejaVuSans-104"/>
      <use x="302.783203" xlink:href="#DejaVuSans-101"/>
      <use x="364.306641" xlink:href="#DejaVuSans-114"/>
      <use x="403.669922" xlink:href="#DejaVuSans-109"/>
      <use x="501.082031" xlink:href="#DejaVuSans-97"/>
      <use x="562.361328" xlink:href="#DejaVuSans-108"/>
     </g>
    </g>
    <g id="patch_16">
     <path d="M 602.476875 68.272812 
L 622.476875 68.272812 
L 622.476875 61.272812 
L 602.476875 61.272812 
z
" style="fill:#2980b9;opacity:0.6;"/>
    </g>
    <g id="text_31">
     <!-- Large Hydro -->
     <defs>
      <path d="M 9.8125 72.90625 
L 19.671875 72.90625 
L 19.671875 8.296875 
L 55.171875 8.296875 
L 55.171875 0 
L 9.8125 0 
z
" id="DejaVuSans-76"/>
      <path d="M 9.8125 72.90625 
L 19.671875 72.90625 
L 19.671875 43.015625 
L 55.515625 43.015625 
L 55.515625 72.90625 
L 65.375 72.90625 
L 65.375 0 
L 55.515625 0 
L 55.515625 34.71875 
L 19.671875 34.71875 
L 19.671875 0 
L 9.8125 0 
z
" id="DejaVuSans-72"/>
     </defs>
     <g transform="translate(630.476875 68.272812)scale(0.1 -0.1)">
      <use xlink:href="#DejaVuSans-76"/>
      <use x="55.712891" xlink:href="#DejaVuSans-97"/>
      <use x="116.992188" xlink:href="#DejaVuSans-114"/>
      <use x="156.355469" xlink:href="#DejaVuSans-103"/>
      <use x="219.832031" xlink:href="#DejaVuSans-101"/>
      <use x="281.355469" xlink:href="#DejaVuSans-32"/>
      <use x="313.142578" xlink:href="#DejaVuSans-72"/>
      <use x="388.337891" xlink:href="#DejaVuSans-121"/>
      <use x="447.517578" xlink:href="#DejaVuSans-100"/>
      <use x="510.994141" xlink:href="#DejaVuSans-114"/>
      <use x="549.857422" xlink:href="#DejaVuSans-111"/>
     </g>
    </g>
    <g id="patch_17">
     <path d="M 602.476875 82.950937 
L 622.476875 82.950937 
L 622.476875 75.950937 
L 602.476875 75.950937 
z
" style="fill:#3498db;opacity:0.6;"/>
    </g>
    <g id="text_32">
     <!-- Small Hydro -->
     <g transform="translate(630.476875 82.950937)scale(0.1 -0.1)">
      <use xlink:href="#DejaVuSans-83"/>
      <use x="63.476562" xlink:href="#DejaVuSans-109"/>
      <use x="160.888672" xlink:href="#DejaVuSans-97"/>
      <use x="222.167969" xlink:href="#DejaVuSans-108"/>
      <use x="249.951172" xlink:href="#DejaVuSans-108"/>
      <use x="277.734375" xlink:href="#DejaVuSans-32"/>
      <use x="309.521484" xlink:href="#DejaVuSans-72"/>
      <use x="384.716797" xlink:href="#DejaVuSans-121"/>
      <use x="443.896484" xlink:href="#DejaVuSans-100"/>
      <use x="507.373047" xlink:href="#DejaVuSans-114"/>
      <use x="546.236328" xlink:href="#DejaVuSans-111"/>
     </g>
    </g>
    <g id="patch_18">
     <path d="M 602.476875 97.629062 
L 622.476875 97.629062 
L 622.476875 90.629062 
L 602.476875 90.629062 
z
" style="fill:#28b463;opacity:0.6;"/>
    </g>
    <g id="text_33">
     <!-- Onshore Wind -->
     <g transform="translate(630.476875 97.629062)scale(0.1 -0.1)">
      <use xlink:href="#DejaVuSans-79"/>
      <use x="78.710938" xlink:href="#DejaVuSans-110"/>
      <use x="142.089844" xlink:href="#DejaVuSans-115"/>
      <use x="194.189453" xlink:href="#DejaVuSans-104"/>
      <use x="257.568359" xlink:href="#DejaVuSans-111"/>
      <use x="318.75" xlink:href="#DejaVuSans-114"/>
      <use x="357.613281" xlink:href="#DejaVuSans-101"/>
      <use x="419.136719" xlink:href="#DejaVuSans-32"/>
      <use x="450.923828" xlink:href="#DejaVuSans-87"/>
      <use x="547.550781" xlink:href="#DejaVuSans-105"/>
      <use x="575.333984" xlink:href="#DejaVuSans-110"/>
      <use x="638.712891" xlink:href="#DejaVuSans-100"/>
     </g>
    </g>
    <g id="patch_19">
     <path d="M 602.476875 112.307187 
L 622.476875 112.307187 
L 622.476875 105.307187 
L 602.476875 105.307187 
z
" style="fill:#494949;opacity:0.6;"/>
    </g>
    <g id="text_34">
     <!-- Heavy Fuel Oil -->
     <g transform="translate(630.476875 112.307187)scale(0.1 -0.1)">
      <use xlink:href="#DejaVuSans-72"/>
      <use x="75.195312" xlink:href="#DejaVuSans-101"/>
      <use x="136.71875" xlink:href="#DejaVuSans-97"/>
      <use x="197.998047" xlink:href="#DejaVuSans-118"/>
      <use x="257.177734" xlink:href="#DejaVuSans-121"/>
      <use x="316.357422" xlink:href="#DejaVuSans-32"/>
      <use x="348.144531" xlink:href="#DejaVuSans-70"/>
      <use x="400.164062" xlink:href="#DejaVuSans-117"/>
      <use x="463.542969" xlink:href="#DejaVuSans-101"/>
      <use x="525.066406" xlink:href="#DejaVuSans-108"/>
      <use x="552.849609" xlink:href="#DejaVuSans-32"/>
      <use x="584.636719" xlink:href="#DejaVuSans-79"/>
      <use x="663.347656" xlink:href="#DejaVuSans-105"/>
      <use x="691.130859" xlink:href="#DejaVuSans-108"/>
     </g>
    </g>
    <g id="patch_20">
     <path d="M 602.476875 126.985312 
L 622.476875 126.985312 
L 622.476875 119.985312 
L 602.476875 119.985312 
z
" style="fill:#7c7c7c;opacity:0.6;"/>
    </g>
    <g id="text_35">
     <!-- Gast Turbine  -->
     <defs>
      <path d="M -0.296875 72.90625 
L 61.375 72.90625 
L 61.375 64.59375 
L 35.5 64.59375 
L 35.5 0 
L 25.59375 0 
L 25.59375 64.59375 
L -0.296875 64.59375 
z
" id="DejaVuSans-84"/>
     </defs>
     <g transform="translate(630.476875 126.985312)scale(0.1 -0.1)">
      <use xlink:href="#DejaVuSans-71"/>
      <use x="77.490234" xlink:href="#DejaVuSans-97"/>
      <use x="138.769531" xlink:href="#DejaVuSans-115"/>
      <use x="190.869141" xlink:href="#DejaVuSans-116"/>
      <use x="230.078125" xlink:href="#DejaVuSans-32"/>
      <use x="261.865234" xlink:href="#DejaVuSans-84"/>
      <use x="307.824219" xlink:href="#DejaVuSans-117"/>
      <use x="371.203125" xlink:href="#DejaVuSans-114"/>
      <use x="412.316406" xlink:href="#DejaVuSans-98"/>
      <use x="475.792969" xlink:href="#DejaVuSans-105"/>
      <use x="503.576172" xlink:href="#DejaVuSans-110"/>
      <use x="566.955078" xlink:href="#DejaVuSans-101"/>
      <use x="628.478516" xlink:href="#DejaVuSans-32"/>
     </g>
    </g>
    <g id="patch_21">
     <path d="M 602.476875 141.663437 
L 622.476875 141.663437 
L 622.476875 134.663437 
L 602.476875 134.663437 
z
" style="fill:#ba4a00;opacity:0.6;"/>
    </g>
    <g id="text_36">
     <!-- Biomass -->
     <g transform="translate(630.476875 141.663437)scale(0.1 -0.1)">
      <use xlink:href="#DejaVuSans-66"/>
      <use x="68.603516" xlink:href="#DejaVuSans-105"/>
      <use x="96.386719" xlink:href="#DejaVuSans-111"/>
      <use x="157.568359" xlink:href="#DejaVuSans-109"/>
      <use x="254.980469" xlink:href="#DejaVuSans-97"/>
      <use x="316.259766" xlink:href="#DejaVuSans-115"/>
      <use x="368.359375" xlink:href="#DejaVuSans-115"/>
     </g>
    </g>
    <g id="patch_22">
     <path d="M 602.476875 156.341562 
L 622.476875 156.341562 
L 622.476875 149.341562 
L 602.476875 149.341562 
z
" style="fill:#592400;opacity:0.6;"/>
    </g>
    <g id="text_37">
     <!-- Coffee Biomass -->
     <g transform="translate(630.476875 156.341562)scale(0.1 -0.1)">
      <use xlink:href="#DejaVuSans-67"/>
      <use x="69.824219" xlink:href="#DejaVuSans-111"/>
      <use x="131.005859" xlink:href="#DejaVuSans-102"/>
      <use x="166.210938" xlink:href="#DejaVuSans-102"/>
      <use x="201.416016" xlink:href="#DejaVuSans-101"/>
      <use x="262.939453" xlink:href="#DejaVuSans-101"/>
      <use x="324.462891" xlink:href="#DejaVuSans-32"/>
      <use x="356.25" xlink:href="#DejaVuSans-66"/>
      <use x="424.853516" xlink:href="#DejaVuSans-105"/>
      <use x="452.636719" xlink:href="#DejaVuSans-111"/>
      <use x="513.818359" xlink:href="#DejaVuSans-109"/>
      <use x="611.230469" xlink:href="#DejaVuSans-97"/>
      <use x="672.509766" xlink:href="#DejaVuSans-115"/>
      <use x="724.609375" xlink:href="#DejaVuSans-115"/>
     </g>
    </g>
   </g>
  </g>
 </g>
 <defs>
  <clipPath id="p05d71a7852">
   <rect height="123.545455" width="446.4" x="69.86875" y="442.37267"/>
  </clipPath>
  <clipPath id="p4e353e5448">
   <rect height="370.636364" width="446.4" x="69.86875" y="22.318125"/>
  </clipPath>
 </defs>
</svg>
